;PTH Drill file created by EasyEDA 
M48
METRIC,LZ,000.000
;Holesize 1 = 0.305 METRIC
T01C0.305
;Holesize 2 = 0.701 METRIC
T02C0.701
;Holesize 3 = 0.712 METRIC
T03C0.712
;Holesize 4 = 0.900 METRIC
T04C0.900
;Holesize 5 = 0.901 METRIC
T05C0.901
;Holesize 6 = 0.915 METRIC
T06C0.915
;Holesize 7 = 1.000 METRIC
T07C1.000
;Holesize 8 = 1.118 METRIC
T08C1.118
;Holesize 9 = 1.141 METRIC
T09C1.141
;Holesize 10 = 1.200 METRIC
T10C1.200
;Holesize 11 = 1.301 METRIC
T11C1.301
;Holesize 12 = 1.403 METRIC
T12C1.403
%
G05
G90
T01
X+040640Y+042418
X+038354Y+040132
T02
X+039713Y+022606
X+044614Y+022606
T03
X+024384Y+030734
X+026924Y+030734
X+005334Y+029210
X+007874Y+029210
X+044704Y+029718
X+044704Y+027178
X+039624Y+029718
X+039624Y+027178
X+050546Y+021590
X+053086Y+021590
X+053086Y+025654
X+050546Y+025654
T04
X+002794Y+022860
X+010414Y+022860
X+010414Y+025908
X+002794Y+025908
X+047752Y+029464
X+055372Y+029464
X+013208Y+041402
X+013208Y+033782
X+027686Y+032258
X+027686Y+039878
T05
X+030480Y+011176
X+033020Y+011176
X+035560Y+011176
X+038100Y+011176
X+040640Y+011176
X+043180Y+011176
X+045720Y+011176
X+048260Y+011176
X+050800Y+011176
X+053340Y+011176
X+055880Y+011176
X+058420Y+011176
X+060960Y+011176
X+063500Y+011176
X+030480Y+018796
X+033020Y+018796
X+035560Y+018796
X+038100Y+018796
X+040640Y+018796
X+043180Y+018796
X+045720Y+018796
X+048260Y+018796
X+050800Y+018796
X+053340Y+018796
X+055880Y+018796
X+058420Y+018796
X+060960Y+018796
X+063500Y+018796
X+014478Y+044546
X+014478Y+047086
X+033274Y+028544
X+033274Y+031084
T06
X+016764Y+024638
X+019304Y+024638
X+026924Y+024638
X+024384Y+024638
X+016764Y+032258
X+019304Y+032258
T07
X+012326Y+003812G85X+010027Y+003812
X+008128Y+007485G85X+008128Y+009786
X+014224Y+007485G85X+014224Y+009786
T08
X+016764Y+017780
X+019304Y+017780
X+021844Y+017780
X+004064Y+017780
X+006604Y+017780
X+009144Y+017780
T09
X+060960Y+005080
X+058420Y+005080
X+063500Y+005080
X+055880Y+005080
X+053340Y+005080
X+050800Y+005080
X+060960Y+002286
X+058420Y+002286
X+063500Y+002286
X+055880Y+002286
X+053340Y+002286
X+050800Y+002286
X+060960Y+051308
X+058420Y+051308
X+063500Y+051308
X+055880Y+051308
X+053340Y+051308
X+050800Y+051308
X+048260Y+051308
X+045720Y+051308
X+060960Y+048514
X+058420Y+048514
X+063500Y+048514
X+055880Y+048514
X+053340Y+048514
X+050800Y+048514
X+048260Y+048514
X+045720Y+048514
X+039370Y+051308
X+036830Y+051308
X+041910Y+051308
X+034290Y+051308
X+031750Y+051308
X+029210Y+051308
X+026670Y+051308
X+024130Y+051308
X+021590Y+051308
X+019050Y+051308
X+039370Y+048514
X+036830Y+048514
X+041910Y+048514
X+034290Y+048514
X+031750Y+048514
X+029210Y+048514
X+026670Y+048514
X+024130Y+048514
X+021590Y+048514
X+019050Y+048514
X+043180Y+002286
X+040640Y+002286
X+045720Y+002286
X+038100Y+002286
X+035560Y+002286
X+033020Y+002286
X+030480Y+002286
X+027940Y+002286
X+043180Y+005080
X+040640Y+005080
X+045720Y+005080
X+038100Y+005080
X+035560Y+005080
X+033020Y+005080
X+030480Y+005080
X+027940Y+005080
X+009144Y+037846
X+009144Y+040386
X+009144Y+035306
X+059182Y+033782
X+059182Y+036322
X+059182Y+031242
X+061722Y+033782
X+061722Y+036322
X+061722Y+031242
X+003048Y+040640
X+003048Y+038100
X+003048Y+043180
X+003048Y+035560
X+003048Y+033020
T10
X+018224Y+008382
X+025971Y+008382
T11
X+057202Y+027395
X+057202Y+022896
X+063701Y+022896
X+063701Y+027395
T12
X+008332Y+049020
X+003354Y+049020
M30
