G75*
%MOIN*%
%OFA0B0*%
%FSLAX24Y24*%
%IPPOS*%
%LPD*%
%AMOC8*
5,1,8,0,0,1.08239X$1,22.5*
%
%ADD10C,0.0100*%
%ADD11C,0.0120*%
%ADD12C,0.0000*%
%ADD13C,0.0251*%
%ADD14C,0.0050*%
%ADD15C,0.0043*%
%ADD16C,0.0085*%
%ADD17C,0.0360*%
%ADD18C,0.0043*%
%ADD19C,0.0078*%
%ADD20C,0.0067*%
%ADD21C,0.0035*%
%ADD22C,0.0056*%
%ADD23R,0.0500X0.0500*%
%ADD24C,0.0035*%
%ADD25C,0.0041*%
%ADD26C,0.0031*%
%ADD27C,0.0027*%
%ADD28C,0.0074*%
%ADD29R,0.0350X0.0300*%
%ADD30C,0.0035*%
%ADD31C,0.0032*%
D10*
X008844Y009700D02*
X034056Y009700D01*
X034095Y009702D01*
X034133Y009708D01*
X034170Y009717D01*
X034207Y009730D01*
X034242Y009747D01*
X034275Y009766D01*
X034306Y009789D01*
X034335Y009815D01*
X034361Y009844D01*
X034384Y009875D01*
X034403Y009908D01*
X034420Y009943D01*
X034433Y009980D01*
X034442Y010017D01*
X034448Y010055D01*
X034450Y010094D01*
X034450Y010700D01*
X035450Y011700D01*
X035450Y024600D01*
X034450Y025600D01*
X034450Y030100D01*
X033850Y030700D01*
X008844Y030700D01*
X008805Y030698D01*
X008767Y030692D01*
X008730Y030683D01*
X008693Y030670D01*
X008658Y030653D01*
X008625Y030634D01*
X008594Y030611D01*
X008565Y030585D01*
X008539Y030556D01*
X008516Y030525D01*
X008497Y030492D01*
X008480Y030457D01*
X008467Y030420D01*
X008458Y030383D01*
X008452Y030345D01*
X008450Y030306D01*
X008450Y010094D01*
X008452Y010055D01*
X008458Y010017D01*
X008467Y009980D01*
X008480Y009943D01*
X008497Y009908D01*
X008516Y009875D01*
X008539Y009844D01*
X008565Y009815D01*
X008594Y009789D01*
X008625Y009766D01*
X008658Y009747D01*
X008693Y009730D01*
X008730Y009717D01*
X008767Y009708D01*
X008805Y009702D01*
X008844Y009700D01*
D11*
X015390Y025400D02*
X015392Y025432D01*
X015398Y025463D01*
X015408Y025494D01*
X015421Y025523D01*
X015438Y025550D01*
X015458Y025575D01*
X015481Y025597D01*
X015506Y025617D01*
X015534Y025633D01*
X015564Y025645D01*
X015594Y025654D01*
X015626Y025659D01*
X015658Y025660D01*
X015690Y025657D01*
X015721Y025650D01*
X015751Y025639D01*
X015780Y025625D01*
X015807Y025607D01*
X015831Y025587D01*
X015853Y025563D01*
X015871Y025537D01*
X015886Y025509D01*
X015898Y025479D01*
X015906Y025448D01*
X015910Y025416D01*
X015910Y025384D01*
X015906Y025352D01*
X015898Y025321D01*
X015886Y025291D01*
X015871Y025263D01*
X015853Y025237D01*
X015831Y025213D01*
X015807Y025193D01*
X015780Y025175D01*
X015751Y025161D01*
X015721Y025150D01*
X015690Y025143D01*
X015658Y025140D01*
X015626Y025141D01*
X015594Y025146D01*
X015564Y025155D01*
X015534Y025167D01*
X015506Y025183D01*
X015481Y025203D01*
X015458Y025225D01*
X015438Y025250D01*
X015421Y025277D01*
X015408Y025306D01*
X015398Y025337D01*
X015392Y025368D01*
X015390Y025400D01*
X016389Y025400D02*
X016391Y025432D01*
X016397Y025464D01*
X016407Y025494D01*
X016420Y025523D01*
X016437Y025551D01*
X016457Y025576D01*
X016480Y025598D01*
X016506Y025618D01*
X016534Y025634D01*
X016563Y025646D01*
X016594Y025655D01*
X016626Y025660D01*
X016658Y025661D01*
X016690Y025658D01*
X016721Y025651D01*
X016752Y025640D01*
X016780Y025626D01*
X016807Y025608D01*
X016832Y025587D01*
X016853Y025564D01*
X016872Y025537D01*
X016887Y025509D01*
X016899Y025479D01*
X016907Y025448D01*
X016911Y025416D01*
X016911Y025384D01*
X016907Y025352D01*
X016899Y025321D01*
X016887Y025291D01*
X016872Y025263D01*
X016853Y025236D01*
X016832Y025213D01*
X016807Y025192D01*
X016781Y025174D01*
X016752Y025160D01*
X016721Y025149D01*
X016690Y025142D01*
X016658Y025139D01*
X016626Y025140D01*
X016594Y025145D01*
X016563Y025154D01*
X016534Y025166D01*
X016506Y025182D01*
X016480Y025202D01*
X016457Y025224D01*
X016437Y025249D01*
X016420Y025277D01*
X016407Y025306D01*
X016397Y025336D01*
X016391Y025368D01*
X016389Y025400D01*
X016389Y026400D02*
X016391Y026432D01*
X016397Y026464D01*
X016407Y026494D01*
X016420Y026523D01*
X016437Y026551D01*
X016457Y026576D01*
X016480Y026598D01*
X016506Y026618D01*
X016534Y026634D01*
X016563Y026646D01*
X016594Y026655D01*
X016626Y026660D01*
X016658Y026661D01*
X016690Y026658D01*
X016721Y026651D01*
X016752Y026640D01*
X016780Y026626D01*
X016807Y026608D01*
X016832Y026587D01*
X016853Y026564D01*
X016872Y026537D01*
X016887Y026509D01*
X016899Y026479D01*
X016907Y026448D01*
X016911Y026416D01*
X016911Y026384D01*
X016907Y026352D01*
X016899Y026321D01*
X016887Y026291D01*
X016872Y026263D01*
X016853Y026236D01*
X016832Y026213D01*
X016807Y026192D01*
X016781Y026174D01*
X016752Y026160D01*
X016721Y026149D01*
X016690Y026142D01*
X016658Y026139D01*
X016626Y026140D01*
X016594Y026145D01*
X016563Y026154D01*
X016534Y026166D01*
X016506Y026182D01*
X016480Y026202D01*
X016457Y026224D01*
X016437Y026249D01*
X016420Y026277D01*
X016407Y026306D01*
X016397Y026336D01*
X016391Y026368D01*
X016389Y026400D01*
X015390Y026400D02*
X015392Y026432D01*
X015398Y026463D01*
X015408Y026494D01*
X015421Y026523D01*
X015438Y026550D01*
X015458Y026575D01*
X015481Y026597D01*
X015506Y026617D01*
X015534Y026633D01*
X015564Y026645D01*
X015594Y026654D01*
X015626Y026659D01*
X015658Y026660D01*
X015690Y026657D01*
X015721Y026650D01*
X015751Y026639D01*
X015780Y026625D01*
X015807Y026607D01*
X015831Y026587D01*
X015853Y026563D01*
X015871Y026537D01*
X015886Y026509D01*
X015898Y026479D01*
X015906Y026448D01*
X015910Y026416D01*
X015910Y026384D01*
X015906Y026352D01*
X015898Y026321D01*
X015886Y026291D01*
X015871Y026263D01*
X015853Y026237D01*
X015831Y026213D01*
X015807Y026193D01*
X015780Y026175D01*
X015751Y026161D01*
X015721Y026150D01*
X015690Y026143D01*
X015658Y026140D01*
X015626Y026141D01*
X015594Y026146D01*
X015564Y026155D01*
X015534Y026167D01*
X015506Y026183D01*
X015481Y026203D01*
X015458Y026225D01*
X015438Y026250D01*
X015421Y026277D01*
X015408Y026306D01*
X015398Y026337D01*
X015392Y026368D01*
X015390Y026400D01*
D12*
X013820Y029700D02*
X013822Y029750D01*
X013828Y029800D01*
X013838Y029849D01*
X013852Y029897D01*
X013869Y029944D01*
X013890Y029989D01*
X013915Y030033D01*
X013943Y030074D01*
X013975Y030113D01*
X014009Y030150D01*
X014046Y030184D01*
X014086Y030214D01*
X014128Y030241D01*
X014172Y030265D01*
X014218Y030286D01*
X014265Y030302D01*
X014313Y030315D01*
X014363Y030324D01*
X014412Y030329D01*
X014463Y030330D01*
X014513Y030327D01*
X014562Y030320D01*
X014611Y030309D01*
X014659Y030294D01*
X014705Y030276D01*
X014750Y030254D01*
X014793Y030228D01*
X014834Y030199D01*
X014873Y030167D01*
X014909Y030132D01*
X014941Y030094D01*
X014971Y030054D01*
X014998Y030011D01*
X015021Y029967D01*
X015040Y029921D01*
X015056Y029873D01*
X015068Y029824D01*
X015076Y029775D01*
X015080Y029725D01*
X015080Y029675D01*
X015076Y029625D01*
X015068Y029576D01*
X015056Y029527D01*
X015040Y029479D01*
X015021Y029433D01*
X014998Y029389D01*
X014971Y029346D01*
X014941Y029306D01*
X014909Y029268D01*
X014873Y029233D01*
X014834Y029201D01*
X014793Y029172D01*
X014750Y029146D01*
X014705Y029124D01*
X014659Y029106D01*
X014611Y029091D01*
X014562Y029080D01*
X014513Y029073D01*
X014463Y029070D01*
X014412Y029071D01*
X014363Y029076D01*
X014313Y029085D01*
X014265Y029098D01*
X014218Y029114D01*
X014172Y029135D01*
X014128Y029159D01*
X014086Y029186D01*
X014046Y029216D01*
X014009Y029250D01*
X013975Y029287D01*
X013943Y029326D01*
X013915Y029367D01*
X013890Y029411D01*
X013869Y029456D01*
X013852Y029503D01*
X013838Y029551D01*
X013828Y029600D01*
X013822Y029650D01*
X013820Y029700D01*
X033820Y023700D02*
X033822Y023750D01*
X033828Y023800D01*
X033838Y023849D01*
X033852Y023897D01*
X033869Y023944D01*
X033890Y023989D01*
X033915Y024033D01*
X033943Y024074D01*
X033975Y024113D01*
X034009Y024150D01*
X034046Y024184D01*
X034086Y024214D01*
X034128Y024241D01*
X034172Y024265D01*
X034218Y024286D01*
X034265Y024302D01*
X034313Y024315D01*
X034363Y024324D01*
X034412Y024329D01*
X034463Y024330D01*
X034513Y024327D01*
X034562Y024320D01*
X034611Y024309D01*
X034659Y024294D01*
X034705Y024276D01*
X034750Y024254D01*
X034793Y024228D01*
X034834Y024199D01*
X034873Y024167D01*
X034909Y024132D01*
X034941Y024094D01*
X034971Y024054D01*
X034998Y024011D01*
X035021Y023967D01*
X035040Y023921D01*
X035056Y023873D01*
X035068Y023824D01*
X035076Y023775D01*
X035080Y023725D01*
X035080Y023675D01*
X035076Y023625D01*
X035068Y023576D01*
X035056Y023527D01*
X035040Y023479D01*
X035021Y023433D01*
X034998Y023389D01*
X034971Y023346D01*
X034941Y023306D01*
X034909Y023268D01*
X034873Y023233D01*
X034834Y023201D01*
X034793Y023172D01*
X034750Y023146D01*
X034705Y023124D01*
X034659Y023106D01*
X034611Y023091D01*
X034562Y023080D01*
X034513Y023073D01*
X034463Y023070D01*
X034412Y023071D01*
X034363Y023076D01*
X034313Y023085D01*
X034265Y023098D01*
X034218Y023114D01*
X034172Y023135D01*
X034128Y023159D01*
X034086Y023186D01*
X034046Y023216D01*
X034009Y023250D01*
X033975Y023287D01*
X033943Y023326D01*
X033915Y023367D01*
X033890Y023411D01*
X033869Y023456D01*
X033852Y023503D01*
X033838Y023551D01*
X033828Y023600D01*
X033822Y023650D01*
X033820Y023700D01*
X033820Y012700D02*
X033822Y012750D01*
X033828Y012800D01*
X033838Y012849D01*
X033852Y012897D01*
X033869Y012944D01*
X033890Y012989D01*
X033915Y013033D01*
X033943Y013074D01*
X033975Y013113D01*
X034009Y013150D01*
X034046Y013184D01*
X034086Y013214D01*
X034128Y013241D01*
X034172Y013265D01*
X034218Y013286D01*
X034265Y013302D01*
X034313Y013315D01*
X034363Y013324D01*
X034412Y013329D01*
X034463Y013330D01*
X034513Y013327D01*
X034562Y013320D01*
X034611Y013309D01*
X034659Y013294D01*
X034705Y013276D01*
X034750Y013254D01*
X034793Y013228D01*
X034834Y013199D01*
X034873Y013167D01*
X034909Y013132D01*
X034941Y013094D01*
X034971Y013054D01*
X034998Y013011D01*
X035021Y012967D01*
X035040Y012921D01*
X035056Y012873D01*
X035068Y012824D01*
X035076Y012775D01*
X035080Y012725D01*
X035080Y012675D01*
X035076Y012625D01*
X035068Y012576D01*
X035056Y012527D01*
X035040Y012479D01*
X035021Y012433D01*
X034998Y012389D01*
X034971Y012346D01*
X034941Y012306D01*
X034909Y012268D01*
X034873Y012233D01*
X034834Y012201D01*
X034793Y012172D01*
X034750Y012146D01*
X034705Y012124D01*
X034659Y012106D01*
X034611Y012091D01*
X034562Y012080D01*
X034513Y012073D01*
X034463Y012070D01*
X034412Y012071D01*
X034363Y012076D01*
X034313Y012085D01*
X034265Y012098D01*
X034218Y012114D01*
X034172Y012135D01*
X034128Y012159D01*
X034086Y012186D01*
X034046Y012216D01*
X034009Y012250D01*
X033975Y012287D01*
X033943Y012326D01*
X033915Y012367D01*
X033890Y012411D01*
X033869Y012456D01*
X033852Y012503D01*
X033838Y012551D01*
X033828Y012600D01*
X033822Y012650D01*
X033820Y012700D01*
X013320Y010700D02*
X013322Y010750D01*
X013328Y010800D01*
X013338Y010849D01*
X013352Y010897D01*
X013369Y010944D01*
X013390Y010989D01*
X013415Y011033D01*
X013443Y011074D01*
X013475Y011113D01*
X013509Y011150D01*
X013546Y011184D01*
X013586Y011214D01*
X013628Y011241D01*
X013672Y011265D01*
X013718Y011286D01*
X013765Y011302D01*
X013813Y011315D01*
X013863Y011324D01*
X013912Y011329D01*
X013963Y011330D01*
X014013Y011327D01*
X014062Y011320D01*
X014111Y011309D01*
X014159Y011294D01*
X014205Y011276D01*
X014250Y011254D01*
X014293Y011228D01*
X014334Y011199D01*
X014373Y011167D01*
X014409Y011132D01*
X014441Y011094D01*
X014471Y011054D01*
X014498Y011011D01*
X014521Y010967D01*
X014540Y010921D01*
X014556Y010873D01*
X014568Y010824D01*
X014576Y010775D01*
X014580Y010725D01*
X014580Y010675D01*
X014576Y010625D01*
X014568Y010576D01*
X014556Y010527D01*
X014540Y010479D01*
X014521Y010433D01*
X014498Y010389D01*
X014471Y010346D01*
X014441Y010306D01*
X014409Y010268D01*
X014373Y010233D01*
X014334Y010201D01*
X014293Y010172D01*
X014250Y010146D01*
X014205Y010124D01*
X014159Y010106D01*
X014111Y010091D01*
X014062Y010080D01*
X014013Y010073D01*
X013963Y010070D01*
X013912Y010071D01*
X013863Y010076D01*
X013813Y010085D01*
X013765Y010098D01*
X013718Y010114D01*
X013672Y010135D01*
X013628Y010159D01*
X013586Y010186D01*
X013546Y010216D01*
X013509Y010250D01*
X013475Y010287D01*
X013443Y010326D01*
X013415Y010367D01*
X013390Y010411D01*
X013369Y010456D01*
X013352Y010503D01*
X013338Y010551D01*
X013328Y010600D01*
X013322Y010650D01*
X013320Y010700D01*
D13*
X015629Y015368D02*
X015771Y015368D01*
X015629Y015368D02*
X015629Y015432D01*
X015771Y015432D01*
X015771Y015368D01*
X015771Y016068D02*
X015629Y016068D01*
X015629Y016132D01*
X015771Y016132D01*
X015771Y016068D01*
X018429Y016132D02*
X018571Y016132D01*
X018571Y016068D01*
X018429Y016068D01*
X018429Y016132D01*
X018429Y015432D02*
X018571Y015432D01*
X018571Y015368D01*
X018429Y015368D01*
X018429Y015432D01*
X024318Y018721D02*
X024382Y018721D01*
X024382Y018579D01*
X024318Y018579D01*
X024318Y018721D01*
X025018Y018721D02*
X025082Y018721D01*
X025082Y018579D01*
X025018Y018579D01*
X025018Y018721D01*
X019832Y021379D02*
X019832Y021521D01*
X019832Y021379D02*
X019768Y021379D01*
X019768Y021521D01*
X019832Y021521D01*
X019832Y022029D02*
X019832Y022171D01*
X019832Y022029D02*
X019768Y022029D01*
X019768Y022171D01*
X019832Y022171D01*
X019132Y022171D02*
X019132Y022029D01*
X019068Y022029D01*
X019068Y022171D01*
X019132Y022171D01*
X019132Y021521D02*
X019132Y021379D01*
X019068Y021379D01*
X019068Y021521D01*
X019132Y021521D01*
X017582Y021421D02*
X017582Y021279D01*
X017518Y021279D01*
X017518Y021421D01*
X017582Y021421D01*
X016882Y021421D02*
X016882Y021279D01*
X016818Y021279D01*
X016818Y021421D01*
X016882Y021421D01*
X016332Y021279D02*
X016268Y021279D01*
X016268Y021421D01*
X016332Y021421D01*
X016332Y021279D01*
X015632Y021279D02*
X015568Y021279D01*
X015568Y021421D01*
X015632Y021421D01*
X015632Y021279D01*
X015068Y021279D02*
X015068Y021421D01*
X015132Y021421D01*
X015132Y021279D01*
X015068Y021279D01*
X014368Y021279D02*
X014368Y021421D01*
X014432Y021421D01*
X014432Y021279D01*
X014368Y021279D01*
X013518Y021379D02*
X013518Y021521D01*
X013582Y021521D01*
X013582Y021379D01*
X013518Y021379D01*
X012818Y021379D02*
X012818Y021521D01*
X012882Y021521D01*
X012882Y021379D01*
X012818Y021379D01*
X013068Y026129D02*
X013068Y026271D01*
X013132Y026271D01*
X013132Y026129D01*
X013068Y026129D01*
X013768Y026129D02*
X013768Y026271D01*
X013832Y026271D01*
X013832Y026129D01*
X013768Y026129D01*
X019068Y027129D02*
X019068Y027271D01*
X019132Y027271D01*
X019132Y027129D01*
X019068Y027129D01*
X019768Y027129D02*
X019768Y027271D01*
X019832Y027271D01*
X019832Y027129D01*
X019768Y027129D01*
X025168Y013871D02*
X025168Y013729D01*
X025168Y013871D02*
X025232Y013871D01*
X025232Y013729D01*
X025168Y013729D01*
X025868Y013729D02*
X025868Y013871D01*
X025932Y013871D01*
X025932Y013729D01*
X025868Y013729D01*
D14*
X018723Y013707D02*
X018723Y014783D01*
X018723Y013707D02*
X018277Y013707D01*
X018277Y014783D01*
X018723Y014783D01*
X018723Y013756D02*
X018277Y013756D01*
X018277Y013805D02*
X018723Y013805D01*
X018723Y013854D02*
X018277Y013854D01*
X018277Y013903D02*
X018723Y013903D01*
X018723Y013952D02*
X018277Y013952D01*
X018277Y014001D02*
X018723Y014001D01*
X018723Y014050D02*
X018277Y014050D01*
X018277Y014099D02*
X018723Y014099D01*
X018723Y014148D02*
X018277Y014148D01*
X018277Y014197D02*
X018723Y014197D01*
X018723Y014246D02*
X018277Y014246D01*
X018277Y014295D02*
X018723Y014295D01*
X018723Y014344D02*
X018277Y014344D01*
X018277Y014393D02*
X018723Y014393D01*
X018723Y014442D02*
X018277Y014442D01*
X018277Y014491D02*
X018723Y014491D01*
X018723Y014540D02*
X018277Y014540D01*
X018277Y014589D02*
X018723Y014589D01*
X018723Y014638D02*
X018277Y014638D01*
X018277Y014687D02*
X018723Y014687D01*
X018723Y014736D02*
X018277Y014736D01*
X015923Y014783D02*
X015923Y013707D01*
X015477Y013707D01*
X015477Y014783D01*
X015923Y014783D01*
X015923Y013756D02*
X015477Y013756D01*
X015477Y013805D02*
X015923Y013805D01*
X015923Y013854D02*
X015477Y013854D01*
X015477Y013903D02*
X015923Y013903D01*
X015923Y013952D02*
X015477Y013952D01*
X015477Y014001D02*
X015923Y014001D01*
X015923Y014050D02*
X015477Y014050D01*
X015477Y014099D02*
X015923Y014099D01*
X015923Y014148D02*
X015477Y014148D01*
X015477Y014197D02*
X015923Y014197D01*
X015923Y014246D02*
X015477Y014246D01*
X015477Y014295D02*
X015923Y014295D01*
X015923Y014344D02*
X015477Y014344D01*
X015477Y014393D02*
X015923Y014393D01*
X015923Y014442D02*
X015477Y014442D01*
X015477Y014491D02*
X015923Y014491D01*
X015923Y014540D02*
X015477Y014540D01*
X015477Y014589D02*
X015923Y014589D01*
X015923Y014638D02*
X015477Y014638D01*
X015477Y014687D02*
X015923Y014687D01*
X015923Y014736D02*
X015477Y014736D01*
X015923Y012893D02*
X015923Y011817D01*
X015477Y011817D01*
X015477Y012893D01*
X015923Y012893D01*
X015923Y011866D02*
X015477Y011866D01*
X015477Y011915D02*
X015923Y011915D01*
X015923Y011964D02*
X015477Y011964D01*
X015477Y012013D02*
X015923Y012013D01*
X015923Y012062D02*
X015477Y012062D01*
X015477Y012111D02*
X015923Y012111D01*
X015923Y012160D02*
X015477Y012160D01*
X015477Y012209D02*
X015923Y012209D01*
X015923Y012258D02*
X015477Y012258D01*
X015477Y012307D02*
X015923Y012307D01*
X015923Y012356D02*
X015477Y012356D01*
X015477Y012405D02*
X015923Y012405D01*
X015923Y012454D02*
X015477Y012454D01*
X015477Y012503D02*
X015923Y012503D01*
X015923Y012552D02*
X015477Y012552D01*
X015477Y012601D02*
X015923Y012601D01*
X015923Y012650D02*
X015477Y012650D01*
X015477Y012699D02*
X015923Y012699D01*
X015923Y012748D02*
X015477Y012748D01*
X015477Y012797D02*
X015923Y012797D01*
X015923Y012846D02*
X015477Y012846D01*
X018723Y012893D02*
X018723Y011817D01*
X018277Y011817D01*
X018277Y012893D01*
X018723Y012893D01*
X018723Y011866D02*
X018277Y011866D01*
X018277Y011915D02*
X018723Y011915D01*
X018723Y011964D02*
X018277Y011964D01*
X018277Y012013D02*
X018723Y012013D01*
X018723Y012062D02*
X018277Y012062D01*
X018277Y012111D02*
X018723Y012111D01*
X018723Y012160D02*
X018277Y012160D01*
X018277Y012209D02*
X018723Y012209D01*
X018723Y012258D02*
X018277Y012258D01*
X018277Y012307D02*
X018723Y012307D01*
X018723Y012356D02*
X018277Y012356D01*
X018277Y012405D02*
X018723Y012405D01*
X018723Y012454D02*
X018277Y012454D01*
X018277Y012503D02*
X018723Y012503D01*
X018723Y012552D02*
X018277Y012552D01*
X018277Y012601D02*
X018723Y012601D01*
X018723Y012650D02*
X018277Y012650D01*
X018277Y012699D02*
X018723Y012699D01*
X018723Y012748D02*
X018277Y012748D01*
X018277Y012797D02*
X018723Y012797D01*
X018723Y012846D02*
X018277Y012846D01*
X031548Y019808D02*
X031548Y020254D01*
X032152Y020254D01*
X032152Y019808D01*
X031548Y019808D01*
X031548Y019857D02*
X032152Y019857D01*
X032152Y019906D02*
X031548Y019906D01*
X031548Y019955D02*
X032152Y019955D01*
X032152Y020004D02*
X031548Y020004D01*
X031548Y020053D02*
X032152Y020053D01*
X032152Y020102D02*
X031548Y020102D01*
X031548Y020151D02*
X032152Y020151D01*
X032152Y020200D02*
X031548Y020200D01*
X031548Y020249D02*
X032152Y020249D01*
X031548Y021146D02*
X031548Y021592D01*
X032152Y021592D01*
X032152Y021146D01*
X031548Y021146D01*
X031548Y021195D02*
X032152Y021195D01*
X032152Y021244D02*
X031548Y021244D01*
X031548Y021293D02*
X032152Y021293D01*
X032152Y021342D02*
X031548Y021342D01*
X031548Y021391D02*
X032152Y021391D01*
X032152Y021440D02*
X031548Y021440D01*
X031548Y021489D02*
X032152Y021489D01*
X032152Y021538D02*
X031548Y021538D01*
X031548Y021587D02*
X032152Y021587D01*
X013902Y027008D02*
X013902Y027454D01*
X013902Y027008D02*
X013298Y027008D01*
X013298Y027454D01*
X013902Y027454D01*
X013902Y027057D02*
X013298Y027057D01*
X013298Y027106D02*
X013902Y027106D01*
X013902Y027155D02*
X013298Y027155D01*
X013298Y027204D02*
X013902Y027204D01*
X013902Y027253D02*
X013298Y027253D01*
X013298Y027302D02*
X013902Y027302D01*
X013902Y027351D02*
X013298Y027351D01*
X013298Y027400D02*
X013902Y027400D01*
X013902Y027449D02*
X013298Y027449D01*
X013902Y028346D02*
X013902Y028792D01*
X013902Y028346D02*
X013298Y028346D01*
X013298Y028792D01*
X013902Y028792D01*
X013902Y028395D02*
X013298Y028395D01*
X013298Y028444D02*
X013902Y028444D01*
X013902Y028493D02*
X013298Y028493D01*
X013298Y028542D02*
X013902Y028542D01*
X013902Y028591D02*
X013298Y028591D01*
X013298Y028640D02*
X013902Y028640D01*
X013902Y028689D02*
X013298Y028689D01*
X013298Y028738D02*
X013902Y028738D01*
X013902Y028787D02*
X013298Y028787D01*
D15*
X018846Y026491D02*
X018846Y026109D01*
X018846Y026491D02*
X019228Y026491D01*
X019228Y026109D01*
X018846Y026109D01*
X018846Y026151D02*
X019228Y026151D01*
X019228Y026193D02*
X018846Y026193D01*
X018846Y026235D02*
X019228Y026235D01*
X019228Y026277D02*
X018846Y026277D01*
X018846Y026319D02*
X019228Y026319D01*
X019228Y026361D02*
X018846Y026361D01*
X018846Y026403D02*
X019228Y026403D01*
X019228Y026445D02*
X018846Y026445D01*
X018846Y026487D02*
X019228Y026487D01*
X019672Y026491D02*
X019672Y026109D01*
X019672Y026491D02*
X020054Y026491D01*
X020054Y026109D01*
X019672Y026109D01*
X019672Y026151D02*
X020054Y026151D01*
X020054Y026193D02*
X019672Y026193D01*
X019672Y026235D02*
X020054Y026235D01*
X020054Y026277D02*
X019672Y026277D01*
X019672Y026319D02*
X020054Y026319D01*
X020054Y026361D02*
X019672Y026361D01*
X019672Y026403D02*
X020054Y026403D01*
X020054Y026445D02*
X019672Y026445D01*
X019672Y026487D02*
X020054Y026487D01*
X020054Y024291D02*
X020054Y023909D01*
X019672Y023909D01*
X019672Y024291D01*
X020054Y024291D01*
X020054Y023951D02*
X019672Y023951D01*
X019672Y023993D02*
X020054Y023993D01*
X020054Y024035D02*
X019672Y024035D01*
X019672Y024077D02*
X020054Y024077D01*
X020054Y024119D02*
X019672Y024119D01*
X019672Y024161D02*
X020054Y024161D01*
X020054Y024203D02*
X019672Y024203D01*
X019672Y024245D02*
X020054Y024245D01*
X020054Y024287D02*
X019672Y024287D01*
X019228Y024291D02*
X019228Y023909D01*
X018846Y023909D01*
X018846Y024291D01*
X019228Y024291D01*
X019228Y023951D02*
X018846Y023951D01*
X018846Y023993D02*
X019228Y023993D01*
X019228Y024035D02*
X018846Y024035D01*
X018846Y024077D02*
X019228Y024077D01*
X019228Y024119D02*
X018846Y024119D01*
X018846Y024161D02*
X019228Y024161D01*
X019228Y024203D02*
X018846Y024203D01*
X018846Y024245D02*
X019228Y024245D01*
X019228Y024287D02*
X018846Y024287D01*
X019228Y023391D02*
X019228Y023009D01*
X018846Y023009D01*
X018846Y023391D01*
X019228Y023391D01*
X019228Y023051D02*
X018846Y023051D01*
X018846Y023093D02*
X019228Y023093D01*
X019228Y023135D02*
X018846Y023135D01*
X018846Y023177D02*
X019228Y023177D01*
X019228Y023219D02*
X018846Y023219D01*
X018846Y023261D02*
X019228Y023261D01*
X019228Y023303D02*
X018846Y023303D01*
X018846Y023345D02*
X019228Y023345D01*
X019228Y023387D02*
X018846Y023387D01*
X020054Y023391D02*
X020054Y023009D01*
X019672Y023009D01*
X019672Y023391D01*
X020054Y023391D01*
X020054Y023051D02*
X019672Y023051D01*
X019672Y023093D02*
X020054Y023093D01*
X020054Y023135D02*
X019672Y023135D01*
X019672Y023177D02*
X020054Y023177D01*
X020054Y023219D02*
X019672Y023219D01*
X019672Y023261D02*
X020054Y023261D01*
X020054Y023303D02*
X019672Y023303D01*
X019672Y023345D02*
X020054Y023345D01*
X020054Y023387D02*
X019672Y023387D01*
X030846Y023909D02*
X030846Y024291D01*
X031228Y024291D01*
X031228Y023909D01*
X030846Y023909D01*
X030846Y023951D02*
X031228Y023951D01*
X031228Y023993D02*
X030846Y023993D01*
X030846Y024035D02*
X031228Y024035D01*
X031228Y024077D02*
X030846Y024077D01*
X030846Y024119D02*
X031228Y024119D01*
X031228Y024161D02*
X030846Y024161D01*
X030846Y024203D02*
X031228Y024203D01*
X031228Y024245D02*
X030846Y024245D01*
X030846Y024287D02*
X031228Y024287D01*
X031672Y024291D02*
X031672Y023909D01*
X031672Y024291D02*
X032054Y024291D01*
X032054Y023909D01*
X031672Y023909D01*
X031672Y023951D02*
X032054Y023951D01*
X032054Y023993D02*
X031672Y023993D01*
X031672Y024035D02*
X032054Y024035D01*
X032054Y024077D02*
X031672Y024077D01*
X031672Y024119D02*
X032054Y024119D01*
X032054Y024161D02*
X031672Y024161D01*
X031672Y024203D02*
X032054Y024203D01*
X032054Y024245D02*
X031672Y024245D01*
X031672Y024287D02*
X032054Y024287D01*
D16*
X018199Y011183D02*
X017433Y011183D01*
X018199Y011183D02*
X018199Y010417D01*
X017433Y010417D01*
X017433Y011183D01*
X017433Y010501D02*
X018199Y010501D01*
X018199Y010585D02*
X017433Y010585D01*
X017433Y010669D02*
X018199Y010669D01*
X018199Y010753D02*
X017433Y010753D01*
X017433Y010837D02*
X018199Y010837D01*
X018199Y010921D02*
X017433Y010921D01*
X017433Y011005D02*
X018199Y011005D01*
X018199Y011089D02*
X017433Y011089D01*
X017433Y011173D02*
X018199Y011173D01*
X016467Y011183D02*
X015701Y011183D01*
X016467Y011183D02*
X016467Y010417D01*
X015701Y010417D01*
X015701Y011183D01*
X015701Y010501D02*
X016467Y010501D01*
X016467Y010585D02*
X015701Y010585D01*
X015701Y010669D02*
X016467Y010669D01*
X016467Y010753D02*
X015701Y010753D01*
X015701Y010837D02*
X016467Y010837D01*
X016467Y010921D02*
X015701Y010921D01*
X015701Y011005D02*
X016467Y011005D01*
X016467Y011089D02*
X015701Y011089D01*
X015701Y011173D02*
X016467Y011173D01*
D17*
X009919Y011043D03*
X029647Y016291D03*
X010950Y029350D03*
D18*
X013115Y017655D02*
X013115Y017265D01*
X012325Y017265D01*
X012325Y017655D01*
X013115Y017655D01*
X013115Y017307D02*
X012325Y017307D01*
X012325Y017349D02*
X013115Y017349D01*
X013115Y017391D02*
X012325Y017391D01*
X012325Y017433D02*
X013115Y017433D01*
X013115Y017475D02*
X012325Y017475D01*
X012325Y017517D02*
X013115Y017517D01*
X013115Y017559D02*
X012325Y017559D01*
X012325Y017601D02*
X013115Y017601D01*
X013115Y017643D02*
X012325Y017643D01*
X013115Y016745D02*
X013115Y016355D01*
X012325Y016355D01*
X012325Y016745D01*
X013115Y016745D01*
X013115Y016397D02*
X012325Y016397D01*
X012325Y016439D02*
X013115Y016439D01*
X013115Y016481D02*
X012325Y016481D01*
X012325Y016523D02*
X013115Y016523D01*
X013115Y016565D02*
X012325Y016565D01*
X012325Y016607D02*
X013115Y016607D01*
X013115Y016649D02*
X012325Y016649D01*
X012325Y016691D02*
X013115Y016691D01*
X013115Y016733D02*
X012325Y016733D01*
X013115Y015835D02*
X013115Y015445D01*
X012325Y015445D01*
X012325Y015835D01*
X013115Y015835D01*
X013115Y015487D02*
X012325Y015487D01*
X012325Y015529D02*
X013115Y015529D01*
X013115Y015571D02*
X012325Y015571D01*
X012325Y015613D02*
X013115Y015613D01*
X013115Y015655D02*
X012325Y015655D01*
X012325Y015697D02*
X013115Y015697D01*
X013115Y015739D02*
X012325Y015739D01*
X012325Y015781D02*
X013115Y015781D01*
X013115Y015823D02*
X012325Y015823D01*
D19*
X010631Y015924D02*
X010631Y017176D01*
X010631Y015924D02*
X009929Y015924D01*
X009929Y017176D01*
X010631Y017176D01*
X010631Y016001D02*
X009929Y016001D01*
X009929Y016078D02*
X010631Y016078D01*
X010631Y016155D02*
X009929Y016155D01*
X009929Y016232D02*
X010631Y016232D01*
X010631Y016309D02*
X009929Y016309D01*
X009929Y016386D02*
X010631Y016386D01*
X010631Y016463D02*
X009929Y016463D01*
X009929Y016540D02*
X010631Y016540D01*
X010631Y016617D02*
X009929Y016617D01*
X009929Y016694D02*
X010631Y016694D01*
X010631Y016771D02*
X009929Y016771D01*
X009929Y016848D02*
X010631Y016848D01*
X010631Y016925D02*
X009929Y016925D01*
X009929Y017002D02*
X010631Y017002D01*
X010631Y017079D02*
X009929Y017079D01*
X009929Y017156D02*
X010631Y017156D01*
D20*
X010649Y019079D02*
X010649Y019685D01*
X010649Y019079D02*
X009451Y019079D01*
X009451Y019685D01*
X010649Y019685D01*
X010649Y019145D02*
X009451Y019145D01*
X009451Y019211D02*
X010649Y019211D01*
X010649Y019277D02*
X009451Y019277D01*
X009451Y019343D02*
X010649Y019343D01*
X010649Y019409D02*
X009451Y019409D01*
X009451Y019475D02*
X010649Y019475D01*
X010649Y019541D02*
X009451Y019541D01*
X009451Y019607D02*
X010649Y019607D01*
X010649Y019673D02*
X009451Y019673D01*
X010649Y020615D02*
X010649Y021221D01*
X010649Y020615D02*
X009451Y020615D01*
X009451Y021221D01*
X010649Y021221D01*
X010649Y020681D02*
X009451Y020681D01*
X009451Y020747D02*
X010649Y020747D01*
X010649Y020813D02*
X009451Y020813D01*
X009451Y020879D02*
X010649Y020879D01*
X010649Y020945D02*
X009451Y020945D01*
X009451Y021011D02*
X010649Y021011D01*
X010649Y021077D02*
X009451Y021077D01*
X009451Y021143D02*
X010649Y021143D01*
X010649Y021209D02*
X009451Y021209D01*
D21*
X011112Y020258D02*
X011112Y020022D01*
X011112Y020258D02*
X011388Y020258D01*
X011388Y020022D01*
X011112Y020022D01*
X011112Y020056D02*
X011388Y020056D01*
X011388Y020090D02*
X011112Y020090D01*
X011112Y020124D02*
X011388Y020124D01*
X011388Y020158D02*
X011112Y020158D01*
X011112Y020192D02*
X011388Y020192D01*
X011388Y020226D02*
X011112Y020226D01*
X011912Y020402D02*
X011912Y020638D01*
X012188Y020638D01*
X012188Y020402D01*
X011912Y020402D01*
X011912Y020436D02*
X012188Y020436D01*
X012188Y020470D02*
X011912Y020470D01*
X011912Y020504D02*
X012188Y020504D01*
X012188Y020538D02*
X011912Y020538D01*
X011912Y020572D02*
X012188Y020572D01*
X012188Y020606D02*
X011912Y020606D01*
X011912Y019878D02*
X011912Y019642D01*
X011912Y019878D02*
X012188Y019878D01*
X012188Y019642D01*
X011912Y019642D01*
X011912Y019676D02*
X012188Y019676D01*
X012188Y019710D02*
X011912Y019710D01*
X011912Y019744D02*
X012188Y019744D01*
X012188Y019778D02*
X011912Y019778D01*
X011912Y019812D02*
X012188Y019812D01*
X012188Y019846D02*
X011912Y019846D01*
D22*
X015604Y022475D02*
X015618Y022475D01*
X015618Y022295D01*
X015604Y022295D01*
X015604Y022475D01*
X015618Y022350D02*
X015604Y022350D01*
X015604Y022405D02*
X015618Y022405D01*
X015618Y022460D02*
X015604Y022460D01*
X015801Y022475D02*
X015815Y022475D01*
X015815Y022295D01*
X015801Y022295D01*
X015801Y022475D01*
X015815Y022350D02*
X015801Y022350D01*
X015801Y022405D02*
X015815Y022405D01*
X015815Y022460D02*
X015801Y022460D01*
X015998Y022475D02*
X016012Y022475D01*
X016012Y022295D01*
X015998Y022295D01*
X015998Y022475D01*
X016012Y022350D02*
X015998Y022350D01*
X015998Y022405D02*
X016012Y022405D01*
X016012Y022460D02*
X015998Y022460D01*
X016195Y022475D02*
X016209Y022475D01*
X016209Y022295D01*
X016195Y022295D01*
X016195Y022475D01*
X016209Y022350D02*
X016195Y022350D01*
X016195Y022405D02*
X016209Y022405D01*
X016209Y022460D02*
X016195Y022460D01*
X016391Y022475D02*
X016405Y022475D01*
X016405Y022295D01*
X016391Y022295D01*
X016391Y022475D01*
X016405Y022350D02*
X016391Y022350D01*
X016391Y022405D02*
X016405Y022405D01*
X016405Y022460D02*
X016391Y022460D01*
X016588Y022475D02*
X016602Y022475D01*
X016602Y022295D01*
X016588Y022295D01*
X016588Y022475D01*
X016602Y022350D02*
X016588Y022350D01*
X016588Y022405D02*
X016602Y022405D01*
X016602Y022460D02*
X016588Y022460D01*
X016785Y022475D02*
X016799Y022475D01*
X016799Y022295D01*
X016785Y022295D01*
X016785Y022475D01*
X016799Y022350D02*
X016785Y022350D01*
X016785Y022405D02*
X016799Y022405D01*
X016799Y022460D02*
X016785Y022460D01*
X016982Y022475D02*
X016996Y022475D01*
X016996Y022295D01*
X016982Y022295D01*
X016982Y022475D01*
X016996Y022350D02*
X016982Y022350D01*
X016982Y022405D02*
X016996Y022405D01*
X016996Y022460D02*
X016982Y022460D01*
X017175Y022654D02*
X017175Y022668D01*
X017355Y022668D01*
X017355Y022654D01*
X017175Y022654D01*
X017175Y022851D02*
X017175Y022865D01*
X017355Y022865D01*
X017355Y022851D01*
X017175Y022851D01*
X017175Y023048D02*
X017175Y023062D01*
X017355Y023062D01*
X017355Y023048D01*
X017175Y023048D01*
X017175Y023245D02*
X017175Y023259D01*
X017355Y023259D01*
X017355Y023245D01*
X017175Y023245D01*
X017175Y023441D02*
X017175Y023455D01*
X017355Y023455D01*
X017355Y023441D01*
X017175Y023441D01*
X017175Y023638D02*
X017175Y023652D01*
X017355Y023652D01*
X017355Y023638D01*
X017175Y023638D01*
X017175Y023835D02*
X017175Y023849D01*
X017355Y023849D01*
X017355Y023835D01*
X017175Y023835D01*
X017175Y024032D02*
X017175Y024046D01*
X017355Y024046D01*
X017355Y024032D01*
X017175Y024032D01*
X016996Y024405D02*
X016982Y024405D01*
X016996Y024405D02*
X016996Y024225D01*
X016982Y024225D01*
X016982Y024405D01*
X016996Y024280D02*
X016982Y024280D01*
X016982Y024335D02*
X016996Y024335D01*
X016996Y024390D02*
X016982Y024390D01*
X016799Y024405D02*
X016785Y024405D01*
X016799Y024405D02*
X016799Y024225D01*
X016785Y024225D01*
X016785Y024405D01*
X016799Y024280D02*
X016785Y024280D01*
X016785Y024335D02*
X016799Y024335D01*
X016799Y024390D02*
X016785Y024390D01*
X016602Y024405D02*
X016588Y024405D01*
X016602Y024405D02*
X016602Y024225D01*
X016588Y024225D01*
X016588Y024405D01*
X016602Y024280D02*
X016588Y024280D01*
X016588Y024335D02*
X016602Y024335D01*
X016602Y024390D02*
X016588Y024390D01*
X016405Y024405D02*
X016391Y024405D01*
X016405Y024405D02*
X016405Y024225D01*
X016391Y024225D01*
X016391Y024405D01*
X016405Y024280D02*
X016391Y024280D01*
X016391Y024335D02*
X016405Y024335D01*
X016405Y024390D02*
X016391Y024390D01*
X016209Y024405D02*
X016195Y024405D01*
X016209Y024405D02*
X016209Y024225D01*
X016195Y024225D01*
X016195Y024405D01*
X016209Y024280D02*
X016195Y024280D01*
X016195Y024335D02*
X016209Y024335D01*
X016209Y024390D02*
X016195Y024390D01*
X016012Y024405D02*
X015998Y024405D01*
X016012Y024405D02*
X016012Y024225D01*
X015998Y024225D01*
X015998Y024405D01*
X016012Y024280D02*
X015998Y024280D01*
X015998Y024335D02*
X016012Y024335D01*
X016012Y024390D02*
X015998Y024390D01*
X015815Y024405D02*
X015801Y024405D01*
X015815Y024405D02*
X015815Y024225D01*
X015801Y024225D01*
X015801Y024405D01*
X015815Y024280D02*
X015801Y024280D01*
X015801Y024335D02*
X015815Y024335D01*
X015815Y024390D02*
X015801Y024390D01*
X015618Y024405D02*
X015604Y024405D01*
X015618Y024405D02*
X015618Y024225D01*
X015604Y024225D01*
X015604Y024405D01*
X015618Y024280D02*
X015604Y024280D01*
X015604Y024335D02*
X015618Y024335D01*
X015618Y024390D02*
X015604Y024390D01*
X015245Y024046D02*
X015245Y024032D01*
X015245Y024046D02*
X015425Y024046D01*
X015425Y024032D01*
X015245Y024032D01*
X015245Y023849D02*
X015245Y023835D01*
X015245Y023849D02*
X015425Y023849D01*
X015425Y023835D01*
X015245Y023835D01*
X015245Y023652D02*
X015245Y023638D01*
X015245Y023652D02*
X015425Y023652D01*
X015425Y023638D01*
X015245Y023638D01*
X015245Y023455D02*
X015245Y023441D01*
X015245Y023455D02*
X015425Y023455D01*
X015425Y023441D01*
X015245Y023441D01*
X015245Y023259D02*
X015245Y023245D01*
X015245Y023259D02*
X015425Y023259D01*
X015425Y023245D01*
X015245Y023245D01*
X015245Y023062D02*
X015245Y023048D01*
X015245Y023062D02*
X015425Y023062D01*
X015425Y023048D01*
X015245Y023048D01*
X015245Y022865D02*
X015245Y022851D01*
X015245Y022865D02*
X015425Y022865D01*
X015425Y022851D01*
X015245Y022851D01*
X015245Y022668D02*
X015245Y022654D01*
X015245Y022668D02*
X015425Y022668D01*
X015425Y022654D01*
X015245Y022654D01*
D23*
X016300Y023350D03*
D24*
X014004Y023110D02*
X013684Y023110D01*
X014004Y023110D02*
X014004Y022790D01*
X013684Y022790D01*
X013684Y023110D01*
X013684Y022824D02*
X014004Y022824D01*
X014004Y022858D02*
X013684Y022858D01*
X013684Y022892D02*
X014004Y022892D01*
X014004Y022926D02*
X013684Y022926D01*
X013684Y022960D02*
X014004Y022960D01*
X014004Y022994D02*
X013684Y022994D01*
X013684Y023028D02*
X014004Y023028D01*
X014004Y023062D02*
X013684Y023062D01*
X013684Y023096D02*
X014004Y023096D01*
X013216Y023110D02*
X012896Y023110D01*
X013216Y023110D02*
X013216Y022790D01*
X012896Y022790D01*
X012896Y023110D01*
X012896Y022824D02*
X013216Y022824D01*
X013216Y022858D02*
X012896Y022858D01*
X012896Y022892D02*
X013216Y022892D01*
X013216Y022926D02*
X012896Y022926D01*
X012896Y022960D02*
X013216Y022960D01*
X013216Y022994D02*
X012896Y022994D01*
X012896Y023028D02*
X013216Y023028D01*
X013216Y023062D02*
X012896Y023062D01*
X012896Y023096D02*
X013216Y023096D01*
X013216Y025360D02*
X012896Y025360D01*
X013216Y025360D02*
X013216Y025040D01*
X012896Y025040D01*
X012896Y025360D01*
X012896Y025074D02*
X013216Y025074D01*
X013216Y025108D02*
X012896Y025108D01*
X012896Y025142D02*
X013216Y025142D01*
X013216Y025176D02*
X012896Y025176D01*
X012896Y025210D02*
X013216Y025210D01*
X013216Y025244D02*
X012896Y025244D01*
X012896Y025278D02*
X013216Y025278D01*
X013216Y025312D02*
X012896Y025312D01*
X012896Y025346D02*
X013216Y025346D01*
X013684Y025360D02*
X014004Y025360D01*
X014004Y025040D01*
X013684Y025040D01*
X013684Y025360D01*
X013684Y025074D02*
X014004Y025074D01*
X014004Y025108D02*
X013684Y025108D01*
X013684Y025142D02*
X014004Y025142D01*
X014004Y025176D02*
X013684Y025176D01*
X013684Y025210D02*
X014004Y025210D01*
X014004Y025244D02*
X013684Y025244D01*
X013684Y025278D02*
X014004Y025278D01*
X014004Y025312D02*
X013684Y025312D01*
X013684Y025346D02*
X014004Y025346D01*
X012082Y027610D02*
X011684Y027610D01*
X012082Y027610D02*
X012082Y027290D01*
X011684Y027290D01*
X011684Y027610D01*
X011684Y027324D02*
X012082Y027324D01*
X012082Y027358D02*
X011684Y027358D01*
X011684Y027392D02*
X012082Y027392D01*
X012082Y027426D02*
X011684Y027426D01*
X011684Y027460D02*
X012082Y027460D01*
X012082Y027494D02*
X011684Y027494D01*
X011684Y027528D02*
X012082Y027528D01*
X012082Y027562D02*
X011684Y027562D01*
X011684Y027596D02*
X012082Y027596D01*
X011216Y027610D02*
X010818Y027610D01*
X011216Y027610D02*
X011216Y027290D01*
X010818Y027290D01*
X010818Y027610D01*
X010818Y027324D02*
X011216Y027324D01*
X011216Y027358D02*
X010818Y027358D01*
X010818Y027392D02*
X011216Y027392D01*
X011216Y027426D02*
X010818Y027426D01*
X010818Y027460D02*
X011216Y027460D01*
X011216Y027494D02*
X010818Y027494D01*
X010818Y027528D02*
X011216Y027528D01*
X011216Y027562D02*
X010818Y027562D01*
X010818Y027596D02*
X011216Y027596D01*
D25*
X018963Y020178D02*
X019337Y020178D01*
X018963Y020178D02*
X018963Y020722D01*
X019337Y020722D01*
X019337Y020178D01*
X019337Y020218D02*
X018963Y020218D01*
X018963Y020258D02*
X019337Y020258D01*
X019337Y020298D02*
X018963Y020298D01*
X018963Y020338D02*
X019337Y020338D01*
X019337Y020378D02*
X018963Y020378D01*
X018963Y020418D02*
X019337Y020418D01*
X019337Y020458D02*
X018963Y020458D01*
X018963Y020498D02*
X019337Y020498D01*
X019337Y020538D02*
X018963Y020538D01*
X018963Y020578D02*
X019337Y020578D01*
X019337Y020618D02*
X018963Y020618D01*
X018963Y020658D02*
X019337Y020658D01*
X019337Y020698D02*
X018963Y020698D01*
X019563Y020178D02*
X019937Y020178D01*
X019563Y020178D02*
X019563Y020722D01*
X019937Y020722D01*
X019937Y020178D01*
X019937Y020218D02*
X019563Y020218D01*
X019563Y020258D02*
X019937Y020258D01*
X019937Y020298D02*
X019563Y020298D01*
X019563Y020338D02*
X019937Y020338D01*
X019937Y020378D02*
X019563Y020378D01*
X019563Y020418D02*
X019937Y020418D01*
X019937Y020458D02*
X019563Y020458D01*
X019563Y020498D02*
X019937Y020498D01*
X019937Y020538D02*
X019563Y020538D01*
X019563Y020578D02*
X019937Y020578D01*
X019937Y020618D02*
X019563Y020618D01*
X019563Y020658D02*
X019937Y020658D01*
X019937Y020698D02*
X019563Y020698D01*
D26*
X019809Y019635D02*
X019809Y019509D01*
X019623Y019509D01*
X019623Y019635D01*
X019809Y019635D01*
X019809Y019539D02*
X019623Y019539D01*
X019623Y019569D02*
X019809Y019569D01*
X019809Y019599D02*
X019623Y019599D01*
X019623Y019629D02*
X019809Y019629D01*
X019809Y019320D02*
X019809Y019194D01*
X019623Y019194D01*
X019623Y019320D01*
X019809Y019320D01*
X019809Y019224D02*
X019623Y019224D01*
X019623Y019254D02*
X019809Y019254D01*
X019809Y019284D02*
X019623Y019284D01*
X019623Y019314D02*
X019809Y019314D01*
X019809Y019006D02*
X019809Y018880D01*
X019623Y018880D01*
X019623Y019006D01*
X019809Y019006D01*
X019809Y018910D02*
X019623Y018910D01*
X019623Y018940D02*
X019809Y018940D01*
X019809Y018970D02*
X019623Y018970D01*
X019623Y019000D02*
X019809Y019000D01*
X019809Y018691D02*
X019809Y018565D01*
X019623Y018565D01*
X019623Y018691D01*
X019809Y018691D01*
X019809Y018595D02*
X019623Y018595D01*
X019623Y018625D02*
X019809Y018625D01*
X019809Y018655D02*
X019623Y018655D01*
X019623Y018685D02*
X019809Y018685D01*
X019277Y018691D02*
X019277Y018565D01*
X019091Y018565D01*
X019091Y018691D01*
X019277Y018691D01*
X019277Y018595D02*
X019091Y018595D01*
X019091Y018625D02*
X019277Y018625D01*
X019277Y018655D02*
X019091Y018655D01*
X019091Y018685D02*
X019277Y018685D01*
X019277Y018880D02*
X019277Y019006D01*
X019277Y018880D02*
X019091Y018880D01*
X019091Y019006D01*
X019277Y019006D01*
X019277Y018910D02*
X019091Y018910D01*
X019091Y018940D02*
X019277Y018940D01*
X019277Y018970D02*
X019091Y018970D01*
X019091Y019000D02*
X019277Y019000D01*
X019277Y019194D02*
X019277Y019320D01*
X019277Y019194D02*
X019091Y019194D01*
X019091Y019320D01*
X019277Y019320D01*
X019277Y019224D02*
X019091Y019224D01*
X019091Y019254D02*
X019277Y019254D01*
X019277Y019284D02*
X019091Y019284D01*
X019091Y019314D02*
X019277Y019314D01*
X019277Y019509D02*
X019277Y019635D01*
X019277Y019509D02*
X019091Y019509D01*
X019091Y019635D01*
X019277Y019635D01*
X019277Y019539D02*
X019091Y019539D01*
X019091Y019569D02*
X019277Y019569D01*
X019277Y019599D02*
X019091Y019599D01*
X019091Y019629D02*
X019277Y019629D01*
X013859Y023665D02*
X013859Y023791D01*
X013859Y023665D02*
X013673Y023665D01*
X013673Y023791D01*
X013859Y023791D01*
X013859Y023695D02*
X013673Y023695D01*
X013673Y023725D02*
X013859Y023725D01*
X013859Y023755D02*
X013673Y023755D01*
X013673Y023785D02*
X013859Y023785D01*
X013859Y023980D02*
X013859Y024106D01*
X013859Y023980D02*
X013673Y023980D01*
X013673Y024106D01*
X013859Y024106D01*
X013859Y024010D02*
X013673Y024010D01*
X013673Y024040D02*
X013859Y024040D01*
X013859Y024070D02*
X013673Y024070D01*
X013673Y024100D02*
X013859Y024100D01*
X013859Y024294D02*
X013859Y024420D01*
X013859Y024294D02*
X013673Y024294D01*
X013673Y024420D01*
X013859Y024420D01*
X013859Y024324D02*
X013673Y024324D01*
X013673Y024354D02*
X013859Y024354D01*
X013859Y024384D02*
X013673Y024384D01*
X013673Y024414D02*
X013859Y024414D01*
X013859Y024609D02*
X013859Y024735D01*
X013859Y024609D02*
X013673Y024609D01*
X013673Y024735D01*
X013859Y024735D01*
X013859Y024639D02*
X013673Y024639D01*
X013673Y024669D02*
X013859Y024669D01*
X013859Y024699D02*
X013673Y024699D01*
X013673Y024729D02*
X013859Y024729D01*
X013327Y024735D02*
X013327Y024609D01*
X013141Y024609D01*
X013141Y024735D01*
X013327Y024735D01*
X013327Y024639D02*
X013141Y024639D01*
X013141Y024669D02*
X013327Y024669D01*
X013327Y024699D02*
X013141Y024699D01*
X013141Y024729D02*
X013327Y024729D01*
X013327Y024420D02*
X013327Y024294D01*
X013141Y024294D01*
X013141Y024420D01*
X013327Y024420D01*
X013327Y024324D02*
X013141Y024324D01*
X013141Y024354D02*
X013327Y024354D01*
X013327Y024384D02*
X013141Y024384D01*
X013141Y024414D02*
X013327Y024414D01*
X013327Y024106D02*
X013327Y023980D01*
X013141Y023980D01*
X013141Y024106D01*
X013327Y024106D01*
X013327Y024010D02*
X013141Y024010D01*
X013141Y024040D02*
X013327Y024040D01*
X013327Y024070D02*
X013141Y024070D01*
X013141Y024100D02*
X013327Y024100D01*
X013327Y023791D02*
X013327Y023665D01*
X013141Y023665D01*
X013141Y023791D01*
X013327Y023791D01*
X013327Y023695D02*
X013141Y023695D01*
X013141Y023725D02*
X013327Y023725D01*
X013327Y023755D02*
X013141Y023755D01*
X013141Y023785D02*
X013327Y023785D01*
X019091Y024665D02*
X019091Y024791D01*
X019277Y024791D01*
X019277Y024665D01*
X019091Y024665D01*
X019091Y024695D02*
X019277Y024695D01*
X019277Y024725D02*
X019091Y024725D01*
X019091Y024755D02*
X019277Y024755D01*
X019277Y024785D02*
X019091Y024785D01*
X019091Y024980D02*
X019091Y025106D01*
X019277Y025106D01*
X019277Y024980D01*
X019091Y024980D01*
X019091Y025010D02*
X019277Y025010D01*
X019277Y025040D02*
X019091Y025040D01*
X019091Y025070D02*
X019277Y025070D01*
X019277Y025100D02*
X019091Y025100D01*
X019091Y025294D02*
X019091Y025420D01*
X019277Y025420D01*
X019277Y025294D01*
X019091Y025294D01*
X019091Y025324D02*
X019277Y025324D01*
X019277Y025354D02*
X019091Y025354D01*
X019091Y025384D02*
X019277Y025384D01*
X019277Y025414D02*
X019091Y025414D01*
X019091Y025609D02*
X019091Y025735D01*
X019277Y025735D01*
X019277Y025609D01*
X019091Y025609D01*
X019091Y025639D02*
X019277Y025639D01*
X019277Y025669D02*
X019091Y025669D01*
X019091Y025699D02*
X019277Y025699D01*
X019277Y025729D02*
X019091Y025729D01*
X019623Y025735D02*
X019623Y025609D01*
X019623Y025735D02*
X019809Y025735D01*
X019809Y025609D01*
X019623Y025609D01*
X019623Y025639D02*
X019809Y025639D01*
X019809Y025669D02*
X019623Y025669D01*
X019623Y025699D02*
X019809Y025699D01*
X019809Y025729D02*
X019623Y025729D01*
X019623Y025420D02*
X019623Y025294D01*
X019623Y025420D02*
X019809Y025420D01*
X019809Y025294D01*
X019623Y025294D01*
X019623Y025324D02*
X019809Y025324D01*
X019809Y025354D02*
X019623Y025354D01*
X019623Y025384D02*
X019809Y025384D01*
X019809Y025414D02*
X019623Y025414D01*
X019623Y025106D02*
X019623Y024980D01*
X019623Y025106D02*
X019809Y025106D01*
X019809Y024980D01*
X019623Y024980D01*
X019623Y025010D02*
X019809Y025010D01*
X019809Y025040D02*
X019623Y025040D01*
X019623Y025070D02*
X019809Y025070D01*
X019809Y025100D02*
X019623Y025100D01*
X019623Y024791D02*
X019623Y024665D01*
X019623Y024791D02*
X019809Y024791D01*
X019809Y024665D01*
X019623Y024665D01*
X019623Y024695D02*
X019809Y024695D01*
X019809Y024725D02*
X019623Y024725D01*
X019623Y024755D02*
X019809Y024755D01*
X019809Y024785D02*
X019623Y024785D01*
X031277Y023535D02*
X031277Y023409D01*
X031091Y023409D01*
X031091Y023535D01*
X031277Y023535D01*
X031277Y023439D02*
X031091Y023439D01*
X031091Y023469D02*
X031277Y023469D01*
X031277Y023499D02*
X031091Y023499D01*
X031091Y023529D02*
X031277Y023529D01*
X031277Y023220D02*
X031277Y023094D01*
X031091Y023094D01*
X031091Y023220D01*
X031277Y023220D01*
X031277Y023124D02*
X031091Y023124D01*
X031091Y023154D02*
X031277Y023154D01*
X031277Y023184D02*
X031091Y023184D01*
X031091Y023214D02*
X031277Y023214D01*
X031277Y022906D02*
X031277Y022780D01*
X031091Y022780D01*
X031091Y022906D01*
X031277Y022906D01*
X031277Y022810D02*
X031091Y022810D01*
X031091Y022840D02*
X031277Y022840D01*
X031277Y022870D02*
X031091Y022870D01*
X031091Y022900D02*
X031277Y022900D01*
X031277Y022591D02*
X031277Y022465D01*
X031091Y022465D01*
X031091Y022591D01*
X031277Y022591D01*
X031277Y022495D02*
X031091Y022495D01*
X031091Y022525D02*
X031277Y022525D01*
X031277Y022555D02*
X031091Y022555D01*
X031091Y022585D02*
X031277Y022585D01*
X031809Y022591D02*
X031809Y022465D01*
X031623Y022465D01*
X031623Y022591D01*
X031809Y022591D01*
X031809Y022495D02*
X031623Y022495D01*
X031623Y022525D02*
X031809Y022525D01*
X031809Y022555D02*
X031623Y022555D01*
X031623Y022585D02*
X031809Y022585D01*
X031809Y022780D02*
X031809Y022906D01*
X031809Y022780D02*
X031623Y022780D01*
X031623Y022906D01*
X031809Y022906D01*
X031809Y022810D02*
X031623Y022810D01*
X031623Y022840D02*
X031809Y022840D01*
X031809Y022870D02*
X031623Y022870D01*
X031623Y022900D02*
X031809Y022900D01*
X031809Y023094D02*
X031809Y023220D01*
X031809Y023094D02*
X031623Y023094D01*
X031623Y023220D01*
X031809Y023220D01*
X031809Y023124D02*
X031623Y023124D01*
X031623Y023154D02*
X031809Y023154D01*
X031809Y023184D02*
X031623Y023184D01*
X031623Y023214D02*
X031809Y023214D01*
X031809Y023409D02*
X031809Y023535D01*
X031809Y023409D02*
X031623Y023409D01*
X031623Y023535D01*
X031809Y023535D01*
X031809Y023439D02*
X031623Y023439D01*
X031623Y023469D02*
X031809Y023469D01*
X031809Y023499D02*
X031623Y023499D01*
X031623Y023529D02*
X031809Y023529D01*
D27*
X016985Y018109D02*
X016985Y018057D01*
X016579Y018057D01*
X016579Y018109D01*
X016985Y018109D01*
X016985Y018083D02*
X016579Y018083D01*
X016579Y018109D02*
X016985Y018109D01*
X016985Y017854D02*
X016985Y017802D01*
X016579Y017802D01*
X016579Y017854D01*
X016985Y017854D01*
X016985Y017828D02*
X016579Y017828D01*
X016579Y017854D02*
X016985Y017854D01*
X016985Y017598D02*
X016985Y017546D01*
X016579Y017546D01*
X016579Y017598D01*
X016985Y017598D01*
X016985Y017572D02*
X016579Y017572D01*
X016579Y017598D02*
X016985Y017598D01*
X016985Y017342D02*
X016985Y017290D01*
X016579Y017290D01*
X016579Y017342D01*
X016985Y017342D01*
X016985Y017316D02*
X016579Y017316D01*
X016579Y017342D02*
X016985Y017342D01*
X015322Y017342D02*
X015322Y017290D01*
X014916Y017290D01*
X014916Y017342D01*
X015322Y017342D01*
X015322Y017316D02*
X014916Y017316D01*
X014916Y017342D02*
X015322Y017342D01*
X015322Y017546D02*
X015322Y017598D01*
X015322Y017546D02*
X014916Y017546D01*
X014916Y017598D01*
X015322Y017598D01*
X015322Y017572D02*
X014916Y017572D01*
X014916Y017598D02*
X015322Y017598D01*
X015322Y017802D02*
X015322Y017854D01*
X015322Y017802D02*
X014916Y017802D01*
X014916Y017854D01*
X015322Y017854D01*
X015322Y017828D02*
X014916Y017828D01*
X014916Y017854D02*
X015322Y017854D01*
X015322Y018057D02*
X015322Y018109D01*
X015322Y018057D02*
X014916Y018057D01*
X014916Y018109D01*
X015322Y018109D01*
X015322Y018083D02*
X014916Y018083D01*
X014916Y018109D02*
X015322Y018109D01*
D28*
X012854Y028053D02*
X012354Y028053D01*
X012354Y028475D01*
X012854Y028475D01*
X012854Y028053D01*
X012854Y028126D02*
X012354Y028126D01*
X012354Y028199D02*
X012854Y028199D01*
X012854Y028272D02*
X012354Y028272D01*
X012354Y028345D02*
X012854Y028345D01*
X012854Y028418D02*
X012354Y028418D01*
X012354Y029825D02*
X012854Y029825D01*
X012354Y029825D02*
X012354Y030247D01*
X012854Y030247D01*
X012854Y029825D01*
X012854Y029898D02*
X012354Y029898D01*
X012354Y029971D02*
X012854Y029971D01*
X012854Y030044D02*
X012354Y030044D01*
X012354Y030117D02*
X012854Y030117D01*
X012854Y030190D02*
X012354Y030190D01*
X009546Y029825D02*
X009046Y029825D01*
X009046Y030247D01*
X009546Y030247D01*
X009546Y029825D01*
X009546Y029898D02*
X009046Y029898D01*
X009046Y029971D02*
X009546Y029971D01*
X009546Y030044D02*
X009046Y030044D01*
X009046Y030117D02*
X009546Y030117D01*
X009546Y030190D02*
X009046Y030190D01*
X009046Y028053D02*
X009546Y028053D01*
X009046Y028053D02*
X009046Y028475D01*
X009546Y028475D01*
X009546Y028053D01*
X009546Y028126D02*
X009046Y028126D01*
X009046Y028199D02*
X009546Y028199D01*
X009546Y028272D02*
X009046Y028272D01*
X009046Y028345D02*
X009546Y028345D01*
X009546Y028418D02*
X009046Y028418D01*
D29*
X009275Y029150D03*
D30*
X024407Y019856D02*
X024407Y019144D01*
X024205Y019144D01*
X024205Y019856D01*
X024407Y019856D01*
X024407Y019178D02*
X024205Y019178D01*
X024205Y019212D02*
X024407Y019212D01*
X024407Y019246D02*
X024205Y019246D01*
X024205Y019280D02*
X024407Y019280D01*
X024407Y019314D02*
X024205Y019314D01*
X024205Y019348D02*
X024407Y019348D01*
X024407Y019382D02*
X024205Y019382D01*
X024205Y019416D02*
X024407Y019416D01*
X024407Y019450D02*
X024205Y019450D01*
X024205Y019484D02*
X024407Y019484D01*
X024407Y019518D02*
X024205Y019518D01*
X024205Y019552D02*
X024407Y019552D01*
X024407Y019586D02*
X024205Y019586D01*
X024205Y019620D02*
X024407Y019620D01*
X024407Y019654D02*
X024205Y019654D01*
X024205Y019688D02*
X024407Y019688D01*
X024407Y019722D02*
X024205Y019722D01*
X024205Y019756D02*
X024407Y019756D01*
X024407Y019790D02*
X024205Y019790D01*
X024205Y019824D02*
X024407Y019824D01*
X024801Y019856D02*
X024801Y019144D01*
X024599Y019144D01*
X024599Y019856D01*
X024801Y019856D01*
X024801Y019178D02*
X024599Y019178D01*
X024599Y019212D02*
X024801Y019212D01*
X024801Y019246D02*
X024599Y019246D01*
X024599Y019280D02*
X024801Y019280D01*
X024801Y019314D02*
X024599Y019314D01*
X024599Y019348D02*
X024801Y019348D01*
X024801Y019382D02*
X024599Y019382D01*
X024599Y019416D02*
X024801Y019416D01*
X024801Y019450D02*
X024599Y019450D01*
X024599Y019484D02*
X024801Y019484D01*
X024801Y019518D02*
X024599Y019518D01*
X024599Y019552D02*
X024801Y019552D01*
X024801Y019586D02*
X024599Y019586D01*
X024599Y019620D02*
X024801Y019620D01*
X024801Y019654D02*
X024599Y019654D01*
X024599Y019688D02*
X024801Y019688D01*
X024801Y019722D02*
X024599Y019722D01*
X024599Y019756D02*
X024801Y019756D01*
X024801Y019790D02*
X024599Y019790D01*
X024599Y019824D02*
X024801Y019824D01*
X025195Y019856D02*
X025195Y019144D01*
X024993Y019144D01*
X024993Y019856D01*
X025195Y019856D01*
X025195Y019178D02*
X024993Y019178D01*
X024993Y019212D02*
X025195Y019212D01*
X025195Y019246D02*
X024993Y019246D01*
X024993Y019280D02*
X025195Y019280D01*
X025195Y019314D02*
X024993Y019314D01*
X024993Y019348D02*
X025195Y019348D01*
X025195Y019382D02*
X024993Y019382D01*
X024993Y019416D02*
X025195Y019416D01*
X025195Y019450D02*
X024993Y019450D01*
X024993Y019484D02*
X025195Y019484D01*
X025195Y019518D02*
X024993Y019518D01*
X024993Y019552D02*
X025195Y019552D01*
X025195Y019586D02*
X024993Y019586D01*
X024993Y019620D02*
X025195Y019620D01*
X025195Y019654D02*
X024993Y019654D01*
X024993Y019688D02*
X025195Y019688D01*
X025195Y019722D02*
X024993Y019722D01*
X024993Y019756D02*
X025195Y019756D01*
X025195Y019790D02*
X024993Y019790D01*
X024993Y019824D02*
X025195Y019824D01*
D31*
X017412Y016146D02*
X017412Y016002D01*
X017412Y016146D02*
X017812Y016146D01*
X017812Y016002D01*
X017412Y016002D01*
X017412Y016033D02*
X017812Y016033D01*
X017812Y016064D02*
X017412Y016064D01*
X017412Y016095D02*
X017812Y016095D01*
X017812Y016126D02*
X017412Y016126D01*
X016388Y016146D02*
X016388Y016002D01*
X016388Y016146D02*
X016788Y016146D01*
X016788Y016002D01*
X016388Y016002D01*
X016388Y016033D02*
X016788Y016033D01*
X016788Y016064D02*
X016388Y016064D01*
X016388Y016095D02*
X016788Y016095D01*
X016788Y016126D02*
X016388Y016126D01*
X016388Y015772D02*
X016388Y015628D01*
X016388Y015772D02*
X016788Y015772D01*
X016788Y015628D01*
X016388Y015628D01*
X016388Y015659D02*
X016788Y015659D01*
X016788Y015690D02*
X016388Y015690D01*
X016388Y015721D02*
X016788Y015721D01*
X016788Y015752D02*
X016388Y015752D01*
X016388Y015398D02*
X016388Y015254D01*
X016388Y015398D02*
X016788Y015398D01*
X016788Y015254D01*
X016388Y015254D01*
X016388Y015285D02*
X016788Y015285D01*
X016788Y015316D02*
X016388Y015316D01*
X016388Y015347D02*
X016788Y015347D01*
X016788Y015378D02*
X016388Y015378D01*
X017412Y015398D02*
X017412Y015254D01*
X017412Y015398D02*
X017812Y015398D01*
X017812Y015254D01*
X017412Y015254D01*
X017412Y015285D02*
X017812Y015285D01*
X017812Y015316D02*
X017412Y015316D01*
X017412Y015347D02*
X017812Y015347D01*
X017812Y015378D02*
X017412Y015378D01*
M02*
