%
T1C.015F095S3
X00325Y0005
X0055Y0005
X005Y00275
X00505Y00375
X00545Y00375
X004Y004
X004Y0055
X0084Y0065
X00715Y00585
X00675Y00535
X00825Y00535
X00735Y0036
X00845Y0034
X00675Y00335
X00725Y0029
X0085Y00275
X0085Y00225
X00725Y0005
X01355Y00255
X01355Y003
X01375Y0053
X01355Y00655
X014Y0075
X016Y0075
X0145Y0067
X0157Y00645
X0161Y00645
X01455Y00525
X0142Y00515
X01555Y00345
X014Y002
X014Y0005
X018Y0005
X01805Y00205
X01755Y00285
X01655Y00345
X01705Y0036
X01765Y0037
X01655Y004
X01735Y00405
X0178Y0041
X01655Y0044
X0179Y0045
X01795Y0049
X0165Y0058
X0165Y00615
X0178Y00655
X01705Y0071
X018Y0075
X02Y0075
X019Y00675
X019Y00175
X021Y00175
X02Y0005
X02175Y0005
X0232Y0037
X0236Y0037
X02165Y0042
X02225Y0046
X0217Y00485
X0216Y0053
X025Y00305
X0246Y00305
X0257Y0021
X02425Y0015
X0257Y00085
X0267Y00145
X02785Y0021
X0285Y0035
X0265Y0035
X0291Y00715
X0302Y0065
X0291Y0059
X0302Y00525
X0291Y00465
X0302Y004
X0291Y0034
X0302Y0027
X0291Y0021
X0302Y00145
X0291Y00085
X0355Y001
X0355Y004
X0355Y007
T2C.02F197S55
X0201Y0031
X0194Y0031
X01975Y0034
X0194Y0036
X0201Y0036
X0194Y0043
X0201Y0043
X01975Y0046
X0201Y0049
X0194Y0049
T3C.035F197S55
X01975Y004
T4C.037F197S55
X00675Y00435
X016Y00225
X016Y001
X017Y001
X017Y00225
X0225Y00225
X0235Y00225
X0235Y001
X0225Y001
X02625Y005
X02725Y005
X02825Y005
X03375Y0075
X03275Y0075
X03375Y0065
X03275Y0065
X03375Y0055
X03275Y0055
X03375Y0045
X03275Y0045
X03375Y0035
X03275Y0035
X03375Y0025
X03275Y0025
X03375Y0015
X03275Y0015
X03375Y0005
X03275Y0005
T5C.045F139S55
X0025Y0015
X0015Y0015
X0025Y0025
X0015Y0025
X0015Y0035
X0025Y0035
X0015Y0045
X0025Y0045
X0015Y0055
X0025Y0055
X0025Y0065
X0015Y0065
T6C.063F089S55
X0045Y007
X0065Y007
X022Y007
X02825Y007
M30
