*
*
G04 PADS 9.5 Build Number: 522968 generated Gerber (RS-274-X) file*
G04 PC Version=2.1*
*
%IN "MAXREFDES4_rev_A.pcb"*%
*
%MOIN*%
*
%FSLAX35Y35*%
*
*
*
*
G04 PC Standard Apertures*
*
*
G04 Thermal Relief Aperture macro.*
%AMTER*
1,1,$1,0,0*
1,0,$1-$2,0,0*
21,0,$3,$4,0,0,45*
21,0,$3,$4,0,0,135*
%
*
*
G04 Annular Aperture macro.*
%AMANN*
1,1,$1,0,0*
1,0,$2,0,0*
%
*
*
G04 Odd Aperture macro.*
%AMODD*
1,1,$1,0,0*
1,0,$1-0.005,0,0*
%
*
*
G04 PC Custom Aperture Macros*
*
*
*
*
*
*
G04 PC Aperture Table*
*
%ADD046C,0.015*%
%ADD048C,0.03*%
%ADD054C,0.06*%
%ADD056C,0.07*%
%ADD059C,0.085*%
%ADD084R,0.06X0.06*%
%ADD090R,0.1X0.1*%
%ADD172C,0.012*%
%ADD177C,0.01*%
%ADD180C,0.007*%
%ADD185C,0.001*%
%ADD189C,0*%
%ADD193C,0.008*%
%ADD235C,0.002*%
*
*
*
*
G04 PC Circuitry*
G04 Layer Name MAXREFDES4_rev_A.pcb - circuitry*
%LPD*%
*
*
G04 PC Custom Flashes*
G04 Layer Name MAXREFDES4_rev_A.pcb - flashes*
%LPD*%
*
*
G04 PC Circuitry*
G04 Layer Name MAXREFDES4_rev_A.pcb - circuitry*
%LPD*%
*
G54D46*
G01X2226250Y1553750D02*
Y1548750D01*
Y1543750*
Y1583750D02*
Y1553750D01*
X2206250Y1568750D02*
X2201250D01*
X2211250D02*
X2206250D01*
X2226250Y1583750D02*
Y1588750D01*
X2246250Y1568750D02*
X2251250D01*
X2241250D02*
X2246250D01*
X2211250D02*
X2241250D01*
X2231250D02*
G75*
G03X2231250I-5000J0D01*
G01X2241250D02*
G03X2241250I-15000J0D01*
G01X2236250D02*
G03X2236250I-10000J0D01*
G01X2226250Y1588750D02*
Y1593750D01*
Y1473750D02*
Y1468750D01*
Y1463750*
Y1503750D02*
Y1473750D01*
X2206250Y1488750D02*
X2201250D01*
X2211250D02*
X2206250D01*
X2226250Y1503750D02*
Y1508750D01*
X2246250Y1488750D02*
X2251250D01*
X2241250D02*
X2246250D01*
X2211250D02*
X2241250D01*
X2231250D02*
G03X2231250I-5000J0D01*
G01X2241250D02*
G03X2241250I-15000J0D01*
G01X2236250D02*
G03X2236250I-10000J0D01*
G01X2226250Y1508750D02*
Y1513750D01*
X1773750Y1473750D02*
Y1468750D01*
Y1463750*
Y1503750D02*
Y1473750D01*
X1753750Y1488750D02*
X1748750D01*
X1758750D02*
X1753750D01*
X1773750Y1503750D02*
Y1508750D01*
X1793750Y1488750D02*
X1798750D01*
X1788750D02*
X1793750D01*
X1758750D02*
X1788750D01*
X1778750D02*
G03X1778750I-5000J0D01*
G01X1788750D02*
G03X1788750I-15000J0D01*
G01X1783750D02*
G03X1783750I-10000J0D01*
G01X1773750Y1508750D02*
Y1513750D01*
G54D48*
X1871250Y1503250D03*
Y1514250D03*
X1870250Y1525750D03*
X1975750Y1504250D03*
Y1509250D03*
X1921750Y1519250D03*
Y1504750D03*
Y1509250D03*
X2025750Y1517750D03*
X2021750Y1518250D03*
X2017750Y1518750D03*
X2028250Y1495750D03*
X2043250Y1498250D03*
X2067750Y1526750D03*
X2071250Y1524750D03*
X2095250Y1496750D03*
X2087750Y1501750D03*
X2104250Y1502250D03*
Y1494250D03*
X2067250Y1499750D03*
X2085750Y1525750D03*
X2081250Y1494750D03*
X2119250Y1502250D03*
X2108750Y1517250D03*
X2063750Y1516250D03*
X2104250Y1506250D03*
X2085250Y1510750D03*
X2074750Y1501250D03*
X2063750Y1526250D03*
X2111750Y1528250D03*
X2104250Y1517250D03*
X2087250Y1521750D03*
X2070750Y1501250D03*
X2085250Y1493750D03*
X2077750Y1493250D03*
X2111750Y1523750D03*
X2094750Y1493250D03*
X2074750Y1516250D03*
X2063750Y1501250D03*
X2090750Y1493250D03*
X2074750Y1526250D03*
X1868250Y1529250D03*
X1885250Y1546250D03*
X1872250Y1541750D03*
X1975250Y1548750D03*
X1919250Y1548250D03*
X1921750Y1552750D03*
Y1538250D03*
X1906750Y1528750D03*
X2033750Y1548750D03*
X2048750Y1549750D03*
X2030750Y1552250D03*
X1981750Y1537750D03*
X2022750Y1548750D03*
X2007250Y1558750D03*
X2038750Y1552250D03*
X2074750Y1541250D03*
X2111750Y1532750D03*
X2101250Y1543250D03*
X2069250Y1559750D03*
X2073750Y1548750D03*
Y1559750D03*
X2097250Y1544250D03*
X2064750Y1559750D03*
Y1548750D03*
X2132750Y1554750D03*
X2098500Y1540250D03*
X2066250Y1563750D03*
X2093250Y1540250D03*
X2063750Y1541250D03*
X2142750Y1554750D03*
G54D54*
X2132750Y1498750D03*
Y1528750D03*
X1889250Y1510750D03*
X1899250D03*
X2034750Y1513750D03*
Y1523750D03*
G54D56*
X1861250Y1553750D03*
Y1543750D03*
Y1533750D03*
Y1523750D03*
Y1513750D03*
Y1503750D03*
X1851250Y1553750D03*
Y1543750D03*
Y1533750D03*
Y1523750D03*
Y1513750D03*
Y1503750D03*
G54D59*
X2156250Y1521250D03*
X2052250Y1558750D03*
X2156250Y1498750D03*
X2018750D03*
G54D84*
X2142750D03*
X2132750Y1518750D03*
X1879250Y1510750D03*
X2034750Y1503750D03*
G54D90*
X1891250Y1528750D03*
G54D172*
X1836250Y1488750D02*
Y1568750D01*
X2166250*
Y1488750*
X1836250*
G54D177*
X2066250Y1453750D02*
X2166250D01*
Y1478750*
X2066250*
Y1453750*
Y1446250D02*
X2110750D01*
X2066250D02*
X2076250Y1448750D01*
Y1443750*
X2066250Y1446250*
X2166250D02*
X2130386D01*
X2166250D02*
X2156250Y1443750D01*
Y1448750*
X2166250Y1446250*
X2066250Y1448750D02*
Y1441250D01*
X2166250Y1448750D02*
Y1441250D01*
X2068250Y1453750D02*
Y1466250D01*
X2069250Y1453750D02*
Y1466250D01*
X2070250D02*
Y1453750D01*
X2071250Y1466250D02*
Y1453750D01*
X2072250Y1466250D02*
Y1453750D01*
X2073250Y1466250D02*
Y1453750D01*
X2074250Y1466250D02*
Y1453750D01*
X2075250Y1466250D02*
Y1453750D01*
X2076250D02*
Y1466250D01*
X2077250Y1453750D02*
Y1466250D01*
X2080250D02*
Y1478750D01*
X2081250Y1466250D02*
Y1478750D01*
X2082250D02*
Y1466250D01*
X2083250Y1478750D02*
Y1466250D01*
X2084250Y1478750D02*
Y1466250D01*
X2085250Y1478750D02*
Y1466250D01*
X2086250Y1478750D02*
Y1466250D01*
X2087250Y1478750D02*
Y1466250D01*
X2088250D02*
Y1478750D01*
X2089250Y1466250D02*
Y1478750D01*
X2078750Y1453750D02*
Y1478750D01*
X2091250Y1453750D02*
Y1478750D01*
X2066250Y1466250D02*
X2166250D01*
X2141250Y1453750D02*
Y1478750D01*
X2116250Y1453750D02*
Y1478750D01*
X2067250Y1453750D02*
Y1466250D01*
X2077750Y1453750D02*
Y1466250D01*
X2079750D02*
Y1478750D01*
X2090250Y1466250D02*
Y1478750D01*
X2093250Y1466250D02*
Y1478750D01*
X2092250Y1466250D02*
Y1478750D01*
X2094250Y1466250D02*
Y1478750D01*
X2095250D02*
Y1466250D01*
X2096250Y1478750D02*
Y1466250D01*
X2097250Y1478750D02*
Y1466250D01*
X2098250Y1478750D02*
Y1466250D01*
X2099250Y1478750D02*
Y1466250D01*
X2101250D02*
Y1478750D01*
X2100250D02*
Y1466250D01*
X2102250D02*
Y1478750D01*
X2103250Y1466250D02*
Y1478750D01*
X2105250Y1466250D02*
Y1478750D01*
X2104250Y1466250D02*
Y1478750D01*
X2106250Y1466250D02*
Y1478750D01*
X2107250D02*
Y1466250D01*
X2108250Y1478750D02*
Y1466250D01*
X2109250Y1478750D02*
Y1466250D01*
X2110250Y1478750D02*
Y1466250D01*
X2111250Y1478750D02*
Y1466250D01*
X2112250Y1478750D02*
Y1466250D01*
X2113250D02*
Y1478750D01*
X2114250Y1466250D02*
Y1478750D01*
X2115250Y1466250D02*
Y1478750D01*
X2126250Y1593750D02*
Y1758750D01*
X1876250*
Y1593750*
X2126250*
X2103750Y1711250D02*
Y1686250D01*
X2126250Y1711250D02*
X1876250D01*
X2126250Y1686250D02*
X1876250D01*
X2126250Y1613750D02*
X1876250D01*
X2126250Y1636950D02*
X1876250D01*
X1991250Y1593750D02*
Y1613750D01*
X1898750Y1725125D02*
X1899295Y1725500D01*
X1900114Y1726625*
Y1718750*
X1905841Y1725500D02*
X1905568Y1726250D01*
X1904750Y1726625*
X1904205*
X1903386Y1726250*
X1902841Y1725125*
X1902568Y1723250*
Y1721375*
X1902841Y1719875*
X1903386Y1719125*
X1904205Y1718750*
X1904477*
X1905295Y1719125*
X1905841Y1719875*
X1906114Y1721000*
Y1721375*
X1905841Y1722500*
X1905295Y1723250*
X1904477Y1723625*
X1904205*
X1903386Y1723250*
X1902841Y1722500*
X1902568Y1721375*
X1908568Y1722125D02*
X1913477D01*
X1915932Y1726625D02*
Y1718750D01*
Y1726625D02*
X1918386D01*
X1919205Y1726250*
X1919477Y1725875*
X1919750Y1725125*
Y1724375*
X1919477Y1723625*
X1919205Y1723250*
X1918386Y1722875*
X1915932D02*
X1918386D01*
X1919205Y1722500*
X1919477Y1722125*
X1919750Y1721375*
Y1720250*
X1919477Y1719500*
X1919205Y1719125*
X1918386Y1718750*
X1915932*
X1922205Y1726625D02*
X1922477Y1726250D01*
X1922750Y1726625*
X1922477Y1727000*
X1922205Y1726625*
X1922477Y1724000D02*
Y1718750D01*
X1926023Y1726625D02*
Y1720250D01*
X1926295Y1719125*
X1926841Y1718750*
X1927386*
X1925205Y1724000D02*
X1927114D01*
X1936114Y1726625D02*
Y1718750D01*
X1939932Y1726625D02*
Y1718750D01*
X1936114Y1722875D02*
X1939932D01*
X1942386Y1726625D02*
X1942659Y1726250D01*
X1942932Y1726625*
X1942659Y1727000*
X1942386Y1726625*
X1942659Y1724000D02*
Y1718750D01*
X1948659Y1724000D02*
Y1718000D01*
X1948386Y1716875*
X1948114Y1716500*
X1947568Y1716125*
X1946750*
X1946205Y1716500*
X1948659Y1722875D02*
X1948114Y1723625D01*
X1947568Y1724000*
X1946750*
X1946205Y1723625*
X1945659Y1722875*
X1945386Y1721750*
Y1721000*
X1945659Y1719875*
X1946205Y1719125*
X1946750Y1718750*
X1947568*
X1948114Y1719125*
X1948659Y1719875*
X1951114Y1726625D02*
Y1718750D01*
Y1722500D02*
X1951932Y1723625D01*
X1952477Y1724000*
X1953295*
X1953841Y1723625*
X1954114Y1722500*
Y1718750*
X1965023Y1726625D02*
X1962841Y1718750D01*
X1965023Y1726625D02*
X1967205Y1718750D01*
X1963659Y1721375D02*
X1966386D01*
X1972932Y1722875D02*
X1972386Y1723625D01*
X1971841Y1724000*
X1971023*
X1970477Y1723625*
X1969932Y1722875*
X1969659Y1721750*
Y1721000*
X1969932Y1719875*
X1970477Y1719125*
X1971023Y1718750*
X1971841*
X1972386Y1719125*
X1972932Y1719875*
X1978659Y1722875D02*
X1978114Y1723625D01*
X1977568Y1724000*
X1976750*
X1976205Y1723625*
X1975659Y1722875*
X1975386Y1721750*
Y1721000*
X1975659Y1719875*
X1976205Y1719125*
X1976750Y1718750*
X1977568*
X1978114Y1719125*
X1978659Y1719875*
X1981114Y1724000D02*
Y1720250D01*
X1981386Y1719125*
X1981932Y1718750*
X1982750*
X1983295Y1719125*
X1984114Y1720250*
Y1724000D02*
Y1718750D01*
X1986568Y1724000D02*
Y1718750D01*
Y1721750D02*
X1986841Y1722875D01*
X1987386Y1723625*
X1987932Y1724000*
X1988750*
X1994477D02*
Y1718750D01*
Y1722875D02*
X1993932Y1723625D01*
X1993386Y1724000*
X1992568*
X1992023Y1723625*
X1991477Y1722875*
X1991205Y1721750*
Y1721000*
X1991477Y1719875*
X1992023Y1719125*
X1992568Y1718750*
X1993386*
X1993932Y1719125*
X1994477Y1719875*
X2000205Y1722875D02*
X1999659Y1723625D01*
X1999114Y1724000*
X1998295*
X1997750Y1723625*
X1997205Y1722875*
X1996932Y1721750*
Y1721000*
X1997205Y1719875*
X1997750Y1719125*
X1998295Y1718750*
X1999114*
X1999659Y1719125*
X2000205Y1719875*
X2002932Y1724000D02*
X2004568Y1718750D01*
X2006205Y1724000D02*
X2004568Y1718750D01*
X2004023Y1717250*
X2003477Y1716500*
X2002932Y1716125*
X2002659*
X2017659Y1726625D02*
X2014932Y1721375D01*
X2019023*
X2017659Y1726625D02*
Y1718750D01*
X2021477Y1722125D02*
X2026386D01*
X2029114Y1724750D02*
Y1725125D01*
X2029386Y1725875*
X2029659Y1726250*
X2030205Y1726625*
X2031295*
X2031841Y1726250*
X2032114Y1725875*
X2032386Y1725125*
Y1724375*
X2032114Y1723625*
X2031568Y1722500*
X2028841Y1718750*
X2032659*
X2036750Y1726625D02*
X2035932Y1726250D01*
X2035386Y1725125*
X2035114Y1723250*
Y1722125*
X2035386Y1720250*
X2035932Y1719125*
X2036750Y1718750*
X2037295*
X2038114Y1719125*
X2038659Y1720250*
X2038932Y1722125*
Y1723250*
X2038659Y1725125*
X2038114Y1726250*
X2037295Y1726625*
X2036750*
X2041386Y1724000D02*
Y1718750D01*
Y1722500D02*
X2042205Y1723625D01*
X2042750Y1724000*
X2043568*
X2044114Y1723625*
X2044386Y1722500*
Y1718750*
Y1722500D02*
X2045205Y1723625D01*
X2045750Y1724000*
X2046568*
X2047114Y1723625*
X2047386Y1722500*
Y1718750*
X2052023Y1726625D02*
X2049841Y1718750D01*
X2052023Y1726625D02*
X2054205Y1718750D01*
X2050659Y1721375D02*
X2053386D01*
X2062932Y1726625D02*
Y1718750D01*
X2069205Y1725500D02*
X2068659Y1726250D01*
X2067841Y1726625*
X2066750*
X2065932Y1726250*
X2065386Y1725500*
Y1724750*
X2065659Y1724000*
X2065932Y1723625*
X2066477Y1723250*
X2068114Y1722500*
X2068659Y1722125*
X2068932Y1721750*
X2069205Y1721000*
Y1719875*
X2068659Y1719125*
X2067841Y1718750*
X2066750*
X2065932Y1719125*
X2065386Y1719875*
X2073295Y1726625D02*
X2072750Y1726250D01*
X2072205Y1725500*
X2071932Y1724750*
X2071659Y1723625*
Y1721750*
X2071932Y1720625*
X2072205Y1719875*
X2072750Y1719125*
X2073295Y1718750*
X2074386*
X2074932Y1719125*
X2075477Y1719875*
X2075750Y1720625*
X2076023Y1721750*
Y1723625*
X2075750Y1724750*
X2075477Y1725500*
X2074932Y1726250*
X2074386Y1726625*
X2073295*
X2086932D02*
X2084750Y1718750D01*
X2086932Y1726625D02*
X2089114Y1718750D01*
X2085568Y1721375D02*
X2088295D01*
X2091568Y1726625D02*
Y1718750D01*
Y1726625D02*
X2095114D01*
X2091568Y1722875D02*
X2093750D01*
X2097568Y1726625D02*
Y1718750D01*
Y1726625D02*
X2101114D01*
X2097568Y1722875D02*
X2099750D01*
X2097568Y1718750D02*
X2101114D01*
X1902386Y1745250D02*
X1901977Y1746375D01*
X1901159Y1747500*
X1900341Y1748063*
X1900341D02*
X1898705D01*
X1898705D02*
X1897886Y1747500D01*
X1897068Y1746375*
X1896659Y1745250*
X1896250Y1743563*
X1896250D02*
Y1740750D01*
X1896659Y1739063*
X1896659D02*
X1897068Y1737938D01*
X1897068D02*
X1897886Y1736813D01*
X1897886D02*
X1898705Y1736250D01*
X1900341*
X1901159Y1736813*
X1901159D02*
X1901977Y1737938D01*
X1901977D02*
X1902386Y1739063D01*
X1909341Y1748063D02*
X1906068Y1736250D01*
X1909341Y1748063D02*
X1912614Y1736250D01*
X1907295Y1740188D02*
X1911386D01*
X1916295Y1748063D02*
Y1736250D01*
Y1748063D02*
X1919568Y1736250D01*
X1922841Y1748063D02*
X1919568Y1736250D01*
X1922841Y1748063D02*
Y1736250D01*
X1926523Y1748063D02*
Y1736250D01*
Y1748063D02*
X1930205D01*
X1930205D02*
X1931432Y1747500D01*
X1931841Y1746938*
X1931841D02*
X1932250Y1745813D01*
X1932250D02*
Y1744125D01*
X1931841Y1743000*
X1931432Y1742438*
X1931432D02*
X1930205Y1741875D01*
X1926523*
X1935932Y1748063D02*
Y1736250D01*
Y1748063D02*
X1939614D01*
X1939614D02*
X1940841Y1747500D01*
X1941250Y1746938*
X1941250D02*
X1941659Y1745813D01*
X1941659D02*
Y1744688D01*
X1941659D02*
X1941250Y1743563D01*
X1941250D02*
X1940841Y1743000D01*
X1939614Y1742438*
X1935932D02*
X1939614D01*
X1939614D02*
X1940841Y1741875D01*
X1941250Y1741313*
X1941250D02*
X1941659Y1740188D01*
X1941659D02*
Y1738500D01*
X1941250Y1737375*
X1940841Y1736813*
X1940841D02*
X1939614Y1736250D01*
X1935932*
X1945341Y1748063D02*
Y1736250D01*
Y1748063D02*
X1950659D01*
X1945341Y1742438D02*
X1948614D01*
X1945341Y1736250D02*
X1950659D01*
X1954341Y1748063D02*
Y1736250D01*
X1959250*
X1962932Y1748063D02*
Y1736250D01*
X1967841*
X1983795Y1750313D02*
X1982977Y1749188D01*
X1982977D02*
X1982159Y1747500D01*
X1981341Y1745250*
X1980932Y1742438*
X1980932D02*
Y1740188D01*
X1980932D02*
X1981341Y1737375D01*
X1982159Y1735125*
X1982977Y1733437*
X1982977D02*
X1983795Y1732312D01*
X1987477Y1748063D02*
Y1736250D01*
Y1748063D02*
X1990750Y1736250D01*
X1994023Y1748063D02*
X1990750Y1736250D01*
X1994023Y1748063D02*
Y1736250D01*
X2000977Y1748063D02*
X1997705Y1736250D01*
X2000977Y1748063D02*
X2004250Y1736250D01*
X1998932Y1740188D02*
X2003023D01*
X2007932Y1748063D02*
X2013659Y1736250D01*
Y1748063D02*
X2007932Y1736250D01*
X2017341Y1748063D02*
Y1736250D01*
Y1748063D02*
X2021023D01*
X2021023D02*
X2022250Y1747500D01*
X2022659Y1746938*
X2022659D02*
X2023068Y1745813D01*
X2023068D02*
Y1744688D01*
X2023068D02*
X2022659Y1743563D01*
X2022659D02*
X2022250Y1743000D01*
X2021023Y1742438*
X2021023D02*
X2017341D01*
X2020205D02*
X2023068Y1736250D01*
X2026750Y1748063D02*
Y1736250D01*
Y1748063D02*
X2032068D01*
X2026750Y1742438D02*
X2030023D01*
X2026750Y1736250D02*
X2032068D01*
X2035750Y1748063D02*
Y1736250D01*
Y1748063D02*
X2041068D01*
X2035750Y1742438D02*
X2039023D01*
X2044750Y1748063D02*
Y1736250D01*
Y1748063D02*
X2047614D01*
X2047614D02*
X2048841Y1747500D01*
X2049659Y1746375*
X2050068Y1745250*
X2050477Y1743563*
X2050477D02*
Y1740750D01*
X2050068Y1739063*
X2050068D02*
X2049659Y1737938D01*
X2049659D02*
X2048841Y1736813D01*
X2048841D02*
X2047614Y1736250D01*
X2044750*
X2054159Y1748063D02*
Y1736250D01*
Y1748063D02*
X2059477D01*
X2054159Y1742438D02*
X2057432D01*
X2054159Y1736250D02*
X2059477D01*
X2068886Y1746375D02*
X2068068Y1747500D01*
X2066841Y1748063*
X2066841D02*
X2065205D01*
X2065205D02*
X2063977Y1747500D01*
X2063159Y1746375*
Y1745250*
X2063568Y1744125*
X2063977Y1743563*
X2063977D02*
X2064795Y1743000D01*
X2067250Y1741875*
X2068068Y1741313*
X2068068D02*
X2068477Y1740750D01*
X2068886Y1739625*
Y1737938*
X2068886D02*
X2068068Y1736813D01*
X2068068D02*
X2066841Y1736250D01*
X2065205*
X2063977Y1736813*
X2063977D02*
X2063159Y1737938D01*
X2076659Y1748063D02*
X2072568Y1740188D01*
X2072568D02*
X2078705D01*
X2076659Y1748063D02*
Y1736250D01*
X2085659Y1750313D02*
X2082795Y1732312D01*
X2088114Y1750313D02*
X2085250Y1732312D01*
X2082795Y1743000D02*
X2088523D01*
X2082386Y1739625D02*
X2088114D01*
X2092205Y1750313D02*
X2093023Y1749188D01*
X2093023D02*
X2093841Y1747500D01*
X2094659Y1745250*
X2095068Y1742438*
X2095068D02*
Y1740188D01*
X2095068D02*
X2094659Y1737375D01*
X2093841Y1735125*
X2093023Y1733437*
X2093023D02*
X2092205Y1732312D01*
X1896250Y1705563D02*
Y1693750D01*
Y1705563D02*
X1899932D01*
X1899932D02*
X1901159Y1705000D01*
X1901568Y1704438*
X1901568D02*
X1901977Y1703313D01*
X1901977D02*
Y1701625D01*
X1901568Y1700500*
X1901159Y1699938*
X1901159D02*
X1899932Y1699375D01*
X1896250*
X1913023Y1707813D02*
X1905659Y1689812D01*
X1916705Y1705563D02*
Y1693750D01*
Y1705563D02*
X1922432Y1693750D01*
Y1705563D02*
Y1693750D01*
X1926523Y1701625D02*
X1926114Y1701063D01*
X1926114D02*
X1926523Y1700500D01*
X1926932Y1701063*
X1926932D02*
X1926523Y1701625D01*
Y1694875D02*
X1926114Y1694313D01*
X1926114D02*
X1926523Y1693750D01*
X1926932Y1694313*
X1926932D02*
X1926523Y1694875D01*
X1940023Y1705563D02*
Y1693750D01*
Y1705563D02*
X1945341D01*
X1940023Y1699938D02*
X1943295D01*
X1940023Y1693750D02*
X1945341D01*
X1949023Y1705563D02*
Y1693750D01*
Y1705563D02*
X1952705D01*
X1952705D02*
X1953932Y1705000D01*
X1954341Y1704438*
X1954341D02*
X1954750Y1703313D01*
X1954750D02*
Y1701625D01*
X1954341Y1700500*
X1953932Y1699938*
X1953932D02*
X1952705Y1699375D01*
X1949023*
X1964568Y1702750D02*
X1964159Y1703875D01*
X1963341Y1705000*
X1962523Y1705563*
X1962523D02*
X1960886D01*
X1960886D02*
X1960068Y1705000D01*
X1959250Y1703875*
X1958841Y1702750*
X1958432Y1701063*
X1958432D02*
Y1698250D01*
X1958841Y1696563*
X1958841D02*
X1959250Y1695438D01*
X1959250D02*
X1960068Y1694313D01*
X1960068D02*
X1960886Y1693750D01*
X1962523*
X1963341Y1694313*
X1963341D02*
X1964159Y1695438D01*
X1964159D02*
X1964568Y1696563D01*
X1968250Y1705563D02*
Y1693750D01*
Y1705563D02*
X1971932D01*
X1971932D02*
X1973159Y1705000D01*
X1973568Y1704438*
X1973568D02*
X1973977Y1703313D01*
X1973977D02*
Y1702188D01*
X1973977D02*
X1973568Y1701063D01*
X1973568D02*
X1973159Y1700500D01*
X1971932Y1699938*
X1968250D02*
X1971932D01*
X1971932D02*
X1973159Y1699375D01*
X1973568Y1698813*
X1973568D02*
X1973977Y1697688D01*
X1973977D02*
Y1696000D01*
X1973568Y1694875*
X1973159Y1694313*
X1973159D02*
X1971932Y1693750D01*
X1968250*
X1977659Y1705563D02*
Y1693750D01*
Y1705563D02*
X1981341D01*
X1981341D02*
X1982568Y1705000D01*
X1982977Y1704438*
X1982977D02*
X1983386Y1703313D01*
X1983386D02*
Y1702188D01*
X1983386D02*
X1982977Y1701063D01*
X1982977D02*
X1982568Y1700500D01*
X1981341Y1699938*
X1981341D02*
X1977659D01*
X1980523D02*
X1983386Y1693750D01*
X1987068Y1705563D02*
Y1693750D01*
Y1705563D02*
X1992386D01*
X1987068Y1699938D02*
X1990341D01*
X1987068Y1693750D02*
X1992386D01*
X1996068Y1705563D02*
Y1693750D01*
Y1705563D02*
X2001386D01*
X1996068Y1699938D02*
X1999341D01*
X2005068Y1705563D02*
Y1693750D01*
Y1705563D02*
X2007932D01*
X2007932D02*
X2009159Y1705000D01*
X2009977Y1703875*
X2010386Y1702750*
X2010795Y1701063*
X2010795D02*
Y1698250D01*
X2010386Y1696563*
X2010386D02*
X2009977Y1695438D01*
X2009977D02*
X2009159Y1694313D01*
X2009159D02*
X2007932Y1693750D01*
X2005068*
X2014477Y1705563D02*
Y1693750D01*
Y1705563D02*
X2019795D01*
X2014477Y1699938D02*
X2017750D01*
X2014477Y1693750D02*
X2019795D01*
X2029205Y1703875D02*
X2028386Y1705000D01*
X2027159Y1705563*
X2027159D02*
X2025523D01*
X2025523D02*
X2024295Y1705000D01*
X2023477Y1703875*
Y1702750*
X2023886Y1701625*
X2024295Y1701063*
X2024295D02*
X2025114Y1700500D01*
X2027568Y1699375*
X2028386Y1698813*
X2028386D02*
X2028795Y1698250D01*
X2029205Y1697125*
Y1695438*
X2029205D02*
X2028386Y1694313D01*
X2028386D02*
X2027159Y1693750D01*
X2025523*
X2024295Y1694313*
X2024295D02*
X2023477Y1695438D01*
X2036977Y1705563D02*
X2032886Y1697688D01*
X2032886D02*
X2039023D01*
X2036977Y1705563D02*
Y1693750D01*
X2111477Y1698594D02*
X2108750Y1688750D01*
X2111477Y1698594D02*
X2114205Y1688750D01*
X2109773Y1692031D02*
X2113182D01*
X2008068Y1605313D02*
X2006250Y1598750D01*
X2008068Y1605313D02*
X2009886Y1598750D01*
X2006932Y1600938D02*
X2009205D01*
X2011932Y1605313D02*
Y1598750D01*
X2014659*
X2016705Y1605313D02*
Y1598750D01*
X2019432*
X2026705Y1605313D02*
Y1600625D01*
X2026932Y1599688*
X2026932D02*
X2027386Y1599063D01*
X2027386D02*
X2028068Y1598750D01*
X2028523*
X2029205Y1599063*
X2029205D02*
X2029659Y1599688D01*
X2029659D02*
X2029886Y1600625D01*
Y1605313*
X2031932D02*
Y1598750D01*
Y1605313D02*
X2035114Y1598750D01*
Y1605313D02*
Y1598750D01*
X2037159Y1605313D02*
Y1598750D01*
X2040795Y1605313D02*
Y1598750D01*
X2039205Y1605313D02*
X2042386D01*
X2047614Y1604375D02*
X2047159Y1605000D01*
X2046477Y1605313*
X2046477D02*
X2045568D01*
X2045568D02*
X2044886Y1605000D01*
X2044432Y1604375*
Y1603750*
X2044659Y1603125*
X2044886Y1602813*
X2044886D02*
X2045341Y1602500D01*
X2046705Y1601875*
X2047159Y1601563*
X2047159D02*
X2047386Y1601250D01*
X2047614Y1600625*
Y1599688*
X2047614D02*
X2047159Y1599063D01*
X2047159D02*
X2046477Y1598750D01*
X2045568*
X2044886Y1599063*
X2044886D02*
X2044432Y1599688D01*
X2056705Y1605313D02*
X2054886Y1598750D01*
X2056705Y1605313D02*
X2058523Y1598750D01*
X2055568Y1600938D02*
X2057841D01*
X2060568Y1605313D02*
Y1598750D01*
Y1605313D02*
X2062614D01*
X2062614D02*
X2063295Y1605000D01*
X2063523Y1604688*
X2063523D02*
X2063750Y1604063D01*
X2063750D02*
Y1603438D01*
X2063750D02*
X2063523Y1602813D01*
X2063523D02*
X2063295Y1602500D01*
X2062614Y1602188*
X2062614D02*
X2060568D01*
X2062159D02*
X2063750Y1598750D01*
X2065795Y1605313D02*
Y1598750D01*
Y1605313D02*
X2068750D01*
X2065795Y1602188D02*
X2067614D01*
X2065795Y1598750D02*
X2068750D01*
X2076023Y1605313D02*
Y1598750D01*
X2078068Y1605313D02*
Y1598750D01*
Y1605313D02*
X2081250Y1598750D01*
Y1605313D02*
Y1598750D01*
X2089886Y1605313D02*
X2089205Y1605000D01*
X2088750Y1604063*
X2088750D02*
X2088523Y1602500D01*
Y1601563*
X2088523D02*
X2088750Y1600000D01*
X2089205Y1599063*
X2089205D02*
X2089886Y1598750D01*
X2090341*
X2091023Y1599063*
X2091023D02*
X2091477Y1600000D01*
X2091705Y1601563*
X2091705D02*
Y1602500D01*
X2091477Y1604063*
X2091477D02*
X2091023Y1605000D01*
X2090341Y1605313*
X2090341D02*
X2089886D01*
X2093977Y1599375D02*
X2093750Y1599063D01*
X2093750D02*
X2093977Y1598750D01*
X2094205Y1599063*
X2094205D02*
X2093977Y1599375D01*
X2097614Y1605313D02*
X2096932Y1605000D01*
X2096477Y1604063*
X2096477D02*
X2096250Y1602500D01*
Y1601563*
X2096250D02*
X2096477Y1600000D01*
X2096932Y1599063*
X2096932D02*
X2097614Y1598750D01*
X2098068*
X2098750Y1599063*
X2098750D02*
X2099205Y1600000D01*
X2099432Y1601563*
X2099432D02*
Y1602500D01*
X2099205Y1604063*
X2099205D02*
X2098750Y1605000D01*
X2098068Y1605313*
X2098068D02*
X2097614D01*
X2102841D02*
X2102159Y1605000D01*
X2101705Y1604063*
X2101705D02*
X2101477Y1602500D01*
Y1601563*
X2101477D02*
X2101705Y1600000D01*
X2102159Y1599063*
X2102159D02*
X2102841Y1598750D01*
X2103295*
X2103977Y1599063*
X2103977D02*
X2104432Y1600000D01*
X2104659Y1601563*
X2104659D02*
Y1602500D01*
X2104432Y1604063*
X2104432D02*
X2103977Y1605000D01*
X2103295Y1605313*
X2103295D02*
X2102841D01*
X2106705Y1604063D02*
X2107159Y1604375D01*
X2107841Y1605313*
X2107841D02*
Y1598750D01*
X2109886Y1605313D02*
Y1603125D01*
X2111705Y1605313D02*
Y1603125D01*
X1921250Y1625313D02*
Y1618750D01*
X1923977*
X1927841Y1625313D02*
X1926023Y1618750D01*
X1927841Y1625313D02*
X1929659Y1618750D01*
X1926705Y1620938D02*
X1928977D01*
X1931705Y1625313D02*
X1933523Y1622188D01*
X1933523D02*
Y1618750D01*
X1935341Y1625313D02*
X1933523Y1622188D01*
X1937386Y1625313D02*
Y1618750D01*
Y1625313D02*
X1940341D01*
X1937386Y1622188D02*
X1939205D01*
X1937386Y1618750D02*
X1940341D01*
X1942386Y1625313D02*
Y1618750D01*
Y1625313D02*
X1944432D01*
X1944432D02*
X1945114Y1625000D01*
X1945341Y1624688*
X1945341D02*
X1945568Y1624063D01*
X1945568D02*
Y1623438D01*
X1945568D02*
X1945341Y1622813D01*
X1945341D02*
X1945114Y1622500D01*
X1944432Y1622188*
X1944432D02*
X1942386D01*
X1943977D02*
X1945568Y1618750D01*
X1953068Y1623750D02*
Y1624063D01*
X1953068D02*
X1953295Y1624688D01*
X1953295D02*
X1953523Y1625000D01*
X1953977Y1625313*
X1953977D02*
X1954886D01*
X1954886D02*
X1955341Y1625000D01*
X1955568Y1624688*
X1955568D02*
X1955795Y1624063D01*
X1955795D02*
Y1623438D01*
X1955795D02*
X1955568Y1622813D01*
X1955568D02*
X1955114Y1621875D01*
X1952841Y1618750*
X1956023*
X1966705Y1623750D02*
X1966477Y1624375D01*
X1966023Y1625000*
X1965568Y1625313*
X1965568D02*
X1964659D01*
X1964659D02*
X1964205Y1625000D01*
X1963750Y1624375*
X1963523Y1623750*
X1963295Y1622813*
X1963295D02*
Y1621250D01*
X1963523Y1620313*
X1963523D02*
X1963750Y1619688D01*
X1963750D02*
X1964205Y1619063D01*
X1964205D02*
X1964659Y1618750D01*
X1965568*
X1966023Y1619063*
X1966023D02*
X1966477Y1619688D01*
X1966477D02*
X1966705Y1620313D01*
X1966705D02*
Y1621250D01*
X1965568D02*
X1966705D01*
X1968750Y1625313D02*
Y1618750D01*
Y1625313D02*
X1971932Y1618750D01*
Y1625313D02*
Y1618750D01*
X1973977Y1625313D02*
Y1618750D01*
Y1625313D02*
X1975568D01*
X1975568D02*
X1976250Y1625000D01*
X1976705Y1624375*
X1976932Y1623750*
X1977159Y1622813*
X1977159D02*
Y1621250D01*
X1976932Y1620313*
X1976932D02*
X1976705Y1619688D01*
X1976705D02*
X1976250Y1619063D01*
X1976250D02*
X1975568Y1618750D01*
X1973977*
G54D180*
X1883750Y1610844D02*
Y1606250D01*
Y1610844D02*
X1884864D01*
X1885341Y1610625*
X1885659Y1610188*
X1885659D02*
X1885818Y1609750D01*
X1885977Y1609094*
Y1608000*
X1885818Y1607344*
X1885659Y1606906*
X1885341Y1606469*
X1884864Y1606250*
X1883750*
X1888682Y1610844D02*
X1887409Y1606250D01*
X1888682Y1610844D02*
X1889955Y1606250D01*
X1887886Y1607781D02*
X1889477D01*
X1892500Y1610844D02*
Y1606250D01*
X1891386Y1610844D02*
X1893614D01*
X1895045D02*
Y1606250D01*
Y1610844D02*
X1897114D01*
X1895045Y1608656D02*
X1896318D01*
X1895045Y1606250D02*
X1897114D01*
X1898705Y1609313D02*
X1898545Y1609094D01*
X1898705Y1608875*
X1898864Y1609094*
X1898705Y1609313*
Y1606688D02*
X1898545Y1606469D01*
X1898705Y1606250*
X1898864Y1606469*
X1898705Y1606688*
X1883750Y1633344D02*
Y1628750D01*
X1885659*
X1888364Y1633344D02*
X1887091Y1628750D01*
X1888364Y1633344D02*
X1889636Y1628750D01*
X1887568Y1630281D02*
X1889159D01*
X1891068Y1633344D02*
X1892341Y1631156D01*
Y1628750*
X1893614Y1633344D02*
X1892341Y1631156D01*
X1895045Y1633344D02*
Y1628750D01*
Y1633344D02*
X1897114D01*
X1895045Y1631156D02*
X1896318D01*
X1895045Y1628750D02*
X1897114D01*
X1898545Y1633344D02*
Y1628750D01*
Y1633344D02*
X1899977D01*
X1900455Y1633125*
X1900614Y1632906*
X1900773Y1632469*
Y1632031*
X1900614Y1631594*
X1900455Y1631375*
X1899977Y1631156*
X1898545*
X1899659D02*
X1900773Y1628750D01*
X2108750Y1708344D02*
Y1703750D01*
Y1708344D02*
X2110182D01*
X2110659Y1708125*
X2110818Y1707906*
X2110977Y1707469*
Y1707031*
X2110818Y1706594*
X2110659Y1706375*
X2110182Y1706156*
X2108750*
X2109864D02*
X2110977Y1703750D01*
X2112409Y1708344D02*
Y1703750D01*
Y1708344D02*
X2114477D01*
X2112409Y1706156D02*
X2113682D01*
X2112409Y1703750D02*
X2114477D01*
X2115909Y1708344D02*
X2117182Y1703750D01*
X2118455Y1708344D02*
X2117182Y1703750D01*
G54D185*
X2066250Y1453750D02*
X2066253D01*
X2166250D02*
X2166253D01*
G54D189*
X2113750Y1449063D02*
X2114205Y1449375D01*
X2114886Y1450313*
X2114886D02*
Y1443750D01*
X2117159Y1444375D02*
X2116932Y1444063D01*
X2116932D02*
X2117159Y1443750D01*
X2117386Y1444063*
X2117386D02*
X2117159Y1444375D01*
X2120795Y1450313D02*
X2120114Y1450000D01*
X2119659Y1449063*
X2119659D02*
X2119432Y1447500D01*
Y1446563*
X2119432D02*
X2119659Y1445000D01*
X2120114Y1444063*
X2120114D02*
X2120795Y1443750D01*
X2121250*
X2121932Y1444063*
X2121932D02*
X2122386Y1445000D01*
X2122614Y1446563*
X2122614D02*
Y1447500D01*
X2122386Y1449063*
X2122386D02*
X2121932Y1450000D01*
X2121250Y1450313*
X2121250D02*
X2120795D01*
X2124659D02*
Y1448125D01*
X2126477Y1450313D02*
Y1448125D01*
G54D193*
X2066650Y1516250D02*
G03X2066650I-2900J0D01*
G01X2031150Y1495750D02*
G03X2031150I-2900J0D01*
G01X2024400Y1498750D02*
G03X2024400I-5650J0D01*
G01X1978650Y1509250D02*
G03X1978650I-2900J0D01*
G01X2025650Y1548750D02*
G03X2025650I-2900J0D01*
G01X2161900Y1498750D02*
G03X2161900I-5650J0D01*
G01X2137150D02*
G03X2137150I-4400J0D01*
G01Y1528750D02*
G03X2137150I-4400J0D01*
G01X2107150Y1506250D02*
G03X2107150I-2900J0D01*
G01X2066650Y1541250D02*
G03X2066650I-2900J0D01*
G01X1924650Y1509250D02*
G03X1924650I-2900J0D01*
G01X1922150Y1548250D02*
G03X1922150I-2900J0D01*
G01X1893650Y1510750D02*
G03X1893650I-4400J0D01*
G01X1874150Y1503250D02*
G03X1874150I-2900J0D01*
G01X1866150Y1533750D02*
G03X1866150I-4900J0D01*
G01Y1543750D02*
G03X1866150I-4900J0D01*
G01Y1553750D02*
G03X1866150I-4900J0D01*
G01X1856150Y1503750D02*
G03X1856150I-4900J0D01*
G01Y1523750D02*
G03X1856150I-4900J0D01*
G01Y1533750D02*
G03X1856150I-4900J0D01*
G01Y1543750D02*
G03X1856150I-4900J0D01*
G01Y1553750D02*
G03X1856150I-4900J0D01*
G01X1866150Y1503750D02*
G03X1866150I-4900J0D01*
G01Y1523750D02*
G03X1866150I-4900J0D01*
G01X2092850Y1498390D02*
Y1507810D01*
G03X2092810Y1507850I-40J0*
G01X2089584*
X2087929Y1509506*
G03X2087864Y1509495I-29J-29*
G01X2083995Y1513364D02*
G03X2087864Y1509495I1255J-2614D01*
G01X2083995Y1513364D02*
G03X2084006Y1513429I-18J36D01*
G01X2082850Y1514584*
Y1520810*
G03X2082810Y1520850I-40J0*
G01X2044432*
G03X2044404Y1520838I0J-40*
G01X2040916Y1517350*
X2037403*
G03X2037379Y1517278I0J-40*
G01X2030727Y1511969D02*
G03X2037379Y1517278I4023J1781D01*
G01X2030727Y1511969D02*
G03X2030650Y1511953I-37J-16D01*
G01Y1509350*
X1998584*
X1983850Y1524084*
Y1535652*
G03X1983782Y1535681I-40J0*
G01Y1539819D02*
G03Y1535681I-2032J-2069D01*
G01Y1539819D02*
G03X1983850Y1539848I28J29D01*
G01Y1551310*
G03X1983810Y1551350I-40J0*
G01X1972690*
G03X1972650Y1551310I0J-40*
G01Y1491690*
G03X1972690Y1491650I40J0*
G01X2088258*
G03X2088292Y1491711I-0J40*
G01X2092533Y1495537D02*
G03X2088292Y1491711I-1783J-2287D01*
G01X2092533Y1495537D02*
G03X2092594Y1495585I25J32D01*
G01X2092843Y1498368D02*
G03X2092594Y1495585I2407J-1618D01*
G01X2092843Y1498368D02*
G03X2092850Y1498390I-33J22D01*
G01X2041850Y1543932D02*
Y1565810D01*
G03X2041810Y1565850I-40J-0*
G01X2000690*
G03X2000650Y1565810I0J-40*
G01Y1512190*
G03X2000690Y1512150I40J0*
G01X2027310*
G03X2027350Y1512190I0J40*
G01Y1529416*
X2041838Y1543904*
G03X2041850Y1543932I-28J28*
G01X2163350Y1491690D02*
Y1565810D01*
G03X2163310Y1565850I-40J-0*
G01X2044690*
G03X2044650Y1565810I0J-40*
G01Y1523690*
G03X2044690Y1523650I40J0*
G01X2062304*
G03X2062324Y1523725I0J40*
G01X2065461Y1528592D02*
G03X2062324Y1523725I-1711J-2342D01*
G01X2065461Y1528592D02*
G03X2065515Y1528598I24J32D01*
G01X2070524Y1527597D02*
G03X2065515Y1528598I-2774J-847D01*
G01X2070524Y1527597D02*
G03X2070571Y1527569I38J11D01*
G01X2072106Y1527521D02*
G03X2070571Y1527569I-856J-2771D01*
G01X2072106Y1527521D02*
G03X2072153Y1527541I12J38D01*
G01X2076176Y1523725D02*
G03X2072153Y1527541I-1426J2525D01*
G01X2076176Y1523725D02*
G03X2076196Y1523650I20J-35D01*
G01X2083652*
G03X2083681Y1523718I0J40*
G01X2088356Y1524477D02*
G03X2083681Y1523718I-2606J1273D01*
G01X2088356Y1524477D02*
G03X2088376Y1524422I36J-18D01*
G01X2089429Y1523664D02*
G03X2088376Y1524422I-2179J-1914D01*
G01X2089429Y1523664D02*
G03X2089459Y1523650I30J26D01*
G01X2098150*
Y1496761*
X2098150*
Y1496739D02*
G03Y1496761I-2900J11D01*
G01Y1496739D02*
X2098150D01*
Y1491690*
G03X2098190Y1491650I40J0*
G01X2163310*
G03X2163350Y1491690I-0J40*
G01X1924850D02*
Y1565810D01*
G03X1924810Y1565850I-40J-0*
G01X1839190*
G03X1839150Y1565810I0J-40*
G01Y1491690*
G03X1839190Y1491650I40J0*
G01X1924810*
G03X1924850Y1491690I0J40*
G01X2072777Y1499124D02*
G03Y1503376I1973J2126D01*
G01Y1499124D02*
G03X2072723I-27J-29D01*
G01X2069894Y1498479D02*
G03X2072723Y1499124I856J2771D01*
G01X2069894Y1498479D02*
G03X2069847Y1498459I-12J-38D01*
G01X2064653D02*
G03X2069847I2597J1291D01*
G01X2064653D02*
G03X2064606Y1498479I-35J-18D01*
G01X2066347Y1502541D02*
G03X2064606Y1498479I-2597J-1291D01*
G01X2066347Y1502541D02*
G03X2066394Y1502521I35J18D01*
G01X2068106D02*
G03X2066394I-856J-2771D01*
G01X2068106D02*
G03X2068153Y1502541I12J38D01*
G01X2072723Y1503376D02*
G03X2068153Y1502541I-1973J-2126D01*
G01X2072723Y1503376D02*
G03X2072777I27J29D01*
G01X2066650Y1516250D02*
G03X2066650I-2900J0D01*
G01X2031150Y1495750D02*
G03X2031150I-2900J0D01*
G01X2039150Y1506750D02*
Y1500750D01*
X2037750Y1499350D02*
G03X2039150Y1500750I0J1400D01*
G01X2037750Y1499350D02*
X2031750D01*
X2030350Y1500750D02*
G03X2031750Y1499350I1400J0D01*
G01X2030350Y1500750D02*
Y1506750D01*
X2031750Y1508150D02*
G03X2030350Y1506750I0J-1400D01*
G01X2031750Y1508150D02*
X2037750D01*
X2039150Y1506750D02*
G03X2037750Y1508150I-1400J0D01*
G01X2024400Y1498750D02*
G03X2024400I-5650J0D01*
G01X1978650Y1509250D02*
G03X1978650I-2900J0D01*
G01X2025650Y1548750D02*
G03X2025650I-2900J0D01*
G01X2161900Y1498750D02*
G03X2161900I-5650J0D01*
G01X2147150Y1501750D02*
Y1495750D01*
X2145750Y1494350D02*
G03X2147150Y1495750I0J1400D01*
G01X2145750Y1494350D02*
X2139750D01*
X2138350Y1495750D02*
G03X2139750Y1494350I1400J0D01*
G01X2138350Y1495750D02*
Y1501750D01*
X2139750Y1503150D02*
G03X2138350Y1501750I0J-1400D01*
G01X2139750Y1503150D02*
X2145750D01*
X2147150Y1501750D02*
G03X2145750Y1503150I-1400J0D01*
G01X2137150Y1498750D02*
G03X2137150I-4400J0D01*
G01Y1521750D02*
Y1515750D01*
X2135750Y1514350D02*
G03X2137150Y1515750I0J1400D01*
G01X2135750Y1514350D02*
X2129750D01*
X2128350Y1515750D02*
G03X2129750Y1514350I1400J0D01*
G01X2128350Y1515750D02*
Y1521750D01*
X2129750Y1523150D02*
G03X2128350Y1521750I0J-1400D01*
G01X2129750Y1523150D02*
X2135750D01*
X2137150Y1521750D02*
G03X2135750Y1523150I-1400J0D01*
G01X2137150Y1528750D02*
G03X2137150I-4400J0D01*
G01X2107150Y1506250D02*
G03X2107150I-2900J0D01*
G01X2101437Y1540356D02*
G03X2099779Y1545749I-187J2894D01*
G01X2101437Y1540356D02*
G03X2101399Y1540316I2J-40D01*
G01Y1540315*
X2095942Y1541616D02*
G03X2101399Y1540315I2558J-1366D01*
G01X2095942Y1541616D02*
G03X2095925Y1541670I-35J19D01*
G01X2099724Y1545763D02*
G03X2095925Y1541670I-2474J-1513D01*
G01X2099724Y1545763D02*
G03X2099779Y1545749I34J21D01*
G01X2066650Y1541250D02*
G03X2066650I-2900J0D01*
G01X2071531Y1557883D02*
G03Y1561617I2219J1867D01*
G01Y1557883D02*
G03X2071469I-31J-25D01*
G01X2067031D02*
G03X2071469I2219J1867D01*
G01X2067031D02*
G03X2066969I-31J-25D01*
G01Y1561617D02*
G03Y1557883I-2219J-1867D01*
G01Y1561617D02*
G03X2067031I31J25D01*
G01X2071469D02*
G03X2067031I-2219J-1867D01*
G01X2071469D02*
G03X2071531I31J25D01*
G01X1924650Y1509250D02*
G03X1924650I-2900J0D01*
G01X1922150Y1548250D02*
G03X1922150I-2900J0D01*
G01X1893650Y1510750D02*
G03X1893650I-4400J0D01*
G01X1883650Y1513750D02*
Y1507750D01*
X1882250Y1506350D02*
G03X1883650Y1507750I0J1400D01*
G01X1882250Y1506350D02*
X1876250D01*
X1874850Y1507750D02*
G03X1876250Y1506350I1400J0D01*
G01X1874850Y1507750D02*
Y1513750D01*
X1876250Y1515150D02*
G03X1874850Y1513750I0J-1400D01*
G01X1876250Y1515150D02*
X1882250D01*
X1883650Y1513750D02*
G03X1882250Y1515150I-1400J0D01*
G01X1874150Y1503250D02*
G03X1874150I-2900J0D01*
G01X1867431Y1526429D02*
G03X1871097Y1528524I2819J-679D01*
G01X1867431Y1526429D02*
G03X1867403Y1526476I-39J9D01*
G01X1871069Y1528571D02*
G03X1867403Y1526476I-2819J679D01*
G01X1871069Y1528571D02*
G03X1871097Y1528524I39J-9D01*
G01X1866150Y1533750D02*
G03X1866150I-4900J0D01*
G01Y1543750D02*
G03X1866150I-4900J0D01*
G01Y1553750D02*
G03X1866150I-4900J0D01*
G01X1856150Y1503750D02*
G03X1856150I-4900J0D01*
G01Y1523750D02*
G03X1856150I-4900J0D01*
G01Y1533750D02*
G03X1856150I-4900J0D01*
G01Y1543750D02*
G03X1856150I-4900J0D01*
G01Y1553750D02*
G03X1856150I-4900J0D01*
G01X1866150Y1503750D02*
G03X1866150I-4900J0D01*
G01Y1523750D02*
G03X1866150I-4900J0D01*
G01X2038939Y1507489D02*
X2092850D01*
X2039150Y1506769D02*
X2092850D01*
X2039150Y1506049D02*
X2092850D01*
X2039150Y1505329D02*
X2092850D01*
X2039150Y1504609D02*
X2092850D01*
X2075953Y1503889D02*
X2092850D01*
X2076925Y1503169D02*
X2092850D01*
X2077391Y1502449D02*
X2092850D01*
X2077610Y1501729D02*
X2092850D01*
X2077640Y1501009D02*
X2092850D01*
X2077486Y1500289D02*
X2092850D01*
X2077113Y1499569D02*
X2092850D01*
X2076376Y1498849D02*
X2092850D01*
X2069654Y1498129D02*
X2092699D01*
X2091759Y1495969D02*
X2092457D01*
X2068961Y1497409D02*
X2092426D01*
X2030994Y1496689D02*
X2092351D01*
X2031142Y1495969D02*
X2089741D01*
X2086647Y1508209D02*
X2089226D01*
X2031106Y1495249D02*
X2088649D01*
X2087507Y1508929D02*
X2088506D01*
X2030880Y1494529D02*
X2088147D01*
X1972650Y1492369D02*
X2087987D01*
X2030404Y1493809D02*
X2087904D01*
X2029402Y1493089D02*
X2087854D01*
X1978457Y1508209D02*
X2083853D01*
X2039121Y1513249D02*
X2083778D01*
X2065540Y1513969D02*
X2083466D01*
X1978632Y1508929D02*
X2082993D01*
X2038977Y1512529D02*
X2082960D01*
X2044014Y1520449D02*
X2082850D01*
X2043294Y1519729D02*
X2082850D01*
X2064644Y1519009D02*
X2082850D01*
X2065812Y1518289D02*
X2082850D01*
X2066333Y1517569D02*
X2082850D01*
X2066588Y1516849D02*
X2082850D01*
X2066647Y1516129D02*
X2082850D01*
X2066525Y1515409D02*
X2082850D01*
X2066194Y1514689D02*
X2082850D01*
X2036344Y1509649D02*
X2082567D01*
X2038699Y1511809D02*
X2082550D01*
X2037566Y1510369D02*
X2082375D01*
X2038254Y1511089D02*
X2082370D01*
X2071953Y1503889D02*
X2073547D01*
X2072376Y1498849D02*
X2073124D01*
X2064953Y1503889D02*
X2069547D01*
X2065925Y1503169D02*
X2068575D01*
X2030629Y1497409D02*
X2065539D01*
X2029909Y1498129D02*
X2064846D01*
X2042574Y1519009D02*
X2062856D01*
X2039150Y1503889D02*
X2062547D01*
X2024399Y1498849D02*
X2062124D01*
X2039145Y1513969D02*
X2061960D01*
X2041854Y1518289D02*
X2061688D01*
X2039150Y1503169D02*
X2061575D01*
X2038501Y1499569D02*
X2061387D01*
X2039049Y1514689D02*
X2061306D01*
X2041134Y1517569D02*
X2061167D01*
X2039150Y1502449D02*
X2061109D01*
X2039072Y1500289D02*
X2061014D01*
X2038825Y1515409D02*
X2060975D01*
X2037874Y1516849D02*
X2060912D01*
X2039150Y1501729D02*
X2060890D01*
X2039150Y1501009D02*
X2060860D01*
X2038452Y1516129D02*
X2060853D01*
X2030650Y1509649D02*
X2033156D01*
X2030650Y1510369D02*
X2031934D01*
X2030650Y1511089D02*
X2031246D01*
X2024340Y1499569D02*
X2030999D01*
X2030650Y1511809D02*
X2030801D01*
X1978054Y1507489D02*
X2030561D01*
X2024186Y1500289D02*
X2030428D01*
X1977251Y1506769D02*
X2030350D01*
X1972650Y1506049D02*
X2030350D01*
X1972650Y1505329D02*
X2030350D01*
X1972650Y1504609D02*
X2030350D01*
X2021099Y1503889D02*
X2030350D01*
X2022271Y1503169D02*
X2030350D01*
X2023021Y1502449D02*
X2030350D01*
X2023551Y1501729D02*
X2030350D01*
X2023929Y1501009D02*
X2030350D01*
X1972650Y1493089D02*
X2027098D01*
X2024366Y1498129D02*
X2026591D01*
X2021490Y1493809D02*
X2026096D01*
X2024239Y1497409D02*
X2025871D01*
X2022505Y1494529D02*
X2025620D01*
X2024011Y1496689D02*
X2025506D01*
X2023184Y1495249D02*
X2025394D01*
X2023668Y1495969D02*
X2025358D01*
X1972650Y1503889D02*
X2016401D01*
X1972650Y1493809D02*
X2016010D01*
X1972650Y1503169D02*
X2015229D01*
X1972650Y1494529D02*
X2014995D01*
X1972650Y1502449D02*
X2014479D01*
X1972650Y1495249D02*
X2014316D01*
X1972650Y1501729D02*
X2013949D01*
X1972650Y1495969D02*
X2013832D01*
X1972650Y1501009D02*
X2013571D01*
X1972650Y1496689D02*
X2013489D01*
X1972650Y1500289D02*
X2013314D01*
X1972650Y1497409D02*
X2013261D01*
X1972650Y1499569D02*
X2013160D01*
X1972650Y1498129D02*
X2013134D01*
X1972650Y1498849D02*
X2013101D01*
X1978622Y1509649D02*
X1998286D01*
X1978426Y1510369D02*
X1997566D01*
X1977993Y1511089D02*
X1996846D01*
X1977115Y1511809D02*
X1996126D01*
X1972650Y1512529D02*
X1995406D01*
X1972650Y1513249D02*
X1994686D01*
X1972650Y1513969D02*
X1993966D01*
X1972650Y1514689D02*
X1993246D01*
X1972650Y1515409D02*
X1992526D01*
X1972650Y1516129D02*
X1991806D01*
X1972650Y1516849D02*
X1991086D01*
X1972650Y1517569D02*
X1990366D01*
X1972650Y1518289D02*
X1989646D01*
X1972650Y1519009D02*
X1988926D01*
X1972650Y1519729D02*
X1988206D01*
X1972650Y1520449D02*
X1987486D01*
X1972650Y1521169D02*
X1986766D01*
X1972650Y1521889D02*
X1986046D01*
X1972650Y1522609D02*
X1985326D01*
X1972650Y1523329D02*
X1984606D01*
X1972650Y1524049D02*
X1983886D01*
X1972650Y1550689D02*
X1983850D01*
X1972650Y1549969D02*
X1983850D01*
X1972650Y1549249D02*
X1983850D01*
X1972650Y1548529D02*
X1983850D01*
X1972650Y1547809D02*
X1983850D01*
X1972650Y1547089D02*
X1983850D01*
X1972650Y1546369D02*
X1983850D01*
X1972650Y1545649D02*
X1983850D01*
X1972650Y1544929D02*
X1983850D01*
X1972650Y1544209D02*
X1983850D01*
X1972650Y1543489D02*
X1983850D01*
X1972650Y1542769D02*
X1983850D01*
X1972650Y1542049D02*
X1983850D01*
X1972650Y1541329D02*
X1983850D01*
X1982238Y1540609D02*
X1983850D01*
X1983709Y1539889D02*
X1983850D01*
X1983661Y1535569D02*
X1983850D01*
X1972650Y1534849D02*
X1983850D01*
X1972650Y1534129D02*
X1983850D01*
X1972650Y1533409D02*
X1983850D01*
X1972650Y1532689D02*
X1983850D01*
X1972650Y1531969D02*
X1983850D01*
X1972650Y1531249D02*
X1983850D01*
X1972650Y1530529D02*
X1983850D01*
X1972650Y1529809D02*
X1983850D01*
X1972650Y1529089D02*
X1983850D01*
X1972650Y1528369D02*
X1983850D01*
X1972650Y1527649D02*
X1983850D01*
X1972650Y1526929D02*
X1983850D01*
X1972650Y1526209D02*
X1983850D01*
X1972650Y1525489D02*
X1983850D01*
X1972650Y1524769D02*
X1983850D01*
X1972650Y1540609D02*
X1981262D01*
X1972650Y1535569D02*
X1979839D01*
X1972650Y1539889D02*
X1979791D01*
X1972650Y1536289D02*
X1979245D01*
X1972650Y1539169D02*
X1979221D01*
X1972650Y1537009D02*
X1978946D01*
X1972650Y1538449D02*
X1978935D01*
X1972650Y1537729D02*
X1978850D01*
X1972650Y1511809D02*
X1974385D01*
X1972650Y1506769D02*
X1974249D01*
X1972650Y1511089D02*
X1973507D01*
X1972650Y1507489D02*
X1973446D01*
X1972650Y1510369D02*
X1973074D01*
X1972650Y1508209D02*
X1973043D01*
X1972650Y1509649D02*
X1972878D01*
X1972650Y1508929D02*
X1972868D01*
X2000650Y1565429D02*
X2041850D01*
X2000650Y1564709D02*
X2041850D01*
X2000650Y1563989D02*
X2041850D01*
X2000650Y1563269D02*
X2041850D01*
X2000650Y1562549D02*
X2041850D01*
X2000650Y1561829D02*
X2041850D01*
X2000650Y1561109D02*
X2041850D01*
X2000650Y1560389D02*
X2041850D01*
X2000650Y1559669D02*
X2041850D01*
X2000650Y1558949D02*
X2041850D01*
X2000650Y1558229D02*
X2041850D01*
X2000650Y1557509D02*
X2041850D01*
X2000650Y1556789D02*
X2041850D01*
X2000650Y1556069D02*
X2041850D01*
X2000650Y1555349D02*
X2041850D01*
X2000650Y1554629D02*
X2041850D01*
X2000650Y1553909D02*
X2041850D01*
X2000650Y1553189D02*
X2041850D01*
X2000650Y1552469D02*
X2041850D01*
X2000650Y1551749D02*
X2041850D01*
X2024544Y1551029D02*
X2041850D01*
X2025196Y1550309D02*
X2041850D01*
X2025526Y1549589D02*
X2041850D01*
X2025648Y1548869D02*
X2041850D01*
X2025587Y1548149D02*
X2041850D01*
X2025332Y1547429D02*
X2041850D01*
X2024810Y1546709D02*
X2041850D01*
X2023636Y1545989D02*
X2041850D01*
X2000650Y1545269D02*
X2041850D01*
X2000650Y1544549D02*
X2041850D01*
X2000650Y1543829D02*
X2041763D01*
X2000650Y1543109D02*
X2041043D01*
X2000650Y1542389D02*
X2040323D01*
X2000650Y1541669D02*
X2039603D01*
X2000650Y1540949D02*
X2038883D01*
X2000650Y1540229D02*
X2038163D01*
X2000650Y1539509D02*
X2037443D01*
X2000650Y1538789D02*
X2036723D01*
X2000650Y1538069D02*
X2036003D01*
X2000650Y1537349D02*
X2035283D01*
X2000650Y1536629D02*
X2034563D01*
X2000650Y1535909D02*
X2033843D01*
X2000650Y1535189D02*
X2033123D01*
X2000650Y1534469D02*
X2032403D01*
X2000650Y1533749D02*
X2031683D01*
X2000650Y1533029D02*
X2030963D01*
X2000650Y1532309D02*
X2030243D01*
X2000650Y1531589D02*
X2029523D01*
X2000650Y1530869D02*
X2028803D01*
X2000650Y1530149D02*
X2028083D01*
X2000650Y1529429D02*
X2027363D01*
X2000650Y1528709D02*
X2027350D01*
X2000650Y1527989D02*
X2027350D01*
X2000650Y1527269D02*
X2027350D01*
X2000650Y1526549D02*
X2027350D01*
X2000650Y1525829D02*
X2027350D01*
X2000650Y1525109D02*
X2027350D01*
X2000650Y1524389D02*
X2027350D01*
X2000650Y1523669D02*
X2027350D01*
X2000650Y1522949D02*
X2027350D01*
X2000650Y1522229D02*
X2027350D01*
X2000650Y1521509D02*
X2027350D01*
X2000650Y1520789D02*
X2027350D01*
X2000650Y1520069D02*
X2027350D01*
X2000650Y1519349D02*
X2027350D01*
X2000650Y1518629D02*
X2027350D01*
X2000650Y1517909D02*
X2027350D01*
X2000650Y1517189D02*
X2027350D01*
X2000650Y1516469D02*
X2027350D01*
X2000650Y1515749D02*
X2027350D01*
X2000650Y1515029D02*
X2027350D01*
X2000650Y1514309D02*
X2027350D01*
X2000650Y1513589D02*
X2027350D01*
X2000650Y1512869D02*
X2027350D01*
X2000650Y1545989D02*
X2021864D01*
X2000650Y1551029D02*
X2020956D01*
X2000650Y1546709D02*
X2020690D01*
X2000650Y1550309D02*
X2020304D01*
X2000650Y1547429D02*
X2020168D01*
X2000650Y1549589D02*
X2019974D01*
X2000650Y1548149D02*
X2019913D01*
X2000650Y1548869D02*
X2019852D01*
X2044650Y1565809D02*
X2163350D01*
X2044650Y1565089D02*
X2163350D01*
X2044650Y1564369D02*
X2163350D01*
X2044650Y1563649D02*
X2163350D01*
X2044650Y1562929D02*
X2163350D01*
X2075288Y1562209D02*
X2163350D01*
X2076071Y1561489D02*
X2163350D01*
X2076465Y1560769D02*
X2163350D01*
X2076635Y1560049D02*
X2163350D01*
X2076619Y1559329D02*
X2163350D01*
X2076416Y1558609D02*
X2163350D01*
X2075974Y1557889D02*
X2163350D01*
X2075072Y1557169D02*
X2163350D01*
X2044650Y1556449D02*
X2163350D01*
X2044650Y1555729D02*
X2163350D01*
X2044650Y1555009D02*
X2163350D01*
X2044650Y1554289D02*
X2163350D01*
X2044650Y1553569D02*
X2163350D01*
X2044650Y1552849D02*
X2163350D01*
X2044650Y1552129D02*
X2163350D01*
X2044650Y1551409D02*
X2163350D01*
X2044650Y1550689D02*
X2163350D01*
X2044650Y1549969D02*
X2163350D01*
X2044650Y1549249D02*
X2163350D01*
X2044650Y1548529D02*
X2163350D01*
X2044650Y1547809D02*
X2163350D01*
X2097843Y1547089D02*
X2163350D01*
X2099230Y1546369D02*
X2163350D01*
X2102880Y1545649D02*
X2163350D01*
X2103615Y1544929D02*
X2163350D01*
X2103987Y1544209D02*
X2163350D01*
X2104140Y1543489D02*
X2163350D01*
X2104110Y1542769D02*
X2163350D01*
X2103890Y1542049D02*
X2163350D01*
X2103422Y1541329D02*
X2163350D01*
X2102447Y1540609D02*
X2163350D01*
X2101377Y1539889D02*
X2163350D01*
X2101191Y1539169D02*
X2163350D01*
X2100773Y1538449D02*
X2163350D01*
X2099933Y1537729D02*
X2163350D01*
X2044650Y1537009D02*
X2163350D01*
X2044650Y1536289D02*
X2163350D01*
X2044650Y1535569D02*
X2163350D01*
X2044650Y1534849D02*
X2163350D01*
X2044650Y1534129D02*
X2163350D01*
X2044650Y1533409D02*
X2163350D01*
X2134711Y1532689D02*
X2163350D01*
X2135750Y1531969D02*
X2163350D01*
X2136372Y1531249D02*
X2163350D01*
X2136774Y1530529D02*
X2163350D01*
X2137021Y1529809D02*
X2163350D01*
X2137137Y1529089D02*
X2163350D01*
X2137133Y1528369D02*
X2163350D01*
X2137010Y1527649D02*
X2163350D01*
X2136755Y1526929D02*
X2163350D01*
X2136342Y1526209D02*
X2163350D01*
X2135704Y1525489D02*
X2163350D01*
X2134623Y1524769D02*
X2163350D01*
X2089018Y1524049D02*
X2163350D01*
X2098150Y1523329D02*
X2163350D01*
X2136856Y1522609D02*
X2163350D01*
X2137143Y1521889D02*
X2163350D01*
X2137150Y1521169D02*
X2163350D01*
X2137150Y1520449D02*
X2163350D01*
X2137150Y1519729D02*
X2163350D01*
X2137150Y1519009D02*
X2163350D01*
X2137150Y1518289D02*
X2163350D01*
X2137150Y1517569D02*
X2163350D01*
X2137150Y1516849D02*
X2163350D01*
X2137150Y1516129D02*
X2163350D01*
X2137108Y1515409D02*
X2163350D01*
X2136663Y1514689D02*
X2163350D01*
X2098150Y1513969D02*
X2163350D01*
X2098150Y1513249D02*
X2163350D01*
X2098150Y1512529D02*
X2163350D01*
X2098150Y1511809D02*
X2163350D01*
X2098150Y1511089D02*
X2163350D01*
X2098150Y1510369D02*
X2163350D01*
X2098150Y1509649D02*
X2163350D01*
X2105361Y1508929D02*
X2163350D01*
X2106389Y1508209D02*
X2163350D01*
X2106872Y1507489D02*
X2163350D01*
X2107103Y1506769D02*
X2163350D01*
X2107143Y1506049D02*
X2163350D01*
X2107000Y1505329D02*
X2163350D01*
X2106641Y1504609D02*
X2163350D01*
X2158599Y1503889D02*
X2163350D01*
X2159771Y1503169D02*
X2163350D01*
X2160521Y1502449D02*
X2163350D01*
X2161051Y1501729D02*
X2163350D01*
X2161429Y1501009D02*
X2163350D01*
X2161686Y1500289D02*
X2163350D01*
X2161840Y1499569D02*
X2163350D01*
X2161899Y1498849D02*
X2163350D01*
X2161866Y1498129D02*
X2163350D01*
X2161739Y1497409D02*
X2163350D01*
X2161511Y1496689D02*
X2163350D01*
X2161168Y1495969D02*
X2163350D01*
X2160684Y1495249D02*
X2163350D01*
X2160005Y1494529D02*
X2163350D01*
X2158990Y1493809D02*
X2163350D01*
X2098150Y1493089D02*
X2163350D01*
X2098150Y1492369D02*
X2163350D01*
X2105934Y1503889D02*
X2153901D01*
X2098150Y1493809D02*
X2153510D01*
X2098150Y1503169D02*
X2152729D01*
X2146434Y1494529D02*
X2152495D01*
X2146963Y1502449D02*
X2151979D01*
X2147057Y1495249D02*
X2151816D01*
X2147150Y1501729D02*
X2151449D01*
X2147150Y1495969D02*
X2151332D01*
X2147150Y1501009D02*
X2151071D01*
X2147150Y1496689D02*
X2150989D01*
X2147150Y1500289D02*
X2150814D01*
X2147150Y1497409D02*
X2150761D01*
X2147150Y1499569D02*
X2150660D01*
X2147150Y1498129D02*
X2150634D01*
X2147150Y1498849D02*
X2150601D01*
X2133991Y1494529D02*
X2139066D01*
X2135133Y1502449D02*
X2138537D01*
X2135415Y1495249D02*
X2138443D01*
X2135988Y1501729D02*
X2138350D01*
X2136526Y1501009D02*
X2138350D01*
X2136872Y1500289D02*
X2138350D01*
X2137073Y1499569D02*
X2138350D01*
X2137149Y1498849D02*
X2138350D01*
X2137106Y1498129D02*
X2138350D01*
X2136941Y1497409D02*
X2138350D01*
X2136637Y1496689D02*
X2138350D01*
X2136159Y1495969D02*
X2138350D01*
X2098150Y1494529D02*
X2131509D01*
X2088479Y1524769D02*
X2130877D01*
X2044650Y1532689D02*
X2130789D01*
X2098150Y1502449D02*
X2130367D01*
X2098150Y1495249D02*
X2130085D01*
X2088638Y1525489D02*
X2129796D01*
X2044650Y1531969D02*
X2129750D01*
X2098150Y1501729D02*
X2129512D01*
X2098150Y1495969D02*
X2129341D01*
X2088614Y1526209D02*
X2129158D01*
X2044650Y1531249D02*
X2129128D01*
X2098150Y1501009D02*
X2128974D01*
X2098150Y1496689D02*
X2128863D01*
X2098150Y1514689D02*
X2128837D01*
X2088400Y1526929D02*
X2128745D01*
X2044650Y1530529D02*
X2128726D01*
X2098150Y1522609D02*
X2128644D01*
X2098150Y1500289D02*
X2128628D01*
X2098150Y1497409D02*
X2128559D01*
X2087942Y1527649D02*
X2128490D01*
X2044650Y1529809D02*
X2128479D01*
X2098150Y1499569D02*
X2128427D01*
X2098150Y1498129D02*
X2128394D01*
X2098150Y1515409D02*
X2128392D01*
X2086996Y1528369D02*
X2128367D01*
X2075343Y1529089D02*
X2128363D01*
X2098150Y1521889D02*
X2128357D01*
X2098150Y1498849D02*
X2128351D01*
X2098150Y1521169D02*
X2128350D01*
X2098150Y1520449D02*
X2128350D01*
X2098150Y1519729D02*
X2128350D01*
X2098150Y1519009D02*
X2128350D01*
X2098150Y1518289D02*
X2128350D01*
X2098150Y1517569D02*
X2128350D01*
X2098150Y1516849D02*
X2128350D01*
X2098150Y1516129D02*
X2128350D01*
X2098150Y1508929D02*
X2103139D01*
X2098150Y1503889D02*
X2102566D01*
X2098150Y1508209D02*
X2102111D01*
X2098150Y1504609D02*
X2101859D01*
X2098150Y1507489D02*
X2101628D01*
X2098150Y1505329D02*
X2101500D01*
X2098150Y1506769D02*
X2101397D01*
X2098150Y1506049D02*
X2101357D01*
X2044650Y1537729D02*
X2097067D01*
X2044650Y1547089D02*
X2096657D01*
X2064500Y1538449D02*
X2096227D01*
X2065769Y1539169D02*
X2095809D01*
X2066649Y1541329D02*
X2095808D01*
X2066311Y1539889D02*
X2095623D01*
X2066578Y1540609D02*
X2095622D01*
X2066538Y1542049D02*
X2095362D01*
X2044650Y1546369D02*
X2095270D01*
X2066221Y1542769D02*
X2094757D01*
X2044650Y1545649D02*
X2094710D01*
X2065593Y1543489D02*
X2094452D01*
X2044650Y1544929D02*
X2094431D01*
X2044650Y1544209D02*
X2094350D01*
X2076730Y1528369D02*
X2084504D01*
X2077290Y1527649D02*
X2083558D01*
X2076638Y1524049D02*
X2083401D01*
X2077569Y1526929D02*
X2083100D01*
X2077243Y1524769D02*
X2083021D01*
X2077650Y1526209D02*
X2082886D01*
X2077548Y1525489D02*
X2082862D01*
X2069465Y1529089D02*
X2074157D01*
X2070156Y1528369D02*
X2072770D01*
X2070572Y1557169D02*
X2072428D01*
X2070788Y1562209D02*
X2072212D01*
X2071337Y1527649D02*
X2072210D01*
X2071475Y1557889D02*
X2071525D01*
X2070507Y1527649D02*
X2071163D01*
X2066072Y1557169D02*
X2067928D01*
X2066288Y1562209D02*
X2067712D01*
X2066975Y1557889D02*
X2067025D01*
X2064343Y1529089D02*
X2066035D01*
X2044650Y1557169D02*
X2063428D01*
X2044650Y1562209D02*
X2063212D01*
X2044650Y1529089D02*
X2063157D01*
X2044650Y1538449D02*
X2063000D01*
X2044650Y1557889D02*
X2062526D01*
X2044650Y1561489D02*
X2062429D01*
X2044650Y1558609D02*
X2062084D01*
X2044650Y1560769D02*
X2062035D01*
X2044650Y1543489D02*
X2061907D01*
X2044650Y1559329D02*
X2061881D01*
X2044650Y1560049D02*
X2061865D01*
X2044650Y1524049D02*
X2061862D01*
X2044650Y1528369D02*
X2061770D01*
X2044650Y1539169D02*
X2061731D01*
X2044650Y1542769D02*
X2061279D01*
X2044650Y1524769D02*
X2061257D01*
X2044650Y1527649D02*
X2061210D01*
X2044650Y1539889D02*
X2061189D01*
X2044650Y1542049D02*
X2060962D01*
X2044650Y1525489D02*
X2060952D01*
X2044650Y1526929D02*
X2060931D01*
X2044650Y1540609D02*
X2060922D01*
X2044650Y1541329D02*
X2060851D01*
X2044650Y1526209D02*
X2060850D01*
X1839150Y1565809D02*
X1924850D01*
X1839150Y1565089D02*
X1924850D01*
X1839150Y1564369D02*
X1924850D01*
X1839150Y1563649D02*
X1924850D01*
X1839150Y1562929D02*
X1924850D01*
X1839150Y1562209D02*
X1924850D01*
X1839150Y1561489D02*
X1924850D01*
X1839150Y1560769D02*
X1924850D01*
X1839150Y1560049D02*
X1924850D01*
X1839150Y1559329D02*
X1924850D01*
X1861885Y1558609D02*
X1924850D01*
X1863873Y1557889D02*
X1924850D01*
X1864760Y1557169D02*
X1924850D01*
X1865340Y1556449D02*
X1924850D01*
X1865733Y1555729D02*
X1924850D01*
X1865986Y1555009D02*
X1924850D01*
X1866120Y1554289D02*
X1924850D01*
X1866147Y1553569D02*
X1924850D01*
X1866066Y1552849D02*
X1924850D01*
X1865874Y1552129D02*
X1924850D01*
X1865554Y1551409D02*
X1924850D01*
X1920819Y1550689D02*
X1924850D01*
X1921586Y1549969D02*
X1924850D01*
X1921973Y1549249D02*
X1924850D01*
X1922137Y1548529D02*
X1924850D01*
X1922116Y1547809D02*
X1924850D01*
X1921907Y1547089D02*
X1924850D01*
X1921457Y1546369D02*
X1924850D01*
X1920532Y1545649D02*
X1924850D01*
X1866006Y1544929D02*
X1924850D01*
X1866129Y1544209D02*
X1924850D01*
X1866143Y1543489D02*
X1924850D01*
X1866051Y1542769D02*
X1924850D01*
X1865845Y1542049D02*
X1924850D01*
X1865510Y1541329D02*
X1924850D01*
X1865011Y1540609D02*
X1924850D01*
X1864267Y1539889D02*
X1924850D01*
X1862988Y1539169D02*
X1924850D01*
X1862640Y1538449D02*
X1924850D01*
X1864110Y1537729D02*
X1924850D01*
X1864909Y1537009D02*
X1924850D01*
X1865441Y1536289D02*
X1924850D01*
X1865800Y1535569D02*
X1924850D01*
X1866025Y1534849D02*
X1924850D01*
X1866135Y1534129D02*
X1924850D01*
X1866138Y1533409D02*
X1924850D01*
X1866034Y1532689D02*
X1924850D01*
X1869259Y1531969D02*
X1924850D01*
X1870351Y1531249D02*
X1924850D01*
X1870853Y1530529D02*
X1924850D01*
X1871096Y1529809D02*
X1924850D01*
X1871146Y1529089D02*
X1924850D01*
X1871496Y1528369D02*
X1924850D01*
X1872442Y1527649D02*
X1924850D01*
X1872900Y1526929D02*
X1924850D01*
X1873114Y1526209D02*
X1924850D01*
X1873138Y1525489D02*
X1924850D01*
X1872979Y1524769D02*
X1924850D01*
X1872599Y1524049D02*
X1924850D01*
X1871846Y1523329D02*
X1924850D01*
X1866015Y1522609D02*
X1924850D01*
X1865783Y1521889D02*
X1924850D01*
X1865415Y1521169D02*
X1924850D01*
X1864871Y1520449D02*
X1924850D01*
X1864050Y1519729D02*
X1924850D01*
X1862487Y1519009D02*
X1924850D01*
X1839150Y1518289D02*
X1924850D01*
X1839150Y1517569D02*
X1924850D01*
X1839150Y1516849D02*
X1924850D01*
X1839150Y1516129D02*
X1924850D01*
X1839150Y1515409D02*
X1924850D01*
X1891211Y1514689D02*
X1924850D01*
X1892250Y1513969D02*
X1924850D01*
X1892872Y1513249D02*
X1924850D01*
X1893274Y1512529D02*
X1924850D01*
X1923115Y1511809D02*
X1924850D01*
X1923993Y1511089D02*
X1924850D01*
X1924426Y1510369D02*
X1924850D01*
X1924622Y1509649D02*
X1924850D01*
X1924632Y1508929D02*
X1924850D01*
X1924457Y1508209D02*
X1924850D01*
X1924054Y1507489D02*
X1924850D01*
X1923251Y1506769D02*
X1924850D01*
X1872010Y1506049D02*
X1924850D01*
X1873272Y1505329D02*
X1924850D01*
X1873812Y1504609D02*
X1924850D01*
X1874079Y1503889D02*
X1924850D01*
X1874149Y1503169D02*
X1924850D01*
X1874037Y1502449D02*
X1924850D01*
X1873719Y1501729D02*
X1924850D01*
X1873090Y1501009D02*
X1924850D01*
X1864718Y1500289D02*
X1924850D01*
X1863805Y1499569D02*
X1924850D01*
X1839150Y1498849D02*
X1924850D01*
X1839150Y1498129D02*
X1924850D01*
X1839150Y1497409D02*
X1924850D01*
X1839150Y1496689D02*
X1924850D01*
X1839150Y1495969D02*
X1924850D01*
X1839150Y1495249D02*
X1924850D01*
X1839150Y1494529D02*
X1924850D01*
X1839150Y1493809D02*
X1924850D01*
X1839150Y1493089D02*
X1924850D01*
X1839150Y1492369D02*
X1924850D01*
X1893521Y1511809D02*
X1920385D01*
X1891123Y1506769D02*
X1920249D01*
X1893637Y1511089D02*
X1919507D01*
X1892204Y1507489D02*
X1919446D01*
X1893633Y1510369D02*
X1919074D01*
X1892842Y1508209D02*
X1919043D01*
X1893510Y1509649D02*
X1918878D01*
X1893255Y1508929D02*
X1918868D01*
X1865767Y1545649D02*
X1917968D01*
X1865076Y1550689D02*
X1917681D01*
X1865392Y1546369D02*
X1917043D01*
X1864366Y1549969D02*
X1916914D01*
X1864837Y1547089D02*
X1916593D01*
X1863186Y1549249D02*
X1916527D01*
X1863995Y1547809D02*
X1916384D01*
X1862334Y1548529D02*
X1916363D01*
X1883249Y1506769D02*
X1887377D01*
X1883289Y1514689D02*
X1887289D01*
X1883625Y1507489D02*
X1886296D01*
X1883633Y1513969D02*
X1886250D01*
X1883650Y1508209D02*
X1885658D01*
X1883650Y1513249D02*
X1885628D01*
X1883650Y1508929D02*
X1885245D01*
X1883650Y1512529D02*
X1885226D01*
X1883650Y1509649D02*
X1884990D01*
X1883650Y1511809D02*
X1884979D01*
X1883650Y1510369D02*
X1884867D01*
X1883650Y1511089D02*
X1884863D01*
X1865110Y1506769D02*
X1875251D01*
X1839150Y1514689D02*
X1875211D01*
X1864417Y1507489D02*
X1874875D01*
X1839150Y1513969D02*
X1874867D01*
X1839150Y1513249D02*
X1874850D01*
X1839150Y1512529D02*
X1874850D01*
X1839150Y1511809D02*
X1874850D01*
X1839150Y1511089D02*
X1874850D01*
X1839150Y1510369D02*
X1874850D01*
X1839150Y1509649D02*
X1874850D01*
X1839150Y1508929D02*
X1874850D01*
X1863282Y1508209D02*
X1874850D01*
X1865577Y1506049D02*
X1870490D01*
X1865311Y1501009D02*
X1869410D01*
X1865889Y1505329D02*
X1869228D01*
X1865714Y1501729D02*
X1868781D01*
X1866074Y1504609D02*
X1868688D01*
X1866132Y1523329D02*
X1868654D01*
X1865974Y1502449D02*
X1868463D01*
X1866148Y1503889D02*
X1868421D01*
X1866115Y1503169D02*
X1868351D01*
X1866141Y1524049D02*
X1867901D01*
X1866043Y1524769D02*
X1867521D01*
X1865489Y1526209D02*
X1867386D01*
X1865831Y1525489D02*
X1867362D01*
X1865815Y1531969D02*
X1867241D01*
X1864979Y1526929D02*
X1866512D01*
X1865464Y1531249D02*
X1866149D01*
X1864218Y1527649D02*
X1865832D01*
X1864942Y1530529D02*
X1865647D01*
X1862886Y1528369D02*
X1865487D01*
X1864161Y1529809D02*
X1865404D01*
X1862761Y1529089D02*
X1865354D01*
X1851885Y1558609D02*
X1860615D01*
X1852334Y1548529D02*
X1860166D01*
X1852487Y1519009D02*
X1860013D01*
X1852640Y1538449D02*
X1859860D01*
X1852761Y1529089D02*
X1859739D01*
X1852886Y1528369D02*
X1859614D01*
X1852988Y1539169D02*
X1859512D01*
X1853186Y1549249D02*
X1859314D01*
X1853282Y1508209D02*
X1859218D01*
X1853805Y1499569D02*
X1858695D01*
X1853873Y1557889D02*
X1858627D01*
X1853995Y1547809D02*
X1858505D01*
X1854050Y1519729D02*
X1858450D01*
X1854110Y1537729D02*
X1858390D01*
X1854161Y1529809D02*
X1858339D01*
X1854218Y1527649D02*
X1858282D01*
X1854267Y1539889D02*
X1858233D01*
X1854366Y1549969D02*
X1858134D01*
X1854417Y1507489D02*
X1858083D01*
X1854718Y1500289D02*
X1857782D01*
X1854760Y1557169D02*
X1857740D01*
X1854837Y1547089D02*
X1857663D01*
X1854871Y1520449D02*
X1857629D01*
X1854909Y1537009D02*
X1857591D01*
X1854942Y1530529D02*
X1857558D01*
X1854979Y1526929D02*
X1857521D01*
X1855011Y1540609D02*
X1857489D01*
X1855076Y1550689D02*
X1857424D01*
X1855110Y1506769D02*
X1857390D01*
X1855311Y1501009D02*
X1857189D01*
X1855340Y1556449D02*
X1857160D01*
X1855392Y1546369D02*
X1857108D01*
X1855415Y1521169D02*
X1857085D01*
X1855441Y1536289D02*
X1857059D01*
X1855464Y1531249D02*
X1857036D01*
X1855489Y1526209D02*
X1857011D01*
X1855510Y1541329D02*
X1856990D01*
X1855554Y1551409D02*
X1856946D01*
X1855577Y1506049D02*
X1856923D01*
X1855714Y1501729D02*
X1856786D01*
X1855733Y1555729D02*
X1856767D01*
X1855767Y1545649D02*
X1856733D01*
X1855783Y1521889D02*
X1856717D01*
X1855800Y1535569D02*
X1856700D01*
X1855815Y1531969D02*
X1856685D01*
X1855831Y1525489D02*
X1856669D01*
X1855845Y1542049D02*
X1856655D01*
X1855874Y1552129D02*
X1856626D01*
X1855889Y1505329D02*
X1856611D01*
X1855974Y1502449D02*
X1856526D01*
X1855986Y1555009D02*
X1856514D01*
X1856006Y1544929D02*
X1856494D01*
X1856015Y1522609D02*
X1856485D01*
X1856025Y1534849D02*
X1856475D01*
X1856034Y1532689D02*
X1856466D01*
X1856043Y1524769D02*
X1856457D01*
X1856051Y1542769D02*
X1856449D01*
X1856066Y1552849D02*
X1856434D01*
X1856074Y1504609D02*
X1856426D01*
X1856115Y1503169D02*
X1856385D01*
X1856120Y1554289D02*
X1856380D01*
X1856129Y1544209D02*
X1856371D01*
X1856132Y1523329D02*
X1856368D01*
X1856135Y1534129D02*
X1856365D01*
X1856138Y1533409D02*
X1856362D01*
X1856141Y1524049D02*
X1856359D01*
X1856143Y1543489D02*
X1856357D01*
X1856147Y1553569D02*
X1856353D01*
X1856148Y1503889D02*
X1856352D01*
X1839150Y1558609D02*
X1850615D01*
X1839150Y1548529D02*
X1850166D01*
X1839150Y1519009D02*
X1850013D01*
X1839150Y1538449D02*
X1849860D01*
X1839150Y1529089D02*
X1849739D01*
X1839150Y1528369D02*
X1849614D01*
X1839150Y1539169D02*
X1849512D01*
X1839150Y1549249D02*
X1849314D01*
X1839150Y1508209D02*
X1849218D01*
X1839150Y1499569D02*
X1848695D01*
X1839150Y1557889D02*
X1848627D01*
X1839150Y1547809D02*
X1848505D01*
X1839150Y1519729D02*
X1848450D01*
X1839150Y1537729D02*
X1848390D01*
X1839150Y1529809D02*
X1848339D01*
X1839150Y1527649D02*
X1848282D01*
X1839150Y1539889D02*
X1848233D01*
X1839150Y1549969D02*
X1848134D01*
X1839150Y1507489D02*
X1848083D01*
X1839150Y1500289D02*
X1847782D01*
X1839150Y1557169D02*
X1847740D01*
X1839150Y1547089D02*
X1847663D01*
X1839150Y1520449D02*
X1847629D01*
X1839150Y1537009D02*
X1847591D01*
X1839150Y1530529D02*
X1847558D01*
X1839150Y1526929D02*
X1847521D01*
X1839150Y1540609D02*
X1847489D01*
X1839150Y1550689D02*
X1847424D01*
X1839150Y1506769D02*
X1847390D01*
X1839150Y1501009D02*
X1847189D01*
X1839150Y1556449D02*
X1847160D01*
X1839150Y1546369D02*
X1847108D01*
X1839150Y1521169D02*
X1847085D01*
X1839150Y1536289D02*
X1847059D01*
X1839150Y1531249D02*
X1847036D01*
X1839150Y1526209D02*
X1847011D01*
X1839150Y1541329D02*
X1846990D01*
X1839150Y1551409D02*
X1846946D01*
X1839150Y1506049D02*
X1846923D01*
X1839150Y1501729D02*
X1846786D01*
X1839150Y1555729D02*
X1846767D01*
X1839150Y1545649D02*
X1846733D01*
X1839150Y1521889D02*
X1846717D01*
X1839150Y1535569D02*
X1846700D01*
X1839150Y1531969D02*
X1846685D01*
X1839150Y1525489D02*
X1846669D01*
X1839150Y1542049D02*
X1846655D01*
X1839150Y1552129D02*
X1846626D01*
X1839150Y1505329D02*
X1846611D01*
X1839150Y1502449D02*
X1846526D01*
X1839150Y1555009D02*
X1846514D01*
X1839150Y1544929D02*
X1846494D01*
X1839150Y1522609D02*
X1846485D01*
X1839150Y1534849D02*
X1846475D01*
X1839150Y1532689D02*
X1846466D01*
X1839150Y1524769D02*
X1846457D01*
X1839150Y1542769D02*
X1846449D01*
X1839150Y1552849D02*
X1846434D01*
X1839150Y1504609D02*
X1846426D01*
X1839150Y1503169D02*
X1846385D01*
X1839150Y1554289D02*
X1846380D01*
X1839150Y1544209D02*
X1846371D01*
X1839150Y1523329D02*
X1846368D01*
X1839150Y1534129D02*
X1846365D01*
X1839150Y1533409D02*
X1846362D01*
X1839150Y1524049D02*
X1846359D01*
X1839150Y1543489D02*
X1846357D01*
X1839150Y1553569D02*
X1846353D01*
X1839150Y1503889D02*
X1846352D01*
G54D235*
X1953750Y1643750D02*
X1955766D01*
X1952675Y1643840D02*
X1956752D01*
X1952048Y1643929D02*
X1957468D01*
X1951511Y1644019D02*
X1957916D01*
X1951063Y1644108D02*
X1958362D01*
X1950704Y1644198D02*
X1958812D01*
X1950346Y1644287D02*
X1959170D01*
X1949988Y1644377D02*
X1959439D01*
X1949719Y1644467D02*
X1959797D01*
X1949361Y1644556D02*
X1960066D01*
X1949092Y1644646D02*
X1960335D01*
X1948913Y1644735D02*
X1960604D01*
X1948644Y1644825D02*
X1960783D01*
X1948375Y1644915D02*
X1961052D01*
X1948196Y1645004D02*
X1961320D01*
X1947927Y1645094D02*
X1961499D01*
X1947748Y1645183D02*
X1961679D01*
X1947569Y1645273D02*
X1961858D01*
X1947390Y1645362D02*
X1962126D01*
X1947211Y1645452D02*
X1962306D01*
X1947032Y1645542D02*
X1962485D01*
X1946852Y1645631D02*
X1962662D01*
X1946673Y1645721D02*
X1962841D01*
X1946494Y1645810D02*
X1962931D01*
X1946315Y1645900D02*
X1963110D01*
X1946136Y1645989D02*
X1963289D01*
X1946046Y1646079D02*
X1963468D01*
X2010632D02*
X2012290D01*
X1945867Y1646169D02*
X1963558D01*
X2010005D02*
X2013007D01*
X1945688Y1646258D02*
X1963737D01*
X2009557D02*
X2013365D01*
X1945598Y1646348D02*
X1963918D01*
X2009288D02*
X2013723D01*
X1945419Y1646437D02*
X1964008D01*
X2009020D02*
X2013903D01*
X1945330Y1646527D02*
X1964187D01*
X2008751D02*
X2014171D01*
X1945150Y1646617D02*
X1964276D01*
X2008572D02*
X2014351D01*
X1945061Y1646706D02*
X1964456D01*
X2008482D02*
X2014530D01*
X1944882Y1646796D02*
X1964545D01*
X2008303D02*
X2014619D01*
X1944792Y1646885D02*
X1964724D01*
X2008214D02*
X2014798D01*
X1944613Y1646975D02*
X1964814D01*
X2008124D02*
X2014888D01*
X1944523Y1647064D02*
X1964903D01*
X2008034D02*
X2014978D01*
X1944434Y1647154D02*
X1965083D01*
X2007945D02*
X2015067D01*
X1944255Y1647244D02*
X1965172D01*
X2007855D02*
X2015157D01*
X1944165Y1647333D02*
X1965262D01*
X2007766D02*
X2010767D01*
X2012424D02*
X2015246D01*
X1944076Y1647423D02*
X1965441D01*
X2007766D02*
X2010320D01*
X2012872D02*
X2015336D01*
X1943896Y1647512D02*
X1965530D01*
X2007676D02*
X2009961D01*
X2013140D02*
X2015425D01*
X1943807Y1647602D02*
X1965620D01*
X2007676D02*
X2009782D01*
X2013409D02*
X2015425D01*
X1943717Y1647691D02*
X1965710D01*
X2007586D02*
X2009603D01*
X2013588D02*
X2015515D01*
X1943628Y1647781D02*
X1965889D01*
X2007586D02*
X2009424D01*
X2013678D02*
X2015515D01*
X1943538Y1647871D02*
X1965978D01*
X2007586D02*
X2009334D01*
X2013857D02*
X2015605D01*
X1943359Y1647960D02*
X1966068D01*
X2007497D02*
X2009245D01*
X2013947D02*
X2015605D01*
X1943269Y1648050D02*
X1966157D01*
X2007497D02*
X2009245D01*
X2014036D02*
X2015605D01*
X1943180Y1648139D02*
X1966247D01*
X2007497D02*
X2009155D01*
X2014036D02*
X2015694D01*
X1943090Y1648229D02*
X1966337D01*
X2007497D02*
X2009155D01*
X2014126D02*
X2015694D01*
X1943001Y1648318D02*
X1966426D01*
X2007497D02*
X2009065D01*
X2014126D02*
X2015694D01*
X1942911Y1648408D02*
X1966516D01*
X2007497D02*
X2009065D01*
X2014126D02*
X2015694D01*
X1942821Y1648498D02*
X1966605D01*
X2007497D02*
X2009065D01*
X2014215D02*
X2015694D01*
X1942732Y1648587D02*
X1966785D01*
X2007497D02*
X2009065D01*
X2014215D02*
X2015694D01*
X1942642Y1648677D02*
X1966874D01*
X2007586D02*
X2009155D01*
X2014126D02*
X2015694D01*
X1942553Y1648766D02*
X1966964D01*
X2007586D02*
X2009155D01*
X2014126D02*
X2015694D01*
X1942463Y1648856D02*
X1967053D01*
X2007586D02*
X2009155D01*
X2014126D02*
X2015694D01*
X1942374Y1648946D02*
X1967143D01*
X2007586D02*
X2009245D01*
X2014036D02*
X2015694D01*
X1942284Y1649035D02*
X1967143D01*
X2007676D02*
X2009334D01*
X2013947D02*
X2015694D01*
X1942194Y1649125D02*
X1967232D01*
X2007676D02*
X2009334D01*
X2013857D02*
X2015694D01*
X1942105Y1649214D02*
X1967322D01*
X1996120D02*
X1997958D01*
X2002122D02*
X2004228D01*
X2007766D02*
X2009424D01*
X2013678D02*
X2015694D01*
X2024069D02*
X2025725D01*
X2033922D02*
X2035670D01*
X2039924D02*
X2041941D01*
X2048255D02*
X2049823D01*
X1942015Y1649304D02*
X1967412D01*
X1995762D02*
X1998316D01*
X2001764D02*
X2004586D01*
X2007766D02*
X2009513D01*
X2013499D02*
X2015694D01*
X2023711D02*
X2026083D01*
X2033564D02*
X2036028D01*
X2039566D02*
X2042388D01*
X2047897D02*
X2050182D01*
X1941926Y1649393D02*
X1967501D01*
X1980534D02*
X1982192D01*
X1984565D02*
X1986223D01*
X1989940D02*
X1991596D01*
X1995493D02*
X1998316D01*
X2001495D02*
X2004945D01*
X2007855D02*
X2009603D01*
X2013319D02*
X2015605D01*
X2017261D02*
X2018919D01*
X2023531D02*
X2026352D01*
X2028010D02*
X2029308D01*
X2033295D02*
X2036028D01*
X2039297D02*
X2042657D01*
X2047717D02*
X2050361D01*
X2052017D02*
X2053317D01*
X1941836Y1649483D02*
X1967591D01*
X1980534D02*
X1982192D01*
X1984565D02*
X1986223D01*
X1989940D02*
X1991596D01*
X1995314D02*
X1998316D01*
X2001316D02*
X2005214D01*
X2007945D02*
X2009782D01*
X2012961D02*
X2015605D01*
X2017261D02*
X2018919D01*
X2023352D02*
X2026531D01*
X2028010D02*
X2029308D01*
X2033116D02*
X2036028D01*
X2039028D02*
X2042926D01*
X2047538D02*
X2050540D01*
X2052017D02*
X2053317D01*
X1941747Y1649573D02*
X1967680D01*
X1980534D02*
X1982192D01*
X1984565D02*
X1986223D01*
X1989940D02*
X1991596D01*
X1995225D02*
X1998226D01*
X2001137D02*
X2005393D01*
X2008034D02*
X2009872D01*
X2012603D02*
X2015515D01*
X2017261D02*
X2018919D01*
X2023263D02*
X2026710D01*
X2028010D02*
X2029308D01*
X2032937D02*
X2036028D01*
X2038849D02*
X2043195D01*
X2047359D02*
X2050719D01*
X2051928D02*
X2053317D01*
X1941657Y1649662D02*
X1967770D01*
X1980534D02*
X1982192D01*
X1984565D02*
X1986223D01*
X1989940D02*
X1991596D01*
X1995046D02*
X1998226D01*
X2000958D02*
X2005572D01*
X2008124D02*
X2009961D01*
X2012065D02*
X2015515D01*
X2017261D02*
X2018919D01*
X2023083D02*
X2026890D01*
X2027921D02*
X2029308D01*
X2032847D02*
X2036028D01*
X2038760D02*
X2043374D01*
X2047180D02*
X2050898D01*
X2051928D02*
X2053317D01*
X1941657Y1649752D02*
X1967859D01*
X1980534D02*
X1982192D01*
X1984565D02*
X1986223D01*
X1989940D02*
X1991596D01*
X1994956D02*
X1998226D01*
X2000779D02*
X2005751D01*
X2008214D02*
X2010140D01*
X2011528D02*
X2015425D01*
X2017261D02*
X2018919D01*
X2022994D02*
X2027069D01*
X2027921D02*
X2029308D01*
X2032758D02*
X2036028D01*
X2038580D02*
X2043553D01*
X2047090D02*
X2050988D01*
X2051928D02*
X2053317D01*
X1941567Y1649841D02*
X1967949D01*
X1980534D02*
X1982192D01*
X1984565D02*
X1986223D01*
X1989940D02*
X1991596D01*
X1994866D02*
X1998226D01*
X2000689D02*
X2005930D01*
X2008303D02*
X2010320D01*
X2011080D02*
X2015425D01*
X2017261D02*
X2018919D01*
X2022904D02*
X2027158D01*
X2027921D02*
X2029308D01*
X2032668D02*
X2035939D01*
X2038491D02*
X2043732D01*
X2047001D02*
X2051167D01*
X2051928D02*
X2053317D01*
X1941478Y1649931D02*
X1967949D01*
X1980534D02*
X1982192D01*
X1984565D02*
X1986223D01*
X1989940D02*
X1991596D01*
X1994777D02*
X1998226D01*
X2000599D02*
X2006109D01*
X2008393D02*
X2010499D01*
X2010632D02*
X2015336D01*
X2017261D02*
X2018919D01*
X2022815D02*
X2027248D01*
X2027921D02*
X2029308D01*
X2032579D02*
X2035939D01*
X2038312D02*
X2043822D01*
X2046911D02*
X2051257D01*
X2051928D02*
X2053317D01*
X1941388Y1650020D02*
X1968039D01*
X1980534D02*
X1982192D01*
X1984565D02*
X1986223D01*
X1989940D02*
X1991596D01*
X1994777D02*
X1998226D01*
X2000510D02*
X2006199D01*
X2008482D02*
X2015246D01*
X2017261D02*
X2018919D01*
X2022725D02*
X2027427D01*
X2027921D02*
X2029308D01*
X2032489D02*
X2035939D01*
X2038222D02*
X2044001D01*
X2046822D02*
X2051346D01*
X2051928D02*
X2053317D01*
X1941299Y1650110D02*
X1968128D01*
X1980534D02*
X1982192D01*
X1984565D02*
X1986223D01*
X1989940D02*
X1991596D01*
X1994687D02*
X1998226D01*
X2000331D02*
X2006378D01*
X2008661D02*
X2015157D01*
X2017261D02*
X2018919D01*
X2022725D02*
X2027517D01*
X2027921D02*
X2029308D01*
X2032489D02*
X2035939D01*
X2038133D02*
X2044090D01*
X2046732D02*
X2051436D01*
X2051838D02*
X2053317D01*
X1941209Y1650200D02*
X1968218D01*
X1980534D02*
X1982192D01*
X1984565D02*
X1986223D01*
X1989940D02*
X1991596D01*
X1994687D02*
X1998137D01*
X2000241D02*
X2006468D01*
X2008751D02*
X2014978D01*
X2017261D02*
X2018919D01*
X2022636D02*
X2027606D01*
X2027831D02*
X2029308D01*
X2032400D02*
X2035939D01*
X2038043D02*
X2044270D01*
X2046643D02*
X2051525D01*
X2051838D02*
X2053317D01*
X1941209Y1650289D02*
X1968307D01*
X1980534D02*
X1982192D01*
X1984565D02*
X1986223D01*
X1989940D02*
X1991596D01*
X1994598D02*
X1998137D01*
X2000151D02*
X2006557D01*
X2008930D02*
X2014888D01*
X2017261D02*
X2018919D01*
X2022636D02*
X2027696D01*
X2027831D02*
X2029308D01*
X2032400D02*
X2035939D01*
X2037953D02*
X2044359D01*
X2046553D02*
X2051615D01*
X2051838D02*
X2053317D01*
X1941119Y1650379D02*
X1968307D01*
X1980534D02*
X1982192D01*
X1984565D02*
X1986223D01*
X1989940D02*
X1991596D01*
X1994598D02*
X1998137D01*
X2000151D02*
X2006557D01*
X2009020D02*
X2014709D01*
X2017261D02*
X2018919D01*
X2022546D02*
X2029308D01*
X2032310D02*
X2035939D01*
X2037864D02*
X2044359D01*
X2046463D02*
X2051705D01*
X2051838D02*
X2053317D01*
X1941030Y1650468D02*
X1968397D01*
X1980534D02*
X1982192D01*
X1984565D02*
X1986223D01*
X1989940D02*
X1991596D01*
X1994508D02*
X1998137D01*
X2000062D02*
X2006557D01*
X2009199D02*
X2014619D01*
X2017261D02*
X2018919D01*
X2022546D02*
X2029308D01*
X2032310D02*
X2035849D01*
X2037774D02*
X2044270D01*
X2046374D02*
X2053317D01*
X1940940Y1650558D02*
X1968487D01*
X1980534D02*
X1982192D01*
X1984565D02*
X1986223D01*
X1989940D02*
X1991596D01*
X1994508D02*
X1998137D01*
X1999972D02*
X2006557D01*
X2009199D02*
X2014351D01*
X2017261D02*
X2018919D01*
X2022456D02*
X2024919D01*
X2025502D02*
X2029308D01*
X2032310D02*
X2035849D01*
X2037774D02*
X2044270D01*
X2046374D02*
X2053317D01*
X1940940Y1650648D02*
X1968576D01*
X1980534D02*
X1982192D01*
X1984565D02*
X1986223D01*
X1989940D02*
X1991596D01*
X1994508D02*
X1998137D01*
X1999883D02*
X2002616D01*
X2004003D02*
X2006557D01*
X2009109D02*
X2014171D01*
X2017261D02*
X2018919D01*
X2022456D02*
X2024561D01*
X2025950D02*
X2029308D01*
X2032220D02*
X2035849D01*
X2037685D02*
X2040328D01*
X2041805D02*
X2044270D01*
X2046284D02*
X2049017D01*
X2049509D02*
X2053317D01*
X1940851Y1650737D02*
X1968576D01*
X1980534D02*
X1982192D01*
X1984565D02*
X1986223D01*
X1989940D02*
X1991596D01*
X1994508D02*
X1996614D01*
X1999883D02*
X2002347D01*
X2004362D02*
X2006468D01*
X2009020D02*
X2013903D01*
X2017261D02*
X2018919D01*
X2022456D02*
X2024381D01*
X2026219D02*
X2029308D01*
X2032220D02*
X2034416D01*
X2037595D02*
X2040059D01*
X2042164D02*
X2044270D01*
X2046284D02*
X2048659D01*
X2049957D02*
X2053317D01*
X1940761Y1650827D02*
X1968666D01*
X1980534D02*
X1982192D01*
X1984565D02*
X1986223D01*
X1989940D02*
X1991596D01*
X1994418D02*
X1996435D01*
X1999793D02*
X2002078D01*
X2004630D02*
X2006468D01*
X2008930D02*
X2013544D01*
X2017261D02*
X2018919D01*
X2022367D02*
X2024292D01*
X2026398D02*
X2029308D01*
X2032220D02*
X2034235D01*
X2037595D02*
X2039880D01*
X2042432D02*
X2044270D01*
X2046195D02*
X2048480D01*
X2050226D02*
X2053317D01*
X1940672Y1650916D02*
X1968755D01*
X1980534D02*
X1982192D01*
X1984565D02*
X1986223D01*
X1989940D02*
X1991596D01*
X1994418D02*
X1996345D01*
X1999704D02*
X2001899D01*
X2004899D02*
X2006468D01*
X2008930D02*
X2013186D01*
X2017261D02*
X2018919D01*
X2022367D02*
X2024202D01*
X2026577D02*
X2029308D01*
X2032220D02*
X2034056D01*
X2037506D02*
X2039701D01*
X2042611D02*
X2044270D01*
X2046195D02*
X2048301D01*
X2050405D02*
X2053317D01*
X1940672Y1651006D02*
X1968845D01*
X1980534D02*
X1982192D01*
X1984565D02*
X1986223D01*
X1989940D02*
X1991596D01*
X1994418D02*
X1996256D01*
X1999704D02*
X2001810D01*
X2005078D02*
X2006468D01*
X2008841D02*
X2012738D01*
X2017261D02*
X2018919D01*
X2022367D02*
X2024115D01*
X2026756D02*
X2029308D01*
X2032220D02*
X2033966D01*
X2037416D02*
X2039522D01*
X2042791D02*
X2044180D01*
X2046105D02*
X2048211D01*
X2050494D02*
X2053317D01*
X1940582Y1651095D02*
X1968845D01*
X1980534D02*
X1982192D01*
X1984565D02*
X1986223D01*
X1989940D02*
X1991596D01*
X1994418D02*
X1996166D01*
X1999614D02*
X2001720D01*
X2005257D02*
X2006468D01*
X2008841D02*
X2012201D01*
X2017261D02*
X2018919D01*
X2022367D02*
X2024115D01*
X2026935D02*
X2029308D01*
X2032220D02*
X2033966D01*
X2037416D02*
X2039432D01*
X2042970D02*
X2044180D01*
X2046105D02*
X2048121D01*
X2050674D02*
X2053317D01*
X1940492Y1651185D02*
X1968934D01*
X1980534D02*
X1982192D01*
X1984565D02*
X1986223D01*
X1989940D02*
X1991596D01*
X1994418D02*
X1996166D01*
X1999614D02*
X2001630D01*
X2005437D02*
X2006468D01*
X2008841D02*
X2011663D01*
X2017261D02*
X2018919D01*
X2022367D02*
X2024025D01*
X2027025D02*
X2029308D01*
X2032131D02*
X2033877D01*
X2037326D02*
X2039343D01*
X2043149D02*
X2044180D01*
X2046015D02*
X2048032D01*
X2050763D02*
X2053317D01*
X1940492Y1651275D02*
X1969024D01*
X1980534D02*
X1982192D01*
X1984565D02*
X1986223D01*
X1989940D02*
X1991596D01*
X1994418D02*
X1996077D01*
X1999524D02*
X2001541D01*
X2005526D02*
X2006378D01*
X2008751D02*
X2011215D01*
X2017261D02*
X2018919D01*
X2022277D02*
X2024025D01*
X2027204D02*
X2029308D01*
X2032131D02*
X2033877D01*
X2037326D02*
X2039253D01*
X2043328D02*
X2044180D01*
X2046015D02*
X2047942D01*
X2050853D02*
X2053317D01*
X1940403Y1651364D02*
X1969024D01*
X1980534D02*
X1982192D01*
X1984565D02*
X1986223D01*
X1989940D02*
X1991596D01*
X1994418D02*
X1996077D01*
X1999524D02*
X2001451D01*
X2005705D02*
X2006378D01*
X2008751D02*
X2010857D01*
X2017261D02*
X2018919D01*
X2022277D02*
X2023935D01*
X2027294D02*
X2029308D01*
X2032131D02*
X2033787D01*
X2037326D02*
X2039164D01*
X2043418D02*
X2044180D01*
X2045926D02*
X2047853D01*
X2051032D02*
X2053317D01*
X1940313Y1651454D02*
X1969114D01*
X1980534D02*
X1982192D01*
X1984565D02*
X1986223D01*
X1989940D02*
X1991596D01*
X1994418D02*
X1996077D01*
X1999524D02*
X2001362D01*
X2005795D02*
X2006378D01*
X2008751D02*
X2010588D01*
X2017261D02*
X2018919D01*
X2022277D02*
X2023935D01*
X2027383D02*
X2029308D01*
X2032131D02*
X2033787D01*
X2037237D02*
X2039074D01*
X2043597D02*
X2044180D01*
X2045926D02*
X2047853D01*
X2051121D02*
X2053317D01*
X1940313Y1651543D02*
X1969203D01*
X1980534D02*
X1982192D01*
X1984565D02*
X1986223D01*
X1989940D02*
X1991596D01*
X1994418D02*
X1995987D01*
X1999435D02*
X2001272D01*
X2005974D02*
X2006378D01*
X2008841D02*
X2010499D01*
X2017261D02*
X2018919D01*
X2022277D02*
X2023935D01*
X2027473D02*
X2029308D01*
X2032131D02*
X2033787D01*
X2037237D02*
X2039074D01*
X2043686D02*
X2044090D01*
X2045926D02*
X2047763D01*
X2051211D02*
X2053317D01*
X1940224Y1651633D02*
X1969203D01*
X1980534D02*
X1982192D01*
X1984565D02*
X1986223D01*
X1989940D02*
X1991596D01*
X1994418D02*
X1995987D01*
X1999435D02*
X2001272D01*
X2006064D02*
X2006378D01*
X2008841D02*
X2010409D01*
X2017261D02*
X2018919D01*
X2022277D02*
X2023935D01*
X2027562D02*
X2029308D01*
X2032131D02*
X2033787D01*
X2037147D02*
X2038984D01*
X2043866D02*
X2044090D01*
X2045836D02*
X2047674D01*
X2051301D02*
X2053317D01*
X1940134Y1651722D02*
X1969293D01*
X1980534D02*
X1982192D01*
X1984565D02*
X1986223D01*
X1989940D02*
X1991596D01*
X1994418D02*
X1995987D01*
X1999435D02*
X2001183D01*
X2006153D02*
X2006378D01*
X2008841D02*
X2010409D01*
X2017261D02*
X2018919D01*
X2022277D02*
X2023935D01*
X2027652D02*
X2029308D01*
X2032131D02*
X2033787D01*
X2037147D02*
X2038984D01*
X2043955D02*
X2044090D01*
X2045836D02*
X2047674D01*
X2051390D02*
X2053317D01*
X1940134Y1651812D02*
X1969382D01*
X1980534D02*
X1982192D01*
X1984565D02*
X1986223D01*
X1989940D02*
X1991596D01*
X1994418D02*
X1995987D01*
X1999345D02*
X2001183D01*
X2008841D02*
X2010409D01*
X2017261D02*
X2018919D01*
X2022277D02*
X2023935D01*
X2027742D02*
X2029308D01*
X2032131D02*
X2033787D01*
X2037147D02*
X2038895D01*
X2045836D02*
X2047584D01*
X2051390D02*
X2053317D01*
X1940045Y1651902D02*
X1969382D01*
X1980534D02*
X1982192D01*
X1984565D02*
X1986223D01*
X1989940D02*
X1991596D01*
X1994418D02*
X1995987D01*
X1999345D02*
X2001093D01*
X2008930D02*
X2010499D01*
X2017261D02*
X2018919D01*
X2022367D02*
X2023935D01*
X2027742D02*
X2029308D01*
X2032131D02*
X2033787D01*
X2037147D02*
X2038895D01*
X2045836D02*
X2047584D01*
X2051480D02*
X2053317D01*
X1939955Y1651991D02*
X1969472D01*
X1980534D02*
X1982192D01*
X1984565D02*
X1986223D01*
X1989940D02*
X1991596D01*
X1994418D02*
X1995987D01*
X1999345D02*
X2001093D01*
X2009020D02*
X2010588D01*
X2017261D02*
X2018919D01*
X2022367D02*
X2024025D01*
X2027742D02*
X2029308D01*
X2032131D02*
X2033787D01*
X2037058D02*
X2038805D01*
X2045747D02*
X2047584D01*
X2051569D02*
X2053317D01*
X1939955Y1652081D02*
X1969472D01*
X1980534D02*
X1982192D01*
X1984565D02*
X1986223D01*
X1989940D02*
X1991596D01*
X1994418D02*
X1995987D01*
X1999345D02*
X2001003D01*
X2009020D02*
X2010678D01*
X2017261D02*
X2018919D01*
X2022367D02*
X2024025D01*
X2027742D02*
X2029308D01*
X2032131D02*
X2033787D01*
X2037058D02*
X2038805D01*
X2045747D02*
X2047494D01*
X2051659D02*
X2053317D01*
X1939865Y1652170D02*
X1969561D01*
X1980534D02*
X1982192D01*
X1984565D02*
X1986223D01*
X1989940D02*
X1991596D01*
X1994418D02*
X1995987D01*
X1999256D02*
X2001003D01*
X2009109D02*
X2012111D01*
X2017261D02*
X2018919D01*
X2022367D02*
X2024025D01*
X2027742D02*
X2029308D01*
X2032131D02*
X2033787D01*
X2037058D02*
X2038716D01*
X2045747D02*
X2047494D01*
X2051659D02*
X2053317D01*
X1939865Y1652260D02*
X1969651D01*
X1980534D02*
X1982192D01*
X1984565D02*
X1986223D01*
X1989940D02*
X1991596D01*
X1994418D02*
X1995987D01*
X1999256D02*
X2001003D01*
X2009199D02*
X2012469D01*
X2017261D02*
X2018919D01*
X2022367D02*
X2024115D01*
X2027742D02*
X2029308D01*
X2032131D02*
X2033787D01*
X2037058D02*
X2038716D01*
X2045747D02*
X2047494D01*
X2051659D02*
X2053317D01*
X1939776Y1652350D02*
X1969651D01*
X1980534D02*
X1982192D01*
X1984565D02*
X1986223D01*
X1989940D02*
X1991596D01*
X1994418D02*
X1995987D01*
X1999256D02*
X2000914D01*
X2009288D02*
X2012738D01*
X2017261D02*
X2018919D01*
X2022367D02*
X2024115D01*
X2027742D02*
X2029308D01*
X2032131D02*
X2033787D01*
X2036968D02*
X2038716D01*
X2045747D02*
X2047405D01*
X2051659D02*
X2053317D01*
X1939776Y1652439D02*
X1969741D01*
X1980534D02*
X1982192D01*
X1984565D02*
X1986223D01*
X1989940D02*
X1991596D01*
X1994418D02*
X1995987D01*
X1999256D02*
X2000914D01*
X2009468D02*
X2013007D01*
X2017261D02*
X2018919D01*
X2022456D02*
X2024202D01*
X2027742D02*
X2029308D01*
X2032131D02*
X2033787D01*
X2036968D02*
X2038716D01*
X2045747D02*
X2047405D01*
X2051659D02*
X2053317D01*
X1939686Y1652529D02*
X1969741D01*
X1980534D02*
X1982192D01*
X1984565D02*
X1986223D01*
X1989940D02*
X1991596D01*
X1994418D02*
X1995987D01*
X1999256D02*
X2000914D01*
X2009557D02*
X2013186D01*
X2017261D02*
X2018919D01*
X2022456D02*
X2024292D01*
X2027742D02*
X2029308D01*
X2032131D02*
X2033787D01*
X2036968D02*
X2038626D01*
X2045747D02*
X2047405D01*
X2051659D02*
X2053317D01*
X1939597Y1652618D02*
X1944032D01*
X1947659D02*
X1948598D01*
X1952406D02*
X1957021D01*
X1960827D02*
X1961768D01*
X1965395D02*
X1969830D01*
X1980534D02*
X1982192D01*
X1984565D02*
X1986223D01*
X1989940D02*
X1991596D01*
X1994418D02*
X1995987D01*
X1999166D02*
X2000914D01*
X2009468D02*
X2013365D01*
X2017261D02*
X2018919D01*
X2022456D02*
X2024381D01*
X2027742D02*
X2029308D01*
X2032131D02*
X2033787D01*
X2036968D02*
X2038626D01*
X2045657D02*
X2047405D01*
X2051659D02*
X2053317D01*
X1939597Y1652708D02*
X1944032D01*
X1947659D02*
X1948688D01*
X1952496D02*
X1957021D01*
X1960827D02*
X1961768D01*
X1965395D02*
X1969830D01*
X1980534D02*
X1982192D01*
X1984565D02*
X1986223D01*
X1989940D02*
X1991596D01*
X1994418D02*
X1995987D01*
X1999166D02*
X2000824D01*
X2009378D02*
X2013455D01*
X2017261D02*
X2018919D01*
X2022546D02*
X2024471D01*
X2027742D02*
X2029308D01*
X2032131D02*
X2033787D01*
X2036968D02*
X2038626D01*
X2045657D02*
X2047405D01*
X2051659D02*
X2053317D01*
X1939507Y1652797D02*
X1944032D01*
X1947659D02*
X1948688D01*
X1952496D02*
X1956931D01*
X1960737D02*
X1961768D01*
X1965395D02*
X1969920D01*
X1980534D02*
X1982192D01*
X1984565D02*
X1986223D01*
X1989940D02*
X1991596D01*
X1994418D02*
X1995987D01*
X1999166D02*
X2000824D01*
X2009199D02*
X2013634D01*
X2017261D02*
X2018919D01*
X2022546D02*
X2024561D01*
X2027742D02*
X2029308D01*
X2032131D02*
X2033787D01*
X2036968D02*
X2038626D01*
X2045657D02*
X2047405D01*
X2051659D02*
X2053317D01*
X1939507Y1652887D02*
X1944032D01*
X1947659D02*
X1948779D01*
X1952585D02*
X1956931D01*
X1960737D02*
X1961768D01*
X1965395D02*
X1970009D01*
X1980534D02*
X1982192D01*
X1984565D02*
X1986223D01*
X1989940D02*
X1991596D01*
X1994418D02*
X1995987D01*
X1999166D02*
X2000824D01*
X2009109D02*
X2013723D01*
X2017261D02*
X2018919D01*
X2022636D02*
X2024740D01*
X2027742D02*
X2029308D01*
X2032131D02*
X2033787D01*
X2036968D02*
X2038626D01*
X2045657D02*
X2047315D01*
X2051659D02*
X2053317D01*
X1939417Y1652977D02*
X1944032D01*
X1947659D02*
X1948779D01*
X1952585D02*
X1956841D01*
X1960648D02*
X1961768D01*
X1965395D02*
X1970009D01*
X1980534D02*
X1982192D01*
X1984565D02*
X1986223D01*
X1989940D02*
X1991596D01*
X1994418D02*
X1995987D01*
X1999166D02*
X2000824D01*
X2009020D02*
X2013813D01*
X2017261D02*
X2018919D01*
X2022636D02*
X2024919D01*
X2027742D02*
X2029308D01*
X2032131D02*
X2033787D01*
X2036968D02*
X2038537D01*
X2045657D02*
X2047315D01*
X2051659D02*
X2053317D01*
X1939417Y1653066D02*
X1944032D01*
X1947659D02*
X1948869D01*
X1952675D02*
X1956752D01*
X1960558D02*
X1961768D01*
X1965395D02*
X1970099D01*
X1980534D02*
X1982192D01*
X1984565D02*
X1986223D01*
X1989940D02*
X1991596D01*
X1994418D02*
X1995987D01*
X1999166D02*
X2000824D01*
X2008930D02*
X2013903D01*
X2017261D02*
X2018919D01*
X2022725D02*
X2025098D01*
X2027742D02*
X2029308D01*
X2032131D02*
X2033787D01*
X2036879D02*
X2038537D01*
X2045657D02*
X2047315D01*
X2051659D02*
X2053317D01*
X1939328Y1653156D02*
X1944032D01*
X1947659D02*
X1948869D01*
X1952675D02*
X1956752D01*
X1960558D02*
X1961768D01*
X1965395D02*
X1970099D01*
X1980534D02*
X1982192D01*
X1984565D02*
X1986223D01*
X1989940D02*
X1991596D01*
X1994418D02*
X1995987D01*
X1999166D02*
X2000824D01*
X2008841D02*
X2013992D01*
X2017261D02*
X2018919D01*
X2022815D02*
X2025277D01*
X2027742D02*
X2029308D01*
X2032131D02*
X2033787D01*
X2036879D02*
X2038537D01*
X2045657D02*
X2047315D01*
X2051659D02*
X2053317D01*
X1939328Y1653245D02*
X1944032D01*
X1947659D02*
X1948958D01*
X1952765D02*
X1956662D01*
X1960468D02*
X1961768D01*
X1965395D02*
X1970189D01*
X1980534D02*
X1982192D01*
X1984565D02*
X1986223D01*
X1989940D02*
X1991596D01*
X1994418D02*
X1995987D01*
X1999166D02*
X2000824D01*
X2008751D02*
X2014082D01*
X2017261D02*
X2018919D01*
X2022815D02*
X2025546D01*
X2027742D02*
X2029308D01*
X2032131D02*
X2033787D01*
X2036879D02*
X2038537D01*
X2045657D02*
X2047315D01*
X2051659D02*
X2053317D01*
X1939238Y1653335D02*
X1944032D01*
X1947659D02*
X1949048D01*
X1952854D02*
X1956662D01*
X1960468D02*
X1961768D01*
X1965395D02*
X1970189D01*
X1980534D02*
X1982192D01*
X1984565D02*
X1986223D01*
X1989940D02*
X1991596D01*
X1994418D02*
X1995987D01*
X1999166D02*
X2000824D01*
X2008661D02*
X2014171D01*
X2017261D02*
X2018919D01*
X2022904D02*
X2025904D01*
X2027742D02*
X2029308D01*
X2032131D02*
X2033787D01*
X2036879D02*
X2038537D01*
X2045657D02*
X2047315D01*
X2051659D02*
X2053317D01*
X1939238Y1653424D02*
X1944032D01*
X1947659D02*
X1949048D01*
X1952854D02*
X1956573D01*
X1960379D02*
X1961768D01*
X1965395D02*
X1970278D01*
X1980534D02*
X1982192D01*
X1984565D02*
X1986223D01*
X1989940D02*
X1991596D01*
X1994418D02*
X1995987D01*
X1999166D02*
X2006557D01*
X2008572D02*
X2010857D01*
X2011976D02*
X2014261D01*
X2017261D02*
X2018919D01*
X2022994D02*
X2026263D01*
X2027742D02*
X2029308D01*
X2032131D02*
X2033787D01*
X2036879D02*
X2044359D01*
X2045657D02*
X2047315D01*
X2051659D02*
X2053317D01*
X1939149Y1653514D02*
X1944032D01*
X1947659D02*
X1949138D01*
X1952944D02*
X1956573D01*
X1960379D02*
X1961768D01*
X1965395D02*
X1970278D01*
X1980534D02*
X1982192D01*
X1984565D02*
X1986223D01*
X1989940D02*
X1991596D01*
X1994418D02*
X1995987D01*
X1999166D02*
X2006557D01*
X2008572D02*
X2010588D01*
X2012155D02*
X2014261D01*
X2017261D02*
X2018919D01*
X2023083D02*
X2026710D01*
X2027742D02*
X2029308D01*
X2032131D02*
X2033787D01*
X2036879D02*
X2044359D01*
X2045657D02*
X2047315D01*
X2051659D02*
X2053317D01*
X1939149Y1653604D02*
X1944032D01*
X1947659D02*
X1949138D01*
X1952944D02*
X1956483D01*
X1960289D02*
X1961768D01*
X1965395D02*
X1970368D01*
X1980534D02*
X1982192D01*
X1984565D02*
X1986223D01*
X1989940D02*
X1991596D01*
X1994418D02*
X1995987D01*
X1999166D02*
X2006557D01*
X2008482D02*
X2010409D01*
X2012334D02*
X2014351D01*
X2017261D02*
X2018919D01*
X2023173D02*
X2027427D01*
X2027742D02*
X2029308D01*
X2032131D02*
X2033787D01*
X2036879D02*
X2044359D01*
X2045657D02*
X2047315D01*
X2051659D02*
X2053317D01*
X1939059Y1653693D02*
X1944032D01*
X1947659D02*
X1949227D01*
X1953033D02*
X1956483D01*
X1960289D02*
X1961768D01*
X1965395D02*
X1970368D01*
X1980534D02*
X1982192D01*
X1984565D02*
X1986223D01*
X1989940D02*
X1991596D01*
X1994418D02*
X1995987D01*
X1999166D02*
X2006557D01*
X2008393D02*
X2010320D01*
X2012513D02*
X2014351D01*
X2017261D02*
X2018919D01*
X2023352D02*
X2029308D01*
X2032131D02*
X2033787D01*
X2036879D02*
X2044359D01*
X2045657D02*
X2047315D01*
X2051659D02*
X2053317D01*
X1939059Y1653783D02*
X1944032D01*
X1947659D02*
X1949227D01*
X1953033D02*
X1956393D01*
X1960200D02*
X1961768D01*
X1965395D02*
X1970368D01*
X1980534D02*
X1982192D01*
X1984565D02*
X1986223D01*
X1989940D02*
X1991596D01*
X1994418D02*
X1995987D01*
X1999166D02*
X2006557D01*
X2008393D02*
X2010230D01*
X2012603D02*
X2014440D01*
X2017261D02*
X2018919D01*
X2023442D02*
X2029308D01*
X2032131D02*
X2033787D01*
X2036879D02*
X2044359D01*
X2045657D02*
X2047315D01*
X2051659D02*
X2053317D01*
X1938970Y1653872D02*
X1944032D01*
X1947659D02*
X1949317D01*
X1953123D02*
X1956304D01*
X1960110D02*
X1961768D01*
X1965395D02*
X1970457D01*
X1980534D02*
X1982192D01*
X1984565D02*
X1986223D01*
X1989940D02*
X1991596D01*
X1994418D02*
X1995987D01*
X1999166D02*
X2006557D01*
X2008303D02*
X2010140D01*
X2012692D02*
X2014440D01*
X2017261D02*
X2018919D01*
X2023531D02*
X2029308D01*
X2032131D02*
X2033787D01*
X2036879D02*
X2044359D01*
X2045657D02*
X2047315D01*
X2051659D02*
X2053317D01*
X1938970Y1653962D02*
X1944032D01*
X1947659D02*
X1949317D01*
X1953123D02*
X1956304D01*
X1960110D02*
X1961768D01*
X1965395D02*
X1970457D01*
X1980534D02*
X1982192D01*
X1984565D02*
X1986223D01*
X1989940D02*
X1991596D01*
X1994418D02*
X1995987D01*
X1999166D02*
X2006557D01*
X2008303D02*
X2010051D01*
X2012782D02*
X2014530D01*
X2017261D02*
X2018919D01*
X2023711D02*
X2029308D01*
X2032131D02*
X2033787D01*
X2036879D02*
X2044359D01*
X2045657D02*
X2047315D01*
X2051659D02*
X2053317D01*
X1938970Y1654051D02*
X1944032D01*
X1947659D02*
X1949405D01*
X1953213D02*
X1956212D01*
X1960020D02*
X1961768D01*
X1965395D02*
X1970547D01*
X1980534D02*
X1982192D01*
X1984565D02*
X1986223D01*
X1989940D02*
X1991596D01*
X1994418D02*
X1995987D01*
X1999166D02*
X2006557D01*
X2008303D02*
X2009961D01*
X2012782D02*
X2014530D01*
X2017261D02*
X2018919D01*
X2023890D02*
X2029308D01*
X2032131D02*
X2033787D01*
X2036879D02*
X2044359D01*
X2045657D02*
X2047315D01*
X2051659D02*
X2053317D01*
X1938880Y1654141D02*
X1944032D01*
X1947659D02*
X1949494D01*
X1953302D02*
X1956212D01*
X1960020D02*
X1961768D01*
X1965395D02*
X1970547D01*
X1980534D02*
X1982192D01*
X1984565D02*
X1986223D01*
X1989940D02*
X1991596D01*
X1994418D02*
X1995987D01*
X1999166D02*
X2006557D01*
X2008214D02*
X2009961D01*
X2012872D02*
X2014619D01*
X2017261D02*
X2018919D01*
X2024069D02*
X2029308D01*
X2032131D02*
X2033787D01*
X2036879D02*
X2044359D01*
X2045657D02*
X2047405D01*
X2051659D02*
X2053317D01*
X1938880Y1654231D02*
X1944032D01*
X1947659D02*
X1949494D01*
X1953302D02*
X1956123D01*
X1959931D02*
X1961768D01*
X1965395D02*
X1970636D01*
X1980534D02*
X1982192D01*
X1984565D02*
X1986223D01*
X1989940D02*
X1991596D01*
X1994418D02*
X1995987D01*
X1999166D02*
X2006557D01*
X2008214D02*
X2009872D01*
X2012961D02*
X2014619D01*
X2017261D02*
X2018919D01*
X2024248D02*
X2029308D01*
X2032131D02*
X2033787D01*
X2036879D02*
X2044359D01*
X2045747D02*
X2047405D01*
X2051659D02*
X2053317D01*
X1938790Y1654320D02*
X1944032D01*
X1947659D02*
X1949584D01*
X1953392D02*
X1956123D01*
X1959931D02*
X1961768D01*
X1965395D02*
X1970636D01*
X1980534D02*
X1982192D01*
X1984565D02*
X1986223D01*
X1989940D02*
X1991596D01*
X1994418D02*
X1995987D01*
X1999166D02*
X2006557D01*
X2008214D02*
X2009872D01*
X2012961D02*
X2014619D01*
X2017261D02*
X2018919D01*
X2024517D02*
X2029308D01*
X2032131D02*
X2033787D01*
X2036968D02*
X2044359D01*
X2045747D02*
X2047405D01*
X2051659D02*
X2053317D01*
X1938790Y1654410D02*
X1944032D01*
X1947659D02*
X1949584D01*
X1953392D02*
X1956033D01*
X1959841D02*
X1961768D01*
X1965395D02*
X1970726D01*
X1980534D02*
X1982192D01*
X1984565D02*
X1986223D01*
X1989940D02*
X1991596D01*
X1994418D02*
X1995987D01*
X1999166D02*
X2006557D01*
X2008124D02*
X2009782D01*
X2012961D02*
X2014619D01*
X2017261D02*
X2018919D01*
X2024785D02*
X2029308D01*
X2032131D02*
X2033787D01*
X2036968D02*
X2044359D01*
X2045747D02*
X2047405D01*
X2051659D02*
X2053317D01*
X1938701Y1654499D02*
X1944032D01*
X1947659D02*
X1949673D01*
X1953481D02*
X1956033D01*
X1959841D02*
X1961768D01*
X1965395D02*
X1970726D01*
X1980534D02*
X1982192D01*
X1984565D02*
X1986223D01*
X1989940D02*
X1991596D01*
X1994418D02*
X1995987D01*
X1999166D02*
X2006557D01*
X2008124D02*
X2009782D01*
X2013051D02*
X2014709D01*
X2017261D02*
X2018919D01*
X2025054D02*
X2029308D01*
X2032131D02*
X2033787D01*
X2036968D02*
X2044270D01*
X2045747D02*
X2047405D01*
X2051659D02*
X2053317D01*
X1938701Y1654589D02*
X1944032D01*
X1947659D02*
X1949673D01*
X1953481D02*
X1955946D01*
X1959752D02*
X1961768D01*
X1965395D02*
X1970726D01*
X1980534D02*
X1982192D01*
X1984565D02*
X1986223D01*
X1989940D02*
X1991596D01*
X1994418D02*
X1995987D01*
X1999166D02*
X2006557D01*
X2008124D02*
X2009782D01*
X2013051D02*
X2014709D01*
X2017261D02*
X2019009D01*
X2025413D02*
X2029308D01*
X2032131D02*
X2033787D01*
X2036968D02*
X2044270D01*
X2045747D02*
X2047405D01*
X2051659D02*
X2053317D01*
X1938701Y1654679D02*
X1944032D01*
X1947659D02*
X1949763D01*
X1953571D02*
X1955946D01*
X1959662D02*
X1961768D01*
X1965395D02*
X1970816D01*
X1980534D02*
X1982192D01*
X1984565D02*
X1986223D01*
X1989940D02*
X1991596D01*
X1994418D02*
X1995987D01*
X1999256D02*
X2006557D01*
X2008124D02*
X2009692D01*
X2013051D02*
X2014709D01*
X2017261D02*
X2019098D01*
X2025860D02*
X2029308D01*
X2032131D02*
X2033787D01*
X2036968D02*
X2044270D01*
X2045747D02*
X2047494D01*
X2051659D02*
X2053317D01*
X1938611Y1654768D02*
X1944032D01*
X1947659D02*
X1949763D01*
X1953571D02*
X1955856D01*
X1959662D02*
X1961768D01*
X1965395D02*
X1970816D01*
X1980534D02*
X1982192D01*
X1984565D02*
X1986223D01*
X1989940D02*
X1991596D01*
X1994418D02*
X1995987D01*
X1999256D02*
X2000914D01*
X2004899D02*
X2006557D01*
X2008124D02*
X2009692D01*
X2013140D02*
X2014709D01*
X2017261D02*
X2019098D01*
X2026308D02*
X2029308D01*
X2032131D02*
X2033787D01*
X2036968D02*
X2038626D01*
X2042701D02*
X2044270D01*
X2045747D02*
X2047494D01*
X2051659D02*
X2053317D01*
X1938611Y1654858D02*
X1944032D01*
X1947659D02*
X1949852D01*
X1953660D02*
X1955766D01*
X1959573D02*
X1961768D01*
X1965395D02*
X1970816D01*
X1980534D02*
X1982192D01*
X1984565D02*
X1986223D01*
X1989940D02*
X1991596D01*
X1994418D02*
X1995987D01*
X1999256D02*
X2000914D01*
X2004899D02*
X2006468D01*
X2008124D02*
X2009692D01*
X2013140D02*
X2014709D01*
X2017261D02*
X2019188D01*
X2026935D02*
X2029308D01*
X2032131D02*
X2033787D01*
X2036968D02*
X2038626D01*
X2042611D02*
X2044270D01*
X2045836D02*
X2047494D01*
X2051659D02*
X2053317D01*
X1938522Y1654947D02*
X1944032D01*
X1947659D02*
X1949942D01*
X1953660D02*
X1955766D01*
X1959573D02*
X1961768D01*
X1965395D02*
X1970905D01*
X1980534D02*
X1982192D01*
X1984565D02*
X1986223D01*
X1989940D02*
X1991596D01*
X1994418D02*
X1995987D01*
X1999256D02*
X2000914D01*
X2004899D02*
X2006468D01*
X2008124D02*
X2009692D01*
X2013140D02*
X2014709D01*
X2017261D02*
X2019277D01*
X2027652D02*
X2029308D01*
X2032131D02*
X2033787D01*
X2037058D02*
X2038716D01*
X2042611D02*
X2044270D01*
X2045836D02*
X2047494D01*
X2051659D02*
X2053317D01*
X1938522Y1655037D02*
X1944032D01*
X1947659D02*
X1949942D01*
X1953750D02*
X1955677D01*
X1959483D02*
X1961768D01*
X1965395D02*
X1970905D01*
X1980534D02*
X1982192D01*
X1984565D02*
X1986223D01*
X1989940D02*
X1991596D01*
X1994418D02*
X1995987D01*
X1999256D02*
X2000914D01*
X2004810D02*
X2006468D01*
X2008124D02*
X2009692D01*
X2013140D02*
X2014709D01*
X2017261D02*
X2019277D01*
X2027742D02*
X2029308D01*
X2032131D02*
X2033787D01*
X2037058D02*
X2038716D01*
X2042611D02*
X2044270D01*
X2045836D02*
X2047584D01*
X2051659D02*
X2053317D01*
X1938522Y1655126D02*
X1944032D01*
X1947659D02*
X1950032D01*
X1953840D02*
X1955677D01*
X1959483D02*
X1961768D01*
X1965395D02*
X1970995D01*
X1980534D02*
X1982192D01*
X1984565D02*
X1986223D01*
X1989940D02*
X1991596D01*
X1994418D02*
X1995987D01*
X1999345D02*
X2001003D01*
X2004810D02*
X2006468D01*
X2008124D02*
X2009692D01*
X2013140D02*
X2014709D01*
X2017261D02*
X2019367D01*
X2027742D02*
X2029308D01*
X2032131D02*
X2033787D01*
X2037058D02*
X2038716D01*
X2042611D02*
X2044180D01*
X2045836D02*
X2047584D01*
X2051659D02*
X2053317D01*
X1938432Y1655216D02*
X1944032D01*
X1947659D02*
X1950032D01*
X1953840D02*
X1955587D01*
X1959393D02*
X1961768D01*
X1965395D02*
X1970995D01*
X1980534D02*
X1982192D01*
X1984565D02*
X1986223D01*
X1989940D02*
X1991596D01*
X1994418D02*
X1995987D01*
X1999345D02*
X2001003D01*
X2004810D02*
X2006468D01*
X2008124D02*
X2009692D01*
X2013140D02*
X2014709D01*
X2017261D02*
X2019456D01*
X2027742D02*
X2029308D01*
X2032131D02*
X2033787D01*
X2037058D02*
X2038805D01*
X2042522D02*
X2044180D01*
X2045926D02*
X2047674D01*
X2051659D02*
X2053317D01*
X1938432Y1655306D02*
X1944032D01*
X1947659D02*
X1950121D01*
X1953929D02*
X1955587D01*
X1959393D02*
X1961768D01*
X1965395D02*
X1970995D01*
X1980534D02*
X1982192D01*
X1984565D02*
X1986313D01*
X1989940D02*
X1991596D01*
X1994418D02*
X1995987D01*
X1999345D02*
X2001003D01*
X2004810D02*
X2006378D01*
X2008124D02*
X2009692D01*
X2013140D02*
X2014709D01*
X2017261D02*
X2019546D01*
X2027742D02*
X2029308D01*
X2032131D02*
X2033787D01*
X2037147D02*
X2038805D01*
X2042522D02*
X2044180D01*
X2045926D02*
X2047674D01*
X2051659D02*
X2053317D01*
X1938432Y1655395D02*
X1944032D01*
X1947659D02*
X1950121D01*
X1953929D02*
X1955498D01*
X1959304D02*
X1961768D01*
X1965395D02*
X1971084D01*
X1980534D02*
X1982192D01*
X1984565D02*
X1986402D01*
X1989940D02*
X1991596D01*
X1994418D02*
X1995987D01*
X1999345D02*
X2001093D01*
X2004720D02*
X2006378D01*
X2008124D02*
X2009692D01*
X2013140D02*
X2014709D01*
X2017261D02*
X2019636D01*
X2027742D02*
X2029308D01*
X2032131D02*
X2033787D01*
X2037147D02*
X2038805D01*
X2042522D02*
X2044180D01*
X2045926D02*
X2047674D01*
X2051659D02*
X2053317D01*
X1938343Y1655485D02*
X1944032D01*
X1947659D02*
X1950211D01*
X1954019D02*
X1955498D01*
X1959214D02*
X1961768D01*
X1965395D02*
X1971084D01*
X1980534D02*
X1982192D01*
X1984565D02*
X1986492D01*
X1989940D02*
X1991596D01*
X1994418D02*
X1995987D01*
X1999435D02*
X2001093D01*
X2004720D02*
X2006378D01*
X2008124D02*
X2009692D01*
X2013140D02*
X2014709D01*
X2017261D02*
X2019725D01*
X2027652D02*
X2029308D01*
X2032131D02*
X2033787D01*
X2037147D02*
X2038895D01*
X2042432D02*
X2044090D01*
X2046015D02*
X2047763D01*
X2051659D02*
X2053317D01*
X1938343Y1655574D02*
X1944032D01*
X1947659D02*
X1950211D01*
X1954019D02*
X1955408D01*
X1959214D02*
X1961768D01*
X1965395D02*
X1971084D01*
X1980534D02*
X1982192D01*
X1984565D02*
X1986581D01*
X1989940D02*
X1991596D01*
X1994418D02*
X1995987D01*
X1999435D02*
X2001183D01*
X2004720D02*
X2006378D01*
X2008124D02*
X2009782D01*
X2013051D02*
X2014709D01*
X2017261D02*
X2019815D01*
X2027652D02*
X2029308D01*
X2032131D02*
X2033787D01*
X2037237D02*
X2038895D01*
X2042432D02*
X2044090D01*
X2046015D02*
X2047853D01*
X2051659D02*
X2053317D01*
X1938343Y1655664D02*
X1944032D01*
X1947659D02*
X1950300D01*
X1954108D02*
X1955319D01*
X1959125D02*
X1961768D01*
X1965395D02*
X1971174D01*
X1980534D02*
X1982192D01*
X1984565D02*
X1986671D01*
X1989850D02*
X1991596D01*
X1994418D02*
X1995987D01*
X1999435D02*
X2001183D01*
X2004630D02*
X2006288D01*
X2008124D02*
X2009782D01*
X2013051D02*
X2014709D01*
X2017261D02*
X2019904D01*
X2027652D02*
X2029308D01*
X2032131D02*
X2033787D01*
X2037237D02*
X2038984D01*
X2042432D02*
X2044090D01*
X2046015D02*
X2047853D01*
X2051659D02*
X2053317D01*
X1938253Y1655753D02*
X1944032D01*
X1947659D02*
X1950390D01*
X1954108D02*
X1955319D01*
X1959125D02*
X1961768D01*
X1965395D02*
X1971174D01*
X1980534D02*
X1982192D01*
X1984565D02*
X1986760D01*
X1989850D02*
X1991596D01*
X1994418D02*
X1995987D01*
X1999524D02*
X2001272D01*
X2004630D02*
X2006288D01*
X2008124D02*
X2009782D01*
X2013051D02*
X2014709D01*
X2017261D02*
X2020084D01*
X2027652D02*
X2029308D01*
X2032131D02*
X2033787D01*
X2037237D02*
X2038984D01*
X2042343D02*
X2044090D01*
X2046105D02*
X2047942D01*
X2051659D02*
X2053317D01*
X1938253Y1655843D02*
X1944032D01*
X1947659D02*
X1950390D01*
X1954198D02*
X1955229D01*
X1959035D02*
X1961768D01*
X1965395D02*
X1971174D01*
X1980534D02*
X1982192D01*
X1984565D02*
X1986850D01*
X1989850D02*
X1991596D01*
X1994418D02*
X1995987D01*
X1999524D02*
X2001272D01*
X2004541D02*
X2006288D01*
X2008124D02*
X2009872D01*
X2012961D02*
X2014619D01*
X2017261D02*
X2020173D01*
X2027652D02*
X2029308D01*
X2032131D02*
X2033787D01*
X2037326D02*
X2039074D01*
X2042343D02*
X2044001D01*
X2046105D02*
X2048032D01*
X2051659D02*
X2053317D01*
X1938253Y1655933D02*
X1944032D01*
X1947659D02*
X1950479D01*
X1954287D02*
X1955229D01*
X1959035D02*
X1961768D01*
X1965395D02*
X1971263D01*
X1980534D02*
X1982192D01*
X1984565D02*
X1987029D01*
X1989760D02*
X1991596D01*
X1994418D02*
X1995987D01*
X1999614D02*
X2001362D01*
X2004541D02*
X2006199D01*
X2008214D02*
X2009872D01*
X2012961D02*
X2014619D01*
X2017261D02*
X2020352D01*
X2027562D02*
X2029308D01*
X2032131D02*
X2033787D01*
X2037326D02*
X2039074D01*
X2042253D02*
X2044001D01*
X2046195D02*
X2048032D01*
X2051659D02*
X2053317D01*
X1938163Y1656022D02*
X1944032D01*
X1947659D02*
X1950479D01*
X1954287D02*
X1955139D01*
X1958946D02*
X1961768D01*
X1965395D02*
X1971263D01*
X1980534D02*
X1982192D01*
X1984565D02*
X1987119D01*
X1989760D02*
X1991596D01*
X1994418D02*
X1995987D01*
X1999614D02*
X2001451D01*
X2004451D02*
X2006199D01*
X2008214D02*
X2009961D01*
X2012872D02*
X2014619D01*
X2017261D02*
X2020442D01*
X2023083D02*
X2023398D01*
X2027562D02*
X2029308D01*
X2032131D02*
X2033787D01*
X2037416D02*
X2039164D01*
X2042164D02*
X2043911D01*
X2046195D02*
X2048121D01*
X2051659D02*
X2053317D01*
X1938163Y1656112D02*
X1944032D01*
X1947659D02*
X1950569D01*
X1954377D02*
X1955139D01*
X1958946D02*
X1961768D01*
X1965395D02*
X1971263D01*
X1980534D02*
X1982192D01*
X1984565D02*
X1987208D01*
X1989671D02*
X1991596D01*
X1994418D02*
X1995987D01*
X1999704D02*
X2001451D01*
X2004362D02*
X2006109D01*
X2008214D02*
X2009961D01*
X2012872D02*
X2014530D01*
X2017261D02*
X2020621D01*
X2023083D02*
X2023577D01*
X2027473D02*
X2029308D01*
X2032131D02*
X2033787D01*
X2037416D02*
X2039253D01*
X2042164D02*
X2043911D01*
X2046284D02*
X2048211D01*
X2051659D02*
X2053317D01*
X1938163Y1656201D02*
X1944032D01*
X1947659D02*
X1950569D01*
X1954377D02*
X1955050D01*
X1958856D02*
X1961768D01*
X1965395D02*
X1971263D01*
X1980534D02*
X1982192D01*
X1984565D02*
X1987388D01*
X1989671D02*
X1991506D01*
X1994418D02*
X1995987D01*
X1999704D02*
X2001541D01*
X2004272D02*
X2006109D01*
X2008303D02*
X2010051D01*
X2012782D02*
X2014530D01*
X2017261D02*
X2020800D01*
X2023083D02*
X2023846D01*
X2027383D02*
X2029308D01*
X2032131D02*
X2033787D01*
X2037506D02*
X2039343D01*
X2042074D02*
X2043822D01*
X2046284D02*
X2048390D01*
X2051569D02*
X2053317D01*
X1938163Y1656291D02*
X1944032D01*
X1947659D02*
X1950659D01*
X1954467D02*
X1955050D01*
X1958856D02*
X1961768D01*
X1965395D02*
X1971353D01*
X1980534D02*
X1982192D01*
X1984565D02*
X1987567D01*
X1989581D02*
X1991506D01*
X1994418D02*
X1995987D01*
X1999793D02*
X2001630D01*
X2004182D02*
X2006020D01*
X2008303D02*
X2010140D01*
X2012692D02*
X2014530D01*
X2017261D02*
X2020979D01*
X2023083D02*
X2024025D01*
X2027294D02*
X2029219D01*
X2032131D02*
X2033787D01*
X2037506D02*
X2039432D01*
X2041984D02*
X2043822D01*
X2046374D02*
X2048480D01*
X2051390D02*
X2053317D01*
X1938074Y1656381D02*
X1944032D01*
X1947659D02*
X1950659D01*
X1954467D02*
X1954958D01*
X1958766D02*
X1961768D01*
X1965395D02*
X1971353D01*
X1980534D02*
X1982192D01*
X1984565D02*
X1987746D01*
X1989402D02*
X1991506D01*
X1994418D02*
X1995987D01*
X1999793D02*
X2001810D01*
X2004093D02*
X2006020D01*
X2008393D02*
X2010230D01*
X2012603D02*
X2014440D01*
X2017261D02*
X2021338D01*
X2023083D02*
X2024292D01*
X2027204D02*
X2029219D01*
X2032131D02*
X2033787D01*
X2037595D02*
X2039522D01*
X2041895D02*
X2043732D01*
X2046374D02*
X2048659D01*
X2051121D02*
X2053317D01*
X1938074Y1656470D02*
X1944032D01*
X1947659D02*
X1950748D01*
X1954556D02*
X1954869D01*
X1958677D02*
X1961768D01*
X1965395D02*
X1971353D01*
X1980534D02*
X1982192D01*
X1984565D02*
X1987925D01*
X1989313D02*
X1991506D01*
X1994418D02*
X1995987D01*
X1999883D02*
X2001899D01*
X2004003D02*
X2005930D01*
X2008393D02*
X2010320D01*
X2012513D02*
X2015246D01*
X2017261D02*
X2018740D01*
X2018963D02*
X2021696D01*
X2022994D02*
X2024650D01*
X2027114D02*
X2029219D01*
X2032131D02*
X2033787D01*
X2037595D02*
X2039612D01*
X2041716D02*
X2043732D01*
X2046463D02*
X2048838D01*
X2050853D02*
X2053317D01*
X1938074Y1656560D02*
X1944032D01*
X1947659D02*
X1950838D01*
X1954556D02*
X1954869D01*
X1958677D02*
X1961768D01*
X1965395D02*
X1971441D01*
X1980534D02*
X1982192D01*
X1984565D02*
X1988283D01*
X1989044D02*
X1991417D01*
X1992985D02*
X1998137D01*
X1999883D02*
X2002078D01*
X2003824D02*
X2005930D01*
X2008482D02*
X2010409D01*
X2012424D02*
X2016053D01*
X2017261D02*
X2018740D01*
X2019052D02*
X2022054D01*
X2022994D02*
X2025008D01*
X2026846D02*
X2029129D01*
X2030698D02*
X2035849D01*
X2037685D02*
X2039791D01*
X2041626D02*
X2043643D01*
X2046553D02*
X2049107D01*
X2050405D02*
X2053317D01*
X1938074Y1656649D02*
X1944032D01*
X1947659D02*
X1950838D01*
X1954646D02*
X1954781D01*
X1958587D02*
X1961768D01*
X1965395D02*
X1971441D01*
X1980534D02*
X1982192D01*
X1984565D02*
X1991417D01*
X1992985D02*
X1998137D01*
X1999972D02*
X2002257D01*
X2003645D02*
X2005841D01*
X2008482D02*
X2010499D01*
X2012245D02*
X2016053D01*
X2017261D02*
X2018740D01*
X2019052D02*
X2022054D01*
X2022994D02*
X2025636D01*
X2026487D02*
X2029129D01*
X2030698D02*
X2035849D01*
X2037774D02*
X2039970D01*
X2041447D02*
X2043643D01*
X2046643D02*
X2053317D01*
X1937984Y1656739D02*
X1944032D01*
X1947659D02*
X1950927D01*
X1954735D02*
X1954781D01*
X1958587D02*
X1961768D01*
X1965395D02*
X1971441D01*
X1980534D02*
X1982192D01*
X1984565D02*
X1991417D01*
X1992985D02*
X1998137D01*
X2000062D02*
X2002526D01*
X2003376D02*
X2005751D01*
X2008572D02*
X2010767D01*
X2012065D02*
X2015963D01*
X2017261D02*
X2018740D01*
X2019142D02*
X2022054D01*
X2022994D02*
X2029129D01*
X2030698D02*
X2035849D01*
X2037774D02*
X2040328D01*
X2041089D02*
X2043553D01*
X2046643D02*
X2053317D01*
X1937984Y1656828D02*
X1944032D01*
X1947659D02*
X1950927D01*
X1958498D02*
X1961768D01*
X1965395D02*
X1971441D01*
X1980534D02*
X1982192D01*
X1984565D02*
X1986044D01*
X1986177D02*
X1991327D01*
X1992985D02*
X1998137D01*
X2000151D02*
X2005751D01*
X2008572D02*
X2011036D01*
X2011797D02*
X2015963D01*
X2017261D02*
X2018740D01*
X2019232D02*
X2022054D01*
X2022994D02*
X2029039D01*
X2030698D02*
X2035849D01*
X2037864D02*
X2043463D01*
X2046732D02*
X2053317D01*
X1937984Y1656918D02*
X1944032D01*
X1947659D02*
X1951017D01*
X1958498D02*
X1961768D01*
X1965395D02*
X1971530D01*
X1980534D02*
X1982192D01*
X1984565D02*
X1986044D01*
X1986267D02*
X1991327D01*
X1992985D02*
X1998137D01*
X2000241D02*
X2005661D01*
X2008661D02*
X2015963D01*
X2017261D02*
X2018740D01*
X2019321D02*
X2022054D01*
X2022994D02*
X2029039D01*
X2030698D02*
X2035849D01*
X2037953D02*
X2043463D01*
X2046822D02*
X2053317D01*
X1937984Y1657008D02*
X1944032D01*
X1947659D02*
X1951017D01*
X1958408D02*
X1961768D01*
X1965395D02*
X1971530D01*
X1980534D02*
X1982192D01*
X1984565D02*
X1986044D01*
X1986356D02*
X1991238D01*
X1992985D02*
X1998137D01*
X2000241D02*
X2005572D01*
X2008751D02*
X2015963D01*
X2017261D02*
X2018740D01*
X2019411D02*
X2021965D01*
X2022994D02*
X2028950D01*
X2030698D02*
X2035849D01*
X2038043D02*
X2043374D01*
X2046911D02*
X2053317D01*
X1937895Y1657097D02*
X1944032D01*
X1947659D02*
X1951107D01*
X1958408D02*
X1961768D01*
X1965395D02*
X1971530D01*
X1980534D02*
X1982192D01*
X1984565D02*
X1986044D01*
X1986536D02*
X1991238D01*
X1992985D02*
X1998137D01*
X2000331D02*
X2005482D01*
X2008841D02*
X2015963D01*
X2017261D02*
X2018650D01*
X2019500D02*
X2021965D01*
X2022904D02*
X2028950D01*
X2030698D02*
X2035849D01*
X2038133D02*
X2043284D01*
X2047001D02*
X2053317D01*
X1937895Y1657187D02*
X1944032D01*
X1947659D02*
X1951107D01*
X1958318D02*
X1961768D01*
X1965395D02*
X1971530D01*
X1980534D02*
X1982192D01*
X1984565D02*
X1986044D01*
X1986625D02*
X1991148D01*
X1992985D02*
X1998137D01*
X2000420D02*
X2005393D01*
X2008930D02*
X2015963D01*
X2017261D02*
X2018650D01*
X2019590D02*
X2021965D01*
X2022904D02*
X2028860D01*
X2030698D02*
X2035849D01*
X2038222D02*
X2043195D01*
X2047090D02*
X2053317D01*
X1937895Y1657276D02*
X1944032D01*
X1947659D02*
X1951196D01*
X1958229D02*
X1961768D01*
X1965395D02*
X1971530D01*
X1980534D02*
X1982192D01*
X1984565D02*
X1985954D01*
X1986715D02*
X1991058D01*
X1992985D02*
X1998137D01*
X2000599D02*
X2005303D01*
X2009020D02*
X2015873D01*
X2017261D02*
X2018650D01*
X2019680D02*
X2021965D01*
X2022904D02*
X2028771D01*
X2030698D02*
X2035849D01*
X2038312D02*
X2043105D01*
X2047180D02*
X2053317D01*
X1937895Y1657366D02*
X1944032D01*
X1947659D02*
X1951288D01*
X1958229D02*
X1961768D01*
X1965395D02*
X1971620D01*
X1980534D02*
X1982192D01*
X1984565D02*
X1985954D01*
X1986894D02*
X1991058D01*
X1992985D02*
X1998137D01*
X2000689D02*
X2005214D01*
X2009109D02*
X2015873D01*
X2017261D02*
X2018650D01*
X2019769D02*
X2021965D01*
X2022904D02*
X2028681D01*
X2030698D02*
X2035849D01*
X2038401D02*
X2043016D01*
X2047359D02*
X2053317D01*
X1937805Y1657455D02*
X1944032D01*
X1947659D02*
X1951288D01*
X1958139D02*
X1961768D01*
X1965395D02*
X1971620D01*
X1980534D02*
X1982192D01*
X1984565D02*
X1985954D01*
X1986983D02*
X1990969D01*
X1992985D02*
X1998137D01*
X2000779D02*
X2005124D01*
X2009199D02*
X2013544D01*
X2013767D02*
X2015873D01*
X2017261D02*
X2018650D01*
X2019948D02*
X2021965D01*
X2022994D02*
X2028592D01*
X2030698D02*
X2035849D01*
X2038580D02*
X2042836D01*
X2047449D02*
X2053317D01*
X1937805Y1657545D02*
X1944032D01*
X1947659D02*
X1951377D01*
X1958139D02*
X1961768D01*
X1965395D02*
X1971620D01*
X1980534D02*
X1982192D01*
X1984565D02*
X1985954D01*
X1987163D02*
X1990879D01*
X1992985D02*
X1998137D01*
X2000868D02*
X2004945D01*
X2009378D02*
X2013455D01*
X2014036D02*
X2015873D01*
X2017261D02*
X2018650D01*
X2020038D02*
X2021875D01*
X2023263D02*
X2028502D01*
X2030698D02*
X2035849D01*
X2038670D02*
X2042747D01*
X2047628D02*
X2053317D01*
X1937805Y1657635D02*
X1944032D01*
X1947659D02*
X1951377D01*
X1958050D02*
X1961768D01*
X1965395D02*
X1971620D01*
X1980534D02*
X1982192D01*
X1984565D02*
X1985954D01*
X1987252D02*
X1990700D01*
X1992985D02*
X1998137D01*
X2001047D02*
X2004855D01*
X2009468D02*
X2013276D01*
X2014305D02*
X2015873D01*
X2017261D02*
X2018561D01*
X2020217D02*
X2021875D01*
X2023531D02*
X2028323D01*
X2030698D02*
X2035849D01*
X2038849D02*
X2042568D01*
X2047807D02*
X2053317D01*
X1937805Y1657724D02*
X1944032D01*
X1947659D02*
X1951467D01*
X1958050D02*
X1961768D01*
X1965395D02*
X1971620D01*
X1980534D02*
X1982192D01*
X1984565D02*
X1985954D01*
X1987431D02*
X1990610D01*
X1992985D02*
X1998137D01*
X2001226D02*
X2004676D01*
X2009647D02*
X2013096D01*
X2014574D02*
X2015873D01*
X2017261D02*
X2018561D01*
X2020307D02*
X2021875D01*
X2023800D02*
X2028233D01*
X2030698D02*
X2035849D01*
X2038939D02*
X2042478D01*
X2047986D02*
X2053317D01*
X1937805Y1657814D02*
X1944032D01*
X1947659D02*
X1951467D01*
X1957960D02*
X1961768D01*
X1965395D02*
X1971709D01*
X1980534D02*
X1982192D01*
X1984565D02*
X1985865D01*
X1987700D02*
X1990431D01*
X1992985D02*
X1998137D01*
X2001406D02*
X2004497D01*
X2009826D02*
X2012917D01*
X2014932D02*
X2015784D01*
X2017261D02*
X2018561D01*
X2020486D02*
X2021875D01*
X2024069D02*
X2028054D01*
X2030698D02*
X2035849D01*
X2039118D02*
X2042299D01*
X2048165D02*
X2051346D01*
X2051659D02*
X2053317D01*
X1937805Y1657903D02*
X1944032D01*
X1947659D02*
X1951554D01*
X1957960D02*
X1961768D01*
X1965395D02*
X1971709D01*
X1980534D02*
X1982192D01*
X1984565D02*
X1985865D01*
X1987879D02*
X1990252D01*
X1992985D02*
X1998137D01*
X2001585D02*
X2004318D01*
X2010095D02*
X2012738D01*
X2015201D02*
X2015784D01*
X2017261D02*
X2018561D01*
X2020754D02*
X2021875D01*
X2024338D02*
X2027785D01*
X2030698D02*
X2035849D01*
X2039387D02*
X2042030D01*
X2048434D02*
X2050988D01*
X2051659D02*
X2053317D01*
X1937716Y1657993D02*
X1944032D01*
X1947659D02*
X1951554D01*
X1957871D02*
X1961768D01*
X1965395D02*
X1971709D01*
X1988148D02*
X1990073D01*
X1994418D02*
X1995987D01*
X2001943D02*
X2003959D01*
X2010363D02*
X2012469D01*
X2015469D02*
X2015784D01*
X2021023D02*
X2021875D01*
X2024785D02*
X2027517D01*
X2032131D02*
X2033787D01*
X2039655D02*
X2041761D01*
X2048792D02*
X2050450D01*
X2051659D02*
X2053317D01*
X1937716Y1658083D02*
X1944032D01*
X1947659D02*
X1951644D01*
X1957781D02*
X1961768D01*
X1965395D02*
X1971709D01*
X1988596D02*
X1989625D01*
X1994418D02*
X1995987D01*
X2002301D02*
X2003512D01*
X2010811D02*
X2012021D01*
X2021381D02*
X2021786D01*
X2025413D02*
X2026979D01*
X2032131D02*
X2033787D01*
X2040103D02*
X2041314D01*
X2051659D02*
X2053317D01*
X1937716Y1658172D02*
X1944032D01*
X1947659D02*
X1951734D01*
X1957781D02*
X1961768D01*
X1965395D02*
X1971709D01*
X1994418D02*
X1995987D01*
X2032131D02*
X2033787D01*
X2051659D02*
X2053317D01*
X1937716Y1658262D02*
X1944032D01*
X1947659D02*
X1951734D01*
X1957691D02*
X1961768D01*
X1965395D02*
X1971709D01*
X1994418D02*
X1995987D01*
X2032131D02*
X2033787D01*
X2051659D02*
X2053317D01*
X1937716Y1658351D02*
X1944032D01*
X1947659D02*
X1951823D01*
X1957691D02*
X1961768D01*
X1965395D02*
X1971799D01*
X1994418D02*
X1995987D01*
X2032131D02*
X2033787D01*
X2051659D02*
X2053317D01*
X1937716Y1658441D02*
X1944032D01*
X1947659D02*
X1951823D01*
X1957602D02*
X1961768D01*
X1965395D02*
X1971799D01*
X1994418D02*
X1995987D01*
X2032131D02*
X2033787D01*
X2051659D02*
X2053317D01*
X1937626Y1658530D02*
X1944032D01*
X1947659D02*
X1951913D01*
X1957602D02*
X1961768D01*
X1965395D02*
X1971799D01*
X1994418D02*
X1995987D01*
X2032131D02*
X2033787D01*
X2051659D02*
X2053317D01*
X1937626Y1658620D02*
X1944032D01*
X1947659D02*
X1951913D01*
X1957512D02*
X1961768D01*
X1965395D02*
X1971799D01*
X1994418D02*
X1995987D01*
X2032131D02*
X2033787D01*
X2051659D02*
X2053317D01*
X1937626Y1658710D02*
X1944032D01*
X1947659D02*
X1952002D01*
X1957512D02*
X1961768D01*
X1965395D02*
X1971799D01*
X1994418D02*
X1995987D01*
X2032131D02*
X2033787D01*
X2051659D02*
X2053317D01*
X1937626Y1658799D02*
X1944032D01*
X1947659D02*
X1952002D01*
X1957423D02*
X1961768D01*
X1965395D02*
X1971799D01*
X1994418D02*
X1995987D01*
X2032131D02*
X2033787D01*
X2051659D02*
X2053317D01*
X1937626Y1658889D02*
X1944032D01*
X1947659D02*
X1952092D01*
X1957333D02*
X1961768D01*
X1965395D02*
X1971799D01*
X1994418D02*
X1995987D01*
X2032131D02*
X2033787D01*
X2051659D02*
X2053317D01*
X1937626Y1658978D02*
X1944032D01*
X1947659D02*
X1952181D01*
X1957333D02*
X1961768D01*
X1965395D02*
X1971889D01*
X1994418D02*
X1995987D01*
X2032131D02*
X2033787D01*
X2051659D02*
X2053317D01*
X1937626Y1659068D02*
X1944032D01*
X1947659D02*
X1952181D01*
X1957244D02*
X1961768D01*
X1965395D02*
X1971889D01*
X1994418D02*
X1995987D01*
X2032131D02*
X2033787D01*
X2051659D02*
X2053317D01*
X1937626Y1659157D02*
X1944032D01*
X1947659D02*
X1952271D01*
X1957244D02*
X1961768D01*
X1965395D02*
X1971889D01*
X1994418D02*
X1995987D01*
X2032131D02*
X2033787D01*
X2051659D02*
X2053317D01*
X1937536Y1659247D02*
X1944032D01*
X1947659D02*
X1952271D01*
X1957154D02*
X1961768D01*
X1965395D02*
X1971889D01*
X1994418D02*
X1995987D01*
X2032131D02*
X2033787D01*
X2051659D02*
X2053317D01*
X1937536Y1659337D02*
X1944032D01*
X1947659D02*
X1952361D01*
X1957154D02*
X1961768D01*
X1965395D02*
X1971889D01*
X1994418D02*
X1995987D01*
X2032131D02*
X2033787D01*
X2051659D02*
X2053317D01*
X1937536Y1659426D02*
X1944032D01*
X1947659D02*
X1952361D01*
X1957064D02*
X1961768D01*
X1965395D02*
X1971889D01*
X1994418D02*
X1995987D01*
X2032131D02*
X2033787D01*
X2051659D02*
X2053317D01*
X1937536Y1659516D02*
X1944032D01*
X1947659D02*
X1952450D01*
X1957064D02*
X1961768D01*
X1965395D02*
X1971889D01*
X1994418D02*
X1995987D01*
X2032131D02*
X2033787D01*
X2051659D02*
X2053317D01*
X1937536Y1659605D02*
X1944032D01*
X1947659D02*
X1952450D01*
X1956975D02*
X1961768D01*
X1965395D02*
X1971889D01*
X1981071D02*
X1981655D01*
X1994418D02*
X1995987D01*
X2032131D02*
X2033787D01*
X2051659D02*
X2053317D01*
X1937536Y1659695D02*
X1944032D01*
X1947659D02*
X1952542D01*
X1956885D02*
X1961768D01*
X1965395D02*
X1971889D01*
X1980803D02*
X1981834D01*
X1994418D02*
X1995987D01*
X2032131D02*
X2033787D01*
X2051659D02*
X2053317D01*
X1937536Y1659784D02*
X1944032D01*
X1947659D02*
X1952631D01*
X1956885D02*
X1961768D01*
X1965395D02*
X1971889D01*
X1980713D02*
X1982013D01*
X1994418D02*
X1995987D01*
X2032131D02*
X2033787D01*
X2051659D02*
X2053317D01*
X1937536Y1659874D02*
X1944032D01*
X1947659D02*
X1952631D01*
X1956796D02*
X1961768D01*
X1965395D02*
X1971889D01*
X1980623D02*
X1982102D01*
X1994418D02*
X1995987D01*
X2032131D02*
X2033787D01*
X2051659D02*
X2053317D01*
X1937536Y1659964D02*
X1944032D01*
X1947659D02*
X1952719D01*
X1956796D02*
X1961768D01*
X1965395D02*
X1971889D01*
X1980534D02*
X1982192D01*
X1994418D02*
X1995987D01*
X2032131D02*
X2033787D01*
X2051659D02*
X2053317D01*
X1937536Y1660053D02*
X1944032D01*
X1947659D02*
X1952719D01*
X1956706D02*
X1961768D01*
X1965395D02*
X1971978D01*
X1980444D02*
X1982192D01*
X1994418D02*
X1995987D01*
X2032131D02*
X2033787D01*
X2051659D02*
X2053317D01*
X1937536Y1660143D02*
X1944032D01*
X1947659D02*
X1952809D01*
X1956706D02*
X1961768D01*
X1965395D02*
X1971978D01*
X1980444D02*
X1982282D01*
X1994418D02*
X1995987D01*
X2032131D02*
X2033787D01*
X2051659D02*
X2053317D01*
X1937536Y1660232D02*
X1944032D01*
X1947659D02*
X1952809D01*
X1956617D02*
X1961768D01*
X1965395D02*
X1971978D01*
X1980355D02*
X1982282D01*
X1994418D02*
X1995987D01*
X2032131D02*
X2033787D01*
X2051659D02*
X2053317D01*
X1937536Y1660322D02*
X1944032D01*
X1947659D02*
X1952898D01*
X1956617D02*
X1961768D01*
X1965395D02*
X1971978D01*
X1980355D02*
X1982371D01*
X1994418D02*
X1995987D01*
X2032131D02*
X2033787D01*
X2051659D02*
X2053317D01*
X1937536Y1660412D02*
X1944032D01*
X1947659D02*
X1952898D01*
X1956706D02*
X1961768D01*
X1965395D02*
X1971978D01*
X1980355D02*
X1982371D01*
X1994418D02*
X1995987D01*
X2032131D02*
X2033787D01*
X2051659D02*
X2053317D01*
X1937536Y1660501D02*
X1944032D01*
X1947659D02*
X1952988D01*
X1956796D02*
X1961768D01*
X1965395D02*
X1971978D01*
X1980265D02*
X1982371D01*
X1994418D02*
X1995987D01*
X2032131D02*
X2033787D01*
X2051659D02*
X2053317D01*
X1937536Y1660591D02*
X1944032D01*
X1947659D02*
X1953077D01*
X1956796D02*
X1961768D01*
X1965395D02*
X1971978D01*
X1980265D02*
X1982371D01*
X1994418D02*
X1995987D01*
X2032131D02*
X2033787D01*
X2051659D02*
X2053317D01*
X1937536Y1660680D02*
X1944032D01*
X1947659D02*
X1953077D01*
X1956885D02*
X1961768D01*
X1965395D02*
X1971978D01*
X1980265D02*
X1982371D01*
X2051659D02*
X2053317D01*
X1937536Y1660770D02*
X1944032D01*
X1947659D02*
X1953169D01*
X1956885D02*
X1961768D01*
X1965395D02*
X1971978D01*
X1980355D02*
X1982371D01*
X2051659D02*
X2053317D01*
X1937536Y1660859D02*
X1944032D01*
X1947659D02*
X1953169D01*
X1956975D02*
X1961768D01*
X1965395D02*
X1971978D01*
X1980355D02*
X1982371D01*
X2051659D02*
X2053317D01*
X1937536Y1660949D02*
X1944032D01*
X1947659D02*
X1953256D01*
X1956975D02*
X1961768D01*
X1965395D02*
X1971978D01*
X1980355D02*
X1982371D01*
X2051659D02*
X2053317D01*
X1937536Y1661039D02*
X1944032D01*
X1947659D02*
X1953256D01*
X1957064D02*
X1961768D01*
X1965395D02*
X1971978D01*
X1980355D02*
X1982282D01*
X2051659D02*
X2053317D01*
X1937536Y1661128D02*
X1944032D01*
X1947659D02*
X1953346D01*
X1957064D02*
X1961768D01*
X1965395D02*
X1971978D01*
X1980444D02*
X1982282D01*
X2051659D02*
X2053317D01*
X1937536Y1661218D02*
X1944032D01*
X1947659D02*
X1953346D01*
X1957154D02*
X1961768D01*
X1965395D02*
X1971978D01*
X1980444D02*
X1982192D01*
X2051659D02*
X2053317D01*
X1937536Y1661307D02*
X1944032D01*
X1947659D02*
X1953437D01*
X1957244D02*
X1961768D01*
X1965395D02*
X1971978D01*
X1980534D02*
X1982192D01*
X2051659D02*
X2053317D01*
X1937536Y1661397D02*
X1944032D01*
X1947659D02*
X1953525D01*
X1957244D02*
X1961768D01*
X1965395D02*
X1971978D01*
X1980623D02*
X1982102D01*
X2051659D02*
X2053317D01*
X1937536Y1661486D02*
X1944032D01*
X1947659D02*
X1953525D01*
X1957333D02*
X1961768D01*
X1965395D02*
X1971978D01*
X1980713D02*
X1982013D01*
X2051659D02*
X2053317D01*
X1937536Y1661576D02*
X1944032D01*
X1947659D02*
X1953615D01*
X1957333D02*
X1961768D01*
X1965395D02*
X1971978D01*
X1980892D02*
X1981834D01*
X2051659D02*
X2053317D01*
X1937536Y1661666D02*
X1944032D01*
X1947659D02*
X1953615D01*
X1957423D02*
X1961768D01*
X1965395D02*
X1971978D01*
X1981071D02*
X1981565D01*
X2051659D02*
X2053317D01*
X1937536Y1661755D02*
X1944032D01*
X1947659D02*
X1953704D01*
X1957423D02*
X1961768D01*
X1965395D02*
X1971978D01*
X2051659D02*
X2053317D01*
X1937536Y1661845D02*
X1944032D01*
X1947659D02*
X1953704D01*
X1957512D02*
X1961768D01*
X1965395D02*
X1971978D01*
X2051659D02*
X2053317D01*
X1937536Y1661934D02*
X1944032D01*
X1947659D02*
X1951913D01*
X1952048D02*
X1953796D01*
X1957512D02*
X1961768D01*
X1965395D02*
X1971978D01*
X2051659D02*
X2053317D01*
X1937536Y1662024D02*
X1944032D01*
X1947659D02*
X1951823D01*
X1952048D02*
X1953796D01*
X1957602D02*
X1961768D01*
X1965395D02*
X1971889D01*
X1937536Y1662114D02*
X1944032D01*
X1947659D02*
X1951823D01*
X1952138D02*
X1953885D01*
X1957691D02*
X1961768D01*
X1965395D02*
X1971889D01*
X1937536Y1662203D02*
X1944032D01*
X1947659D02*
X1951734D01*
X1952138D02*
X1953975D01*
X1957691D02*
X1961768D01*
X1965395D02*
X1971889D01*
X1937536Y1662293D02*
X1944032D01*
X1947659D02*
X1951734D01*
X1952227D02*
X1953975D01*
X1957781D02*
X1961768D01*
X1965395D02*
X1971889D01*
X1937536Y1662382D02*
X1944032D01*
X1947659D02*
X1951644D01*
X1952227D02*
X1954063D01*
X1957781D02*
X1961768D01*
X1965395D02*
X1971889D01*
X1937536Y1662472D02*
X1944032D01*
X1947659D02*
X1951644D01*
X1952317D02*
X1954063D01*
X1957871D02*
X1961768D01*
X1965395D02*
X1971889D01*
X1937536Y1662561D02*
X1944032D01*
X1947659D02*
X1951554D01*
X1952317D02*
X1954154D01*
X1957871D02*
X1961768D01*
X1965395D02*
X1971889D01*
X1937536Y1662651D02*
X1944032D01*
X1947659D02*
X1951554D01*
X1952406D02*
X1954154D01*
X1957960D02*
X1961768D01*
X1965395D02*
X1971889D01*
X1937536Y1662741D02*
X1944032D01*
X1947659D02*
X1951467D01*
X1952496D02*
X1954244D01*
X1957960D02*
X1961768D01*
X1965395D02*
X1971889D01*
X1937626Y1662830D02*
X1944032D01*
X1947659D02*
X1951377D01*
X1952496D02*
X1954244D01*
X1958050D02*
X1961768D01*
X1965395D02*
X1971889D01*
X1937626Y1662920D02*
X1944032D01*
X1947659D02*
X1951377D01*
X1952585D02*
X1954331D01*
X1958139D02*
X1961768D01*
X1965395D02*
X1971889D01*
X1937626Y1663009D02*
X1944032D01*
X1947659D02*
X1951288D01*
X1952585D02*
X1954423D01*
X1958139D02*
X1961768D01*
X1965395D02*
X1971889D01*
X1937626Y1663099D02*
X1944032D01*
X1947659D02*
X1951288D01*
X1952675D02*
X1954423D01*
X1958229D02*
X1961768D01*
X1965395D02*
X1971799D01*
X1937626Y1663188D02*
X1944032D01*
X1947659D02*
X1951196D01*
X1952675D02*
X1954512D01*
X1958229D02*
X1961768D01*
X1965395D02*
X1971799D01*
X1937626Y1663278D02*
X1944032D01*
X1947659D02*
X1951196D01*
X1952765D02*
X1954512D01*
X1958318D02*
X1961768D01*
X1965395D02*
X1971799D01*
X1937626Y1663368D02*
X1944032D01*
X1947659D02*
X1951107D01*
X1952765D02*
X1954602D01*
X1958318D02*
X1961768D01*
X1965395D02*
X1971799D01*
X1937626Y1663457D02*
X1944032D01*
X1947659D02*
X1951107D01*
X1952854D02*
X1954602D01*
X1958408D02*
X1961768D01*
X1965395D02*
X1971799D01*
X1937716Y1663547D02*
X1944032D01*
X1947659D02*
X1951017D01*
X1952854D02*
X1954691D01*
X1958408D02*
X1961768D01*
X1965395D02*
X1971799D01*
X1937716Y1663636D02*
X1944032D01*
X1947659D02*
X1950927D01*
X1952944D02*
X1954691D01*
X1958498D02*
X1961768D01*
X1965395D02*
X1971799D01*
X1937716Y1663726D02*
X1944032D01*
X1947659D02*
X1950927D01*
X1953033D02*
X1954781D01*
X1958587D02*
X1961768D01*
X1965395D02*
X1971709D01*
X1996568D02*
X1997599D01*
X1937716Y1663816D02*
X1944032D01*
X1947659D02*
X1950838D01*
X1953033D02*
X1954869D01*
X1958587D02*
X1961768D01*
X1965395D02*
X1971709D01*
X1996120D02*
X1998047D01*
X1937716Y1663905D02*
X1944032D01*
X1947659D02*
X1950838D01*
X1953123D02*
X1954869D01*
X1958677D02*
X1961768D01*
X1965395D02*
X1971709D01*
X1980534D02*
X1982192D01*
X1985819D02*
X1987388D01*
X1991014D02*
X1992671D01*
X1995852D02*
X1998406D01*
X2000241D02*
X2001541D01*
X2002749D02*
X2004497D01*
X2008751D02*
X2010588D01*
X2011886D02*
X2013544D01*
X2015917D02*
X2017575D01*
X2021202D02*
X2022860D01*
X2026487D02*
X2028054D01*
X1937716Y1663995D02*
X1944032D01*
X1947659D02*
X1950748D01*
X1953123D02*
X1954958D01*
X1958677D02*
X1961768D01*
X1965395D02*
X1971709D01*
X1980534D02*
X1982192D01*
X1985819D02*
X1987388D01*
X1991014D02*
X1992671D01*
X1995673D02*
X1998585D01*
X2000151D02*
X2001541D01*
X2002749D02*
X2004586D01*
X2008661D02*
X2010588D01*
X2011886D02*
X2013544D01*
X2015917D02*
X2017575D01*
X2021202D02*
X2022860D01*
X2026487D02*
X2028054D01*
X1937805Y1664084D02*
X1944032D01*
X1947659D02*
X1950748D01*
X1953213D02*
X1954958D01*
X1958766D02*
X1961768D01*
X1965395D02*
X1971709D01*
X1980534D02*
X1982192D01*
X1985819D02*
X1987388D01*
X1991014D02*
X1992671D01*
X1995493D02*
X1998854D01*
X2000151D02*
X2001541D01*
X2002749D02*
X2004676D01*
X2008572D02*
X2010499D01*
X2011886D02*
X2013544D01*
X2015917D02*
X2017575D01*
X2021202D02*
X2022860D01*
X2026487D02*
X2028054D01*
X1937805Y1664174D02*
X1944032D01*
X1947659D02*
X1950659D01*
X1953213D02*
X1955050D01*
X1958766D02*
X1961768D01*
X1965395D02*
X1971709D01*
X1980534D02*
X1982192D01*
X1985819D02*
X1987388D01*
X1991014D02*
X1992671D01*
X1995404D02*
X1998943D01*
X2000151D02*
X2001541D01*
X2002839D02*
X2004676D01*
X2008572D02*
X2010499D01*
X2011886D02*
X2013544D01*
X2015917D02*
X2017575D01*
X2021202D02*
X2022860D01*
X2026487D02*
X2028054D01*
X1937805Y1664263D02*
X1944032D01*
X1947659D02*
X1950659D01*
X1953302D02*
X1955050D01*
X1958856D02*
X1961768D01*
X1965395D02*
X1971620D01*
X1980534D02*
X1982192D01*
X1985819D02*
X1987388D01*
X1991014D02*
X1992671D01*
X1995314D02*
X1999122D01*
X2000151D02*
X2001541D01*
X2002928D02*
X2004766D01*
X2008482D02*
X2010409D01*
X2011886D02*
X2013544D01*
X2015917D02*
X2017575D01*
X2021202D02*
X2022860D01*
X2026487D02*
X2028054D01*
X1937805Y1664353D02*
X1944032D01*
X1947659D02*
X1950569D01*
X1953302D02*
X1955139D01*
X1958856D02*
X1961768D01*
X1965395D02*
X1971620D01*
X1980534D02*
X1982192D01*
X1985819D02*
X1987388D01*
X1991014D02*
X1992671D01*
X1995135D02*
X1999301D01*
X2000151D02*
X2001541D01*
X2003018D02*
X2004855D01*
X2008393D02*
X2010320D01*
X2011886D02*
X2013544D01*
X2015917D02*
X2017575D01*
X2021202D02*
X2022860D01*
X2026487D02*
X2028054D01*
X1937805Y1664443D02*
X1944032D01*
X1947659D02*
X1950479D01*
X1953392D02*
X1955139D01*
X1958946D02*
X1961768D01*
X1965395D02*
X1971620D01*
X1980534D02*
X1982192D01*
X1985819D02*
X1987388D01*
X1991014D02*
X1992671D01*
X1995046D02*
X1999391D01*
X2000151D02*
X2001541D01*
X2003018D02*
X2004855D01*
X2008393D02*
X2010320D01*
X2011886D02*
X2013544D01*
X2015917D02*
X2017575D01*
X2021202D02*
X2022860D01*
X2026487D02*
X2028054D01*
X1937895Y1664532D02*
X1944032D01*
X1947659D02*
X1950479D01*
X1953481D02*
X1955229D01*
X1959035D02*
X1961768D01*
X1965395D02*
X1971620D01*
X1980534D02*
X1982192D01*
X1985819D02*
X1987388D01*
X1991014D02*
X1992671D01*
X1995046D02*
X1999570D01*
X2000062D02*
X2001541D01*
X2003108D02*
X2004945D01*
X2008303D02*
X2010230D01*
X2011886D02*
X2013544D01*
X2015917D02*
X2017575D01*
X2021202D02*
X2022860D01*
X2026487D02*
X2028054D01*
X1937895Y1664622D02*
X1944032D01*
X1947659D02*
X1950390D01*
X1953481D02*
X1955319D01*
X1959035D02*
X1961768D01*
X1965395D02*
X1971620D01*
X1980534D02*
X1982192D01*
X1985819D02*
X1987388D01*
X1991014D02*
X1992671D01*
X1994956D02*
X1999660D01*
X2000062D02*
X2001541D01*
X2003197D02*
X2005034D01*
X2008214D02*
X2010140D01*
X2011886D02*
X2013544D01*
X2015917D02*
X2017575D01*
X2021202D02*
X2022860D01*
X2026487D02*
X2028054D01*
X1937895Y1664711D02*
X1944032D01*
X1947659D02*
X1950390D01*
X1953571D02*
X1955319D01*
X1959125D02*
X1961768D01*
X1965395D02*
X1971530D01*
X1980534D02*
X1982192D01*
X1985819D02*
X1987388D01*
X1991014D02*
X1992671D01*
X1994866D02*
X1999749D01*
X2000062D02*
X2001541D01*
X2003197D02*
X2005034D01*
X2008214D02*
X2010140D01*
X2011886D02*
X2013544D01*
X2015917D02*
X2017575D01*
X2021202D02*
X2022860D01*
X2026487D02*
X2028054D01*
X1937895Y1664801D02*
X1944032D01*
X1947659D02*
X1950300D01*
X1953571D02*
X1955408D01*
X1959125D02*
X1961768D01*
X1965395D02*
X1971530D01*
X1980534D02*
X1982192D01*
X1985819D02*
X1987388D01*
X1991014D02*
X1992671D01*
X1994866D02*
X1999839D01*
X2000062D02*
X2001541D01*
X2003287D02*
X2005124D01*
X2008124D02*
X2010051D01*
X2011886D02*
X2013544D01*
X2015917D02*
X2017575D01*
X2021202D02*
X2022860D01*
X2026487D02*
X2028054D01*
X1937895Y1664890D02*
X1944032D01*
X1947659D02*
X1950300D01*
X1953660D02*
X1955408D01*
X1959214D02*
X1961768D01*
X1965395D02*
X1971530D01*
X1980534D02*
X1982192D01*
X1985819D02*
X1987388D01*
X1991014D02*
X1992671D01*
X1994777D02*
X1999928D01*
X2000062D02*
X2001541D01*
X2003376D02*
X2005214D01*
X2008034D02*
X2009961D01*
X2011886D02*
X2013544D01*
X2015917D02*
X2017575D01*
X2021202D02*
X2022860D01*
X2026487D02*
X2028054D01*
X1937984Y1664980D02*
X1944032D01*
X1947659D02*
X1950211D01*
X1953660D02*
X1955498D01*
X1959214D02*
X1961768D01*
X1965395D02*
X1971530D01*
X1980534D02*
X1982192D01*
X1985819D02*
X1987388D01*
X1991014D02*
X1992671D01*
X1994687D02*
X2001541D01*
X2003376D02*
X2005214D01*
X2008034D02*
X2009872D01*
X2011886D02*
X2013544D01*
X2015917D02*
X2017575D01*
X2021202D02*
X2022860D01*
X2026487D02*
X2028054D01*
X1937984Y1665070D02*
X1944032D01*
X1947659D02*
X1950211D01*
X1953750D02*
X1955498D01*
X1959304D02*
X1961768D01*
X1965395D02*
X1971441D01*
X1980534D02*
X1982192D01*
X1985819D02*
X1987388D01*
X1991014D02*
X1992671D01*
X1994687D02*
X2001541D01*
X2003466D02*
X2005303D01*
X2007945D02*
X2009872D01*
X2011886D02*
X2013544D01*
X2015917D02*
X2017575D01*
X2021202D02*
X2022860D01*
X2026487D02*
X2028054D01*
X1937984Y1665159D02*
X1944032D01*
X1947659D02*
X1950121D01*
X1953750D02*
X1955587D01*
X1959304D02*
X1961768D01*
X1965395D02*
X1971441D01*
X1980534D02*
X1982192D01*
X1985819D02*
X1987388D01*
X1991014D02*
X1992671D01*
X1994687D02*
X1996972D01*
X1997912D02*
X2001541D01*
X2003555D02*
X2005393D01*
X2007855D02*
X2009782D01*
X2011886D02*
X2013544D01*
X2015917D02*
X2017575D01*
X2021202D02*
X2022860D01*
X2026487D02*
X2028054D01*
X1937984Y1665249D02*
X1944032D01*
X1947659D02*
X1950032D01*
X1953840D02*
X1955587D01*
X1959393D02*
X1961768D01*
X1965395D02*
X1971441D01*
X1980534D02*
X1982192D01*
X1985819D02*
X1987388D01*
X1991014D02*
X1992671D01*
X1994598D02*
X1996704D01*
X1998270D02*
X2001541D01*
X2003555D02*
X2005393D01*
X2007855D02*
X2009692D01*
X2011886D02*
X2013544D01*
X2015917D02*
X2017575D01*
X2021202D02*
X2022860D01*
X2026487D02*
X2028054D01*
X1938074Y1665338D02*
X1944032D01*
X1947659D02*
X1950032D01*
X1953840D02*
X1955677D01*
X1959483D02*
X1961768D01*
X1965395D02*
X1971441D01*
X1980534D02*
X1982192D01*
X1985819D02*
X1987388D01*
X1991014D02*
X1992671D01*
X1994598D02*
X1996524D01*
X1998539D02*
X2001541D01*
X2003645D02*
X2005482D01*
X2007766D02*
X2009692D01*
X2011886D02*
X2013544D01*
X2015917D02*
X2017575D01*
X2021202D02*
X2022860D01*
X2026487D02*
X2028054D01*
X1938074Y1665428D02*
X1944032D01*
X1947659D02*
X1949942D01*
X1953750D02*
X1955766D01*
X1959483D02*
X1961768D01*
X1965395D02*
X1971353D01*
X1980534D02*
X1982192D01*
X1985819D02*
X1987388D01*
X1991014D02*
X1992671D01*
X1994598D02*
X1996435D01*
X1998718D02*
X2001541D01*
X2003735D02*
X2005572D01*
X2007676D02*
X2009603D01*
X2011886D02*
X2013544D01*
X2015917D02*
X2017575D01*
X2021202D02*
X2022860D01*
X2026487D02*
X2028054D01*
X1938074Y1665517D02*
X1944032D01*
X1947659D02*
X1949942D01*
X1953750D02*
X1955766D01*
X1959573D02*
X1961768D01*
X1965395D02*
X1971353D01*
X1980534D02*
X1982192D01*
X1985819D02*
X1987388D01*
X1991014D02*
X1992671D01*
X1994598D02*
X1996345D01*
X1998897D02*
X2001541D01*
X2003824D02*
X2005572D01*
X2007676D02*
X2009513D01*
X2011886D02*
X2013544D01*
X2015917D02*
X2017575D01*
X2021202D02*
X2022860D01*
X2026487D02*
X2028054D01*
X1938074Y1665607D02*
X1944032D01*
X1947659D02*
X1949852D01*
X1953660D02*
X1955856D01*
X1959573D02*
X1961768D01*
X1965395D02*
X1971353D01*
X1980534D02*
X1982192D01*
X1985819D02*
X1987388D01*
X1991014D02*
X1992671D01*
X1994508D02*
X1996345D01*
X1998987D02*
X2001541D01*
X2003824D02*
X2005661D01*
X2007586D02*
X2009513D01*
X2011886D02*
X2013544D01*
X2015917D02*
X2017575D01*
X2021202D02*
X2022860D01*
X2026487D02*
X2028054D01*
X1938163Y1665697D02*
X1944032D01*
X1947659D02*
X1949852D01*
X1953571D02*
X1955856D01*
X1959662D02*
X1961768D01*
X1965395D02*
X1971353D01*
X1980534D02*
X1982192D01*
X1985819D02*
X1987388D01*
X1991014D02*
X1992671D01*
X1994508D02*
X1996256D01*
X1999166D02*
X2001541D01*
X2003914D02*
X2005751D01*
X2007497D02*
X2009424D01*
X2011886D02*
X2013544D01*
X2015917D02*
X2017575D01*
X2021202D02*
X2022860D01*
X2026487D02*
X2028054D01*
X1938163Y1665786D02*
X1944032D01*
X1947659D02*
X1949763D01*
X1953571D02*
X1955946D01*
X1959662D02*
X1961768D01*
X1965395D02*
X1971263D01*
X1980534D02*
X1982192D01*
X1985819D02*
X1987388D01*
X1991014D02*
X1992671D01*
X1994508D02*
X1996256D01*
X1999256D02*
X2001541D01*
X2004003D02*
X2005751D01*
X2007497D02*
X2009334D01*
X2011886D02*
X2013544D01*
X2015917D02*
X2017575D01*
X2021202D02*
X2022860D01*
X2026487D02*
X2028054D01*
X1938163Y1665876D02*
X1944032D01*
X1947659D02*
X1949673D01*
X1953481D02*
X1955946D01*
X1959752D02*
X1961768D01*
X1965395D02*
X1971263D01*
X1980534D02*
X1982192D01*
X1985819D02*
X1987388D01*
X1991014D02*
X1992671D01*
X1994508D02*
X1996166D01*
X1999435D02*
X2001541D01*
X2004003D02*
X2005841D01*
X2007407D02*
X2009245D01*
X2011886D02*
X2013544D01*
X2015917D02*
X2017575D01*
X2021202D02*
X2022860D01*
X2026487D02*
X2028054D01*
X1938253Y1665965D02*
X1944032D01*
X1953481D02*
X1956033D01*
X1965395D02*
X1971263D01*
X1980534D02*
X1982192D01*
X1985819D02*
X1987388D01*
X1991014D02*
X1992671D01*
X1994508D02*
X1996166D01*
X1999524D02*
X2001541D01*
X2004093D02*
X2005930D01*
X2007318D02*
X2009245D01*
X2011886D02*
X2013544D01*
X2015917D02*
X2017575D01*
X2021202D02*
X2022860D01*
X2026487D02*
X2028054D01*
X1938253Y1666055D02*
X1944032D01*
X1953392D02*
X1956033D01*
X1965395D02*
X1971174D01*
X1980534D02*
X1982192D01*
X1985819D02*
X1987388D01*
X1991014D02*
X1992671D01*
X1994508D02*
X1996166D01*
X1999614D02*
X2001541D01*
X2004182D02*
X2005930D01*
X2007228D02*
X2009155D01*
X2011886D02*
X2013544D01*
X2015917D02*
X2017575D01*
X2021202D02*
X2022860D01*
X2026487D02*
X2028054D01*
X1938253Y1666145D02*
X1944032D01*
X1953392D02*
X1956123D01*
X1965395D02*
X1971174D01*
X1980534D02*
X1982192D01*
X1985819D02*
X1987388D01*
X1991014D02*
X1992671D01*
X1994508D02*
X1996166D01*
X1999704D02*
X2001541D01*
X2004182D02*
X2006020D01*
X2007228D02*
X2009065D01*
X2011886D02*
X2013544D01*
X2015917D02*
X2017575D01*
X2021202D02*
X2022860D01*
X2026487D02*
X2028054D01*
X1938343Y1666234D02*
X1944032D01*
X1953302D02*
X1956212D01*
X1965395D02*
X1971174D01*
X1980534D02*
X1982192D01*
X1985819D02*
X1987388D01*
X1991014D02*
X1992671D01*
X1994508D02*
X1996166D01*
X1999793D02*
X2001541D01*
X2004272D02*
X2006109D01*
X2007139D02*
X2009065D01*
X2011886D02*
X2013544D01*
X2015917D02*
X2017575D01*
X2021202D02*
X2022860D01*
X2026487D02*
X2028054D01*
X1938343Y1666324D02*
X1944032D01*
X1953213D02*
X1956212D01*
X1965395D02*
X1971174D01*
X1980534D02*
X1982192D01*
X1985819D02*
X1987388D01*
X1991014D02*
X1992671D01*
X1994508D02*
X1996166D01*
X1999883D02*
X2001541D01*
X2004362D02*
X2006109D01*
X2007049D02*
X2008976D01*
X2011886D02*
X2013544D01*
X2015917D02*
X2017575D01*
X2021202D02*
X2022860D01*
X2026487D02*
X2028054D01*
X1938343Y1666413D02*
X1944032D01*
X1953213D02*
X1956304D01*
X1965395D02*
X1971084D01*
X1980534D02*
X1982192D01*
X1985819D02*
X1987388D01*
X1991014D02*
X1992671D01*
X1994508D02*
X1996166D01*
X1999883D02*
X2001541D01*
X2004362D02*
X2006199D01*
X2007049D02*
X2008886D01*
X2011886D02*
X2013544D01*
X2015917D02*
X2017575D01*
X2021202D02*
X2022860D01*
X2026487D02*
X2028054D01*
X1938343Y1666503D02*
X1944032D01*
X1953123D02*
X1956304D01*
X1965395D02*
X1971084D01*
X1980534D02*
X1982192D01*
X1985819D02*
X1987388D01*
X1991014D02*
X1992671D01*
X1994508D02*
X1996166D01*
X1999883D02*
X2001541D01*
X2004451D02*
X2006288D01*
X2006959D02*
X2008797D01*
X2011886D02*
X2013544D01*
X2015917D02*
X2017575D01*
X2021202D02*
X2022860D01*
X2026487D02*
X2028054D01*
X1938432Y1666592D02*
X1944032D01*
X1953123D02*
X1956393D01*
X1965395D02*
X1971084D01*
X1980534D02*
X1982192D01*
X1985819D02*
X1987388D01*
X1991014D02*
X1992671D01*
X1994508D02*
X1996166D01*
X1999883D02*
X2001541D01*
X2004541D02*
X2006288D01*
X2006870D02*
X2008797D01*
X2011886D02*
X2013544D01*
X2015917D02*
X2017575D01*
X2021202D02*
X2022860D01*
X2026487D02*
X2028054D01*
X1938432Y1666682D02*
X1944032D01*
X1953033D02*
X1956393D01*
X1965395D02*
X1970995D01*
X1980534D02*
X1982192D01*
X1985819D02*
X1987388D01*
X1991014D02*
X1992671D01*
X1994508D02*
X1996256D01*
X1999883D02*
X2001541D01*
X2004630D02*
X2006378D01*
X2006870D02*
X2008707D01*
X2011886D02*
X2013544D01*
X2015917D02*
X2017575D01*
X2021202D02*
X2022860D01*
X2026487D02*
X2028054D01*
X1938522Y1666772D02*
X1944032D01*
X1953033D02*
X1956483D01*
X1965395D02*
X1970995D01*
X1980534D02*
X1982192D01*
X1985819D02*
X1987388D01*
X1991014D02*
X1992671D01*
X1994598D02*
X1996256D01*
X1999883D02*
X2001541D01*
X2004630D02*
X2006468D01*
X2006780D02*
X2008618D01*
X2011886D02*
X2013544D01*
X2015917D02*
X2017575D01*
X2021202D02*
X2022860D01*
X2026487D02*
X2028054D01*
X1938522Y1666861D02*
X1944032D01*
X1952944D02*
X1956483D01*
X1965395D02*
X1970905D01*
X1980534D02*
X1982192D01*
X1985819D02*
X1987388D01*
X1991014D02*
X1992671D01*
X1994598D02*
X1996345D01*
X1999883D02*
X2001541D01*
X2004720D02*
X2006468D01*
X2006691D02*
X2008618D01*
X2011886D02*
X2013544D01*
X2015917D02*
X2017575D01*
X2021202D02*
X2022860D01*
X2026487D02*
X2028054D01*
X1938522Y1666951D02*
X1944032D01*
X1952854D02*
X1956573D01*
X1965395D02*
X1970905D01*
X1980534D02*
X1982192D01*
X1985819D02*
X1987388D01*
X1991014D02*
X1992671D01*
X1994598D02*
X1996345D01*
X1999883D02*
X2001541D01*
X2004810D02*
X2006557D01*
X2006691D02*
X2008528D01*
X2011886D02*
X2013544D01*
X2015917D02*
X2017575D01*
X2021202D02*
X2022860D01*
X2026487D02*
X2028054D01*
X1938611Y1667040D02*
X1944032D01*
X1952854D02*
X1956662D01*
X1965395D02*
X1970905D01*
X1980534D02*
X1982192D01*
X1985819D02*
X1987388D01*
X1991014D02*
X1992671D01*
X1994598D02*
X1996435D01*
X1999883D02*
X2001541D01*
X2004810D02*
X2008438D01*
X2011886D02*
X2013544D01*
X2015917D02*
X2017575D01*
X2021202D02*
X2022860D01*
X2026487D02*
X2028054D01*
X1938611Y1667130D02*
X1944032D01*
X1952765D02*
X1956662D01*
X1965395D02*
X1970816D01*
X1980534D02*
X1982192D01*
X1985819D02*
X1987388D01*
X1991014D02*
X1992671D01*
X1994687D02*
X1996524D01*
X1999883D02*
X2001541D01*
X2004899D02*
X2008438D01*
X2011886D02*
X2013544D01*
X2015917D02*
X2017575D01*
X2021202D02*
X2022860D01*
X2026487D02*
X2028054D01*
X1938611Y1667219D02*
X1944032D01*
X1952765D02*
X1956752D01*
X1965395D02*
X1970816D01*
X1980534D02*
X1982192D01*
X1985819D02*
X1987388D01*
X1991014D02*
X1992671D01*
X1994687D02*
X1996614D01*
X1999883D02*
X2001541D01*
X2004989D02*
X2008349D01*
X2011886D02*
X2013544D01*
X2015917D02*
X2017575D01*
X2021202D02*
X2022860D01*
X2026487D02*
X2028054D01*
X1938701Y1667309D02*
X1944032D01*
X1952675D02*
X1956752D01*
X1965395D02*
X1970816D01*
X1980534D02*
X1982192D01*
X1985819D02*
X1987388D01*
X1991014D02*
X1992671D01*
X1994687D02*
X1996704D01*
X1999883D02*
X2001541D01*
X2004989D02*
X2008259D01*
X2011886D02*
X2013544D01*
X2015917D02*
X2017575D01*
X2021202D02*
X2022860D01*
X2026487D02*
X2028054D01*
X1938701Y1667399D02*
X1944032D01*
X1952675D02*
X1956841D01*
X1965395D02*
X1970726D01*
X1980534D02*
X1982192D01*
X1985819D02*
X1987388D01*
X1991014D02*
X1992671D01*
X1994777D02*
X1996883D01*
X1999883D02*
X2001541D01*
X2005078D02*
X2008170D01*
X2011886D02*
X2013544D01*
X2015917D02*
X2017575D01*
X2021202D02*
X2022860D01*
X2026487D02*
X2028054D01*
X1938790Y1667488D02*
X1944032D01*
X1952585D02*
X1956841D01*
X1965395D02*
X1970726D01*
X1980534D02*
X1982192D01*
X1985819D02*
X1987388D01*
X1991014D02*
X1992671D01*
X1994777D02*
X1996972D01*
X1999883D02*
X2001541D01*
X2005168D02*
X2008170D01*
X2011886D02*
X2013544D01*
X2015917D02*
X2017575D01*
X2021202D02*
X2022860D01*
X2026487D02*
X2028054D01*
X1938790Y1667578D02*
X1944032D01*
X1952585D02*
X1956931D01*
X1965395D02*
X1970636D01*
X1980534D02*
X1982192D01*
X1985819D02*
X1987388D01*
X1991014D02*
X1992671D01*
X1994866D02*
X1997152D01*
X1999883D02*
X2001541D01*
X2005168D02*
X2008080D01*
X2011886D02*
X2013544D01*
X2015917D02*
X2017575D01*
X2021202D02*
X2022860D01*
X2026487D02*
X2028054D01*
X1938790Y1667667D02*
X1944032D01*
X1952496D02*
X1956931D01*
X1965395D02*
X1970636D01*
X1980534D02*
X1982192D01*
X1985819D02*
X1987388D01*
X1991014D02*
X1992671D01*
X1994956D02*
X1997331D01*
X1999883D02*
X2001541D01*
X2005257D02*
X2007990D01*
X2011886D02*
X2013544D01*
X2015917D02*
X2017575D01*
X2021202D02*
X2022860D01*
X2026487D02*
X2028054D01*
X1938880Y1667757D02*
X1944121D01*
X1952406D02*
X1957021D01*
X1965395D02*
X1970636D01*
X1980534D02*
X1982192D01*
X1985819D02*
X1987388D01*
X1991014D02*
X1992671D01*
X1994956D02*
X1997599D01*
X1999883D02*
X2001541D01*
X2005347D02*
X2007990D01*
X2011886D02*
X2013544D01*
X2015917D02*
X2017575D01*
X2021202D02*
X2022860D01*
X2026487D02*
X2028054D01*
X1938880Y1667847D02*
X1944121D01*
X1952406D02*
X1957110D01*
X1965395D02*
X1970547D01*
X1980534D02*
X1982192D01*
X1985819D02*
X1987388D01*
X1991014D02*
X1992671D01*
X1995046D02*
X1997868D01*
X1999883D02*
X2001541D01*
X2005437D02*
X2007901D01*
X2011886D02*
X2013544D01*
X2015917D02*
X2017575D01*
X2021202D02*
X2022860D01*
X2026487D02*
X2028054D01*
X1938970Y1667936D02*
X1944121D01*
X1952317D02*
X1957110D01*
X1965306D02*
X1970547D01*
X1980534D02*
X1982192D01*
X1985819D02*
X1987388D01*
X1991014D02*
X1992671D01*
X1995135D02*
X1998226D01*
X1999883D02*
X2001541D01*
X2005437D02*
X2007811D01*
X2011886D02*
X2013544D01*
X2015917D02*
X2017575D01*
X2021202D02*
X2022860D01*
X2026487D02*
X2028054D01*
X1938970Y1668026D02*
X1944121D01*
X1952317D02*
X1957200D01*
X1965306D02*
X1970457D01*
X1980534D02*
X1982192D01*
X1985819D02*
X1987388D01*
X1991014D02*
X1992671D01*
X1995225D02*
X1998585D01*
X1999883D02*
X2001541D01*
X2005526D02*
X2007811D01*
X2011886D02*
X2013544D01*
X2015917D02*
X2017575D01*
X2021202D02*
X2022860D01*
X2026487D02*
X2028054D01*
X1939059Y1668115D02*
X1944211D01*
X1952227D02*
X1957200D01*
X1965306D02*
X1970457D01*
X1980534D02*
X1982192D01*
X1985819D02*
X1987388D01*
X1991014D02*
X1992671D01*
X1995314D02*
X1999122D01*
X1999883D02*
X2001541D01*
X2005616D02*
X2007722D01*
X2011886D02*
X2013544D01*
X2015917D02*
X2017575D01*
X2021202D02*
X2022860D01*
X2026487D02*
X2028054D01*
X1939059Y1668205D02*
X1944211D01*
X1952227D02*
X1957289D01*
X1965216D02*
X1970368D01*
X1980534D02*
X1982192D01*
X1985819D02*
X1987388D01*
X1991014D02*
X1992671D01*
X1995404D02*
X2001541D01*
X2005616D02*
X2007632D01*
X2011886D02*
X2013544D01*
X2015917D02*
X2017575D01*
X2021202D02*
X2022860D01*
X2026487D02*
X2028054D01*
X1939059Y1668294D02*
X1944300D01*
X1952138D02*
X1957289D01*
X1965126D02*
X1970368D01*
X1980534D02*
X1982192D01*
X1985819D02*
X1987388D01*
X1991014D02*
X1992671D01*
X1995583D02*
X2001541D01*
X2005705D02*
X2007543D01*
X2011886D02*
X2013544D01*
X2015917D02*
X2017575D01*
X2021202D02*
X2022860D01*
X2026487D02*
X2028054D01*
X1939149Y1668384D02*
X1944390D01*
X1952048D02*
X1957379D01*
X1965126D02*
X1970278D01*
X1980534D02*
X1982192D01*
X1985819D02*
X1987388D01*
X1991014D02*
X1992671D01*
X1995673D02*
X2001541D01*
X2005616D02*
X2007543D01*
X2011886D02*
X2013544D01*
X2015917D02*
X2017575D01*
X2021202D02*
X2022860D01*
X2026487D02*
X2028054D01*
X1939149Y1668474D02*
X1944390D01*
X1952048D02*
X1957468D01*
X1965037D02*
X1970278D01*
X1980534D02*
X1982192D01*
X1985819D02*
X1987388D01*
X1991014D02*
X1992671D01*
X1995852D02*
X2001541D01*
X2005616D02*
X2007632D01*
X2011886D02*
X2013544D01*
X2015917D02*
X2017575D01*
X2021202D02*
X2022860D01*
X2026487D02*
X2028054D01*
X1939238Y1668563D02*
X1944480D01*
X1951958D02*
X1957468D01*
X1964947D02*
X1970189D01*
X1980534D02*
X1982192D01*
X1985819D02*
X1987388D01*
X1991014D02*
X1992671D01*
X1995941D02*
X2001541D01*
X2005526D02*
X2007722D01*
X2011886D02*
X2013544D01*
X2015917D02*
X2017575D01*
X2021202D02*
X2022860D01*
X2026487D02*
X2028054D01*
X1939238Y1668653D02*
X1944569D01*
X1951869D02*
X1957558D01*
X1964858D02*
X1970189D01*
X1980534D02*
X1982192D01*
X1985819D02*
X1987388D01*
X1991014D02*
X1992671D01*
X1996120D02*
X2001541D01*
X2005437D02*
X2007722D01*
X2011886D02*
X2013544D01*
X2015917D02*
X2017575D01*
X2021202D02*
X2022860D01*
X2026487D02*
X2028054D01*
X1939328Y1668742D02*
X1944659D01*
X1951779D02*
X1957648D01*
X1964768D02*
X1970099D01*
X1980534D02*
X1982192D01*
X1985819D02*
X1987388D01*
X1991014D02*
X1992671D01*
X1996389D02*
X2001541D01*
X2005347D02*
X2007811D01*
X2011886D02*
X2013544D01*
X2015917D02*
X2017575D01*
X2021202D02*
X2022860D01*
X2026487D02*
X2028054D01*
X1939328Y1668832D02*
X1944748D01*
X1951690D02*
X1957827D01*
X1964679D02*
X1970099D01*
X1980534D02*
X1982192D01*
X1985819D02*
X1987388D01*
X1991014D02*
X1992671D01*
X1996568D02*
X2001541D01*
X2005347D02*
X2007901D01*
X2011886D02*
X2013544D01*
X2015917D02*
X2017575D01*
X2021202D02*
X2022860D01*
X2026487D02*
X2028054D01*
X1939417Y1668921D02*
X1944927D01*
X1951511D02*
X1957916D01*
X1964499D02*
X1970009D01*
X1980534D02*
X1982192D01*
X1985819D02*
X1987388D01*
X1991014D02*
X1992671D01*
X1996837D02*
X2001541D01*
X2005257D02*
X2007901D01*
X2011886D02*
X2013544D01*
X2015917D02*
X2017575D01*
X2021202D02*
X2022860D01*
X2026487D02*
X2028054D01*
X1939417Y1669011D02*
X1945105D01*
X1951331D02*
X1958095D01*
X1964320D02*
X1970009D01*
X1980534D02*
X1982192D01*
X1985819D02*
X1987388D01*
X1991014D02*
X1992671D01*
X1997106D02*
X2001541D01*
X2005168D02*
X2007990D01*
X2011886D02*
X2013544D01*
X2015917D02*
X2017575D01*
X2021202D02*
X2022860D01*
X2026487D02*
X2028054D01*
X1939507Y1669101D02*
X1945374D01*
X1951063D02*
X1958362D01*
X1964141D02*
X1969920D01*
X1980534D02*
X1982192D01*
X1985819D02*
X1987388D01*
X1991014D02*
X1992671D01*
X1997375D02*
X2001541D01*
X2005168D02*
X2008080D01*
X2011886D02*
X2013544D01*
X2015917D02*
X2017575D01*
X2021202D02*
X2022860D01*
X2026487D02*
X2028054D01*
X1939597Y1669190D02*
X1969920D01*
X1980534D02*
X1982192D01*
X1985819D02*
X1987388D01*
X1991014D02*
X1992671D01*
X1997822D02*
X2001541D01*
X2005078D02*
X2008170D01*
X2011886D02*
X2013544D01*
X2015917D02*
X2017575D01*
X2021202D02*
X2022860D01*
X2026487D02*
X2028054D01*
X1939597Y1669280D02*
X1969830D01*
X1980534D02*
X1982192D01*
X1985819D02*
X1987388D01*
X1991014D02*
X1992671D01*
X1998181D02*
X2001541D01*
X2004989D02*
X2008170D01*
X2011886D02*
X2013544D01*
X2015917D02*
X2017575D01*
X2021202D02*
X2022860D01*
X2026487D02*
X2028054D01*
X1939686Y1669369D02*
X1969830D01*
X1980534D02*
X1982192D01*
X1985819D02*
X1987388D01*
X1991014D02*
X1992671D01*
X1998718D02*
X2001541D01*
X2004989D02*
X2008259D01*
X2011886D02*
X2013544D01*
X2015917D02*
X2017575D01*
X2021202D02*
X2022860D01*
X2026487D02*
X2028054D01*
X1939686Y1669459D02*
X1969741D01*
X1980534D02*
X1982192D01*
X1985819D02*
X1987388D01*
X1991014D02*
X1992671D01*
X1999345D02*
X2001541D01*
X2004899D02*
X2008349D01*
X2011886D02*
X2013544D01*
X2015917D02*
X2017575D01*
X2021202D02*
X2022860D01*
X2026487D02*
X2028054D01*
X1939776Y1669549D02*
X1969741D01*
X1980534D02*
X1982192D01*
X1985819D02*
X1987388D01*
X1991014D02*
X1992671D01*
X1999883D02*
X2001541D01*
X2004810D02*
X2008349D01*
X2011886D02*
X2013544D01*
X2015917D02*
X2017575D01*
X2021202D02*
X2022860D01*
X2026487D02*
X2028054D01*
X1939776Y1669638D02*
X1969651D01*
X1980534D02*
X1982192D01*
X1985819D02*
X1987388D01*
X1991014D02*
X1992671D01*
X1999883D02*
X2001541D01*
X2004720D02*
X2008438D01*
X2011886D02*
X2013544D01*
X2015917D02*
X2017575D01*
X2021202D02*
X2022860D01*
X2026487D02*
X2028054D01*
X1939865Y1669728D02*
X1969561D01*
X1980534D02*
X1982192D01*
X1985819D02*
X1987388D01*
X1991014D02*
X1992671D01*
X1999883D02*
X2001541D01*
X2004720D02*
X2006557D01*
X2006691D02*
X2008528D01*
X2011886D02*
X2013544D01*
X2015917D02*
X2017575D01*
X2021202D02*
X2022860D01*
X2026487D02*
X2028054D01*
X1939865Y1669817D02*
X1969561D01*
X1980534D02*
X1982192D01*
X1985819D02*
X1987477D01*
X1991014D02*
X1992671D01*
X1999883D02*
X2001541D01*
X2004630D02*
X2006468D01*
X2006780D02*
X2008528D01*
X2011886D02*
X2013544D01*
X2015917D02*
X2017575D01*
X2021202D02*
X2022860D01*
X2026487D02*
X2028054D01*
X1939955Y1669907D02*
X1969472D01*
X1980534D02*
X1982282D01*
X1985819D02*
X1987567D01*
X1991014D02*
X1992671D01*
X1999883D02*
X2001541D01*
X2004541D02*
X2006468D01*
X2006780D02*
X2008618D01*
X2011886D02*
X2013544D01*
X2015917D02*
X2017665D01*
X2021202D02*
X2022950D01*
X2026487D02*
X2028054D01*
X1940045Y1669996D02*
X1969472D01*
X1980534D02*
X1982371D01*
X1985819D02*
X1987656D01*
X1991014D02*
X1992671D01*
X1999883D02*
X2001541D01*
X2004541D02*
X2006378D01*
X2006870D02*
X2008707D01*
X2011886D02*
X2013544D01*
X2015917D02*
X2017754D01*
X2021202D02*
X2023040D01*
X2026487D02*
X2028054D01*
X1940045Y1670086D02*
X1969382D01*
X1980534D02*
X1982461D01*
X1985729D02*
X1987746D01*
X1991014D02*
X1992671D01*
X1999883D02*
X2001541D01*
X2004451D02*
X2006288D01*
X2006959D02*
X2008707D01*
X2011886D02*
X2013544D01*
X2015917D02*
X2017844D01*
X2021202D02*
X2023129D01*
X2026398D02*
X2028054D01*
X1940134Y1670176D02*
X1969293D01*
X1980534D02*
X1982550D01*
X1985729D02*
X1987835D01*
X1991014D02*
X1992671D01*
X1999883D02*
X2001541D01*
X2004362D02*
X2006288D01*
X2006959D02*
X2008797D01*
X2011886D02*
X2013544D01*
X2015917D02*
X2017934D01*
X2021113D02*
X2023219D01*
X2026398D02*
X2028054D01*
X1940224Y1670265D02*
X1969293D01*
X1980534D02*
X1982640D01*
X1985729D02*
X1987925D01*
X1991014D02*
X1992671D01*
X1999883D02*
X2001541D01*
X2004362D02*
X2006199D01*
X2007049D02*
X2008886D01*
X2011886D02*
X2013544D01*
X2015917D02*
X2018023D01*
X2021113D02*
X2023308D01*
X2026398D02*
X2028054D01*
X1940224Y1670355D02*
X1969203D01*
X1980534D02*
X1982729D01*
X1985729D02*
X1988015D01*
X1991014D02*
X1992671D01*
X1999793D02*
X2001541D01*
X2004272D02*
X2006109D01*
X2007139D02*
X2008976D01*
X2011886D02*
X2013544D01*
X2015917D02*
X2018113D01*
X2021113D02*
X2023398D01*
X2026398D02*
X2028054D01*
X1940313Y1670444D02*
X1969114D01*
X1980534D02*
X1982819D01*
X1985640D02*
X1988104D01*
X1990925D02*
X1992671D01*
X1999793D02*
X2001541D01*
X2004182D02*
X2006109D01*
X2007139D02*
X2008976D01*
X2011886D02*
X2013544D01*
X2015917D02*
X2018292D01*
X2021113D02*
X2023487D01*
X2026308D02*
X2028054D01*
X1940403Y1670534D02*
X1969114D01*
X1980534D02*
X1982998D01*
X1985640D02*
X1988283D01*
X1990925D02*
X1992671D01*
X1995314D02*
X1995450D01*
X1999793D02*
X2001541D01*
X2004093D02*
X2006020D01*
X2007228D02*
X2009065D01*
X2011886D02*
X2013544D01*
X2015917D02*
X2018382D01*
X2021023D02*
X2023667D01*
X2026308D02*
X2028054D01*
X1940403Y1670623D02*
X1969024D01*
X1980534D02*
X1983088D01*
X1985640D02*
X1988373D01*
X1990835D02*
X1992671D01*
X1995314D02*
X1995629D01*
X1999704D02*
X2001451D01*
X2004093D02*
X2005930D01*
X2007318D02*
X2009155D01*
X2011886D02*
X2013544D01*
X2015917D02*
X2018471D01*
X2021023D02*
X2023756D01*
X2026308D02*
X2028054D01*
X1940492Y1670713D02*
X1968934D01*
X1980534D02*
X1983267D01*
X1985550D02*
X1988462D01*
X1990835D02*
X1992671D01*
X1995314D02*
X1995897D01*
X1999614D02*
X2001451D01*
X2004003D02*
X2005930D01*
X2007318D02*
X2009155D01*
X2011886D02*
X2013544D01*
X2015917D02*
X2018650D01*
X2020934D02*
X2023935D01*
X2026219D02*
X2028054D01*
X1940582Y1670803D02*
X1968934D01*
X1980534D02*
X1983356D01*
X1985461D02*
X1988642D01*
X1990746D02*
X1992671D01*
X1995225D02*
X1996077D01*
X1999614D02*
X2001451D01*
X2003914D02*
X2005841D01*
X2007407D02*
X2009245D01*
X2011886D02*
X2013544D01*
X2015917D02*
X2018740D01*
X2020844D02*
X2024025D01*
X2026129D02*
X2028054D01*
X1940582Y1670892D02*
X1968845D01*
X1980534D02*
X1983536D01*
X1985371D02*
X1988821D01*
X1990656D02*
X1992671D01*
X1995225D02*
X1996345D01*
X1999524D02*
X2001451D01*
X2003914D02*
X2005751D01*
X2007497D02*
X2009334D01*
X2011886D02*
X2013544D01*
X2015917D02*
X2018919D01*
X2020754D02*
X2024202D01*
X2026040D02*
X2028054D01*
X1940672Y1670982D02*
X1968755D01*
X1980534D02*
X1983715D01*
X1985282D02*
X1988998D01*
X1990567D02*
X1992581D01*
X1995225D02*
X1996614D01*
X1999345D02*
X2001451D01*
X2003824D02*
X2005751D01*
X2007497D02*
X2009334D01*
X2011886D02*
X2013544D01*
X2015917D02*
X2019098D01*
X2020665D02*
X2024381D01*
X2025950D02*
X2028054D01*
X1940761Y1671071D02*
X1968755D01*
X1980534D02*
X1983984D01*
X1985102D02*
X1989267D01*
X1990387D02*
X1992581D01*
X1995225D02*
X1996972D01*
X1999166D02*
X2001362D01*
X2003735D02*
X2005661D01*
X2007586D02*
X2009424D01*
X2011886D02*
X2013544D01*
X2015917D02*
X2019367D01*
X2020486D02*
X2024650D01*
X2025771D02*
X2027965D01*
X1940761Y1671161D02*
X1968666D01*
X1980534D02*
X1984431D01*
X1984654D02*
X1989715D01*
X1989940D02*
X1992581D01*
X1995225D02*
X1997420D01*
X1998987D02*
X2001362D01*
X2003735D02*
X2005572D01*
X2007676D02*
X2009513D01*
X2011886D02*
X2013544D01*
X2015917D02*
X2019815D01*
X2020127D02*
X2025098D01*
X2025323D02*
X2027965D01*
X1940851Y1671250D02*
X1968576D01*
X1980534D02*
X1992581D01*
X1995225D02*
X2001362D01*
X2003645D02*
X2005572D01*
X2007676D02*
X2009513D01*
X2011886D02*
X2013544D01*
X2015917D02*
X2027965D01*
X1940940Y1671340D02*
X1968487D01*
X1980534D02*
X1992492D01*
X1995225D02*
X2001272D01*
X2003555D02*
X2005482D01*
X2007766D02*
X2009603D01*
X2011886D02*
X2013544D01*
X2015917D02*
X2027875D01*
X1941030Y1671430D02*
X1968487D01*
X1980534D02*
X1982013D01*
X1982146D02*
X1987208D01*
X1987431D02*
X1992492D01*
X1995135D02*
X2001272D01*
X2003466D02*
X2005393D01*
X2007855D02*
X2009692D01*
X2011886D02*
X2013544D01*
X2015917D02*
X2017396D01*
X2017530D02*
X2022592D01*
X2022815D02*
X2027875D01*
X1941030Y1671519D02*
X1968397D01*
X1980534D02*
X1982013D01*
X1982236D02*
X1987208D01*
X1987521D02*
X1992402D01*
X1995135D02*
X2001183D01*
X2003466D02*
X2005393D01*
X2007855D02*
X2009692D01*
X2011886D02*
X2013544D01*
X2015917D02*
X2017396D01*
X2017709D02*
X2022592D01*
X2022904D02*
X2027875D01*
X1941119Y1671609D02*
X1968307D01*
X1980534D02*
X1982013D01*
X1982415D02*
X1987119D01*
X1987611D02*
X1992402D01*
X1995135D02*
X2001183D01*
X2003376D02*
X2005303D01*
X2007945D02*
X2009782D01*
X2011886D02*
X2013544D01*
X2015917D02*
X2017396D01*
X2017798D02*
X2022502D01*
X2022994D02*
X2027785D01*
X1941209Y1671698D02*
X1968218D01*
X1980534D02*
X1982013D01*
X1982505D02*
X1987029D01*
X1987700D02*
X1992312D01*
X1995135D02*
X2001093D01*
X2003287D02*
X2005214D01*
X2008034D02*
X2009872D01*
X2011886D02*
X2013544D01*
X2015917D02*
X2017396D01*
X2017888D02*
X2022502D01*
X2023083D02*
X2027696D01*
X1941299Y1671788D02*
X1968218D01*
X1980534D02*
X1981923D01*
X1982594D02*
X1987029D01*
X1987790D02*
X1992312D01*
X1995135D02*
X2001003D01*
X2003287D02*
X2005124D01*
X2008034D02*
X2009961D01*
X2011886D02*
X2013544D01*
X2015917D02*
X2017396D01*
X2017978D02*
X2022413D01*
X2023263D02*
X2027696D01*
X1941388Y1671878D02*
X1968128D01*
X1980534D02*
X1981923D01*
X1982684D02*
X1986940D01*
X1987969D02*
X1992223D01*
X1995135D02*
X2000914D01*
X2003197D02*
X2005124D01*
X2008124D02*
X2009961D01*
X2011886D02*
X2013544D01*
X2015917D02*
X2017307D01*
X2018157D02*
X2022323D01*
X2023352D02*
X2027606D01*
X1941388Y1671967D02*
X1968039D01*
X1980534D02*
X1981923D01*
X1982863D02*
X1986850D01*
X1988058D02*
X1992133D01*
X1995135D02*
X2000824D01*
X2003108D02*
X2005034D01*
X2008214D02*
X2010051D01*
X2011886D02*
X2013544D01*
X2015917D02*
X2017307D01*
X2018246D02*
X2022233D01*
X2023442D02*
X2027517D01*
X1941478Y1672057D02*
X1967949D01*
X1980534D02*
X1981923D01*
X1982952D02*
X1986760D01*
X1988238D02*
X1992044D01*
X1995314D02*
X2000735D01*
X2003108D02*
X2004945D01*
X2008214D02*
X2010140D01*
X2011886D02*
X2013544D01*
X2015917D02*
X2017307D01*
X2018425D02*
X2022233D01*
X2023621D02*
X2027427D01*
X1941567Y1672146D02*
X1967859D01*
X1980534D02*
X1981923D01*
X1983132D02*
X1986671D01*
X1988327D02*
X1991954D01*
X1995583D02*
X2000645D01*
X2003018D02*
X2004945D01*
X2008303D02*
X2010140D01*
X2011886D02*
X2013544D01*
X2015917D02*
X2017307D01*
X2018515D02*
X2022144D01*
X2023800D02*
X2027338D01*
X1941657Y1672236D02*
X1967770D01*
X1980534D02*
X1981923D01*
X1983311D02*
X1986581D01*
X1988506D02*
X1991865D01*
X1995762D02*
X2000466D01*
X2002928D02*
X2004855D01*
X2008393D02*
X2010230D01*
X2011886D02*
X2013544D01*
X2015917D02*
X2017307D01*
X2018694D02*
X2021965D01*
X2023890D02*
X2027248D01*
X1941747Y1672325D02*
X1967770D01*
X1980534D02*
X1981834D01*
X1983490D02*
X1986492D01*
X1988685D02*
X1991685D01*
X1996031D02*
X2000376D01*
X2002839D02*
X2004766D01*
X2008393D02*
X2010320D01*
X2011886D02*
X2013544D01*
X2015917D02*
X2017307D01*
X2018873D02*
X2021875D01*
X2024069D02*
X2027158D01*
X1941836Y1672415D02*
X1967680D01*
X1980534D02*
X1981834D01*
X1983669D02*
X1986313D01*
X1988865D02*
X1991596D01*
X1996389D02*
X2000108D01*
X2002839D02*
X2004766D01*
X2008482D02*
X2010320D01*
X2011886D02*
X2013544D01*
X2015917D02*
X2017217D01*
X2019052D02*
X2021696D01*
X2024338D02*
X2026979D01*
X1941926Y1672505D02*
X1967591D01*
X1980534D02*
X1981834D01*
X1983848D02*
X1986133D01*
X1989133D02*
X1991327D01*
X1996748D02*
X1999928D01*
X2002839D02*
X2004676D01*
X2008572D02*
X2010320D01*
X2011886D02*
X2013544D01*
X2015917D02*
X2017217D01*
X2019321D02*
X2021517D01*
X2024517D02*
X2026800D01*
X1941926Y1672594D02*
X1967501D01*
X1984207D02*
X1985865D01*
X1989492D02*
X1991058D01*
X1997195D02*
X1999570D01*
X2019590D02*
X2021248D01*
X2024875D02*
X2026531D01*
X1942015Y1672684D02*
X1967412D01*
X1984744D02*
X1985238D01*
X1990029D02*
X1990521D01*
X1998091D02*
X1998764D01*
X2020127D02*
X2020621D01*
X2025413D02*
X2025904D01*
X1942105Y1672773D02*
X1967322D01*
X1942194Y1672863D02*
X1967232D01*
X1942284Y1672952D02*
X1967143D01*
X1942374Y1673042D02*
X1967053D01*
X1942463Y1673132D02*
X1966964D01*
X1942553Y1673221D02*
X1966874D01*
X1942642Y1673311D02*
X1966785D01*
X1942732Y1673400D02*
X1966695D01*
X1942821Y1673490D02*
X1966605D01*
X1942911Y1673580D02*
X1966516D01*
X1943001Y1673669D02*
X1966426D01*
X1943090Y1673759D02*
X1966337D01*
X1943269Y1673848D02*
X1966247D01*
X1943359Y1673938D02*
X1966157D01*
X1943449Y1674027D02*
X1966068D01*
X1943538Y1674117D02*
X1965889D01*
X1943628Y1674207D02*
X1965799D01*
X2012334D02*
X2013096D01*
X1943717Y1674296D02*
X1965710D01*
X2012155D02*
X2013276D01*
X1943896Y1674386D02*
X1965620D01*
X2011976D02*
X2013365D01*
X1943986Y1674475D02*
X1965530D01*
X2011886D02*
X2013455D01*
X1944076Y1674565D02*
X1965351D01*
X2011886D02*
X2013544D01*
X1944165Y1674654D02*
X1965262D01*
X2011797D02*
X2013634D01*
X1944344Y1674744D02*
X1965172D01*
X2011707D02*
X2013634D01*
X1944434Y1674834D02*
X1964993D01*
X2011707D02*
X2013723D01*
X1944523Y1674923D02*
X1964903D01*
X2011707D02*
X2013723D01*
X1944703Y1675013D02*
X1964814D01*
X2011707D02*
X2013723D01*
X1944792Y1675102D02*
X1964635D01*
X2011617D02*
X2013723D01*
X1944971Y1675192D02*
X1964545D01*
X2011617D02*
X2013723D01*
X1945061Y1675282D02*
X1964366D01*
X2011617D02*
X2013723D01*
X1945240Y1675371D02*
X1964276D01*
X2011707D02*
X2013723D01*
X1945330Y1675461D02*
X1964097D01*
X2011707D02*
X2013723D01*
X1945509Y1675550D02*
X1964008D01*
X2011707D02*
X2013634D01*
X1945598Y1675640D02*
X1963828D01*
X2011707D02*
X2013634D01*
X1945778Y1675729D02*
X1963737D01*
X2011797D02*
X2013634D01*
X1945867Y1675819D02*
X1963558D01*
X2011886D02*
X2013544D01*
X1946046Y1675909D02*
X1963379D01*
X2011886D02*
X2013455D01*
X1946225Y1675998D02*
X1963200D01*
X2011976D02*
X2013365D01*
X1946405Y1676088D02*
X1963110D01*
X2012155D02*
X2013276D01*
X1946584Y1676177D02*
X1962931D01*
X2012334D02*
X2013096D01*
X1946673Y1676267D02*
X1962752D01*
X1946852Y1676356D02*
X1962573D01*
X1947032Y1676446D02*
X1962395D01*
X1947211Y1676536D02*
X1962216D01*
X1947390Y1676625D02*
X1962037D01*
X1947659Y1676715D02*
X1961858D01*
X1947838Y1676804D02*
X1961589D01*
X1948017Y1676894D02*
X1961410D01*
X1948286Y1676983D02*
X1961231D01*
X1948465Y1677073D02*
X1960962D01*
X1948734Y1677163D02*
X1960783D01*
X1949002Y1677252D02*
X1960514D01*
X1949182Y1677342D02*
X1960245D01*
X1949450Y1677431D02*
X1959977D01*
X1949809Y1677521D02*
X1959708D01*
X1950077Y1677611D02*
X1959350D01*
X1950436Y1677700D02*
X1958991D01*
X1950794Y1677790D02*
X1958631D01*
X1951242Y1677879D02*
X1958273D01*
X1951690Y1677969D02*
X1957737D01*
X1952227Y1678058D02*
X1957200D01*
X1952944Y1678148D02*
X1956483D01*
X2057582Y1649659D02*
X2058388D01*
X2060090D02*
X2061076D01*
X2062240D02*
X2062867D01*
X2064211D02*
X2065017D01*
X2057582Y1649838D02*
X2058388D01*
X2060090D02*
X2061076D01*
X2062240D02*
X2063046D01*
X2064211D02*
X2065017D01*
X2057582Y1650017D02*
X2058388D01*
X2060090D02*
X2061076D01*
X2062061D02*
X2063046D01*
X2064211D02*
X2065017D01*
X2057582Y1650196D02*
X2058388D01*
X2060090D02*
X2061076D01*
X2062061D02*
X2063046D01*
X2064211D02*
X2065017D01*
X2057582Y1650375D02*
X2058388D01*
X2060090D02*
X2061076D01*
X2062061D02*
X2063225D01*
X2064211D02*
X2065017D01*
X2057582Y1650554D02*
X2058388D01*
X2060090D02*
X2061076D01*
X2061882D02*
X2063225D01*
X2064211D02*
X2065017D01*
X2057582Y1650733D02*
X2058388D01*
X2060090D02*
X2061076D01*
X2061882D02*
X2063225D01*
X2064211D02*
X2065017D01*
X2057582Y1650913D02*
X2058388D01*
X2060090D02*
X2061076D01*
X2061882D02*
X2063405D01*
X2064211D02*
X2065017D01*
X2057582Y1651092D02*
X2058388D01*
X2060090D02*
X2061076D01*
X2061703D02*
X2063405D01*
X2064211D02*
X2065017D01*
X2057582Y1651271D02*
X2058388D01*
X2060090D02*
X2061076D01*
X2061703D02*
X2063584D01*
X2064211D02*
X2065017D01*
X2057582Y1651450D02*
X2058388D01*
X2060090D02*
X2061076D01*
X2061523D02*
X2062509D01*
X2062778D02*
X2063584D01*
X2064211D02*
X2065017D01*
X2057582Y1651629D02*
X2058388D01*
X2060090D02*
X2061076D01*
X2061523D02*
X2062330D01*
X2062778D02*
X2063584D01*
X2064211D02*
X2065017D01*
X2057582Y1651808D02*
X2058388D01*
X2060090D02*
X2061076D01*
X2061523D02*
X2062330D01*
X2062957D02*
X2063763D01*
X2064211D02*
X2065017D01*
X2057582Y1651988D02*
X2058388D01*
X2060090D02*
X2061076D01*
X2061344D02*
X2062330D01*
X2062957D02*
X2063763D01*
X2064211D02*
X2065017D01*
X2057582Y1652167D02*
X2058388D01*
X2060090D02*
X2061076D01*
X2061344D02*
X2062150D01*
X2062957D02*
X2063763D01*
X2064211D02*
X2065017D01*
X2057582Y1652346D02*
X2058388D01*
X2060090D02*
X2062150D01*
X2063136D02*
X2063942D01*
X2064211D02*
X2065017D01*
X2057582Y1652525D02*
X2058388D01*
X2060090D02*
X2061971D01*
X2063136D02*
X2063942D01*
X2064211D02*
X2065017D01*
X2057582Y1652704D02*
X2058388D01*
X2060090D02*
X2061971D01*
X2063136D02*
X2065017D01*
X2057582Y1652883D02*
X2058388D01*
X2060090D02*
X2061971D01*
X2063315D02*
X2065017D01*
X2057582Y1653062D02*
X2058388D01*
X2060090D02*
X2061792D01*
X2063315D02*
X2065017D01*
X2057582Y1653242D02*
X2058388D01*
X2060090D02*
X2061792D01*
X2063494D02*
X2065017D01*
X2056328Y1653421D02*
X2059821D01*
X2060090D02*
X2061613D01*
X2063494D02*
X2065017D01*
X2056328Y1653600D02*
X2059821D01*
X2060090D02*
X2061613D01*
X2063494D02*
X2065017D01*
X2056328Y1653779D02*
X2059821D01*
X2060090D02*
X2061613D01*
X2063673D02*
X2065017D01*
X2056328Y1653958D02*
X2059821D01*
X2060090D02*
X2061434D01*
X2063673D02*
X2065017D01*
G74*
X0Y0D02*
M02*
