%
T1C.015F095S3
X0035Y00145
X0035Y00255
X0034Y0037
X0032Y00405
X0036Y0053
X00855Y0064
X0083Y00595
X0049Y00575
X00855Y00495
X00705Y004
X00855Y00305
X00855Y00205
X00855Y0016
X01395Y00155
X01395Y00205
X0139Y006
X0171Y007
X01865Y006
X01455Y0049
X01815Y003
X01855Y00295
X01895Y0029
X0192Y0007
X0207Y00095
X01975Y006
X02125Y0061
X01945Y00635
X02025Y00635
X023Y0075
X0233Y0071
X02375Y0071
X02285Y0071
X02375Y006
X02285Y006
X02385Y00525
X02275Y00525
X02315Y0038
X02385Y00375
X02275Y00375
X0235Y0036
X02385Y00275
X02275Y00275
X02275Y00125
X02385Y00125
X02345Y00125
X0231Y0011
X02585Y00045
X02545Y00045
X02415Y00045
X0249Y0005
X0245Y0006
X0259Y0008
X02515Y0013
X0249Y0022
X0251Y0033
X02495Y0037
X026225Y00515
X0257Y00515
X0261Y00555
X0265Y00545
X02755Y0044
X02755Y00395
X02755Y0035
X0268Y00285
X02725Y00285
X0268Y00175
X0283Y00135
X0268Y00135
X0268Y00055
X02965Y0066
X03065Y0066
T2C.037F197S55
X0043Y0022
X0053Y0022
X0063Y0022
X0055Y004
X01985Y0035
X01985Y0025
X01985Y0015
X03065Y001
X02965Y001
X02965Y003
X02965Y004
T3C.045F139S55
X0025Y0015
X0015Y0015
X0025Y0025
X0015Y0025
X0015Y0035
X0025Y0035
X0015Y0045
X0025Y0045
X0015Y0055
X0025Y0055
X0025Y0065
X0015Y0065
T4C.063F089S55
X01825Y001
X0216Y007
X032Y001
X032Y00325
M30
