<?xml version="1.0" encoding="UTF-8" standalone="no"?>
<!-- Created with Inkscape (http://www.inkscape.org/) -->

<svg
   xmlns:dc="http://purl.org/dc/elements/1.1/"
   xmlns:cc="http://creativecommons.org/ns#"
   xmlns:rdf="http://www.w3.org/1999/02/22-rdf-syntax-ns#"
   xmlns:svg="http://www.w3.org/2000/svg"
   xmlns="http://www.w3.org/2000/svg"
   xmlns:sodipodi="http://sodipodi.sourceforge.net/DTD/sodipodi-0.dtd"
   xmlns:inkscape="http://www.inkscape.org/namespaces/inkscape"
   id="svg2"
   version="1.1"
   inkscape:version="0.48.5 r10040"
   width="202.55359"
   height="125.85789"
   sodipodi:docname="fig1.svg">
  <metadata
     id="metadata8">
    <rdf:RDF>
      <cc:Work
         rdf:about="">
        <dc:format>image/svg+xml</dc:format>
        <dc:type
           rdf:resource="http://purl.org/dc/dcmitype/StillImage" />
        <dc:title />
      </cc:Work>
    </rdf:RDF>
  </metadata>
  <defs
     id="defs6" />
  <sodipodi:namedview
     pagecolor="#ffffff"
     bordercolor="#666666"
     borderopacity="1"
     objecttolerance="10"
     gridtolerance="10"
     guidetolerance="10"
     inkscape:pageopacity="1"
     inkscape:pageshadow="2"
     inkscape:window-width="1280"
     inkscape:window-height="948"
     id="namedview4"
     showgrid="false"
     fit-margin-top="10"
     fit-margin-left="10"
     fit-margin-right="10"
     fit-margin-bottom="10"
     inkscape:zoom="1"
     inkscape:cx="195.44276"
     inkscape:cy="116.39885"
     inkscape:window-x="0"
     inkscape:window-y="24"
     inkscape:window-maximized="1"
     inkscape:current-layer="svg2" />
  <path
     sodipodi:nodetypes="sssscscsccscscsssssssssssssssssscscsscssssscsssscscsssssscscsscssssssssssssssssssssscsssssssscscscssscssssssssssssssssssssssssssssssssssscsssccsscssssccsssssccccssccssssscssccssscssssssssssssssssssssssssssssssscsssssssssssssssssssssssssssscssssssssssssssssssssssssssssssssssssssssssssssscsssssssssssscssssssscsssccsssssssscsscscccsssssssssssssssssssssssssssssssscsssssssssssssssssscsssscssssssscsssssscccssssssssssscccsssscsssssssssssssssssscsss"
     inkscape:connector-curvature="0"
     id="path3056"
     d="m 50.039443,115.52194 c -0.111961,-0.18115 0.02988,-0.56281 0.315193,-0.84813 0.285318,-0.28531 0.740402,-0.94736 1.011295,-1.47122 0.462972,-0.89528 0.442896,-1.02551 -0.334484,-2.16953 -0.97819,-1.43953 -1.020075,-1.72096 -0.255008,-1.7134 0.314608,0.003 0.895732,0.46889 1.291389,1.03509 l 0.719375,1.02944 0.588086,-1.03303 c 0.38563,-0.67739 0.841273,-1.03373 1.323533,-1.03508 0.700165,-0.002 1.023419,0.47508 0.478492,0.70614 -0.141327,0.0599 -0.593672,0.58848 -1.005209,1.17457 l -0.748256,1.06563 0.746138,1.22243 c 0.410376,0.67234 0.862722,1.27147 1.005212,1.33139 0.142487,0.0599 0.25907,0.31734 0.25907,0.57202 0,0.88884 -1.150065,0.44565 -1.917931,-0.7391 -0.687453,-1.06068 -0.810243,-1.12913 -1.099195,-0.6128 -0.445926,0.79682 -1.493006,1.81496 -1.866561,1.81496 -0.169166,0 -0.399178,-0.14822 -0.511139,-0.32938 z m 7.356018,-0.48779 c 0,-0.65373 -0.163433,-0.81716 -0.817163,-0.81716 -0.508459,0 -0.817164,-0.18523 -0.817164,-0.4903 0,-0.30507 0.308705,-0.4903 0.817164,-0.4903 0.65373,0 0.817163,-0.16343 0.817163,-0.81716 0,-0.50846 0.185224,-0.81716 0.490298,-0.81716 0.301507,0 0.490297,0.30629 0.490297,0.79545 0,0.60594 0.19711,0.82009 0.827326,0.89888 0.455029,0.0569 0.827325,0.25052 0.827325,0.43029 0,0.17978 -0.372296,0.37341 -0.827325,0.43029 -0.630216,0.0788 -0.827326,0.29295 -0.827326,0.89888 0,0.48916 -0.18879,0.79546 -0.490297,0.79546 -0.305074,0 -0.490298,-0.30871 -0.490298,-0.81717 z m 25.994736,-11.54029 c -0.09481,-0.0948 -0.172382,-0.51559 -0.172382,-0.93507 l 0,-0.76268 -19.693631,-0.0274 c -17.069008,-0.0238 -32.333618,-0.12964 -37.589503,-0.26073 l -1.55261,-0.0387 0,-28.892598 c 0,-31.348904 0.116799,-29.289411 -1.661061,-29.289411 -0.344846,0 -0.628231,-0.110317 -0.629742,-0.245149 -0.0051,-0.452254 1.071926,-4.813753 1.351945,-5.474992 0.15226,-0.359551 0.497086,-1.521761 0.76628,-2.582684 0.475853,-1.875395 0.710644,-2.409738 0.935762,-2.129625 0.0602,0.07491 0.518376,2.048357 1.018169,4.385444 0.499797,2.337085 1.038899,4.388982 1.198007,4.559769 0.600256,0.64431 0.312006,1.487237 -0.508579,1.487237 -0.43883,0 -0.886335,0.143131 -0.994452,0.318069 -0.252761,0.408977 -0.444932,56.224183 -0.194089,56.372161 0.10376,0.06121 13.086135,0.205139 28.849728,0.319849 l 28.661071,0.20855 0.103071,-1.070913 c 0.07054,-0.733009 0.257772,-1.046587 0.593365,-0.993798 1.076638,0.169352 4.442334,0.959624 4.902978,1.151229 0.269664,0.112164 1.29929,0.363611 2.288057,0.558772 1.76418,0.3482 2.910009,0.82656 2.605456,1.08771 -0.160125,0.1373 -6.762008,1.75973 -8.888662,2.1844 -0.669234,0.13365 -1.294364,0.16541 -1.389178,0.0706 z M 53.019369,82.69485 c -1.167683,-0.515613 -2.484163,-2.619857 -2.486405,-3.974237 -0.002,-1.159629 0.708834,-2.744301 1.548508,-3.452511 0.315945,-0.266476 1.153589,-0.652678 1.861435,-0.858223 2.608212,-0.757377 5.409793,1.470243 5.412523,4.303651 0.0033,3.293645 -3.255823,5.341462 -6.336061,3.98132 z m 4.544633,-2.251467 c 0.735588,-1.050195 0.603305,-2.612392 -0.304115,-3.591514 -2.315386,-2.498345 -5.974675,-0.458794 -5.068049,2.824737 0.362095,1.311403 0.612068,1.534662 2.069871,1.848694 1.272875,0.274198 2.67395,-0.184832 3.302293,-1.081917 z M 10,76.630098 c 0,-0.476652 0.346487,-0.834471 1.121677,-1.158368 1.606353,-0.671176 1.658838,-0.997593 0.26955,-1.676417 -1.266874,-0.619008 -1.8616547,-1.74394 -0.922068,-1.74394 0.284406,0 1.126251,0.441268 1.870771,0.980595 1.018414,0.737735 1.711751,0.980596 2.79949,0.980596 1.200981,0 1.427185,0.09687 1.335781,0.572014 -0.08185,0.425507 -0.559623,0.627019 -1.865371,0.786778 -0.965433,0.118119 -1.846011,0.338985 -1.956838,0.490817 -0.169895,0.232758 -0.725857,0.542433 -2.407843,1.341204 C 10.110317,77.26741 10,77.009431 10,76.630098 z m 52.625305,-2.601665 c 0,-0.210027 0.71,-1.14528 1.577781,-2.078343 0.867779,-0.933063 2.081266,-2.27071 2.696639,-2.972552 0.615369,-0.701838 1.466409,-1.631064 1.891196,-2.064941 l 0.772337,-0.78887 0.629572,0.675768 c 0.745249,0.799927 1.208238,0.858482 1.466497,0.185466 0.103483,-0.269664 0.312124,-0.490298 0.463655,-0.490298 0.314902,0 3.195301,-1.888637 3.845429,-2.521399 0.23756,-0.231211 0.642055,-0.420388 0.89888,-0.420388 0.256821,0 0.46695,-0.147089 0.46695,-0.326865 0,-0.2111 3.704471,-0.326865 10.459688,-0.326865 10.241776,0 10.459688,0.01363 10.459688,0.65373 0,0.359552 -0.183862,0.679076 -0.408582,0.710056 -0.22472,0.03099 -4.674173,0.06778 -9.887674,0.08178 l -9.479092,0.02546 -2.124624,1.445778 c -1.168543,0.795174 -2.173654,1.567364 -2.233578,1.715977 -0.05993,0.148612 -0.301036,0.270203 -0.535804,0.270203 -0.234765,0 -0.757847,0.268026 -1.162402,0.595617 -0.713893,0.578074 -0.71876,0.62125 -0.165305,1.465929 0.56327,0.859658 0.55957,0.874371 -0.30253,1.202141 -0.480031,0.182499 -1.054422,0.331824 -1.276429,0.331824 -0.222003,0 -0.54338,0.122777 -0.714168,0.272841 -0.170787,0.150061 -1.045968,0.531659 -1.944848,0.848 -0.898879,0.316336 -2.075594,0.770575 -2.614922,1.009415 -1.62182,0.718221 -2.778354,0.926575 -2.778354,0.500535 z m -48.56287,-3.424734 c -0.152986,-0.609544 -0.425647,-0.840383 -0.992651,-0.840383 -0.476958,0 -0.781727,-0.191151 -0.781727,-0.490298 0,-0.329101 0.329146,-0.490298 1.001142,-0.490298 0.84766,0 0.985463,-0.111513 0.89888,-0.72739 -0.06805,-0.484048 0.0891,-0.765439 0.469751,-0.841128 0.426052,-0.08472 0.572014,0.100893 0.572014,0.727389 0,0.679295 0.157222,0.841129 0.817163,0.841129 0.508459,0 0.817163,0.185225 0.817163,0.490298 0,0.326434 -0.326437,0.490298 -0.976742,0.490298 -0.804356,0 -0.963,0.12344 -0.898879,0.699416 0.112919,1.014302 -0.676752,1.1345 -0.926114,0.140967 z m 38.546751,-2.024198 c -1.745666,-1.131911 -2.271491,-2.530237 -1.757362,-4.673362 0.454827,-1.895933 1.73558,-2.985502 3.780266,-3.215968 1.929034,-0.217431 4.169914,1.283835 4.617903,3.093737 0.460975,1.86238 -0.146815,3.561255 -1.684167,4.707533 -1.632182,1.216988 -3.173348,1.244366 -4.95664,0.08806 z m 4.63845,-1.642269 c 1.681797,-1.814687 0.465969,-4.691817 -1.98268,-4.691817 -1.210794,0 -2.422833,0.472722 -2.849186,1.111244 -0.13208,0.197809 -0.240141,0.948007 -0.240141,1.667111 0,0.719103 0.108061,1.467121 0.240141,1.66226 0.923574,1.364535 3.66784,1.507205 4.831866,0.251202 z m 54.897754,0.309512 c -2.69642,-0.563934 -2.50542,-6.200486 0.22905,-6.759325 2.17897,-0.445311 3.85677,1.14481 3.85677,3.655227 0,1.351989 -1.14567,3.005748 -2.08229,3.005748 -0.26354,0 -0.67506,0.05289 -0.91448,0.117537 -0.23943,0.06464 -0.7295,0.05601 -1.08905,-0.01919 z m 2.54445,-2.028257 c 0.75756,-1.282446 0.70678,-1.876177 -0.24154,-2.824495 -1.0068,-1.006807 -1.63277,-1.011861 -2.62345,-0.02118 -0.80589,0.80588 -0.82646,1.527327 -0.0872,3.059537 0.54739,1.134611 2.22756,1.012897 2.95223,-0.213865 z m 18.29321,1.997303 c -2.61242,-0.105868 -2.82612,-0.336763 -1.63393,-1.765373 1.27579,-1.528788 2.36541,-2.957643 2.47831,-3.249864 0.06,-0.155101 -0.47363,-0.282003 -1.1857,-0.282003 -0.74749,0 -1.4653,-0.205589 -1.69838,-0.486431 -0.57251,-0.689836 0.0825,-0.876999 2.64613,-0.756138 1.88395,0.08882 2.07919,0.163054 1.97854,0.752271 -0.0614,0.359552 -0.24528,0.70276 -0.40858,0.762685 -0.1633,0.05993 -0.29973,0.280561 -0.3032,0.490297 -0.004,0.20974 -0.51864,0.968541 -1.14488,1.686226 -0.62623,0.717688 -1.09042,1.449452 -1.03152,1.626148 0.0589,0.176694 0.70622,0.278006 1.4385,0.225132 1.27118,-0.09178 2.13045,0.404793 1.51653,0.876417 -0.15513,0.119169 -1.34845,0.173455 -2.65182,0.120633 z m 4.72797,-0.0061 -1.23735,-0.102139 0.0933,-3.166514 0.0933,-3.166503 2.2333,-0.09727 c 2.00189,-0.08718 2.22141,-0.03638 2.11861,0.490298 -0.0767,0.392892 -0.43757,0.604684 -1.08928,0.639244 -0.53602,0.02844 -1.23198,0.0652 -1.54659,0.08172 -0.38423,0.02017 -0.57202,0.298301 -0.57202,0.847199 0,0.732603 0.13255,0.817163 1.28073,0.817163 0.70439,0 1.51257,0.08896 1.79589,0.197682 0.94997,0.364533 0.1689,0.782914 -1.46157,0.782914 -1.50479,0 -1.61505,0.05578 -1.61505,0.817163 0,0.44944 0.11032,0.830676 0.24515,0.847192 0.13484,0.01651 0.83351,0.07365 1.55261,0.126974 1.79802,0.133316 1.79776,0.133253 1.79776,0.462394 0,0.345133 -1.93759,0.567052 -3.6888,0.422493 z m 12.35073,0.03892 c -1.53136,-0.399524 -2.27671,-1.828203 -1.95308,-3.743712 0.63496,-3.758385 5.3245,-3.900816 5.92832,-0.18006 0.21184,1.3055 -0.008,2.404005 -0.64344,3.224454 -0.4579,0.590661 -2.28132,0.973381 -3.3318,0.699318 z m 2.15136,-1.080803 c 0.16507,0 0.30013,-0.220634 0.30013,-0.490298 0,-0.269664 0.14709,-0.490298 0.32687,-0.490298 0.50857,0 0.38449,-1.733474 -0.18197,-2.542191 -0.50667,-0.723372 -1.88853,-0.974153 -2.62456,-0.476308 -0.19527,0.13208 -0.52315,0.731348 -0.72865,1.331711 -0.31334,0.915504 -0.28241,1.215978 0.19161,1.862946 0.60035,0.819343 1.26892,1.132846 1.98113,0.92902 0.23943,-0.06852 0.57038,-0.124582 0.73544,-0.124582 z m -48.98222,0.245149 c -0.33131,-0.671182 -0.81508,-2.530738 -1.28385,-4.934995 -0.15242,-0.781744 -0.0832,-0.912118 0.43231,-0.813692 0.41413,0.07908 0.70613,0.541413 0.89757,1.421194 0.15607,0.717194 0.34475,1.512448 0.4193,1.767229 0.17926,0.612673 0.71562,0.06921 0.85902,-0.870389 0.0604,-0.396017 0.21173,-0.821883 0.33621,-0.946367 0.12449,-0.124483 0.22634,-0.495995 0.22634,-0.825586 0,-0.370858 0.23673,-0.599252 0.62113,-0.599252 0.48026,0 0.71242,0.389169 1.0237,1.716042 0.22141,0.943824 0.48094,1.851509 0.57673,2.017076 0.21613,0.373591 0.77591,-0.94769 0.95842,-2.262224 0.16794,-1.209556 0.53807,-1.619242 1.22482,-1.355713 0.40123,0.153966 0.44901,0.346536 0.20097,0.809998 -0.17897,0.334409 -0.4005,0.961719 -0.4923,1.394028 -0.62549,2.945879 -1.07858,4.054665 -1.65688,4.054665 -0.45801,0 -0.73205,-0.452528 -1.12267,-1.853911 -0.66316,-2.379138 -0.87198,-2.554099 -1.12913,-0.94603 -0.43322,2.709207 -1.36448,3.701125 -2.09169,2.227927 z m 13.81518,0.354047 c -0.0913,-0.23967 -0.12819,-1.686023 -0.0819,-3.214118 l 0.0842,-2.778354 2.01397,-0.09656 c 1.78148,-0.08542 2.07392,-0.01098 2.53321,0.644745 0.61906,0.883834 0.68041,2.121967 0.11449,2.310607 -0.32174,0.107248 -0.32174,0.317072 0,1.023216 0.22261,0.488565 0.40474,1.259889 0.40474,1.714052 0,1.228261 -1.00084,0.867932 -1.47112,-0.529646 -0.32212,-0.957271 -0.54028,-1.144029 -1.3364,-1.144029 -0.83337,0 -0.97171,0.138732 -1.11486,1.118046 -0.16856,1.153129 -0.85304,1.7216 -1.14633,0.952044 z m 3.69705,-4.073166 c 0.0726,-0.509164 -0.11754,-0.750021 -0.70948,-0.898588 -1.16417,-0.292191 -1.84124,0.07376 -1.84124,0.995174 0,0.726795 0.11483,0.792419 1.22574,0.700479 0.96163,-0.07959 1.24713,-0.251337 1.32498,-0.797065 z m 2.35226,1.185913 c 0,-3.050741 0.0436,-3.268652 0.65373,-3.268652 0.54391,0 0.65373,0.217911 0.65373,1.297204 0,1.541006 0.4284,1.499942 1.63432,-0.156657 0.82612,-1.134853 1.96119,-1.528013 1.96119,-0.679304 0,0.25368 -0.44126,0.832542 -0.98059,1.286358 -0.53933,0.453813 -0.9806,0.970434 -0.9806,1.148046 0,0.177612 0.51482,0.997374 1.14403,1.821692 1.33274,1.745977 1.35297,1.819966 0.49783,1.819966 -0.3554,0 -0.90508,-0.404496 -1.2215,-0.89888 -1.35745,-2.120904 -2.05468,-2.259554 -2.05468,-0.408581 0,1.08955 -0.10896,1.307461 -0.65373,1.307461 -0.61015,0 -0.65373,-0.217911 -0.65373,-3.268653 z m 19.28504,0.02396 0,-3.292619 1.94266,0 c 1.63694,0 2.02274,0.114321 2.45149,0.726462 0.58924,0.841259 0.66847,2.078088 0.15349,2.39636 -0.2559,0.158144 -0.2559,0.319076 0,0.574962 0.53606,0.536056 0.45532,2.839521 -0.0995,2.839521 -0.25015,0 -0.55616,-0.403672 -0.68001,-0.897052 -0.34014,-1.355203 -0.74012,-1.684386 -1.72624,-1.420651 -0.68877,0.184205 -0.87548,0.434695 -0.88535,1.187848 -0.009,0.64214 -0.19965,0.990957 -0.5845,1.066103 -0.51429,0.10042 -0.57201,-0.220467 -0.57201,-3.180934 z m 3.75895,-1.173538 c 0,-0.498254 -0.25669,-0.672699 -1.10974,-0.75415 -1.18234,-0.112896 -1.6814,0.313277 -1.44144,1.230873 0.22465,0.85909 2.55118,0.424346 2.55118,-0.476723 z m -93.891135,-8.14673 c -1.262589,-1.0624 -1.812239,-2.915474 -1.355461,-4.569779 0.593385,-2.14907 1.9611,-3.130914 4.361373,-3.130914 1.234936,0 1.701222,0.186986 2.662046,1.067515 2.012411,1.844239 2.026699,4.67265 0.0328,6.49379 -0.878156,0.802071 -1.294729,0.937191 -2.889361,0.937191 -1.498543,0 -2.048857,-0.156163 -2.811401,-0.797803 z m 5.194631,-1.537983 c 1.400412,-1.820793 0.211848,-4.478214 -2.099001,-4.692984 -2.768519,-0.257305 -4.300527,2.994419 -2.336234,4.958713 0.729165,0.729164 1.043145,0.819343 2.342729,0.672862 1.061043,-0.119597 1.674096,-0.394579 2.092506,-0.938591 z m 6.914351,-16.282301 c -2.284694,-1.393057 -2.866978,-4.712632 -1.190065,-6.78451 2.617358,-3.233831 7.629784,-1.362237 7.629784,2.848896 0,1.679809 -0.716711,2.928957 -2.193433,3.822921 -1.516684,0.918155 -2.866536,0.95398 -4.246286,0.112693 z m 4.08607,-1.656605 c 2.070773,-1.929218 0.816428,-5.220797 -1.989524,-5.220797 -0.985512,0 -1.478546,0.214558 -2.153598,0.937202 -1.316662,1.409495 -1.199732,2.656453 0.423559,4.516862 0.581516,0.666462 2.910601,0.520396 3.719563,-0.233267 z m 117.689323,1.910151 c -0.99338,-0.342966 -1.24899,-1.04623 -1.25523,-3.453714 -0.005,-1.856016 0.73528,-3.023503 1.9167,-3.023503 1.21441,0 2.52141,2.71759 1.98522,4.127844 -0.16206,0.426324 -0.21962,0.775135 -0.12784,0.775135 0.0918,0 0.0111,0.290808 -0.17902,0.646238 -0.50422,0.942114 -1.33946,1.273383 -2.33983,0.928 z m 1.34371,-1.55275 c 0.40779,-0.761959 0.43607,-2.629893 0.0491,-3.240585 -0.15363,-0.24241 -0.55587,-0.388175 -0.89388,-0.323927 -0.4833,0.09187 -0.63618,0.45636 -0.71583,1.706672 -0.0557,0.87442 -0.0235,1.792408 0.0714,2.039969 0.25116,0.654463 1.09683,0.551033 1.4892,-0.182129 z m -39.5355,0.962304 c -0.63869,-0.553942 -0.74581,-0.950609 -0.72142,-2.671538 0.0235,-1.670975 0.16359,-2.155922 0.80765,-2.79999 0.69053,-0.690532 0.87832,-0.733728 1.65374,-0.380422 2.2065,1.005349 1.68038,6.502484 -0.62235,6.502484 -0.20213,0 -0.70508,-0.292741 -1.11762,-0.650534 z m 2.06229,-2.834994 c -0.065,-1.680656 -0.38943,-2.192295 -1.19417,-1.883492 -0.42214,0.161998 -0.54495,0.636995 -0.54495,2.108101 0,2.011594 0.4228,2.574178 1.3072,1.739433 0.31791,-0.300059 0.46961,-0.989911 0.43192,-1.964042 z m 3.35916,3.219724 c -1.04812,-0.126059 -1.82962,-0.747181 -1.82962,-1.454128 0,-0.863399 0.42502,-0.884557 1.18988,-0.05924 0.6302,0.679997 0.88025,0.763272 1.42174,0.473483 0.86057,-0.460572 0.87681,-1.636097 0.0225,-1.636097 -0.97674,0 -1.20604,-0.709059 -0.40195,-1.242958 0.39025,-0.259109 0.70953,-0.6738 0.70953,-0.921534 0,-0.609061 -1.28004,-0.575401 -1.51613,0.03987 -0.18877,0.491886 -1.4271,0.705064 -1.42402,0.245148 0,-0.134831 0.34314,-0.671979 0.76058,-1.193659 0.59623,-0.745135 0.92879,-0.903446 1.55098,-0.738336 1.54839,0.410889 1.73702,0.727546 1.81936,3.054176 0.11911,3.364584 -0.10434,3.697709 -2.30296,3.433278 z m 12.6407,0.005 c -1.92171,-0.289485 -2.7929,-3.935697 -1.37198,-5.742108 0.8822,-1.121556 3.20491,-1.228121 4.23859,-0.194461 2.6141,2.614134 0.74695,6.480924 -2.86661,5.936569 z m 2.23409,-1.578227 c 0.68923,-0.830483 0.56345,-3.03797 -0.20514,-3.600587 -1.25977,-0.922159 -3.06613,0.162034 -3.08741,1.8531 -0.0239,1.901062 2.18994,3.076044 3.29255,1.747487 z m 23.36855,1.598613 c -0.10748,-0.107447 -0.1954,-1.043481 -0.1954,-2.080059 0,-1.597616 -0.0996,-1.91629 -0.65374,-2.092173 -0.35955,-0.114118 -0.65278,-0.307891 -0.65167,-0.430609 0.003,-0.229675 1.55539,-1.193918 2.10332,-1.305706 0.47294,-0.09649 0.45427,5.773395 -0.019,5.954978 -0.21351,0.08194 -0.47615,0.06105 -0.58362,-0.04641 z m -50.20579,-0.43509 c 0,-0.191772 0.36773,-0.830784 0.81717,-1.42003 0.78428,-1.028217 1.10676,-2.480545 0.55083,-2.480545 -0.14647,0 -0.51181,-0.514812 -0.81187,-1.144028 -0.5388,-1.129872 -0.53645,-1.144028 0.18883,-1.144028 0.44722,0 0.86051,0.286804 1.05702,0.733538 0.45558,1.035721 1.27935,1.081655 1.72827,0.09637 0.22334,-0.490226 0.64856,-0.829907 1.03887,-0.829907 0.91588,0 0.82834,0.440094 -0.35586,1.788819 -1.00932,1.149539 -1.0124,1.164261 -0.43035,2.054282 0.32242,0.493044 0.7799,1.090812 1.01659,1.328374 0.23671,0.237559 0.43035,0.642055 0.43035,0.89888 0,0.809027 -0.90009,0.508393 -1.7825,-0.595362 -0.75198,-0.940627 -0.88655,-0.998636 -1.17491,-0.506432 -0.77745,1.327053 -2.27244,2.129714 -2.27244,1.22007 z m 17.65073,-0.285324 c 0,-0.496387 -0.26545,-0.656022 -1.22304,-0.735447 -1.32717,-0.110091 -1.76173,-0.822955 -0.98409,-1.614384 0.24224,-0.246541 0.92065,-1.149958 1.50757,-2.007593 0.58689,-0.857633 1.20502,-1.474084 1.37362,-1.369886 0.16859,0.104198 0.30653,1.063306 0.30653,2.131351 0,1.508222 0.1095,1.9419 0.4903,1.9419 0.26966,0 0.4903,0.151705 0.4903,0.337122 0,0.185421 -0.22064,0.42179 -0.4903,0.525269 -0.26966,0.103483 -0.4903,0.466587 -0.4903,0.806906 0,0.340316 -0.22063,0.61876 -0.4903,0.61876 -0.26966,0 -0.49029,-0.285301 -0.49029,-0.633998 z m 0,-2.471222 c 0,-0.912919 -0.47684,-1.095881 -0.78219,-0.300131 -0.31386,0.817921 -0.23564,1.117294 0.29189,1.117294 0.30506,0 0.4903,-0.308705 0.4903,-0.817163 z m 11.76714,-0.163433 0,-3.268652 1.91053,0 c 1.43579,0 2.04497,0.148537 2.45149,0.597751 0.6049,0.668381 0.72486,2.191811 0.19825,2.517278 -0.21502,0.132877 -0.22946,0.353253 -0.0387,0.591305 0.16719,0.208714 0.36544,0.931066 0.44052,1.605226 0.11234,1.008507 0.0334,1.225745 -0.44532,1.225745 -0.36913,0 -0.6539,-0.328677 -0.77883,-0.89888 -0.37138,-1.694803 -0.43244,-1.760908 -1.5293,-1.655203 -0.97242,0.09371 -1.07333,0.208697 -1.16599,1.328338 -0.0664,0.80182 -0.26421,1.225745 -0.57202,1.225745 -0.37815,0 -0.47059,-0.64201 -0.47059,-3.268653 z m 3.53656,-1.225745 c 0.10162,-0.715674 -0.0737,-0.817163 -1.41193,-0.817163 -1.01554,0 -1.14403,0.103166 -1.14403,0.918613 0,0.767201 0.10208,0.828446 1.22575,0.735446 0.98458,-0.08149 1.2463,-0.246142 1.33021,-0.836896 z m 4.63508,4.296651 c 0,-0.108758 0.44682,-0.85981 0.99295,-1.669004 l 0.99295,-1.471259 -0.82952,-1.08754 c -0.9314,-1.221123 -1.07447,-2.111755 -0.33922,-2.111755 0.26966,0 0.49049,0.110317 0.49069,0.245149 2.3e-4,0.134831 0.33566,0.634939 0.74542,1.111345 l 0.74499,0.866196 0.72848,-1.111345 c 0.69266,-1.056661 1.7031,-1.509147 1.7031,-0.762672 0,0.191772 -0.36772,0.830784 -0.81716,1.42003 -0.44944,0.589247 -0.81717,1.249139 -0.81717,1.466426 0,0.21729 0.36773,0.936224 0.81717,1.597635 0.44944,0.661409 0.81716,1.315509 0.81716,1.453551 0,0.586801 -0.98419,0.177631 -1.74363,-0.72488 l -0.82112,-0.975869 -0.82115,0.975869 c -0.72172,0.857718 -1.84394,1.331283 -1.84394,0.778123 z m -59.16261,-2.346386 c -3.39153,-0.08359 -3.82598,-0.163459 -4.44474,-0.817163 -0.37718,-0.398485 -1.69115,-1.607056 -2.91993,-2.685711 -1.22878,-1.078656 -2.59933,-2.294856 -3.04568,-2.702666 l -0.81153,-0.741474 -0.72068,0.677042 -0.72068,0.677043 -1.01905,-1.569895 c -0.56048,-0.86344 -1.24139,-1.857218 -1.51315,-2.208389 -0.27175,-0.351174 -0.49409,-0.829214 -0.49409,-1.062312 0,-0.2331 -0.11273,-0.423817 -0.2505,-0.423817 -0.3343,0 -2.47373,-3.595164 -2.26415,-3.804744 0.15077,-0.150766 4.74614,2.102731 5.12645,2.513931 0.0916,0.09904 0.97555,0.592557 1.96431,1.096698 2.33429,1.190175 2.48404,1.352291 1.84212,1.994208 -0.79497,0.794975 -0.66272,1.249357 0.67197,2.308659 0.66364,0.526713 1.5094,1.251838 1.87947,1.611389 0.37007,0.359552 1.49771,1.352405 2.50585,2.206341 l 1.83301,1.55261 9.54829,0 9.5483,0 -0.10443,0.702002 c -0.10254,0.689182 -0.22083,0.702609 -6.47833,0.735446 -3.50563,0.0184 -8.0654,-0.0082 -10.13283,-0.0592 z M 76.015706,18.415977 C 74.93859,18.01965 73.411518,15.649194 73.41308,14.375946 c 0.0026,-2.035374 1.809376,-3.959636 4.061232,-4.325061 3.415909,-0.5543278 6.32703,3.542091 4.521998,6.36318 -0.907947,1.41903 -1.346502,1.762297 -2.633462,2.061258 -1.495624,0.347435 -2.279382,0.33354 -3.347142,-0.05935 z m 3.580942,-1.523113 c 2.632259,-1.49385 1.476016,-5.31156 -1.608677,-5.31156 -1.751837,0 -2.949302,1.068686 -3.004872,2.681723 -0.04777,1.386543 0.461638,2.139098 1.860716,2.748845 1.299028,0.566141 1.565888,0.554606 2.752833,-0.119008 z m 15.706196,1.317515 c -1.559677,-1.084513 -1.929924,-1.798543 -1.941331,-3.743924 -0.0089,-1.515635 0.139914,-2.033602 0.814554,-2.835363 1.729036,-2.054845 5.491879,-1.8680383 7.072033,0.351089 1.41096,1.9815 0.81278,4.986382 -1.23164,6.187007 -1.256722,0.738038 -3.68099,0.759223 -4.713616,0.04119 z m 3.940354,-1.302515 c 1.955532,-1.347796 2.148752,-2.776067 0.582693,-4.307179 -1.341128,-1.3112 -3.030829,-1.396741 -4.3029,-0.217826 -0.47569,0.440856 -0.883278,1.029214 -0.90575,1.307461 -0.02249,0.278247 -0.0632,0.689767 -0.0905,0.914487 -0.08464,0.696579 0.693955,1.935268 1.493281,2.375709 1.08736,0.599157 2.287707,0.572099 3.223179,-0.07265 z"
     style="fill:#000000" />
</svg>
