*
*
G04 PADS 9.5 Build Number: 522968 generated Gerber (RS-274-X) file*
G04 PC Version=2.1*
*
%IN "MAXREFDES61_RA.pcb"*%
*
%MOIN*%
*
%FSLAX35Y35*%
*
*
*
*
G04 PC Standard Apertures*
*
*
G04 Thermal Relief Aperture macro.*
%AMTER*
1,1,$1,0,0*
1,0,$1-$2,0,0*
21,0,$3,$4,0,0,45*
21,0,$3,$4,0,0,135*
%
*
*
G04 Annular Aperture macro.*
%AMANN*
1,1,$1,0,0*
1,0,$2,0,0*
%
*
*
G04 Odd Aperture macro.*
%AMODD*
1,1,$1,0,0*
1,0,$1-0.005,0,0*
%
*
*
G04 PC Custom Aperture Macros*
*
*
*
*
*
*
G04 PC Aperture Table*
*
%ADD046C,0.015*%
%ADD048C,0.03*%
%ADD049C,0.035*%
%ADD054C,0.06*%
%ADD172C,0.012*%
%ADD198C,0.01*%
%ADD199C,0.007*%
%ADD200C,0.001*%
%ADD232C,0.003*%
%ADD233C,0.002*%
%ADD268O,0.08X0.08*%
%ADD273O,0.06X0.06*%
%ADD281C,0.04921*%
%ADD284R,0.09449X0.06299*%
%ADD290R,0.09843X0.06496*%
%ADD299O,0.06496X0.03937*%
%ADD300O,0.04921X0.03543*%
*
*
*
*
G04 PC Circuitry*
G04 Layer Name MAXREFDES61_RA.pcb - circuitry*
%LPD*%
*
*
G04 PC Custom Flashes*
G04 Layer Name MAXREFDES61_RA.pcb - flashes*
%LPD*%
*
*
G04 PC Circuitry*
G04 Layer Name MAXREFDES61_RA.pcb - circuitry*
%LPD*%
*
G54D46*
G01X1968137Y1616826D02*
X1967182Y1615871D01*
X1968137Y1610674D02*
X1967182Y1611629D01*
X1961985Y1610674D02*
X1962940Y1611629D01*
X1961985Y1616826D02*
X1962940Y1615871D01*
X2008137Y1616826D02*
X2007182Y1615871D01*
X2008137Y1610674D02*
X2007182Y1611629D01*
X2001985Y1610674D02*
X2002940Y1611629D01*
X2001985Y1616826D02*
X2002940Y1615871D01*
X1822478Y1401207D02*
Y1396207D01*
Y1391207*
Y1431207D02*
Y1401207D01*
X1802478Y1416207D02*
X1797478D01*
X1807478D02*
X1802478D01*
X1822478Y1431207D02*
Y1436207D01*
X1842478Y1416207D02*
X1847478D01*
X1837478D02*
X1842478D01*
X1807478D02*
X1837478D01*
X1827478D02*
G75*
G03X1827478I-5000J0D01*
G01X1837478D02*
G03X1837478I-15000J0D01*
G01X1832478D02*
G03X1832478I-10000J0D01*
G01X1822478Y1436207D02*
Y1441207D01*
X1822439Y1625600D02*
Y1620600D01*
Y1615600*
Y1655600D02*
Y1625600D01*
X1802439Y1640600D02*
X1797439D01*
X1807439D02*
X1802439D01*
X1822439Y1655600D02*
Y1660600D01*
X1842439Y1640600D02*
X1847439D01*
X1837439D02*
X1842439D01*
X1807439D02*
X1837439D01*
X1827439D02*
G03X1827439I-5000J0D01*
G01X1837439D02*
G03X1837439I-15000J0D01*
G01X1832439D02*
G03X1832439I-10000J0D01*
G01X1822439Y1660600D02*
Y1665600D01*
X2177561Y1625699D02*
Y1620699D01*
Y1615699*
Y1655699D02*
Y1625699D01*
X2157561Y1640699D02*
X2152561D01*
X2162561D02*
X2157561D01*
X2177561Y1655699D02*
Y1660699D01*
X2197561Y1640699D02*
X2202561D01*
X2192561D02*
X2197561D01*
X2162561D02*
X2192561D01*
X2182561D02*
G03X2182561I-5000J0D01*
G01X2192561D02*
G03X2192561I-15000J0D01*
G01X2187561D02*
G03X2187561I-10000J0D01*
G01X2177561Y1660699D02*
Y1665699D01*
G54D48*
X1948061Y1447250D03*
X1949561Y1461750D03*
X1935561Y1451750D03*
X1944061Y1447250D03*
X1935561Y1455750D03*
X1945561Y1461750D03*
X1943561Y1431250D03*
X1975561Y1429750D03*
X1975061Y1452750D03*
Y1444250D03*
X2000561Y1446250D03*
X1975061Y1448250D03*
X2000561Y1436250D03*
X2000061Y1452250D03*
X1973561Y1456750D03*
X2043561Y1462250D03*
X2033061Y1438750D03*
X2039061Y1430250D03*
Y1440250D03*
Y1444250D03*
X2033061Y1433750D03*
Y1443750D03*
X2039061Y1434250D03*
X2052061Y1449750D03*
X2079561Y1437250D03*
X2074061Y1441750D03*
X2047561Y1462250D03*
X2083561Y1427750D03*
X2080061Y1433250D03*
X2088561Y1427750D03*
X2096561Y1433750D03*
X2093561Y1430750D03*
X2113061Y1436250D03*
X2109561Y1454750D03*
X2115061Y1439250D03*
X2132061Y1449250D03*
Y1443250D03*
X1895061Y1463750D03*
X1921561Y1494250D03*
X1921061Y1489250D03*
X1955561Y1493750D03*
X1945561Y1499750D03*
X1959561Y1493750D03*
X1949561Y1499750D03*
X1952561Y1478250D03*
X1947061Y1483750D03*
X1959561Y1474750D03*
X1951561Y1482250D03*
X1943561Y1477250D03*
X1995061Y1488750D03*
X1996061Y1498750D03*
X1985561Y1462750D03*
X1977561Y1478750D03*
X1990061Y1465250D03*
X1981061Y1463250D03*
X1990561Y1470250D03*
X1982561Y1478750D03*
X1995061Y1470250D03*
X2029061Y1478750D03*
Y1493750D03*
Y1470250D03*
X2033061Y1487250D03*
X2033561Y1470250D03*
X2036061Y1480750D03*
X2029061Y1488750D03*
Y1483750D03*
Y1498750D03*
X2039561Y1487250D03*
X2071061Y1501750D03*
X2062561Y1501250D03*
X2052561Y1489250D03*
X2045061Y1471250D03*
X2073061Y1488750D03*
X2078061Y1479750D03*
X2060561Y1470250D03*
X2082561Y1479750D03*
X2060061Y1474250D03*
X2064061Y1479750D03*
X2067561Y1476750D03*
X2074061D03*
X2071061Y1479750D03*
X2056061Y1486250D03*
X2055061Y1474250D03*
X2060061Y1489250D03*
X2103061Y1497750D03*
X2085061Y1464250D03*
X2097061Y1493750D03*
X2112561Y1466750D03*
X2090061Y1464250D03*
X1920061Y1540750D03*
X1930561Y1535750D03*
X1926061Y1534750D03*
Y1530250D03*
X1932561Y1532750D03*
X1940061Y1505750D03*
X1938061Y1532750D03*
X1934061Y1540750D03*
X1929061D03*
X1924561D03*
X1956561Y1526750D03*
X1951061D03*
X1962061Y1539250D03*
X1960561Y1529250D03*
X1999561Y1512750D03*
X1995061Y1512250D03*
X1965061Y1529250D03*
X1988061Y1529750D03*
X1980061Y1536250D03*
X1983561Y1529750D03*
X1976311Y1505250D03*
X1970311Y1529250D03*
X1989061Y1516750D03*
X1976561Y1529500D03*
X2031561Y1503750D03*
X2029061Y1508750D03*
X2025061Y1522750D03*
X2043561Y1521750D03*
X2028061Y1513750D03*
X2022561Y1528250D03*
Y1533250D03*
X2043561Y1506750D03*
X2029061Y1520750D03*
X2070561Y1536250D03*
X2083561Y1540750D03*
X2067811Y1514250D03*
X2059061Y1528250D03*
X2073561Y1505750D03*
X2046061Y1510750D03*
X2058061Y1505750D03*
X2057561Y1519750D03*
Y1514750D03*
X2064061Y1525750D03*
X2076061D03*
X2064061Y1530750D03*
X2078561D03*
X2076061Y1517750D03*
X2045061Y1514750D03*
X2045561Y1527750D03*
X2086561Y1537250D03*
X2091061D03*
X2092561Y1525250D03*
X2090561Y1515250D03*
X2091061Y1510750D03*
X2102561Y1516750D03*
X2097061Y1524250D03*
X2102561Y1526750D03*
X2098811Y1504250D03*
X2103061Y1503250D03*
X2091061Y1504750D03*
X1919061Y1565750D03*
X1920561Y1562250D03*
X1916561Y1579750D03*
X1907061Y1578250D03*
X1940561Y1562250D03*
X1959061Y1548250D03*
X1955061D03*
X1935561Y1548750D03*
X1929061Y1566750D03*
X1932061Y1582250D03*
X1961061Y1562250D03*
X1962061Y1543250D03*
X1956061Y1579250D03*
X1946061Y1573750D03*
X1964061Y1581750D03*
X1974061Y1543750D03*
Y1547750D03*
Y1551750D03*
X2025561Y1568250D03*
X2030561D03*
X2039061Y1571250D03*
X2018061Y1582250D03*
X2016061Y1572750D03*
Y1576750D03*
X2015561Y1560250D03*
X2019561D03*
X2006061Y1551750D03*
Y1547750D03*
Y1543750D03*
X2065061Y1572750D03*
X2046061Y1550250D03*
Y1555250D03*
X2068561Y1548250D03*
X2059061Y1548000D03*
X2081561Y1550000D03*
X2058561Y1559750D03*
X2081561Y1554500D03*
X2044561Y1582250D03*
X2054061Y1558750D03*
X2073061Y1548250D03*
X2069561Y1572750D03*
X2087561Y1545750D03*
X2102561Y1562250D03*
X2098561Y1558250D03*
X1916561Y1583750D03*
X1908561Y1602250D03*
X1907061Y1583750D03*
X1930061Y1585750D03*
X1946061Y1609750D03*
X1925061Y1611250D03*
X1929561D03*
X1957561Y1607250D03*
X1928061Y1590250D03*
Y1594250D03*
X1933061Y1599750D03*
Y1595750D03*
X1962061Y1586250D03*
X2041561Y1606250D03*
Y1621250D03*
Y1616250D03*
Y1611250D03*
X2078061Y1615750D03*
X2067061Y1590250D03*
X2058561D03*
X2082561Y1591750D03*
X2074561Y1587750D03*
X2055061Y1627250D03*
X2065061D03*
X2060061D03*
X2070061D03*
G54D49*
X1912561Y1458750D03*
Y1441250D03*
G54D54*
Y1625250D03*
X1985061D03*
X2025061D03*
X1935061D03*
X1957561D03*
X2085061D03*
X2120061D03*
G54D172*
X1974561Y1460250D02*
X1966061Y1468750D01*
X1941561*
X1921061Y1489250*
X1974561Y1460250D02*
X1983061D01*
X1985561Y1462750*
X2074061Y1441750D02*
X2080561Y1448250D01*
Y1469750*
X2086061Y1475250*
Y1500250*
X2072561Y1513750*
Y1534250*
X2070561Y1536250*
X1981061Y1463250D02*
X1975061D01*
X1967061Y1471250*
X1953561*
X1947061Y1477750*
Y1483750*
X2071061Y1501750D02*
X2062061Y1510750D01*
X2046061*
X2067811Y1514250D02*
X2059061Y1523000D01*
Y1528250*
G54D198*
X1927561Y1707813D02*
Y1701250D01*
X1930288*
X1934152Y1707813D02*
X1932334Y1701250D01*
X1934152Y1707813D02*
X1935970Y1701250D01*
X1933016Y1703438D02*
X1935288D01*
X1938016Y1707813D02*
X1939834Y1704688D01*
X1939834D02*
Y1701250D01*
X1941652Y1707813D02*
X1939834Y1704688D01*
X1943697Y1707813D02*
Y1701250D01*
Y1707813D02*
X1946652D01*
X1943697Y1704688D02*
X1945516D01*
X1943697Y1701250D02*
X1946652D01*
X1948697Y1707813D02*
Y1701250D01*
Y1707813D02*
X1950743D01*
X1950743D02*
X1951425Y1707500D01*
X1951652Y1707188*
X1951652D02*
X1951879Y1706563D01*
X1951879D02*
Y1705938D01*
X1951879D02*
X1951652Y1705313D01*
X1951652D02*
X1951425Y1705000D01*
X1950743Y1704688*
X1950743D02*
X1948697D01*
X1950288D02*
X1951879Y1701250D01*
X1961425Y1707813D02*
X1959152Y1703438D01*
X1959152D02*
X1962561D01*
X1961425Y1707813D02*
Y1701250D01*
X1970288Y1707813D02*
X1972788D01*
X1972788D02*
X1971425Y1705313D01*
X1971425D02*
X1972106D01*
X1972106D02*
X1972561Y1705000D01*
X1972788Y1704688*
X1972788D02*
X1973016Y1703750D01*
Y1703125*
X1972788Y1702188*
X1972788D02*
X1972334Y1701563D01*
X1972334D02*
X1971652Y1701250D01*
X1970970*
X1970288Y1701563*
X1970288D02*
X1970061Y1701875D01*
X1969834Y1702500*
X1975288Y1701875D02*
X1975061Y1701563D01*
X1975061D02*
X1975288Y1701250D01*
X1975516Y1701563*
X1975516D02*
X1975288Y1701875D01*
X1978016Y1707813D02*
X1980516D01*
X1980516D02*
X1979152Y1705313D01*
X1979152D02*
X1979834D01*
X1979834D02*
X1980288Y1705000D01*
X1980516Y1704688*
X1980516D02*
X1980743Y1703750D01*
Y1703125*
X1980516Y1702188*
X1980516D02*
X1980061Y1701563D01*
X1980061D02*
X1979379Y1701250D01*
X1978697*
X1978016Y1701563*
X1978016D02*
X1977788Y1701875D01*
X1977561Y1702500*
X1982788Y1707813D02*
X1984606Y1701250D01*
X1986425Y1707813D02*
X1984606Y1701250D01*
X1988925Y1701563D02*
X1988697Y1701250D01*
X1988470Y1701563*
X1988470D02*
X1988697Y1701875D01*
X1988925Y1701563*
X1988925D02*
Y1700937D01*
X1988925D02*
X1988697Y1700312D01*
X1988697D02*
X1988470Y1700000D01*
X1999152Y1707813D02*
X1996879D01*
X1996879D02*
X1996652Y1705000D01*
X1996879Y1705313*
X1996879D02*
X1997561Y1705625D01*
X1998243*
X1998925Y1705313*
X1998925D02*
X1999379Y1704688D01*
X1999379D02*
X1999606Y1703750D01*
X1999379Y1703125*
X1999152Y1702188*
X1999152D02*
X1998697Y1701563D01*
X1998697D02*
X1998016Y1701250D01*
X1997334*
X1996652Y1701563*
X1996652D02*
X1996425Y1701875D01*
X1996197Y1702500*
X2001652Y1707813D02*
X2003470Y1701250D01*
X2005288Y1707813D02*
X2003470Y1701250D01*
X2007334Y1707813D02*
Y1701250D01*
Y1707813D02*
X2008925D01*
X2008925D02*
X2009606Y1707500D01*
X2010061Y1706875*
X2010288Y1706250*
X2010516Y1705313*
X2010516D02*
Y1703750D01*
X2010288Y1702813*
X2010288D02*
X2010061Y1702188D01*
X2010061D02*
X2009606Y1701563D01*
X2009606D02*
X2008925Y1701250D01*
X2007334*
X2013016Y1701563D02*
X2012788Y1701250D01*
X2012561Y1701563*
X2012561D02*
X2012788Y1701875D01*
X2013016Y1701563*
X2013016D02*
Y1700937D01*
X2013016D02*
X2012788Y1700312D01*
X2012788D02*
X2012561Y1700000D01*
X2023243Y1707813D02*
X2020970D01*
X2020970D02*
X2020743Y1705000D01*
X2020970Y1705313*
X2020970D02*
X2021652Y1705625D01*
X2022334*
X2023016Y1705313*
X2023016D02*
X2023470Y1704688D01*
X2023470D02*
X2023697Y1703750D01*
X2023470Y1703125*
X2023243Y1702188*
X2023243D02*
X2022788Y1701563D01*
X2022788D02*
X2022106Y1701250D01*
X2021425*
X2020743Y1701563*
X2020743D02*
X2020516Y1701875D01*
X2020288Y1702500*
X2025743Y1707813D02*
X2027561Y1701250D01*
X2029379Y1707813D02*
X2027561Y1701250D01*
X2031879Y1701563D02*
X2031652Y1701250D01*
X2031425Y1701563*
X2031425D02*
X2031652Y1701875D01*
X2031879Y1701563*
X2031879D02*
Y1700937D01*
X2031879D02*
X2031652Y1700312D01*
X2031652D02*
X2031425Y1700000D01*
X2039152Y1706563D02*
X2039606Y1706875D01*
X2040288Y1707813*
X2040288D02*
Y1701250D01*
X2043470Y1707813D02*
X2042788Y1707500D01*
X2042561Y1706875*
Y1706250*
X2042788Y1705625*
X2043243Y1705313*
X2043243D02*
X2044152Y1705000D01*
X2044834Y1704688*
X2044834D02*
X2045288Y1704063D01*
X2045288D02*
X2045516Y1703438D01*
X2045516D02*
Y1702500D01*
X2045288Y1701875*
X2045061Y1701563*
X2045061D02*
X2044379Y1701250D01*
X2043470*
X2042788Y1701563*
X2042788D02*
X2042561Y1701875D01*
X2042334Y1702500*
Y1703438*
X2042334D02*
X2042561Y1704063D01*
X2042561D02*
X2043016Y1704688D01*
X2043016D02*
X2043697Y1705000D01*
X2044606Y1705313*
X2044606D02*
X2045061Y1705625D01*
X2045288Y1706250*
Y1706875*
X2045061Y1707500*
X2044379Y1707813*
X2044379D02*
X2043470D01*
X2047561D02*
X2049379Y1701250D01*
X2051197Y1707813D02*
X2049379Y1701250D01*
X2052061Y1449750D02*
Y1476250D01*
X2060061Y1484250*
Y1489250*
X2090561Y1515250D02*
X2086561Y1519250D01*
Y1537250*
X2091061Y1510750D02*
X2089061D01*
X2083561Y1516250*
Y1540750*
X2101970Y1488825D02*
G03Y1471368I0J-8729D01*
G01X2137404*
Y1457274*
X2129982*
X2129981D02*
G03X2129984Y1453947I-9J-1664D01*
G01X2129982D02*
X2137404D01*
Y1438593*
X2129963*
G03Y1435246I-0J-1674*
G01X2137404*
Y1422156*
X2131498Y1416250D02*
G03X2137404Y1422156I0J5906D01*
G01X2131498Y1416250D02*
X1877561D01*
Y1640659*
X2131498*
X2131498*
X2137404Y1634754D02*
G03X2131498Y1640659I-5906J-0D01*
G01X2137404Y1634754D02*
Y1585541D01*
X2101970*
G03Y1568746I0J-8397*
G01X2135435*
X2137404Y1566778*
Y1542368*
X2135435Y1540400*
X2101970*
X2101970*
G03Y1532919I0J-3741*
G01X2135435*
X2137404Y1530951*
Y1490793*
X2135435Y1488825*
X2101970*
X1987061Y1555250D02*
X1993061D01*
Y1537250*
X1987061*
Y1555250*
X2037561Y1373750D02*
X2137561D01*
Y1398750*
X2037561*
Y1373750*
Y1366250D02*
X2082061D01*
X2037561D02*
X2047561Y1368750D01*
Y1363750*
X2037561Y1366250*
X2137561D02*
X2101697D01*
X2137561D02*
X2127561Y1363750D01*
Y1368750*
X2137561Y1366250*
X2037561Y1368750D02*
Y1361250D01*
X2137561Y1368750D02*
Y1361250D01*
X2039561Y1373750D02*
Y1386250D01*
X2040561Y1373750D02*
Y1386250D01*
X2041561D02*
Y1373750D01*
X2042561Y1386250D02*
Y1373750D01*
X2043561Y1386250D02*
Y1373750D01*
X2044561Y1386250D02*
Y1373750D01*
X2045561Y1386250D02*
Y1373750D01*
X2046561Y1386250D02*
Y1373750D01*
X2047561D02*
Y1386250D01*
X2048561Y1373750D02*
Y1386250D01*
X2051561D02*
Y1398750D01*
X2052561Y1386250D02*
Y1398750D01*
X2053561D02*
Y1386250D01*
X2054561Y1398750D02*
Y1386250D01*
X2055561Y1398750D02*
Y1386250D01*
X2056561Y1398750D02*
Y1386250D01*
X2057561Y1398750D02*
Y1386250D01*
X2058561Y1398750D02*
Y1386250D01*
X2059561D02*
Y1398750D01*
X2060561Y1386250D02*
Y1398750D01*
X2050061Y1373750D02*
Y1398750D01*
X2062561Y1373750D02*
Y1398750D01*
X2037561Y1386250D02*
X2137561D01*
X2112561Y1373750D02*
Y1398750D01*
X2087561Y1373750D02*
Y1398750D01*
X2038561Y1373750D02*
Y1386250D01*
X2049061Y1373750D02*
Y1386250D01*
X2051061D02*
Y1398750D01*
X2061561Y1386250D02*
Y1398750D01*
X2064561Y1386250D02*
Y1398750D01*
X2063561Y1386250D02*
Y1398750D01*
X2065561Y1386250D02*
Y1398750D01*
X2066561D02*
Y1386250D01*
X2067561Y1398750D02*
Y1386250D01*
X2068561Y1398750D02*
Y1386250D01*
X2069561Y1398750D02*
Y1386250D01*
X2070561Y1398750D02*
Y1386250D01*
X2072561D02*
Y1398750D01*
X2071561D02*
Y1386250D01*
X2073561D02*
Y1398750D01*
X2074561Y1386250D02*
Y1398750D01*
X2076561Y1386250D02*
Y1398750D01*
X2075561Y1386250D02*
Y1398750D01*
X2077561Y1386250D02*
Y1398750D01*
X2078561D02*
Y1386250D01*
X2079561Y1398750D02*
Y1386250D01*
X2080561Y1398750D02*
Y1386250D01*
X2081561Y1398750D02*
Y1386250D01*
X2082561Y1398750D02*
Y1386250D01*
X2083561Y1398750D02*
Y1386250D01*
X2084561D02*
Y1398750D01*
X2085561Y1386250D02*
Y1398750D01*
X2086561Y1386250D02*
Y1398750D01*
X2130061Y1673750D02*
Y1838750D01*
X1880061*
Y1673750*
X2130061*
X2107561Y1791250D02*
Y1766250D01*
X2130061Y1791250D02*
X1880061D01*
X2130061Y1766250D02*
X1880061D01*
X2130061Y1693750D02*
X1880061D01*
X2130061Y1716950D02*
X1880061D01*
X1995061Y1673750D02*
Y1693750D01*
X1981489Y1810326D02*
X1978762Y1805076D01*
X1982853*
X1981489Y1810326D02*
Y1802451D01*
X1987489Y1810326D02*
X1985307Y1802451D01*
X1987489Y1810326D02*
X1989671Y1802451D01*
X1986125Y1805076D02*
X1988853D01*
X1992125Y1810326D02*
Y1802451D01*
X2000853Y1807701D02*
Y1803951D01*
X2001125Y1802826*
X2001671Y1802451*
X2002489*
X2003035Y1802826*
X2003853Y1803951*
Y1807701D02*
Y1802451D01*
X2006307Y1810326D02*
Y1802451D01*
Y1810326D02*
X2008762D01*
X2009580Y1809951*
X2009853Y1809576*
X2010125Y1808826*
Y1807701*
X2009853Y1806951*
X2009580Y1806576*
X2008762Y1806201*
X2006307*
X2012580Y1810326D02*
Y1802451D01*
X2015853*
X2022398Y1808451D02*
X2022125Y1809201D01*
X2021580Y1809951*
X2021035Y1810326*
X2019944*
X2019398Y1809951*
X2018853Y1809201*
X2018580Y1808451*
X2018307Y1807326*
Y1805451*
X2018580Y1804326*
X2018853Y1803576*
X2019398Y1802826*
X2019944Y1802451*
X2021035*
X2021580Y1802826*
X2022125Y1803576*
X2022398Y1804326*
X1958762Y1829263D02*
Y1817451D01*
Y1829263D02*
X1962035Y1817451D01*
X1965307Y1829263D02*
X1962035Y1817451D01*
X1965307Y1829263D02*
Y1817451D01*
X1972262Y1829263D02*
X1968989Y1817451D01*
X1972262Y1829263D02*
X1975535Y1817451D01*
X1970216Y1821388D02*
X1974307D01*
X1979216Y1829263D02*
X1984944Y1817451D01*
Y1829263D02*
X1979216Y1817451D01*
X1988625Y1829263D02*
Y1817451D01*
Y1829263D02*
X1992307D01*
X1993535Y1828701*
X1993944Y1828138*
X1994353Y1827013*
Y1825888*
X1993944Y1824763*
X1993535Y1824201*
X1992307Y1823638*
X1988625*
X1991489D02*
X1994353Y1817451D01*
X1998035Y1829263D02*
Y1817451D01*
Y1829263D02*
X2003353D01*
X1998035Y1823638D02*
X2001307D01*
X1998035Y1817451D02*
X2003353D01*
X2007035Y1829263D02*
Y1817451D01*
Y1829263D02*
X2012353D01*
X2007035Y1823638D02*
X2010307D01*
X2016035Y1829263D02*
Y1817451D01*
Y1829263D02*
X2018898D01*
X2020125Y1828701*
X2020944Y1827576*
X2021353Y1826451*
X2021762Y1824763*
Y1821951*
X2021353Y1820263*
X2020944Y1819138*
X2020125Y1818013*
X2018898Y1817451*
X2016035*
X2025444Y1829263D02*
Y1817451D01*
Y1829263D02*
X2030762D01*
X2025444Y1823638D02*
X2028716D01*
X2025444Y1817451D02*
X2030762D01*
X2040171Y1827576D02*
X2039353Y1828701D01*
X2038125Y1829263*
X2036489*
X2035262Y1828701*
X2034444Y1827576*
Y1826451*
X2034853Y1825326*
X2035262Y1824763*
X2036080Y1824201*
X2038535Y1823076*
X2039353Y1822513*
X2039762Y1821951*
X2040171Y1820826*
Y1819138*
X2039353Y1818013*
X2038125Y1817451*
X2036489*
X2035262Y1818013*
X2034444Y1819138*
X2048762Y1827576D02*
X2048353Y1828701D01*
X2047125Y1829263*
X2046307*
X2045080Y1828701*
X2044262Y1827013*
X2043853Y1824201*
Y1821388*
X2044262Y1819138*
X2045080Y1818013*
X2046307Y1817451*
X2046716*
X2047944Y1818013*
X2048762Y1819138*
X2049171Y1820826*
Y1821388*
X2048762Y1823076*
X2047944Y1824201*
X2046716Y1824763*
X2046307*
X2045080Y1824201*
X2044262Y1823076*
X2043853Y1821388*
X2052853Y1827013D02*
X2053671Y1827576D01*
X2054898Y1829263*
Y1817451*
X2061853Y1831513D02*
X2058989Y1813513D01*
X2064307Y1831513D02*
X2061444Y1813513D01*
X2058989Y1824201D02*
X2064716D01*
X2058580Y1820826D02*
X2064307D01*
X1900061Y1785563D02*
Y1773750D01*
Y1785563D02*
X1903743D01*
X1903743D02*
X1904970Y1785000D01*
X1905379Y1784438*
X1905379D02*
X1905788Y1783313D01*
X1905788D02*
Y1781625D01*
X1905379Y1780500*
X1904970Y1779938*
X1904970D02*
X1903743Y1779375D01*
X1900061*
X1916834Y1787813D02*
X1909470Y1769812D01*
X1920516Y1785563D02*
Y1773750D01*
Y1785563D02*
X1926243Y1773750D01*
Y1785563D02*
Y1773750D01*
X1930334Y1781625D02*
X1929925Y1781063D01*
X1929925D02*
X1930334Y1780500D01*
X1930743Y1781063*
X1930743D02*
X1930334Y1781625D01*
Y1774875D02*
X1929925Y1774313D01*
X1929925D02*
X1930334Y1773750D01*
X1930743Y1774313*
X1930743D02*
X1930334Y1774875D01*
X1943834Y1785563D02*
Y1773750D01*
Y1785563D02*
X1949152D01*
X1943834Y1779938D02*
X1947106D01*
X1943834Y1773750D02*
X1949152D01*
X1952834Y1785563D02*
Y1773750D01*
Y1785563D02*
X1956516D01*
X1956516D02*
X1957743Y1785000D01*
X1958152Y1784438*
X1958152D02*
X1958561Y1783313D01*
X1958561D02*
Y1781625D01*
X1958152Y1780500*
X1957743Y1779938*
X1957743D02*
X1956516Y1779375D01*
X1952834*
X1968379Y1782750D02*
X1967970Y1783875D01*
X1967152Y1785000*
X1966334Y1785563*
X1966334D02*
X1964697D01*
X1964697D02*
X1963879Y1785000D01*
X1963061Y1783875*
X1962652Y1782750*
X1962243Y1781063*
X1962243D02*
Y1778250D01*
X1962652Y1776563*
X1962652D02*
X1963061Y1775438D01*
X1963061D02*
X1963879Y1774313D01*
X1963879D02*
X1964697Y1773750D01*
X1966334*
X1967152Y1774313*
X1967152D02*
X1967970Y1775438D01*
X1967970D02*
X1968379Y1776563D01*
X1972061Y1785563D02*
Y1773750D01*
Y1785563D02*
X1975743D01*
X1975743D02*
X1976970Y1785000D01*
X1977379Y1784438*
X1977379D02*
X1977788Y1783313D01*
X1977788D02*
Y1782188D01*
X1977788D02*
X1977379Y1781063D01*
X1977379D02*
X1976970Y1780500D01*
X1975743Y1779938*
X1972061D02*
X1975743D01*
X1975743D02*
X1976970Y1779375D01*
X1977379Y1778813*
X1977379D02*
X1977788Y1777688D01*
X1977788D02*
Y1776000D01*
X1977379Y1774875*
X1976970Y1774313*
X1976970D02*
X1975743Y1773750D01*
X1972061*
X1981470Y1785563D02*
Y1773750D01*
Y1785563D02*
X1985152D01*
X1985152D02*
X1986379Y1785000D01*
X1986788Y1784438*
X1986788D02*
X1987197Y1783313D01*
X1987197D02*
Y1782188D01*
X1987197D02*
X1986788Y1781063D01*
X1986788D02*
X1986379Y1780500D01*
X1985152Y1779938*
X1985152D02*
X1981470D01*
X1984334D02*
X1987197Y1773750D01*
X1990879Y1785563D02*
Y1773750D01*
Y1785563D02*
X1996197D01*
X1990879Y1779938D02*
X1994152D01*
X1990879Y1773750D02*
X1996197D01*
X1999879Y1785563D02*
Y1773750D01*
Y1785563D02*
X2005197D01*
X1999879Y1779938D02*
X2003152D01*
X2008879Y1785563D02*
Y1773750D01*
Y1785563D02*
X2011743D01*
X2011743D02*
X2012970Y1785000D01*
X2013788Y1783875*
X2014197Y1782750*
X2014606Y1781063*
X2014606D02*
Y1778250D01*
X2014197Y1776563*
X2014197D02*
X2013788Y1775438D01*
X2013788D02*
X2012970Y1774313D01*
X2012970D02*
X2011743Y1773750D01*
X2008879*
X2018288Y1785563D02*
Y1773750D01*
Y1785563D02*
X2023606D01*
X2018288Y1779938D02*
X2021561D01*
X2018288Y1773750D02*
X2023606D01*
X2033016Y1783875D02*
X2032197Y1785000D01*
X2030970Y1785563*
X2030970D02*
X2029334D01*
X2029334D02*
X2028106Y1785000D01*
X2027288Y1783875*
Y1782750*
X2027697Y1781625*
X2028106Y1781063*
X2028106D02*
X2028925Y1780500D01*
X2031379Y1779375*
X2032197Y1778813*
X2032197D02*
X2032606Y1778250D01*
X2033016Y1777125*
Y1775438*
X2033016D02*
X2032197Y1774313D01*
X2032197D02*
X2030970Y1773750D01*
X2029334*
X2028106Y1774313*
X2028106D02*
X2027288Y1775438D01*
X2041606Y1783875D02*
X2041197Y1785000D01*
X2039970Y1785563*
X2039970D02*
X2039152D01*
X2039152D02*
X2037925Y1785000D01*
X2037106Y1783313*
X2037106D02*
X2036697Y1780500D01*
Y1777688*
X2036697D02*
X2037106Y1775438D01*
X2037106D02*
X2037925Y1774313D01*
X2037925D02*
X2039152Y1773750D01*
X2039561*
X2040788Y1774313*
X2040788D02*
X2041606Y1775438D01*
X2041606D02*
X2042016Y1777125D01*
Y1777688*
X2042016D02*
X2041606Y1779375D01*
X2040788Y1780500*
X2039561Y1781063*
X2039561D02*
X2039152D01*
X2039152D02*
X2037925Y1780500D01*
X2037106Y1779375*
X2036697Y1777688*
X2045697Y1783313D02*
X2046516Y1783875D01*
X2047743Y1785563*
X2047743D02*
Y1773750D01*
X2117788Y1778594D02*
X2115061Y1768750D01*
X2117788Y1778594D02*
X2120516Y1768750D01*
X2116084Y1772031D02*
X2119493D01*
X2011879Y1685313D02*
X2010061Y1678750D01*
X2011879Y1685313D02*
X2013697Y1678750D01*
X2010743Y1680938D02*
X2013016D01*
X2015743Y1685313D02*
Y1678750D01*
X2018470*
X2020516Y1685313D02*
Y1678750D01*
X2023243*
X2030516Y1685313D02*
Y1680625D01*
X2030743Y1679688*
X2030743D02*
X2031197Y1679063D01*
X2031197D02*
X2031879Y1678750D01*
X2032334*
X2033016Y1679063*
X2033016D02*
X2033470Y1679688D01*
X2033470D02*
X2033697Y1680625D01*
Y1685313*
X2035743D02*
Y1678750D01*
Y1685313D02*
X2038925Y1678750D01*
Y1685313D02*
Y1678750D01*
X2040970Y1685313D02*
Y1678750D01*
X2044606Y1685313D02*
Y1678750D01*
X2043016Y1685313D02*
X2046197D01*
X2051425Y1684375D02*
X2050970Y1685000D01*
X2050288Y1685313*
X2050288D02*
X2049379D01*
X2049379D02*
X2048697Y1685000D01*
X2048243Y1684375*
Y1683750*
X2048470Y1683125*
X2048697Y1682813*
X2048697D02*
X2049152Y1682500D01*
X2050516Y1681875*
X2050970Y1681563*
X2050970D02*
X2051197Y1681250D01*
X2051425Y1680625*
Y1679688*
X2051425D02*
X2050970Y1679063D01*
X2050970D02*
X2050288Y1678750D01*
X2049379*
X2048697Y1679063*
X2048697D02*
X2048243Y1679688D01*
X2060516Y1685313D02*
X2058697Y1678750D01*
X2060516Y1685313D02*
X2062334Y1678750D01*
X2059379Y1680938D02*
X2061652D01*
X2064379Y1685313D02*
Y1678750D01*
Y1685313D02*
X2066425D01*
X2066425D02*
X2067106Y1685000D01*
X2067334Y1684688*
X2067334D02*
X2067561Y1684063D01*
X2067561D02*
Y1683438D01*
X2067561D02*
X2067334Y1682813D01*
X2067334D02*
X2067106Y1682500D01*
X2066425Y1682188*
X2066425D02*
X2064379D01*
X2065970D02*
X2067561Y1678750D01*
X2069606Y1685313D02*
Y1678750D01*
Y1685313D02*
X2072561D01*
X2069606Y1682188D02*
X2071425D01*
X2069606Y1678750D02*
X2072561D01*
X2079834Y1685313D02*
Y1678750D01*
X2081879Y1685313D02*
Y1678750D01*
Y1685313D02*
X2085061Y1678750D01*
Y1685313D02*
Y1678750D01*
X2093697Y1685313D02*
X2093016Y1685000D01*
X2092561Y1684063*
X2092561D02*
X2092334Y1682500D01*
Y1681563*
X2092334D02*
X2092561Y1680000D01*
X2093016Y1679063*
X2093016D02*
X2093697Y1678750D01*
X2094152*
X2094834Y1679063*
X2094834D02*
X2095288Y1680000D01*
X2095516Y1681563*
X2095516D02*
Y1682500D01*
X2095288Y1684063*
X2095288D02*
X2094834Y1685000D01*
X2094152Y1685313*
X2094152D02*
X2093697D01*
X2097788Y1679375D02*
X2097561Y1679063D01*
X2097561D02*
X2097788Y1678750D01*
X2098016Y1679063*
X2098016D02*
X2097788Y1679375D01*
X2101425Y1685313D02*
X2100743Y1685000D01*
X2100288Y1684063*
X2100288D02*
X2100061Y1682500D01*
Y1681563*
X2100061D02*
X2100288Y1680000D01*
X2100743Y1679063*
X2100743D02*
X2101425Y1678750D01*
X2101879*
X2102561Y1679063*
X2102561D02*
X2103016Y1680000D01*
X2103243Y1681563*
X2103243D02*
Y1682500D01*
X2103016Y1684063*
X2103016D02*
X2102561Y1685000D01*
X2101879Y1685313*
X2101879D02*
X2101425D01*
X2106652D02*
X2105970Y1685000D01*
X2105516Y1684063*
X2105516D02*
X2105288Y1682500D01*
Y1681563*
X2105288D02*
X2105516Y1680000D01*
X2105970Y1679063*
X2105970D02*
X2106652Y1678750D01*
X2107106*
X2107788Y1679063*
X2107788D02*
X2108243Y1680000D01*
X2108470Y1681563*
X2108470D02*
Y1682500D01*
X2108243Y1684063*
X2108243D02*
X2107788Y1685000D01*
X2107106Y1685313*
X2107106D02*
X2106652D01*
X2110516Y1684063D02*
X2110970Y1684375D01*
X2111652Y1685313*
X2111652D02*
Y1678750D01*
X2113697Y1685313D02*
Y1683125D01*
X2115516Y1685313D02*
Y1683125D01*
G54D199*
X1969411Y1613750D02*
G03X1969411I-4350J0D01*
G01X1960411Y1607250D02*
G03X1960411I-2850J0D01*
G01X1943411Y1562250D02*
G03X1943411I-2850J0D01*
G01X1948911Y1573750D02*
G03X1948911I-2850J0D01*
G01Y1609750D02*
G03X1948911I-2850J0D01*
G01X1931911Y1566750D02*
G03X1931911I-2850J0D01*
G01X2009411Y1613750D02*
G03X2009411I-4350J0D01*
G01X1989411D02*
G03X1989411I-4350J0D01*
G01X1963911Y1562250D02*
G03X1963911I-2850J0D01*
G01X1958911Y1579250D02*
G03X1958911I-2850J0D01*
G01X2105411Y1562250D02*
G03X2105411I-2850J0D01*
G01X2085411Y1591750D02*
G03X2085411I-2850J0D01*
G01X2077411Y1587750D02*
G03X2077411I-2850J0D01*
G01X2080911Y1615750D02*
G03X2080911I-2850J0D01*
G01X2089411Y1625250D02*
G03X2089411I-4350J0D01*
G01X2069911Y1590250D02*
G03X2069911I-2850J0D01*
G01X2061411D02*
G03X2061411I-2850J0D01*
G01X2066372Y1606250D02*
G03X2066372I-3811J0D01*
G01X2041911Y1571250D02*
G03X2041911I-2850J0D01*
G01X2047411Y1582250D02*
G03X2047411I-2850J0D01*
G01X2020911D02*
G03X2020911I-2850J0D01*
G01X1969713Y1606411D02*
X1969713D01*
X1969709Y1620865*
G03X1969674Y1620900I-35J0*
G01X1957575*
X1957574*
X1957548D02*
G03X1957574I13J4350D01*
G01X1957548D02*
X1957547D01*
X1935446*
G03X1935411Y1620865I0J-35*
G01Y1601373*
G03X1935417Y1601354I35J0*
G01Y1598146D02*
G03Y1601354I-2356J1604D01*
G01Y1598146D02*
G03X1935411Y1598127I29J-19D01*
G01Y1597373*
G03X1935417Y1597354I35J0*
G01Y1594146D02*
G03Y1597354I-2356J1604D01*
G01Y1594146D02*
G03X1935411Y1594127I29J-19D01*
G01Y1578605*
X1930206Y1573400*
X1917946*
G03X1917911Y1573365I0J-35*
G01Y1546635*
G03X1917946Y1546600I35J0*
G01X1937402*
G03X1937426Y1546610I-0J35*
G01X1949701Y1558885*
G03X1949711Y1558909I-25J24*
G01Y1586395*
X1969702Y1606386*
G03X1969713Y1606411I-24J25*
G01X2009711Y1606635D02*
Y1620865D01*
G03X2009676Y1620900I-35J0*
G01X1985075*
X1985074*
X1985048D02*
G03X1985074I13J4350D01*
G01X1985048D02*
X1985047D01*
X1972946*
G03X1972911Y1620865I0J-35*
G01Y1617591*
G03X1972963Y1617561I35J0*
G01Y1609939D02*
G03Y1617561I2098J3811D01*
G01Y1609939D02*
G03X1972911Y1609909I-17J-30D01*
G01Y1603605*
X1952921Y1583615*
G03X1952911Y1583591I25J-24*
G01Y1556105*
X1940206Y1543400*
X1935280*
G03X1935265Y1543333I-0J-35*
G01X1931591Y1539328D02*
G03X1935265Y1543333I2470J1422D01*
G01X1931591Y1539328D02*
G03X1931531I-30J-18D01*
G01X1930965Y1538629D02*
G03X1931531Y1539328I-1904J2121D01*
G01X1930965Y1538629D02*
G03X1930983Y1538569I23J-26D01*
G01X1933400Y1535502D02*
G03X1930983Y1538569I-2839J248D01*
G01X1933400Y1535502D02*
G03X1933425Y1535466I35J-3D01*
G01X1935278Y1533612D02*
G03X1933425Y1535466I-2717J-862D01*
G01X1935278Y1533612D02*
G03X1935344I33J10D01*
G01Y1531888D02*
G03Y1533612I2717J862D01*
G01Y1531888D02*
G03X1935278I-33J-10D01*
G01X1929722Y1532998D02*
G03X1935278Y1531888I2839J-248D01*
G01X1929722Y1532998D02*
G03X1929698Y1533034I-35J3D01*
G01X1928657Y1537871D02*
G03X1929698Y1533034I1904J-2121D01*
G01X1928657Y1537871D02*
G03X1928639Y1537931I-23J26D01*
G01X1926838Y1538966D02*
G03X1928639Y1537931I2223J1784D01*
G01X1926838Y1538966D02*
G03X1926784I-27J-22D01*
G01X1922338D02*
G03X1926784I2223J1784D01*
G01X1922338D02*
G03X1922284I-27J-22D01*
G01X1918857Y1543333D02*
G03X1922284Y1538966I1204J-2583D01*
G01X1918857Y1543333D02*
G03X1918842Y1543400I-15J32D01*
G01X1915446*
G03X1915411Y1543365I0J-35*
G01Y1496635*
G03X1915446Y1496600I35J0*
G01X1919938*
G03X1919957Y1496606I-0J35*
G01X1923165D02*
G03X1919957I-1604J-2356D01*
G01X1923165D02*
G03X1923184Y1496600I19J29D01*
G01X1942176*
G03X1942211Y1496635I0J35*
G01Y1503788*
G03X1942150Y1503812I-35J-0*
G01Y1507688D02*
G03Y1503812I-2089J-1938D01*
G01Y1507688D02*
G03X1942211Y1507712I26J24D01*
G01Y1528895*
X1949916Y1536600*
X1960842*
G03X1960857Y1536667I0J35*
G01X1960007Y1541226D02*
G03X1960857Y1536667I2054J-1976D01*
G01X1960007Y1541226D02*
G03Y1541274I-25J24D01*
G01X1964115D02*
G03X1960007I-2054J1976D01*
G01X1964115D02*
G03Y1541226I25J-24D01*
G01X1963265Y1536667D02*
G03X1964115Y1541226I-1204J2583D01*
G01X1963265Y1536667D02*
G03X1963280Y1536600I15J-32D01*
G01X1977202*
G03X1977236Y1536630I-0J35*
G01X1982886D02*
G03X1977236I-2825J-380D01*
G01X1982886D02*
G03X1982920Y1536600I34J5D01*
G01X1984242*
G03X1984277Y1536642I0J35*
G01X1984211Y1537250D02*
G03X1984277Y1536642I2850J0D01*
G01X1984211Y1537250D02*
Y1555250D01*
X1984705Y1556854D02*
G03X1984211Y1555250I2356J-1604D01*
G01X1984705Y1556854D02*
G03X1984711Y1556873I-29J19D01*
G01Y1598895*
X1992416Y1606600*
X2009676*
G03X2009711Y1606635I0J35*
G01X2134554Y1588635D02*
Y1634754D01*
G03X2131498Y1637809I-3056J-0*
G01X2131498*
X2131498*
X2037946*
G03X2037911Y1637774I0J-35*
G01Y1598400*
X2000220*
G03X2000196Y1598390I0J-35*
G01X1995421Y1593615*
G03X1995411Y1593591I25J-24*
G01Y1556873*
G03X1995417Y1556854I35J0*
G01X1995911Y1555250D02*
G03X1995417Y1556854I-2850J0D01*
G01X1995911Y1555250D02*
Y1541635D01*
G03X1995946Y1541600I35J0*
G01X2004099*
G03X2004123Y1541661I-0J35*
G01X2004007Y1545726D02*
G03X2004123Y1541661I2054J-1976D01*
G01X2004007Y1545726D02*
G03Y1545774I-25J24D01*
G01Y1549726D02*
G03Y1545774I2054J-1976D01*
G01Y1549726D02*
G03Y1549774I-25J24D01*
G01X2008115D02*
G03X2004007I-2054J1976D01*
G01X2008115D02*
G03Y1549726I25J-24D01*
G01Y1545774D02*
G03Y1549726I-2054J1976D01*
G01Y1545774D02*
G03Y1545726I25J-24D01*
G01X2007999Y1541661D02*
G03X2008115Y1545726I-1938J2089D01*
G01X2007999Y1541661D02*
G03X2008023Y1541600I24J-26D01*
G01X2017402*
G03X2017426Y1541610I-0J35*
G01X2057416Y1581600*
X2080411*
Y1568909*
G03X2080421Y1568885I35J0*
G01X2093196Y1556110*
G03X2093220Y1556100I24J25*
G01X2131676*
G03X2131711Y1556135I0J35*
G01Y1565861*
G03X2131676Y1565896I-35J0*
G01X2101970*
X2101613Y1565902D02*
G03X2101970Y1565896I357J11242D01*
G01X2101613Y1565902D02*
X2101811Y1588600*
G03X2101612Y1565902I0J-11350D01*
G01X2101811Y1588600D02*
X2134519D01*
G03X2134554Y1588635I-0J35*
G01X1969411Y1613750D02*
G03X1969411I-4350J0D01*
G01X1960411Y1607250D02*
G03X1960411I-2850J0D01*
G01X1943411Y1562250D02*
G03X1943411I-2850J0D01*
G01X1948911Y1573750D02*
G03X1948911I-2850J0D01*
G01Y1609750D02*
G03X1948911I-2850J0D01*
G01X1933635Y1559400D02*
Y1553100D01*
X1932285Y1551750D02*
G03X1933635Y1553100I0J1350D01*
G01X1932285Y1551750D02*
X1922837D01*
X1921487Y1553100D02*
G03X1922837Y1551750I1350J0D01*
G01X1921487Y1553100D02*
Y1559400D01*
X1922837Y1560750D02*
G03X1921487Y1559400I-0J-1350D01*
G01X1922837Y1560750D02*
X1932285D01*
X1933635Y1559400D02*
G03X1932285Y1560750I-1350J-0D01*
G01X1931911Y1566750D02*
G03X1931911I-2850J0D01*
G01X2009411Y1613750D02*
G03X2009411I-4350J0D01*
G01X1989411D02*
G03X1989411I-4350J0D01*
G01X1976115Y1549774D02*
G03X1972007I-2054J1976D01*
G01X1976115D02*
G03Y1549726I25J-24D01*
G01Y1545774D02*
G03Y1549726I-2054J1976D01*
G01Y1545774D02*
G03Y1545726I25J-24D01*
G01X1972007D02*
G03X1976115I2054J-1976D01*
G01X1972007D02*
G03Y1545774I-25J24D01*
G01Y1549726D02*
G03Y1545774I2054J-1976D01*
G01Y1549726D02*
G03Y1549774I-25J24D01*
G01X1957085Y1546196D02*
G03Y1550304I1976J2054D01*
G01Y1546196D02*
G03X1957037I-24J-25D01*
G01Y1550304D02*
G03Y1546196I-1976J-2054D01*
G01Y1550304D02*
G03X1957085I24J25D01*
G01X1963911Y1562250D02*
G03X1963911I-2850J0D01*
G01X1961716Y1583369D02*
G03X1964431Y1584576I2345J-1619D01*
G01X1961716Y1583369D02*
G03X1961692Y1583424I-29J20D01*
G01X1964406Y1584631D02*
G03X1961692Y1583424I-2345J1619D01*
G01X1964406Y1584631D02*
G03X1964431Y1584576I29J-20D01*
G01X1958911Y1579250D02*
G03X1958911I-2850J0D01*
G01X2105411Y1562250D02*
G03X2105411I-2850J0D01*
G01X2085411Y1591750D02*
G03X2085411I-2850J0D01*
G01X2077411Y1587750D02*
G03X2077411I-2850J0D01*
G01X2080911Y1615750D02*
G03X2080911I-2850J0D01*
G01X2089411Y1625250D02*
G03X2089411I-4350J0D01*
G01X2069911Y1590250D02*
G03X2069911I-2850J0D01*
G01X2061411D02*
G03X2061411I-2850J0D01*
G01X2066372Y1606250D02*
G03X2066372I-3811J0D01*
G01X2067591Y1625828D02*
G03Y1628672I2470J1422D01*
G01Y1625828D02*
G03X2067531I-30J-18D01*
G01X2062591D02*
G03X2067531I2470J1422D01*
G01X2062591D02*
G03X2062531I-30J-18D01*
G01X2057591D02*
G03X2062531I2470J1422D01*
G01X2057591D02*
G03X2057531I-30J-18D01*
G01Y1628672D02*
G03Y1625828I-2470J-1422D01*
G01Y1628672D02*
G03X2057591I30J18D01*
G01X2062531D02*
G03X2057591I-2470J-1422D01*
G01X2062531D02*
G03X2062591I30J18D01*
G01X2067531D02*
G03X2062591I-2470J-1422D01*
G01X2067531D02*
G03X2067591I30J18D01*
G01X2041911Y1571250D02*
G03X2041911I-2850J0D01*
G01X2047411Y1582250D02*
G03X2047411I-2850J0D01*
G01X2042983Y1618780D02*
G03X2040139I-1422J2470D01*
G01X2042983D02*
G03Y1618720I18J-30D01*
G01Y1613780D02*
G03Y1618720I-1422J2470D01*
G01Y1613780D02*
G03Y1613720I18J-30D01*
G01Y1608780D02*
G03Y1613720I-1422J2470D01*
G01Y1608780D02*
G03Y1608720I18J-30D01*
G01X2040139D02*
G03X2042983I1422J-2470D01*
G01X2040139D02*
G03Y1608780I-18J30D01*
G01Y1613720D02*
G03Y1608780I1422J-2470D01*
G01Y1613720D02*
G03Y1613780I-18J30D01*
G01Y1618720D02*
G03Y1613780I1422J-2470D01*
G01Y1618720D02*
G03Y1618780I-18J30D01*
G01X2028091Y1566828D02*
G03Y1569672I2470J1422D01*
G01Y1566828D02*
G03X2028031I-30J-18D01*
G01Y1569672D02*
G03Y1566828I-2470J-1422D01*
G01Y1569672D02*
G03X2028091I30J18D01*
G01X2018115Y1574774D02*
G03X2014007I-2054J1976D01*
G01X2018115D02*
G03Y1574726I25J-24D01*
G01X2014007D02*
G03X2018115I2054J-1976D01*
G01X2014007D02*
G03Y1574774I-25J24D01*
G01X2020911Y1582250D02*
G03X2020911I-2850J0D01*
G01X1960296Y1606449D02*
X1969713D01*
X1960406Y1607079D02*
X1969712D01*
X1960374Y1607709D02*
X1969712D01*
X1960195Y1608339D02*
X1969712D01*
X1959835Y1608969D02*
X1969712D01*
X1966361Y1609599D02*
X1969712D01*
X1967615Y1610229D02*
X1969712D01*
X1968311Y1610859D02*
X1969711D01*
X1968777Y1611489D02*
X1969711D01*
X1969094Y1612119D02*
X1969711D01*
X1969294Y1612749D02*
X1969711D01*
X1969395Y1613379D02*
X1969711D01*
X1969403Y1614009D02*
X1969711D01*
X1969319Y1614639D02*
X1969710D01*
X1969137Y1615269D02*
X1969710D01*
X1968843Y1615899D02*
X1969710D01*
X1968408Y1616529D02*
X1969710D01*
X1967764Y1617159D02*
X1969710D01*
X1966677Y1617789D02*
X1969709D01*
X1935411Y1618419D02*
X1969709D01*
X1935411Y1619049D02*
X1969709D01*
X1935411Y1619679D02*
X1969709D01*
X1935411Y1620309D02*
X1969709D01*
X1960026Y1605819D02*
X1969135D01*
X1959529Y1605189D02*
X1968505D01*
X1958499Y1604559D02*
X1967875D01*
X1935411Y1603929D02*
X1967245D01*
X1935411Y1603299D02*
X1966615D01*
X1935411Y1602669D02*
X1965985D01*
X1935411Y1602039D02*
X1965355D01*
X1935411Y1601409D02*
X1964725D01*
X1935719Y1600779D02*
X1964095D01*
X1959175Y1609599D02*
X1963761D01*
X1935883Y1600149D02*
X1963465D01*
X1935411Y1617789D02*
X1963445D01*
X1935902Y1599519D02*
X1962835D01*
X1948871Y1610229D02*
X1962507D01*
X1935411Y1617159D02*
X1962358D01*
X1935778Y1598889D02*
X1962205D01*
X1948687Y1610859D02*
X1961811D01*
X1935411Y1616529D02*
X1961714D01*
X1935490Y1598259D02*
X1961575D01*
X1948319Y1611489D02*
X1961345D01*
X1935411Y1615899D02*
X1961279D01*
X1947646Y1612119D02*
X1961028D01*
X1935411Y1615269D02*
X1960985D01*
X1935411Y1597629D02*
X1960945D01*
X1935411Y1612749D02*
X1960828D01*
X1935411Y1614639D02*
X1960803D01*
X1935411Y1613379D02*
X1960727D01*
X1935411Y1614009D02*
X1960719D01*
X1935623Y1596999D02*
X1960315D01*
X1935843Y1596369D02*
X1959685D01*
X1935911Y1595739D02*
X1959055D01*
X1935838Y1595109D02*
X1958425D01*
X1935612Y1594479D02*
X1957795D01*
X1935411Y1593849D02*
X1957165D01*
X1935411Y1604559D02*
X1956623D01*
X1935411Y1593219D02*
X1956535D01*
X1948907Y1609599D02*
X1955947D01*
X1935411Y1592589D02*
X1955905D01*
X1935411Y1605189D02*
X1955593D01*
X1948802Y1608969D02*
X1955288D01*
X1935411Y1591959D02*
X1955275D01*
X1935411Y1605819D02*
X1955096D01*
X1948537Y1608339D02*
X1954927D01*
X1935411Y1606449D02*
X1954826D01*
X1948050Y1607709D02*
X1954748D01*
X1947054Y1607079D02*
X1954716D01*
X1935411Y1591329D02*
X1954645D01*
X1935411Y1590699D02*
X1954015D01*
X1935411Y1590069D02*
X1953385D01*
X1935411Y1589439D02*
X1952755D01*
X1935411Y1588809D02*
X1952125D01*
X1935411Y1588179D02*
X1951495D01*
X1935411Y1587549D02*
X1950865D01*
X1935411Y1586919D02*
X1950235D01*
X1935411Y1586289D02*
X1949711D01*
X1935411Y1585659D02*
X1949711D01*
X1935411Y1585029D02*
X1949711D01*
X1935411Y1584399D02*
X1949711D01*
X1935411Y1583769D02*
X1949711D01*
X1935411Y1583139D02*
X1949711D01*
X1935411Y1582509D02*
X1949711D01*
X1935411Y1581879D02*
X1949711D01*
X1935411Y1581249D02*
X1949711D01*
X1935411Y1580619D02*
X1949711D01*
X1935411Y1579989D02*
X1949711D01*
X1935411Y1579359D02*
X1949711D01*
X1935411Y1578729D02*
X1949711D01*
X1934905Y1578099D02*
X1949711D01*
X1934275Y1577469D02*
X1949711D01*
X1933645Y1576839D02*
X1949711D01*
X1947502Y1576209D02*
X1949711D01*
X1948247Y1575579D02*
X1949711D01*
X1948647Y1574949D02*
X1949711D01*
X1948854Y1574319D02*
X1949711D01*
X1948910Y1573689D02*
X1949711D01*
X1948826Y1573059D02*
X1949711D01*
X1948586Y1572429D02*
X1949711D01*
X1948138Y1571799D02*
X1949711D01*
X1947269Y1571169D02*
X1949711D01*
X1917911Y1570539D02*
X1949711D01*
X1917911Y1569909D02*
X1949711D01*
X1930376Y1569279D02*
X1949711D01*
X1931186Y1568649D02*
X1949711D01*
X1931613Y1568019D02*
X1949711D01*
X1931839Y1567389D02*
X1949711D01*
X1931911Y1566759D02*
X1949711D01*
X1931842Y1566129D02*
X1949711D01*
X1931622Y1565499D02*
X1949711D01*
X1941686Y1564869D02*
X1949711D01*
X1942603Y1564239D02*
X1949711D01*
X1943066Y1563609D02*
X1949711D01*
X1943316Y1562979D02*
X1949711D01*
X1943409Y1562349D02*
X1949711D01*
X1943361Y1561719D02*
X1949711D01*
X1943164Y1561089D02*
X1949711D01*
X1942778Y1560459D02*
X1949711D01*
X1942064Y1559829D02*
X1949711D01*
X1933635Y1559199D02*
X1949711D01*
X1933635Y1558569D02*
X1949385D01*
X1933635Y1557939D02*
X1948755D01*
X1933635Y1557309D02*
X1948125D01*
X1933635Y1556679D02*
X1947495D01*
X1933635Y1556049D02*
X1946865D01*
X1933635Y1555419D02*
X1946235D01*
X1933635Y1554789D02*
X1945605D01*
X1935411Y1607079D02*
X1945068D01*
X1933635Y1554159D02*
X1944975D01*
X1917911Y1571169D02*
X1944853D01*
X1933015Y1576209D02*
X1944620D01*
X1935411Y1612119D02*
X1944476D01*
X1933635Y1553529D02*
X1944345D01*
X1935411Y1607709D02*
X1944072D01*
X1917911Y1571799D02*
X1943984D01*
X1932385Y1575579D02*
X1943875D01*
X1935411Y1611489D02*
X1943803D01*
X1933620Y1552899D02*
X1943715D01*
X1935411Y1608339D02*
X1943585D01*
X1917911Y1572429D02*
X1943536D01*
X1931755Y1574949D02*
X1943475D01*
X1935411Y1610859D02*
X1943435D01*
X1935411Y1608969D02*
X1943320D01*
X1917911Y1573059D02*
X1943296D01*
X1931125Y1574319D02*
X1943268D01*
X1935411Y1610229D02*
X1943251D01*
X1935411Y1609599D02*
X1943215D01*
X1930495Y1573689D02*
X1943212D01*
X1933349Y1552269D02*
X1943085D01*
X1917911Y1551639D02*
X1942455D01*
X1917911Y1551009D02*
X1941825D01*
X1917911Y1550379D02*
X1941195D01*
X1917911Y1549749D02*
X1940565D01*
X1917911Y1549119D02*
X1939935D01*
X1931202Y1564869D02*
X1939436D01*
X1917911Y1548489D02*
X1939305D01*
X1933565Y1559829D02*
X1939058D01*
X1917911Y1547859D02*
X1938675D01*
X1930409Y1564239D02*
X1938520D01*
X1933123Y1560459D02*
X1938344D01*
X1917911Y1563609D02*
X1938056D01*
X1917911Y1547229D02*
X1938045D01*
X1917911Y1561089D02*
X1937958D01*
X1917911Y1562979D02*
X1937806D01*
X1917911Y1561719D02*
X1937761D01*
X1917911Y1562349D02*
X1937713D01*
X1917911Y1569279D02*
X1927746D01*
X1917911Y1564239D02*
X1927713D01*
X1917911Y1568649D02*
X1926936D01*
X1917911Y1564869D02*
X1926920D01*
X1917911Y1568019D02*
X1926509D01*
X1917911Y1565499D02*
X1926500D01*
X1917911Y1567389D02*
X1926283D01*
X1917911Y1566129D02*
X1926280D01*
X1917911Y1566759D02*
X1926211D01*
X1917911Y1560459D02*
X1921999D01*
X1917911Y1552269D02*
X1921773D01*
X1917911Y1559829D02*
X1921557D01*
X1917911Y1552899D02*
X1921502D01*
X1917911Y1559199D02*
X1921487D01*
X1917911Y1558569D02*
X1921487D01*
X1917911Y1557939D02*
X1921487D01*
X1917911Y1557309D02*
X1921487D01*
X1917911Y1556679D02*
X1921487D01*
X1917911Y1556049D02*
X1921487D01*
X1917911Y1555419D02*
X1921487D01*
X1917911Y1554789D02*
X1921487D01*
X1917911Y1554159D02*
X1921487D01*
X1917911Y1553529D02*
X1921487D01*
X1972911Y1620709D02*
X2009711D01*
X1972911Y1620079D02*
X2009711D01*
X1972911Y1619449D02*
X2009711D01*
X1972911Y1618819D02*
X2009711D01*
X1972911Y1618189D02*
X2009711D01*
X2007163Y1617559D02*
X2009711D01*
X2008031Y1616929D02*
X2009711D01*
X2008586Y1616299D02*
X2009711D01*
X2008965Y1615669D02*
X2009711D01*
X2009216Y1615039D02*
X2009711D01*
X2009361Y1614409D02*
X2009711D01*
X2009411Y1613779D02*
X2009711D01*
X2009369Y1613149D02*
X2009711D01*
X2009233Y1612519D02*
X2009711D01*
X2008993Y1611889D02*
X2009711D01*
X2008627Y1611259D02*
X2009711D01*
X2008091Y1610629D02*
X2009711D01*
X2007263Y1609999D02*
X2009711D01*
X1972911Y1609369D02*
X2009711D01*
X1972911Y1608739D02*
X2009711D01*
X1972911Y1608109D02*
X2009711D01*
X1972911Y1607479D02*
X2009711D01*
X1972911Y1606849D02*
X2009711D01*
X1987163Y1617559D02*
X2002959D01*
X1987263Y1609999D02*
X2002859D01*
X1988031Y1616929D02*
X2002091D01*
X1988091Y1610629D02*
X2002031D01*
X1988586Y1616299D02*
X2001536D01*
X1988627Y1611259D02*
X2001495D01*
X1988965Y1615669D02*
X2001157D01*
X1988993Y1611889D02*
X2001129D01*
X1989216Y1615039D02*
X2000906D01*
X1989233Y1612519D02*
X2000889D01*
X1989361Y1614409D02*
X2000761D01*
X1989369Y1613149D02*
X2000753D01*
X1989411Y1613779D02*
X2000711D01*
X1972911Y1606219D02*
X1992035D01*
X1972911Y1605589D02*
X1991405D01*
X1972911Y1604959D02*
X1990775D01*
X1972911Y1604329D02*
X1990145D01*
X1972911Y1603699D02*
X1989515D01*
X1972375Y1603069D02*
X1988885D01*
X1971745Y1602439D02*
X1988255D01*
X1971115Y1601809D02*
X1987625D01*
X1970485Y1601179D02*
X1986995D01*
X1969855Y1600549D02*
X1986365D01*
X1969225Y1599919D02*
X1985735D01*
X1968595Y1599289D02*
X1985105D01*
X1967965Y1598659D02*
X1984711D01*
X1967335Y1598029D02*
X1984711D01*
X1966705Y1597399D02*
X1984711D01*
X1966075Y1596769D02*
X1984711D01*
X1965445Y1596139D02*
X1984711D01*
X1964815Y1595509D02*
X1984711D01*
X1964185Y1594879D02*
X1984711D01*
X1963555Y1594249D02*
X1984711D01*
X1962925Y1593619D02*
X1984711D01*
X1962295Y1592989D02*
X1984711D01*
X1961665Y1592359D02*
X1984711D01*
X1961035Y1591729D02*
X1984711D01*
X1960405Y1591099D02*
X1984711D01*
X1959775Y1590469D02*
X1984711D01*
X1959145Y1589839D02*
X1984711D01*
X1958515Y1589209D02*
X1984711D01*
X1963704Y1588579D02*
X1984711D01*
X1964349Y1587949D02*
X1984711D01*
X1964703Y1587319D02*
X1984711D01*
X1964877Y1586689D02*
X1984711D01*
X1964905Y1586059D02*
X1984711D01*
X1964790Y1585429D02*
X1984711D01*
X1964514Y1584799D02*
X1984711D01*
X1965569Y1584169D02*
X1984711D01*
X1966280Y1583539D02*
X1984711D01*
X1966665Y1582909D02*
X1984711D01*
X1966862Y1582279D02*
X1984711D01*
X1966909Y1581649D02*
X1984711D01*
X1966816Y1581019D02*
X1984711D01*
X1966565Y1580389D02*
X1984711D01*
X1966100Y1579759D02*
X1984711D01*
X1965180Y1579129D02*
X1984711D01*
X1958810Y1578499D02*
X1984711D01*
X1958554Y1577869D02*
X1984711D01*
X1958080Y1577239D02*
X1984711D01*
X1957132Y1576609D02*
X1984711D01*
X1952911Y1575979D02*
X1984711D01*
X1952911Y1575349D02*
X1984711D01*
X1952911Y1574719D02*
X1984711D01*
X1952911Y1574089D02*
X1984711D01*
X1952911Y1573459D02*
X1984711D01*
X1952911Y1572829D02*
X1984711D01*
X1952911Y1572199D02*
X1984711D01*
X1952911Y1571569D02*
X1984711D01*
X1952911Y1570939D02*
X1984711D01*
X1952911Y1570309D02*
X1984711D01*
X1952911Y1569679D02*
X1984711D01*
X1952911Y1569049D02*
X1984711D01*
X1952911Y1568419D02*
X1984711D01*
X1952911Y1567789D02*
X1984711D01*
X1952911Y1567159D02*
X1984711D01*
X1952911Y1566529D02*
X1984711D01*
X1952911Y1565899D02*
X1984711D01*
X1952911Y1565269D02*
X1984711D01*
X1962616Y1564639D02*
X1984711D01*
X1963304Y1564009D02*
X1984711D01*
X1963678Y1563379D02*
X1984711D01*
X1963867Y1562749D02*
X1984711D01*
X1963908Y1562119D02*
X1984711D01*
X1963807Y1561489D02*
X1984711D01*
X1963548Y1560859D02*
X1984711D01*
X1963070Y1560229D02*
X1984711D01*
X1962107Y1559599D02*
X1984711D01*
X1952911Y1558969D02*
X1984711D01*
X1952911Y1558339D02*
X1984711D01*
X1952911Y1557709D02*
X1984711D01*
X1952911Y1557079D02*
X1984711D01*
X1952911Y1556449D02*
X1984475D01*
X1952625Y1555819D02*
X1984268D01*
X1982831Y1536919D02*
X1984230D01*
X1951995Y1555189D02*
X1984211D01*
X1974545Y1554559D02*
X1984211D01*
X1975898Y1553929D02*
X1984211D01*
X1976454Y1553299D02*
X1984211D01*
X1976759Y1552669D02*
X1984211D01*
X1976896Y1552039D02*
X1984211D01*
X1976891Y1551409D02*
X1984211D01*
X1976740Y1550779D02*
X1984211D01*
X1976419Y1550149D02*
X1984211D01*
X1976296Y1549519D02*
X1984211D01*
X1976674Y1548889D02*
X1984211D01*
X1976865Y1548259D02*
X1984211D01*
X1976908Y1547629D02*
X1984211D01*
X1976810Y1546999D02*
X1984211D01*
X1976554Y1546369D02*
X1984211D01*
X1976107Y1545739D02*
X1984211D01*
X1976566Y1545109D02*
X1984211D01*
X1976816Y1544479D02*
X1984211D01*
X1976909Y1543849D02*
X1984211D01*
X1976861Y1543219D02*
X1984211D01*
X1976664Y1542589D02*
X1984211D01*
X1976278Y1541959D02*
X1984211D01*
X1975564Y1541329D02*
X1984211D01*
X1964515Y1540699D02*
X1984211D01*
X1964791Y1540069D02*
X1984211D01*
X1964905Y1539439D02*
X1984211D01*
X1981316Y1538809D02*
X1984211D01*
X1982159Y1538179D02*
X1984211D01*
X1982598Y1537549D02*
X1984211D01*
X1977163Y1617559D02*
X1982959D01*
X1977263Y1609999D02*
X1982859D01*
X1978031Y1616929D02*
X1982091D01*
X1978091Y1610629D02*
X1982031D01*
X1978586Y1616299D02*
X1981536D01*
X1978627Y1611259D02*
X1981495D01*
X1978965Y1615669D02*
X1981157D01*
X1978993Y1611889D02*
X1981129D01*
X1979216Y1615039D02*
X1980906D01*
X1979233Y1612519D02*
X1980889D01*
X1979361Y1614409D02*
X1980761D01*
X1979369Y1613149D02*
X1980753D01*
X1979411Y1613779D02*
X1980711D01*
X1964877Y1538809D02*
X1978806D01*
X1964702Y1538179D02*
X1977963D01*
X1964348Y1537549D02*
X1977524D01*
X1963700Y1536919D02*
X1977291D01*
X1951365Y1554559D02*
X1973577D01*
X1972933Y1617559D02*
X1972959D01*
X1964166Y1541329D02*
X1972558D01*
X1950735Y1553929D02*
X1972224D01*
X1963450Y1545739D02*
X1972015D01*
X1964602Y1541959D02*
X1971844D01*
X1961613Y1549519D02*
X1971826D01*
X1961186Y1550149D02*
X1971703D01*
X1950105Y1553299D02*
X1971668D01*
X1961202Y1546369D02*
X1971568D01*
X1964222Y1545109D02*
X1971556D01*
X1964833Y1542589D02*
X1971458D01*
X1961839Y1548889D02*
X1971448D01*
X1960376Y1550779D02*
X1971382D01*
X1949475Y1552669D02*
X1971363D01*
X1961622Y1546999D02*
X1971312D01*
X1964633Y1544479D02*
X1971306D01*
X1964911Y1543219D02*
X1971261D01*
X1961911Y1548259D02*
X1971257D01*
X1948215Y1551409D02*
X1971232D01*
X1948845Y1552039D02*
X1971226D01*
X1961842Y1547629D02*
X1971214D01*
X1964847Y1543849D02*
X1971213D01*
X1958908Y1579129D02*
X1962942D01*
X1958865Y1579759D02*
X1962022D01*
X1958674Y1580389D02*
X1961557D01*
X1952911Y1582909D02*
X1961457D01*
X1958296Y1581019D02*
X1961306D01*
X1952911Y1582279D02*
X1961260D01*
X1957600Y1581649D02*
X1961213D01*
X1952911Y1583539D02*
X1961183D01*
X1960409Y1545739D02*
X1960672D01*
X1933160Y1536919D02*
X1960422D01*
X1957885Y1588579D02*
X1960418D01*
X1953475Y1584169D02*
X1960114D01*
X1952911Y1559599D02*
X1960015D01*
X1936852Y1541329D02*
X1959956D01*
X1941915Y1545109D02*
X1959900D01*
X1932772Y1537549D02*
X1959775D01*
X1957255Y1587949D02*
X1959773D01*
X1954105Y1584799D02*
X1959608D01*
X1936911Y1540699D02*
X1959607D01*
X1936642Y1541959D02*
X1959520D01*
X1952911Y1564639D02*
X1959506D01*
X1941285Y1544479D02*
X1959489D01*
X1935290Y1538179D02*
X1959420D01*
X1956625Y1587319D02*
X1959419D01*
X1954735Y1585429D02*
X1959332D01*
X1936828Y1540069D02*
X1959331D01*
X1936239Y1542589D02*
X1959289D01*
X1940655Y1543849D02*
X1959275D01*
X1936148Y1538809D02*
X1959245D01*
X1955995Y1586689D02*
X1959245D01*
X1955365Y1586059D02*
X1959217D01*
X1936591Y1539439D02*
X1959217D01*
X1935485Y1543219D02*
X1959211D01*
X1952911Y1560229D02*
X1959052D01*
X1952911Y1564009D02*
X1958818D01*
X1952911Y1560859D02*
X1958574D01*
X1952911Y1563379D02*
X1958444D01*
X1952911Y1561489D02*
X1958315D01*
X1952911Y1562749D02*
X1958255D01*
X1952911Y1562119D02*
X1958214D01*
X1956376Y1550779D02*
X1957746D01*
X1956409Y1545739D02*
X1957713D01*
X1952911Y1576609D02*
X1954990D01*
X1952911Y1581649D02*
X1954522D01*
X1952911Y1577239D02*
X1954042D01*
X1952911Y1581019D02*
X1953826D01*
X1947585Y1550779D02*
X1953746D01*
X1942545Y1545739D02*
X1953713D01*
X1952911Y1577869D02*
X1953568D01*
X1952911Y1580389D02*
X1953448D01*
X1952911Y1578499D02*
X1953312D01*
X1952911Y1579759D02*
X1953257D01*
X1952911Y1579129D02*
X1953214D01*
X1946955Y1550149D02*
X1952936D01*
X1943175Y1546369D02*
X1952920D01*
X1946325Y1549519D02*
X1952509D01*
X1943805Y1546999D02*
X1952500D01*
X1945695Y1548889D02*
X1952283D01*
X1944435Y1547629D02*
X1952280D01*
X1945065Y1548259D02*
X1952211D01*
X1933360Y1536289D02*
X1949605D01*
X1933410Y1535659D02*
X1948975D01*
X1939773Y1535029D02*
X1948345D01*
X1940386Y1534399D02*
X1947715D01*
X1940723Y1533769D02*
X1947085D01*
X1940884Y1533139D02*
X1946455D01*
X1940901Y1532509D02*
X1945825D01*
X1940775Y1531879D02*
X1945195D01*
X1940484Y1531249D02*
X1944565D01*
X1939953Y1530619D02*
X1943935D01*
X1938767Y1529989D02*
X1943305D01*
X1915411Y1529359D02*
X1942675D01*
X1915411Y1528729D02*
X1942211D01*
X1915411Y1528099D02*
X1942211D01*
X1915411Y1527469D02*
X1942211D01*
X1915411Y1526839D02*
X1942211D01*
X1915411Y1526209D02*
X1942211D01*
X1915411Y1525579D02*
X1942211D01*
X1915411Y1524949D02*
X1942211D01*
X1915411Y1524319D02*
X1942211D01*
X1915411Y1523689D02*
X1942211D01*
X1915411Y1523059D02*
X1942211D01*
X1915411Y1522429D02*
X1942211D01*
X1915411Y1521799D02*
X1942211D01*
X1915411Y1521169D02*
X1942211D01*
X1915411Y1520539D02*
X1942211D01*
X1915411Y1519909D02*
X1942211D01*
X1915411Y1519279D02*
X1942211D01*
X1915411Y1518649D02*
X1942211D01*
X1915411Y1518019D02*
X1942211D01*
X1915411Y1517389D02*
X1942211D01*
X1915411Y1516759D02*
X1942211D01*
X1915411Y1516129D02*
X1942211D01*
X1915411Y1515499D02*
X1942211D01*
X1915411Y1514869D02*
X1942211D01*
X1915411Y1514239D02*
X1942211D01*
X1915411Y1513609D02*
X1942211D01*
X1915411Y1512979D02*
X1942211D01*
X1915411Y1512349D02*
X1942211D01*
X1915411Y1511719D02*
X1942211D01*
X1915411Y1511089D02*
X1942211D01*
X1915411Y1510459D02*
X1942211D01*
X1915411Y1509829D02*
X1942211D01*
X1915411Y1509199D02*
X1942211D01*
X1940482Y1508569D02*
X1942211D01*
X1941886Y1507939D02*
X1942211D01*
X1941847Y1503529D02*
X1942211D01*
X1915411Y1502899D02*
X1942211D01*
X1915411Y1502269D02*
X1942211D01*
X1915411Y1501639D02*
X1942211D01*
X1915411Y1501009D02*
X1942211D01*
X1915411Y1500379D02*
X1942211D01*
X1915411Y1499749D02*
X1942211D01*
X1915411Y1499119D02*
X1942211D01*
X1915411Y1498489D02*
X1942211D01*
X1915411Y1497859D02*
X1942211D01*
X1915411Y1497229D02*
X1942211D01*
X1915411Y1508569D02*
X1939640D01*
X1915411Y1503529D02*
X1938275D01*
X1915411Y1507939D02*
X1938236D01*
X1915411Y1504159D02*
X1937697D01*
X1915411Y1507309D02*
X1937675D01*
X1915411Y1504789D02*
X1937378D01*
X1915411Y1506679D02*
X1937367D01*
X1933267Y1529989D02*
X1937355D01*
X1915411Y1505419D02*
X1937230D01*
X1915411Y1506049D02*
X1937227D01*
X1934273Y1535029D02*
X1936349D01*
X1934453Y1530619D02*
X1936169D01*
X1934886Y1534399D02*
X1935736D01*
X1934984Y1531249D02*
X1935638D01*
X1935223Y1533769D02*
X1935399D01*
X1935275Y1531879D02*
X1935347D01*
X1932052Y1538179D02*
X1932832D01*
X1931148Y1538809D02*
X1931974D01*
X1915411Y1529989D02*
X1931855D01*
X1915411Y1530619D02*
X1930669D01*
X1915411Y1531249D02*
X1930138D01*
X1915411Y1531879D02*
X1929847D01*
X1915411Y1532509D02*
X1929721D01*
X1915411Y1533139D02*
X1929419D01*
X1915411Y1533769D02*
X1928512D01*
X1915411Y1537549D02*
X1928350D01*
X1915411Y1534399D02*
X1928052D01*
X1915411Y1536919D02*
X1927962D01*
X1925790Y1538179D02*
X1927832D01*
X1915411Y1535029D02*
X1927804D01*
X1915411Y1536289D02*
X1927762D01*
X1915411Y1535659D02*
X1927712D01*
X1926648Y1538809D02*
X1926974D01*
X1921290Y1538179D02*
X1923332D01*
X1922148Y1538809D02*
X1922474D01*
X1915411Y1538179D02*
X1918832D01*
X1915411Y1543219D02*
X1918637D01*
X1915411Y1538809D02*
X1917974D01*
X1915411Y1542589D02*
X1917883D01*
X1915411Y1539439D02*
X1917531D01*
X1915411Y1541959D02*
X1917480D01*
X1915411Y1540069D02*
X1917294D01*
X1915411Y1541329D02*
X1917270D01*
X1915411Y1540699D02*
X1917211D01*
X2037911Y1634209D02*
X2134554D01*
X2037911Y1633579D02*
X2134554D01*
X2037911Y1632949D02*
X2134554D01*
X2037911Y1632319D02*
X2134554D01*
X2037911Y1631689D02*
X2134554D01*
X2037911Y1631059D02*
X2134554D01*
X2037911Y1630429D02*
X2134554D01*
X2071336Y1629799D02*
X2134554D01*
X2086950Y1629169D02*
X2134554D01*
X2087908Y1628539D02*
X2134554D01*
X2088504Y1627909D02*
X2134554D01*
X2088909Y1627279D02*
X2134554D01*
X2089180Y1626649D02*
X2134554D01*
X2089343Y1626019D02*
X2134554D01*
X2089409Y1625389D02*
X2134554D01*
X2089383Y1624759D02*
X2134554D01*
X2089264Y1624129D02*
X2134554D01*
X2089043Y1623499D02*
X2134554D01*
X2088701Y1622869D02*
X2134554D01*
X2088200Y1622239D02*
X2134554D01*
X2087441Y1621609D02*
X2134554D01*
X2085885Y1620979D02*
X2134554D01*
X2044265Y1620349D02*
X2134554D01*
X2043965Y1619719D02*
X2134554D01*
X2043419Y1619089D02*
X2134554D01*
X2078947Y1618459D02*
X2134554D01*
X2080011Y1617829D02*
X2134554D01*
X2080515Y1617199D02*
X2134554D01*
X2080791Y1616569D02*
X2134554D01*
X2080905Y1615939D02*
X2134554D01*
X2080877Y1615309D02*
X2134554D01*
X2080702Y1614679D02*
X2134554D01*
X2080348Y1614049D02*
X2134554D01*
X2079700Y1613419D02*
X2134554D01*
X2043960Y1612789D02*
X2134554D01*
X2044262Y1612159D02*
X2134554D01*
X2044397Y1611529D02*
X2134554D01*
X2044389Y1610899D02*
X2134554D01*
X2044237Y1610269D02*
X2134554D01*
X2064304Y1609639D02*
X2134554D01*
X2065190Y1609009D02*
X2134554D01*
X2065722Y1608379D02*
X2134554D01*
X2066065Y1607749D02*
X2134554D01*
X2066271Y1607119D02*
X2134554D01*
X2066364Y1606489D02*
X2134554D01*
X2066352Y1605859D02*
X2134554D01*
X2066232Y1605229D02*
X2134554D01*
X2065995Y1604599D02*
X2134554D01*
X2065613Y1603969D02*
X2134554D01*
X2065020Y1603339D02*
X2134554D01*
X2063968Y1602709D02*
X2134554D01*
X2037911Y1602079D02*
X2134554D01*
X2037911Y1601449D02*
X2134554D01*
X2037911Y1600819D02*
X2134554D01*
X2037911Y1600189D02*
X2134554D01*
X2037911Y1599559D02*
X2134554D01*
X2037911Y1598929D02*
X2134554D01*
X2000105Y1598299D02*
X2134554D01*
X1999475Y1597669D02*
X2134554D01*
X1998845Y1597039D02*
X2134554D01*
X1998215Y1596409D02*
X2134554D01*
X1997585Y1595779D02*
X2134554D01*
X1996955Y1595149D02*
X2134554D01*
X2083237Y1594519D02*
X2134554D01*
X2084445Y1593889D02*
X2134554D01*
X2084979Y1593259D02*
X2134554D01*
X2085272Y1592629D02*
X2134554D01*
X2085400Y1591999D02*
X2134554D01*
X2085385Y1591369D02*
X2134554D01*
X2085226Y1590739D02*
X2134554D01*
X2084891Y1590109D02*
X2134554D01*
X2084283Y1589479D02*
X2134554D01*
X2077191Y1588849D02*
X2134554D01*
X2037911Y1634839D02*
X2134552D01*
X2037911Y1635469D02*
X2134469D01*
X2037911Y1636099D02*
X2134242D01*
X2037911Y1636729D02*
X2133830D01*
X2037911Y1637359D02*
X2133095D01*
X2083767Y1565539D02*
X2131711D01*
X2103588Y1564909D02*
X2131711D01*
X2104563Y1564279D02*
X2131711D01*
X2105044Y1563649D02*
X2131711D01*
X2105305Y1563019D02*
X2131711D01*
X2105408Y1562389D02*
X2131711D01*
X2105368Y1561759D02*
X2131711D01*
X2105181Y1561129D02*
X2131711D01*
X2104809Y1560499D02*
X2131711D01*
X2104127Y1559869D02*
X2131711D01*
X2090067Y1559239D02*
X2131711D01*
X2090697Y1558609D02*
X2131711D01*
X2091327Y1557979D02*
X2131711D01*
X2091957Y1557349D02*
X2131711D01*
X2092587Y1556719D02*
X2131711D01*
X2084397Y1564909D02*
X2101534D01*
X2089437Y1559869D02*
X2100995D01*
X2085027Y1564279D02*
X2100559D01*
X2088807Y1560499D02*
X2100313D01*
X2085657Y1563649D02*
X2100078D01*
X2088177Y1561129D02*
X2099941D01*
X2086287Y1563019D02*
X2099817D01*
X2087547Y1561759D02*
X2099754D01*
X2086917Y1562389D02*
X2099714D01*
X2083137Y1566169D02*
X2099356D01*
X2077372Y1588219D02*
X2098894D01*
X2082507Y1566799D02*
X2097385D01*
X2077406Y1587589D02*
X2097128D01*
X2081877Y1567429D02*
X2096122D01*
X2077299Y1586959D02*
X2095932D01*
X2081247Y1568059D02*
X2095152D01*
X2077031Y1586329D02*
X2094999D01*
X2080617Y1568689D02*
X2094359D01*
X2076540Y1585699D02*
X2094232D01*
X2080411Y1569319D02*
X2093692D01*
X2075527Y1585069D02*
X2093584D01*
X2080411Y1569949D02*
X2093121D01*
X2046386Y1584439D02*
X2093028D01*
X2080411Y1570579D02*
X2092629D01*
X2046947Y1583809D02*
X2092548D01*
X2080411Y1571209D02*
X2092202D01*
X2047255Y1583179D02*
X2092133D01*
X2080411Y1571839D02*
X2091834D01*
X2047395Y1582549D02*
X2091774D01*
X2080411Y1572469D02*
X2091517D01*
X2047392Y1581919D02*
X2091466D01*
X2080411Y1573099D02*
X2091247D01*
X2080411Y1581289D02*
X2091204D01*
X2080411Y1573729D02*
X2091021D01*
X2080411Y1580659D02*
X2090985D01*
X2080411Y1574359D02*
X2090835D01*
X2080411Y1580029D02*
X2090806D01*
X2080411Y1574989D02*
X2090689D01*
X2080411Y1579399D02*
X2090666D01*
X2080411Y1575619D02*
X2090579D01*
X2080411Y1578769D02*
X2090563D01*
X2080411Y1576249D02*
X2090505D01*
X2080411Y1578139D02*
X2090496D01*
X2080411Y1576879D02*
X2090467D01*
X2080411Y1577509D02*
X2090464D01*
X2044398Y1620979D02*
X2084237D01*
X2072168Y1629169D02*
X2083172D01*
X2044388Y1621609D02*
X2082681D01*
X2072603Y1628539D02*
X2082214D01*
X2044234Y1622239D02*
X2081922D01*
X1996325Y1594519D02*
X2081885D01*
X2072834Y1627909D02*
X2081618D01*
X2043907Y1622869D02*
X2081421D01*
X2072911Y1627279D02*
X2081213D01*
X2043312Y1623499D02*
X2081079D01*
X2072847Y1626649D02*
X2080942D01*
X2037911Y1624129D02*
X2080858D01*
X2076827Y1589479D02*
X2080839D01*
X2072631Y1626019D02*
X2080779D01*
X2071445Y1624759D02*
X2080739D01*
X2072219Y1625389D02*
X2080713D01*
X1995695Y1593889D02*
X2080677D01*
X2076161Y1590109D02*
X2080231D01*
X1995411Y1593259D02*
X2080143D01*
X2069869Y1590739D02*
X2079896D01*
X2068631Y1592629D02*
X2079850D01*
X2069682Y1591369D02*
X2079737D01*
X2069312Y1591999D02*
X2079722D01*
X2043362Y1618459D02*
X2077175D01*
X2043410Y1613419D02*
X2076422D01*
X2043934Y1617829D02*
X2076111D01*
X2043371Y1614049D02*
X2075775D01*
X2044249Y1617199D02*
X2075607D01*
X2043939Y1614679D02*
X2075420D01*
X2044393Y1616569D02*
X2075331D01*
X2044251Y1615309D02*
X2075245D01*
X2044394Y1615939D02*
X2075217D01*
X2044982Y1585069D02*
X2073595D01*
X2069908Y1590109D02*
X2072961D01*
X1995411Y1585699D02*
X2072582D01*
X2069805Y1589479D02*
X2072295D01*
X1995411Y1586329D02*
X2072091D01*
X2069543Y1588849D02*
X2071931D01*
X1995411Y1586959D02*
X2071823D01*
X2069060Y1588219D02*
X2071750D01*
X2068081Y1587589D02*
X2071716D01*
X2066336Y1629799D02*
X2068786D01*
X2066445Y1624759D02*
X2068677D01*
X2067168Y1629169D02*
X2067954D01*
X2067219Y1625389D02*
X2067903D01*
X2059581Y1587589D02*
X2066041D01*
X2060131Y1592629D02*
X2065491D01*
X2060560Y1588219D02*
X2065062D01*
X2060812Y1591999D02*
X2064811D01*
X2061043Y1588849D02*
X2064579D01*
X2061182Y1591369D02*
X2064440D01*
X2061305Y1589479D02*
X2064317D01*
X2061369Y1590739D02*
X2064253D01*
X2061408Y1590109D02*
X2064215D01*
X2061336Y1629799D02*
X2063786D01*
X2061445Y1624759D02*
X2063677D01*
X2062168Y1629169D02*
X2062954D01*
X2062219Y1625389D02*
X2062903D01*
X2037911Y1602709D02*
X2061154D01*
X2043912Y1609639D02*
X2060818D01*
X2037911Y1603339D02*
X2060102D01*
X2043321Y1609009D02*
X2059932D01*
X2043269Y1603969D02*
X2059509D01*
X2043456Y1608379D02*
X2059400D01*
X2043884Y1604599D02*
X2059127D01*
X2043985Y1607749D02*
X2059057D01*
X2044222Y1605229D02*
X2058890D01*
X2044275Y1607119D02*
X2058851D01*
X2056336Y1629799D02*
X2058786D01*
X2044384Y1605859D02*
X2058771D01*
X2044401Y1606489D02*
X2058758D01*
X2056445Y1624759D02*
X2058677D01*
X2057168Y1629169D02*
X2057954D01*
X2057219Y1625389D02*
X2057903D01*
X1995411Y1587589D02*
X2057541D01*
X2047244Y1581289D02*
X2057105D01*
X1995411Y1592629D02*
X2056991D01*
X1995411Y1588219D02*
X2056562D01*
X2046925Y1580659D02*
X2056475D01*
X1995411Y1591999D02*
X2056311D01*
X1995411Y1588849D02*
X2056079D01*
X1995411Y1591369D02*
X2055940D01*
X2046347Y1580029D02*
X2055845D01*
X1995411Y1589479D02*
X2055817D01*
X1995411Y1590739D02*
X2055753D01*
X1995411Y1590109D02*
X2055715D01*
X2017113Y1579399D02*
X2055215D01*
X2018073Y1578769D02*
X2054585D01*
X2018550Y1578139D02*
X2053955D01*
X2037911Y1629799D02*
X2053786D01*
X2037911Y1624759D02*
X2053677D01*
X2018808Y1577509D02*
X2053325D01*
X2037911Y1629169D02*
X2052954D01*
X2037911Y1625389D02*
X2052903D01*
X2018908Y1576879D02*
X2052695D01*
X2037911Y1628539D02*
X2052519D01*
X2037911Y1626019D02*
X2052491D01*
X2037911Y1627909D02*
X2052288D01*
X2037911Y1626649D02*
X2052275D01*
X2037911Y1627279D02*
X2052211D01*
X2018867Y1576249D02*
X2052065D01*
X2018677Y1575619D02*
X2051435D01*
X2018302Y1574989D02*
X2050805D01*
X2018414Y1574359D02*
X2050175D01*
X2040468Y1573729D02*
X2049545D01*
X2041230Y1573099D02*
X2048915D01*
X2041637Y1572469D02*
X2048285D01*
X2041850Y1571839D02*
X2047655D01*
X2041911Y1571209D02*
X2047025D01*
X2041831Y1570579D02*
X2046395D01*
X2041597Y1569949D02*
X2045765D01*
X2041157Y1569319D02*
X2045135D01*
X2040311Y1568689D02*
X2044505D01*
X2018482Y1585069D02*
X2044140D01*
X2033405Y1568059D02*
X2043875D01*
X2033290Y1567429D02*
X2043245D01*
X2019847Y1580029D02*
X2042775D01*
X2019886Y1584439D02*
X2042736D01*
X2033014Y1566799D02*
X2042615D01*
X2020425Y1580659D02*
X2042197D01*
X2020447Y1583809D02*
X2042175D01*
X2032508Y1566169D02*
X2041985D01*
X2020744Y1581289D02*
X2041878D01*
X2020755Y1583179D02*
X2041867D01*
X2020892Y1581919D02*
X2041730D01*
X2020895Y1582549D02*
X2041727D01*
X2031439Y1565539D02*
X2041355D01*
X1995411Y1564909D02*
X2040725D01*
X1995411Y1564279D02*
X2040095D01*
X2037911Y1603969D02*
X2039853D01*
X2037911Y1623499D02*
X2039810D01*
X2037911Y1609009D02*
X2039801D01*
X2037911Y1618459D02*
X2039760D01*
X2037911Y1614049D02*
X2039751D01*
X2037911Y1613419D02*
X2039712D01*
X2037911Y1619089D02*
X2039703D01*
X2037911Y1608379D02*
X2039666D01*
X1995411Y1563649D02*
X2039465D01*
X2037911Y1604599D02*
X2039238D01*
X2037911Y1622869D02*
X2039215D01*
X2037911Y1609639D02*
X2039210D01*
X2037911Y1617829D02*
X2039188D01*
X2037911Y1614679D02*
X2039183D01*
X2037911Y1612789D02*
X2039162D01*
X2037911Y1619719D02*
X2039157D01*
X2037911Y1607749D02*
X2039137D01*
X2037911Y1605229D02*
X2038900D01*
X2037911Y1622239D02*
X2038888D01*
X2037911Y1610269D02*
X2038885D01*
X2037911Y1617199D02*
X2038874D01*
X2037911Y1615309D02*
X2038871D01*
X2037911Y1612159D02*
X2038860D01*
X2037911Y1620349D02*
X2038857D01*
X2037911Y1607119D02*
X2038847D01*
X1995411Y1563019D02*
X2038835D01*
X2037911Y1605859D02*
X2038738D01*
X2037911Y1621609D02*
X2038734D01*
X2037911Y1610899D02*
X2038733D01*
X2037911Y1616569D02*
X2038729D01*
X2037911Y1615939D02*
X2038728D01*
X2037911Y1611529D02*
X2038725D01*
X2037911Y1620979D02*
X2038724D01*
X2037911Y1606489D02*
X2038721D01*
X1995411Y1562389D02*
X2038205D01*
X2033377Y1568689D02*
X2037811D01*
X2018738Y1573729D02*
X2037654D01*
X1995411Y1561759D02*
X2037575D01*
X2033203Y1569319D02*
X2036965D01*
X1995411Y1561129D02*
X2036945D01*
X2018890Y1573099D02*
X2036892D01*
X2032849Y1569949D02*
X2036525D01*
X2018897Y1572469D02*
X2036485D01*
X1995411Y1560499D02*
X2036315D01*
X2032204Y1570579D02*
X2036291D01*
X2018761Y1571839D02*
X2036272D01*
X2018458Y1571209D02*
X2036211D01*
X1995411Y1559869D02*
X2035685D01*
X1995411Y1559239D02*
X2035055D01*
X1995411Y1558609D02*
X2034425D01*
X1995411Y1557979D02*
X2033795D01*
X1995411Y1557349D02*
X2033165D01*
X1995503Y1556719D02*
X2032535D01*
X1995785Y1556089D02*
X2031905D01*
X1995903Y1555459D02*
X2031275D01*
X1995911Y1554829D02*
X2030645D01*
X2007519Y1554199D02*
X2030015D01*
X2026439Y1565539D02*
X2029683D01*
X2008255Y1553569D02*
X2029385D01*
X2027204Y1570579D02*
X2028918D01*
X2008651Y1552939D02*
X2028755D01*
X2027508Y1566169D02*
X2028614D01*
X2027849Y1569949D02*
X2028273D01*
X2008856Y1552309D02*
X2028125D01*
X2028014Y1566799D02*
X2028108D01*
X2008910Y1551679D02*
X2027495D01*
X2008823Y1551049D02*
X2026865D01*
X2008581Y1550419D02*
X2026235D01*
X2008129Y1549789D02*
X2025605D01*
X2008539Y1549159D02*
X2024975D01*
X1995411Y1565539D02*
X2024683D01*
X2008803Y1548529D02*
X2024345D01*
X2017907Y1570579D02*
X2023918D01*
X2008907Y1547899D02*
X2023715D01*
X1995411Y1566169D02*
X2023614D01*
X2016586Y1569949D02*
X2023273D01*
X1995411Y1566799D02*
X2023108D01*
X2008870Y1547269D02*
X2023085D01*
X1995411Y1569319D02*
X2022919D01*
X1995411Y1567429D02*
X2022832D01*
X1995411Y1568689D02*
X2022745D01*
X1995411Y1568059D02*
X2022717D01*
X2008685Y1546639D02*
X2022455D01*
X2008317Y1546009D02*
X2021825D01*
X2008400Y1545379D02*
X2021195D01*
X2008730Y1544749D02*
X2020565D01*
X2008887Y1544119D02*
X2019935D01*
X2008899Y1543489D02*
X2019305D01*
X2008768Y1542859D02*
X2018675D01*
X2008471Y1542229D02*
X2018045D01*
X1995411Y1585069D02*
X2017640D01*
X1995411Y1580029D02*
X2016275D01*
X1995411Y1584439D02*
X2016236D01*
X1995411Y1580659D02*
X2015697D01*
X1995411Y1583809D02*
X2015675D01*
X1995411Y1569949D02*
X2015536D01*
X1995411Y1581289D02*
X2015378D01*
X1995411Y1583179D02*
X2015367D01*
X1995411Y1581919D02*
X2015230D01*
X1995411Y1582549D02*
X2015227D01*
X1995411Y1579399D02*
X2015009D01*
X1995411Y1570579D02*
X2014215D01*
X1995411Y1578769D02*
X2014049D01*
X1995411Y1574989D02*
X2013820D01*
X1995411Y1574359D02*
X2013708D01*
X1995411Y1571209D02*
X2013664D01*
X1995411Y1578139D02*
X2013572D01*
X1995411Y1575619D02*
X2013445D01*
X1995411Y1573729D02*
X2013384D01*
X1995411Y1571839D02*
X2013361D01*
X1995411Y1577509D02*
X2013314D01*
X1995411Y1576249D02*
X2013255D01*
X1995411Y1573099D02*
X2013232D01*
X1995411Y1572469D02*
X2013225D01*
X1995411Y1576879D02*
X2013214D01*
X1995911Y1554199D02*
X2004603D01*
X1995911Y1549789D02*
X2003993D01*
X1995911Y1553569D02*
X2003867D01*
X1995911Y1546009D02*
X2003805D01*
X1995911Y1545379D02*
X2003722D01*
X1995911Y1542229D02*
X2003651D01*
X1995911Y1549159D02*
X2003583D01*
X1995911Y1550419D02*
X2003541D01*
X1995911Y1552939D02*
X2003471D01*
X1995911Y1546639D02*
X2003437D01*
X1995911Y1544749D02*
X2003392D01*
X1995911Y1542859D02*
X2003354D01*
X1995911Y1548529D02*
X2003319D01*
X1995911Y1551049D02*
X2003299D01*
X1995911Y1552309D02*
X2003266D01*
X1995911Y1547269D02*
X2003252D01*
X1995911Y1544119D02*
X2003235D01*
X1995911Y1543489D02*
X2003223D01*
X1995911Y1547899D02*
X2003215D01*
X1995911Y1551679D02*
X2003212D01*
X1887561Y1690844D02*
Y1686250D01*
Y1690844D02*
X1888675D01*
X1889152Y1690625*
X1889470Y1690188*
X1889470D02*
X1889629Y1689750D01*
X1889788Y1689094*
Y1688000*
X1889629Y1687344*
X1889470Y1686906*
X1889152Y1686469*
X1888675Y1686250*
X1887561*
X1892493Y1690844D02*
X1891220Y1686250D01*
X1892493Y1690844D02*
X1893766Y1686250D01*
X1891697Y1687781D02*
X1893288D01*
X1896311Y1690844D02*
Y1686250D01*
X1895197Y1690844D02*
X1897425D01*
X1898856D02*
Y1686250D01*
Y1690844D02*
X1900925D01*
X1898856Y1688656D02*
X1900129D01*
X1898856Y1686250D02*
X1900925D01*
X1902516Y1689313D02*
X1902356Y1689094D01*
X1902516Y1688875*
X1902675Y1689094*
X1902516Y1689313*
Y1686688D02*
X1902356Y1686469D01*
X1902516Y1686250*
X1902675Y1686469*
X1902516Y1686688*
X1887561Y1713344D02*
Y1708750D01*
X1889470*
X1892175Y1713344D02*
X1890902Y1708750D01*
X1892175Y1713344D02*
X1893447Y1708750D01*
X1891379Y1710281D02*
X1892970D01*
X1894879Y1713344D02*
X1896152Y1711156D01*
Y1708750*
X1897425Y1713344D02*
X1896152Y1711156D01*
X1898856Y1713344D02*
Y1708750D01*
Y1713344D02*
X1900925D01*
X1898856Y1711156D02*
X1900129D01*
X1898856Y1708750D02*
X1900925D01*
X1902356Y1713344D02*
Y1708750D01*
Y1713344D02*
X1903788D01*
X1904266Y1713125*
X1904425Y1712906*
X1904584Y1712469*
Y1712031*
X1904425Y1711594*
X1904266Y1711375*
X1903788Y1711156*
X1902356*
X1903470D02*
X1904584Y1708750D01*
X2112561Y1788344D02*
Y1783750D01*
Y1788344D02*
X2113993D01*
X2114470Y1788125*
X2114629Y1787906*
X2114788Y1787469*
Y1787031*
X2114629Y1786594*
X2114470Y1786375*
X2113993Y1786156*
X2112561*
X2113675D02*
X2114788Y1783750D01*
X2116220Y1788344D02*
Y1783750D01*
Y1788344D02*
X2118288D01*
X2116220Y1786156D02*
X2117493D01*
X2116220Y1783750D02*
X2118288D01*
X2119720Y1788344D02*
X2120993Y1783750D01*
X2122266Y1788344D02*
X2120993Y1783750D01*
G54D200*
X2037561Y1373750D02*
X2037564D01*
X2137561D02*
X2137564D01*
G54D232*
X2085061Y1369063D02*
X2085516Y1369375D01*
X2086197Y1370313*
X2086197D02*
Y1363750D01*
X2088470Y1364375D02*
X2088243Y1364063D01*
X2088243D02*
X2088470Y1363750D01*
X2088697Y1364063*
X2088697D02*
X2088470Y1364375D01*
X2092106Y1370313D02*
X2091425Y1370000D01*
X2090970Y1369063*
X2090970D02*
X2090743Y1367500D01*
Y1366563*
X2090743D02*
X2090970Y1365000D01*
X2091425Y1364063*
X2091425D02*
X2092106Y1363750D01*
X2092561*
X2093243Y1364063*
X2093243D02*
X2093697Y1365000D01*
X2093925Y1366563*
X2093925D02*
Y1367500D01*
X2093697Y1369063*
X2093697D02*
X2093243Y1370000D01*
X2092561Y1370313*
X2092561D02*
X2092106D01*
X2095970D02*
Y1368125D01*
X2097788Y1370313D02*
Y1368125D01*
G54D233*
X1957561Y1723750D02*
X1959577D01*
X1956486Y1723840D02*
X1960563D01*
X1955859Y1723929D02*
X1961279D01*
X1955322Y1724019D02*
X1961727D01*
X1954874Y1724108D02*
X1962173D01*
X1954515Y1724198D02*
X1962623D01*
X1954157Y1724287D02*
X1962981D01*
X1953799Y1724377D02*
X1963250D01*
X1953530Y1724467D02*
X1963608D01*
X1953172Y1724556D02*
X1963877D01*
X1952903Y1724646D02*
X1964146D01*
X1952724Y1724735D02*
X1964415D01*
X1952455Y1724825D02*
X1964594D01*
X1952186Y1724915D02*
X1964863D01*
X1952007Y1725004D02*
X1965131D01*
X1951738Y1725094D02*
X1965310D01*
X1951559Y1725183D02*
X1965490D01*
X1951380Y1725273D02*
X1965669D01*
X1951201Y1725362D02*
X1965937D01*
X1951022Y1725452D02*
X1966117D01*
X1950843Y1725542D02*
X1966296D01*
X1950664Y1725631D02*
X1966473D01*
X1950484Y1725721D02*
X1966652D01*
X1950305Y1725810D02*
X1966742D01*
X1950126Y1725900D02*
X1966921D01*
X1949947Y1725989D02*
X1967100D01*
X1949857Y1726079D02*
X1967279D01*
X2014443D02*
X2016101D01*
X1949678Y1726169D02*
X1967369D01*
X2013816D02*
X2016818D01*
X1949499Y1726258D02*
X1967548D01*
X2013368D02*
X2017176D01*
X1949409Y1726348D02*
X1967729D01*
X2013099D02*
X2017534D01*
X1949230Y1726437D02*
X1967819D01*
X2012831D02*
X2017714D01*
X1949141Y1726527D02*
X1967998D01*
X2012562D02*
X2017982D01*
X1948962Y1726617D02*
X1968087D01*
X2012383D02*
X2018162D01*
X1948872Y1726706D02*
X1968267D01*
X2012293D02*
X2018341D01*
X1948693Y1726796D02*
X1968356D01*
X2012114D02*
X2018430D01*
X1948603Y1726885D02*
X1968535D01*
X2012025D02*
X2018609D01*
X1948424Y1726975D02*
X1968625D01*
X2011935D02*
X2018699D01*
X1948334Y1727064D02*
X1968714D01*
X2011845D02*
X2018789D01*
X1948245Y1727154D02*
X1968894D01*
X2011756D02*
X2018878D01*
X1948066Y1727244D02*
X1968983D01*
X2011666D02*
X2018968D01*
X1947976Y1727333D02*
X1969073D01*
X2011577D02*
X2014578D01*
X2016235D02*
X2019057D01*
X1947887Y1727423D02*
X1969252D01*
X2011577D02*
X2014131D01*
X2016683D02*
X2019147D01*
X1947707Y1727512D02*
X1969341D01*
X2011487D02*
X2013772D01*
X2016951D02*
X2019236D01*
X1947618Y1727602D02*
X1969431D01*
X2011487D02*
X2013593D01*
X2017220D02*
X2019236D01*
X1947528Y1727691D02*
X1969521D01*
X2011397D02*
X2013414D01*
X2017399D02*
X2019326D01*
X1947439Y1727781D02*
X1969700D01*
X2011397D02*
X2013235D01*
X2017489D02*
X2019326D01*
X1947349Y1727871D02*
X1969789D01*
X2011397D02*
X2013145D01*
X2017668D02*
X2019416D01*
X1947170Y1727960D02*
X1969879D01*
X2011308D02*
X2013056D01*
X2017758D02*
X2019416D01*
X1947080Y1728050D02*
X1969969D01*
X2011308D02*
X2013056D01*
X2017847D02*
X2019416D01*
X1946991Y1728139D02*
X1970058D01*
X2011308D02*
X2012966D01*
X2017847D02*
X2019505D01*
X1946901Y1728229D02*
X1970148D01*
X2011308D02*
X2012966D01*
X2017937D02*
X2019505D01*
X1946812Y1728318D02*
X1970237D01*
X2011308D02*
X2012876D01*
X2017937D02*
X2019505D01*
X1946722Y1728408D02*
X1970327D01*
X2011308D02*
X2012876D01*
X2017937D02*
X2019505D01*
X1946632Y1728498D02*
X1970416D01*
X2011308D02*
X2012876D01*
X2018026D02*
X2019505D01*
X1946543Y1728587D02*
X1970596D01*
X2011308D02*
X2012876D01*
X2018026D02*
X2019505D01*
X1946453Y1728677D02*
X1970685D01*
X2011397D02*
X2012966D01*
X2017937D02*
X2019505D01*
X1946364Y1728766D02*
X1970775D01*
X2011397D02*
X2012966D01*
X2017937D02*
X2019505D01*
X1946274Y1728856D02*
X1970864D01*
X2011397D02*
X2012966D01*
X2017937D02*
X2019505D01*
X1946185Y1728946D02*
X1970954D01*
X2011397D02*
X2013056D01*
X2017847D02*
X2019505D01*
X1946095Y1729035D02*
X1970954D01*
X2011487D02*
X2013145D01*
X2017758D02*
X2019505D01*
X1946005Y1729125D02*
X1971043D01*
X2011487D02*
X2013145D01*
X2017668D02*
X2019505D01*
X1945916Y1729214D02*
X1971133D01*
X1999931D02*
X2001769D01*
X2005933D02*
X2008039D01*
X2011577D02*
X2013235D01*
X2017489D02*
X2019505D01*
X2027880D02*
X2029536D01*
X2037733D02*
X2039481D01*
X2043735D02*
X2045752D01*
X2052066D02*
X2053634D01*
X1945826Y1729304D02*
X1971223D01*
X1999573D02*
X2002127D01*
X2005575D02*
X2008398D01*
X2011577D02*
X2013324D01*
X2017310D02*
X2019505D01*
X2027522D02*
X2029894D01*
X2037375D02*
X2039839D01*
X2043377D02*
X2046199D01*
X2051708D02*
X2053993D01*
X1945737Y1729393D02*
X1971312D01*
X1984345D02*
X1986003D01*
X1988376D02*
X1990034D01*
X1993751D02*
X1995407D01*
X1999304D02*
X2002127D01*
X2005306D02*
X2008756D01*
X2011666D02*
X2013414D01*
X2017130D02*
X2019416D01*
X2021072D02*
X2022730D01*
X2027342D02*
X2030163D01*
X2031821D02*
X2033119D01*
X2037106D02*
X2039839D01*
X2043108D02*
X2046468D01*
X2051528D02*
X2054172D01*
X2055828D02*
X2057128D01*
X1945647Y1729483D02*
X1971402D01*
X1984345D02*
X1986003D01*
X1988376D02*
X1990034D01*
X1993751D02*
X1995407D01*
X1999125D02*
X2002127D01*
X2005127D02*
X2009025D01*
X2011756D02*
X2013593D01*
X2016772D02*
X2019416D01*
X2021072D02*
X2022730D01*
X2027163D02*
X2030342D01*
X2031821D02*
X2033119D01*
X2036927D02*
X2039839D01*
X2042839D02*
X2046737D01*
X2051349D02*
X2054351D01*
X2055828D02*
X2057128D01*
X1945558Y1729573D02*
X1971491D01*
X1984345D02*
X1986003D01*
X1988376D02*
X1990034D01*
X1993751D02*
X1995407D01*
X1999036D02*
X2002037D01*
X2004948D02*
X2009204D01*
X2011845D02*
X2013683D01*
X2016414D02*
X2019326D01*
X2021072D02*
X2022730D01*
X2027074D02*
X2030521D01*
X2031821D02*
X2033119D01*
X2036748D02*
X2039839D01*
X2042660D02*
X2047006D01*
X2051170D02*
X2054530D01*
X2055739D02*
X2057128D01*
X1945468Y1729662D02*
X1971581D01*
X1984345D02*
X1986003D01*
X1988376D02*
X1990034D01*
X1993751D02*
X1995407D01*
X1998857D02*
X2002037D01*
X2004769D02*
X2009383D01*
X2011935D02*
X2013772D01*
X2015876D02*
X2019326D01*
X2021072D02*
X2022730D01*
X2026894D02*
X2030701D01*
X2031732D02*
X2033119D01*
X2036659D02*
X2039839D01*
X2042571D02*
X2047185D01*
X2050991D02*
X2054709D01*
X2055739D02*
X2057128D01*
X1945468Y1729752D02*
X1971670D01*
X1984345D02*
X1986003D01*
X1988376D02*
X1990034D01*
X1993751D02*
X1995407D01*
X1998767D02*
X2002037D01*
X2004590D02*
X2009562D01*
X2012025D02*
X2013951D01*
X2015339D02*
X2019236D01*
X2021072D02*
X2022730D01*
X2026805D02*
X2030880D01*
X2031732D02*
X2033119D01*
X2036569D02*
X2039839D01*
X2042392D02*
X2047364D01*
X2050901D02*
X2054799D01*
X2055739D02*
X2057128D01*
X1945378Y1729841D02*
X1971760D01*
X1984345D02*
X1986003D01*
X1988376D02*
X1990034D01*
X1993751D02*
X1995407D01*
X1998677D02*
X2002037D01*
X2004500D02*
X2009741D01*
X2012114D02*
X2014131D01*
X2014891D02*
X2019236D01*
X2021072D02*
X2022730D01*
X2026715D02*
X2030969D01*
X2031732D02*
X2033119D01*
X2036479D02*
X2039750D01*
X2042302D02*
X2047543D01*
X2050812D02*
X2054978D01*
X2055739D02*
X2057128D01*
X1945289Y1729931D02*
X1971760D01*
X1984345D02*
X1986003D01*
X1988376D02*
X1990034D01*
X1993751D02*
X1995407D01*
X1998588D02*
X2002037D01*
X2004410D02*
X2009920D01*
X2012204D02*
X2014310D01*
X2014443D02*
X2019147D01*
X2021072D02*
X2022730D01*
X2026626D02*
X2031059D01*
X2031732D02*
X2033119D01*
X2036390D02*
X2039750D01*
X2042123D02*
X2047633D01*
X2050722D02*
X2055068D01*
X2055739D02*
X2057128D01*
X1945199Y1730020D02*
X1971850D01*
X1984345D02*
X1986003D01*
X1988376D02*
X1990034D01*
X1993751D02*
X1995407D01*
X1998588D02*
X2002037D01*
X2004321D02*
X2010010D01*
X2012293D02*
X2019057D01*
X2021072D02*
X2022730D01*
X2026536D02*
X2031238D01*
X2031732D02*
X2033119D01*
X2036300D02*
X2039750D01*
X2042033D02*
X2047812D01*
X2050633D02*
X2055157D01*
X2055739D02*
X2057128D01*
X1945110Y1730110D02*
X1971939D01*
X1984345D02*
X1986003D01*
X1988376D02*
X1990034D01*
X1993751D02*
X1995407D01*
X1998498D02*
X2002037D01*
X2004142D02*
X2010189D01*
X2012472D02*
X2018968D01*
X2021072D02*
X2022730D01*
X2026536D02*
X2031328D01*
X2031732D02*
X2033119D01*
X2036300D02*
X2039750D01*
X2041944D02*
X2047901D01*
X2050543D02*
X2055247D01*
X2055649D02*
X2057128D01*
X1945020Y1730200D02*
X1972029D01*
X1984345D02*
X1986003D01*
X1988376D02*
X1990034D01*
X1993751D02*
X1995407D01*
X1998498D02*
X2001948D01*
X2004052D02*
X2010279D01*
X2012562D02*
X2018789D01*
X2021072D02*
X2022730D01*
X2026447D02*
X2031417D01*
X2031642D02*
X2033119D01*
X2036211D02*
X2039750D01*
X2041854D02*
X2048081D01*
X2050454D02*
X2055336D01*
X2055649D02*
X2057128D01*
X1945020Y1730289D02*
X1972118D01*
X1984345D02*
X1986003D01*
X1988376D02*
X1990034D01*
X1993751D02*
X1995407D01*
X1998409D02*
X2001948D01*
X2003962D02*
X2010368D01*
X2012741D02*
X2018699D01*
X2021072D02*
X2022730D01*
X2026447D02*
X2031507D01*
X2031642D02*
X2033119D01*
X2036211D02*
X2039750D01*
X2041764D02*
X2048170D01*
X2050364D02*
X2055426D01*
X2055649D02*
X2057128D01*
X1944931Y1730379D02*
X1972118D01*
X1984345D02*
X1986003D01*
X1988376D02*
X1990034D01*
X1993751D02*
X1995407D01*
X1998409D02*
X2001948D01*
X2003962D02*
X2010368D01*
X2012831D02*
X2018520D01*
X2021072D02*
X2022730D01*
X2026357D02*
X2033119D01*
X2036121D02*
X2039750D01*
X2041675D02*
X2048170D01*
X2050274D02*
X2055516D01*
X2055649D02*
X2057128D01*
X1944841Y1730468D02*
X1972208D01*
X1984345D02*
X1986003D01*
X1988376D02*
X1990034D01*
X1993751D02*
X1995407D01*
X1998319D02*
X2001948D01*
X2003873D02*
X2010368D01*
X2013010D02*
X2018430D01*
X2021072D02*
X2022730D01*
X2026357D02*
X2033119D01*
X2036121D02*
X2039660D01*
X2041585D02*
X2048081D01*
X2050185D02*
X2057128D01*
X1944751Y1730558D02*
X1972298D01*
X1984345D02*
X1986003D01*
X1988376D02*
X1990034D01*
X1993751D02*
X1995407D01*
X1998319D02*
X2001948D01*
X2003783D02*
X2010368D01*
X2013010D02*
X2018162D01*
X2021072D02*
X2022730D01*
X2026267D02*
X2028730D01*
X2029313D02*
X2033119D01*
X2036121D02*
X2039660D01*
X2041585D02*
X2048081D01*
X2050185D02*
X2057128D01*
X1944751Y1730648D02*
X1972387D01*
X1984345D02*
X1986003D01*
X1988376D02*
X1990034D01*
X1993751D02*
X1995407D01*
X1998319D02*
X2001948D01*
X2003694D02*
X2006427D01*
X2007814D02*
X2010368D01*
X2012920D02*
X2017982D01*
X2021072D02*
X2022730D01*
X2026267D02*
X2028372D01*
X2029761D02*
X2033119D01*
X2036031D02*
X2039660D01*
X2041496D02*
X2044139D01*
X2045616D02*
X2048081D01*
X2050095D02*
X2052828D01*
X2053320D02*
X2057128D01*
X1944662Y1730737D02*
X1972387D01*
X1984345D02*
X1986003D01*
X1988376D02*
X1990034D01*
X1993751D02*
X1995407D01*
X1998319D02*
X2000425D01*
X2003694D02*
X2006158D01*
X2008173D02*
X2010279D01*
X2012831D02*
X2017714D01*
X2021072D02*
X2022730D01*
X2026267D02*
X2028192D01*
X2030030D02*
X2033119D01*
X2036031D02*
X2038227D01*
X2041406D02*
X2043870D01*
X2045975D02*
X2048081D01*
X2050095D02*
X2052470D01*
X2053768D02*
X2057128D01*
X1944572Y1730827D02*
X1972477D01*
X1984345D02*
X1986003D01*
X1988376D02*
X1990034D01*
X1993751D02*
X1995407D01*
X1998229D02*
X2000246D01*
X2003604D02*
X2005889D01*
X2008441D02*
X2010279D01*
X2012741D02*
X2017355D01*
X2021072D02*
X2022730D01*
X2026178D02*
X2028103D01*
X2030209D02*
X2033119D01*
X2036031D02*
X2038046D01*
X2041406D02*
X2043691D01*
X2046243D02*
X2048081D01*
X2050006D02*
X2052291D01*
X2054037D02*
X2057128D01*
X1944483Y1730916D02*
X1972566D01*
X1984345D02*
X1986003D01*
X1988376D02*
X1990034D01*
X1993751D02*
X1995407D01*
X1998229D02*
X2000156D01*
X2003515D02*
X2005710D01*
X2008710D02*
X2010279D01*
X2012741D02*
X2016997D01*
X2021072D02*
X2022730D01*
X2026178D02*
X2028013D01*
X2030388D02*
X2033119D01*
X2036031D02*
X2037867D01*
X2041317D02*
X2043512D01*
X2046423D02*
X2048081D01*
X2050006D02*
X2052112D01*
X2054216D02*
X2057128D01*
X1944483Y1731006D02*
X1972656D01*
X1984345D02*
X1986003D01*
X1988376D02*
X1990034D01*
X1993751D02*
X1995407D01*
X1998229D02*
X2000067D01*
X2003515D02*
X2005621D01*
X2008889D02*
X2010279D01*
X2012652D02*
X2016549D01*
X2021072D02*
X2022730D01*
X2026178D02*
X2027926D01*
X2030567D02*
X2033119D01*
X2036031D02*
X2037777D01*
X2041227D02*
X2043333D01*
X2046602D02*
X2047991D01*
X2049916D02*
X2052022D01*
X2054305D02*
X2057128D01*
X1944393Y1731095D02*
X1972656D01*
X1984345D02*
X1986003D01*
X1988376D02*
X1990034D01*
X1993751D02*
X1995407D01*
X1998229D02*
X1999977D01*
X2003425D02*
X2005531D01*
X2009068D02*
X2010279D01*
X2012652D02*
X2016012D01*
X2021072D02*
X2022730D01*
X2026178D02*
X2027926D01*
X2030746D02*
X2033119D01*
X2036031D02*
X2037777D01*
X2041227D02*
X2043243D01*
X2046781D02*
X2047991D01*
X2049916D02*
X2051932D01*
X2054485D02*
X2057128D01*
X1944303Y1731185D02*
X1972745D01*
X1984345D02*
X1986003D01*
X1988376D02*
X1990034D01*
X1993751D02*
X1995407D01*
X1998229D02*
X1999977D01*
X2003425D02*
X2005441D01*
X2009248D02*
X2010279D01*
X2012652D02*
X2015474D01*
X2021072D02*
X2022730D01*
X2026178D02*
X2027836D01*
X2030836D02*
X2033119D01*
X2035942D02*
X2037688D01*
X2041137D02*
X2043154D01*
X2046960D02*
X2047991D01*
X2049826D02*
X2051843D01*
X2054574D02*
X2057128D01*
X1944303Y1731275D02*
X1972835D01*
X1984345D02*
X1986003D01*
X1988376D02*
X1990034D01*
X1993751D02*
X1995407D01*
X1998229D02*
X1999888D01*
X2003335D02*
X2005352D01*
X2009337D02*
X2010189D01*
X2012562D02*
X2015026D01*
X2021072D02*
X2022730D01*
X2026088D02*
X2027836D01*
X2031015D02*
X2033119D01*
X2035942D02*
X2037688D01*
X2041137D02*
X2043064D01*
X2047139D02*
X2047991D01*
X2049826D02*
X2051753D01*
X2054664D02*
X2057128D01*
X1944214Y1731364D02*
X1972835D01*
X1984345D02*
X1986003D01*
X1988376D02*
X1990034D01*
X1993751D02*
X1995407D01*
X1998229D02*
X1999888D01*
X2003335D02*
X2005262D01*
X2009516D02*
X2010189D01*
X2012562D02*
X2014668D01*
X2021072D02*
X2022730D01*
X2026088D02*
X2027746D01*
X2031105D02*
X2033119D01*
X2035942D02*
X2037598D01*
X2041137D02*
X2042975D01*
X2047229D02*
X2047991D01*
X2049737D02*
X2051664D01*
X2054843D02*
X2057128D01*
X1944124Y1731454D02*
X1972925D01*
X1984345D02*
X1986003D01*
X1988376D02*
X1990034D01*
X1993751D02*
X1995407D01*
X1998229D02*
X1999888D01*
X2003335D02*
X2005173D01*
X2009606D02*
X2010189D01*
X2012562D02*
X2014399D01*
X2021072D02*
X2022730D01*
X2026088D02*
X2027746D01*
X2031194D02*
X2033119D01*
X2035942D02*
X2037598D01*
X2041048D02*
X2042885D01*
X2047408D02*
X2047991D01*
X2049737D02*
X2051664D01*
X2054932D02*
X2057128D01*
X1944124Y1731543D02*
X1973014D01*
X1984345D02*
X1986003D01*
X1988376D02*
X1990034D01*
X1993751D02*
X1995407D01*
X1998229D02*
X1999798D01*
X2003246D02*
X2005083D01*
X2009785D02*
X2010189D01*
X2012652D02*
X2014310D01*
X2021072D02*
X2022730D01*
X2026088D02*
X2027746D01*
X2031284D02*
X2033119D01*
X2035942D02*
X2037598D01*
X2041048D02*
X2042885D01*
X2047497D02*
X2047901D01*
X2049737D02*
X2051574D01*
X2055022D02*
X2057128D01*
X1944035Y1731633D02*
X1973014D01*
X1984345D02*
X1986003D01*
X1988376D02*
X1990034D01*
X1993751D02*
X1995407D01*
X1998229D02*
X1999798D01*
X2003246D02*
X2005083D01*
X2009875D02*
X2010189D01*
X2012652D02*
X2014220D01*
X2021072D02*
X2022730D01*
X2026088D02*
X2027746D01*
X2031373D02*
X2033119D01*
X2035942D02*
X2037598D01*
X2040958D02*
X2042796D01*
X2047677D02*
X2047901D01*
X2049647D02*
X2051485D01*
X2055112D02*
X2057128D01*
X1943945Y1731722D02*
X1973104D01*
X1984345D02*
X1986003D01*
X1988376D02*
X1990034D01*
X1993751D02*
X1995407D01*
X1998229D02*
X1999798D01*
X2003246D02*
X2004994D01*
X2009964D02*
X2010189D01*
X2012652D02*
X2014220D01*
X2021072D02*
X2022730D01*
X2026088D02*
X2027746D01*
X2031463D02*
X2033119D01*
X2035942D02*
X2037598D01*
X2040958D02*
X2042796D01*
X2047766D02*
X2047901D01*
X2049647D02*
X2051485D01*
X2055201D02*
X2057128D01*
X1943945Y1731812D02*
X1973193D01*
X1984345D02*
X1986003D01*
X1988376D02*
X1990034D01*
X1993751D02*
X1995407D01*
X1998229D02*
X1999798D01*
X2003156D02*
X2004994D01*
X2012652D02*
X2014220D01*
X2021072D02*
X2022730D01*
X2026088D02*
X2027746D01*
X2031553D02*
X2033119D01*
X2035942D02*
X2037598D01*
X2040958D02*
X2042706D01*
X2049647D02*
X2051395D01*
X2055201D02*
X2057128D01*
X1943856Y1731902D02*
X1973193D01*
X1984345D02*
X1986003D01*
X1988376D02*
X1990034D01*
X1993751D02*
X1995407D01*
X1998229D02*
X1999798D01*
X2003156D02*
X2004904D01*
X2012741D02*
X2014310D01*
X2021072D02*
X2022730D01*
X2026178D02*
X2027746D01*
X2031553D02*
X2033119D01*
X2035942D02*
X2037598D01*
X2040958D02*
X2042706D01*
X2049647D02*
X2051395D01*
X2055291D02*
X2057128D01*
X1943766Y1731991D02*
X1973283D01*
X1984345D02*
X1986003D01*
X1988376D02*
X1990034D01*
X1993751D02*
X1995407D01*
X1998229D02*
X1999798D01*
X2003156D02*
X2004904D01*
X2012831D02*
X2014399D01*
X2021072D02*
X2022730D01*
X2026178D02*
X2027836D01*
X2031553D02*
X2033119D01*
X2035942D02*
X2037598D01*
X2040869D02*
X2042616D01*
X2049558D02*
X2051395D01*
X2055380D02*
X2057128D01*
X1943766Y1732081D02*
X1973283D01*
X1984345D02*
X1986003D01*
X1988376D02*
X1990034D01*
X1993751D02*
X1995407D01*
X1998229D02*
X1999798D01*
X2003156D02*
X2004814D01*
X2012831D02*
X2014489D01*
X2021072D02*
X2022730D01*
X2026178D02*
X2027836D01*
X2031553D02*
X2033119D01*
X2035942D02*
X2037598D01*
X2040869D02*
X2042616D01*
X2049558D02*
X2051305D01*
X2055470D02*
X2057128D01*
X1943676Y1732170D02*
X1973372D01*
X1984345D02*
X1986003D01*
X1988376D02*
X1990034D01*
X1993751D02*
X1995407D01*
X1998229D02*
X1999798D01*
X2003067D02*
X2004814D01*
X2012920D02*
X2015922D01*
X2021072D02*
X2022730D01*
X2026178D02*
X2027836D01*
X2031553D02*
X2033119D01*
X2035942D02*
X2037598D01*
X2040869D02*
X2042527D01*
X2049558D02*
X2051305D01*
X2055470D02*
X2057128D01*
X1943676Y1732260D02*
X1973462D01*
X1984345D02*
X1986003D01*
X1988376D02*
X1990034D01*
X1993751D02*
X1995407D01*
X1998229D02*
X1999798D01*
X2003067D02*
X2004814D01*
X2013010D02*
X2016280D01*
X2021072D02*
X2022730D01*
X2026178D02*
X2027926D01*
X2031553D02*
X2033119D01*
X2035942D02*
X2037598D01*
X2040869D02*
X2042527D01*
X2049558D02*
X2051305D01*
X2055470D02*
X2057128D01*
X1943587Y1732350D02*
X1973462D01*
X1984345D02*
X1986003D01*
X1988376D02*
X1990034D01*
X1993751D02*
X1995407D01*
X1998229D02*
X1999798D01*
X2003067D02*
X2004725D01*
X2013099D02*
X2016549D01*
X2021072D02*
X2022730D01*
X2026178D02*
X2027926D01*
X2031553D02*
X2033119D01*
X2035942D02*
X2037598D01*
X2040779D02*
X2042527D01*
X2049558D02*
X2051216D01*
X2055470D02*
X2057128D01*
X1943587Y1732439D02*
X1973552D01*
X1984345D02*
X1986003D01*
X1988376D02*
X1990034D01*
X1993751D02*
X1995407D01*
X1998229D02*
X1999798D01*
X2003067D02*
X2004725D01*
X2013279D02*
X2016818D01*
X2021072D02*
X2022730D01*
X2026267D02*
X2028013D01*
X2031553D02*
X2033119D01*
X2035942D02*
X2037598D01*
X2040779D02*
X2042527D01*
X2049558D02*
X2051216D01*
X2055470D02*
X2057128D01*
X1943497Y1732529D02*
X1973552D01*
X1984345D02*
X1986003D01*
X1988376D02*
X1990034D01*
X1993751D02*
X1995407D01*
X1998229D02*
X1999798D01*
X2003067D02*
X2004725D01*
X2013368D02*
X2016997D01*
X2021072D02*
X2022730D01*
X2026267D02*
X2028103D01*
X2031553D02*
X2033119D01*
X2035942D02*
X2037598D01*
X2040779D02*
X2042437D01*
X2049558D02*
X2051216D01*
X2055470D02*
X2057128D01*
X1943408Y1732618D02*
X1947843D01*
X1951470D02*
X1952409D01*
X1956217D02*
X1960832D01*
X1964638D02*
X1965579D01*
X1969206D02*
X1973641D01*
X1984345D02*
X1986003D01*
X1988376D02*
X1990034D01*
X1993751D02*
X1995407D01*
X1998229D02*
X1999798D01*
X2002977D02*
X2004725D01*
X2013279D02*
X2017176D01*
X2021072D02*
X2022730D01*
X2026267D02*
X2028192D01*
X2031553D02*
X2033119D01*
X2035942D02*
X2037598D01*
X2040779D02*
X2042437D01*
X2049468D02*
X2051216D01*
X2055470D02*
X2057128D01*
X1943408Y1732708D02*
X1947843D01*
X1951470D02*
X1952499D01*
X1956307D02*
X1960832D01*
X1964638D02*
X1965579D01*
X1969206D02*
X1973641D01*
X1984345D02*
X1986003D01*
X1988376D02*
X1990034D01*
X1993751D02*
X1995407D01*
X1998229D02*
X1999798D01*
X2002977D02*
X2004635D01*
X2013189D02*
X2017266D01*
X2021072D02*
X2022730D01*
X2026357D02*
X2028282D01*
X2031553D02*
X2033119D01*
X2035942D02*
X2037598D01*
X2040779D02*
X2042437D01*
X2049468D02*
X2051216D01*
X2055470D02*
X2057128D01*
X1943318Y1732797D02*
X1947843D01*
X1951470D02*
X1952499D01*
X1956307D02*
X1960742D01*
X1964548D02*
X1965579D01*
X1969206D02*
X1973731D01*
X1984345D02*
X1986003D01*
X1988376D02*
X1990034D01*
X1993751D02*
X1995407D01*
X1998229D02*
X1999798D01*
X2002977D02*
X2004635D01*
X2013010D02*
X2017445D01*
X2021072D02*
X2022730D01*
X2026357D02*
X2028372D01*
X2031553D02*
X2033119D01*
X2035942D02*
X2037598D01*
X2040779D02*
X2042437D01*
X2049468D02*
X2051216D01*
X2055470D02*
X2057128D01*
X1943318Y1732887D02*
X1947843D01*
X1951470D02*
X1952590D01*
X1956397D02*
X1960742D01*
X1964548D02*
X1965579D01*
X1969206D02*
X1973820D01*
X1984345D02*
X1986003D01*
X1988376D02*
X1990034D01*
X1993751D02*
X1995407D01*
X1998229D02*
X1999798D01*
X2002977D02*
X2004635D01*
X2012920D02*
X2017534D01*
X2021072D02*
X2022730D01*
X2026447D02*
X2028551D01*
X2031553D02*
X2033119D01*
X2035942D02*
X2037598D01*
X2040779D02*
X2042437D01*
X2049468D02*
X2051126D01*
X2055470D02*
X2057128D01*
X1943229Y1732977D02*
X1947843D01*
X1951470D02*
X1952590D01*
X1956397D02*
X1960652D01*
X1964459D02*
X1965579D01*
X1969206D02*
X1973820D01*
X1984345D02*
X1986003D01*
X1988376D02*
X1990034D01*
X1993751D02*
X1995407D01*
X1998229D02*
X1999798D01*
X2002977D02*
X2004635D01*
X2012831D02*
X2017624D01*
X2021072D02*
X2022730D01*
X2026447D02*
X2028730D01*
X2031553D02*
X2033119D01*
X2035942D02*
X2037598D01*
X2040779D02*
X2042348D01*
X2049468D02*
X2051126D01*
X2055470D02*
X2057128D01*
X1943229Y1733066D02*
X1947843D01*
X1951470D02*
X1952680D01*
X1956486D02*
X1960563D01*
X1964369D02*
X1965579D01*
X1969206D02*
X1973910D01*
X1984345D02*
X1986003D01*
X1988376D02*
X1990034D01*
X1993751D02*
X1995407D01*
X1998229D02*
X1999798D01*
X2002977D02*
X2004635D01*
X2012741D02*
X2017714D01*
X2021072D02*
X2022730D01*
X2026536D02*
X2028909D01*
X2031553D02*
X2033119D01*
X2035942D02*
X2037598D01*
X2040690D02*
X2042348D01*
X2049468D02*
X2051126D01*
X2055470D02*
X2057128D01*
X1943139Y1733156D02*
X1947843D01*
X1951470D02*
X1952680D01*
X1956486D02*
X1960563D01*
X1964369D02*
X1965579D01*
X1969206D02*
X1973910D01*
X1984345D02*
X1986003D01*
X1988376D02*
X1990034D01*
X1993751D02*
X1995407D01*
X1998229D02*
X1999798D01*
X2002977D02*
X2004635D01*
X2012652D02*
X2017803D01*
X2021072D02*
X2022730D01*
X2026626D02*
X2029088D01*
X2031553D02*
X2033119D01*
X2035942D02*
X2037598D01*
X2040690D02*
X2042348D01*
X2049468D02*
X2051126D01*
X2055470D02*
X2057128D01*
X1943139Y1733245D02*
X1947843D01*
X1951470D02*
X1952770D01*
X1956576D02*
X1960473D01*
X1964279D02*
X1965579D01*
X1969206D02*
X1974000D01*
X1984345D02*
X1986003D01*
X1988376D02*
X1990034D01*
X1993751D02*
X1995407D01*
X1998229D02*
X1999798D01*
X2002977D02*
X2004635D01*
X2012562D02*
X2017893D01*
X2021072D02*
X2022730D01*
X2026626D02*
X2029357D01*
X2031553D02*
X2033119D01*
X2035942D02*
X2037598D01*
X2040690D02*
X2042348D01*
X2049468D02*
X2051126D01*
X2055470D02*
X2057128D01*
X1943049Y1733335D02*
X1947843D01*
X1951470D02*
X1952859D01*
X1956665D02*
X1960473D01*
X1964279D02*
X1965579D01*
X1969206D02*
X1974000D01*
X1984345D02*
X1986003D01*
X1988376D02*
X1990034D01*
X1993751D02*
X1995407D01*
X1998229D02*
X1999798D01*
X2002977D02*
X2004635D01*
X2012472D02*
X2017982D01*
X2021072D02*
X2022730D01*
X2026715D02*
X2029715D01*
X2031553D02*
X2033119D01*
X2035942D02*
X2037598D01*
X2040690D02*
X2042348D01*
X2049468D02*
X2051126D01*
X2055470D02*
X2057128D01*
X1943049Y1733424D02*
X1947843D01*
X1951470D02*
X1952859D01*
X1956665D02*
X1960384D01*
X1964190D02*
X1965579D01*
X1969206D02*
X1974089D01*
X1984345D02*
X1986003D01*
X1988376D02*
X1990034D01*
X1993751D02*
X1995407D01*
X1998229D02*
X1999798D01*
X2002977D02*
X2010368D01*
X2012383D02*
X2014668D01*
X2015787D02*
X2018072D01*
X2021072D02*
X2022730D01*
X2026805D02*
X2030074D01*
X2031553D02*
X2033119D01*
X2035942D02*
X2037598D01*
X2040690D02*
X2048170D01*
X2049468D02*
X2051126D01*
X2055470D02*
X2057128D01*
X1942960Y1733514D02*
X1947843D01*
X1951470D02*
X1952949D01*
X1956755D02*
X1960384D01*
X1964190D02*
X1965579D01*
X1969206D02*
X1974089D01*
X1984345D02*
X1986003D01*
X1988376D02*
X1990034D01*
X1993751D02*
X1995407D01*
X1998229D02*
X1999798D01*
X2002977D02*
X2010368D01*
X2012383D02*
X2014399D01*
X2015966D02*
X2018072D01*
X2021072D02*
X2022730D01*
X2026894D02*
X2030521D01*
X2031553D02*
X2033119D01*
X2035942D02*
X2037598D01*
X2040690D02*
X2048170D01*
X2049468D02*
X2051126D01*
X2055470D02*
X2057128D01*
X1942960Y1733604D02*
X1947843D01*
X1951470D02*
X1952949D01*
X1956755D02*
X1960294D01*
X1964100D02*
X1965579D01*
X1969206D02*
X1974179D01*
X1984345D02*
X1986003D01*
X1988376D02*
X1990034D01*
X1993751D02*
X1995407D01*
X1998229D02*
X1999798D01*
X2002977D02*
X2010368D01*
X2012293D02*
X2014220D01*
X2016145D02*
X2018162D01*
X2021072D02*
X2022730D01*
X2026984D02*
X2031238D01*
X2031553D02*
X2033119D01*
X2035942D02*
X2037598D01*
X2040690D02*
X2048170D01*
X2049468D02*
X2051126D01*
X2055470D02*
X2057128D01*
X1942870Y1733693D02*
X1947843D01*
X1951470D02*
X1953038D01*
X1956844D02*
X1960294D01*
X1964100D02*
X1965579D01*
X1969206D02*
X1974179D01*
X1984345D02*
X1986003D01*
X1988376D02*
X1990034D01*
X1993751D02*
X1995407D01*
X1998229D02*
X1999798D01*
X2002977D02*
X2010368D01*
X2012204D02*
X2014131D01*
X2016324D02*
X2018162D01*
X2021072D02*
X2022730D01*
X2027163D02*
X2033119D01*
X2035942D02*
X2037598D01*
X2040690D02*
X2048170D01*
X2049468D02*
X2051126D01*
X2055470D02*
X2057128D01*
X1942870Y1733783D02*
X1947843D01*
X1951470D02*
X1953038D01*
X1956844D02*
X1960204D01*
X1964011D02*
X1965579D01*
X1969206D02*
X1974179D01*
X1984345D02*
X1986003D01*
X1988376D02*
X1990034D01*
X1993751D02*
X1995407D01*
X1998229D02*
X1999798D01*
X2002977D02*
X2010368D01*
X2012204D02*
X2014041D01*
X2016414D02*
X2018251D01*
X2021072D02*
X2022730D01*
X2027253D02*
X2033119D01*
X2035942D02*
X2037598D01*
X2040690D02*
X2048170D01*
X2049468D02*
X2051126D01*
X2055470D02*
X2057128D01*
X1942781Y1733872D02*
X1947843D01*
X1951470D02*
X1953128D01*
X1956934D02*
X1960115D01*
X1963921D02*
X1965579D01*
X1969206D02*
X1974268D01*
X1984345D02*
X1986003D01*
X1988376D02*
X1990034D01*
X1993751D02*
X1995407D01*
X1998229D02*
X1999798D01*
X2002977D02*
X2010368D01*
X2012114D02*
X2013951D01*
X2016503D02*
X2018251D01*
X2021072D02*
X2022730D01*
X2027342D02*
X2033119D01*
X2035942D02*
X2037598D01*
X2040690D02*
X2048170D01*
X2049468D02*
X2051126D01*
X2055470D02*
X2057128D01*
X1942781Y1733962D02*
X1947843D01*
X1951470D02*
X1953128D01*
X1956934D02*
X1960115D01*
X1963921D02*
X1965579D01*
X1969206D02*
X1974268D01*
X1984345D02*
X1986003D01*
X1988376D02*
X1990034D01*
X1993751D02*
X1995407D01*
X1998229D02*
X1999798D01*
X2002977D02*
X2010368D01*
X2012114D02*
X2013862D01*
X2016593D02*
X2018341D01*
X2021072D02*
X2022730D01*
X2027522D02*
X2033119D01*
X2035942D02*
X2037598D01*
X2040690D02*
X2048170D01*
X2049468D02*
X2051126D01*
X2055470D02*
X2057128D01*
X1942781Y1734051D02*
X1947843D01*
X1951470D02*
X1953216D01*
X1957024D02*
X1960024D01*
X1963831D02*
X1965579D01*
X1969206D02*
X1974358D01*
X1984345D02*
X1986003D01*
X1988376D02*
X1990034D01*
X1993751D02*
X1995407D01*
X1998229D02*
X1999798D01*
X2002977D02*
X2010368D01*
X2012114D02*
X2013772D01*
X2016593D02*
X2018341D01*
X2021072D02*
X2022730D01*
X2027701D02*
X2033119D01*
X2035942D02*
X2037598D01*
X2040690D02*
X2048170D01*
X2049468D02*
X2051126D01*
X2055470D02*
X2057128D01*
X1942691Y1734141D02*
X1947843D01*
X1951470D02*
X1953305D01*
X1957113D02*
X1960024D01*
X1963831D02*
X1965579D01*
X1969206D02*
X1974358D01*
X1984345D02*
X1986003D01*
X1988376D02*
X1990034D01*
X1993751D02*
X1995407D01*
X1998229D02*
X1999798D01*
X2002977D02*
X2010368D01*
X2012025D02*
X2013772D01*
X2016683D02*
X2018430D01*
X2021072D02*
X2022730D01*
X2027880D02*
X2033119D01*
X2035942D02*
X2037598D01*
X2040690D02*
X2048170D01*
X2049468D02*
X2051216D01*
X2055470D02*
X2057128D01*
X1942691Y1734231D02*
X1947843D01*
X1951470D02*
X1953305D01*
X1957113D02*
X1959934D01*
X1963742D02*
X1965579D01*
X1969206D02*
X1974447D01*
X1984345D02*
X1986003D01*
X1988376D02*
X1990034D01*
X1993751D02*
X1995407D01*
X1998229D02*
X1999798D01*
X2002977D02*
X2010368D01*
X2012025D02*
X2013683D01*
X2016772D02*
X2018430D01*
X2021072D02*
X2022730D01*
X2028059D02*
X2033119D01*
X2035942D02*
X2037598D01*
X2040690D02*
X2048170D01*
X2049558D02*
X2051216D01*
X2055470D02*
X2057128D01*
X1942601Y1734320D02*
X1947843D01*
X1951470D02*
X1953395D01*
X1957203D02*
X1959934D01*
X1963742D02*
X1965579D01*
X1969206D02*
X1974447D01*
X1984345D02*
X1986003D01*
X1988376D02*
X1990034D01*
X1993751D02*
X1995407D01*
X1998229D02*
X1999798D01*
X2002977D02*
X2010368D01*
X2012025D02*
X2013683D01*
X2016772D02*
X2018430D01*
X2021072D02*
X2022730D01*
X2028328D02*
X2033119D01*
X2035942D02*
X2037598D01*
X2040779D02*
X2048170D01*
X2049558D02*
X2051216D01*
X2055470D02*
X2057128D01*
X1942601Y1734410D02*
X1947843D01*
X1951470D02*
X1953395D01*
X1957203D02*
X1959844D01*
X1963652D02*
X1965579D01*
X1969206D02*
X1974537D01*
X1984345D02*
X1986003D01*
X1988376D02*
X1990034D01*
X1993751D02*
X1995407D01*
X1998229D02*
X1999798D01*
X2002977D02*
X2010368D01*
X2011935D02*
X2013593D01*
X2016772D02*
X2018430D01*
X2021072D02*
X2022730D01*
X2028596D02*
X2033119D01*
X2035942D02*
X2037598D01*
X2040779D02*
X2048170D01*
X2049558D02*
X2051216D01*
X2055470D02*
X2057128D01*
X1942512Y1734499D02*
X1947843D01*
X1951470D02*
X1953484D01*
X1957292D02*
X1959844D01*
X1963652D02*
X1965579D01*
X1969206D02*
X1974537D01*
X1984345D02*
X1986003D01*
X1988376D02*
X1990034D01*
X1993751D02*
X1995407D01*
X1998229D02*
X1999798D01*
X2002977D02*
X2010368D01*
X2011935D02*
X2013593D01*
X2016862D02*
X2018520D01*
X2021072D02*
X2022730D01*
X2028865D02*
X2033119D01*
X2035942D02*
X2037598D01*
X2040779D02*
X2048081D01*
X2049558D02*
X2051216D01*
X2055470D02*
X2057128D01*
X1942512Y1734589D02*
X1947843D01*
X1951470D02*
X1953484D01*
X1957292D02*
X1959757D01*
X1963563D02*
X1965579D01*
X1969206D02*
X1974537D01*
X1984345D02*
X1986003D01*
X1988376D02*
X1990034D01*
X1993751D02*
X1995407D01*
X1998229D02*
X1999798D01*
X2002977D02*
X2010368D01*
X2011935D02*
X2013593D01*
X2016862D02*
X2018520D01*
X2021072D02*
X2022820D01*
X2029224D02*
X2033119D01*
X2035942D02*
X2037598D01*
X2040779D02*
X2048081D01*
X2049558D02*
X2051216D01*
X2055470D02*
X2057128D01*
X1942512Y1734679D02*
X1947843D01*
X1951470D02*
X1953574D01*
X1957382D02*
X1959757D01*
X1963473D02*
X1965579D01*
X1969206D02*
X1974627D01*
X1984345D02*
X1986003D01*
X1988376D02*
X1990034D01*
X1993751D02*
X1995407D01*
X1998229D02*
X1999798D01*
X2003067D02*
X2010368D01*
X2011935D02*
X2013503D01*
X2016862D02*
X2018520D01*
X2021072D02*
X2022909D01*
X2029671D02*
X2033119D01*
X2035942D02*
X2037598D01*
X2040779D02*
X2048081D01*
X2049558D02*
X2051305D01*
X2055470D02*
X2057128D01*
X1942422Y1734768D02*
X1947843D01*
X1951470D02*
X1953574D01*
X1957382D02*
X1959667D01*
X1963473D02*
X1965579D01*
X1969206D02*
X1974627D01*
X1984345D02*
X1986003D01*
X1988376D02*
X1990034D01*
X1993751D02*
X1995407D01*
X1998229D02*
X1999798D01*
X2003067D02*
X2004725D01*
X2008710D02*
X2010368D01*
X2011935D02*
X2013503D01*
X2016951D02*
X2018520D01*
X2021072D02*
X2022909D01*
X2030119D02*
X2033119D01*
X2035942D02*
X2037598D01*
X2040779D02*
X2042437D01*
X2046512D02*
X2048081D01*
X2049558D02*
X2051305D01*
X2055470D02*
X2057128D01*
X1942422Y1734858D02*
X1947843D01*
X1951470D02*
X1953663D01*
X1957471D02*
X1959577D01*
X1963384D02*
X1965579D01*
X1969206D02*
X1974627D01*
X1984345D02*
X1986003D01*
X1988376D02*
X1990034D01*
X1993751D02*
X1995407D01*
X1998229D02*
X1999798D01*
X2003067D02*
X2004725D01*
X2008710D02*
X2010279D01*
X2011935D02*
X2013503D01*
X2016951D02*
X2018520D01*
X2021072D02*
X2022999D01*
X2030746D02*
X2033119D01*
X2035942D02*
X2037598D01*
X2040779D02*
X2042437D01*
X2046423D02*
X2048081D01*
X2049647D02*
X2051305D01*
X2055470D02*
X2057128D01*
X1942333Y1734947D02*
X1947843D01*
X1951470D02*
X1953753D01*
X1957471D02*
X1959577D01*
X1963384D02*
X1965579D01*
X1969206D02*
X1974716D01*
X1984345D02*
X1986003D01*
X1988376D02*
X1990034D01*
X1993751D02*
X1995407D01*
X1998229D02*
X1999798D01*
X2003067D02*
X2004725D01*
X2008710D02*
X2010279D01*
X2011935D02*
X2013503D01*
X2016951D02*
X2018520D01*
X2021072D02*
X2023088D01*
X2031463D02*
X2033119D01*
X2035942D02*
X2037598D01*
X2040869D02*
X2042527D01*
X2046423D02*
X2048081D01*
X2049647D02*
X2051305D01*
X2055470D02*
X2057128D01*
X1942333Y1735037D02*
X1947843D01*
X1951470D02*
X1953753D01*
X1957561D02*
X1959488D01*
X1963294D02*
X1965579D01*
X1969206D02*
X1974716D01*
X1984345D02*
X1986003D01*
X1988376D02*
X1990034D01*
X1993751D02*
X1995407D01*
X1998229D02*
X1999798D01*
X2003067D02*
X2004725D01*
X2008621D02*
X2010279D01*
X2011935D02*
X2013503D01*
X2016951D02*
X2018520D01*
X2021072D02*
X2023088D01*
X2031553D02*
X2033119D01*
X2035942D02*
X2037598D01*
X2040869D02*
X2042527D01*
X2046423D02*
X2048081D01*
X2049647D02*
X2051395D01*
X2055470D02*
X2057128D01*
X1942333Y1735126D02*
X1947843D01*
X1951470D02*
X1953843D01*
X1957651D02*
X1959488D01*
X1963294D02*
X1965579D01*
X1969206D02*
X1974806D01*
X1984345D02*
X1986003D01*
X1988376D02*
X1990034D01*
X1993751D02*
X1995407D01*
X1998229D02*
X1999798D01*
X2003156D02*
X2004814D01*
X2008621D02*
X2010279D01*
X2011935D02*
X2013503D01*
X2016951D02*
X2018520D01*
X2021072D02*
X2023178D01*
X2031553D02*
X2033119D01*
X2035942D02*
X2037598D01*
X2040869D02*
X2042527D01*
X2046423D02*
X2047991D01*
X2049647D02*
X2051395D01*
X2055470D02*
X2057128D01*
X1942243Y1735216D02*
X1947843D01*
X1951470D02*
X1953843D01*
X1957651D02*
X1959398D01*
X1963204D02*
X1965579D01*
X1969206D02*
X1974806D01*
X1984345D02*
X1986003D01*
X1988376D02*
X1990034D01*
X1993751D02*
X1995407D01*
X1998229D02*
X1999798D01*
X2003156D02*
X2004814D01*
X2008621D02*
X2010279D01*
X2011935D02*
X2013503D01*
X2016951D02*
X2018520D01*
X2021072D02*
X2023267D01*
X2031553D02*
X2033119D01*
X2035942D02*
X2037598D01*
X2040869D02*
X2042616D01*
X2046333D02*
X2047991D01*
X2049737D02*
X2051485D01*
X2055470D02*
X2057128D01*
X1942243Y1735306D02*
X1947843D01*
X1951470D02*
X1953932D01*
X1957740D02*
X1959398D01*
X1963204D02*
X1965579D01*
X1969206D02*
X1974806D01*
X1984345D02*
X1986003D01*
X1988376D02*
X1990124D01*
X1993751D02*
X1995407D01*
X1998229D02*
X1999798D01*
X2003156D02*
X2004814D01*
X2008621D02*
X2010189D01*
X2011935D02*
X2013503D01*
X2016951D02*
X2018520D01*
X2021072D02*
X2023357D01*
X2031553D02*
X2033119D01*
X2035942D02*
X2037598D01*
X2040958D02*
X2042616D01*
X2046333D02*
X2047991D01*
X2049737D02*
X2051485D01*
X2055470D02*
X2057128D01*
X1942243Y1735395D02*
X1947843D01*
X1951470D02*
X1953932D01*
X1957740D02*
X1959309D01*
X1963115D02*
X1965579D01*
X1969206D02*
X1974895D01*
X1984345D02*
X1986003D01*
X1988376D02*
X1990213D01*
X1993751D02*
X1995407D01*
X1998229D02*
X1999798D01*
X2003156D02*
X2004904D01*
X2008531D02*
X2010189D01*
X2011935D02*
X2013503D01*
X2016951D02*
X2018520D01*
X2021072D02*
X2023447D01*
X2031553D02*
X2033119D01*
X2035942D02*
X2037598D01*
X2040958D02*
X2042616D01*
X2046333D02*
X2047991D01*
X2049737D02*
X2051485D01*
X2055470D02*
X2057128D01*
X1942154Y1735485D02*
X1947843D01*
X1951470D02*
X1954022D01*
X1957830D02*
X1959309D01*
X1963025D02*
X1965579D01*
X1969206D02*
X1974895D01*
X1984345D02*
X1986003D01*
X1988376D02*
X1990303D01*
X1993751D02*
X1995407D01*
X1998229D02*
X1999798D01*
X2003246D02*
X2004904D01*
X2008531D02*
X2010189D01*
X2011935D02*
X2013503D01*
X2016951D02*
X2018520D01*
X2021072D02*
X2023536D01*
X2031463D02*
X2033119D01*
X2035942D02*
X2037598D01*
X2040958D02*
X2042706D01*
X2046243D02*
X2047901D01*
X2049826D02*
X2051574D01*
X2055470D02*
X2057128D01*
X1942154Y1735574D02*
X1947843D01*
X1951470D02*
X1954022D01*
X1957830D02*
X1959219D01*
X1963025D02*
X1965579D01*
X1969206D02*
X1974895D01*
X1984345D02*
X1986003D01*
X1988376D02*
X1990392D01*
X1993751D02*
X1995407D01*
X1998229D02*
X1999798D01*
X2003246D02*
X2004994D01*
X2008531D02*
X2010189D01*
X2011935D02*
X2013593D01*
X2016862D02*
X2018520D01*
X2021072D02*
X2023626D01*
X2031463D02*
X2033119D01*
X2035942D02*
X2037598D01*
X2041048D02*
X2042706D01*
X2046243D02*
X2047901D01*
X2049826D02*
X2051664D01*
X2055470D02*
X2057128D01*
X1942154Y1735664D02*
X1947843D01*
X1951470D02*
X1954111D01*
X1957919D02*
X1959130D01*
X1962936D02*
X1965579D01*
X1969206D02*
X1974985D01*
X1984345D02*
X1986003D01*
X1988376D02*
X1990482D01*
X1993661D02*
X1995407D01*
X1998229D02*
X1999798D01*
X2003246D02*
X2004994D01*
X2008441D02*
X2010100D01*
X2011935D02*
X2013593D01*
X2016862D02*
X2018520D01*
X2021072D02*
X2023715D01*
X2031463D02*
X2033119D01*
X2035942D02*
X2037598D01*
X2041048D02*
X2042796D01*
X2046243D02*
X2047901D01*
X2049826D02*
X2051664D01*
X2055470D02*
X2057128D01*
X1942064Y1735753D02*
X1947843D01*
X1951470D02*
X1954201D01*
X1957919D02*
X1959130D01*
X1962936D02*
X1965579D01*
X1969206D02*
X1974985D01*
X1984345D02*
X1986003D01*
X1988376D02*
X1990571D01*
X1993661D02*
X1995407D01*
X1998229D02*
X1999798D01*
X2003335D02*
X2005083D01*
X2008441D02*
X2010100D01*
X2011935D02*
X2013593D01*
X2016862D02*
X2018520D01*
X2021072D02*
X2023895D01*
X2031463D02*
X2033119D01*
X2035942D02*
X2037598D01*
X2041048D02*
X2042796D01*
X2046154D02*
X2047901D01*
X2049916D02*
X2051753D01*
X2055470D02*
X2057128D01*
X1942064Y1735843D02*
X1947843D01*
X1951470D02*
X1954201D01*
X1958009D02*
X1959040D01*
X1962846D02*
X1965579D01*
X1969206D02*
X1974985D01*
X1984345D02*
X1986003D01*
X1988376D02*
X1990661D01*
X1993661D02*
X1995407D01*
X1998229D02*
X1999798D01*
X2003335D02*
X2005083D01*
X2008352D02*
X2010100D01*
X2011935D02*
X2013683D01*
X2016772D02*
X2018430D01*
X2021072D02*
X2023984D01*
X2031463D02*
X2033119D01*
X2035942D02*
X2037598D01*
X2041137D02*
X2042885D01*
X2046154D02*
X2047812D01*
X2049916D02*
X2051843D01*
X2055470D02*
X2057128D01*
X1942064Y1735933D02*
X1947843D01*
X1951470D02*
X1954291D01*
X1958098D02*
X1959040D01*
X1962846D02*
X1965579D01*
X1969206D02*
X1975074D01*
X1984345D02*
X1986003D01*
X1988376D02*
X1990840D01*
X1993571D02*
X1995407D01*
X1998229D02*
X1999798D01*
X2003425D02*
X2005173D01*
X2008352D02*
X2010010D01*
X2012025D02*
X2013683D01*
X2016772D02*
X2018430D01*
X2021072D02*
X2024163D01*
X2031373D02*
X2033119D01*
X2035942D02*
X2037598D01*
X2041137D02*
X2042885D01*
X2046064D02*
X2047812D01*
X2050006D02*
X2051843D01*
X2055470D02*
X2057128D01*
X1941974Y1736022D02*
X1947843D01*
X1951470D02*
X1954291D01*
X1958098D02*
X1958950D01*
X1962757D02*
X1965579D01*
X1969206D02*
X1975074D01*
X1984345D02*
X1986003D01*
X1988376D02*
X1990930D01*
X1993571D02*
X1995407D01*
X1998229D02*
X1999798D01*
X2003425D02*
X2005262D01*
X2008262D02*
X2010010D01*
X2012025D02*
X2013772D01*
X2016683D02*
X2018430D01*
X2021072D02*
X2024253D01*
X2026894D02*
X2027209D01*
X2031373D02*
X2033119D01*
X2035942D02*
X2037598D01*
X2041227D02*
X2042975D01*
X2045975D02*
X2047722D01*
X2050006D02*
X2051932D01*
X2055470D02*
X2057128D01*
X1941974Y1736112D02*
X1947843D01*
X1951470D02*
X1954380D01*
X1958188D02*
X1958950D01*
X1962757D02*
X1965579D01*
X1969206D02*
X1975074D01*
X1984345D02*
X1986003D01*
X1988376D02*
X1991019D01*
X1993482D02*
X1995407D01*
X1998229D02*
X1999798D01*
X2003515D02*
X2005262D01*
X2008173D02*
X2009920D01*
X2012025D02*
X2013772D01*
X2016683D02*
X2018341D01*
X2021072D02*
X2024432D01*
X2026894D02*
X2027388D01*
X2031284D02*
X2033119D01*
X2035942D02*
X2037598D01*
X2041227D02*
X2043064D01*
X2045975D02*
X2047722D01*
X2050095D02*
X2052022D01*
X2055470D02*
X2057128D01*
X1941974Y1736201D02*
X1947843D01*
X1951470D02*
X1954380D01*
X1958188D02*
X1958861D01*
X1962667D02*
X1965579D01*
X1969206D02*
X1975074D01*
X1984345D02*
X1986003D01*
X1988376D02*
X1991199D01*
X1993482D02*
X1995317D01*
X1998229D02*
X1999798D01*
X2003515D02*
X2005352D01*
X2008083D02*
X2009920D01*
X2012114D02*
X2013862D01*
X2016593D02*
X2018341D01*
X2021072D02*
X2024611D01*
X2026894D02*
X2027657D01*
X2031194D02*
X2033119D01*
X2035942D02*
X2037598D01*
X2041317D02*
X2043154D01*
X2045885D02*
X2047633D01*
X2050095D02*
X2052201D01*
X2055380D02*
X2057128D01*
X1941974Y1736291D02*
X1947843D01*
X1951470D02*
X1954470D01*
X1958278D02*
X1958861D01*
X1962667D02*
X1965579D01*
X1969206D02*
X1975164D01*
X1984345D02*
X1986003D01*
X1988376D02*
X1991378D01*
X1993392D02*
X1995317D01*
X1998229D02*
X1999798D01*
X2003604D02*
X2005441D01*
X2007994D02*
X2009831D01*
X2012114D02*
X2013951D01*
X2016503D02*
X2018341D01*
X2021072D02*
X2024790D01*
X2026894D02*
X2027836D01*
X2031105D02*
X2033030D01*
X2035942D02*
X2037598D01*
X2041317D02*
X2043243D01*
X2045795D02*
X2047633D01*
X2050185D02*
X2052291D01*
X2055201D02*
X2057128D01*
X1941885Y1736381D02*
X1947843D01*
X1951470D02*
X1954470D01*
X1958278D02*
X1958769D01*
X1962577D02*
X1965579D01*
X1969206D02*
X1975164D01*
X1984345D02*
X1986003D01*
X1988376D02*
X1991557D01*
X1993213D02*
X1995317D01*
X1998229D02*
X1999798D01*
X2003604D02*
X2005621D01*
X2007904D02*
X2009831D01*
X2012204D02*
X2014041D01*
X2016414D02*
X2018251D01*
X2021072D02*
X2025149D01*
X2026894D02*
X2028103D01*
X2031015D02*
X2033030D01*
X2035942D02*
X2037598D01*
X2041406D02*
X2043333D01*
X2045706D02*
X2047543D01*
X2050185D02*
X2052470D01*
X2054932D02*
X2057128D01*
X1941885Y1736470D02*
X1947843D01*
X1951470D02*
X1954559D01*
X1958367D02*
X1958680D01*
X1962488D02*
X1965579D01*
X1969206D02*
X1975164D01*
X1984345D02*
X1986003D01*
X1988376D02*
X1991736D01*
X1993124D02*
X1995317D01*
X1998229D02*
X1999798D01*
X2003694D02*
X2005710D01*
X2007814D02*
X2009741D01*
X2012204D02*
X2014131D01*
X2016324D02*
X2019057D01*
X2021072D02*
X2022551D01*
X2022774D02*
X2025507D01*
X2026805D02*
X2028461D01*
X2030926D02*
X2033030D01*
X2035942D02*
X2037598D01*
X2041406D02*
X2043423D01*
X2045527D02*
X2047543D01*
X2050274D02*
X2052649D01*
X2054664D02*
X2057128D01*
X1941885Y1736560D02*
X1947843D01*
X1951470D02*
X1954649D01*
X1958367D02*
X1958680D01*
X1962488D02*
X1965579D01*
X1969206D02*
X1975252D01*
X1984345D02*
X1986003D01*
X1988376D02*
X1992094D01*
X1992855D02*
X1995228D01*
X1996796D02*
X2001948D01*
X2003694D02*
X2005889D01*
X2007635D02*
X2009741D01*
X2012293D02*
X2014220D01*
X2016235D02*
X2019864D01*
X2021072D02*
X2022551D01*
X2022863D02*
X2025865D01*
X2026805D02*
X2028820D01*
X2030657D02*
X2032940D01*
X2034509D02*
X2039660D01*
X2041496D02*
X2043602D01*
X2045437D02*
X2047454D01*
X2050364D02*
X2052918D01*
X2054216D02*
X2057128D01*
X1941885Y1736649D02*
X1947843D01*
X1951470D02*
X1954649D01*
X1958457D02*
X1958592D01*
X1962398D02*
X1965579D01*
X1969206D02*
X1975252D01*
X1984345D02*
X1986003D01*
X1988376D02*
X1995228D01*
X1996796D02*
X2001948D01*
X2003783D02*
X2006069D01*
X2007456D02*
X2009652D01*
X2012293D02*
X2014310D01*
X2016056D02*
X2019864D01*
X2021072D02*
X2022551D01*
X2022863D02*
X2025865D01*
X2026805D02*
X2029447D01*
X2030298D02*
X2032940D01*
X2034509D02*
X2039660D01*
X2041585D02*
X2043781D01*
X2045258D02*
X2047454D01*
X2050454D02*
X2057128D01*
X1941795Y1736739D02*
X1947843D01*
X1951470D02*
X1954738D01*
X1958546D02*
X1958592D01*
X1962398D02*
X1965579D01*
X1969206D02*
X1975252D01*
X1984345D02*
X1986003D01*
X1988376D02*
X1995228D01*
X1996796D02*
X2001948D01*
X2003873D02*
X2006337D01*
X2007187D02*
X2009562D01*
X2012383D02*
X2014578D01*
X2015876D02*
X2019774D01*
X2021072D02*
X2022551D01*
X2022953D02*
X2025865D01*
X2026805D02*
X2032940D01*
X2034509D02*
X2039660D01*
X2041585D02*
X2044139D01*
X2044900D02*
X2047364D01*
X2050454D02*
X2057128D01*
X1941795Y1736828D02*
X1947843D01*
X1951470D02*
X1954738D01*
X1962309D02*
X1965579D01*
X1969206D02*
X1975252D01*
X1984345D02*
X1986003D01*
X1988376D02*
X1989855D01*
X1989988D02*
X1995138D01*
X1996796D02*
X2001948D01*
X2003962D02*
X2009562D01*
X2012383D02*
X2014847D01*
X2015608D02*
X2019774D01*
X2021072D02*
X2022551D01*
X2023043D02*
X2025865D01*
X2026805D02*
X2032851D01*
X2034509D02*
X2039660D01*
X2041675D02*
X2047274D01*
X2050543D02*
X2057128D01*
X1941795Y1736918D02*
X1947843D01*
X1951470D02*
X1954828D01*
X1962309D02*
X1965579D01*
X1969206D02*
X1975341D01*
X1984345D02*
X1986003D01*
X1988376D02*
X1989855D01*
X1990078D02*
X1995138D01*
X1996796D02*
X2001948D01*
X2004052D02*
X2009472D01*
X2012472D02*
X2019774D01*
X2021072D02*
X2022551D01*
X2023132D02*
X2025865D01*
X2026805D02*
X2032851D01*
X2034509D02*
X2039660D01*
X2041764D02*
X2047274D01*
X2050633D02*
X2057128D01*
X1941795Y1737008D02*
X1947843D01*
X1951470D02*
X1954828D01*
X1962219D02*
X1965579D01*
X1969206D02*
X1975341D01*
X1984345D02*
X1986003D01*
X1988376D02*
X1989855D01*
X1990167D02*
X1995049D01*
X1996796D02*
X2001948D01*
X2004052D02*
X2009383D01*
X2012562D02*
X2019774D01*
X2021072D02*
X2022551D01*
X2023222D02*
X2025776D01*
X2026805D02*
X2032761D01*
X2034509D02*
X2039660D01*
X2041854D02*
X2047185D01*
X2050722D02*
X2057128D01*
X1941706Y1737097D02*
X1947843D01*
X1951470D02*
X1954918D01*
X1962219D02*
X1965579D01*
X1969206D02*
X1975341D01*
X1984345D02*
X1986003D01*
X1988376D02*
X1989855D01*
X1990347D02*
X1995049D01*
X1996796D02*
X2001948D01*
X2004142D02*
X2009293D01*
X2012652D02*
X2019774D01*
X2021072D02*
X2022461D01*
X2023311D02*
X2025776D01*
X2026715D02*
X2032761D01*
X2034509D02*
X2039660D01*
X2041944D02*
X2047095D01*
X2050812D02*
X2057128D01*
X1941706Y1737187D02*
X1947843D01*
X1951470D02*
X1954918D01*
X1962130D02*
X1965579D01*
X1969206D02*
X1975341D01*
X1984345D02*
X1986003D01*
X1988376D02*
X1989855D01*
X1990436D02*
X1994959D01*
X1996796D02*
X2001948D01*
X2004231D02*
X2009204D01*
X2012741D02*
X2019774D01*
X2021072D02*
X2022461D01*
X2023401D02*
X2025776D01*
X2026715D02*
X2032671D01*
X2034509D02*
X2039660D01*
X2042033D02*
X2047006D01*
X2050901D02*
X2057128D01*
X1941706Y1737276D02*
X1947843D01*
X1951470D02*
X1955007D01*
X1962040D02*
X1965579D01*
X1969206D02*
X1975341D01*
X1984345D02*
X1986003D01*
X1988376D02*
X1989765D01*
X1990526D02*
X1994869D01*
X1996796D02*
X2001948D01*
X2004410D02*
X2009114D01*
X2012831D02*
X2019684D01*
X2021072D02*
X2022461D01*
X2023491D02*
X2025776D01*
X2026715D02*
X2032582D01*
X2034509D02*
X2039660D01*
X2042123D02*
X2046916D01*
X2050991D02*
X2057128D01*
X1941706Y1737366D02*
X1947843D01*
X1951470D02*
X1955099D01*
X1962040D02*
X1965579D01*
X1969206D02*
X1975431D01*
X1984345D02*
X1986003D01*
X1988376D02*
X1989765D01*
X1990705D02*
X1994869D01*
X1996796D02*
X2001948D01*
X2004500D02*
X2009025D01*
X2012920D02*
X2019684D01*
X2021072D02*
X2022461D01*
X2023580D02*
X2025776D01*
X2026715D02*
X2032492D01*
X2034509D02*
X2039660D01*
X2042212D02*
X2046827D01*
X2051170D02*
X2057128D01*
X1941616Y1737455D02*
X1947843D01*
X1951470D02*
X1955099D01*
X1961950D02*
X1965579D01*
X1969206D02*
X1975431D01*
X1984345D02*
X1986003D01*
X1988376D02*
X1989765D01*
X1990795D02*
X1994780D01*
X1996796D02*
X2001948D01*
X2004590D02*
X2008935D01*
X2013010D02*
X2017355D01*
X2017578D02*
X2019684D01*
X2021072D02*
X2022461D01*
X2023759D02*
X2025776D01*
X2026805D02*
X2032403D01*
X2034509D02*
X2039660D01*
X2042392D02*
X2046647D01*
X2051260D02*
X2057128D01*
X1941616Y1737545D02*
X1947843D01*
X1951470D02*
X1955188D01*
X1961950D02*
X1965579D01*
X1969206D02*
X1975431D01*
X1984345D02*
X1986003D01*
X1988376D02*
X1989765D01*
X1990974D02*
X1994690D01*
X1996796D02*
X2001948D01*
X2004679D02*
X2008756D01*
X2013189D02*
X2017266D01*
X2017847D02*
X2019684D01*
X2021072D02*
X2022461D01*
X2023849D02*
X2025686D01*
X2027074D02*
X2032313D01*
X2034509D02*
X2039660D01*
X2042481D02*
X2046558D01*
X2051439D02*
X2057128D01*
X1941616Y1737635D02*
X1947843D01*
X1951470D02*
X1955188D01*
X1961861D02*
X1965579D01*
X1969206D02*
X1975431D01*
X1984345D02*
X1986003D01*
X1988376D02*
X1989765D01*
X1991063D02*
X1994511D01*
X1996796D02*
X2001948D01*
X2004858D02*
X2008666D01*
X2013279D02*
X2017087D01*
X2018116D02*
X2019684D01*
X2021072D02*
X2022372D01*
X2024028D02*
X2025686D01*
X2027342D02*
X2032134D01*
X2034509D02*
X2039660D01*
X2042660D02*
X2046379D01*
X2051618D02*
X2057128D01*
X1941616Y1737724D02*
X1947843D01*
X1951470D02*
X1955278D01*
X1961861D02*
X1965579D01*
X1969206D02*
X1975431D01*
X1984345D02*
X1986003D01*
X1988376D02*
X1989765D01*
X1991242D02*
X1994422D01*
X1996796D02*
X2001948D01*
X2005037D02*
X2008487D01*
X2013458D02*
X2016907D01*
X2018385D02*
X2019684D01*
X2021072D02*
X2022372D01*
X2024118D02*
X2025686D01*
X2027611D02*
X2032044D01*
X2034509D02*
X2039660D01*
X2042750D02*
X2046289D01*
X2051797D02*
X2057128D01*
X1941616Y1737814D02*
X1947843D01*
X1951470D02*
X1955278D01*
X1961771D02*
X1965579D01*
X1969206D02*
X1975521D01*
X1984345D02*
X1986003D01*
X1988376D02*
X1989676D01*
X1991511D02*
X1994242D01*
X1996796D02*
X2001948D01*
X2005217D02*
X2008308D01*
X2013637D02*
X2016728D01*
X2018743D02*
X2019595D01*
X2021072D02*
X2022372D01*
X2024297D02*
X2025686D01*
X2027880D02*
X2031865D01*
X2034509D02*
X2039660D01*
X2042929D02*
X2046110D01*
X2051976D02*
X2055157D01*
X2055470D02*
X2057128D01*
X1941616Y1737903D02*
X1947843D01*
X1951470D02*
X1955365D01*
X1961771D02*
X1965579D01*
X1969206D02*
X1975521D01*
X1984345D02*
X1986003D01*
X1988376D02*
X1989676D01*
X1991690D02*
X1994063D01*
X1996796D02*
X2001948D01*
X2005396D02*
X2008129D01*
X2013906D02*
X2016549D01*
X2019012D02*
X2019595D01*
X2021072D02*
X2022372D01*
X2024565D02*
X2025686D01*
X2028149D02*
X2031596D01*
X2034509D02*
X2039660D01*
X2043198D02*
X2045841D01*
X2052245D02*
X2054799D01*
X2055470D02*
X2057128D01*
X1941527Y1737993D02*
X1947843D01*
X1951470D02*
X1955365D01*
X1961682D02*
X1965579D01*
X1969206D02*
X1975521D01*
X1991959D02*
X1993884D01*
X1998229D02*
X1999798D01*
X2005754D02*
X2007770D01*
X2014174D02*
X2016280D01*
X2019280D02*
X2019595D01*
X2024834D02*
X2025686D01*
X2028596D02*
X2031328D01*
X2035942D02*
X2037598D01*
X2043466D02*
X2045572D01*
X2052603D02*
X2054262D01*
X2055470D02*
X2057128D01*
X1941527Y1738083D02*
X1947843D01*
X1951470D02*
X1955455D01*
X1961592D02*
X1965579D01*
X1969206D02*
X1975521D01*
X1992407D02*
X1993436D01*
X1998229D02*
X1999798D01*
X2006112D02*
X2007323D01*
X2014622D02*
X2015833D01*
X2025193D02*
X2025597D01*
X2029224D02*
X2030790D01*
X2035942D02*
X2037598D01*
X2043914D02*
X2045125D01*
X2055470D02*
X2057128D01*
X1941527Y1738172D02*
X1947843D01*
X1951470D02*
X1955545D01*
X1961592D02*
X1965579D01*
X1969206D02*
X1975521D01*
X1998229D02*
X1999798D01*
X2035942D02*
X2037598D01*
X2055470D02*
X2057128D01*
X1941527Y1738262D02*
X1947843D01*
X1951470D02*
X1955545D01*
X1961502D02*
X1965579D01*
X1969206D02*
X1975521D01*
X1998229D02*
X1999798D01*
X2035942D02*
X2037598D01*
X2055470D02*
X2057128D01*
X1941527Y1738351D02*
X1947843D01*
X1951470D02*
X1955634D01*
X1961502D02*
X1965579D01*
X1969206D02*
X1975610D01*
X1998229D02*
X1999798D01*
X2035942D02*
X2037598D01*
X2055470D02*
X2057128D01*
X1941527Y1738441D02*
X1947843D01*
X1951470D02*
X1955634D01*
X1961413D02*
X1965579D01*
X1969206D02*
X1975610D01*
X1998229D02*
X1999798D01*
X2035942D02*
X2037598D01*
X2055470D02*
X2057128D01*
X1941437Y1738530D02*
X1947843D01*
X1951470D02*
X1955724D01*
X1961413D02*
X1965579D01*
X1969206D02*
X1975610D01*
X1998229D02*
X1999798D01*
X2035942D02*
X2037598D01*
X2055470D02*
X2057128D01*
X1941437Y1738620D02*
X1947843D01*
X1951470D02*
X1955724D01*
X1961323D02*
X1965579D01*
X1969206D02*
X1975610D01*
X1998229D02*
X1999798D01*
X2035942D02*
X2037598D01*
X2055470D02*
X2057128D01*
X1941437Y1738710D02*
X1947843D01*
X1951470D02*
X1955813D01*
X1961323D02*
X1965579D01*
X1969206D02*
X1975610D01*
X1998229D02*
X1999798D01*
X2035942D02*
X2037598D01*
X2055470D02*
X2057128D01*
X1941437Y1738799D02*
X1947843D01*
X1951470D02*
X1955813D01*
X1961234D02*
X1965579D01*
X1969206D02*
X1975610D01*
X1998229D02*
X1999798D01*
X2035942D02*
X2037598D01*
X2055470D02*
X2057128D01*
X1941437Y1738889D02*
X1947843D01*
X1951470D02*
X1955903D01*
X1961144D02*
X1965579D01*
X1969206D02*
X1975610D01*
X1998229D02*
X1999798D01*
X2035942D02*
X2037598D01*
X2055470D02*
X2057128D01*
X1941437Y1738978D02*
X1947843D01*
X1951470D02*
X1955992D01*
X1961144D02*
X1965579D01*
X1969206D02*
X1975700D01*
X1998229D02*
X1999798D01*
X2035942D02*
X2037598D01*
X2055470D02*
X2057128D01*
X1941437Y1739068D02*
X1947843D01*
X1951470D02*
X1955992D01*
X1961055D02*
X1965579D01*
X1969206D02*
X1975700D01*
X1998229D02*
X1999798D01*
X2035942D02*
X2037598D01*
X2055470D02*
X2057128D01*
X1941437Y1739157D02*
X1947843D01*
X1951470D02*
X1956082D01*
X1961055D02*
X1965579D01*
X1969206D02*
X1975700D01*
X1998229D02*
X1999798D01*
X2035942D02*
X2037598D01*
X2055470D02*
X2057128D01*
X1941347Y1739247D02*
X1947843D01*
X1951470D02*
X1956082D01*
X1960965D02*
X1965579D01*
X1969206D02*
X1975700D01*
X1998229D02*
X1999798D01*
X2035942D02*
X2037598D01*
X2055470D02*
X2057128D01*
X1941347Y1739337D02*
X1947843D01*
X1951470D02*
X1956172D01*
X1960965D02*
X1965579D01*
X1969206D02*
X1975700D01*
X1998229D02*
X1999798D01*
X2035942D02*
X2037598D01*
X2055470D02*
X2057128D01*
X1941347Y1739426D02*
X1947843D01*
X1951470D02*
X1956172D01*
X1960875D02*
X1965579D01*
X1969206D02*
X1975700D01*
X1998229D02*
X1999798D01*
X2035942D02*
X2037598D01*
X2055470D02*
X2057128D01*
X1941347Y1739516D02*
X1947843D01*
X1951470D02*
X1956261D01*
X1960875D02*
X1965579D01*
X1969206D02*
X1975700D01*
X1998229D02*
X1999798D01*
X2035942D02*
X2037598D01*
X2055470D02*
X2057128D01*
X1941347Y1739605D02*
X1947843D01*
X1951470D02*
X1956261D01*
X1960786D02*
X1965579D01*
X1969206D02*
X1975700D01*
X1984882D02*
X1985466D01*
X1998229D02*
X1999798D01*
X2035942D02*
X2037598D01*
X2055470D02*
X2057128D01*
X1941347Y1739695D02*
X1947843D01*
X1951470D02*
X1956353D01*
X1960696D02*
X1965579D01*
X1969206D02*
X1975700D01*
X1984614D02*
X1985645D01*
X1998229D02*
X1999798D01*
X2035942D02*
X2037598D01*
X2055470D02*
X2057128D01*
X1941347Y1739784D02*
X1947843D01*
X1951470D02*
X1956442D01*
X1960696D02*
X1965579D01*
X1969206D02*
X1975700D01*
X1984524D02*
X1985824D01*
X1998229D02*
X1999798D01*
X2035942D02*
X2037598D01*
X2055470D02*
X2057128D01*
X1941347Y1739874D02*
X1947843D01*
X1951470D02*
X1956442D01*
X1960607D02*
X1965579D01*
X1969206D02*
X1975700D01*
X1984434D02*
X1985913D01*
X1998229D02*
X1999798D01*
X2035942D02*
X2037598D01*
X2055470D02*
X2057128D01*
X1941347Y1739964D02*
X1947843D01*
X1951470D02*
X1956530D01*
X1960607D02*
X1965579D01*
X1969206D02*
X1975700D01*
X1984345D02*
X1986003D01*
X1998229D02*
X1999798D01*
X2035942D02*
X2037598D01*
X2055470D02*
X2057128D01*
X1941347Y1740053D02*
X1947843D01*
X1951470D02*
X1956530D01*
X1960517D02*
X1965579D01*
X1969206D02*
X1975789D01*
X1984255D02*
X1986003D01*
X1998229D02*
X1999798D01*
X2035942D02*
X2037598D01*
X2055470D02*
X2057128D01*
X1941347Y1740143D02*
X1947843D01*
X1951470D02*
X1956620D01*
X1960517D02*
X1965579D01*
X1969206D02*
X1975789D01*
X1984255D02*
X1986093D01*
X1998229D02*
X1999798D01*
X2035942D02*
X2037598D01*
X2055470D02*
X2057128D01*
X1941347Y1740232D02*
X1947843D01*
X1951470D02*
X1956620D01*
X1960428D02*
X1965579D01*
X1969206D02*
X1975789D01*
X1984166D02*
X1986093D01*
X1998229D02*
X1999798D01*
X2035942D02*
X2037598D01*
X2055470D02*
X2057128D01*
X1941347Y1740322D02*
X1947843D01*
X1951470D02*
X1956709D01*
X1960428D02*
X1965579D01*
X1969206D02*
X1975789D01*
X1984166D02*
X1986182D01*
X1998229D02*
X1999798D01*
X2035942D02*
X2037598D01*
X2055470D02*
X2057128D01*
X1941347Y1740412D02*
X1947843D01*
X1951470D02*
X1956709D01*
X1960517D02*
X1965579D01*
X1969206D02*
X1975789D01*
X1984166D02*
X1986182D01*
X1998229D02*
X1999798D01*
X2035942D02*
X2037598D01*
X2055470D02*
X2057128D01*
X1941347Y1740501D02*
X1947843D01*
X1951470D02*
X1956799D01*
X1960607D02*
X1965579D01*
X1969206D02*
X1975789D01*
X1984076D02*
X1986182D01*
X1998229D02*
X1999798D01*
X2035942D02*
X2037598D01*
X2055470D02*
X2057128D01*
X1941347Y1740591D02*
X1947843D01*
X1951470D02*
X1956888D01*
X1960607D02*
X1965579D01*
X1969206D02*
X1975789D01*
X1984076D02*
X1986182D01*
X1998229D02*
X1999798D01*
X2035942D02*
X2037598D01*
X2055470D02*
X2057128D01*
X1941347Y1740680D02*
X1947843D01*
X1951470D02*
X1956888D01*
X1960696D02*
X1965579D01*
X1969206D02*
X1975789D01*
X1984076D02*
X1986182D01*
X2055470D02*
X2057128D01*
X1941347Y1740770D02*
X1947843D01*
X1951470D02*
X1956980D01*
X1960696D02*
X1965579D01*
X1969206D02*
X1975789D01*
X1984166D02*
X1986182D01*
X2055470D02*
X2057128D01*
X1941347Y1740859D02*
X1947843D01*
X1951470D02*
X1956980D01*
X1960786D02*
X1965579D01*
X1969206D02*
X1975789D01*
X1984166D02*
X1986182D01*
X2055470D02*
X2057128D01*
X1941347Y1740949D02*
X1947843D01*
X1951470D02*
X1957067D01*
X1960786D02*
X1965579D01*
X1969206D02*
X1975789D01*
X1984166D02*
X1986182D01*
X2055470D02*
X2057128D01*
X1941347Y1741039D02*
X1947843D01*
X1951470D02*
X1957067D01*
X1960875D02*
X1965579D01*
X1969206D02*
X1975789D01*
X1984166D02*
X1986093D01*
X2055470D02*
X2057128D01*
X1941347Y1741128D02*
X1947843D01*
X1951470D02*
X1957157D01*
X1960875D02*
X1965579D01*
X1969206D02*
X1975789D01*
X1984255D02*
X1986093D01*
X2055470D02*
X2057128D01*
X1941347Y1741218D02*
X1947843D01*
X1951470D02*
X1957157D01*
X1960965D02*
X1965579D01*
X1969206D02*
X1975789D01*
X1984255D02*
X1986003D01*
X2055470D02*
X2057128D01*
X1941347Y1741307D02*
X1947843D01*
X1951470D02*
X1957248D01*
X1961055D02*
X1965579D01*
X1969206D02*
X1975789D01*
X1984345D02*
X1986003D01*
X2055470D02*
X2057128D01*
X1941347Y1741397D02*
X1947843D01*
X1951470D02*
X1957336D01*
X1961055D02*
X1965579D01*
X1969206D02*
X1975789D01*
X1984434D02*
X1985913D01*
X2055470D02*
X2057128D01*
X1941347Y1741486D02*
X1947843D01*
X1951470D02*
X1957336D01*
X1961144D02*
X1965579D01*
X1969206D02*
X1975789D01*
X1984524D02*
X1985824D01*
X2055470D02*
X2057128D01*
X1941347Y1741576D02*
X1947843D01*
X1951470D02*
X1957426D01*
X1961144D02*
X1965579D01*
X1969206D02*
X1975789D01*
X1984703D02*
X1985645D01*
X2055470D02*
X2057128D01*
X1941347Y1741666D02*
X1947843D01*
X1951470D02*
X1957426D01*
X1961234D02*
X1965579D01*
X1969206D02*
X1975789D01*
X1984882D02*
X1985376D01*
X2055470D02*
X2057128D01*
X1941347Y1741755D02*
X1947843D01*
X1951470D02*
X1957515D01*
X1961234D02*
X1965579D01*
X1969206D02*
X1975789D01*
X2055470D02*
X2057128D01*
X1941347Y1741845D02*
X1947843D01*
X1951470D02*
X1957515D01*
X1961323D02*
X1965579D01*
X1969206D02*
X1975789D01*
X2055470D02*
X2057128D01*
X1941347Y1741934D02*
X1947843D01*
X1951470D02*
X1955724D01*
X1955859D02*
X1957607D01*
X1961323D02*
X1965579D01*
X1969206D02*
X1975789D01*
X2055470D02*
X2057128D01*
X1941347Y1742024D02*
X1947843D01*
X1951470D02*
X1955634D01*
X1955859D02*
X1957607D01*
X1961413D02*
X1965579D01*
X1969206D02*
X1975700D01*
X1941347Y1742114D02*
X1947843D01*
X1951470D02*
X1955634D01*
X1955949D02*
X1957696D01*
X1961502D02*
X1965579D01*
X1969206D02*
X1975700D01*
X1941347Y1742203D02*
X1947843D01*
X1951470D02*
X1955545D01*
X1955949D02*
X1957786D01*
X1961502D02*
X1965579D01*
X1969206D02*
X1975700D01*
X1941347Y1742293D02*
X1947843D01*
X1951470D02*
X1955545D01*
X1956038D02*
X1957786D01*
X1961592D02*
X1965579D01*
X1969206D02*
X1975700D01*
X1941347Y1742382D02*
X1947843D01*
X1951470D02*
X1955455D01*
X1956038D02*
X1957874D01*
X1961592D02*
X1965579D01*
X1969206D02*
X1975700D01*
X1941347Y1742472D02*
X1947843D01*
X1951470D02*
X1955455D01*
X1956128D02*
X1957874D01*
X1961682D02*
X1965579D01*
X1969206D02*
X1975700D01*
X1941347Y1742561D02*
X1947843D01*
X1951470D02*
X1955365D01*
X1956128D02*
X1957965D01*
X1961682D02*
X1965579D01*
X1969206D02*
X1975700D01*
X1941347Y1742651D02*
X1947843D01*
X1951470D02*
X1955365D01*
X1956217D02*
X1957965D01*
X1961771D02*
X1965579D01*
X1969206D02*
X1975700D01*
X1941347Y1742741D02*
X1947843D01*
X1951470D02*
X1955278D01*
X1956307D02*
X1958055D01*
X1961771D02*
X1965579D01*
X1969206D02*
X1975700D01*
X1941437Y1742830D02*
X1947843D01*
X1951470D02*
X1955188D01*
X1956307D02*
X1958055D01*
X1961861D02*
X1965579D01*
X1969206D02*
X1975700D01*
X1941437Y1742920D02*
X1947843D01*
X1951470D02*
X1955188D01*
X1956397D02*
X1958142D01*
X1961950D02*
X1965579D01*
X1969206D02*
X1975700D01*
X1941437Y1743009D02*
X1947843D01*
X1951470D02*
X1955099D01*
X1956397D02*
X1958234D01*
X1961950D02*
X1965579D01*
X1969206D02*
X1975700D01*
X1941437Y1743099D02*
X1947843D01*
X1951470D02*
X1955099D01*
X1956486D02*
X1958234D01*
X1962040D02*
X1965579D01*
X1969206D02*
X1975610D01*
X1941437Y1743188D02*
X1947843D01*
X1951470D02*
X1955007D01*
X1956486D02*
X1958323D01*
X1962040D02*
X1965579D01*
X1969206D02*
X1975610D01*
X1941437Y1743278D02*
X1947843D01*
X1951470D02*
X1955007D01*
X1956576D02*
X1958323D01*
X1962130D02*
X1965579D01*
X1969206D02*
X1975610D01*
X1941437Y1743368D02*
X1947843D01*
X1951470D02*
X1954918D01*
X1956576D02*
X1958413D01*
X1962130D02*
X1965579D01*
X1969206D02*
X1975610D01*
X1941437Y1743457D02*
X1947843D01*
X1951470D02*
X1954918D01*
X1956665D02*
X1958413D01*
X1962219D02*
X1965579D01*
X1969206D02*
X1975610D01*
X1941527Y1743547D02*
X1947843D01*
X1951470D02*
X1954828D01*
X1956665D02*
X1958503D01*
X1962219D02*
X1965579D01*
X1969206D02*
X1975610D01*
X1941527Y1743636D02*
X1947843D01*
X1951470D02*
X1954738D01*
X1956755D02*
X1958503D01*
X1962309D02*
X1965579D01*
X1969206D02*
X1975610D01*
X1941527Y1743726D02*
X1947843D01*
X1951470D02*
X1954738D01*
X1956844D02*
X1958592D01*
X1962398D02*
X1965579D01*
X1969206D02*
X1975521D01*
X2000379D02*
X2001410D01*
X1941527Y1743816D02*
X1947843D01*
X1951470D02*
X1954649D01*
X1956844D02*
X1958680D01*
X1962398D02*
X1965579D01*
X1969206D02*
X1975521D01*
X1999931D02*
X2001858D01*
X1941527Y1743905D02*
X1947843D01*
X1951470D02*
X1954649D01*
X1956934D02*
X1958680D01*
X1962488D02*
X1965579D01*
X1969206D02*
X1975521D01*
X1984345D02*
X1986003D01*
X1989630D02*
X1991199D01*
X1994826D02*
X1996482D01*
X1999663D02*
X2002217D01*
X2004052D02*
X2005352D01*
X2006560D02*
X2008308D01*
X2012562D02*
X2014399D01*
X2015697D02*
X2017355D01*
X2019728D02*
X2021386D01*
X2025013D02*
X2026671D01*
X2030298D02*
X2031865D01*
X1941527Y1743995D02*
X1947843D01*
X1951470D02*
X1954559D01*
X1956934D02*
X1958769D01*
X1962488D02*
X1965579D01*
X1969206D02*
X1975521D01*
X1984345D02*
X1986003D01*
X1989630D02*
X1991199D01*
X1994826D02*
X1996482D01*
X1999484D02*
X2002396D01*
X2003962D02*
X2005352D01*
X2006560D02*
X2008398D01*
X2012472D02*
X2014399D01*
X2015697D02*
X2017355D01*
X2019728D02*
X2021386D01*
X2025013D02*
X2026671D01*
X2030298D02*
X2031865D01*
X1941616Y1744084D02*
X1947843D01*
X1951470D02*
X1954559D01*
X1957024D02*
X1958769D01*
X1962577D02*
X1965579D01*
X1969206D02*
X1975521D01*
X1984345D02*
X1986003D01*
X1989630D02*
X1991199D01*
X1994826D02*
X1996482D01*
X1999304D02*
X2002665D01*
X2003962D02*
X2005352D01*
X2006560D02*
X2008487D01*
X2012383D02*
X2014310D01*
X2015697D02*
X2017355D01*
X2019728D02*
X2021386D01*
X2025013D02*
X2026671D01*
X2030298D02*
X2031865D01*
X1941616Y1744174D02*
X1947843D01*
X1951470D02*
X1954470D01*
X1957024D02*
X1958861D01*
X1962577D02*
X1965579D01*
X1969206D02*
X1975521D01*
X1984345D02*
X1986003D01*
X1989630D02*
X1991199D01*
X1994826D02*
X1996482D01*
X1999215D02*
X2002754D01*
X2003962D02*
X2005352D01*
X2006650D02*
X2008487D01*
X2012383D02*
X2014310D01*
X2015697D02*
X2017355D01*
X2019728D02*
X2021386D01*
X2025013D02*
X2026671D01*
X2030298D02*
X2031865D01*
X1941616Y1744263D02*
X1947843D01*
X1951470D02*
X1954470D01*
X1957113D02*
X1958861D01*
X1962667D02*
X1965579D01*
X1969206D02*
X1975431D01*
X1984345D02*
X1986003D01*
X1989630D02*
X1991199D01*
X1994826D02*
X1996482D01*
X1999125D02*
X2002933D01*
X2003962D02*
X2005352D01*
X2006739D02*
X2008577D01*
X2012293D02*
X2014220D01*
X2015697D02*
X2017355D01*
X2019728D02*
X2021386D01*
X2025013D02*
X2026671D01*
X2030298D02*
X2031865D01*
X1941616Y1744353D02*
X1947843D01*
X1951470D02*
X1954380D01*
X1957113D02*
X1958950D01*
X1962667D02*
X1965579D01*
X1969206D02*
X1975431D01*
X1984345D02*
X1986003D01*
X1989630D02*
X1991199D01*
X1994826D02*
X1996482D01*
X1998946D02*
X2003112D01*
X2003962D02*
X2005352D01*
X2006829D02*
X2008666D01*
X2012204D02*
X2014131D01*
X2015697D02*
X2017355D01*
X2019728D02*
X2021386D01*
X2025013D02*
X2026671D01*
X2030298D02*
X2031865D01*
X1941616Y1744443D02*
X1947843D01*
X1951470D02*
X1954291D01*
X1957203D02*
X1958950D01*
X1962757D02*
X1965579D01*
X1969206D02*
X1975431D01*
X1984345D02*
X1986003D01*
X1989630D02*
X1991199D01*
X1994826D02*
X1996482D01*
X1998857D02*
X2003202D01*
X2003962D02*
X2005352D01*
X2006829D02*
X2008666D01*
X2012204D02*
X2014131D01*
X2015697D02*
X2017355D01*
X2019728D02*
X2021386D01*
X2025013D02*
X2026671D01*
X2030298D02*
X2031865D01*
X1941706Y1744532D02*
X1947843D01*
X1951470D02*
X1954291D01*
X1957292D02*
X1959040D01*
X1962846D02*
X1965579D01*
X1969206D02*
X1975431D01*
X1984345D02*
X1986003D01*
X1989630D02*
X1991199D01*
X1994826D02*
X1996482D01*
X1998857D02*
X2003381D01*
X2003873D02*
X2005352D01*
X2006919D02*
X2008756D01*
X2012114D02*
X2014041D01*
X2015697D02*
X2017355D01*
X2019728D02*
X2021386D01*
X2025013D02*
X2026671D01*
X2030298D02*
X2031865D01*
X1941706Y1744622D02*
X1947843D01*
X1951470D02*
X1954201D01*
X1957292D02*
X1959130D01*
X1962846D02*
X1965579D01*
X1969206D02*
X1975431D01*
X1984345D02*
X1986003D01*
X1989630D02*
X1991199D01*
X1994826D02*
X1996482D01*
X1998767D02*
X2003471D01*
X2003873D02*
X2005352D01*
X2007008D02*
X2008845D01*
X2012025D02*
X2013951D01*
X2015697D02*
X2017355D01*
X2019728D02*
X2021386D01*
X2025013D02*
X2026671D01*
X2030298D02*
X2031865D01*
X1941706Y1744711D02*
X1947843D01*
X1951470D02*
X1954201D01*
X1957382D02*
X1959130D01*
X1962936D02*
X1965579D01*
X1969206D02*
X1975341D01*
X1984345D02*
X1986003D01*
X1989630D02*
X1991199D01*
X1994826D02*
X1996482D01*
X1998677D02*
X2003560D01*
X2003873D02*
X2005352D01*
X2007008D02*
X2008845D01*
X2012025D02*
X2013951D01*
X2015697D02*
X2017355D01*
X2019728D02*
X2021386D01*
X2025013D02*
X2026671D01*
X2030298D02*
X2031865D01*
X1941706Y1744801D02*
X1947843D01*
X1951470D02*
X1954111D01*
X1957382D02*
X1959219D01*
X1962936D02*
X1965579D01*
X1969206D02*
X1975341D01*
X1984345D02*
X1986003D01*
X1989630D02*
X1991199D01*
X1994826D02*
X1996482D01*
X1998677D02*
X2003650D01*
X2003873D02*
X2005352D01*
X2007098D02*
X2008935D01*
X2011935D02*
X2013862D01*
X2015697D02*
X2017355D01*
X2019728D02*
X2021386D01*
X2025013D02*
X2026671D01*
X2030298D02*
X2031865D01*
X1941706Y1744890D02*
X1947843D01*
X1951470D02*
X1954111D01*
X1957471D02*
X1959219D01*
X1963025D02*
X1965579D01*
X1969206D02*
X1975341D01*
X1984345D02*
X1986003D01*
X1989630D02*
X1991199D01*
X1994826D02*
X1996482D01*
X1998588D02*
X2003739D01*
X2003873D02*
X2005352D01*
X2007187D02*
X2009025D01*
X2011845D02*
X2013772D01*
X2015697D02*
X2017355D01*
X2019728D02*
X2021386D01*
X2025013D02*
X2026671D01*
X2030298D02*
X2031865D01*
X1941795Y1744980D02*
X1947843D01*
X1951470D02*
X1954022D01*
X1957471D02*
X1959309D01*
X1963025D02*
X1965579D01*
X1969206D02*
X1975341D01*
X1984345D02*
X1986003D01*
X1989630D02*
X1991199D01*
X1994826D02*
X1996482D01*
X1998498D02*
X2005352D01*
X2007187D02*
X2009025D01*
X2011845D02*
X2013683D01*
X2015697D02*
X2017355D01*
X2019728D02*
X2021386D01*
X2025013D02*
X2026671D01*
X2030298D02*
X2031865D01*
X1941795Y1745070D02*
X1947843D01*
X1951470D02*
X1954022D01*
X1957561D02*
X1959309D01*
X1963115D02*
X1965579D01*
X1969206D02*
X1975252D01*
X1984345D02*
X1986003D01*
X1989630D02*
X1991199D01*
X1994826D02*
X1996482D01*
X1998498D02*
X2005352D01*
X2007277D02*
X2009114D01*
X2011756D02*
X2013683D01*
X2015697D02*
X2017355D01*
X2019728D02*
X2021386D01*
X2025013D02*
X2026671D01*
X2030298D02*
X2031865D01*
X1941795Y1745159D02*
X1947843D01*
X1951470D02*
X1953932D01*
X1957561D02*
X1959398D01*
X1963115D02*
X1965579D01*
X1969206D02*
X1975252D01*
X1984345D02*
X1986003D01*
X1989630D02*
X1991199D01*
X1994826D02*
X1996482D01*
X1998498D02*
X2000783D01*
X2001723D02*
X2005352D01*
X2007366D02*
X2009204D01*
X2011666D02*
X2013593D01*
X2015697D02*
X2017355D01*
X2019728D02*
X2021386D01*
X2025013D02*
X2026671D01*
X2030298D02*
X2031865D01*
X1941795Y1745249D02*
X1947843D01*
X1951470D02*
X1953843D01*
X1957651D02*
X1959398D01*
X1963204D02*
X1965579D01*
X1969206D02*
X1975252D01*
X1984345D02*
X1986003D01*
X1989630D02*
X1991199D01*
X1994826D02*
X1996482D01*
X1998409D02*
X2000515D01*
X2002081D02*
X2005352D01*
X2007366D02*
X2009204D01*
X2011666D02*
X2013503D01*
X2015697D02*
X2017355D01*
X2019728D02*
X2021386D01*
X2025013D02*
X2026671D01*
X2030298D02*
X2031865D01*
X1941885Y1745338D02*
X1947843D01*
X1951470D02*
X1953843D01*
X1957651D02*
X1959488D01*
X1963294D02*
X1965579D01*
X1969206D02*
X1975252D01*
X1984345D02*
X1986003D01*
X1989630D02*
X1991199D01*
X1994826D02*
X1996482D01*
X1998409D02*
X2000335D01*
X2002350D02*
X2005352D01*
X2007456D02*
X2009293D01*
X2011577D02*
X2013503D01*
X2015697D02*
X2017355D01*
X2019728D02*
X2021386D01*
X2025013D02*
X2026671D01*
X2030298D02*
X2031865D01*
X1941885Y1745428D02*
X1947843D01*
X1951470D02*
X1953753D01*
X1957561D02*
X1959577D01*
X1963294D02*
X1965579D01*
X1969206D02*
X1975164D01*
X1984345D02*
X1986003D01*
X1989630D02*
X1991199D01*
X1994826D02*
X1996482D01*
X1998409D02*
X2000246D01*
X2002529D02*
X2005352D01*
X2007546D02*
X2009383D01*
X2011487D02*
X2013414D01*
X2015697D02*
X2017355D01*
X2019728D02*
X2021386D01*
X2025013D02*
X2026671D01*
X2030298D02*
X2031865D01*
X1941885Y1745517D02*
X1947843D01*
X1951470D02*
X1953753D01*
X1957561D02*
X1959577D01*
X1963384D02*
X1965579D01*
X1969206D02*
X1975164D01*
X1984345D02*
X1986003D01*
X1989630D02*
X1991199D01*
X1994826D02*
X1996482D01*
X1998409D02*
X2000156D01*
X2002708D02*
X2005352D01*
X2007635D02*
X2009383D01*
X2011487D02*
X2013324D01*
X2015697D02*
X2017355D01*
X2019728D02*
X2021386D01*
X2025013D02*
X2026671D01*
X2030298D02*
X2031865D01*
X1941885Y1745607D02*
X1947843D01*
X1951470D02*
X1953663D01*
X1957471D02*
X1959667D01*
X1963384D02*
X1965579D01*
X1969206D02*
X1975164D01*
X1984345D02*
X1986003D01*
X1989630D02*
X1991199D01*
X1994826D02*
X1996482D01*
X1998319D02*
X2000156D01*
X2002798D02*
X2005352D01*
X2007635D02*
X2009472D01*
X2011397D02*
X2013324D01*
X2015697D02*
X2017355D01*
X2019728D02*
X2021386D01*
X2025013D02*
X2026671D01*
X2030298D02*
X2031865D01*
X1941974Y1745697D02*
X1947843D01*
X1951470D02*
X1953663D01*
X1957382D02*
X1959667D01*
X1963473D02*
X1965579D01*
X1969206D02*
X1975164D01*
X1984345D02*
X1986003D01*
X1989630D02*
X1991199D01*
X1994826D02*
X1996482D01*
X1998319D02*
X2000067D01*
X2002977D02*
X2005352D01*
X2007725D02*
X2009562D01*
X2011308D02*
X2013235D01*
X2015697D02*
X2017355D01*
X2019728D02*
X2021386D01*
X2025013D02*
X2026671D01*
X2030298D02*
X2031865D01*
X1941974Y1745786D02*
X1947843D01*
X1951470D02*
X1953574D01*
X1957382D02*
X1959757D01*
X1963473D02*
X1965579D01*
X1969206D02*
X1975074D01*
X1984345D02*
X1986003D01*
X1989630D02*
X1991199D01*
X1994826D02*
X1996482D01*
X1998319D02*
X2000067D01*
X2003067D02*
X2005352D01*
X2007814D02*
X2009562D01*
X2011308D02*
X2013145D01*
X2015697D02*
X2017355D01*
X2019728D02*
X2021386D01*
X2025013D02*
X2026671D01*
X2030298D02*
X2031865D01*
X1941974Y1745876D02*
X1947843D01*
X1951470D02*
X1953484D01*
X1957292D02*
X1959757D01*
X1963563D02*
X1965579D01*
X1969206D02*
X1975074D01*
X1984345D02*
X1986003D01*
X1989630D02*
X1991199D01*
X1994826D02*
X1996482D01*
X1998319D02*
X1999977D01*
X2003246D02*
X2005352D01*
X2007814D02*
X2009652D01*
X2011218D02*
X2013056D01*
X2015697D02*
X2017355D01*
X2019728D02*
X2021386D01*
X2025013D02*
X2026671D01*
X2030298D02*
X2031865D01*
X1942064Y1745965D02*
X1947843D01*
X1957292D02*
X1959844D01*
X1969206D02*
X1975074D01*
X1984345D02*
X1986003D01*
X1989630D02*
X1991199D01*
X1994826D02*
X1996482D01*
X1998319D02*
X1999977D01*
X2003335D02*
X2005352D01*
X2007904D02*
X2009741D01*
X2011129D02*
X2013056D01*
X2015697D02*
X2017355D01*
X2019728D02*
X2021386D01*
X2025013D02*
X2026671D01*
X2030298D02*
X2031865D01*
X1942064Y1746055D02*
X1947843D01*
X1957203D02*
X1959844D01*
X1969206D02*
X1974985D01*
X1984345D02*
X1986003D01*
X1989630D02*
X1991199D01*
X1994826D02*
X1996482D01*
X1998319D02*
X1999977D01*
X2003425D02*
X2005352D01*
X2007994D02*
X2009741D01*
X2011039D02*
X2012966D01*
X2015697D02*
X2017355D01*
X2019728D02*
X2021386D01*
X2025013D02*
X2026671D01*
X2030298D02*
X2031865D01*
X1942064Y1746145D02*
X1947843D01*
X1957203D02*
X1959934D01*
X1969206D02*
X1974985D01*
X1984345D02*
X1986003D01*
X1989630D02*
X1991199D01*
X1994826D02*
X1996482D01*
X1998319D02*
X1999977D01*
X2003515D02*
X2005352D01*
X2007994D02*
X2009831D01*
X2011039D02*
X2012876D01*
X2015697D02*
X2017355D01*
X2019728D02*
X2021386D01*
X2025013D02*
X2026671D01*
X2030298D02*
X2031865D01*
X1942154Y1746234D02*
X1947843D01*
X1957113D02*
X1960024D01*
X1969206D02*
X1974985D01*
X1984345D02*
X1986003D01*
X1989630D02*
X1991199D01*
X1994826D02*
X1996482D01*
X1998319D02*
X1999977D01*
X2003604D02*
X2005352D01*
X2008083D02*
X2009920D01*
X2010950D02*
X2012876D01*
X2015697D02*
X2017355D01*
X2019728D02*
X2021386D01*
X2025013D02*
X2026671D01*
X2030298D02*
X2031865D01*
X1942154Y1746324D02*
X1947843D01*
X1957024D02*
X1960024D01*
X1969206D02*
X1974985D01*
X1984345D02*
X1986003D01*
X1989630D02*
X1991199D01*
X1994826D02*
X1996482D01*
X1998319D02*
X1999977D01*
X2003694D02*
X2005352D01*
X2008173D02*
X2009920D01*
X2010860D02*
X2012787D01*
X2015697D02*
X2017355D01*
X2019728D02*
X2021386D01*
X2025013D02*
X2026671D01*
X2030298D02*
X2031865D01*
X1942154Y1746413D02*
X1947843D01*
X1957024D02*
X1960115D01*
X1969206D02*
X1974895D01*
X1984345D02*
X1986003D01*
X1989630D02*
X1991199D01*
X1994826D02*
X1996482D01*
X1998319D02*
X1999977D01*
X2003694D02*
X2005352D01*
X2008173D02*
X2010010D01*
X2010860D02*
X2012697D01*
X2015697D02*
X2017355D01*
X2019728D02*
X2021386D01*
X2025013D02*
X2026671D01*
X2030298D02*
X2031865D01*
X1942154Y1746503D02*
X1947843D01*
X1956934D02*
X1960115D01*
X1969206D02*
X1974895D01*
X1984345D02*
X1986003D01*
X1989630D02*
X1991199D01*
X1994826D02*
X1996482D01*
X1998319D02*
X1999977D01*
X2003694D02*
X2005352D01*
X2008262D02*
X2010100D01*
X2010770D02*
X2012608D01*
X2015697D02*
X2017355D01*
X2019728D02*
X2021386D01*
X2025013D02*
X2026671D01*
X2030298D02*
X2031865D01*
X1942243Y1746592D02*
X1947843D01*
X1956934D02*
X1960204D01*
X1969206D02*
X1974895D01*
X1984345D02*
X1986003D01*
X1989630D02*
X1991199D01*
X1994826D02*
X1996482D01*
X1998319D02*
X1999977D01*
X2003694D02*
X2005352D01*
X2008352D02*
X2010100D01*
X2010681D02*
X2012608D01*
X2015697D02*
X2017355D01*
X2019728D02*
X2021386D01*
X2025013D02*
X2026671D01*
X2030298D02*
X2031865D01*
X1942243Y1746682D02*
X1947843D01*
X1956844D02*
X1960204D01*
X1969206D02*
X1974806D01*
X1984345D02*
X1986003D01*
X1989630D02*
X1991199D01*
X1994826D02*
X1996482D01*
X1998319D02*
X2000067D01*
X2003694D02*
X2005352D01*
X2008441D02*
X2010189D01*
X2010681D02*
X2012518D01*
X2015697D02*
X2017355D01*
X2019728D02*
X2021386D01*
X2025013D02*
X2026671D01*
X2030298D02*
X2031865D01*
X1942333Y1746772D02*
X1947843D01*
X1956844D02*
X1960294D01*
X1969206D02*
X1974806D01*
X1984345D02*
X1986003D01*
X1989630D02*
X1991199D01*
X1994826D02*
X1996482D01*
X1998409D02*
X2000067D01*
X2003694D02*
X2005352D01*
X2008441D02*
X2010279D01*
X2010591D02*
X2012429D01*
X2015697D02*
X2017355D01*
X2019728D02*
X2021386D01*
X2025013D02*
X2026671D01*
X2030298D02*
X2031865D01*
X1942333Y1746861D02*
X1947843D01*
X1956755D02*
X1960294D01*
X1969206D02*
X1974716D01*
X1984345D02*
X1986003D01*
X1989630D02*
X1991199D01*
X1994826D02*
X1996482D01*
X1998409D02*
X2000156D01*
X2003694D02*
X2005352D01*
X2008531D02*
X2010279D01*
X2010502D02*
X2012429D01*
X2015697D02*
X2017355D01*
X2019728D02*
X2021386D01*
X2025013D02*
X2026671D01*
X2030298D02*
X2031865D01*
X1942333Y1746951D02*
X1947843D01*
X1956665D02*
X1960384D01*
X1969206D02*
X1974716D01*
X1984345D02*
X1986003D01*
X1989630D02*
X1991199D01*
X1994826D02*
X1996482D01*
X1998409D02*
X2000156D01*
X2003694D02*
X2005352D01*
X2008621D02*
X2010368D01*
X2010502D02*
X2012339D01*
X2015697D02*
X2017355D01*
X2019728D02*
X2021386D01*
X2025013D02*
X2026671D01*
X2030298D02*
X2031865D01*
X1942422Y1747040D02*
X1947843D01*
X1956665D02*
X1960473D01*
X1969206D02*
X1974716D01*
X1984345D02*
X1986003D01*
X1989630D02*
X1991199D01*
X1994826D02*
X1996482D01*
X1998409D02*
X2000246D01*
X2003694D02*
X2005352D01*
X2008621D02*
X2012249D01*
X2015697D02*
X2017355D01*
X2019728D02*
X2021386D01*
X2025013D02*
X2026671D01*
X2030298D02*
X2031865D01*
X1942422Y1747130D02*
X1947843D01*
X1956576D02*
X1960473D01*
X1969206D02*
X1974627D01*
X1984345D02*
X1986003D01*
X1989630D02*
X1991199D01*
X1994826D02*
X1996482D01*
X1998498D02*
X2000335D01*
X2003694D02*
X2005352D01*
X2008710D02*
X2012249D01*
X2015697D02*
X2017355D01*
X2019728D02*
X2021386D01*
X2025013D02*
X2026671D01*
X2030298D02*
X2031865D01*
X1942422Y1747219D02*
X1947843D01*
X1956576D02*
X1960563D01*
X1969206D02*
X1974627D01*
X1984345D02*
X1986003D01*
X1989630D02*
X1991199D01*
X1994826D02*
X1996482D01*
X1998498D02*
X2000425D01*
X2003694D02*
X2005352D01*
X2008800D02*
X2012160D01*
X2015697D02*
X2017355D01*
X2019728D02*
X2021386D01*
X2025013D02*
X2026671D01*
X2030298D02*
X2031865D01*
X1942512Y1747309D02*
X1947843D01*
X1956486D02*
X1960563D01*
X1969206D02*
X1974627D01*
X1984345D02*
X1986003D01*
X1989630D02*
X1991199D01*
X1994826D02*
X1996482D01*
X1998498D02*
X2000515D01*
X2003694D02*
X2005352D01*
X2008800D02*
X2012070D01*
X2015697D02*
X2017355D01*
X2019728D02*
X2021386D01*
X2025013D02*
X2026671D01*
X2030298D02*
X2031865D01*
X1942512Y1747399D02*
X1947843D01*
X1956486D02*
X1960652D01*
X1969206D02*
X1974537D01*
X1984345D02*
X1986003D01*
X1989630D02*
X1991199D01*
X1994826D02*
X1996482D01*
X1998588D02*
X2000694D01*
X2003694D02*
X2005352D01*
X2008889D02*
X2011981D01*
X2015697D02*
X2017355D01*
X2019728D02*
X2021386D01*
X2025013D02*
X2026671D01*
X2030298D02*
X2031865D01*
X1942601Y1747488D02*
X1947843D01*
X1956397D02*
X1960652D01*
X1969206D02*
X1974537D01*
X1984345D02*
X1986003D01*
X1989630D02*
X1991199D01*
X1994826D02*
X1996482D01*
X1998588D02*
X2000783D01*
X2003694D02*
X2005352D01*
X2008979D02*
X2011981D01*
X2015697D02*
X2017355D01*
X2019728D02*
X2021386D01*
X2025013D02*
X2026671D01*
X2030298D02*
X2031865D01*
X1942601Y1747578D02*
X1947843D01*
X1956397D02*
X1960742D01*
X1969206D02*
X1974447D01*
X1984345D02*
X1986003D01*
X1989630D02*
X1991199D01*
X1994826D02*
X1996482D01*
X1998677D02*
X2000963D01*
X2003694D02*
X2005352D01*
X2008979D02*
X2011891D01*
X2015697D02*
X2017355D01*
X2019728D02*
X2021386D01*
X2025013D02*
X2026671D01*
X2030298D02*
X2031865D01*
X1942601Y1747667D02*
X1947843D01*
X1956307D02*
X1960742D01*
X1969206D02*
X1974447D01*
X1984345D02*
X1986003D01*
X1989630D02*
X1991199D01*
X1994826D02*
X1996482D01*
X1998767D02*
X2001142D01*
X2003694D02*
X2005352D01*
X2009068D02*
X2011801D01*
X2015697D02*
X2017355D01*
X2019728D02*
X2021386D01*
X2025013D02*
X2026671D01*
X2030298D02*
X2031865D01*
X1942691Y1747757D02*
X1947932D01*
X1956217D02*
X1960832D01*
X1969206D02*
X1974447D01*
X1984345D02*
X1986003D01*
X1989630D02*
X1991199D01*
X1994826D02*
X1996482D01*
X1998767D02*
X2001410D01*
X2003694D02*
X2005352D01*
X2009158D02*
X2011801D01*
X2015697D02*
X2017355D01*
X2019728D02*
X2021386D01*
X2025013D02*
X2026671D01*
X2030298D02*
X2031865D01*
X1942691Y1747847D02*
X1947932D01*
X1956217D02*
X1960921D01*
X1969206D02*
X1974358D01*
X1984345D02*
X1986003D01*
X1989630D02*
X1991199D01*
X1994826D02*
X1996482D01*
X1998857D02*
X2001679D01*
X2003694D02*
X2005352D01*
X2009248D02*
X2011712D01*
X2015697D02*
X2017355D01*
X2019728D02*
X2021386D01*
X2025013D02*
X2026671D01*
X2030298D02*
X2031865D01*
X1942781Y1747936D02*
X1947932D01*
X1956128D02*
X1960921D01*
X1969117D02*
X1974358D01*
X1984345D02*
X1986003D01*
X1989630D02*
X1991199D01*
X1994826D02*
X1996482D01*
X1998946D02*
X2002037D01*
X2003694D02*
X2005352D01*
X2009248D02*
X2011622D01*
X2015697D02*
X2017355D01*
X2019728D02*
X2021386D01*
X2025013D02*
X2026671D01*
X2030298D02*
X2031865D01*
X1942781Y1748026D02*
X1947932D01*
X1956128D02*
X1961011D01*
X1969117D02*
X1974268D01*
X1984345D02*
X1986003D01*
X1989630D02*
X1991199D01*
X1994826D02*
X1996482D01*
X1999036D02*
X2002396D01*
X2003694D02*
X2005352D01*
X2009337D02*
X2011622D01*
X2015697D02*
X2017355D01*
X2019728D02*
X2021386D01*
X2025013D02*
X2026671D01*
X2030298D02*
X2031865D01*
X1942870Y1748115D02*
X1948022D01*
X1956038D02*
X1961011D01*
X1969117D02*
X1974268D01*
X1984345D02*
X1986003D01*
X1989630D02*
X1991199D01*
X1994826D02*
X1996482D01*
X1999125D02*
X2002933D01*
X2003694D02*
X2005352D01*
X2009427D02*
X2011533D01*
X2015697D02*
X2017355D01*
X2019728D02*
X2021386D01*
X2025013D02*
X2026671D01*
X2030298D02*
X2031865D01*
X1942870Y1748205D02*
X1948022D01*
X1956038D02*
X1961100D01*
X1969027D02*
X1974179D01*
X1984345D02*
X1986003D01*
X1989630D02*
X1991199D01*
X1994826D02*
X1996482D01*
X1999215D02*
X2005352D01*
X2009427D02*
X2011443D01*
X2015697D02*
X2017355D01*
X2019728D02*
X2021386D01*
X2025013D02*
X2026671D01*
X2030298D02*
X2031865D01*
X1942870Y1748294D02*
X1948111D01*
X1955949D02*
X1961100D01*
X1968937D02*
X1974179D01*
X1984345D02*
X1986003D01*
X1989630D02*
X1991199D01*
X1994826D02*
X1996482D01*
X1999394D02*
X2005352D01*
X2009516D02*
X2011354D01*
X2015697D02*
X2017355D01*
X2019728D02*
X2021386D01*
X2025013D02*
X2026671D01*
X2030298D02*
X2031865D01*
X1942960Y1748384D02*
X1948201D01*
X1955859D02*
X1961190D01*
X1968937D02*
X1974089D01*
X1984345D02*
X1986003D01*
X1989630D02*
X1991199D01*
X1994826D02*
X1996482D01*
X1999484D02*
X2005352D01*
X2009427D02*
X2011354D01*
X2015697D02*
X2017355D01*
X2019728D02*
X2021386D01*
X2025013D02*
X2026671D01*
X2030298D02*
X2031865D01*
X1942960Y1748474D02*
X1948201D01*
X1955859D02*
X1961279D01*
X1968848D02*
X1974089D01*
X1984345D02*
X1986003D01*
X1989630D02*
X1991199D01*
X1994826D02*
X1996482D01*
X1999663D02*
X2005352D01*
X2009427D02*
X2011443D01*
X2015697D02*
X2017355D01*
X2019728D02*
X2021386D01*
X2025013D02*
X2026671D01*
X2030298D02*
X2031865D01*
X1943049Y1748563D02*
X1948291D01*
X1955769D02*
X1961279D01*
X1968758D02*
X1974000D01*
X1984345D02*
X1986003D01*
X1989630D02*
X1991199D01*
X1994826D02*
X1996482D01*
X1999752D02*
X2005352D01*
X2009337D02*
X2011533D01*
X2015697D02*
X2017355D01*
X2019728D02*
X2021386D01*
X2025013D02*
X2026671D01*
X2030298D02*
X2031865D01*
X1943049Y1748653D02*
X1948380D01*
X1955680D02*
X1961369D01*
X1968669D02*
X1974000D01*
X1984345D02*
X1986003D01*
X1989630D02*
X1991199D01*
X1994826D02*
X1996482D01*
X1999931D02*
X2005352D01*
X2009248D02*
X2011533D01*
X2015697D02*
X2017355D01*
X2019728D02*
X2021386D01*
X2025013D02*
X2026671D01*
X2030298D02*
X2031865D01*
X1943139Y1748742D02*
X1948470D01*
X1955590D02*
X1961459D01*
X1968579D02*
X1973910D01*
X1984345D02*
X1986003D01*
X1989630D02*
X1991199D01*
X1994826D02*
X1996482D01*
X2000200D02*
X2005352D01*
X2009158D02*
X2011622D01*
X2015697D02*
X2017355D01*
X2019728D02*
X2021386D01*
X2025013D02*
X2026671D01*
X2030298D02*
X2031865D01*
X1943139Y1748832D02*
X1948559D01*
X1955501D02*
X1961638D01*
X1968490D02*
X1973910D01*
X1984345D02*
X1986003D01*
X1989630D02*
X1991199D01*
X1994826D02*
X1996482D01*
X2000379D02*
X2005352D01*
X2009158D02*
X2011712D01*
X2015697D02*
X2017355D01*
X2019728D02*
X2021386D01*
X2025013D02*
X2026671D01*
X2030298D02*
X2031865D01*
X1943229Y1748921D02*
X1948738D01*
X1955322D02*
X1961727D01*
X1968310D02*
X1973820D01*
X1984345D02*
X1986003D01*
X1989630D02*
X1991199D01*
X1994826D02*
X1996482D01*
X2000648D02*
X2005352D01*
X2009068D02*
X2011712D01*
X2015697D02*
X2017355D01*
X2019728D02*
X2021386D01*
X2025013D02*
X2026671D01*
X2030298D02*
X2031865D01*
X1943229Y1749011D02*
X1948916D01*
X1955142D02*
X1961906D01*
X1968131D02*
X1973820D01*
X1984345D02*
X1986003D01*
X1989630D02*
X1991199D01*
X1994826D02*
X1996482D01*
X2000917D02*
X2005352D01*
X2008979D02*
X2011801D01*
X2015697D02*
X2017355D01*
X2019728D02*
X2021386D01*
X2025013D02*
X2026671D01*
X2030298D02*
X2031865D01*
X1943318Y1749101D02*
X1949185D01*
X1954874D02*
X1962173D01*
X1967952D02*
X1973731D01*
X1984345D02*
X1986003D01*
X1989630D02*
X1991199D01*
X1994826D02*
X1996482D01*
X2001186D02*
X2005352D01*
X2008979D02*
X2011891D01*
X2015697D02*
X2017355D01*
X2019728D02*
X2021386D01*
X2025013D02*
X2026671D01*
X2030298D02*
X2031865D01*
X1943408Y1749190D02*
X1973731D01*
X1984345D02*
X1986003D01*
X1989630D02*
X1991199D01*
X1994826D02*
X1996482D01*
X2001633D02*
X2005352D01*
X2008889D02*
X2011981D01*
X2015697D02*
X2017355D01*
X2019728D02*
X2021386D01*
X2025013D02*
X2026671D01*
X2030298D02*
X2031865D01*
X1943408Y1749280D02*
X1973641D01*
X1984345D02*
X1986003D01*
X1989630D02*
X1991199D01*
X1994826D02*
X1996482D01*
X2001992D02*
X2005352D01*
X2008800D02*
X2011981D01*
X2015697D02*
X2017355D01*
X2019728D02*
X2021386D01*
X2025013D02*
X2026671D01*
X2030298D02*
X2031865D01*
X1943497Y1749369D02*
X1973641D01*
X1984345D02*
X1986003D01*
X1989630D02*
X1991199D01*
X1994826D02*
X1996482D01*
X2002529D02*
X2005352D01*
X2008800D02*
X2012070D01*
X2015697D02*
X2017355D01*
X2019728D02*
X2021386D01*
X2025013D02*
X2026671D01*
X2030298D02*
X2031865D01*
X1943497Y1749459D02*
X1973552D01*
X1984345D02*
X1986003D01*
X1989630D02*
X1991199D01*
X1994826D02*
X1996482D01*
X2003156D02*
X2005352D01*
X2008710D02*
X2012160D01*
X2015697D02*
X2017355D01*
X2019728D02*
X2021386D01*
X2025013D02*
X2026671D01*
X2030298D02*
X2031865D01*
X1943587Y1749549D02*
X1973552D01*
X1984345D02*
X1986003D01*
X1989630D02*
X1991199D01*
X1994826D02*
X1996482D01*
X2003694D02*
X2005352D01*
X2008621D02*
X2012160D01*
X2015697D02*
X2017355D01*
X2019728D02*
X2021386D01*
X2025013D02*
X2026671D01*
X2030298D02*
X2031865D01*
X1943587Y1749638D02*
X1973462D01*
X1984345D02*
X1986003D01*
X1989630D02*
X1991199D01*
X1994826D02*
X1996482D01*
X2003694D02*
X2005352D01*
X2008531D02*
X2012249D01*
X2015697D02*
X2017355D01*
X2019728D02*
X2021386D01*
X2025013D02*
X2026671D01*
X2030298D02*
X2031865D01*
X1943676Y1749728D02*
X1973372D01*
X1984345D02*
X1986003D01*
X1989630D02*
X1991199D01*
X1994826D02*
X1996482D01*
X2003694D02*
X2005352D01*
X2008531D02*
X2010368D01*
X2010502D02*
X2012339D01*
X2015697D02*
X2017355D01*
X2019728D02*
X2021386D01*
X2025013D02*
X2026671D01*
X2030298D02*
X2031865D01*
X1943676Y1749817D02*
X1973372D01*
X1984345D02*
X1986003D01*
X1989630D02*
X1991288D01*
X1994826D02*
X1996482D01*
X2003694D02*
X2005352D01*
X2008441D02*
X2010279D01*
X2010591D02*
X2012339D01*
X2015697D02*
X2017355D01*
X2019728D02*
X2021386D01*
X2025013D02*
X2026671D01*
X2030298D02*
X2031865D01*
X1943766Y1749907D02*
X1973283D01*
X1984345D02*
X1986093D01*
X1989630D02*
X1991378D01*
X1994826D02*
X1996482D01*
X2003694D02*
X2005352D01*
X2008352D02*
X2010279D01*
X2010591D02*
X2012429D01*
X2015697D02*
X2017355D01*
X2019728D02*
X2021476D01*
X2025013D02*
X2026761D01*
X2030298D02*
X2031865D01*
X1943856Y1749996D02*
X1973283D01*
X1984345D02*
X1986182D01*
X1989630D02*
X1991467D01*
X1994826D02*
X1996482D01*
X2003694D02*
X2005352D01*
X2008352D02*
X2010189D01*
X2010681D02*
X2012518D01*
X2015697D02*
X2017355D01*
X2019728D02*
X2021566D01*
X2025013D02*
X2026851D01*
X2030298D02*
X2031865D01*
X1943856Y1750086D02*
X1973193D01*
X1984345D02*
X1986272D01*
X1989540D02*
X1991557D01*
X1994826D02*
X1996482D01*
X2003694D02*
X2005352D01*
X2008262D02*
X2010100D01*
X2010770D02*
X2012518D01*
X2015697D02*
X2017355D01*
X2019728D02*
X2021655D01*
X2025013D02*
X2026940D01*
X2030209D02*
X2031865D01*
X1943945Y1750176D02*
X1973104D01*
X1984345D02*
X1986361D01*
X1989540D02*
X1991646D01*
X1994826D02*
X1996482D01*
X2003694D02*
X2005352D01*
X2008173D02*
X2010100D01*
X2010770D02*
X2012608D01*
X2015697D02*
X2017355D01*
X2019728D02*
X2021745D01*
X2024924D02*
X2027030D01*
X2030209D02*
X2031865D01*
X1944035Y1750265D02*
X1973104D01*
X1984345D02*
X1986451D01*
X1989540D02*
X1991736D01*
X1994826D02*
X1996482D01*
X2003694D02*
X2005352D01*
X2008173D02*
X2010010D01*
X2010860D02*
X2012697D01*
X2015697D02*
X2017355D01*
X2019728D02*
X2021834D01*
X2024924D02*
X2027119D01*
X2030209D02*
X2031865D01*
X1944035Y1750355D02*
X1973014D01*
X1984345D02*
X1986540D01*
X1989540D02*
X1991826D01*
X1994826D02*
X1996482D01*
X2003604D02*
X2005352D01*
X2008083D02*
X2009920D01*
X2010950D02*
X2012787D01*
X2015697D02*
X2017355D01*
X2019728D02*
X2021924D01*
X2024924D02*
X2027209D01*
X2030209D02*
X2031865D01*
X1944124Y1750444D02*
X1972925D01*
X1984345D02*
X1986630D01*
X1989451D02*
X1991915D01*
X1994736D02*
X1996482D01*
X2003604D02*
X2005352D01*
X2007994D02*
X2009920D01*
X2010950D02*
X2012787D01*
X2015697D02*
X2017355D01*
X2019728D02*
X2022103D01*
X2024924D02*
X2027299D01*
X2030119D02*
X2031865D01*
X1944214Y1750534D02*
X1972925D01*
X1984345D02*
X1986809D01*
X1989451D02*
X1992094D01*
X1994736D02*
X1996482D01*
X1999125D02*
X1999261D01*
X2003604D02*
X2005352D01*
X2007904D02*
X2009831D01*
X2011039D02*
X2012876D01*
X2015697D02*
X2017355D01*
X2019728D02*
X2022193D01*
X2024834D02*
X2027478D01*
X2030119D02*
X2031865D01*
X1944214Y1750623D02*
X1972835D01*
X1984345D02*
X1986899D01*
X1989451D02*
X1992184D01*
X1994646D02*
X1996482D01*
X1999125D02*
X1999440D01*
X2003515D02*
X2005262D01*
X2007904D02*
X2009741D01*
X2011129D02*
X2012966D01*
X2015697D02*
X2017355D01*
X2019728D02*
X2022282D01*
X2024834D02*
X2027567D01*
X2030119D02*
X2031865D01*
X1944303Y1750713D02*
X1972745D01*
X1984345D02*
X1987078D01*
X1989361D02*
X1992273D01*
X1994646D02*
X1996482D01*
X1999125D02*
X1999708D01*
X2003425D02*
X2005262D01*
X2007814D02*
X2009741D01*
X2011129D02*
X2012966D01*
X2015697D02*
X2017355D01*
X2019728D02*
X2022461D01*
X2024745D02*
X2027746D01*
X2030030D02*
X2031865D01*
X1944393Y1750803D02*
X1972745D01*
X1984345D02*
X1987168D01*
X1989272D02*
X1992453D01*
X1994557D02*
X1996482D01*
X1999036D02*
X1999888D01*
X2003425D02*
X2005262D01*
X2007725D02*
X2009652D01*
X2011218D02*
X2013056D01*
X2015697D02*
X2017355D01*
X2019728D02*
X2022551D01*
X2024655D02*
X2027836D01*
X2029940D02*
X2031865D01*
X1944393Y1750892D02*
X1972656D01*
X1984345D02*
X1987347D01*
X1989182D02*
X1992632D01*
X1994467D02*
X1996482D01*
X1999036D02*
X2000156D01*
X2003335D02*
X2005262D01*
X2007725D02*
X2009562D01*
X2011308D02*
X2013145D01*
X2015697D02*
X2017355D01*
X2019728D02*
X2022730D01*
X2024565D02*
X2028013D01*
X2029851D02*
X2031865D01*
X1944483Y1750982D02*
X1972566D01*
X1984345D02*
X1987526D01*
X1989093D02*
X1992809D01*
X1994378D02*
X1996392D01*
X1999036D02*
X2000425D01*
X2003156D02*
X2005262D01*
X2007635D02*
X2009562D01*
X2011308D02*
X2013145D01*
X2015697D02*
X2017355D01*
X2019728D02*
X2022909D01*
X2024476D02*
X2028192D01*
X2029761D02*
X2031865D01*
X1944572Y1751071D02*
X1972566D01*
X1984345D02*
X1987795D01*
X1988913D02*
X1993078D01*
X1994198D02*
X1996392D01*
X1999036D02*
X2000783D01*
X2002977D02*
X2005173D01*
X2007546D02*
X2009472D01*
X2011397D02*
X2013235D01*
X2015697D02*
X2017355D01*
X2019728D02*
X2023178D01*
X2024297D02*
X2028461D01*
X2029582D02*
X2031776D01*
X1944572Y1751161D02*
X1972477D01*
X1984345D02*
X1988242D01*
X1988465D02*
X1993526D01*
X1993751D02*
X1996392D01*
X1999036D02*
X2001231D01*
X2002798D02*
X2005173D01*
X2007546D02*
X2009383D01*
X2011487D02*
X2013324D01*
X2015697D02*
X2017355D01*
X2019728D02*
X2023626D01*
X2023938D02*
X2028909D01*
X2029134D02*
X2031776D01*
X1944662Y1751250D02*
X1972387D01*
X1984345D02*
X1996392D01*
X1999036D02*
X2005173D01*
X2007456D02*
X2009383D01*
X2011487D02*
X2013324D01*
X2015697D02*
X2017355D01*
X2019728D02*
X2031776D01*
X1944751Y1751340D02*
X1972298D01*
X1984345D02*
X1996303D01*
X1999036D02*
X2005083D01*
X2007366D02*
X2009293D01*
X2011577D02*
X2013414D01*
X2015697D02*
X2017355D01*
X2019728D02*
X2031686D01*
X1944841Y1751430D02*
X1972298D01*
X1984345D02*
X1985824D01*
X1985957D02*
X1991019D01*
X1991242D02*
X1996303D01*
X1998946D02*
X2005083D01*
X2007277D02*
X2009204D01*
X2011666D02*
X2013503D01*
X2015697D02*
X2017355D01*
X2019728D02*
X2021207D01*
X2021341D02*
X2026403D01*
X2026626D02*
X2031686D01*
X1944841Y1751519D02*
X1972208D01*
X1984345D02*
X1985824D01*
X1986047D02*
X1991019D01*
X1991332D02*
X1996213D01*
X1998946D02*
X2004994D01*
X2007277D02*
X2009204D01*
X2011666D02*
X2013503D01*
X2015697D02*
X2017355D01*
X2019728D02*
X2021207D01*
X2021520D02*
X2026403D01*
X2026715D02*
X2031686D01*
X1944931Y1751609D02*
X1972118D01*
X1984345D02*
X1985824D01*
X1986226D02*
X1990930D01*
X1991422D02*
X1996213D01*
X1998946D02*
X2004994D01*
X2007187D02*
X2009114D01*
X2011756D02*
X2013593D01*
X2015697D02*
X2017355D01*
X2019728D02*
X2021207D01*
X2021609D02*
X2026313D01*
X2026805D02*
X2031596D01*
X1945020Y1751698D02*
X1972029D01*
X1984345D02*
X1985824D01*
X1986316D02*
X1990840D01*
X1991511D02*
X1996123D01*
X1998946D02*
X2004904D01*
X2007098D02*
X2009025D01*
X2011845D02*
X2013683D01*
X2015697D02*
X2017355D01*
X2019728D02*
X2021207D01*
X2021699D02*
X2026313D01*
X2026894D02*
X2031507D01*
X1945110Y1751788D02*
X1972029D01*
X1984345D02*
X1985734D01*
X1986405D02*
X1990840D01*
X1991601D02*
X1996123D01*
X1998946D02*
X2004814D01*
X2007098D02*
X2008935D01*
X2011845D02*
X2013772D01*
X2015697D02*
X2017355D01*
X2019728D02*
X2021207D01*
X2021789D02*
X2026224D01*
X2027074D02*
X2031507D01*
X1945199Y1751878D02*
X1971939D01*
X1984345D02*
X1985734D01*
X1986495D02*
X1990751D01*
X1991780D02*
X1996034D01*
X1998946D02*
X2004725D01*
X2007008D02*
X2008935D01*
X2011935D02*
X2013772D01*
X2015697D02*
X2017355D01*
X2019728D02*
X2021118D01*
X2021968D02*
X2026134D01*
X2027163D02*
X2031417D01*
X1945199Y1751967D02*
X1971850D01*
X1984345D02*
X1985734D01*
X1986674D02*
X1990661D01*
X1991869D02*
X1995944D01*
X1998946D02*
X2004635D01*
X2006919D02*
X2008845D01*
X2012025D02*
X2013862D01*
X2015697D02*
X2017355D01*
X2019728D02*
X2021118D01*
X2022057D02*
X2026044D01*
X2027253D02*
X2031328D01*
X1945289Y1752057D02*
X1971760D01*
X1984345D02*
X1985734D01*
X1986764D02*
X1990571D01*
X1992049D02*
X1995855D01*
X1999125D02*
X2004546D01*
X2006919D02*
X2008756D01*
X2012025D02*
X2013951D01*
X2015697D02*
X2017355D01*
X2019728D02*
X2021118D01*
X2022236D02*
X2026044D01*
X2027432D02*
X2031238D01*
X1945378Y1752146D02*
X1971670D01*
X1984345D02*
X1985734D01*
X1986943D02*
X1990482D01*
X1992138D02*
X1995765D01*
X1999394D02*
X2004456D01*
X2006829D02*
X2008756D01*
X2012114D02*
X2013951D01*
X2015697D02*
X2017355D01*
X2019728D02*
X2021118D01*
X2022326D02*
X2025955D01*
X2027611D02*
X2031149D01*
X1945468Y1752236D02*
X1971581D01*
X1984345D02*
X1985734D01*
X1987122D02*
X1990392D01*
X1992317D02*
X1995676D01*
X1999573D02*
X2004277D01*
X2006739D02*
X2008666D01*
X2012204D02*
X2014041D01*
X2015697D02*
X2017355D01*
X2019728D02*
X2021118D01*
X2022505D02*
X2025776D01*
X2027701D02*
X2031059D01*
X1945558Y1752325D02*
X1971581D01*
X1984345D02*
X1985645D01*
X1987301D02*
X1990303D01*
X1992496D02*
X1995496D01*
X1999842D02*
X2004187D01*
X2006650D02*
X2008577D01*
X2012204D02*
X2014131D01*
X2015697D02*
X2017355D01*
X2019728D02*
X2021118D01*
X2022684D02*
X2025686D01*
X2027880D02*
X2030969D01*
X1945647Y1752415D02*
X1971491D01*
X1984345D02*
X1985645D01*
X1987480D02*
X1990124D01*
X1992676D02*
X1995407D01*
X2000200D02*
X2003919D01*
X2006650D02*
X2008577D01*
X2012293D02*
X2014131D01*
X2015697D02*
X2017355D01*
X2019728D02*
X2021028D01*
X2022863D02*
X2025507D01*
X2028149D02*
X2030790D01*
X1945737Y1752505D02*
X1971402D01*
X1984345D02*
X1985645D01*
X1987659D02*
X1989944D01*
X1992944D02*
X1995138D01*
X2000559D02*
X2003739D01*
X2006650D02*
X2008487D01*
X2012383D02*
X2014131D01*
X2015697D02*
X2017355D01*
X2019728D02*
X2021028D01*
X2023132D02*
X2025328D01*
X2028328D02*
X2030611D01*
X1945737Y1752594D02*
X1971312D01*
X1988018D02*
X1989676D01*
X1993303D02*
X1994869D01*
X2001006D02*
X2003381D01*
X2023401D02*
X2025059D01*
X2028686D02*
X2030342D01*
X1945826Y1752684D02*
X1971223D01*
X1988555D02*
X1989049D01*
X1993840D02*
X1994332D01*
X2001902D02*
X2002575D01*
X2023938D02*
X2024432D01*
X2029224D02*
X2029715D01*
X1945916Y1752773D02*
X1971133D01*
X1946005Y1752863D02*
X1971043D01*
X1946095Y1752952D02*
X1970954D01*
X1946185Y1753042D02*
X1970864D01*
X1946274Y1753132D02*
X1970775D01*
X1946364Y1753221D02*
X1970685D01*
X1946453Y1753311D02*
X1970596D01*
X1946543Y1753400D02*
X1970506D01*
X1946632Y1753490D02*
X1970416D01*
X1946722Y1753580D02*
X1970327D01*
X1946812Y1753669D02*
X1970237D01*
X1946901Y1753759D02*
X1970148D01*
X1947080Y1753848D02*
X1970058D01*
X1947170Y1753938D02*
X1969969D01*
X1947260Y1754027D02*
X1969879D01*
X1947349Y1754117D02*
X1969700D01*
X1947439Y1754207D02*
X1969610D01*
X2016145D02*
X2016907D01*
X1947528Y1754296D02*
X1969521D01*
X2015966D02*
X2017087D01*
X1947707Y1754386D02*
X1969431D01*
X2015787D02*
X2017176D01*
X1947797Y1754475D02*
X1969341D01*
X2015697D02*
X2017266D01*
X1947887Y1754565D02*
X1969162D01*
X2015697D02*
X2017355D01*
X1947976Y1754654D02*
X1969073D01*
X2015608D02*
X2017445D01*
X1948155Y1754744D02*
X1968983D01*
X2015518D02*
X2017445D01*
X1948245Y1754834D02*
X1968804D01*
X2015518D02*
X2017534D01*
X1948334Y1754923D02*
X1968714D01*
X2015518D02*
X2017534D01*
X1948514Y1755013D02*
X1968625D01*
X2015518D02*
X2017534D01*
X1948603Y1755102D02*
X1968446D01*
X2015428D02*
X2017534D01*
X1948782Y1755192D02*
X1968356D01*
X2015428D02*
X2017534D01*
X1948872Y1755282D02*
X1968177D01*
X2015428D02*
X2017534D01*
X1949051Y1755371D02*
X1968087D01*
X2015518D02*
X2017534D01*
X1949141Y1755461D02*
X1967908D01*
X2015518D02*
X2017534D01*
X1949320Y1755550D02*
X1967819D01*
X2015518D02*
X2017445D01*
X1949409Y1755640D02*
X1967639D01*
X2015518D02*
X2017445D01*
X1949589Y1755729D02*
X1967548D01*
X2015608D02*
X2017445D01*
X1949678Y1755819D02*
X1967369D01*
X2015697D02*
X2017355D01*
X1949857Y1755909D02*
X1967190D01*
X2015697D02*
X2017266D01*
X1950036Y1755998D02*
X1967011D01*
X2015787D02*
X2017176D01*
X1950216Y1756088D02*
X1966921D01*
X2015966D02*
X2017087D01*
X1950395Y1756177D02*
X1966742D01*
X2016145D02*
X2016907D01*
X1950484Y1756267D02*
X1966563D01*
X1950664Y1756356D02*
X1966384D01*
X1950843Y1756446D02*
X1966206D01*
X1951022Y1756536D02*
X1966027D01*
X1951201Y1756625D02*
X1965848D01*
X1951470Y1756715D02*
X1965669D01*
X1951649Y1756804D02*
X1965400D01*
X1951828Y1756894D02*
X1965221D01*
X1952097Y1756983D02*
X1965042D01*
X1952276Y1757073D02*
X1964773D01*
X1952545Y1757163D02*
X1964594D01*
X1952813Y1757252D02*
X1964325D01*
X1952993Y1757342D02*
X1964056D01*
X1953261Y1757431D02*
X1963788D01*
X1953620Y1757521D02*
X1963519D01*
X1953888Y1757611D02*
X1963161D01*
X1954247Y1757700D02*
X1962802D01*
X1954605Y1757790D02*
X1962442D01*
X1955053Y1757879D02*
X1962084D01*
X1955501Y1757969D02*
X1961548D01*
X1956038Y1758058D02*
X1961011D01*
X1956755Y1758148D02*
X1960294D01*
X2061393Y1729659D02*
X2062199D01*
X2063901D02*
X2064887D01*
X2066051D02*
X2066678D01*
X2068022D02*
X2068828D01*
X2061393Y1729838D02*
X2062199D01*
X2063901D02*
X2064887D01*
X2066051D02*
X2066857D01*
X2068022D02*
X2068828D01*
X2061393Y1730017D02*
X2062199D01*
X2063901D02*
X2064887D01*
X2065872D02*
X2066857D01*
X2068022D02*
X2068828D01*
X2061393Y1730196D02*
X2062199D01*
X2063901D02*
X2064887D01*
X2065872D02*
X2066857D01*
X2068022D02*
X2068828D01*
X2061393Y1730375D02*
X2062199D01*
X2063901D02*
X2064887D01*
X2065872D02*
X2067036D01*
X2068022D02*
X2068828D01*
X2061393Y1730554D02*
X2062199D01*
X2063901D02*
X2064887D01*
X2065693D02*
X2067036D01*
X2068022D02*
X2068828D01*
X2061393Y1730733D02*
X2062199D01*
X2063901D02*
X2064887D01*
X2065693D02*
X2067036D01*
X2068022D02*
X2068828D01*
X2061393Y1730913D02*
X2062199D01*
X2063901D02*
X2064887D01*
X2065693D02*
X2067216D01*
X2068022D02*
X2068828D01*
X2061393Y1731092D02*
X2062199D01*
X2063901D02*
X2064887D01*
X2065514D02*
X2067216D01*
X2068022D02*
X2068828D01*
X2061393Y1731271D02*
X2062199D01*
X2063901D02*
X2064887D01*
X2065514D02*
X2067395D01*
X2068022D02*
X2068828D01*
X2061393Y1731450D02*
X2062199D01*
X2063901D02*
X2064887D01*
X2065334D02*
X2066320D01*
X2066589D02*
X2067395D01*
X2068022D02*
X2068828D01*
X2061393Y1731629D02*
X2062199D01*
X2063901D02*
X2064887D01*
X2065334D02*
X2066141D01*
X2066589D02*
X2067395D01*
X2068022D02*
X2068828D01*
X2061393Y1731808D02*
X2062199D01*
X2063901D02*
X2064887D01*
X2065334D02*
X2066141D01*
X2066768D02*
X2067574D01*
X2068022D02*
X2068828D01*
X2061393Y1731988D02*
X2062199D01*
X2063901D02*
X2064887D01*
X2065155D02*
X2066141D01*
X2066768D02*
X2067574D01*
X2068022D02*
X2068828D01*
X2061393Y1732167D02*
X2062199D01*
X2063901D02*
X2064887D01*
X2065155D02*
X2065962D01*
X2066768D02*
X2067574D01*
X2068022D02*
X2068828D01*
X2061393Y1732346D02*
X2062199D01*
X2063901D02*
X2065962D01*
X2066947D02*
X2067753D01*
X2068022D02*
X2068828D01*
X2061393Y1732525D02*
X2062199D01*
X2063901D02*
X2065782D01*
X2066947D02*
X2067753D01*
X2068022D02*
X2068828D01*
X2061393Y1732704D02*
X2062199D01*
X2063901D02*
X2065782D01*
X2066947D02*
X2068828D01*
X2061393Y1732883D02*
X2062199D01*
X2063901D02*
X2065782D01*
X2067126D02*
X2068828D01*
X2061393Y1733062D02*
X2062199D01*
X2063901D02*
X2065603D01*
X2067126D02*
X2068828D01*
X2061393Y1733242D02*
X2062199D01*
X2063901D02*
X2065603D01*
X2067305D02*
X2068828D01*
X2060139Y1733421D02*
X2063632D01*
X2063901D02*
X2065424D01*
X2067305D02*
X2068828D01*
X2060139Y1733600D02*
X2063632D01*
X2063901D02*
X2065424D01*
X2067305D02*
X2068828D01*
X2060139Y1733779D02*
X2063632D01*
X2063901D02*
X2065424D01*
X2067484D02*
X2068828D01*
X2060139Y1733958D02*
X2063632D01*
X2063901D02*
X2065245D01*
X2067484D02*
X2068828D01*
G54D268*
X1885585Y1559519D03*
Y1549676D03*
Y1539834D03*
Y1529991D03*
Y1520149D03*
Y1510306D03*
Y1500464D03*
Y1490621D03*
X1905270Y1559519D03*
Y1549676D03*
Y1539834D03*
Y1529991D03*
Y1520149D03*
Y1510306D03*
Y1500464D03*
Y1490621D03*
G54D273*
X1965061Y1613750D03*
X1975061D03*
X1985061D03*
X2005061D03*
X2015061D03*
X2025061D03*
X1892561Y1611250D03*
X1902561D03*
X1912561D03*
G54D281*
X2062561Y1606250D03*
G54D284*
X1927561Y1556250D03*
X1958061Y1452250D03*
G54D290*
X2090061Y1443750D03*
G54D299*
X2132167Y1462687D03*
Y1429813D03*
G54D300*
X2119864Y1455010D03*
Y1437490D03*
G74*
X0Y0D02*
M02*
