*
*
G04 PADS 9.5 Build Number: 522968 generated Gerber (RS-274-X) file*
G04 PC Version=2.1*
*
%IN "MAXREFDES61_RA.pcb"*%
*
%MOIN*%
*
%FSLAX35Y35*%
*
*
*
*
G04 PC Standard Apertures*
*
*
G04 Thermal Relief Aperture macro.*
%AMTER*
1,1,$1,0,0*
1,0,$1-$2,0,0*
21,0,$3,$4,0,0,45*
21,0,$3,$4,0,0,135*
%
*
*
G04 Annular Aperture macro.*
%AMANN*
1,1,$1,0,0*
1,0,$2,0,0*
%
*
*
G04 Odd Aperture macro.*
%AMODD*
1,1,$1,0,0*
1,0,$1-0.005,0,0*
%
*
*
G04 PC Custom Aperture Macros*
*
*
*
*
*
*
G04 PC Aperture Table*
*
%ADD046C,0.015*%
%ADD198C,0.01*%
%ADD199C,0.007*%
%ADD200C,0.001*%
%ADD205C,0.006*%
%ADD206C,0.008*%
%ADD208C,0.005*%
%ADD232C,0.003*%
%ADD233C,0.002*%
*
*
*
*
G04 PC Circuitry*
G04 Layer Name MAXREFDES61_RA.pcb - circuitry*
%LPD*%
*
*
G04 PC Custom Flashes*
G04 Layer Name MAXREFDES61_RA.pcb - flashes*
%LPD*%
*
*
G04 PC Circuitry*
G04 Layer Name MAXREFDES61_RA.pcb - circuitry*
%LPD*%
*
G54D46*
G01X1822478Y1401207D02*
Y1396207D01*
Y1391207*
Y1431207D02*
Y1401207D01*
X1802478Y1416207D02*
X1797478D01*
X1807478D02*
X1802478D01*
X1822478Y1431207D02*
Y1436207D01*
X1842478Y1416207D02*
X1847478D01*
X1837478D02*
X1842478D01*
X1807478D02*
X1837478D01*
X1827478D02*
G75*
G03X1827478I-5000J0D01*
G01X1837478D02*
G03X1837478I-15000J0D01*
G01X1832478D02*
G03X1832478I-10000J0D01*
G01X1822478Y1436207D02*
Y1441207D01*
X1822439Y1625600D02*
Y1620600D01*
Y1615600*
Y1655600D02*
Y1625600D01*
X1802439Y1640600D02*
X1797439D01*
X1807439D02*
X1802439D01*
X1822439Y1655600D02*
Y1660600D01*
X1842439Y1640600D02*
X1847439D01*
X1837439D02*
X1842439D01*
X1807439D02*
X1837439D01*
X1827439D02*
G03X1827439I-5000J0D01*
G01X1837439D02*
G03X1837439I-15000J0D01*
G01X1832439D02*
G03X1832439I-10000J0D01*
G01X1822439Y1660600D02*
Y1665600D01*
X2177561Y1625699D02*
Y1620699D01*
Y1615699*
Y1655699D02*
Y1625699D01*
X2157561Y1640699D02*
X2152561D01*
X2162561D02*
X2157561D01*
X2177561Y1655699D02*
Y1660699D01*
X2197561Y1640699D02*
X2202561D01*
X2192561D02*
X2197561D01*
X2162561D02*
X2192561D01*
X2182561D02*
G03X2182561I-5000J0D01*
G01X2192561D02*
G03X2192561I-15000J0D01*
G01X2187561D02*
G03X2187561I-10000J0D01*
G01X2177561Y1660699D02*
Y1665699D01*
G54D198*
X1918061Y1586250D02*
Y1566250D01*
X1927061*
Y1586250*
X1918061*
X1974061Y1465000D02*
X1981061D01*
Y1477500*
X1974061*
Y1465000*
X1982061D02*
X1989061D01*
Y1477500*
X1982061*
Y1465000*
X1973561Y1456500D02*
X1966561D01*
Y1444000*
X1973561*
Y1456500*
X1942561Y1448500D02*
X1949561D01*
Y1461000*
X1942561*
Y1448500*
X1925061Y1539500D02*
X1918061D01*
Y1527000*
X1925061*
Y1539500*
X1964561Y1519250D02*
X1980561D01*
Y1528250*
X1964561*
Y1519250*
X1953061Y1492750D02*
Y1476750D01*
X1962061*
Y1492750*
X1953061*
X1947061Y1516250D02*
X1963061D01*
Y1525250*
X1947061*
Y1516250*
X1966311Y1539750D02*
Y1532750D01*
X1978811*
Y1539750*
X1966311*
X1940061Y1505000D02*
X1920061D01*
Y1517500*
X1940061*
Y1512750*
X1937561*
Y1509750*
X1940061*
Y1505000*
X2057311Y1502250D02*
Y1509250D01*
X2044811*
Y1502250*
X2057311*
X1952561Y1707813D02*
Y1701250D01*
Y1707813D02*
X1954606D01*
X1954606D02*
X1955288Y1707500D01*
X1955516Y1707188*
X1955516D02*
X1955743Y1706563D01*
X1955743D02*
Y1705938D01*
X1955743D02*
X1955516Y1705313D01*
X1955516D02*
X1955288Y1705000D01*
X1954606Y1704688*
X1952561D02*
X1954606D01*
X1954606D02*
X1955288Y1704375D01*
X1955516Y1704063*
X1955516D02*
X1955743Y1703438D01*
X1955743D02*
Y1702500D01*
X1955516Y1701875*
X1955288Y1701563*
X1955288D02*
X1954606Y1701250D01*
X1952561*
X1959152Y1707813D02*
X1958697Y1707500D01*
X1958243Y1706875*
X1958016Y1706250*
X1957788Y1705313*
X1957788D02*
Y1703750D01*
X1958016Y1702813*
X1958016D02*
X1958243Y1702188D01*
X1958243D02*
X1958697Y1701563D01*
X1958697D02*
X1959152Y1701250D01*
X1960061*
X1960516Y1701563*
X1960516D02*
X1960970Y1702188D01*
X1960970D02*
X1961197Y1702813D01*
X1961197D02*
X1961425Y1703750D01*
Y1705313*
X1961425D02*
X1961197Y1706250D01*
X1960970Y1706875*
X1960516Y1707500*
X1960061Y1707813*
X1960061D02*
X1959152D01*
X1965061D02*
Y1701250D01*
X1963470Y1707813D02*
X1966652D01*
X1970288D02*
Y1701250D01*
X1968697Y1707813D02*
X1971879D01*
X1975288D02*
X1974834Y1707500D01*
X1974379Y1706875*
X1974152Y1706250*
X1973925Y1705313*
X1973925D02*
Y1703750D01*
X1974152Y1702813*
X1974152D02*
X1974379Y1702188D01*
X1974379D02*
X1974834Y1701563D01*
X1974834D02*
X1975288Y1701250D01*
X1976197*
X1976652Y1701563*
X1976652D02*
X1977106Y1702188D01*
X1977106D02*
X1977334Y1702813D01*
X1977334D02*
X1977561Y1703750D01*
Y1705313*
X1977561D02*
X1977334Y1706250D01*
X1977106Y1706875*
X1976652Y1707500*
X1976197Y1707813*
X1976197D02*
X1975288D01*
X1979606D02*
Y1701250D01*
Y1707813D02*
X1981425Y1701250D01*
X1983243Y1707813D02*
X1981425Y1701250D01*
X1983243Y1707813D02*
Y1701250D01*
X1993697Y1706875D02*
X1993243Y1707500D01*
X1992561Y1707813*
X1992561D02*
X1991652D01*
X1991652D02*
X1990970Y1707500D01*
X1990516Y1706875*
Y1706250*
X1990743Y1705625*
X1990970Y1705313*
X1990970D02*
X1991425Y1705000D01*
X1992788Y1704375*
X1993243Y1704063*
X1993243D02*
X1993470Y1703750D01*
X1993697Y1703125*
Y1702188*
X1993697D02*
X1993243Y1701563D01*
X1993243D02*
X1992561Y1701250D01*
X1991652*
X1990970Y1701563*
X1990970D02*
X1990516Y1702188D01*
X1995743Y1707813D02*
Y1701250D01*
X1997788Y1707813D02*
Y1701250D01*
X2000516*
X2002561Y1707813D02*
Y1701250D01*
X2005743Y1707813D02*
X2002561Y1703438D01*
X2003697Y1705000D02*
X2005743Y1701250D01*
X2010970Y1706875D02*
X2010516Y1707500D01*
X2009834Y1707813*
X2009834D02*
X2008925D01*
X2008925D02*
X2008243Y1707500D01*
X2007788Y1706875*
Y1706250*
X2008016Y1705625*
X2008243Y1705313*
X2008243D02*
X2008697Y1705000D01*
X2010061Y1704375*
X2010516Y1704063*
X2010516D02*
X2010743Y1703750D01*
X2010970Y1703125*
Y1702188*
X2010970D02*
X2010516Y1701563D01*
X2010516D02*
X2009834Y1701250D01*
X2008925*
X2008243Y1701563*
X2008243D02*
X2007788Y1702188D01*
X2016425Y1706250D02*
X2016197Y1706875D01*
X2015743Y1707500*
X2015288Y1707813*
X2015288D02*
X2014379D01*
X2014379D02*
X2013925Y1707500D01*
X2013470Y1706875*
X2013243Y1706250*
X2013016Y1705313*
X2013016D02*
Y1703750D01*
X2013243Y1702813*
X2013243D02*
X2013470Y1702188D01*
X2013470D02*
X2013925Y1701563D01*
X2013925D02*
X2014379Y1701250D01*
X2015288*
X2015743Y1701563*
X2015743D02*
X2016197Y1702188D01*
X2016197D02*
X2016425Y1702813D01*
X2018470Y1707813D02*
Y1701250D01*
Y1707813D02*
X2020516D01*
X2020516D02*
X2021197Y1707500D01*
X2021425Y1707188*
X2021425D02*
X2021652Y1706563D01*
X2021652D02*
Y1705938D01*
X2021652D02*
X2021425Y1705313D01*
X2021425D02*
X2021197Y1705000D01*
X2020516Y1704688*
X2020516D02*
X2018470D01*
X2020061D02*
X2021652Y1701250D01*
X2023697Y1707813D02*
Y1701250D01*
Y1707813D02*
X2026652D01*
X2023697Y1704688D02*
X2025516D01*
X2023697Y1701250D02*
X2026652D01*
X2028697Y1707813D02*
Y1701250D01*
Y1707813D02*
X2031652D01*
X2028697Y1704688D02*
X2030516D01*
X2028697Y1701250D02*
X2031652D01*
X2033697Y1707813D02*
Y1701250D01*
Y1707813D02*
X2036879Y1701250D01*
Y1707813D02*
Y1701250D01*
X2037561Y1373750D02*
X2137561D01*
Y1398750*
X2037561*
Y1373750*
Y1366250D02*
X2082061D01*
X2037561D02*
X2047561Y1368750D01*
Y1363750*
X2037561Y1366250*
X2137561D02*
X2101697D01*
X2137561D02*
X2127561Y1363750D01*
Y1368750*
X2137561Y1366250*
X2037561Y1368750D02*
Y1361250D01*
X2137561Y1368750D02*
Y1361250D01*
X2039561Y1373750D02*
Y1386250D01*
X2040561Y1373750D02*
Y1386250D01*
X2041561D02*
Y1373750D01*
X2042561Y1386250D02*
Y1373750D01*
X2043561Y1386250D02*
Y1373750D01*
X2044561Y1386250D02*
Y1373750D01*
X2045561Y1386250D02*
Y1373750D01*
X2046561Y1386250D02*
Y1373750D01*
X2047561D02*
Y1386250D01*
X2048561Y1373750D02*
Y1386250D01*
X2051561D02*
Y1398750D01*
X2052561Y1386250D02*
Y1398750D01*
X2053561D02*
Y1386250D01*
X2054561Y1398750D02*
Y1386250D01*
X2055561Y1398750D02*
Y1386250D01*
X2056561Y1398750D02*
Y1386250D01*
X2057561Y1398750D02*
Y1386250D01*
X2058561Y1398750D02*
Y1386250D01*
X2059561D02*
Y1398750D01*
X2060561Y1386250D02*
Y1398750D01*
X2050061Y1373750D02*
Y1398750D01*
X2062561Y1373750D02*
Y1398750D01*
X2037561Y1386250D02*
X2137561D01*
X2112561Y1373750D02*
Y1398750D01*
X2087561Y1373750D02*
Y1398750D01*
X2038561Y1373750D02*
Y1386250D01*
X2049061Y1373750D02*
Y1386250D01*
X2051061D02*
Y1398750D01*
X2061561Y1386250D02*
Y1398750D01*
X2064561Y1386250D02*
Y1398750D01*
X2063561Y1386250D02*
Y1398750D01*
X2065561Y1386250D02*
Y1398750D01*
X2066561D02*
Y1386250D01*
X2067561Y1398750D02*
Y1386250D01*
X2068561Y1398750D02*
Y1386250D01*
X2069561Y1398750D02*
Y1386250D01*
X2070561Y1398750D02*
Y1386250D01*
X2072561D02*
Y1398750D01*
X2071561D02*
Y1386250D01*
X2073561D02*
Y1398750D01*
X2074561Y1386250D02*
Y1398750D01*
X2076561Y1386250D02*
Y1398750D01*
X2075561Y1386250D02*
Y1398750D01*
X2077561Y1386250D02*
Y1398750D01*
X2078561D02*
Y1386250D01*
X2079561Y1398750D02*
Y1386250D01*
X2080561Y1398750D02*
Y1386250D01*
X2081561Y1398750D02*
Y1386250D01*
X2082561Y1398750D02*
Y1386250D01*
X2083561Y1398750D02*
Y1386250D01*
X2084561D02*
Y1398750D01*
X2085561Y1386250D02*
Y1398750D01*
X2086561Y1386250D02*
Y1398750D01*
X2130061Y1673750D02*
Y1838750D01*
X1880061*
Y1673750*
X2130061*
X2107561Y1791250D02*
Y1766250D01*
X2130061Y1791250D02*
X1880061D01*
X2130061Y1766250D02*
X1880061D01*
X2130061Y1693750D02*
X1880061D01*
X2130061Y1716950D02*
X1880061D01*
X1995061Y1673750D02*
Y1693750D01*
X1981489Y1810326D02*
X1978762Y1805076D01*
X1982853*
X1981489Y1810326D02*
Y1802451D01*
X1987489Y1810326D02*
X1985307Y1802451D01*
X1987489Y1810326D02*
X1989671Y1802451D01*
X1986125Y1805076D02*
X1988853D01*
X1992125Y1810326D02*
Y1802451D01*
X2000853Y1807701D02*
Y1803951D01*
X2001125Y1802826*
X2001671Y1802451*
X2002489*
X2003035Y1802826*
X2003853Y1803951*
Y1807701D02*
Y1802451D01*
X2006307Y1810326D02*
Y1802451D01*
Y1810326D02*
X2008762D01*
X2009580Y1809951*
X2009853Y1809576*
X2010125Y1808826*
Y1807701*
X2009853Y1806951*
X2009580Y1806576*
X2008762Y1806201*
X2006307*
X2012580Y1810326D02*
Y1802451D01*
X2015853*
X2022398Y1808451D02*
X2022125Y1809201D01*
X2021580Y1809951*
X2021035Y1810326*
X2019944*
X2019398Y1809951*
X2018853Y1809201*
X2018580Y1808451*
X2018307Y1807326*
Y1805451*
X2018580Y1804326*
X2018853Y1803576*
X2019398Y1802826*
X2019944Y1802451*
X2021035*
X2021580Y1802826*
X2022125Y1803576*
X2022398Y1804326*
X1958762Y1829263D02*
Y1817451D01*
Y1829263D02*
X1962035Y1817451D01*
X1965307Y1829263D02*
X1962035Y1817451D01*
X1965307Y1829263D02*
Y1817451D01*
X1972262Y1829263D02*
X1968989Y1817451D01*
X1972262Y1829263D02*
X1975535Y1817451D01*
X1970216Y1821388D02*
X1974307D01*
X1979216Y1829263D02*
X1984944Y1817451D01*
Y1829263D02*
X1979216Y1817451D01*
X1988625Y1829263D02*
Y1817451D01*
Y1829263D02*
X1992307D01*
X1993535Y1828701*
X1993944Y1828138*
X1994353Y1827013*
Y1825888*
X1993944Y1824763*
X1993535Y1824201*
X1992307Y1823638*
X1988625*
X1991489D02*
X1994353Y1817451D01*
X1998035Y1829263D02*
Y1817451D01*
Y1829263D02*
X2003353D01*
X1998035Y1823638D02*
X2001307D01*
X1998035Y1817451D02*
X2003353D01*
X2007035Y1829263D02*
Y1817451D01*
Y1829263D02*
X2012353D01*
X2007035Y1823638D02*
X2010307D01*
X2016035Y1829263D02*
Y1817451D01*
Y1829263D02*
X2018898D01*
X2020125Y1828701*
X2020944Y1827576*
X2021353Y1826451*
X2021762Y1824763*
Y1821951*
X2021353Y1820263*
X2020944Y1819138*
X2020125Y1818013*
X2018898Y1817451*
X2016035*
X2025444Y1829263D02*
Y1817451D01*
Y1829263D02*
X2030762D01*
X2025444Y1823638D02*
X2028716D01*
X2025444Y1817451D02*
X2030762D01*
X2040171Y1827576D02*
X2039353Y1828701D01*
X2038125Y1829263*
X2036489*
X2035262Y1828701*
X2034444Y1827576*
Y1826451*
X2034853Y1825326*
X2035262Y1824763*
X2036080Y1824201*
X2038535Y1823076*
X2039353Y1822513*
X2039762Y1821951*
X2040171Y1820826*
Y1819138*
X2039353Y1818013*
X2038125Y1817451*
X2036489*
X2035262Y1818013*
X2034444Y1819138*
X2048762Y1827576D02*
X2048353Y1828701D01*
X2047125Y1829263*
X2046307*
X2045080Y1828701*
X2044262Y1827013*
X2043853Y1824201*
Y1821388*
X2044262Y1819138*
X2045080Y1818013*
X2046307Y1817451*
X2046716*
X2047944Y1818013*
X2048762Y1819138*
X2049171Y1820826*
Y1821388*
X2048762Y1823076*
X2047944Y1824201*
X2046716Y1824763*
X2046307*
X2045080Y1824201*
X2044262Y1823076*
X2043853Y1821388*
X2052853Y1827013D02*
X2053671Y1827576D01*
X2054898Y1829263*
Y1817451*
X2061853Y1831513D02*
X2058989Y1813513D01*
X2064307Y1831513D02*
X2061444Y1813513D01*
X2058989Y1824201D02*
X2064716D01*
X2058580Y1820826D02*
X2064307D01*
X1900061Y1785563D02*
Y1773750D01*
Y1785563D02*
X1903743D01*
X1903743D02*
X1904970Y1785000D01*
X1905379Y1784438*
X1905379D02*
X1905788Y1783313D01*
X1905788D02*
Y1781625D01*
X1905379Y1780500*
X1904970Y1779938*
X1904970D02*
X1903743Y1779375D01*
X1900061*
X1916834Y1787813D02*
X1909470Y1769812D01*
X1920516Y1785563D02*
Y1773750D01*
Y1785563D02*
X1926243Y1773750D01*
Y1785563D02*
Y1773750D01*
X1930334Y1781625D02*
X1929925Y1781063D01*
X1929925D02*
X1930334Y1780500D01*
X1930743Y1781063*
X1930743D02*
X1930334Y1781625D01*
Y1774875D02*
X1929925Y1774313D01*
X1929925D02*
X1930334Y1773750D01*
X1930743Y1774313*
X1930743D02*
X1930334Y1774875D01*
X1943834Y1785563D02*
Y1773750D01*
Y1785563D02*
X1949152D01*
X1943834Y1779938D02*
X1947106D01*
X1943834Y1773750D02*
X1949152D01*
X1952834Y1785563D02*
Y1773750D01*
Y1785563D02*
X1956516D01*
X1956516D02*
X1957743Y1785000D01*
X1958152Y1784438*
X1958152D02*
X1958561Y1783313D01*
X1958561D02*
Y1781625D01*
X1958152Y1780500*
X1957743Y1779938*
X1957743D02*
X1956516Y1779375D01*
X1952834*
X1968379Y1782750D02*
X1967970Y1783875D01*
X1967152Y1785000*
X1966334Y1785563*
X1966334D02*
X1964697D01*
X1964697D02*
X1963879Y1785000D01*
X1963061Y1783875*
X1962652Y1782750*
X1962243Y1781063*
X1962243D02*
Y1778250D01*
X1962652Y1776563*
X1962652D02*
X1963061Y1775438D01*
X1963061D02*
X1963879Y1774313D01*
X1963879D02*
X1964697Y1773750D01*
X1966334*
X1967152Y1774313*
X1967152D02*
X1967970Y1775438D01*
X1967970D02*
X1968379Y1776563D01*
X1972061Y1785563D02*
Y1773750D01*
Y1785563D02*
X1975743D01*
X1975743D02*
X1976970Y1785000D01*
X1977379Y1784438*
X1977379D02*
X1977788Y1783313D01*
X1977788D02*
Y1782188D01*
X1977788D02*
X1977379Y1781063D01*
X1977379D02*
X1976970Y1780500D01*
X1975743Y1779938*
X1972061D02*
X1975743D01*
X1975743D02*
X1976970Y1779375D01*
X1977379Y1778813*
X1977379D02*
X1977788Y1777688D01*
X1977788D02*
Y1776000D01*
X1977379Y1774875*
X1976970Y1774313*
X1976970D02*
X1975743Y1773750D01*
X1972061*
X1981470Y1785563D02*
Y1773750D01*
Y1785563D02*
X1985152D01*
X1985152D02*
X1986379Y1785000D01*
X1986788Y1784438*
X1986788D02*
X1987197Y1783313D01*
X1987197D02*
Y1782188D01*
X1987197D02*
X1986788Y1781063D01*
X1986788D02*
X1986379Y1780500D01*
X1985152Y1779938*
X1985152D02*
X1981470D01*
X1984334D02*
X1987197Y1773750D01*
X1990879Y1785563D02*
Y1773750D01*
Y1785563D02*
X1996197D01*
X1990879Y1779938D02*
X1994152D01*
X1990879Y1773750D02*
X1996197D01*
X1999879Y1785563D02*
Y1773750D01*
Y1785563D02*
X2005197D01*
X1999879Y1779938D02*
X2003152D01*
X2008879Y1785563D02*
Y1773750D01*
Y1785563D02*
X2011743D01*
X2011743D02*
X2012970Y1785000D01*
X2013788Y1783875*
X2014197Y1782750*
X2014606Y1781063*
X2014606D02*
Y1778250D01*
X2014197Y1776563*
X2014197D02*
X2013788Y1775438D01*
X2013788D02*
X2012970Y1774313D01*
X2012970D02*
X2011743Y1773750D01*
X2008879*
X2018288Y1785563D02*
Y1773750D01*
Y1785563D02*
X2023606D01*
X2018288Y1779938D02*
X2021561D01*
X2018288Y1773750D02*
X2023606D01*
X2033016Y1783875D02*
X2032197Y1785000D01*
X2030970Y1785563*
X2030970D02*
X2029334D01*
X2029334D02*
X2028106Y1785000D01*
X2027288Y1783875*
Y1782750*
X2027697Y1781625*
X2028106Y1781063*
X2028106D02*
X2028925Y1780500D01*
X2031379Y1779375*
X2032197Y1778813*
X2032197D02*
X2032606Y1778250D01*
X2033016Y1777125*
Y1775438*
X2033016D02*
X2032197Y1774313D01*
X2032197D02*
X2030970Y1773750D01*
X2029334*
X2028106Y1774313*
X2028106D02*
X2027288Y1775438D01*
X2041606Y1783875D02*
X2041197Y1785000D01*
X2039970Y1785563*
X2039970D02*
X2039152D01*
X2039152D02*
X2037925Y1785000D01*
X2037106Y1783313*
X2037106D02*
X2036697Y1780500D01*
Y1777688*
X2036697D02*
X2037106Y1775438D01*
X2037106D02*
X2037925Y1774313D01*
X2037925D02*
X2039152Y1773750D01*
X2039561*
X2040788Y1774313*
X2040788D02*
X2041606Y1775438D01*
X2041606D02*
X2042016Y1777125D01*
Y1777688*
X2042016D02*
X2041606Y1779375D01*
X2040788Y1780500*
X2039561Y1781063*
X2039561D02*
X2039152D01*
X2039152D02*
X2037925Y1780500D01*
X2037106Y1779375*
X2036697Y1777688*
X2045697Y1783313D02*
X2046516Y1783875D01*
X2047743Y1785563*
X2047743D02*
Y1773750D01*
X2117788Y1778594D02*
X2115061Y1768750D01*
X2117788Y1778594D02*
X2120516Y1768750D01*
X2116084Y1772031D02*
X2119493D01*
X2011879Y1685313D02*
X2010061Y1678750D01*
X2011879Y1685313D02*
X2013697Y1678750D01*
X2010743Y1680938D02*
X2013016D01*
X2015743Y1685313D02*
Y1678750D01*
X2018470*
X2020516Y1685313D02*
Y1678750D01*
X2023243*
X2030516Y1685313D02*
Y1680625D01*
X2030743Y1679688*
X2030743D02*
X2031197Y1679063D01*
X2031197D02*
X2031879Y1678750D01*
X2032334*
X2033016Y1679063*
X2033016D02*
X2033470Y1679688D01*
X2033470D02*
X2033697Y1680625D01*
Y1685313*
X2035743D02*
Y1678750D01*
Y1685313D02*
X2038925Y1678750D01*
Y1685313D02*
Y1678750D01*
X2040970Y1685313D02*
Y1678750D01*
X2044606Y1685313D02*
Y1678750D01*
X2043016Y1685313D02*
X2046197D01*
X2051425Y1684375D02*
X2050970Y1685000D01*
X2050288Y1685313*
X2050288D02*
X2049379D01*
X2049379D02*
X2048697Y1685000D01*
X2048243Y1684375*
Y1683750*
X2048470Y1683125*
X2048697Y1682813*
X2048697D02*
X2049152Y1682500D01*
X2050516Y1681875*
X2050970Y1681563*
X2050970D02*
X2051197Y1681250D01*
X2051425Y1680625*
Y1679688*
X2051425D02*
X2050970Y1679063D01*
X2050970D02*
X2050288Y1678750D01*
X2049379*
X2048697Y1679063*
X2048697D02*
X2048243Y1679688D01*
X2060516Y1685313D02*
X2058697Y1678750D01*
X2060516Y1685313D02*
X2062334Y1678750D01*
X2059379Y1680938D02*
X2061652D01*
X2064379Y1685313D02*
Y1678750D01*
Y1685313D02*
X2066425D01*
X2066425D02*
X2067106Y1685000D01*
X2067334Y1684688*
X2067334D02*
X2067561Y1684063D01*
X2067561D02*
Y1683438D01*
X2067561D02*
X2067334Y1682813D01*
X2067334D02*
X2067106Y1682500D01*
X2066425Y1682188*
X2066425D02*
X2064379D01*
X2065970D02*
X2067561Y1678750D01*
X2069606Y1685313D02*
Y1678750D01*
Y1685313D02*
X2072561D01*
X2069606Y1682188D02*
X2071425D01*
X2069606Y1678750D02*
X2072561D01*
X2079834Y1685313D02*
Y1678750D01*
X2081879Y1685313D02*
Y1678750D01*
Y1685313D02*
X2085061Y1678750D01*
Y1685313D02*
Y1678750D01*
X2093697Y1685313D02*
X2093016Y1685000D01*
X2092561Y1684063*
X2092561D02*
X2092334Y1682500D01*
Y1681563*
X2092334D02*
X2092561Y1680000D01*
X2093016Y1679063*
X2093016D02*
X2093697Y1678750D01*
X2094152*
X2094834Y1679063*
X2094834D02*
X2095288Y1680000D01*
X2095516Y1681563*
X2095516D02*
Y1682500D01*
X2095288Y1684063*
X2095288D02*
X2094834Y1685000D01*
X2094152Y1685313*
X2094152D02*
X2093697D01*
X2097788Y1679375D02*
X2097561Y1679063D01*
X2097561D02*
X2097788Y1678750D01*
X2098016Y1679063*
X2098016D02*
X2097788Y1679375D01*
X2101425Y1685313D02*
X2100743Y1685000D01*
X2100288Y1684063*
X2100288D02*
X2100061Y1682500D01*
Y1681563*
X2100061D02*
X2100288Y1680000D01*
X2100743Y1679063*
X2100743D02*
X2101425Y1678750D01*
X2101879*
X2102561Y1679063*
X2102561D02*
X2103016Y1680000D01*
X2103243Y1681563*
X2103243D02*
Y1682500D01*
X2103016Y1684063*
X2103016D02*
X2102561Y1685000D01*
X2101879Y1685313*
X2101879D02*
X2101425D01*
X2106652D02*
X2105970Y1685000D01*
X2105516Y1684063*
X2105516D02*
X2105288Y1682500D01*
Y1681563*
X2105288D02*
X2105516Y1680000D01*
X2105970Y1679063*
X2105970D02*
X2106652Y1678750D01*
X2107106*
X2107788Y1679063*
X2107788D02*
X2108243Y1680000D01*
X2108470Y1681563*
X2108470D02*
Y1682500D01*
X2108243Y1684063*
X2108243D02*
X2107788Y1685000D01*
X2107106Y1685313*
X2107106D02*
X2106652D01*
X2110516Y1684063D02*
X2110970Y1684375D01*
X2111652Y1685313*
X2111652D02*
Y1678750D01*
X2113697Y1685313D02*
Y1683125D01*
X2115516Y1685313D02*
Y1683125D01*
G54D199*
X1899061Y1492844D02*
Y1488250D01*
X1897470Y1491750D02*
Y1491969D01*
X1897311Y1492406*
X1897152Y1492625*
X1896834Y1492844*
X1896197*
X1895879Y1492625*
X1895720Y1492406*
X1895561Y1491969*
Y1491531*
X1895720Y1491094*
X1896038Y1490438*
X1896038D02*
X1897629Y1488250D01*
X1895402*
X1892538Y1492188D02*
Y1488250D01*
X1893970Y1490219D02*
X1891106D01*
X1899061Y1502844D02*
Y1498250D01*
X1897470Y1501750D02*
Y1501969D01*
X1897311Y1502406*
X1897152Y1502625*
X1896834Y1502844*
X1896197*
X1895879Y1502625*
X1895720Y1502406*
X1895561Y1501969*
Y1501531*
X1895720Y1501094*
X1896038Y1500438*
X1896038D02*
X1897629Y1498250D01*
X1895402*
X1893970Y1500219D02*
X1891106D01*
X1899061Y1512844D02*
Y1508250D01*
X1897629Y1511969D02*
X1897311Y1512188D01*
X1897311D02*
X1896834Y1512844D01*
Y1508250*
X1893970Y1512188D02*
Y1508250D01*
X1895402Y1510219D02*
X1892538D01*
X1899061Y1522844D02*
Y1518250D01*
X1897629Y1521969D02*
X1897311Y1522188D01*
X1897311D02*
X1896834Y1522844D01*
Y1518250*
X1895402Y1520219D02*
X1892538D01*
X1899061Y1532844D02*
X1897788Y1528250D01*
X1896516Y1532844D02*
X1897788Y1528250D01*
X1895084Y1531969D02*
X1894766Y1532188D01*
X1894766D02*
X1894288Y1532844D01*
Y1528250*
X1898175Y1541250D02*
X1898334Y1541688D01*
X1898334D02*
X1898652Y1542125D01*
X1898970Y1542344*
X1899606*
X1899925Y1542125*
X1900243Y1541688*
X1900243D02*
X1900402Y1541250D01*
X1900561Y1540594*
Y1539500*
X1900402Y1538844*
X1900243Y1538406*
X1899925Y1537969*
X1899606Y1537750*
X1898970*
X1898652Y1537969*
X1898334Y1538406*
X1898175Y1538844*
Y1539500*
X1898970D02*
X1898175D01*
X1896743Y1542344D02*
Y1537750D01*
Y1542344D02*
X1894516Y1537750D01*
Y1542344D02*
Y1537750D01*
X1893084Y1542344D02*
Y1537750D01*
Y1542344D02*
X1891970D01*
X1891493Y1542125*
X1891175Y1541688*
X1891175D02*
X1891016Y1541250D01*
X1890856Y1540594*
Y1539500*
X1891016Y1538844*
X1891175Y1538406*
X1891493Y1537969*
X1891970Y1537750*
X1893084*
X1899061Y1552844D02*
X1897788Y1548250D01*
X1896516Y1552844D02*
X1897788Y1548250D01*
X1894925Y1551750D02*
Y1551969D01*
X1894766Y1552406*
X1894606Y1552625*
X1894288Y1552844*
X1893652*
X1893334Y1552625*
X1893175Y1552406*
X1893016Y1551969*
Y1551531*
X1893175Y1551094*
X1893493Y1550438*
X1893493D02*
X1895084Y1548250D01*
X1892856*
X1898175Y1560750D02*
X1898334Y1561188D01*
X1898334D02*
X1898652Y1561625D01*
X1898970Y1561844*
X1899606*
X1899925Y1561625*
X1900243Y1561188*
X1900243D02*
X1900402Y1560750D01*
X1900561Y1560094*
Y1559000*
X1900402Y1558344*
X1900243Y1557906*
X1899925Y1557469*
X1899606Y1557250*
X1898970*
X1898652Y1557469*
X1898334Y1557906*
X1898175Y1558344*
Y1559000*
X1898970D02*
X1898175D01*
X1896743Y1561844D02*
Y1557250D01*
Y1561844D02*
X1894516Y1557250D01*
Y1561844D02*
Y1557250D01*
X1893084Y1561844D02*
Y1557250D01*
Y1561844D02*
X1891970D01*
X1891493Y1561625*
X1891175Y1561188*
X1891175D02*
X1891016Y1560750D01*
X1890856Y1560094*
Y1559000*
X1891016Y1558344*
X1891175Y1557906*
X1891493Y1557469*
X1891970Y1557250*
X1893084*
X1887561Y1690844D02*
Y1686250D01*
Y1690844D02*
X1888675D01*
X1889152Y1690625*
X1889470Y1690188*
X1889470D02*
X1889629Y1689750D01*
X1889788Y1689094*
Y1688000*
X1889629Y1687344*
X1889470Y1686906*
X1889152Y1686469*
X1888675Y1686250*
X1887561*
X1892493Y1690844D02*
X1891220Y1686250D01*
X1892493Y1690844D02*
X1893766Y1686250D01*
X1891697Y1687781D02*
X1893288D01*
X1896311Y1690844D02*
Y1686250D01*
X1895197Y1690844D02*
X1897425D01*
X1898856D02*
Y1686250D01*
Y1690844D02*
X1900925D01*
X1898856Y1688656D02*
X1900129D01*
X1898856Y1686250D02*
X1900925D01*
X1902516Y1689313D02*
X1902356Y1689094D01*
X1902516Y1688875*
X1902675Y1689094*
X1902516Y1689313*
Y1686688D02*
X1902356Y1686469D01*
X1902516Y1686250*
X1902675Y1686469*
X1902516Y1686688*
X1887561Y1713344D02*
Y1708750D01*
X1889470*
X1892175Y1713344D02*
X1890902Y1708750D01*
X1892175Y1713344D02*
X1893447Y1708750D01*
X1891379Y1710281D02*
X1892970D01*
X1894879Y1713344D02*
X1896152Y1711156D01*
Y1708750*
X1897425Y1713344D02*
X1896152Y1711156D01*
X1898856Y1713344D02*
Y1708750D01*
Y1713344D02*
X1900925D01*
X1898856Y1711156D02*
X1900129D01*
X1898856Y1708750D02*
X1900925D01*
X1902356Y1713344D02*
Y1708750D01*
Y1713344D02*
X1903788D01*
X1904266Y1713125*
X1904425Y1712906*
X1904584Y1712469*
Y1712031*
X1904425Y1711594*
X1904266Y1711375*
X1903788Y1711156*
X1902356*
X1903470D02*
X1904584Y1708750D01*
X2112561Y1788344D02*
Y1783750D01*
Y1788344D02*
X2113993D01*
X2114470Y1788125*
X2114629Y1787906*
X2114788Y1787469*
Y1787031*
X2114629Y1786594*
X2114470Y1786375*
X2113993Y1786156*
X2112561*
X2113675D02*
X2114788Y1783750D01*
X2116220Y1788344D02*
Y1783750D01*
Y1788344D02*
X2118288D01*
X2116220Y1786156D02*
X2117493D01*
X2116220Y1783750D02*
X2118288D01*
X2119720Y1788344D02*
X2120993Y1783750D01*
X2122266Y1788344D02*
X2120993Y1783750D01*
G54D200*
X2037561Y1373750D02*
X2037564D01*
X2137561D02*
X2137564D01*
G54D205*
X1948061Y1512688D02*
Y1509875D01*
X1947925Y1509313*
X1947925D02*
X1947652Y1508938D01*
X1947652D02*
X1947243Y1508750D01*
X1946970*
X1946561Y1508938*
X1946561D02*
X1946288Y1509313D01*
X1946288D02*
X1946152Y1509875D01*
Y1512688*
X1944925Y1511938D02*
X1944652Y1512125D01*
X1944243Y1512688*
X1944243D02*
Y1508750D01*
X1943016Y1511938D02*
X1942743Y1512125D01*
X1942334Y1512688*
X1942334D02*
Y1508750D01*
X1987561Y1438688D02*
Y1434750D01*
Y1438688D02*
X1986334D01*
X1986334D02*
X1985925Y1438500D01*
X1985788Y1438313*
X1985788D02*
X1985652Y1437938D01*
X1985652D02*
Y1437375D01*
X1985788Y1437000*
X1985925Y1436813*
X1985925D02*
X1986334Y1436625D01*
X1987561*
X1981970Y1439438D02*
X1984425Y1433437D01*
X1980743Y1438688D02*
Y1434750D01*
Y1438688D02*
X1978834Y1434750D01*
Y1438688D02*
Y1434750D01*
X1977470Y1437375D02*
X1977606Y1437188D01*
X1977606D02*
X1977470Y1437000D01*
X1977334Y1437188*
X1977334D02*
X1977470Y1437375D01*
Y1435125D02*
X1977606Y1434938D01*
X1977606D02*
X1977470Y1434750D01*
X1977334Y1434938*
X1977334D02*
X1977470Y1435125D01*
X1972970Y1438688D02*
Y1434750D01*
Y1438688D02*
X1971197D01*
X1972970Y1436813D02*
X1971879D01*
X1972970Y1434750D02*
X1971197D01*
X1969970Y1438688D02*
Y1434750D01*
Y1438688D02*
X1968743D01*
X1968743D02*
X1968334Y1438500D01*
X1968197Y1438313*
X1968197D02*
X1968061Y1437938D01*
X1968061D02*
Y1437375D01*
X1968197Y1437000*
X1968334Y1436813*
X1968334D02*
X1968743Y1436625D01*
X1969970*
X1964788Y1437750D02*
X1964925Y1438125D01*
X1965197Y1438500*
X1965470Y1438688*
X1965470D02*
X1966016D01*
X1966016D02*
X1966288Y1438500D01*
X1966561Y1438125*
X1966697Y1437750*
X1966834Y1437188*
X1966834D02*
Y1436250D01*
X1966697Y1435688*
X1966697D02*
X1966561Y1435313D01*
X1966561D02*
X1966288Y1434938D01*
X1966288D02*
X1966016Y1434750D01*
X1965470*
X1965197Y1434938*
X1965197D02*
X1964925Y1435313D01*
X1964925D02*
X1964788Y1435688D01*
X1963561Y1438688D02*
Y1434750D01*
Y1438688D02*
X1962334D01*
X1962334D02*
X1961925Y1438500D01*
X1961788Y1438313*
X1961788D02*
X1961652Y1437938D01*
X1961652D02*
Y1437563D01*
X1961652D02*
X1961788Y1437188D01*
X1961788D02*
X1961925Y1437000D01*
X1962334Y1436813*
X1963561D02*
X1962334D01*
X1962334D02*
X1961925Y1436625D01*
X1961788Y1436438*
X1961788D02*
X1961652Y1436063D01*
X1961652D02*
Y1435500D01*
X1961788Y1435125*
X1961925Y1434938*
X1961925D02*
X1962334Y1434750D01*
X1963561*
X1960425Y1438688D02*
Y1434750D01*
Y1438688D02*
X1959197D01*
X1959197D02*
X1958788Y1438500D01*
X1958652Y1438313*
X1958652D02*
X1958516Y1437938D01*
X1958516D02*
Y1437563D01*
X1958516D02*
X1958652Y1437188D01*
X1958652D02*
X1958788Y1437000D01*
X1959197Y1436813*
X1959197D02*
X1960425D01*
X1959470D02*
X1958516Y1434750D01*
X1957288Y1438688D02*
Y1434750D01*
Y1438688D02*
X1955516D01*
X1957288Y1436813D02*
X1956197D01*
X1957288Y1434750D02*
X1955516D01*
X1954288Y1438688D02*
Y1434750D01*
Y1438688D02*
X1952516D01*
X1954288Y1436813D02*
X1953197D01*
X1951288Y1438688D02*
Y1434750D01*
Y1438688D02*
X1950334D01*
X1950334D02*
X1949925Y1438500D01*
X1949652Y1438125*
X1949516Y1437750*
X1949379Y1437188*
X1949379D02*
Y1436250D01*
X1949516Y1435688*
X1949516D02*
X1949652Y1435313D01*
X1949652D02*
X1949925Y1434938D01*
X1949925D02*
X1950334Y1434750D01*
X1951288*
X1948152Y1438688D02*
Y1434750D01*
Y1438688D02*
X1946379D01*
X1948152Y1436813D02*
X1947061D01*
X1948152Y1434750D02*
X1946379D01*
X1943243Y1438125D02*
X1943516Y1438500D01*
X1943925Y1438688*
X1943925D02*
X1944470D01*
X1944470D02*
X1944879Y1438500D01*
X1945152Y1438125*
Y1437750*
X1945016Y1437375*
X1944879Y1437188*
X1944879D02*
X1944606Y1437000D01*
X1943788Y1436625*
X1943516Y1436438*
X1943516D02*
X1943379Y1436250D01*
X1943243Y1435875*
Y1435313*
X1943243D02*
X1943516Y1434938D01*
X1943516D02*
X1943925Y1434750D01*
X1944470*
X1944879Y1434938*
X1944879D02*
X1945152Y1435313D01*
X1940379Y1438125D02*
X1940516Y1438500D01*
X1940925Y1438688*
X1940925D02*
X1941197D01*
X1941197D02*
X1941606Y1438500D01*
X1941879Y1437938*
X1941879D02*
X1942016Y1437000D01*
Y1436063*
X1942016D02*
X1941879Y1435313D01*
X1941879D02*
X1941606Y1434938D01*
X1941606D02*
X1941197Y1434750D01*
X1941061*
X1940652Y1434938*
X1940652D02*
X1940379Y1435313D01*
X1940379D02*
X1940243Y1435875D01*
Y1436063*
X1940243D02*
X1940379Y1436625D01*
X1940652Y1437000*
X1941061Y1437188*
X1941061D02*
X1941197D01*
X1941197D02*
X1941606Y1437000D01*
X1941879Y1436625*
X1942016Y1436063*
X1939016Y1437938D02*
X1938743Y1438125D01*
X1938334Y1438688*
X1938334D02*
Y1434750D01*
X1972561Y1432688D02*
Y1428750D01*
Y1432688D02*
X1971334D01*
X1971334D02*
X1970925Y1432500D01*
X1970788Y1432313*
X1970788D02*
X1970652Y1431938D01*
X1970652D02*
Y1431563D01*
X1970652D02*
X1970788Y1431188D01*
X1970788D02*
X1970925Y1431000D01*
X1971334Y1430813*
X1971334D02*
X1972561D01*
X1971606D02*
X1970652Y1428750D01*
X1969425Y1432688D02*
Y1428750D01*
Y1432688D02*
X1967652D01*
X1969425Y1430813D02*
X1968334D01*
X1969425Y1428750D02*
X1967652D01*
X1966425Y1432688D02*
X1965334Y1428750D01*
X1964243Y1432688D02*
X1965334Y1428750D01*
X1963016Y1430438D02*
X1960561D01*
X1958243Y1432688D02*
X1959334Y1428750D01*
X1958243Y1432688D02*
X1957152Y1428750D01*
X1958925Y1430063D02*
X1957561D01*
X1925652Y1432688D02*
X1927016Y1428750D01*
X1927561Y1432688D02*
X1925652D01*
X1921970Y1433438D02*
X1924425Y1427437D01*
X1920743Y1431938D02*
X1920470Y1432125D01*
X1920061Y1432688*
X1920061D02*
Y1428750D01*
X1917470Y1432688D02*
X1918834Y1430063D01*
X1918834D02*
X1916788D01*
X1917470Y1432688D02*
Y1428750D01*
X1910379Y1431750D02*
X1910516Y1432125D01*
X1910788Y1432500*
X1911061Y1432688*
X1911061D02*
X1911606D01*
X1911606D02*
X1911879Y1432500D01*
X1912152Y1432125*
X1912288Y1431750*
X1912425Y1431188*
X1912425D02*
Y1430250D01*
X1912288Y1429688*
X1912288D02*
X1912152Y1429313D01*
X1912152D02*
X1911879Y1428938D01*
X1911879D02*
X1911606Y1428750D01*
X1911061*
X1910788Y1428938*
X1910788D02*
X1910516Y1429313D01*
X1910516D02*
X1910379Y1429688D01*
X1910379D02*
Y1430250D01*
X1911061D02*
X1910379D01*
X1909152Y1432688D02*
Y1428750D01*
X1907516*
X1903834Y1433438D02*
X1906288Y1427437D01*
X1901788Y1432688D02*
X1902061Y1432500D01*
X1902334Y1432125*
X1902470Y1431750*
X1902606Y1431188*
X1902606D02*
Y1430250D01*
X1902470Y1429688*
X1902470D02*
X1902334Y1429313D01*
X1902334D02*
X1902061Y1428938D01*
X1902061D02*
X1901788Y1428750D01*
X1901243*
X1900970Y1428938*
X1900970D02*
X1900697Y1429313D01*
X1900697D02*
X1900561Y1429688D01*
X1900561D02*
X1900425Y1430250D01*
Y1431188*
X1900425D02*
X1900561Y1431750D01*
X1900697Y1432125*
X1900970Y1432500*
X1901243Y1432688*
X1901243D02*
X1901788D01*
X1899197D02*
Y1428750D01*
X1897561*
G54D206*
X1959561Y1556250D02*
Y1559050D01*
X1955561*
Y1556250*
X2024561Y1576250D02*
Y1579050D01*
X2020561*
Y1576250*
X1940061Y1580250D02*
Y1577450D01*
X1944061*
Y1580250*
X1938061Y1605750D02*
Y1602950D01*
X1942061*
Y1605750*
G54D208*
X2048861Y1557250D02*
X2057261D01*
Y1553250*
X2048861*
Y1557250*
X2063361Y1570750D02*
X2071761D01*
Y1566750*
X2063361*
Y1570750*
X2028061Y1534950D02*
Y1526550D01*
X2024061*
Y1534950*
X2028061*
X1939261Y1527250D02*
X1930861D01*
Y1531250*
X1939261*
Y1527250*
X1954261Y1560250D02*
X1945861D01*
Y1564250*
X1954261*
Y1560250*
X1936261Y1571750D02*
X1927861D01*
Y1575750*
X1936261*
Y1571750*
X1943361Y1607750D02*
X1951761D01*
Y1603750*
X1943361*
Y1607750*
X2057261Y1548250D02*
X2048861D01*
Y1552250*
X2057261*
Y1548250*
X2072561Y1546450D02*
Y1538050D01*
X2068561*
Y1546450*
X2072561*
X2074261Y1523750D02*
X2065861D01*
Y1527750*
X2074261*
Y1523750*
X2065861Y1532750D02*
X2074261D01*
Y1528750*
X2065861*
Y1532750*
X2055761Y1517750D02*
X2047361D01*
Y1521750*
X2055761*
Y1517750*
X2047361Y1516750D02*
X2055761D01*
Y1512750*
X2047361*
Y1516750*
X2093061Y1535450D02*
Y1527050D01*
X2089061*
Y1535450*
X2093061*
X1935761Y1542250D02*
X1927361D01*
Y1546250*
X1935761*
Y1542250*
X2025861Y1584250D02*
X2034261D01*
Y1580250*
X2025861*
Y1584250*
X1954261Y1555250D02*
X1945861D01*
Y1559250*
X1954261*
Y1555250*
X1936261Y1576750D02*
X1927861D01*
Y1580750*
X1936261*
Y1576750*
X1943361Y1602750D02*
X1951761D01*
Y1598750*
X1943361*
Y1602750*
X2074261Y1515750D02*
X2065861D01*
Y1519750*
X2074261*
Y1515750*
X2025861Y1579250D02*
X2034261D01*
Y1575250*
X2025861*
Y1579250*
X2055761Y1525750D02*
X2047361D01*
Y1529750*
X2055761*
Y1525750*
X2063561Y1515450D02*
Y1507050D01*
X2059561*
Y1515450*
X2063561*
X1915561Y1571955D02*
X1915874Y1571841D01*
X1916186Y1571614*
X1916342Y1571386*
Y1570932*
X1916186Y1570705*
X1915874Y1570477*
X1915561Y1570364*
X1915092Y1570250*
X1914311*
X1913842Y1570364*
X1913530Y1570477*
X1913217Y1570705*
X1913061Y1570932*
Y1571386*
X1913217Y1571614*
X1913530Y1571841*
X1913842Y1571955*
X1916342Y1574455D02*
Y1573318D01*
X1914936Y1573205*
X1915092Y1573318*
X1915249Y1573659*
Y1574000*
X1915092Y1574341*
X1914780Y1574568*
X1914311Y1574682*
X1913999Y1574568*
X1913530Y1574455*
X1913217Y1574227*
X1913061Y1573886*
Y1573545*
X1913217Y1573205*
X1913374Y1573091*
X1913686Y1572977*
X1916342Y1577295D02*
X1913061Y1576159D01*
X1916342Y1575705D02*
Y1577295D01*
X2054856Y1563250D02*
X2054970Y1563562D01*
X2054970D02*
X2055197Y1563875D01*
X2055425Y1564031*
X2055879*
X2056106Y1563875*
X2056334Y1563562*
X2056334D02*
X2056447Y1563250D01*
X2056561Y1562781*
Y1562000*
X2056447Y1561531*
X2056334Y1561219*
X2056106Y1560906*
X2055879Y1560750*
X2055425*
X2055197Y1560906*
X2054970Y1561219*
X2054856Y1561531*
X2053606Y1564031D02*
X2052356D01*
X2053038Y1562781*
X2052697*
X2052470Y1562625*
X2052356Y1562469*
X2052243Y1562000*
Y1561687*
X2052243D02*
X2052356Y1561219D01*
X2052584Y1560906*
X2052925Y1560750*
X2053266*
X2053606Y1560906*
X2053720Y1561062*
X2053720D02*
X2053834Y1561375D01*
X2050084Y1564031D02*
X2051220Y1561844D01*
X2049516*
X2050084Y1564031D02*
Y1560750D01*
X2069356Y1564750D02*
X2069470Y1565063D01*
X2069470D02*
X2069697Y1565375D01*
X2069925Y1565531*
X2070379*
X2070606Y1565375*
X2070834Y1565063*
X2070834D02*
X2070947Y1564750D01*
X2071061Y1564281*
Y1563500*
X2070947Y1563031*
X2070834Y1562719*
X2070606Y1562406*
X2070379Y1562250*
X2069925*
X2069697Y1562406*
X2069470Y1562719*
X2069356Y1563031*
X2068106Y1565531D02*
X2066856D01*
X2067538Y1564281*
X2067197*
X2066970Y1564125*
X2066856Y1563969*
X2066743Y1563500*
Y1563188*
X2066743D02*
X2066856Y1562719D01*
X2067084Y1562406*
X2067425Y1562250*
X2067766*
X2068106Y1562406*
X2068220Y1562563*
X2068220D02*
X2068334Y1562875D01*
X2064243Y1564438D02*
X2064356Y1563969D01*
X2064584Y1563656*
X2064925Y1563500*
X2065038*
X2065379Y1563656*
X2065606Y1563969*
X2065720Y1564438*
X2065720D02*
Y1564594D01*
X2065606Y1565063*
X2065606D02*
X2065379Y1565375D01*
X2065038Y1565531*
X2064925*
X2064584Y1565375*
X2064356Y1565063*
X2064356D02*
X2064243Y1564438D01*
X2064243D02*
Y1563656D01*
X2064356Y1562875*
X2064584Y1562406*
X2064925Y1562250*
X2065152*
X2065493Y1562406*
X2065606Y1562719*
X2031561Y1528955D02*
X2031874Y1528841D01*
X2032186Y1528614*
X2032342Y1528386*
Y1527932*
X2032186Y1527705*
X2031874Y1527477*
X2031561Y1527364*
X2031092Y1527250*
X2030311*
X2029842Y1527364*
X2029530Y1527477*
X2029217Y1527705*
X2029061Y1527932*
Y1528386*
X2029217Y1528614*
X2029530Y1528841*
X2029842Y1528955*
X2032342Y1531114D02*
X2030155Y1529977D01*
Y1531682*
X2032342Y1531114D02*
X2029061D01*
X2031561Y1532818D02*
X2031717D01*
X2032030Y1532932*
X2032186Y1533045*
X2032342Y1533273*
Y1533727*
X2032186Y1533955*
X2032030Y1534068*
X2031717Y1534182*
X2031405*
X2031092Y1534068*
X2030624Y1533841*
X2029061Y1532705*
Y1534295*
X1945356Y1530250D02*
X1945470Y1530563D01*
X1945470D02*
X1945697Y1530875D01*
X1945925Y1531031*
X1946379*
X1946606Y1530875*
X1946834Y1530563*
X1946834D02*
X1946947Y1530250D01*
X1947061Y1529781*
Y1529000*
X1946947Y1528531*
X1946834Y1528219*
X1946606Y1527906*
X1946379Y1527750*
X1945925*
X1945697Y1527906*
X1945470Y1528219*
X1945356Y1528531*
X1942856Y1531031D02*
X1943993D01*
X1944106Y1529625*
X1943993Y1529781*
X1943652Y1529938*
X1943652D02*
X1943311D01*
X1943311D02*
X1942970Y1529781D01*
X1942743Y1529469*
X1942629Y1529000*
X1942743Y1528688*
X1942743D02*
X1942856Y1528219D01*
X1943084Y1527906*
X1943425Y1527750*
X1943766*
X1944106Y1527906*
X1944220Y1528063*
X1944220D02*
X1944334Y1528375D01*
X1940470Y1531031D02*
X1941606Y1528844D01*
X1939902*
X1940470Y1531031D02*
Y1527750D01*
X1951856Y1567750D02*
X1951970Y1568063D01*
X1951970D02*
X1952197Y1568375D01*
X1952425Y1568531*
X1952879*
X1953106Y1568375*
X1953334Y1568063*
X1953334D02*
X1953447Y1567750D01*
X1953561Y1567281*
Y1566500*
X1953447Y1566031*
X1953334Y1565719*
X1953106Y1565406*
X1952879Y1565250*
X1952425*
X1952197Y1565406*
X1951970Y1565719*
X1951856Y1566031*
X1949243Y1568531D02*
X1950379Y1565250D01*
X1950834Y1568531D02*
X1949243D01*
X1947993D02*
X1946743D01*
X1947425Y1567281*
X1947084*
X1946856Y1567125*
X1946743Y1566969*
X1946629Y1566500*
Y1566188*
X1946629D02*
X1946743Y1565719D01*
X1946970Y1565406*
X1947311Y1565250*
X1947652*
X1947993Y1565406*
X1948106Y1565563*
X1948106D02*
X1948220Y1565875D01*
X1936356Y1569750D02*
X1936470Y1570063D01*
X1936470D02*
X1936697Y1570375D01*
X1936925Y1570531*
X1937379*
X1937606Y1570375*
X1937834Y1570063*
X1937834D02*
X1937947Y1569750D01*
X1938061Y1569281*
Y1568500*
X1937947Y1568031*
X1937834Y1567719*
X1937606Y1567406*
X1937379Y1567250*
X1936925*
X1936697Y1567406*
X1936470Y1567719*
X1936356Y1568031*
X1933743Y1570531D02*
X1934879Y1567250D01*
X1935334Y1570531D02*
X1933743D01*
X1931584D02*
X1932720Y1568344D01*
X1931016*
X1931584Y1570531D02*
Y1567250D01*
X1953356Y1611250D02*
X1953470Y1611562D01*
X1953470D02*
X1953697Y1611875D01*
X1953925Y1612031*
X1954379*
X1954606Y1611875*
X1954834Y1611562*
X1954834D02*
X1954947Y1611250D01*
X1955061Y1610781*
Y1610000*
X1954947Y1609531*
X1954834Y1609219*
X1954606Y1608906*
X1954379Y1608750*
X1953925*
X1953697Y1608906*
X1953470Y1609219*
X1953356Y1609531*
X1950743Y1612031D02*
X1951879Y1608750D01*
X1952334Y1612031D02*
X1950743D01*
X1948356Y1611562D02*
X1948470Y1611875D01*
X1948811Y1612031*
X1949038*
X1949379Y1611875*
X1949606Y1611406*
X1949720Y1610625*
Y1609844*
X1949606Y1609219*
X1949379Y1608906*
X1949038Y1608750*
X1948925*
X1948584Y1608906*
X1948356Y1609219*
X1948243Y1609687*
X1948243D02*
Y1609844D01*
X1948356Y1610312*
X1948356D02*
X1948584Y1610625D01*
X1948925Y1610781*
X1949038*
X1949379Y1610625*
X1949606Y1610312*
X1949606D02*
X1949720Y1609844D01*
X1971561Y1469955D02*
X1971874Y1469841D01*
X1972186Y1469614*
X1972342Y1469386*
Y1468932*
X1972186Y1468705*
X1971874Y1468477*
X1971561Y1468364*
X1971092Y1468250*
X1970311*
X1969842Y1468364*
X1969530Y1468477*
X1969217Y1468705*
X1969061Y1468932*
Y1469386*
X1969217Y1469614*
X1969530Y1469841*
X1969842Y1469955*
X1971561Y1471091D02*
X1971717D01*
X1972030Y1471205*
X1972186Y1471318*
X1972342Y1471545*
Y1472000*
X1972186Y1472227*
X1972030Y1472341*
X1971717Y1472455*
X1971405*
X1971092Y1472341*
X1970624Y1472114*
X1969061Y1470977*
Y1472568*
X1971717Y1473591D02*
X1971874Y1473818D01*
X1972342Y1474159*
X1969061*
X1993061Y1474455D02*
X1993374Y1474341D01*
X1993686Y1474114*
X1993842Y1473886*
Y1473432*
X1993686Y1473205*
X1993374Y1472977*
X1993061Y1472864*
X1992592Y1472750*
X1991811*
X1991342Y1472864*
X1991030Y1472977*
X1990717Y1473205*
X1990561Y1473432*
Y1473886*
X1990717Y1474114*
X1991030Y1474341*
X1991342Y1474455*
X1993061Y1475591D02*
X1993217D01*
X1993530Y1475705*
X1993686Y1475818*
X1993842Y1476045*
Y1476500*
X1993686Y1476727*
X1993530Y1476841*
X1993217Y1476955*
X1992905*
X1992592Y1476841*
X1992124Y1476614*
X1990561Y1475477*
Y1477068*
X1993061Y1478205D02*
X1993217D01*
X1993530Y1478318*
X1993686Y1478432*
X1993842Y1478659*
Y1479114*
X1993686Y1479341*
X1993530Y1479455*
X1993217Y1479568*
X1992905*
X1992592Y1479455*
X1992124Y1479227*
X1990561Y1478091*
Y1479682*
X1964561Y1443455D02*
X1964874Y1443341D01*
X1965186Y1443114*
X1965342Y1442886*
Y1442432*
X1965186Y1442205*
X1964874Y1441977*
X1964561Y1441864*
X1964092Y1441750*
X1963311*
X1962842Y1441864*
X1962530Y1441977*
X1962217Y1442205*
X1962061Y1442432*
Y1442886*
X1962217Y1443114*
X1962530Y1443341*
X1962842Y1443455*
X1964561Y1444591D02*
X1964717D01*
X1965030Y1444705*
X1965186Y1444818*
X1965342Y1445045*
Y1445500*
X1965186Y1445727*
X1965030Y1445841*
X1964717Y1445955*
X1964405*
X1964092Y1445841*
X1963624Y1445614*
X1962061Y1444477*
Y1446068*
X1965342Y1448568D02*
Y1447432D01*
X1963936Y1447318*
X1964092Y1447432*
X1964249Y1447773*
Y1448114*
X1964092Y1448455*
X1963780Y1448682*
X1963311Y1448795*
X1962999Y1448682*
X1962530Y1448568*
X1962217Y1448341*
X1962061Y1448000*
Y1447659*
X1962217Y1447318*
X1962374Y1447205*
X1962686Y1447091*
X1940561Y1452455D02*
X1940874Y1452341D01*
X1941186Y1452114*
X1941342Y1451886*
Y1451432*
X1941186Y1451205*
X1940874Y1450977*
X1940561Y1450864*
X1940092Y1450750*
X1939311*
X1938842Y1450864*
X1938530Y1450977*
X1938217Y1451205*
X1938061Y1451432*
Y1451886*
X1938217Y1452114*
X1938530Y1452341*
X1938842Y1452455*
X1940561Y1453591D02*
X1940717D01*
X1941030Y1453705*
X1941186Y1453818*
X1941342Y1454045*
Y1454500*
X1941186Y1454727*
X1941030Y1454841*
X1940717Y1454955*
X1940405*
X1940092Y1454841*
X1939624Y1454614*
X1938061Y1453477*
Y1455068*
X1940874Y1457455D02*
X1941186Y1457341D01*
X1941342Y1457000*
Y1456773*
X1941186Y1456432*
X1940717Y1456205*
X1939936Y1456091*
X1939155*
X1938530Y1456205*
X1938217Y1456432*
X1938061Y1456773*
Y1456886*
X1938217Y1457227*
X1938530Y1457455*
X1938999Y1457568*
X1939155*
X1939624Y1457455*
X1939936Y1457227*
X1940092Y1456886*
Y1456773*
X1939936Y1456432*
X1939624Y1456205*
X1939155Y1456091*
X1915561Y1531455D02*
X1915874Y1531341D01*
X1916186Y1531114*
X1916342Y1530886*
Y1530432*
X1916186Y1530205*
X1915874Y1529977*
X1915561Y1529864*
X1915092Y1529750*
X1914311*
X1913842Y1529864*
X1913530Y1529977*
X1913217Y1530205*
X1913061Y1530432*
Y1530886*
X1913217Y1531114*
X1913530Y1531341*
X1913842Y1531455*
X1916342Y1533955D02*
Y1532818D01*
X1914936Y1532705*
X1915092Y1532818*
X1915249Y1533159*
Y1533500*
X1915092Y1533841*
X1914780Y1534068*
X1914311Y1534182*
X1913999Y1534068*
X1913530Y1533955*
X1913217Y1533727*
X1913061Y1533386*
Y1533045*
X1913217Y1532705*
X1913374Y1532591*
X1913686Y1532477*
X1916342Y1535773D02*
X1916186Y1535432D01*
X1915874Y1535318*
X1915561*
X1915249Y1535432*
X1915092Y1535659*
X1914936Y1536114*
X1914780Y1536455*
X1914467Y1536682*
X1914155Y1536795*
X1913686*
X1913374Y1536682*
X1913217Y1536568*
X1913061Y1536227*
Y1535773*
X1913217Y1535432*
X1913374Y1535318*
X1913686Y1535205*
X1914155*
X1914467Y1535318*
X1914780Y1535545*
X1914936Y1535886*
X1915092Y1536341*
X1915249Y1536568*
X1915561Y1536682*
X1915874*
X1916186Y1536568*
X1916342Y1536227*
Y1535773*
X1973356Y1516750D02*
X1973470Y1517063D01*
X1973470D02*
X1973697Y1517375D01*
X1973925Y1517531*
X1974379*
X1974606Y1517375*
X1974834Y1517063*
X1974834D02*
X1974947Y1516750D01*
X1975061Y1516281*
Y1515500*
X1974947Y1515031*
X1974834Y1514719*
X1974606Y1514406*
X1974379Y1514250*
X1973925*
X1973697Y1514406*
X1973470Y1514719*
X1973356Y1515031*
X1972334Y1516906D02*
X1972106Y1517063D01*
X1972106D02*
X1971766Y1517531D01*
Y1514250*
X1969266Y1516438D02*
X1969379Y1515969D01*
X1969606Y1515656*
X1969947Y1515500*
X1970061*
X1970402Y1515656*
X1970629Y1515969*
X1970743Y1516438*
X1970743D02*
Y1516594D01*
X1970629Y1517063*
X1970629D02*
X1970402Y1517375D01*
X1970061Y1517531*
X1969947*
X1969606Y1517375*
X1969379Y1517063*
X1969379D02*
X1969266Y1516438D01*
X1969266D02*
Y1515656D01*
X1969379Y1514875*
X1969606Y1514406*
X1969947Y1514250*
X1970175*
X1970516Y1514406*
X1970629Y1514719*
X1951061Y1487455D02*
X1951374Y1487341D01*
X1951686Y1487114*
X1951842Y1486886*
Y1486432*
X1951686Y1486205*
X1951374Y1485977*
X1951061Y1485864*
X1950592Y1485750*
X1949811*
X1949342Y1485864*
X1949030Y1485977*
X1948717Y1486205*
X1948561Y1486432*
Y1486886*
X1948717Y1487114*
X1949030Y1487341*
X1949342Y1487455*
X1951842Y1488705D02*
Y1489955D01*
X1950592Y1489273*
Y1489614*
X1950436Y1489841*
X1950280Y1489955*
X1949811Y1490068*
X1949499*
X1949030Y1489955*
X1948717Y1489727*
X1948561Y1489386*
Y1489045*
X1948717Y1488705*
X1948874Y1488591*
X1949186Y1488477*
X1955356Y1513750D02*
X1955470Y1514063D01*
X1955470D02*
X1955697Y1514375D01*
X1955925Y1514531*
X1956379*
X1956606Y1514375*
X1956834Y1514063*
X1956834D02*
X1956947Y1513750D01*
X1957061Y1513281*
Y1512500*
X1956947Y1512031*
X1956834Y1511719*
X1956606Y1511406*
X1956379Y1511250*
X1955925*
X1955697Y1511406*
X1955470Y1511719*
X1955356Y1512031*
X1953197Y1514531D02*
X1954334Y1512344D01*
X1952629*
X1953197Y1514531D02*
Y1511250D01*
X1971561Y1545031D02*
Y1541750D01*
Y1545031D02*
X1970084D01*
X1971561Y1543469D02*
X1970652D01*
X1969061Y1545031D02*
Y1541750D01*
Y1545031D02*
X1968038D01*
X1967697Y1544875*
X1967584Y1544719*
X1967470Y1544406*
Y1544094*
X1967584Y1543781*
X1967697Y1543625*
X1968038Y1543469*
X1969061D02*
X1968038D01*
X1967697Y1543313*
X1967697D02*
X1967584Y1543156D01*
X1967470Y1542844*
Y1542375*
X1967584Y1542063*
X1967584D02*
X1967697Y1541906D01*
X1968038Y1541750*
X1969061*
X1966447Y1544406D02*
X1966220Y1544563D01*
X1966220D02*
X1965879Y1545031D01*
Y1541750*
X2055561Y1547031D02*
Y1543750D01*
Y1547031D02*
X2054538D01*
X2054197Y1546875*
X2054084Y1546719*
X2053970Y1546406*
Y1546094*
X2054084Y1545781*
X2054197Y1545625*
X2054538Y1545469*
X2055561*
X2054766D02*
X2053970Y1543750D01*
X2052947Y1546406D02*
X2052720Y1546563D01*
X2052720D02*
X2052379Y1547031D01*
Y1543750*
X2049993Y1546563D02*
X2050106Y1546875D01*
X2050447Y1547031*
X2050675*
X2051016Y1546875*
X2051243Y1546406*
X2051356Y1545625*
Y1544844*
X2051243Y1544219*
X2051016Y1543906*
X2050675Y1543750*
X2050561*
X2050220Y1543906*
X2049993Y1544219*
X2049879Y1544688*
X2049879D02*
Y1544844D01*
X2049993Y1545313*
X2049993D02*
X2050220Y1545625D01*
X2050561Y1545781*
X2050675*
X2051016Y1545625*
X2051243Y1545313*
X2051243D02*
X2051356Y1544844D01*
X2067342Y1539250D02*
X2064061D01*
X2067342D02*
Y1540273D01*
X2067186Y1540614*
X2067030Y1540727*
X2066717Y1540841*
X2066405*
X2066092Y1540727*
X2065936Y1540614*
X2065780Y1540273*
Y1539250*
Y1540045D02*
X2064061Y1540841D01*
X2066717Y1541864D02*
X2066874Y1542091D01*
X2067342Y1542432*
X2064061*
X2067342Y1545045D02*
X2064061Y1543909D01*
X2067342Y1543455D02*
Y1545045D01*
X2082061Y1524031D02*
Y1520750D01*
Y1524031D02*
X2081038D01*
X2080697Y1523875*
X2080584Y1523719*
X2080470Y1523406*
Y1523094*
X2080584Y1522781*
X2080697Y1522625*
X2081038Y1522469*
X2082061*
X2081266D02*
X2080470Y1520750D01*
X2079334Y1523250D02*
Y1523406D01*
X2079220Y1523719*
X2079106Y1523875*
X2078879Y1524031*
X2078425*
X2078197Y1523875*
X2078084Y1523719*
X2077970Y1523406*
Y1523094*
X2078084Y1522781*
X2078311Y1522313*
X2078311D02*
X2079447Y1520750D01*
X2077856*
X2076152Y1524031D02*
X2076493Y1523875D01*
X2076720Y1523406*
X2076834Y1522625*
Y1522156*
X2076720Y1521375*
X2076493Y1520906*
X2076152Y1520750*
X2075925*
X2075584Y1520906*
X2075356Y1521375*
X2075243Y1522156*
Y1522625*
X2075356Y1523406*
X2075584Y1523875*
X2075925Y1524031*
X2076152*
X2081561Y1536031D02*
Y1532750D01*
Y1536031D02*
X2080538D01*
X2080197Y1535875*
X2080084Y1535719*
X2079970Y1535406*
Y1535094*
X2080084Y1534781*
X2080197Y1534625*
X2080538Y1534469*
X2081561*
X2080766D02*
X2079970Y1532750D01*
X2078834Y1535250D02*
Y1535406D01*
X2078720Y1535719*
X2078606Y1535875*
X2078379Y1536031*
X2077925*
X2077697Y1535875*
X2077584Y1535719*
X2077470Y1535406*
Y1535094*
X2077584Y1534781*
X2077811Y1534312*
X2077811D02*
X2078947Y1532750D01*
X2077356*
X2076334Y1535406D02*
X2076106Y1535562D01*
X2076106D02*
X2075766Y1536031D01*
Y1532750*
X2043061Y1520531D02*
Y1517250D01*
Y1520531D02*
X2042038D01*
X2041697Y1520375*
X2041584Y1520219*
X2041470Y1519906*
Y1519594*
X2041584Y1519281*
X2041697Y1519125*
X2042038Y1518969*
X2043061*
X2042266D02*
X2041470Y1517250D01*
X2040334Y1519750D02*
Y1519906D01*
X2040220Y1520219*
X2040106Y1520375*
X2039879Y1520531*
X2039425*
X2039197Y1520375*
X2039084Y1520219*
X2038970Y1519906*
Y1519594*
X2039084Y1519281*
X2039311Y1518813*
X2039311D02*
X2040447Y1517250D01*
X2038856*
X2037720Y1519750D02*
Y1519906D01*
X2037606Y1520219*
X2037493Y1520375*
X2037266Y1520531*
X2036811*
X2036584Y1520375*
X2036470Y1520219*
X2036356Y1519906*
Y1519594*
X2036470Y1519281*
X2036697Y1518813*
X2036697D02*
X2037834Y1517250D01*
X2036243*
X2043061Y1516031D02*
Y1512750D01*
Y1516031D02*
X2042038D01*
X2041697Y1515875*
X2041584Y1515719*
X2041470Y1515406*
Y1515094*
X2041584Y1514781*
X2041697Y1514625*
X2042038Y1514469*
X2043061*
X2042266D02*
X2041470Y1512750D01*
X2040334Y1515250D02*
Y1515406D01*
X2040220Y1515719*
X2040106Y1515875*
X2039879Y1516031*
X2039425*
X2039197Y1515875*
X2039084Y1515719*
X2038970Y1515406*
Y1515094*
X2039084Y1514781*
X2039311Y1514313*
X2040447Y1512750*
X2038856*
X2037606Y1516031D02*
X2036356D01*
X2037038Y1514781*
X2036697*
X2036470Y1514625*
X2036356Y1514469*
X2036243Y1514000*
Y1513688*
X2036356Y1513219*
X2036584Y1512906*
X2036925Y1512750*
X2037266*
X2037606Y1512906*
X2037720Y1513063*
X2037834Y1513375*
X2087842Y1527750D02*
X2084561D01*
X2087842D02*
Y1528773D01*
X2087686Y1529114*
X2087530Y1529227*
X2087217Y1529341*
X2086905*
X2086592Y1529227*
X2086436Y1529114*
X2086280Y1528773*
Y1527750*
Y1528545D02*
X2084561Y1529341D01*
X2087061Y1530477D02*
X2087217D01*
X2087530Y1530591*
X2087686Y1530705*
X2087842Y1530932*
Y1531386*
X2087686Y1531614*
X2087530Y1531727*
X2087217Y1531841*
X2086905*
X2086592Y1531727*
X2086124Y1531500*
X2084561Y1530364*
Y1531955*
X2087842Y1534114D02*
X2085655Y1532977D01*
Y1534682*
X2087842Y1534114D02*
X2084561D01*
X1943561Y1545531D02*
Y1542250D01*
Y1545531D02*
X1942538D01*
X1942197Y1545375*
X1942084Y1545219*
X1941970Y1544906*
Y1544594*
X1942084Y1544281*
X1942197Y1544125*
X1942538Y1543969*
X1943561*
X1942766D02*
X1941970Y1542250D01*
X1940834Y1544750D02*
Y1544906D01*
X1940720Y1545219*
X1940606Y1545375*
X1940379Y1545531*
X1939925*
X1939697Y1545375*
X1939584Y1545219*
X1939470Y1544906*
Y1544594*
X1939584Y1544281*
X1939811Y1543813*
X1939811D02*
X1940947Y1542250D01*
X1939356*
X1936856Y1544438D02*
X1936970Y1543969D01*
X1937197Y1543656*
X1937538Y1543500*
X1937652*
X1937993Y1543656*
X1938220Y1543969*
X1938334Y1544438*
X1938334D02*
Y1544594D01*
X1938220Y1545063*
X1938220D02*
X1937993Y1545375D01*
X1937652Y1545531*
X1937538*
X1937197Y1545375*
X1936970Y1545063*
X1936970D02*
X1936856Y1544438D01*
X1936856D02*
Y1543656D01*
X1936970Y1542875*
X1937197Y1542406*
X1937538Y1542250*
X1937766*
X1938106Y1542406*
X1938220Y1542719*
X2033561Y1589031D02*
Y1585750D01*
Y1589031D02*
X2032538D01*
X2032197Y1588875*
X2032084Y1588719*
X2031970Y1588406*
Y1588094*
X2032084Y1587781*
X2032197Y1587625*
X2032538Y1587469*
X2033561*
X2032766D02*
X2031970Y1585750D01*
X2029811Y1589031D02*
X2030947Y1586844D01*
X2029243*
X2029811Y1589031D02*
Y1585750D01*
X2026743Y1589031D02*
X2027879D01*
X2027993Y1587625*
X2027879Y1587781*
X2027538Y1587937*
X2027538D02*
X2027197D01*
X2027197D02*
X2026856Y1587781D01*
X2026629Y1587469*
X2026516Y1587000*
X2026629Y1586687*
X2026629D02*
X2026743Y1586219D01*
X2026970Y1585906*
X2027311Y1585750*
X2027652*
X2027993Y1585906*
X2028106Y1586062*
X2028106D02*
X2028220Y1586375D01*
X1953561Y1554031D02*
Y1550750D01*
Y1554031D02*
X1952538D01*
X1952197Y1553875*
X1952084Y1553719*
X1951970Y1553406*
Y1553094*
X1952084Y1552781*
X1952197Y1552625*
X1952538Y1552469*
X1953561*
X1952766D02*
X1951970Y1550750D01*
X1949811Y1554031D02*
X1950947Y1551844D01*
X1949243*
X1949811Y1554031D02*
Y1550750D01*
X1946629Y1554031D02*
X1947766Y1550750D01*
X1948220Y1554031D02*
X1946629D01*
X1941061Y1586031D02*
Y1582750D01*
Y1586031D02*
X1940038D01*
X1939697Y1585875*
X1939584Y1585719*
X1939470Y1585406*
Y1585094*
X1939584Y1584781*
X1939697Y1584625*
X1940038Y1584469*
X1941061*
X1940266D02*
X1939470Y1582750D01*
X1937311Y1586031D02*
X1938447Y1583844D01*
X1936743*
X1937311Y1586031D02*
Y1582750D01*
X1934243Y1584938D02*
X1934356Y1584469D01*
X1934584Y1584156*
X1934925Y1584000*
X1935038*
X1935379Y1584156*
X1935606Y1584469*
X1935720Y1584938*
X1935720D02*
Y1585094D01*
X1935606Y1585563*
X1935606D02*
X1935379Y1585875D01*
X1935038Y1586031*
X1934925*
X1934584Y1585875*
X1934356Y1585563*
X1934356D02*
X1934243Y1584938D01*
X1934243D02*
Y1584156D01*
X1934356Y1583375*
X1934584Y1582906*
X1934925Y1582750*
X1935152*
X1935493Y1582906*
X1935606Y1583219*
X1950561Y1597531D02*
Y1594250D01*
Y1597531D02*
X1949538D01*
X1949197Y1597375*
X1949084Y1597219*
X1948970Y1596906*
Y1596594*
X1949084Y1596281*
X1949197Y1596125*
X1949538Y1595969*
X1950561*
X1949766D02*
X1948970Y1594250D01*
X1946470Y1597531D02*
X1947606D01*
X1947720Y1596125*
X1947606Y1596281*
X1947266Y1596438*
X1947266D02*
X1946925D01*
X1946925D02*
X1946584Y1596281D01*
X1946356Y1595969*
X1946243Y1595500*
X1946356Y1595188*
X1946356D02*
X1946470Y1594719D01*
X1946697Y1594406*
X1947038Y1594250*
X1947379*
X1947720Y1594406*
X1947834Y1594563*
X1947834D02*
X1947947Y1594875D01*
X1945220Y1596906D02*
X1944993Y1597063D01*
X1944993D02*
X1944652Y1597531D01*
Y1594250*
X2085061Y1519031D02*
Y1515750D01*
Y1519031D02*
X2084038D01*
X2083697Y1518875*
X2083584Y1518719*
X2083470Y1518406*
Y1518094*
X2083584Y1517781*
X2083697Y1517625*
X2084038Y1517469*
X2085061*
X2084266D02*
X2083470Y1515750D01*
X2080970Y1519031D02*
X2082106D01*
X2082220Y1517625*
X2082106Y1517781*
X2081766Y1517938*
X2081766D02*
X2081425D01*
X2081425D02*
X2081084Y1517781D01*
X2080856Y1517469*
X2080743Y1517000*
X2080856Y1516688*
X2080856D02*
X2080970Y1516219D01*
X2081197Y1515906*
X2081538Y1515750*
X2081879*
X2082220Y1515906*
X2082334Y1516063*
X2082334D02*
X2082447Y1516375D01*
X2079493Y1519031D02*
X2078243D01*
X2078925Y1517781*
X2078584*
X2078356Y1517625*
X2078243Y1517469*
X2078129Y1517000*
Y1516688*
X2078129D02*
X2078243Y1516219D01*
X2078470Y1515906*
X2078811Y1515750*
X2079152*
X2079493Y1515906*
X2079606Y1516063*
X2079606D02*
X2079720Y1516375D01*
X2039856Y1506750D02*
X2039970Y1507063D01*
X2039970D02*
X2040197Y1507375D01*
X2040425Y1507531*
X2040879*
X2041106Y1507375*
X2041334Y1507063*
X2041334D02*
X2041447Y1506750D01*
X2041561Y1506281*
Y1505500*
X2041447Y1505031*
X2041334Y1504719*
X2041106Y1504406*
X2040879Y1504250*
X2040425*
X2040197Y1504406*
X2039970Y1504719*
X2039856Y1505031*
X2037697Y1507531D02*
X2038834Y1505344D01*
X2037129*
X2037697Y1507531D02*
Y1504250D01*
X2036106Y1506906D02*
X2035879Y1507063D01*
X2035879D02*
X2035538Y1507531D01*
Y1504250*
X2031856Y1573250D02*
X2031970Y1573563D01*
X2031970D02*
X2032197Y1573875D01*
X2032425Y1574031*
X2032879*
X2033106Y1573875*
X2033334Y1573563*
X2033334D02*
X2033447Y1573250D01*
X2033561Y1572781*
Y1572000*
X2033447Y1571531*
X2033334Y1571219*
X2033106Y1570906*
X2032879Y1570750*
X2032425*
X2032197Y1570906*
X2031970Y1571219*
X2031856Y1571531*
X2029470Y1573563D02*
X2029584Y1573875D01*
X2029925Y1574031*
X2030152*
X2030493Y1573875*
X2030720Y1573406*
X2030834Y1572625*
Y1571844*
X2030720Y1571219*
X2030493Y1570906*
X2030152Y1570750*
X2030038*
X2029697Y1570906*
X2029470Y1571219*
X2029356Y1571688*
X2029356D02*
Y1571844D01*
X2029470Y1572313*
X2029470D02*
X2029697Y1572625D01*
X2030038Y1572781*
X2030152*
X2030493Y1572625*
X2030720Y1572313*
X2030720D02*
X2030834Y1571844D01*
X2026856Y1572938D02*
X2026970Y1572469D01*
X2027197Y1572156*
X2027538Y1572000*
X2027652*
X2027993Y1572156*
X2028220Y1572469*
X2028334Y1572938*
X2028334D02*
Y1573094D01*
X2028220Y1573563*
X2028220D02*
X2027993Y1573875D01*
X2027652Y1574031*
X2027538*
X2027197Y1573875*
X2026970Y1573563*
X2026970D02*
X2026856Y1572938D01*
X2026856D02*
Y1572156D01*
X2026970Y1571375*
X2027197Y1570906*
X2027538Y1570750*
X2027766*
X2028106Y1570906*
X2028220Y1571219*
X1964842Y1555250D02*
X1961561D01*
X1964842D02*
Y1556045D01*
X1964686Y1556386*
X1964374Y1556614*
X1964061Y1556727*
X1963592Y1556841*
X1962811*
X1962342Y1556727*
X1962030Y1556614*
X1961717Y1556386*
X1961561Y1556045*
Y1555250*
X1964061Y1557977D02*
X1964217D01*
X1964530Y1558091*
X1964686Y1558205*
X1964842Y1558432*
Y1558886*
X1964686Y1559114*
X1964530Y1559227*
X1964217Y1559341*
X1963905*
X1963592Y1559227*
X1963124Y1559000*
X1961561Y1557864*
Y1559455*
X2023842Y1585750D02*
X2020561D01*
X2023842D02*
Y1586545D01*
X2023686Y1586886*
X2023374Y1587114*
X2023061Y1587227*
X2022592Y1587341*
X2021811*
X2021342Y1587227*
X2021030Y1587114*
X2020717Y1586886*
X2020561Y1586545*
Y1585750*
X2023842Y1589841D02*
Y1588705D01*
X2022436Y1588591*
X2022592Y1588705*
X2022749Y1589045*
Y1589386*
X2022592Y1589727*
X2022280Y1589955*
X2021811Y1590068*
X2021499Y1589955*
X2021030Y1589841*
X2020717Y1589614*
X2020561Y1589273*
Y1588932*
X2020717Y1588591*
X2020874Y1588477*
X2021186Y1588364*
X1948842Y1576750D02*
X1945561D01*
X1948842D02*
Y1577545D01*
X1948686Y1577886*
X1948374Y1578114*
X1948061Y1578227*
X1947592Y1578341*
X1946811*
X1946342Y1578227*
X1946030Y1578114*
X1945717Y1577886*
X1945561Y1577545*
Y1576750*
X1948842Y1579932D02*
X1948686Y1579591D01*
X1948374Y1579477*
X1948061*
X1947749Y1579591*
X1947592Y1579818*
X1947436Y1580273*
X1947280Y1580614*
X1946967Y1580841*
X1946655Y1580955*
X1946186*
X1945874Y1580841*
X1945717Y1580727*
X1945561Y1580386*
Y1579932*
X1945717Y1579591*
X1945874Y1579477*
X1946186Y1579364*
X1946655*
X1946967Y1579477*
X1947280Y1579705*
X1947436Y1580045*
X1947592Y1580500*
X1947749Y1580727*
X1948061Y1580841*
X1948374*
X1948686Y1580727*
X1948842Y1580386*
Y1579932*
X1936342Y1602750D02*
X1933061D01*
X1936342D02*
Y1603545D01*
X1936186Y1603886*
X1935874Y1604114*
X1935561Y1604227*
X1935092Y1604341*
X1934311*
X1933842Y1604227*
X1933530Y1604114*
X1933217Y1603886*
X1933061Y1603545*
Y1602750*
X1935249Y1606841D02*
X1934780Y1606727D01*
X1934467Y1606500*
X1934311Y1606159*
Y1606045*
X1934467Y1605705*
X1934780Y1605477*
X1935249Y1605364*
X1935405*
X1935874Y1605477*
X1936186Y1605705*
X1936342Y1606045*
Y1606159*
X1936186Y1606500*
X1935874Y1606727*
X1935249Y1606841*
X1934467*
X1933686Y1606727*
X1933217Y1606500*
X1933061Y1606159*
Y1605932*
X1933217Y1605591*
X1933530Y1605477*
X2043561Y1529531D02*
Y1526250D01*
Y1529531D02*
X2042538D01*
X2042197Y1529375*
X2042084Y1529219*
X2041970Y1528906*
Y1528594*
X2042084Y1528281*
X2042197Y1528125*
X2042538Y1527969*
X2043561*
X2042766D02*
X2041970Y1526250D01*
X2039584Y1529063D02*
X2039697Y1529375D01*
X2040038Y1529531*
X2040266*
X2040606Y1529375*
X2040834Y1528906*
X2040947Y1528125*
Y1527344*
X2040834Y1526719*
X2040606Y1526406*
X2040266Y1526250*
X2040152*
X2039811Y1526406*
X2039584Y1526719*
X2039470Y1527188*
X2039470D02*
Y1527344D01*
X2039584Y1527813*
X2039584D02*
X2039811Y1528125D01*
X2040152Y1528281*
X2040266*
X2040606Y1528125*
X2040834Y1527813*
X2040834D02*
X2040947Y1527344D01*
X2037084Y1529063D02*
X2037197Y1529375D01*
X2037538Y1529531*
X2037766*
X2038106Y1529375*
X2038334Y1528906*
X2038447Y1528125*
Y1527344*
X2038334Y1526719*
X2038106Y1526406*
X2037766Y1526250*
X2037652*
X2037311Y1526406*
X2037084Y1526719*
X2036970Y1527188*
X2036970D02*
Y1527344D01*
X2037084Y1527813*
X2037084D02*
X2037311Y1528125D01*
X2037652Y1528281*
X2037766*
X2038106Y1528125*
X2038334Y1527813*
X2038334D02*
X2038447Y1527344D01*
X2067842Y1504750D02*
X2064561D01*
X2067842D02*
Y1505773D01*
X2067686Y1506114*
X2067530Y1506227*
X2067217Y1506341*
X2066905*
X2066592Y1506227*
X2066436Y1506114*
X2066280Y1505773*
Y1504750*
Y1505545D02*
X2064561Y1506341D01*
X2067374Y1508727D02*
X2067686Y1508614D01*
X2067842Y1508273*
Y1508045*
X2067686Y1507705*
X2067217Y1507477*
X2066436Y1507364*
X2065655*
X2065030Y1507477*
X2064717Y1507705*
X2064561Y1508045*
Y1508159*
X2064717Y1508500*
X2065030Y1508727*
X2065499Y1508841*
X2065655*
X2066124Y1508727*
X2066436Y1508500*
X2066592Y1508159*
Y1508045*
X2066436Y1507705*
X2066124Y1507477*
X2065655Y1507364*
X2067842Y1511455D02*
X2064561Y1510318D01*
X2067842Y1509864D02*
Y1511455D01*
X2101652Y1494531D02*
X2102561Y1491250D01*
X2101652Y1494531D02*
X2100743Y1491250D01*
X2102220Y1492344D02*
X2101084D01*
X2099720Y1493906D02*
X2099493Y1494063D01*
X2099493D02*
X2099152Y1494531D01*
Y1491250*
X2103152Y1566531D02*
X2104061Y1563250D01*
X2103152Y1566531D02*
X2102243Y1563250D01*
X2103720Y1564344D02*
X2102584D01*
X2101220Y1565906D02*
X2100993Y1566063D01*
X2100993D02*
X2100652Y1566531D01*
Y1563250*
X2099061Y1566531D02*
X2099402Y1566375D01*
X2099516Y1566063*
X2099516D02*
Y1565750D01*
X2099402Y1565438*
X2099402D02*
X2099175Y1565281D01*
X2098720Y1565125*
X2098379Y1564969*
X2098152Y1564656*
X2098038Y1564344*
Y1563875*
X2098152Y1563563*
X2098152D02*
X2098266Y1563406D01*
X2098606Y1563250*
X2099061*
X2099402Y1563406*
X2099516Y1563563*
X2099516D02*
X2099629Y1563875D01*
Y1564344*
X2099516Y1564656*
X2099288Y1564969*
X2098947Y1565125*
X2098493Y1565281*
X2098266Y1565438*
X2098266D02*
X2098152Y1565750D01*
Y1566063*
X2098152D02*
X2098266Y1566375D01*
X2098606Y1566531*
X2099061*
G54D232*
X2085061Y1369063D02*
X2085516Y1369375D01*
X2086197Y1370313*
X2086197D02*
Y1363750D01*
X2088470Y1364375D02*
X2088243Y1364063D01*
X2088243D02*
X2088470Y1363750D01*
X2088697Y1364063*
X2088697D02*
X2088470Y1364375D01*
X2092106Y1370313D02*
X2091425Y1370000D01*
X2090970Y1369063*
X2090970D02*
X2090743Y1367500D01*
Y1366563*
X2090743D02*
X2090970Y1365000D01*
X2091425Y1364063*
X2091425D02*
X2092106Y1363750D01*
X2092561*
X2093243Y1364063*
X2093243D02*
X2093697Y1365000D01*
X2093925Y1366563*
X2093925D02*
Y1367500D01*
X2093697Y1369063*
X2093697D02*
X2093243Y1370000D01*
X2092561Y1370313*
X2092561D02*
X2092106D01*
X2095970D02*
Y1368125D01*
X2097788Y1370313D02*
Y1368125D01*
G54D233*
X1957561Y1723750D02*
X1959577D01*
X1956486Y1723840D02*
X1960563D01*
X1955859Y1723929D02*
X1961279D01*
X1955322Y1724019D02*
X1961727D01*
X1954874Y1724108D02*
X1962173D01*
X1954515Y1724198D02*
X1962623D01*
X1954157Y1724287D02*
X1962981D01*
X1953799Y1724377D02*
X1963250D01*
X1953530Y1724467D02*
X1963608D01*
X1953172Y1724556D02*
X1963877D01*
X1952903Y1724646D02*
X1964146D01*
X1952724Y1724735D02*
X1964415D01*
X1952455Y1724825D02*
X1964594D01*
X1952186Y1724915D02*
X1964863D01*
X1952007Y1725004D02*
X1965131D01*
X1951738Y1725094D02*
X1965310D01*
X1951559Y1725183D02*
X1965490D01*
X1951380Y1725273D02*
X1965669D01*
X1951201Y1725362D02*
X1965937D01*
X1951022Y1725452D02*
X1966117D01*
X1950843Y1725542D02*
X1966296D01*
X1950664Y1725631D02*
X1966473D01*
X1950484Y1725721D02*
X1966652D01*
X1950305Y1725810D02*
X1966742D01*
X1950126Y1725900D02*
X1966921D01*
X1949947Y1725989D02*
X1967100D01*
X1949857Y1726079D02*
X1967279D01*
X2014443D02*
X2016101D01*
X1949678Y1726169D02*
X1967369D01*
X2013816D02*
X2016818D01*
X1949499Y1726258D02*
X1967548D01*
X2013368D02*
X2017176D01*
X1949409Y1726348D02*
X1967729D01*
X2013099D02*
X2017534D01*
X1949230Y1726437D02*
X1967819D01*
X2012831D02*
X2017714D01*
X1949141Y1726527D02*
X1967998D01*
X2012562D02*
X2017982D01*
X1948962Y1726617D02*
X1968087D01*
X2012383D02*
X2018162D01*
X1948872Y1726706D02*
X1968267D01*
X2012293D02*
X2018341D01*
X1948693Y1726796D02*
X1968356D01*
X2012114D02*
X2018430D01*
X1948603Y1726885D02*
X1968535D01*
X2012025D02*
X2018609D01*
X1948424Y1726975D02*
X1968625D01*
X2011935D02*
X2018699D01*
X1948334Y1727064D02*
X1968714D01*
X2011845D02*
X2018789D01*
X1948245Y1727154D02*
X1968894D01*
X2011756D02*
X2018878D01*
X1948066Y1727244D02*
X1968983D01*
X2011666D02*
X2018968D01*
X1947976Y1727333D02*
X1969073D01*
X2011577D02*
X2014578D01*
X2016235D02*
X2019057D01*
X1947887Y1727423D02*
X1969252D01*
X2011577D02*
X2014131D01*
X2016683D02*
X2019147D01*
X1947707Y1727512D02*
X1969341D01*
X2011487D02*
X2013772D01*
X2016951D02*
X2019236D01*
X1947618Y1727602D02*
X1969431D01*
X2011487D02*
X2013593D01*
X2017220D02*
X2019236D01*
X1947528Y1727691D02*
X1969521D01*
X2011397D02*
X2013414D01*
X2017399D02*
X2019326D01*
X1947439Y1727781D02*
X1969700D01*
X2011397D02*
X2013235D01*
X2017489D02*
X2019326D01*
X1947349Y1727871D02*
X1969789D01*
X2011397D02*
X2013145D01*
X2017668D02*
X2019416D01*
X1947170Y1727960D02*
X1969879D01*
X2011308D02*
X2013056D01*
X2017758D02*
X2019416D01*
X1947080Y1728050D02*
X1969969D01*
X2011308D02*
X2013056D01*
X2017847D02*
X2019416D01*
X1946991Y1728139D02*
X1970058D01*
X2011308D02*
X2012966D01*
X2017847D02*
X2019505D01*
X1946901Y1728229D02*
X1970148D01*
X2011308D02*
X2012966D01*
X2017937D02*
X2019505D01*
X1946812Y1728318D02*
X1970237D01*
X2011308D02*
X2012876D01*
X2017937D02*
X2019505D01*
X1946722Y1728408D02*
X1970327D01*
X2011308D02*
X2012876D01*
X2017937D02*
X2019505D01*
X1946632Y1728498D02*
X1970416D01*
X2011308D02*
X2012876D01*
X2018026D02*
X2019505D01*
X1946543Y1728587D02*
X1970596D01*
X2011308D02*
X2012876D01*
X2018026D02*
X2019505D01*
X1946453Y1728677D02*
X1970685D01*
X2011397D02*
X2012966D01*
X2017937D02*
X2019505D01*
X1946364Y1728766D02*
X1970775D01*
X2011397D02*
X2012966D01*
X2017937D02*
X2019505D01*
X1946274Y1728856D02*
X1970864D01*
X2011397D02*
X2012966D01*
X2017937D02*
X2019505D01*
X1946185Y1728946D02*
X1970954D01*
X2011397D02*
X2013056D01*
X2017847D02*
X2019505D01*
X1946095Y1729035D02*
X1970954D01*
X2011487D02*
X2013145D01*
X2017758D02*
X2019505D01*
X1946005Y1729125D02*
X1971043D01*
X2011487D02*
X2013145D01*
X2017668D02*
X2019505D01*
X1945916Y1729214D02*
X1971133D01*
X1999931D02*
X2001769D01*
X2005933D02*
X2008039D01*
X2011577D02*
X2013235D01*
X2017489D02*
X2019505D01*
X2027880D02*
X2029536D01*
X2037733D02*
X2039481D01*
X2043735D02*
X2045752D01*
X2052066D02*
X2053634D01*
X1945826Y1729304D02*
X1971223D01*
X1999573D02*
X2002127D01*
X2005575D02*
X2008398D01*
X2011577D02*
X2013324D01*
X2017310D02*
X2019505D01*
X2027522D02*
X2029894D01*
X2037375D02*
X2039839D01*
X2043377D02*
X2046199D01*
X2051708D02*
X2053993D01*
X1945737Y1729393D02*
X1971312D01*
X1984345D02*
X1986003D01*
X1988376D02*
X1990034D01*
X1993751D02*
X1995407D01*
X1999304D02*
X2002127D01*
X2005306D02*
X2008756D01*
X2011666D02*
X2013414D01*
X2017130D02*
X2019416D01*
X2021072D02*
X2022730D01*
X2027342D02*
X2030163D01*
X2031821D02*
X2033119D01*
X2037106D02*
X2039839D01*
X2043108D02*
X2046468D01*
X2051528D02*
X2054172D01*
X2055828D02*
X2057128D01*
X1945647Y1729483D02*
X1971402D01*
X1984345D02*
X1986003D01*
X1988376D02*
X1990034D01*
X1993751D02*
X1995407D01*
X1999125D02*
X2002127D01*
X2005127D02*
X2009025D01*
X2011756D02*
X2013593D01*
X2016772D02*
X2019416D01*
X2021072D02*
X2022730D01*
X2027163D02*
X2030342D01*
X2031821D02*
X2033119D01*
X2036927D02*
X2039839D01*
X2042839D02*
X2046737D01*
X2051349D02*
X2054351D01*
X2055828D02*
X2057128D01*
X1945558Y1729573D02*
X1971491D01*
X1984345D02*
X1986003D01*
X1988376D02*
X1990034D01*
X1993751D02*
X1995407D01*
X1999036D02*
X2002037D01*
X2004948D02*
X2009204D01*
X2011845D02*
X2013683D01*
X2016414D02*
X2019326D01*
X2021072D02*
X2022730D01*
X2027074D02*
X2030521D01*
X2031821D02*
X2033119D01*
X2036748D02*
X2039839D01*
X2042660D02*
X2047006D01*
X2051170D02*
X2054530D01*
X2055739D02*
X2057128D01*
X1945468Y1729662D02*
X1971581D01*
X1984345D02*
X1986003D01*
X1988376D02*
X1990034D01*
X1993751D02*
X1995407D01*
X1998857D02*
X2002037D01*
X2004769D02*
X2009383D01*
X2011935D02*
X2013772D01*
X2015876D02*
X2019326D01*
X2021072D02*
X2022730D01*
X2026894D02*
X2030701D01*
X2031732D02*
X2033119D01*
X2036659D02*
X2039839D01*
X2042571D02*
X2047185D01*
X2050991D02*
X2054709D01*
X2055739D02*
X2057128D01*
X1945468Y1729752D02*
X1971670D01*
X1984345D02*
X1986003D01*
X1988376D02*
X1990034D01*
X1993751D02*
X1995407D01*
X1998767D02*
X2002037D01*
X2004590D02*
X2009562D01*
X2012025D02*
X2013951D01*
X2015339D02*
X2019236D01*
X2021072D02*
X2022730D01*
X2026805D02*
X2030880D01*
X2031732D02*
X2033119D01*
X2036569D02*
X2039839D01*
X2042392D02*
X2047364D01*
X2050901D02*
X2054799D01*
X2055739D02*
X2057128D01*
X1945378Y1729841D02*
X1971760D01*
X1984345D02*
X1986003D01*
X1988376D02*
X1990034D01*
X1993751D02*
X1995407D01*
X1998677D02*
X2002037D01*
X2004500D02*
X2009741D01*
X2012114D02*
X2014131D01*
X2014891D02*
X2019236D01*
X2021072D02*
X2022730D01*
X2026715D02*
X2030969D01*
X2031732D02*
X2033119D01*
X2036479D02*
X2039750D01*
X2042302D02*
X2047543D01*
X2050812D02*
X2054978D01*
X2055739D02*
X2057128D01*
X1945289Y1729931D02*
X1971760D01*
X1984345D02*
X1986003D01*
X1988376D02*
X1990034D01*
X1993751D02*
X1995407D01*
X1998588D02*
X2002037D01*
X2004410D02*
X2009920D01*
X2012204D02*
X2014310D01*
X2014443D02*
X2019147D01*
X2021072D02*
X2022730D01*
X2026626D02*
X2031059D01*
X2031732D02*
X2033119D01*
X2036390D02*
X2039750D01*
X2042123D02*
X2047633D01*
X2050722D02*
X2055068D01*
X2055739D02*
X2057128D01*
X1945199Y1730020D02*
X1971850D01*
X1984345D02*
X1986003D01*
X1988376D02*
X1990034D01*
X1993751D02*
X1995407D01*
X1998588D02*
X2002037D01*
X2004321D02*
X2010010D01*
X2012293D02*
X2019057D01*
X2021072D02*
X2022730D01*
X2026536D02*
X2031238D01*
X2031732D02*
X2033119D01*
X2036300D02*
X2039750D01*
X2042033D02*
X2047812D01*
X2050633D02*
X2055157D01*
X2055739D02*
X2057128D01*
X1945110Y1730110D02*
X1971939D01*
X1984345D02*
X1986003D01*
X1988376D02*
X1990034D01*
X1993751D02*
X1995407D01*
X1998498D02*
X2002037D01*
X2004142D02*
X2010189D01*
X2012472D02*
X2018968D01*
X2021072D02*
X2022730D01*
X2026536D02*
X2031328D01*
X2031732D02*
X2033119D01*
X2036300D02*
X2039750D01*
X2041944D02*
X2047901D01*
X2050543D02*
X2055247D01*
X2055649D02*
X2057128D01*
X1945020Y1730200D02*
X1972029D01*
X1984345D02*
X1986003D01*
X1988376D02*
X1990034D01*
X1993751D02*
X1995407D01*
X1998498D02*
X2001948D01*
X2004052D02*
X2010279D01*
X2012562D02*
X2018789D01*
X2021072D02*
X2022730D01*
X2026447D02*
X2031417D01*
X2031642D02*
X2033119D01*
X2036211D02*
X2039750D01*
X2041854D02*
X2048081D01*
X2050454D02*
X2055336D01*
X2055649D02*
X2057128D01*
X1945020Y1730289D02*
X1972118D01*
X1984345D02*
X1986003D01*
X1988376D02*
X1990034D01*
X1993751D02*
X1995407D01*
X1998409D02*
X2001948D01*
X2003962D02*
X2010368D01*
X2012741D02*
X2018699D01*
X2021072D02*
X2022730D01*
X2026447D02*
X2031507D01*
X2031642D02*
X2033119D01*
X2036211D02*
X2039750D01*
X2041764D02*
X2048170D01*
X2050364D02*
X2055426D01*
X2055649D02*
X2057128D01*
X1944931Y1730379D02*
X1972118D01*
X1984345D02*
X1986003D01*
X1988376D02*
X1990034D01*
X1993751D02*
X1995407D01*
X1998409D02*
X2001948D01*
X2003962D02*
X2010368D01*
X2012831D02*
X2018520D01*
X2021072D02*
X2022730D01*
X2026357D02*
X2033119D01*
X2036121D02*
X2039750D01*
X2041675D02*
X2048170D01*
X2050274D02*
X2055516D01*
X2055649D02*
X2057128D01*
X1944841Y1730468D02*
X1972208D01*
X1984345D02*
X1986003D01*
X1988376D02*
X1990034D01*
X1993751D02*
X1995407D01*
X1998319D02*
X2001948D01*
X2003873D02*
X2010368D01*
X2013010D02*
X2018430D01*
X2021072D02*
X2022730D01*
X2026357D02*
X2033119D01*
X2036121D02*
X2039660D01*
X2041585D02*
X2048081D01*
X2050185D02*
X2057128D01*
X1944751Y1730558D02*
X1972298D01*
X1984345D02*
X1986003D01*
X1988376D02*
X1990034D01*
X1993751D02*
X1995407D01*
X1998319D02*
X2001948D01*
X2003783D02*
X2010368D01*
X2013010D02*
X2018162D01*
X2021072D02*
X2022730D01*
X2026267D02*
X2028730D01*
X2029313D02*
X2033119D01*
X2036121D02*
X2039660D01*
X2041585D02*
X2048081D01*
X2050185D02*
X2057128D01*
X1944751Y1730648D02*
X1972387D01*
X1984345D02*
X1986003D01*
X1988376D02*
X1990034D01*
X1993751D02*
X1995407D01*
X1998319D02*
X2001948D01*
X2003694D02*
X2006427D01*
X2007814D02*
X2010368D01*
X2012920D02*
X2017982D01*
X2021072D02*
X2022730D01*
X2026267D02*
X2028372D01*
X2029761D02*
X2033119D01*
X2036031D02*
X2039660D01*
X2041496D02*
X2044139D01*
X2045616D02*
X2048081D01*
X2050095D02*
X2052828D01*
X2053320D02*
X2057128D01*
X1944662Y1730737D02*
X1972387D01*
X1984345D02*
X1986003D01*
X1988376D02*
X1990034D01*
X1993751D02*
X1995407D01*
X1998319D02*
X2000425D01*
X2003694D02*
X2006158D01*
X2008173D02*
X2010279D01*
X2012831D02*
X2017714D01*
X2021072D02*
X2022730D01*
X2026267D02*
X2028192D01*
X2030030D02*
X2033119D01*
X2036031D02*
X2038227D01*
X2041406D02*
X2043870D01*
X2045975D02*
X2048081D01*
X2050095D02*
X2052470D01*
X2053768D02*
X2057128D01*
X1944572Y1730827D02*
X1972477D01*
X1984345D02*
X1986003D01*
X1988376D02*
X1990034D01*
X1993751D02*
X1995407D01*
X1998229D02*
X2000246D01*
X2003604D02*
X2005889D01*
X2008441D02*
X2010279D01*
X2012741D02*
X2017355D01*
X2021072D02*
X2022730D01*
X2026178D02*
X2028103D01*
X2030209D02*
X2033119D01*
X2036031D02*
X2038046D01*
X2041406D02*
X2043691D01*
X2046243D02*
X2048081D01*
X2050006D02*
X2052291D01*
X2054037D02*
X2057128D01*
X1944483Y1730916D02*
X1972566D01*
X1984345D02*
X1986003D01*
X1988376D02*
X1990034D01*
X1993751D02*
X1995407D01*
X1998229D02*
X2000156D01*
X2003515D02*
X2005710D01*
X2008710D02*
X2010279D01*
X2012741D02*
X2016997D01*
X2021072D02*
X2022730D01*
X2026178D02*
X2028013D01*
X2030388D02*
X2033119D01*
X2036031D02*
X2037867D01*
X2041317D02*
X2043512D01*
X2046423D02*
X2048081D01*
X2050006D02*
X2052112D01*
X2054216D02*
X2057128D01*
X1944483Y1731006D02*
X1972656D01*
X1984345D02*
X1986003D01*
X1988376D02*
X1990034D01*
X1993751D02*
X1995407D01*
X1998229D02*
X2000067D01*
X2003515D02*
X2005621D01*
X2008889D02*
X2010279D01*
X2012652D02*
X2016549D01*
X2021072D02*
X2022730D01*
X2026178D02*
X2027926D01*
X2030567D02*
X2033119D01*
X2036031D02*
X2037777D01*
X2041227D02*
X2043333D01*
X2046602D02*
X2047991D01*
X2049916D02*
X2052022D01*
X2054305D02*
X2057128D01*
X1944393Y1731095D02*
X1972656D01*
X1984345D02*
X1986003D01*
X1988376D02*
X1990034D01*
X1993751D02*
X1995407D01*
X1998229D02*
X1999977D01*
X2003425D02*
X2005531D01*
X2009068D02*
X2010279D01*
X2012652D02*
X2016012D01*
X2021072D02*
X2022730D01*
X2026178D02*
X2027926D01*
X2030746D02*
X2033119D01*
X2036031D02*
X2037777D01*
X2041227D02*
X2043243D01*
X2046781D02*
X2047991D01*
X2049916D02*
X2051932D01*
X2054485D02*
X2057128D01*
X1944303Y1731185D02*
X1972745D01*
X1984345D02*
X1986003D01*
X1988376D02*
X1990034D01*
X1993751D02*
X1995407D01*
X1998229D02*
X1999977D01*
X2003425D02*
X2005441D01*
X2009248D02*
X2010279D01*
X2012652D02*
X2015474D01*
X2021072D02*
X2022730D01*
X2026178D02*
X2027836D01*
X2030836D02*
X2033119D01*
X2035942D02*
X2037688D01*
X2041137D02*
X2043154D01*
X2046960D02*
X2047991D01*
X2049826D02*
X2051843D01*
X2054574D02*
X2057128D01*
X1944303Y1731275D02*
X1972835D01*
X1984345D02*
X1986003D01*
X1988376D02*
X1990034D01*
X1993751D02*
X1995407D01*
X1998229D02*
X1999888D01*
X2003335D02*
X2005352D01*
X2009337D02*
X2010189D01*
X2012562D02*
X2015026D01*
X2021072D02*
X2022730D01*
X2026088D02*
X2027836D01*
X2031015D02*
X2033119D01*
X2035942D02*
X2037688D01*
X2041137D02*
X2043064D01*
X2047139D02*
X2047991D01*
X2049826D02*
X2051753D01*
X2054664D02*
X2057128D01*
X1944214Y1731364D02*
X1972835D01*
X1984345D02*
X1986003D01*
X1988376D02*
X1990034D01*
X1993751D02*
X1995407D01*
X1998229D02*
X1999888D01*
X2003335D02*
X2005262D01*
X2009516D02*
X2010189D01*
X2012562D02*
X2014668D01*
X2021072D02*
X2022730D01*
X2026088D02*
X2027746D01*
X2031105D02*
X2033119D01*
X2035942D02*
X2037598D01*
X2041137D02*
X2042975D01*
X2047229D02*
X2047991D01*
X2049737D02*
X2051664D01*
X2054843D02*
X2057128D01*
X1944124Y1731454D02*
X1972925D01*
X1984345D02*
X1986003D01*
X1988376D02*
X1990034D01*
X1993751D02*
X1995407D01*
X1998229D02*
X1999888D01*
X2003335D02*
X2005173D01*
X2009606D02*
X2010189D01*
X2012562D02*
X2014399D01*
X2021072D02*
X2022730D01*
X2026088D02*
X2027746D01*
X2031194D02*
X2033119D01*
X2035942D02*
X2037598D01*
X2041048D02*
X2042885D01*
X2047408D02*
X2047991D01*
X2049737D02*
X2051664D01*
X2054932D02*
X2057128D01*
X1944124Y1731543D02*
X1973014D01*
X1984345D02*
X1986003D01*
X1988376D02*
X1990034D01*
X1993751D02*
X1995407D01*
X1998229D02*
X1999798D01*
X2003246D02*
X2005083D01*
X2009785D02*
X2010189D01*
X2012652D02*
X2014310D01*
X2021072D02*
X2022730D01*
X2026088D02*
X2027746D01*
X2031284D02*
X2033119D01*
X2035942D02*
X2037598D01*
X2041048D02*
X2042885D01*
X2047497D02*
X2047901D01*
X2049737D02*
X2051574D01*
X2055022D02*
X2057128D01*
X1944035Y1731633D02*
X1973014D01*
X1984345D02*
X1986003D01*
X1988376D02*
X1990034D01*
X1993751D02*
X1995407D01*
X1998229D02*
X1999798D01*
X2003246D02*
X2005083D01*
X2009875D02*
X2010189D01*
X2012652D02*
X2014220D01*
X2021072D02*
X2022730D01*
X2026088D02*
X2027746D01*
X2031373D02*
X2033119D01*
X2035942D02*
X2037598D01*
X2040958D02*
X2042796D01*
X2047677D02*
X2047901D01*
X2049647D02*
X2051485D01*
X2055112D02*
X2057128D01*
X1943945Y1731722D02*
X1973104D01*
X1984345D02*
X1986003D01*
X1988376D02*
X1990034D01*
X1993751D02*
X1995407D01*
X1998229D02*
X1999798D01*
X2003246D02*
X2004994D01*
X2009964D02*
X2010189D01*
X2012652D02*
X2014220D01*
X2021072D02*
X2022730D01*
X2026088D02*
X2027746D01*
X2031463D02*
X2033119D01*
X2035942D02*
X2037598D01*
X2040958D02*
X2042796D01*
X2047766D02*
X2047901D01*
X2049647D02*
X2051485D01*
X2055201D02*
X2057128D01*
X1943945Y1731812D02*
X1973193D01*
X1984345D02*
X1986003D01*
X1988376D02*
X1990034D01*
X1993751D02*
X1995407D01*
X1998229D02*
X1999798D01*
X2003156D02*
X2004994D01*
X2012652D02*
X2014220D01*
X2021072D02*
X2022730D01*
X2026088D02*
X2027746D01*
X2031553D02*
X2033119D01*
X2035942D02*
X2037598D01*
X2040958D02*
X2042706D01*
X2049647D02*
X2051395D01*
X2055201D02*
X2057128D01*
X1943856Y1731902D02*
X1973193D01*
X1984345D02*
X1986003D01*
X1988376D02*
X1990034D01*
X1993751D02*
X1995407D01*
X1998229D02*
X1999798D01*
X2003156D02*
X2004904D01*
X2012741D02*
X2014310D01*
X2021072D02*
X2022730D01*
X2026178D02*
X2027746D01*
X2031553D02*
X2033119D01*
X2035942D02*
X2037598D01*
X2040958D02*
X2042706D01*
X2049647D02*
X2051395D01*
X2055291D02*
X2057128D01*
X1943766Y1731991D02*
X1973283D01*
X1984345D02*
X1986003D01*
X1988376D02*
X1990034D01*
X1993751D02*
X1995407D01*
X1998229D02*
X1999798D01*
X2003156D02*
X2004904D01*
X2012831D02*
X2014399D01*
X2021072D02*
X2022730D01*
X2026178D02*
X2027836D01*
X2031553D02*
X2033119D01*
X2035942D02*
X2037598D01*
X2040869D02*
X2042616D01*
X2049558D02*
X2051395D01*
X2055380D02*
X2057128D01*
X1943766Y1732081D02*
X1973283D01*
X1984345D02*
X1986003D01*
X1988376D02*
X1990034D01*
X1993751D02*
X1995407D01*
X1998229D02*
X1999798D01*
X2003156D02*
X2004814D01*
X2012831D02*
X2014489D01*
X2021072D02*
X2022730D01*
X2026178D02*
X2027836D01*
X2031553D02*
X2033119D01*
X2035942D02*
X2037598D01*
X2040869D02*
X2042616D01*
X2049558D02*
X2051305D01*
X2055470D02*
X2057128D01*
X1943676Y1732170D02*
X1973372D01*
X1984345D02*
X1986003D01*
X1988376D02*
X1990034D01*
X1993751D02*
X1995407D01*
X1998229D02*
X1999798D01*
X2003067D02*
X2004814D01*
X2012920D02*
X2015922D01*
X2021072D02*
X2022730D01*
X2026178D02*
X2027836D01*
X2031553D02*
X2033119D01*
X2035942D02*
X2037598D01*
X2040869D02*
X2042527D01*
X2049558D02*
X2051305D01*
X2055470D02*
X2057128D01*
X1943676Y1732260D02*
X1973462D01*
X1984345D02*
X1986003D01*
X1988376D02*
X1990034D01*
X1993751D02*
X1995407D01*
X1998229D02*
X1999798D01*
X2003067D02*
X2004814D01*
X2013010D02*
X2016280D01*
X2021072D02*
X2022730D01*
X2026178D02*
X2027926D01*
X2031553D02*
X2033119D01*
X2035942D02*
X2037598D01*
X2040869D02*
X2042527D01*
X2049558D02*
X2051305D01*
X2055470D02*
X2057128D01*
X1943587Y1732350D02*
X1973462D01*
X1984345D02*
X1986003D01*
X1988376D02*
X1990034D01*
X1993751D02*
X1995407D01*
X1998229D02*
X1999798D01*
X2003067D02*
X2004725D01*
X2013099D02*
X2016549D01*
X2021072D02*
X2022730D01*
X2026178D02*
X2027926D01*
X2031553D02*
X2033119D01*
X2035942D02*
X2037598D01*
X2040779D02*
X2042527D01*
X2049558D02*
X2051216D01*
X2055470D02*
X2057128D01*
X1943587Y1732439D02*
X1973552D01*
X1984345D02*
X1986003D01*
X1988376D02*
X1990034D01*
X1993751D02*
X1995407D01*
X1998229D02*
X1999798D01*
X2003067D02*
X2004725D01*
X2013279D02*
X2016818D01*
X2021072D02*
X2022730D01*
X2026267D02*
X2028013D01*
X2031553D02*
X2033119D01*
X2035942D02*
X2037598D01*
X2040779D02*
X2042527D01*
X2049558D02*
X2051216D01*
X2055470D02*
X2057128D01*
X1943497Y1732529D02*
X1973552D01*
X1984345D02*
X1986003D01*
X1988376D02*
X1990034D01*
X1993751D02*
X1995407D01*
X1998229D02*
X1999798D01*
X2003067D02*
X2004725D01*
X2013368D02*
X2016997D01*
X2021072D02*
X2022730D01*
X2026267D02*
X2028103D01*
X2031553D02*
X2033119D01*
X2035942D02*
X2037598D01*
X2040779D02*
X2042437D01*
X2049558D02*
X2051216D01*
X2055470D02*
X2057128D01*
X1943408Y1732618D02*
X1947843D01*
X1951470D02*
X1952409D01*
X1956217D02*
X1960832D01*
X1964638D02*
X1965579D01*
X1969206D02*
X1973641D01*
X1984345D02*
X1986003D01*
X1988376D02*
X1990034D01*
X1993751D02*
X1995407D01*
X1998229D02*
X1999798D01*
X2002977D02*
X2004725D01*
X2013279D02*
X2017176D01*
X2021072D02*
X2022730D01*
X2026267D02*
X2028192D01*
X2031553D02*
X2033119D01*
X2035942D02*
X2037598D01*
X2040779D02*
X2042437D01*
X2049468D02*
X2051216D01*
X2055470D02*
X2057128D01*
X1943408Y1732708D02*
X1947843D01*
X1951470D02*
X1952499D01*
X1956307D02*
X1960832D01*
X1964638D02*
X1965579D01*
X1969206D02*
X1973641D01*
X1984345D02*
X1986003D01*
X1988376D02*
X1990034D01*
X1993751D02*
X1995407D01*
X1998229D02*
X1999798D01*
X2002977D02*
X2004635D01*
X2013189D02*
X2017266D01*
X2021072D02*
X2022730D01*
X2026357D02*
X2028282D01*
X2031553D02*
X2033119D01*
X2035942D02*
X2037598D01*
X2040779D02*
X2042437D01*
X2049468D02*
X2051216D01*
X2055470D02*
X2057128D01*
X1943318Y1732797D02*
X1947843D01*
X1951470D02*
X1952499D01*
X1956307D02*
X1960742D01*
X1964548D02*
X1965579D01*
X1969206D02*
X1973731D01*
X1984345D02*
X1986003D01*
X1988376D02*
X1990034D01*
X1993751D02*
X1995407D01*
X1998229D02*
X1999798D01*
X2002977D02*
X2004635D01*
X2013010D02*
X2017445D01*
X2021072D02*
X2022730D01*
X2026357D02*
X2028372D01*
X2031553D02*
X2033119D01*
X2035942D02*
X2037598D01*
X2040779D02*
X2042437D01*
X2049468D02*
X2051216D01*
X2055470D02*
X2057128D01*
X1943318Y1732887D02*
X1947843D01*
X1951470D02*
X1952590D01*
X1956397D02*
X1960742D01*
X1964548D02*
X1965579D01*
X1969206D02*
X1973820D01*
X1984345D02*
X1986003D01*
X1988376D02*
X1990034D01*
X1993751D02*
X1995407D01*
X1998229D02*
X1999798D01*
X2002977D02*
X2004635D01*
X2012920D02*
X2017534D01*
X2021072D02*
X2022730D01*
X2026447D02*
X2028551D01*
X2031553D02*
X2033119D01*
X2035942D02*
X2037598D01*
X2040779D02*
X2042437D01*
X2049468D02*
X2051126D01*
X2055470D02*
X2057128D01*
X1943229Y1732977D02*
X1947843D01*
X1951470D02*
X1952590D01*
X1956397D02*
X1960652D01*
X1964459D02*
X1965579D01*
X1969206D02*
X1973820D01*
X1984345D02*
X1986003D01*
X1988376D02*
X1990034D01*
X1993751D02*
X1995407D01*
X1998229D02*
X1999798D01*
X2002977D02*
X2004635D01*
X2012831D02*
X2017624D01*
X2021072D02*
X2022730D01*
X2026447D02*
X2028730D01*
X2031553D02*
X2033119D01*
X2035942D02*
X2037598D01*
X2040779D02*
X2042348D01*
X2049468D02*
X2051126D01*
X2055470D02*
X2057128D01*
X1943229Y1733066D02*
X1947843D01*
X1951470D02*
X1952680D01*
X1956486D02*
X1960563D01*
X1964369D02*
X1965579D01*
X1969206D02*
X1973910D01*
X1984345D02*
X1986003D01*
X1988376D02*
X1990034D01*
X1993751D02*
X1995407D01*
X1998229D02*
X1999798D01*
X2002977D02*
X2004635D01*
X2012741D02*
X2017714D01*
X2021072D02*
X2022730D01*
X2026536D02*
X2028909D01*
X2031553D02*
X2033119D01*
X2035942D02*
X2037598D01*
X2040690D02*
X2042348D01*
X2049468D02*
X2051126D01*
X2055470D02*
X2057128D01*
X1943139Y1733156D02*
X1947843D01*
X1951470D02*
X1952680D01*
X1956486D02*
X1960563D01*
X1964369D02*
X1965579D01*
X1969206D02*
X1973910D01*
X1984345D02*
X1986003D01*
X1988376D02*
X1990034D01*
X1993751D02*
X1995407D01*
X1998229D02*
X1999798D01*
X2002977D02*
X2004635D01*
X2012652D02*
X2017803D01*
X2021072D02*
X2022730D01*
X2026626D02*
X2029088D01*
X2031553D02*
X2033119D01*
X2035942D02*
X2037598D01*
X2040690D02*
X2042348D01*
X2049468D02*
X2051126D01*
X2055470D02*
X2057128D01*
X1943139Y1733245D02*
X1947843D01*
X1951470D02*
X1952770D01*
X1956576D02*
X1960473D01*
X1964279D02*
X1965579D01*
X1969206D02*
X1974000D01*
X1984345D02*
X1986003D01*
X1988376D02*
X1990034D01*
X1993751D02*
X1995407D01*
X1998229D02*
X1999798D01*
X2002977D02*
X2004635D01*
X2012562D02*
X2017893D01*
X2021072D02*
X2022730D01*
X2026626D02*
X2029357D01*
X2031553D02*
X2033119D01*
X2035942D02*
X2037598D01*
X2040690D02*
X2042348D01*
X2049468D02*
X2051126D01*
X2055470D02*
X2057128D01*
X1943049Y1733335D02*
X1947843D01*
X1951470D02*
X1952859D01*
X1956665D02*
X1960473D01*
X1964279D02*
X1965579D01*
X1969206D02*
X1974000D01*
X1984345D02*
X1986003D01*
X1988376D02*
X1990034D01*
X1993751D02*
X1995407D01*
X1998229D02*
X1999798D01*
X2002977D02*
X2004635D01*
X2012472D02*
X2017982D01*
X2021072D02*
X2022730D01*
X2026715D02*
X2029715D01*
X2031553D02*
X2033119D01*
X2035942D02*
X2037598D01*
X2040690D02*
X2042348D01*
X2049468D02*
X2051126D01*
X2055470D02*
X2057128D01*
X1943049Y1733424D02*
X1947843D01*
X1951470D02*
X1952859D01*
X1956665D02*
X1960384D01*
X1964190D02*
X1965579D01*
X1969206D02*
X1974089D01*
X1984345D02*
X1986003D01*
X1988376D02*
X1990034D01*
X1993751D02*
X1995407D01*
X1998229D02*
X1999798D01*
X2002977D02*
X2010368D01*
X2012383D02*
X2014668D01*
X2015787D02*
X2018072D01*
X2021072D02*
X2022730D01*
X2026805D02*
X2030074D01*
X2031553D02*
X2033119D01*
X2035942D02*
X2037598D01*
X2040690D02*
X2048170D01*
X2049468D02*
X2051126D01*
X2055470D02*
X2057128D01*
X1942960Y1733514D02*
X1947843D01*
X1951470D02*
X1952949D01*
X1956755D02*
X1960384D01*
X1964190D02*
X1965579D01*
X1969206D02*
X1974089D01*
X1984345D02*
X1986003D01*
X1988376D02*
X1990034D01*
X1993751D02*
X1995407D01*
X1998229D02*
X1999798D01*
X2002977D02*
X2010368D01*
X2012383D02*
X2014399D01*
X2015966D02*
X2018072D01*
X2021072D02*
X2022730D01*
X2026894D02*
X2030521D01*
X2031553D02*
X2033119D01*
X2035942D02*
X2037598D01*
X2040690D02*
X2048170D01*
X2049468D02*
X2051126D01*
X2055470D02*
X2057128D01*
X1942960Y1733604D02*
X1947843D01*
X1951470D02*
X1952949D01*
X1956755D02*
X1960294D01*
X1964100D02*
X1965579D01*
X1969206D02*
X1974179D01*
X1984345D02*
X1986003D01*
X1988376D02*
X1990034D01*
X1993751D02*
X1995407D01*
X1998229D02*
X1999798D01*
X2002977D02*
X2010368D01*
X2012293D02*
X2014220D01*
X2016145D02*
X2018162D01*
X2021072D02*
X2022730D01*
X2026984D02*
X2031238D01*
X2031553D02*
X2033119D01*
X2035942D02*
X2037598D01*
X2040690D02*
X2048170D01*
X2049468D02*
X2051126D01*
X2055470D02*
X2057128D01*
X1942870Y1733693D02*
X1947843D01*
X1951470D02*
X1953038D01*
X1956844D02*
X1960294D01*
X1964100D02*
X1965579D01*
X1969206D02*
X1974179D01*
X1984345D02*
X1986003D01*
X1988376D02*
X1990034D01*
X1993751D02*
X1995407D01*
X1998229D02*
X1999798D01*
X2002977D02*
X2010368D01*
X2012204D02*
X2014131D01*
X2016324D02*
X2018162D01*
X2021072D02*
X2022730D01*
X2027163D02*
X2033119D01*
X2035942D02*
X2037598D01*
X2040690D02*
X2048170D01*
X2049468D02*
X2051126D01*
X2055470D02*
X2057128D01*
X1942870Y1733783D02*
X1947843D01*
X1951470D02*
X1953038D01*
X1956844D02*
X1960204D01*
X1964011D02*
X1965579D01*
X1969206D02*
X1974179D01*
X1984345D02*
X1986003D01*
X1988376D02*
X1990034D01*
X1993751D02*
X1995407D01*
X1998229D02*
X1999798D01*
X2002977D02*
X2010368D01*
X2012204D02*
X2014041D01*
X2016414D02*
X2018251D01*
X2021072D02*
X2022730D01*
X2027253D02*
X2033119D01*
X2035942D02*
X2037598D01*
X2040690D02*
X2048170D01*
X2049468D02*
X2051126D01*
X2055470D02*
X2057128D01*
X1942781Y1733872D02*
X1947843D01*
X1951470D02*
X1953128D01*
X1956934D02*
X1960115D01*
X1963921D02*
X1965579D01*
X1969206D02*
X1974268D01*
X1984345D02*
X1986003D01*
X1988376D02*
X1990034D01*
X1993751D02*
X1995407D01*
X1998229D02*
X1999798D01*
X2002977D02*
X2010368D01*
X2012114D02*
X2013951D01*
X2016503D02*
X2018251D01*
X2021072D02*
X2022730D01*
X2027342D02*
X2033119D01*
X2035942D02*
X2037598D01*
X2040690D02*
X2048170D01*
X2049468D02*
X2051126D01*
X2055470D02*
X2057128D01*
X1942781Y1733962D02*
X1947843D01*
X1951470D02*
X1953128D01*
X1956934D02*
X1960115D01*
X1963921D02*
X1965579D01*
X1969206D02*
X1974268D01*
X1984345D02*
X1986003D01*
X1988376D02*
X1990034D01*
X1993751D02*
X1995407D01*
X1998229D02*
X1999798D01*
X2002977D02*
X2010368D01*
X2012114D02*
X2013862D01*
X2016593D02*
X2018341D01*
X2021072D02*
X2022730D01*
X2027522D02*
X2033119D01*
X2035942D02*
X2037598D01*
X2040690D02*
X2048170D01*
X2049468D02*
X2051126D01*
X2055470D02*
X2057128D01*
X1942781Y1734051D02*
X1947843D01*
X1951470D02*
X1953216D01*
X1957024D02*
X1960024D01*
X1963831D02*
X1965579D01*
X1969206D02*
X1974358D01*
X1984345D02*
X1986003D01*
X1988376D02*
X1990034D01*
X1993751D02*
X1995407D01*
X1998229D02*
X1999798D01*
X2002977D02*
X2010368D01*
X2012114D02*
X2013772D01*
X2016593D02*
X2018341D01*
X2021072D02*
X2022730D01*
X2027701D02*
X2033119D01*
X2035942D02*
X2037598D01*
X2040690D02*
X2048170D01*
X2049468D02*
X2051126D01*
X2055470D02*
X2057128D01*
X1942691Y1734141D02*
X1947843D01*
X1951470D02*
X1953305D01*
X1957113D02*
X1960024D01*
X1963831D02*
X1965579D01*
X1969206D02*
X1974358D01*
X1984345D02*
X1986003D01*
X1988376D02*
X1990034D01*
X1993751D02*
X1995407D01*
X1998229D02*
X1999798D01*
X2002977D02*
X2010368D01*
X2012025D02*
X2013772D01*
X2016683D02*
X2018430D01*
X2021072D02*
X2022730D01*
X2027880D02*
X2033119D01*
X2035942D02*
X2037598D01*
X2040690D02*
X2048170D01*
X2049468D02*
X2051216D01*
X2055470D02*
X2057128D01*
X1942691Y1734231D02*
X1947843D01*
X1951470D02*
X1953305D01*
X1957113D02*
X1959934D01*
X1963742D02*
X1965579D01*
X1969206D02*
X1974447D01*
X1984345D02*
X1986003D01*
X1988376D02*
X1990034D01*
X1993751D02*
X1995407D01*
X1998229D02*
X1999798D01*
X2002977D02*
X2010368D01*
X2012025D02*
X2013683D01*
X2016772D02*
X2018430D01*
X2021072D02*
X2022730D01*
X2028059D02*
X2033119D01*
X2035942D02*
X2037598D01*
X2040690D02*
X2048170D01*
X2049558D02*
X2051216D01*
X2055470D02*
X2057128D01*
X1942601Y1734320D02*
X1947843D01*
X1951470D02*
X1953395D01*
X1957203D02*
X1959934D01*
X1963742D02*
X1965579D01*
X1969206D02*
X1974447D01*
X1984345D02*
X1986003D01*
X1988376D02*
X1990034D01*
X1993751D02*
X1995407D01*
X1998229D02*
X1999798D01*
X2002977D02*
X2010368D01*
X2012025D02*
X2013683D01*
X2016772D02*
X2018430D01*
X2021072D02*
X2022730D01*
X2028328D02*
X2033119D01*
X2035942D02*
X2037598D01*
X2040779D02*
X2048170D01*
X2049558D02*
X2051216D01*
X2055470D02*
X2057128D01*
X1942601Y1734410D02*
X1947843D01*
X1951470D02*
X1953395D01*
X1957203D02*
X1959844D01*
X1963652D02*
X1965579D01*
X1969206D02*
X1974537D01*
X1984345D02*
X1986003D01*
X1988376D02*
X1990034D01*
X1993751D02*
X1995407D01*
X1998229D02*
X1999798D01*
X2002977D02*
X2010368D01*
X2011935D02*
X2013593D01*
X2016772D02*
X2018430D01*
X2021072D02*
X2022730D01*
X2028596D02*
X2033119D01*
X2035942D02*
X2037598D01*
X2040779D02*
X2048170D01*
X2049558D02*
X2051216D01*
X2055470D02*
X2057128D01*
X1942512Y1734499D02*
X1947843D01*
X1951470D02*
X1953484D01*
X1957292D02*
X1959844D01*
X1963652D02*
X1965579D01*
X1969206D02*
X1974537D01*
X1984345D02*
X1986003D01*
X1988376D02*
X1990034D01*
X1993751D02*
X1995407D01*
X1998229D02*
X1999798D01*
X2002977D02*
X2010368D01*
X2011935D02*
X2013593D01*
X2016862D02*
X2018520D01*
X2021072D02*
X2022730D01*
X2028865D02*
X2033119D01*
X2035942D02*
X2037598D01*
X2040779D02*
X2048081D01*
X2049558D02*
X2051216D01*
X2055470D02*
X2057128D01*
X1942512Y1734589D02*
X1947843D01*
X1951470D02*
X1953484D01*
X1957292D02*
X1959757D01*
X1963563D02*
X1965579D01*
X1969206D02*
X1974537D01*
X1984345D02*
X1986003D01*
X1988376D02*
X1990034D01*
X1993751D02*
X1995407D01*
X1998229D02*
X1999798D01*
X2002977D02*
X2010368D01*
X2011935D02*
X2013593D01*
X2016862D02*
X2018520D01*
X2021072D02*
X2022820D01*
X2029224D02*
X2033119D01*
X2035942D02*
X2037598D01*
X2040779D02*
X2048081D01*
X2049558D02*
X2051216D01*
X2055470D02*
X2057128D01*
X1942512Y1734679D02*
X1947843D01*
X1951470D02*
X1953574D01*
X1957382D02*
X1959757D01*
X1963473D02*
X1965579D01*
X1969206D02*
X1974627D01*
X1984345D02*
X1986003D01*
X1988376D02*
X1990034D01*
X1993751D02*
X1995407D01*
X1998229D02*
X1999798D01*
X2003067D02*
X2010368D01*
X2011935D02*
X2013503D01*
X2016862D02*
X2018520D01*
X2021072D02*
X2022909D01*
X2029671D02*
X2033119D01*
X2035942D02*
X2037598D01*
X2040779D02*
X2048081D01*
X2049558D02*
X2051305D01*
X2055470D02*
X2057128D01*
X1942422Y1734768D02*
X1947843D01*
X1951470D02*
X1953574D01*
X1957382D02*
X1959667D01*
X1963473D02*
X1965579D01*
X1969206D02*
X1974627D01*
X1984345D02*
X1986003D01*
X1988376D02*
X1990034D01*
X1993751D02*
X1995407D01*
X1998229D02*
X1999798D01*
X2003067D02*
X2004725D01*
X2008710D02*
X2010368D01*
X2011935D02*
X2013503D01*
X2016951D02*
X2018520D01*
X2021072D02*
X2022909D01*
X2030119D02*
X2033119D01*
X2035942D02*
X2037598D01*
X2040779D02*
X2042437D01*
X2046512D02*
X2048081D01*
X2049558D02*
X2051305D01*
X2055470D02*
X2057128D01*
X1942422Y1734858D02*
X1947843D01*
X1951470D02*
X1953663D01*
X1957471D02*
X1959577D01*
X1963384D02*
X1965579D01*
X1969206D02*
X1974627D01*
X1984345D02*
X1986003D01*
X1988376D02*
X1990034D01*
X1993751D02*
X1995407D01*
X1998229D02*
X1999798D01*
X2003067D02*
X2004725D01*
X2008710D02*
X2010279D01*
X2011935D02*
X2013503D01*
X2016951D02*
X2018520D01*
X2021072D02*
X2022999D01*
X2030746D02*
X2033119D01*
X2035942D02*
X2037598D01*
X2040779D02*
X2042437D01*
X2046423D02*
X2048081D01*
X2049647D02*
X2051305D01*
X2055470D02*
X2057128D01*
X1942333Y1734947D02*
X1947843D01*
X1951470D02*
X1953753D01*
X1957471D02*
X1959577D01*
X1963384D02*
X1965579D01*
X1969206D02*
X1974716D01*
X1984345D02*
X1986003D01*
X1988376D02*
X1990034D01*
X1993751D02*
X1995407D01*
X1998229D02*
X1999798D01*
X2003067D02*
X2004725D01*
X2008710D02*
X2010279D01*
X2011935D02*
X2013503D01*
X2016951D02*
X2018520D01*
X2021072D02*
X2023088D01*
X2031463D02*
X2033119D01*
X2035942D02*
X2037598D01*
X2040869D02*
X2042527D01*
X2046423D02*
X2048081D01*
X2049647D02*
X2051305D01*
X2055470D02*
X2057128D01*
X1942333Y1735037D02*
X1947843D01*
X1951470D02*
X1953753D01*
X1957561D02*
X1959488D01*
X1963294D02*
X1965579D01*
X1969206D02*
X1974716D01*
X1984345D02*
X1986003D01*
X1988376D02*
X1990034D01*
X1993751D02*
X1995407D01*
X1998229D02*
X1999798D01*
X2003067D02*
X2004725D01*
X2008621D02*
X2010279D01*
X2011935D02*
X2013503D01*
X2016951D02*
X2018520D01*
X2021072D02*
X2023088D01*
X2031553D02*
X2033119D01*
X2035942D02*
X2037598D01*
X2040869D02*
X2042527D01*
X2046423D02*
X2048081D01*
X2049647D02*
X2051395D01*
X2055470D02*
X2057128D01*
X1942333Y1735126D02*
X1947843D01*
X1951470D02*
X1953843D01*
X1957651D02*
X1959488D01*
X1963294D02*
X1965579D01*
X1969206D02*
X1974806D01*
X1984345D02*
X1986003D01*
X1988376D02*
X1990034D01*
X1993751D02*
X1995407D01*
X1998229D02*
X1999798D01*
X2003156D02*
X2004814D01*
X2008621D02*
X2010279D01*
X2011935D02*
X2013503D01*
X2016951D02*
X2018520D01*
X2021072D02*
X2023178D01*
X2031553D02*
X2033119D01*
X2035942D02*
X2037598D01*
X2040869D02*
X2042527D01*
X2046423D02*
X2047991D01*
X2049647D02*
X2051395D01*
X2055470D02*
X2057128D01*
X1942243Y1735216D02*
X1947843D01*
X1951470D02*
X1953843D01*
X1957651D02*
X1959398D01*
X1963204D02*
X1965579D01*
X1969206D02*
X1974806D01*
X1984345D02*
X1986003D01*
X1988376D02*
X1990034D01*
X1993751D02*
X1995407D01*
X1998229D02*
X1999798D01*
X2003156D02*
X2004814D01*
X2008621D02*
X2010279D01*
X2011935D02*
X2013503D01*
X2016951D02*
X2018520D01*
X2021072D02*
X2023267D01*
X2031553D02*
X2033119D01*
X2035942D02*
X2037598D01*
X2040869D02*
X2042616D01*
X2046333D02*
X2047991D01*
X2049737D02*
X2051485D01*
X2055470D02*
X2057128D01*
X1942243Y1735306D02*
X1947843D01*
X1951470D02*
X1953932D01*
X1957740D02*
X1959398D01*
X1963204D02*
X1965579D01*
X1969206D02*
X1974806D01*
X1984345D02*
X1986003D01*
X1988376D02*
X1990124D01*
X1993751D02*
X1995407D01*
X1998229D02*
X1999798D01*
X2003156D02*
X2004814D01*
X2008621D02*
X2010189D01*
X2011935D02*
X2013503D01*
X2016951D02*
X2018520D01*
X2021072D02*
X2023357D01*
X2031553D02*
X2033119D01*
X2035942D02*
X2037598D01*
X2040958D02*
X2042616D01*
X2046333D02*
X2047991D01*
X2049737D02*
X2051485D01*
X2055470D02*
X2057128D01*
X1942243Y1735395D02*
X1947843D01*
X1951470D02*
X1953932D01*
X1957740D02*
X1959309D01*
X1963115D02*
X1965579D01*
X1969206D02*
X1974895D01*
X1984345D02*
X1986003D01*
X1988376D02*
X1990213D01*
X1993751D02*
X1995407D01*
X1998229D02*
X1999798D01*
X2003156D02*
X2004904D01*
X2008531D02*
X2010189D01*
X2011935D02*
X2013503D01*
X2016951D02*
X2018520D01*
X2021072D02*
X2023447D01*
X2031553D02*
X2033119D01*
X2035942D02*
X2037598D01*
X2040958D02*
X2042616D01*
X2046333D02*
X2047991D01*
X2049737D02*
X2051485D01*
X2055470D02*
X2057128D01*
X1942154Y1735485D02*
X1947843D01*
X1951470D02*
X1954022D01*
X1957830D02*
X1959309D01*
X1963025D02*
X1965579D01*
X1969206D02*
X1974895D01*
X1984345D02*
X1986003D01*
X1988376D02*
X1990303D01*
X1993751D02*
X1995407D01*
X1998229D02*
X1999798D01*
X2003246D02*
X2004904D01*
X2008531D02*
X2010189D01*
X2011935D02*
X2013503D01*
X2016951D02*
X2018520D01*
X2021072D02*
X2023536D01*
X2031463D02*
X2033119D01*
X2035942D02*
X2037598D01*
X2040958D02*
X2042706D01*
X2046243D02*
X2047901D01*
X2049826D02*
X2051574D01*
X2055470D02*
X2057128D01*
X1942154Y1735574D02*
X1947843D01*
X1951470D02*
X1954022D01*
X1957830D02*
X1959219D01*
X1963025D02*
X1965579D01*
X1969206D02*
X1974895D01*
X1984345D02*
X1986003D01*
X1988376D02*
X1990392D01*
X1993751D02*
X1995407D01*
X1998229D02*
X1999798D01*
X2003246D02*
X2004994D01*
X2008531D02*
X2010189D01*
X2011935D02*
X2013593D01*
X2016862D02*
X2018520D01*
X2021072D02*
X2023626D01*
X2031463D02*
X2033119D01*
X2035942D02*
X2037598D01*
X2041048D02*
X2042706D01*
X2046243D02*
X2047901D01*
X2049826D02*
X2051664D01*
X2055470D02*
X2057128D01*
X1942154Y1735664D02*
X1947843D01*
X1951470D02*
X1954111D01*
X1957919D02*
X1959130D01*
X1962936D02*
X1965579D01*
X1969206D02*
X1974985D01*
X1984345D02*
X1986003D01*
X1988376D02*
X1990482D01*
X1993661D02*
X1995407D01*
X1998229D02*
X1999798D01*
X2003246D02*
X2004994D01*
X2008441D02*
X2010100D01*
X2011935D02*
X2013593D01*
X2016862D02*
X2018520D01*
X2021072D02*
X2023715D01*
X2031463D02*
X2033119D01*
X2035942D02*
X2037598D01*
X2041048D02*
X2042796D01*
X2046243D02*
X2047901D01*
X2049826D02*
X2051664D01*
X2055470D02*
X2057128D01*
X1942064Y1735753D02*
X1947843D01*
X1951470D02*
X1954201D01*
X1957919D02*
X1959130D01*
X1962936D02*
X1965579D01*
X1969206D02*
X1974985D01*
X1984345D02*
X1986003D01*
X1988376D02*
X1990571D01*
X1993661D02*
X1995407D01*
X1998229D02*
X1999798D01*
X2003335D02*
X2005083D01*
X2008441D02*
X2010100D01*
X2011935D02*
X2013593D01*
X2016862D02*
X2018520D01*
X2021072D02*
X2023895D01*
X2031463D02*
X2033119D01*
X2035942D02*
X2037598D01*
X2041048D02*
X2042796D01*
X2046154D02*
X2047901D01*
X2049916D02*
X2051753D01*
X2055470D02*
X2057128D01*
X1942064Y1735843D02*
X1947843D01*
X1951470D02*
X1954201D01*
X1958009D02*
X1959040D01*
X1962846D02*
X1965579D01*
X1969206D02*
X1974985D01*
X1984345D02*
X1986003D01*
X1988376D02*
X1990661D01*
X1993661D02*
X1995407D01*
X1998229D02*
X1999798D01*
X2003335D02*
X2005083D01*
X2008352D02*
X2010100D01*
X2011935D02*
X2013683D01*
X2016772D02*
X2018430D01*
X2021072D02*
X2023984D01*
X2031463D02*
X2033119D01*
X2035942D02*
X2037598D01*
X2041137D02*
X2042885D01*
X2046154D02*
X2047812D01*
X2049916D02*
X2051843D01*
X2055470D02*
X2057128D01*
X1942064Y1735933D02*
X1947843D01*
X1951470D02*
X1954291D01*
X1958098D02*
X1959040D01*
X1962846D02*
X1965579D01*
X1969206D02*
X1975074D01*
X1984345D02*
X1986003D01*
X1988376D02*
X1990840D01*
X1993571D02*
X1995407D01*
X1998229D02*
X1999798D01*
X2003425D02*
X2005173D01*
X2008352D02*
X2010010D01*
X2012025D02*
X2013683D01*
X2016772D02*
X2018430D01*
X2021072D02*
X2024163D01*
X2031373D02*
X2033119D01*
X2035942D02*
X2037598D01*
X2041137D02*
X2042885D01*
X2046064D02*
X2047812D01*
X2050006D02*
X2051843D01*
X2055470D02*
X2057128D01*
X1941974Y1736022D02*
X1947843D01*
X1951470D02*
X1954291D01*
X1958098D02*
X1958950D01*
X1962757D02*
X1965579D01*
X1969206D02*
X1975074D01*
X1984345D02*
X1986003D01*
X1988376D02*
X1990930D01*
X1993571D02*
X1995407D01*
X1998229D02*
X1999798D01*
X2003425D02*
X2005262D01*
X2008262D02*
X2010010D01*
X2012025D02*
X2013772D01*
X2016683D02*
X2018430D01*
X2021072D02*
X2024253D01*
X2026894D02*
X2027209D01*
X2031373D02*
X2033119D01*
X2035942D02*
X2037598D01*
X2041227D02*
X2042975D01*
X2045975D02*
X2047722D01*
X2050006D02*
X2051932D01*
X2055470D02*
X2057128D01*
X1941974Y1736112D02*
X1947843D01*
X1951470D02*
X1954380D01*
X1958188D02*
X1958950D01*
X1962757D02*
X1965579D01*
X1969206D02*
X1975074D01*
X1984345D02*
X1986003D01*
X1988376D02*
X1991019D01*
X1993482D02*
X1995407D01*
X1998229D02*
X1999798D01*
X2003515D02*
X2005262D01*
X2008173D02*
X2009920D01*
X2012025D02*
X2013772D01*
X2016683D02*
X2018341D01*
X2021072D02*
X2024432D01*
X2026894D02*
X2027388D01*
X2031284D02*
X2033119D01*
X2035942D02*
X2037598D01*
X2041227D02*
X2043064D01*
X2045975D02*
X2047722D01*
X2050095D02*
X2052022D01*
X2055470D02*
X2057128D01*
X1941974Y1736201D02*
X1947843D01*
X1951470D02*
X1954380D01*
X1958188D02*
X1958861D01*
X1962667D02*
X1965579D01*
X1969206D02*
X1975074D01*
X1984345D02*
X1986003D01*
X1988376D02*
X1991199D01*
X1993482D02*
X1995317D01*
X1998229D02*
X1999798D01*
X2003515D02*
X2005352D01*
X2008083D02*
X2009920D01*
X2012114D02*
X2013862D01*
X2016593D02*
X2018341D01*
X2021072D02*
X2024611D01*
X2026894D02*
X2027657D01*
X2031194D02*
X2033119D01*
X2035942D02*
X2037598D01*
X2041317D02*
X2043154D01*
X2045885D02*
X2047633D01*
X2050095D02*
X2052201D01*
X2055380D02*
X2057128D01*
X1941974Y1736291D02*
X1947843D01*
X1951470D02*
X1954470D01*
X1958278D02*
X1958861D01*
X1962667D02*
X1965579D01*
X1969206D02*
X1975164D01*
X1984345D02*
X1986003D01*
X1988376D02*
X1991378D01*
X1993392D02*
X1995317D01*
X1998229D02*
X1999798D01*
X2003604D02*
X2005441D01*
X2007994D02*
X2009831D01*
X2012114D02*
X2013951D01*
X2016503D02*
X2018341D01*
X2021072D02*
X2024790D01*
X2026894D02*
X2027836D01*
X2031105D02*
X2033030D01*
X2035942D02*
X2037598D01*
X2041317D02*
X2043243D01*
X2045795D02*
X2047633D01*
X2050185D02*
X2052291D01*
X2055201D02*
X2057128D01*
X1941885Y1736381D02*
X1947843D01*
X1951470D02*
X1954470D01*
X1958278D02*
X1958769D01*
X1962577D02*
X1965579D01*
X1969206D02*
X1975164D01*
X1984345D02*
X1986003D01*
X1988376D02*
X1991557D01*
X1993213D02*
X1995317D01*
X1998229D02*
X1999798D01*
X2003604D02*
X2005621D01*
X2007904D02*
X2009831D01*
X2012204D02*
X2014041D01*
X2016414D02*
X2018251D01*
X2021072D02*
X2025149D01*
X2026894D02*
X2028103D01*
X2031015D02*
X2033030D01*
X2035942D02*
X2037598D01*
X2041406D02*
X2043333D01*
X2045706D02*
X2047543D01*
X2050185D02*
X2052470D01*
X2054932D02*
X2057128D01*
X1941885Y1736470D02*
X1947843D01*
X1951470D02*
X1954559D01*
X1958367D02*
X1958680D01*
X1962488D02*
X1965579D01*
X1969206D02*
X1975164D01*
X1984345D02*
X1986003D01*
X1988376D02*
X1991736D01*
X1993124D02*
X1995317D01*
X1998229D02*
X1999798D01*
X2003694D02*
X2005710D01*
X2007814D02*
X2009741D01*
X2012204D02*
X2014131D01*
X2016324D02*
X2019057D01*
X2021072D02*
X2022551D01*
X2022774D02*
X2025507D01*
X2026805D02*
X2028461D01*
X2030926D02*
X2033030D01*
X2035942D02*
X2037598D01*
X2041406D02*
X2043423D01*
X2045527D02*
X2047543D01*
X2050274D02*
X2052649D01*
X2054664D02*
X2057128D01*
X1941885Y1736560D02*
X1947843D01*
X1951470D02*
X1954649D01*
X1958367D02*
X1958680D01*
X1962488D02*
X1965579D01*
X1969206D02*
X1975252D01*
X1984345D02*
X1986003D01*
X1988376D02*
X1992094D01*
X1992855D02*
X1995228D01*
X1996796D02*
X2001948D01*
X2003694D02*
X2005889D01*
X2007635D02*
X2009741D01*
X2012293D02*
X2014220D01*
X2016235D02*
X2019864D01*
X2021072D02*
X2022551D01*
X2022863D02*
X2025865D01*
X2026805D02*
X2028820D01*
X2030657D02*
X2032940D01*
X2034509D02*
X2039660D01*
X2041496D02*
X2043602D01*
X2045437D02*
X2047454D01*
X2050364D02*
X2052918D01*
X2054216D02*
X2057128D01*
X1941885Y1736649D02*
X1947843D01*
X1951470D02*
X1954649D01*
X1958457D02*
X1958592D01*
X1962398D02*
X1965579D01*
X1969206D02*
X1975252D01*
X1984345D02*
X1986003D01*
X1988376D02*
X1995228D01*
X1996796D02*
X2001948D01*
X2003783D02*
X2006069D01*
X2007456D02*
X2009652D01*
X2012293D02*
X2014310D01*
X2016056D02*
X2019864D01*
X2021072D02*
X2022551D01*
X2022863D02*
X2025865D01*
X2026805D02*
X2029447D01*
X2030298D02*
X2032940D01*
X2034509D02*
X2039660D01*
X2041585D02*
X2043781D01*
X2045258D02*
X2047454D01*
X2050454D02*
X2057128D01*
X1941795Y1736739D02*
X1947843D01*
X1951470D02*
X1954738D01*
X1958546D02*
X1958592D01*
X1962398D02*
X1965579D01*
X1969206D02*
X1975252D01*
X1984345D02*
X1986003D01*
X1988376D02*
X1995228D01*
X1996796D02*
X2001948D01*
X2003873D02*
X2006337D01*
X2007187D02*
X2009562D01*
X2012383D02*
X2014578D01*
X2015876D02*
X2019774D01*
X2021072D02*
X2022551D01*
X2022953D02*
X2025865D01*
X2026805D02*
X2032940D01*
X2034509D02*
X2039660D01*
X2041585D02*
X2044139D01*
X2044900D02*
X2047364D01*
X2050454D02*
X2057128D01*
X1941795Y1736828D02*
X1947843D01*
X1951470D02*
X1954738D01*
X1962309D02*
X1965579D01*
X1969206D02*
X1975252D01*
X1984345D02*
X1986003D01*
X1988376D02*
X1989855D01*
X1989988D02*
X1995138D01*
X1996796D02*
X2001948D01*
X2003962D02*
X2009562D01*
X2012383D02*
X2014847D01*
X2015608D02*
X2019774D01*
X2021072D02*
X2022551D01*
X2023043D02*
X2025865D01*
X2026805D02*
X2032851D01*
X2034509D02*
X2039660D01*
X2041675D02*
X2047274D01*
X2050543D02*
X2057128D01*
X1941795Y1736918D02*
X1947843D01*
X1951470D02*
X1954828D01*
X1962309D02*
X1965579D01*
X1969206D02*
X1975341D01*
X1984345D02*
X1986003D01*
X1988376D02*
X1989855D01*
X1990078D02*
X1995138D01*
X1996796D02*
X2001948D01*
X2004052D02*
X2009472D01*
X2012472D02*
X2019774D01*
X2021072D02*
X2022551D01*
X2023132D02*
X2025865D01*
X2026805D02*
X2032851D01*
X2034509D02*
X2039660D01*
X2041764D02*
X2047274D01*
X2050633D02*
X2057128D01*
X1941795Y1737008D02*
X1947843D01*
X1951470D02*
X1954828D01*
X1962219D02*
X1965579D01*
X1969206D02*
X1975341D01*
X1984345D02*
X1986003D01*
X1988376D02*
X1989855D01*
X1990167D02*
X1995049D01*
X1996796D02*
X2001948D01*
X2004052D02*
X2009383D01*
X2012562D02*
X2019774D01*
X2021072D02*
X2022551D01*
X2023222D02*
X2025776D01*
X2026805D02*
X2032761D01*
X2034509D02*
X2039660D01*
X2041854D02*
X2047185D01*
X2050722D02*
X2057128D01*
X1941706Y1737097D02*
X1947843D01*
X1951470D02*
X1954918D01*
X1962219D02*
X1965579D01*
X1969206D02*
X1975341D01*
X1984345D02*
X1986003D01*
X1988376D02*
X1989855D01*
X1990347D02*
X1995049D01*
X1996796D02*
X2001948D01*
X2004142D02*
X2009293D01*
X2012652D02*
X2019774D01*
X2021072D02*
X2022461D01*
X2023311D02*
X2025776D01*
X2026715D02*
X2032761D01*
X2034509D02*
X2039660D01*
X2041944D02*
X2047095D01*
X2050812D02*
X2057128D01*
X1941706Y1737187D02*
X1947843D01*
X1951470D02*
X1954918D01*
X1962130D02*
X1965579D01*
X1969206D02*
X1975341D01*
X1984345D02*
X1986003D01*
X1988376D02*
X1989855D01*
X1990436D02*
X1994959D01*
X1996796D02*
X2001948D01*
X2004231D02*
X2009204D01*
X2012741D02*
X2019774D01*
X2021072D02*
X2022461D01*
X2023401D02*
X2025776D01*
X2026715D02*
X2032671D01*
X2034509D02*
X2039660D01*
X2042033D02*
X2047006D01*
X2050901D02*
X2057128D01*
X1941706Y1737276D02*
X1947843D01*
X1951470D02*
X1955007D01*
X1962040D02*
X1965579D01*
X1969206D02*
X1975341D01*
X1984345D02*
X1986003D01*
X1988376D02*
X1989765D01*
X1990526D02*
X1994869D01*
X1996796D02*
X2001948D01*
X2004410D02*
X2009114D01*
X2012831D02*
X2019684D01*
X2021072D02*
X2022461D01*
X2023491D02*
X2025776D01*
X2026715D02*
X2032582D01*
X2034509D02*
X2039660D01*
X2042123D02*
X2046916D01*
X2050991D02*
X2057128D01*
X1941706Y1737366D02*
X1947843D01*
X1951470D02*
X1955099D01*
X1962040D02*
X1965579D01*
X1969206D02*
X1975431D01*
X1984345D02*
X1986003D01*
X1988376D02*
X1989765D01*
X1990705D02*
X1994869D01*
X1996796D02*
X2001948D01*
X2004500D02*
X2009025D01*
X2012920D02*
X2019684D01*
X2021072D02*
X2022461D01*
X2023580D02*
X2025776D01*
X2026715D02*
X2032492D01*
X2034509D02*
X2039660D01*
X2042212D02*
X2046827D01*
X2051170D02*
X2057128D01*
X1941616Y1737455D02*
X1947843D01*
X1951470D02*
X1955099D01*
X1961950D02*
X1965579D01*
X1969206D02*
X1975431D01*
X1984345D02*
X1986003D01*
X1988376D02*
X1989765D01*
X1990795D02*
X1994780D01*
X1996796D02*
X2001948D01*
X2004590D02*
X2008935D01*
X2013010D02*
X2017355D01*
X2017578D02*
X2019684D01*
X2021072D02*
X2022461D01*
X2023759D02*
X2025776D01*
X2026805D02*
X2032403D01*
X2034509D02*
X2039660D01*
X2042392D02*
X2046647D01*
X2051260D02*
X2057128D01*
X1941616Y1737545D02*
X1947843D01*
X1951470D02*
X1955188D01*
X1961950D02*
X1965579D01*
X1969206D02*
X1975431D01*
X1984345D02*
X1986003D01*
X1988376D02*
X1989765D01*
X1990974D02*
X1994690D01*
X1996796D02*
X2001948D01*
X2004679D02*
X2008756D01*
X2013189D02*
X2017266D01*
X2017847D02*
X2019684D01*
X2021072D02*
X2022461D01*
X2023849D02*
X2025686D01*
X2027074D02*
X2032313D01*
X2034509D02*
X2039660D01*
X2042481D02*
X2046558D01*
X2051439D02*
X2057128D01*
X1941616Y1737635D02*
X1947843D01*
X1951470D02*
X1955188D01*
X1961861D02*
X1965579D01*
X1969206D02*
X1975431D01*
X1984345D02*
X1986003D01*
X1988376D02*
X1989765D01*
X1991063D02*
X1994511D01*
X1996796D02*
X2001948D01*
X2004858D02*
X2008666D01*
X2013279D02*
X2017087D01*
X2018116D02*
X2019684D01*
X2021072D02*
X2022372D01*
X2024028D02*
X2025686D01*
X2027342D02*
X2032134D01*
X2034509D02*
X2039660D01*
X2042660D02*
X2046379D01*
X2051618D02*
X2057128D01*
X1941616Y1737724D02*
X1947843D01*
X1951470D02*
X1955278D01*
X1961861D02*
X1965579D01*
X1969206D02*
X1975431D01*
X1984345D02*
X1986003D01*
X1988376D02*
X1989765D01*
X1991242D02*
X1994422D01*
X1996796D02*
X2001948D01*
X2005037D02*
X2008487D01*
X2013458D02*
X2016907D01*
X2018385D02*
X2019684D01*
X2021072D02*
X2022372D01*
X2024118D02*
X2025686D01*
X2027611D02*
X2032044D01*
X2034509D02*
X2039660D01*
X2042750D02*
X2046289D01*
X2051797D02*
X2057128D01*
X1941616Y1737814D02*
X1947843D01*
X1951470D02*
X1955278D01*
X1961771D02*
X1965579D01*
X1969206D02*
X1975521D01*
X1984345D02*
X1986003D01*
X1988376D02*
X1989676D01*
X1991511D02*
X1994242D01*
X1996796D02*
X2001948D01*
X2005217D02*
X2008308D01*
X2013637D02*
X2016728D01*
X2018743D02*
X2019595D01*
X2021072D02*
X2022372D01*
X2024297D02*
X2025686D01*
X2027880D02*
X2031865D01*
X2034509D02*
X2039660D01*
X2042929D02*
X2046110D01*
X2051976D02*
X2055157D01*
X2055470D02*
X2057128D01*
X1941616Y1737903D02*
X1947843D01*
X1951470D02*
X1955365D01*
X1961771D02*
X1965579D01*
X1969206D02*
X1975521D01*
X1984345D02*
X1986003D01*
X1988376D02*
X1989676D01*
X1991690D02*
X1994063D01*
X1996796D02*
X2001948D01*
X2005396D02*
X2008129D01*
X2013906D02*
X2016549D01*
X2019012D02*
X2019595D01*
X2021072D02*
X2022372D01*
X2024565D02*
X2025686D01*
X2028149D02*
X2031596D01*
X2034509D02*
X2039660D01*
X2043198D02*
X2045841D01*
X2052245D02*
X2054799D01*
X2055470D02*
X2057128D01*
X1941527Y1737993D02*
X1947843D01*
X1951470D02*
X1955365D01*
X1961682D02*
X1965579D01*
X1969206D02*
X1975521D01*
X1991959D02*
X1993884D01*
X1998229D02*
X1999798D01*
X2005754D02*
X2007770D01*
X2014174D02*
X2016280D01*
X2019280D02*
X2019595D01*
X2024834D02*
X2025686D01*
X2028596D02*
X2031328D01*
X2035942D02*
X2037598D01*
X2043466D02*
X2045572D01*
X2052603D02*
X2054262D01*
X2055470D02*
X2057128D01*
X1941527Y1738083D02*
X1947843D01*
X1951470D02*
X1955455D01*
X1961592D02*
X1965579D01*
X1969206D02*
X1975521D01*
X1992407D02*
X1993436D01*
X1998229D02*
X1999798D01*
X2006112D02*
X2007323D01*
X2014622D02*
X2015833D01*
X2025193D02*
X2025597D01*
X2029224D02*
X2030790D01*
X2035942D02*
X2037598D01*
X2043914D02*
X2045125D01*
X2055470D02*
X2057128D01*
X1941527Y1738172D02*
X1947843D01*
X1951470D02*
X1955545D01*
X1961592D02*
X1965579D01*
X1969206D02*
X1975521D01*
X1998229D02*
X1999798D01*
X2035942D02*
X2037598D01*
X2055470D02*
X2057128D01*
X1941527Y1738262D02*
X1947843D01*
X1951470D02*
X1955545D01*
X1961502D02*
X1965579D01*
X1969206D02*
X1975521D01*
X1998229D02*
X1999798D01*
X2035942D02*
X2037598D01*
X2055470D02*
X2057128D01*
X1941527Y1738351D02*
X1947843D01*
X1951470D02*
X1955634D01*
X1961502D02*
X1965579D01*
X1969206D02*
X1975610D01*
X1998229D02*
X1999798D01*
X2035942D02*
X2037598D01*
X2055470D02*
X2057128D01*
X1941527Y1738441D02*
X1947843D01*
X1951470D02*
X1955634D01*
X1961413D02*
X1965579D01*
X1969206D02*
X1975610D01*
X1998229D02*
X1999798D01*
X2035942D02*
X2037598D01*
X2055470D02*
X2057128D01*
X1941437Y1738530D02*
X1947843D01*
X1951470D02*
X1955724D01*
X1961413D02*
X1965579D01*
X1969206D02*
X1975610D01*
X1998229D02*
X1999798D01*
X2035942D02*
X2037598D01*
X2055470D02*
X2057128D01*
X1941437Y1738620D02*
X1947843D01*
X1951470D02*
X1955724D01*
X1961323D02*
X1965579D01*
X1969206D02*
X1975610D01*
X1998229D02*
X1999798D01*
X2035942D02*
X2037598D01*
X2055470D02*
X2057128D01*
X1941437Y1738710D02*
X1947843D01*
X1951470D02*
X1955813D01*
X1961323D02*
X1965579D01*
X1969206D02*
X1975610D01*
X1998229D02*
X1999798D01*
X2035942D02*
X2037598D01*
X2055470D02*
X2057128D01*
X1941437Y1738799D02*
X1947843D01*
X1951470D02*
X1955813D01*
X1961234D02*
X1965579D01*
X1969206D02*
X1975610D01*
X1998229D02*
X1999798D01*
X2035942D02*
X2037598D01*
X2055470D02*
X2057128D01*
X1941437Y1738889D02*
X1947843D01*
X1951470D02*
X1955903D01*
X1961144D02*
X1965579D01*
X1969206D02*
X1975610D01*
X1998229D02*
X1999798D01*
X2035942D02*
X2037598D01*
X2055470D02*
X2057128D01*
X1941437Y1738978D02*
X1947843D01*
X1951470D02*
X1955992D01*
X1961144D02*
X1965579D01*
X1969206D02*
X1975700D01*
X1998229D02*
X1999798D01*
X2035942D02*
X2037598D01*
X2055470D02*
X2057128D01*
X1941437Y1739068D02*
X1947843D01*
X1951470D02*
X1955992D01*
X1961055D02*
X1965579D01*
X1969206D02*
X1975700D01*
X1998229D02*
X1999798D01*
X2035942D02*
X2037598D01*
X2055470D02*
X2057128D01*
X1941437Y1739157D02*
X1947843D01*
X1951470D02*
X1956082D01*
X1961055D02*
X1965579D01*
X1969206D02*
X1975700D01*
X1998229D02*
X1999798D01*
X2035942D02*
X2037598D01*
X2055470D02*
X2057128D01*
X1941347Y1739247D02*
X1947843D01*
X1951470D02*
X1956082D01*
X1960965D02*
X1965579D01*
X1969206D02*
X1975700D01*
X1998229D02*
X1999798D01*
X2035942D02*
X2037598D01*
X2055470D02*
X2057128D01*
X1941347Y1739337D02*
X1947843D01*
X1951470D02*
X1956172D01*
X1960965D02*
X1965579D01*
X1969206D02*
X1975700D01*
X1998229D02*
X1999798D01*
X2035942D02*
X2037598D01*
X2055470D02*
X2057128D01*
X1941347Y1739426D02*
X1947843D01*
X1951470D02*
X1956172D01*
X1960875D02*
X1965579D01*
X1969206D02*
X1975700D01*
X1998229D02*
X1999798D01*
X2035942D02*
X2037598D01*
X2055470D02*
X2057128D01*
X1941347Y1739516D02*
X1947843D01*
X1951470D02*
X1956261D01*
X1960875D02*
X1965579D01*
X1969206D02*
X1975700D01*
X1998229D02*
X1999798D01*
X2035942D02*
X2037598D01*
X2055470D02*
X2057128D01*
X1941347Y1739605D02*
X1947843D01*
X1951470D02*
X1956261D01*
X1960786D02*
X1965579D01*
X1969206D02*
X1975700D01*
X1984882D02*
X1985466D01*
X1998229D02*
X1999798D01*
X2035942D02*
X2037598D01*
X2055470D02*
X2057128D01*
X1941347Y1739695D02*
X1947843D01*
X1951470D02*
X1956353D01*
X1960696D02*
X1965579D01*
X1969206D02*
X1975700D01*
X1984614D02*
X1985645D01*
X1998229D02*
X1999798D01*
X2035942D02*
X2037598D01*
X2055470D02*
X2057128D01*
X1941347Y1739784D02*
X1947843D01*
X1951470D02*
X1956442D01*
X1960696D02*
X1965579D01*
X1969206D02*
X1975700D01*
X1984524D02*
X1985824D01*
X1998229D02*
X1999798D01*
X2035942D02*
X2037598D01*
X2055470D02*
X2057128D01*
X1941347Y1739874D02*
X1947843D01*
X1951470D02*
X1956442D01*
X1960607D02*
X1965579D01*
X1969206D02*
X1975700D01*
X1984434D02*
X1985913D01*
X1998229D02*
X1999798D01*
X2035942D02*
X2037598D01*
X2055470D02*
X2057128D01*
X1941347Y1739964D02*
X1947843D01*
X1951470D02*
X1956530D01*
X1960607D02*
X1965579D01*
X1969206D02*
X1975700D01*
X1984345D02*
X1986003D01*
X1998229D02*
X1999798D01*
X2035942D02*
X2037598D01*
X2055470D02*
X2057128D01*
X1941347Y1740053D02*
X1947843D01*
X1951470D02*
X1956530D01*
X1960517D02*
X1965579D01*
X1969206D02*
X1975789D01*
X1984255D02*
X1986003D01*
X1998229D02*
X1999798D01*
X2035942D02*
X2037598D01*
X2055470D02*
X2057128D01*
X1941347Y1740143D02*
X1947843D01*
X1951470D02*
X1956620D01*
X1960517D02*
X1965579D01*
X1969206D02*
X1975789D01*
X1984255D02*
X1986093D01*
X1998229D02*
X1999798D01*
X2035942D02*
X2037598D01*
X2055470D02*
X2057128D01*
X1941347Y1740232D02*
X1947843D01*
X1951470D02*
X1956620D01*
X1960428D02*
X1965579D01*
X1969206D02*
X1975789D01*
X1984166D02*
X1986093D01*
X1998229D02*
X1999798D01*
X2035942D02*
X2037598D01*
X2055470D02*
X2057128D01*
X1941347Y1740322D02*
X1947843D01*
X1951470D02*
X1956709D01*
X1960428D02*
X1965579D01*
X1969206D02*
X1975789D01*
X1984166D02*
X1986182D01*
X1998229D02*
X1999798D01*
X2035942D02*
X2037598D01*
X2055470D02*
X2057128D01*
X1941347Y1740412D02*
X1947843D01*
X1951470D02*
X1956709D01*
X1960517D02*
X1965579D01*
X1969206D02*
X1975789D01*
X1984166D02*
X1986182D01*
X1998229D02*
X1999798D01*
X2035942D02*
X2037598D01*
X2055470D02*
X2057128D01*
X1941347Y1740501D02*
X1947843D01*
X1951470D02*
X1956799D01*
X1960607D02*
X1965579D01*
X1969206D02*
X1975789D01*
X1984076D02*
X1986182D01*
X1998229D02*
X1999798D01*
X2035942D02*
X2037598D01*
X2055470D02*
X2057128D01*
X1941347Y1740591D02*
X1947843D01*
X1951470D02*
X1956888D01*
X1960607D02*
X1965579D01*
X1969206D02*
X1975789D01*
X1984076D02*
X1986182D01*
X1998229D02*
X1999798D01*
X2035942D02*
X2037598D01*
X2055470D02*
X2057128D01*
X1941347Y1740680D02*
X1947843D01*
X1951470D02*
X1956888D01*
X1960696D02*
X1965579D01*
X1969206D02*
X1975789D01*
X1984076D02*
X1986182D01*
X2055470D02*
X2057128D01*
X1941347Y1740770D02*
X1947843D01*
X1951470D02*
X1956980D01*
X1960696D02*
X1965579D01*
X1969206D02*
X1975789D01*
X1984166D02*
X1986182D01*
X2055470D02*
X2057128D01*
X1941347Y1740859D02*
X1947843D01*
X1951470D02*
X1956980D01*
X1960786D02*
X1965579D01*
X1969206D02*
X1975789D01*
X1984166D02*
X1986182D01*
X2055470D02*
X2057128D01*
X1941347Y1740949D02*
X1947843D01*
X1951470D02*
X1957067D01*
X1960786D02*
X1965579D01*
X1969206D02*
X1975789D01*
X1984166D02*
X1986182D01*
X2055470D02*
X2057128D01*
X1941347Y1741039D02*
X1947843D01*
X1951470D02*
X1957067D01*
X1960875D02*
X1965579D01*
X1969206D02*
X1975789D01*
X1984166D02*
X1986093D01*
X2055470D02*
X2057128D01*
X1941347Y1741128D02*
X1947843D01*
X1951470D02*
X1957157D01*
X1960875D02*
X1965579D01*
X1969206D02*
X1975789D01*
X1984255D02*
X1986093D01*
X2055470D02*
X2057128D01*
X1941347Y1741218D02*
X1947843D01*
X1951470D02*
X1957157D01*
X1960965D02*
X1965579D01*
X1969206D02*
X1975789D01*
X1984255D02*
X1986003D01*
X2055470D02*
X2057128D01*
X1941347Y1741307D02*
X1947843D01*
X1951470D02*
X1957248D01*
X1961055D02*
X1965579D01*
X1969206D02*
X1975789D01*
X1984345D02*
X1986003D01*
X2055470D02*
X2057128D01*
X1941347Y1741397D02*
X1947843D01*
X1951470D02*
X1957336D01*
X1961055D02*
X1965579D01*
X1969206D02*
X1975789D01*
X1984434D02*
X1985913D01*
X2055470D02*
X2057128D01*
X1941347Y1741486D02*
X1947843D01*
X1951470D02*
X1957336D01*
X1961144D02*
X1965579D01*
X1969206D02*
X1975789D01*
X1984524D02*
X1985824D01*
X2055470D02*
X2057128D01*
X1941347Y1741576D02*
X1947843D01*
X1951470D02*
X1957426D01*
X1961144D02*
X1965579D01*
X1969206D02*
X1975789D01*
X1984703D02*
X1985645D01*
X2055470D02*
X2057128D01*
X1941347Y1741666D02*
X1947843D01*
X1951470D02*
X1957426D01*
X1961234D02*
X1965579D01*
X1969206D02*
X1975789D01*
X1984882D02*
X1985376D01*
X2055470D02*
X2057128D01*
X1941347Y1741755D02*
X1947843D01*
X1951470D02*
X1957515D01*
X1961234D02*
X1965579D01*
X1969206D02*
X1975789D01*
X2055470D02*
X2057128D01*
X1941347Y1741845D02*
X1947843D01*
X1951470D02*
X1957515D01*
X1961323D02*
X1965579D01*
X1969206D02*
X1975789D01*
X2055470D02*
X2057128D01*
X1941347Y1741934D02*
X1947843D01*
X1951470D02*
X1955724D01*
X1955859D02*
X1957607D01*
X1961323D02*
X1965579D01*
X1969206D02*
X1975789D01*
X2055470D02*
X2057128D01*
X1941347Y1742024D02*
X1947843D01*
X1951470D02*
X1955634D01*
X1955859D02*
X1957607D01*
X1961413D02*
X1965579D01*
X1969206D02*
X1975700D01*
X1941347Y1742114D02*
X1947843D01*
X1951470D02*
X1955634D01*
X1955949D02*
X1957696D01*
X1961502D02*
X1965579D01*
X1969206D02*
X1975700D01*
X1941347Y1742203D02*
X1947843D01*
X1951470D02*
X1955545D01*
X1955949D02*
X1957786D01*
X1961502D02*
X1965579D01*
X1969206D02*
X1975700D01*
X1941347Y1742293D02*
X1947843D01*
X1951470D02*
X1955545D01*
X1956038D02*
X1957786D01*
X1961592D02*
X1965579D01*
X1969206D02*
X1975700D01*
X1941347Y1742382D02*
X1947843D01*
X1951470D02*
X1955455D01*
X1956038D02*
X1957874D01*
X1961592D02*
X1965579D01*
X1969206D02*
X1975700D01*
X1941347Y1742472D02*
X1947843D01*
X1951470D02*
X1955455D01*
X1956128D02*
X1957874D01*
X1961682D02*
X1965579D01*
X1969206D02*
X1975700D01*
X1941347Y1742561D02*
X1947843D01*
X1951470D02*
X1955365D01*
X1956128D02*
X1957965D01*
X1961682D02*
X1965579D01*
X1969206D02*
X1975700D01*
X1941347Y1742651D02*
X1947843D01*
X1951470D02*
X1955365D01*
X1956217D02*
X1957965D01*
X1961771D02*
X1965579D01*
X1969206D02*
X1975700D01*
X1941347Y1742741D02*
X1947843D01*
X1951470D02*
X1955278D01*
X1956307D02*
X1958055D01*
X1961771D02*
X1965579D01*
X1969206D02*
X1975700D01*
X1941437Y1742830D02*
X1947843D01*
X1951470D02*
X1955188D01*
X1956307D02*
X1958055D01*
X1961861D02*
X1965579D01*
X1969206D02*
X1975700D01*
X1941437Y1742920D02*
X1947843D01*
X1951470D02*
X1955188D01*
X1956397D02*
X1958142D01*
X1961950D02*
X1965579D01*
X1969206D02*
X1975700D01*
X1941437Y1743009D02*
X1947843D01*
X1951470D02*
X1955099D01*
X1956397D02*
X1958234D01*
X1961950D02*
X1965579D01*
X1969206D02*
X1975700D01*
X1941437Y1743099D02*
X1947843D01*
X1951470D02*
X1955099D01*
X1956486D02*
X1958234D01*
X1962040D02*
X1965579D01*
X1969206D02*
X1975610D01*
X1941437Y1743188D02*
X1947843D01*
X1951470D02*
X1955007D01*
X1956486D02*
X1958323D01*
X1962040D02*
X1965579D01*
X1969206D02*
X1975610D01*
X1941437Y1743278D02*
X1947843D01*
X1951470D02*
X1955007D01*
X1956576D02*
X1958323D01*
X1962130D02*
X1965579D01*
X1969206D02*
X1975610D01*
X1941437Y1743368D02*
X1947843D01*
X1951470D02*
X1954918D01*
X1956576D02*
X1958413D01*
X1962130D02*
X1965579D01*
X1969206D02*
X1975610D01*
X1941437Y1743457D02*
X1947843D01*
X1951470D02*
X1954918D01*
X1956665D02*
X1958413D01*
X1962219D02*
X1965579D01*
X1969206D02*
X1975610D01*
X1941527Y1743547D02*
X1947843D01*
X1951470D02*
X1954828D01*
X1956665D02*
X1958503D01*
X1962219D02*
X1965579D01*
X1969206D02*
X1975610D01*
X1941527Y1743636D02*
X1947843D01*
X1951470D02*
X1954738D01*
X1956755D02*
X1958503D01*
X1962309D02*
X1965579D01*
X1969206D02*
X1975610D01*
X1941527Y1743726D02*
X1947843D01*
X1951470D02*
X1954738D01*
X1956844D02*
X1958592D01*
X1962398D02*
X1965579D01*
X1969206D02*
X1975521D01*
X2000379D02*
X2001410D01*
X1941527Y1743816D02*
X1947843D01*
X1951470D02*
X1954649D01*
X1956844D02*
X1958680D01*
X1962398D02*
X1965579D01*
X1969206D02*
X1975521D01*
X1999931D02*
X2001858D01*
X1941527Y1743905D02*
X1947843D01*
X1951470D02*
X1954649D01*
X1956934D02*
X1958680D01*
X1962488D02*
X1965579D01*
X1969206D02*
X1975521D01*
X1984345D02*
X1986003D01*
X1989630D02*
X1991199D01*
X1994826D02*
X1996482D01*
X1999663D02*
X2002217D01*
X2004052D02*
X2005352D01*
X2006560D02*
X2008308D01*
X2012562D02*
X2014399D01*
X2015697D02*
X2017355D01*
X2019728D02*
X2021386D01*
X2025013D02*
X2026671D01*
X2030298D02*
X2031865D01*
X1941527Y1743995D02*
X1947843D01*
X1951470D02*
X1954559D01*
X1956934D02*
X1958769D01*
X1962488D02*
X1965579D01*
X1969206D02*
X1975521D01*
X1984345D02*
X1986003D01*
X1989630D02*
X1991199D01*
X1994826D02*
X1996482D01*
X1999484D02*
X2002396D01*
X2003962D02*
X2005352D01*
X2006560D02*
X2008398D01*
X2012472D02*
X2014399D01*
X2015697D02*
X2017355D01*
X2019728D02*
X2021386D01*
X2025013D02*
X2026671D01*
X2030298D02*
X2031865D01*
X1941616Y1744084D02*
X1947843D01*
X1951470D02*
X1954559D01*
X1957024D02*
X1958769D01*
X1962577D02*
X1965579D01*
X1969206D02*
X1975521D01*
X1984345D02*
X1986003D01*
X1989630D02*
X1991199D01*
X1994826D02*
X1996482D01*
X1999304D02*
X2002665D01*
X2003962D02*
X2005352D01*
X2006560D02*
X2008487D01*
X2012383D02*
X2014310D01*
X2015697D02*
X2017355D01*
X2019728D02*
X2021386D01*
X2025013D02*
X2026671D01*
X2030298D02*
X2031865D01*
X1941616Y1744174D02*
X1947843D01*
X1951470D02*
X1954470D01*
X1957024D02*
X1958861D01*
X1962577D02*
X1965579D01*
X1969206D02*
X1975521D01*
X1984345D02*
X1986003D01*
X1989630D02*
X1991199D01*
X1994826D02*
X1996482D01*
X1999215D02*
X2002754D01*
X2003962D02*
X2005352D01*
X2006650D02*
X2008487D01*
X2012383D02*
X2014310D01*
X2015697D02*
X2017355D01*
X2019728D02*
X2021386D01*
X2025013D02*
X2026671D01*
X2030298D02*
X2031865D01*
X1941616Y1744263D02*
X1947843D01*
X1951470D02*
X1954470D01*
X1957113D02*
X1958861D01*
X1962667D02*
X1965579D01*
X1969206D02*
X1975431D01*
X1984345D02*
X1986003D01*
X1989630D02*
X1991199D01*
X1994826D02*
X1996482D01*
X1999125D02*
X2002933D01*
X2003962D02*
X2005352D01*
X2006739D02*
X2008577D01*
X2012293D02*
X2014220D01*
X2015697D02*
X2017355D01*
X2019728D02*
X2021386D01*
X2025013D02*
X2026671D01*
X2030298D02*
X2031865D01*
X1941616Y1744353D02*
X1947843D01*
X1951470D02*
X1954380D01*
X1957113D02*
X1958950D01*
X1962667D02*
X1965579D01*
X1969206D02*
X1975431D01*
X1984345D02*
X1986003D01*
X1989630D02*
X1991199D01*
X1994826D02*
X1996482D01*
X1998946D02*
X2003112D01*
X2003962D02*
X2005352D01*
X2006829D02*
X2008666D01*
X2012204D02*
X2014131D01*
X2015697D02*
X2017355D01*
X2019728D02*
X2021386D01*
X2025013D02*
X2026671D01*
X2030298D02*
X2031865D01*
X1941616Y1744443D02*
X1947843D01*
X1951470D02*
X1954291D01*
X1957203D02*
X1958950D01*
X1962757D02*
X1965579D01*
X1969206D02*
X1975431D01*
X1984345D02*
X1986003D01*
X1989630D02*
X1991199D01*
X1994826D02*
X1996482D01*
X1998857D02*
X2003202D01*
X2003962D02*
X2005352D01*
X2006829D02*
X2008666D01*
X2012204D02*
X2014131D01*
X2015697D02*
X2017355D01*
X2019728D02*
X2021386D01*
X2025013D02*
X2026671D01*
X2030298D02*
X2031865D01*
X1941706Y1744532D02*
X1947843D01*
X1951470D02*
X1954291D01*
X1957292D02*
X1959040D01*
X1962846D02*
X1965579D01*
X1969206D02*
X1975431D01*
X1984345D02*
X1986003D01*
X1989630D02*
X1991199D01*
X1994826D02*
X1996482D01*
X1998857D02*
X2003381D01*
X2003873D02*
X2005352D01*
X2006919D02*
X2008756D01*
X2012114D02*
X2014041D01*
X2015697D02*
X2017355D01*
X2019728D02*
X2021386D01*
X2025013D02*
X2026671D01*
X2030298D02*
X2031865D01*
X1941706Y1744622D02*
X1947843D01*
X1951470D02*
X1954201D01*
X1957292D02*
X1959130D01*
X1962846D02*
X1965579D01*
X1969206D02*
X1975431D01*
X1984345D02*
X1986003D01*
X1989630D02*
X1991199D01*
X1994826D02*
X1996482D01*
X1998767D02*
X2003471D01*
X2003873D02*
X2005352D01*
X2007008D02*
X2008845D01*
X2012025D02*
X2013951D01*
X2015697D02*
X2017355D01*
X2019728D02*
X2021386D01*
X2025013D02*
X2026671D01*
X2030298D02*
X2031865D01*
X1941706Y1744711D02*
X1947843D01*
X1951470D02*
X1954201D01*
X1957382D02*
X1959130D01*
X1962936D02*
X1965579D01*
X1969206D02*
X1975341D01*
X1984345D02*
X1986003D01*
X1989630D02*
X1991199D01*
X1994826D02*
X1996482D01*
X1998677D02*
X2003560D01*
X2003873D02*
X2005352D01*
X2007008D02*
X2008845D01*
X2012025D02*
X2013951D01*
X2015697D02*
X2017355D01*
X2019728D02*
X2021386D01*
X2025013D02*
X2026671D01*
X2030298D02*
X2031865D01*
X1941706Y1744801D02*
X1947843D01*
X1951470D02*
X1954111D01*
X1957382D02*
X1959219D01*
X1962936D02*
X1965579D01*
X1969206D02*
X1975341D01*
X1984345D02*
X1986003D01*
X1989630D02*
X1991199D01*
X1994826D02*
X1996482D01*
X1998677D02*
X2003650D01*
X2003873D02*
X2005352D01*
X2007098D02*
X2008935D01*
X2011935D02*
X2013862D01*
X2015697D02*
X2017355D01*
X2019728D02*
X2021386D01*
X2025013D02*
X2026671D01*
X2030298D02*
X2031865D01*
X1941706Y1744890D02*
X1947843D01*
X1951470D02*
X1954111D01*
X1957471D02*
X1959219D01*
X1963025D02*
X1965579D01*
X1969206D02*
X1975341D01*
X1984345D02*
X1986003D01*
X1989630D02*
X1991199D01*
X1994826D02*
X1996482D01*
X1998588D02*
X2003739D01*
X2003873D02*
X2005352D01*
X2007187D02*
X2009025D01*
X2011845D02*
X2013772D01*
X2015697D02*
X2017355D01*
X2019728D02*
X2021386D01*
X2025013D02*
X2026671D01*
X2030298D02*
X2031865D01*
X1941795Y1744980D02*
X1947843D01*
X1951470D02*
X1954022D01*
X1957471D02*
X1959309D01*
X1963025D02*
X1965579D01*
X1969206D02*
X1975341D01*
X1984345D02*
X1986003D01*
X1989630D02*
X1991199D01*
X1994826D02*
X1996482D01*
X1998498D02*
X2005352D01*
X2007187D02*
X2009025D01*
X2011845D02*
X2013683D01*
X2015697D02*
X2017355D01*
X2019728D02*
X2021386D01*
X2025013D02*
X2026671D01*
X2030298D02*
X2031865D01*
X1941795Y1745070D02*
X1947843D01*
X1951470D02*
X1954022D01*
X1957561D02*
X1959309D01*
X1963115D02*
X1965579D01*
X1969206D02*
X1975252D01*
X1984345D02*
X1986003D01*
X1989630D02*
X1991199D01*
X1994826D02*
X1996482D01*
X1998498D02*
X2005352D01*
X2007277D02*
X2009114D01*
X2011756D02*
X2013683D01*
X2015697D02*
X2017355D01*
X2019728D02*
X2021386D01*
X2025013D02*
X2026671D01*
X2030298D02*
X2031865D01*
X1941795Y1745159D02*
X1947843D01*
X1951470D02*
X1953932D01*
X1957561D02*
X1959398D01*
X1963115D02*
X1965579D01*
X1969206D02*
X1975252D01*
X1984345D02*
X1986003D01*
X1989630D02*
X1991199D01*
X1994826D02*
X1996482D01*
X1998498D02*
X2000783D01*
X2001723D02*
X2005352D01*
X2007366D02*
X2009204D01*
X2011666D02*
X2013593D01*
X2015697D02*
X2017355D01*
X2019728D02*
X2021386D01*
X2025013D02*
X2026671D01*
X2030298D02*
X2031865D01*
X1941795Y1745249D02*
X1947843D01*
X1951470D02*
X1953843D01*
X1957651D02*
X1959398D01*
X1963204D02*
X1965579D01*
X1969206D02*
X1975252D01*
X1984345D02*
X1986003D01*
X1989630D02*
X1991199D01*
X1994826D02*
X1996482D01*
X1998409D02*
X2000515D01*
X2002081D02*
X2005352D01*
X2007366D02*
X2009204D01*
X2011666D02*
X2013503D01*
X2015697D02*
X2017355D01*
X2019728D02*
X2021386D01*
X2025013D02*
X2026671D01*
X2030298D02*
X2031865D01*
X1941885Y1745338D02*
X1947843D01*
X1951470D02*
X1953843D01*
X1957651D02*
X1959488D01*
X1963294D02*
X1965579D01*
X1969206D02*
X1975252D01*
X1984345D02*
X1986003D01*
X1989630D02*
X1991199D01*
X1994826D02*
X1996482D01*
X1998409D02*
X2000335D01*
X2002350D02*
X2005352D01*
X2007456D02*
X2009293D01*
X2011577D02*
X2013503D01*
X2015697D02*
X2017355D01*
X2019728D02*
X2021386D01*
X2025013D02*
X2026671D01*
X2030298D02*
X2031865D01*
X1941885Y1745428D02*
X1947843D01*
X1951470D02*
X1953753D01*
X1957561D02*
X1959577D01*
X1963294D02*
X1965579D01*
X1969206D02*
X1975164D01*
X1984345D02*
X1986003D01*
X1989630D02*
X1991199D01*
X1994826D02*
X1996482D01*
X1998409D02*
X2000246D01*
X2002529D02*
X2005352D01*
X2007546D02*
X2009383D01*
X2011487D02*
X2013414D01*
X2015697D02*
X2017355D01*
X2019728D02*
X2021386D01*
X2025013D02*
X2026671D01*
X2030298D02*
X2031865D01*
X1941885Y1745517D02*
X1947843D01*
X1951470D02*
X1953753D01*
X1957561D02*
X1959577D01*
X1963384D02*
X1965579D01*
X1969206D02*
X1975164D01*
X1984345D02*
X1986003D01*
X1989630D02*
X1991199D01*
X1994826D02*
X1996482D01*
X1998409D02*
X2000156D01*
X2002708D02*
X2005352D01*
X2007635D02*
X2009383D01*
X2011487D02*
X2013324D01*
X2015697D02*
X2017355D01*
X2019728D02*
X2021386D01*
X2025013D02*
X2026671D01*
X2030298D02*
X2031865D01*
X1941885Y1745607D02*
X1947843D01*
X1951470D02*
X1953663D01*
X1957471D02*
X1959667D01*
X1963384D02*
X1965579D01*
X1969206D02*
X1975164D01*
X1984345D02*
X1986003D01*
X1989630D02*
X1991199D01*
X1994826D02*
X1996482D01*
X1998319D02*
X2000156D01*
X2002798D02*
X2005352D01*
X2007635D02*
X2009472D01*
X2011397D02*
X2013324D01*
X2015697D02*
X2017355D01*
X2019728D02*
X2021386D01*
X2025013D02*
X2026671D01*
X2030298D02*
X2031865D01*
X1941974Y1745697D02*
X1947843D01*
X1951470D02*
X1953663D01*
X1957382D02*
X1959667D01*
X1963473D02*
X1965579D01*
X1969206D02*
X1975164D01*
X1984345D02*
X1986003D01*
X1989630D02*
X1991199D01*
X1994826D02*
X1996482D01*
X1998319D02*
X2000067D01*
X2002977D02*
X2005352D01*
X2007725D02*
X2009562D01*
X2011308D02*
X2013235D01*
X2015697D02*
X2017355D01*
X2019728D02*
X2021386D01*
X2025013D02*
X2026671D01*
X2030298D02*
X2031865D01*
X1941974Y1745786D02*
X1947843D01*
X1951470D02*
X1953574D01*
X1957382D02*
X1959757D01*
X1963473D02*
X1965579D01*
X1969206D02*
X1975074D01*
X1984345D02*
X1986003D01*
X1989630D02*
X1991199D01*
X1994826D02*
X1996482D01*
X1998319D02*
X2000067D01*
X2003067D02*
X2005352D01*
X2007814D02*
X2009562D01*
X2011308D02*
X2013145D01*
X2015697D02*
X2017355D01*
X2019728D02*
X2021386D01*
X2025013D02*
X2026671D01*
X2030298D02*
X2031865D01*
X1941974Y1745876D02*
X1947843D01*
X1951470D02*
X1953484D01*
X1957292D02*
X1959757D01*
X1963563D02*
X1965579D01*
X1969206D02*
X1975074D01*
X1984345D02*
X1986003D01*
X1989630D02*
X1991199D01*
X1994826D02*
X1996482D01*
X1998319D02*
X1999977D01*
X2003246D02*
X2005352D01*
X2007814D02*
X2009652D01*
X2011218D02*
X2013056D01*
X2015697D02*
X2017355D01*
X2019728D02*
X2021386D01*
X2025013D02*
X2026671D01*
X2030298D02*
X2031865D01*
X1942064Y1745965D02*
X1947843D01*
X1957292D02*
X1959844D01*
X1969206D02*
X1975074D01*
X1984345D02*
X1986003D01*
X1989630D02*
X1991199D01*
X1994826D02*
X1996482D01*
X1998319D02*
X1999977D01*
X2003335D02*
X2005352D01*
X2007904D02*
X2009741D01*
X2011129D02*
X2013056D01*
X2015697D02*
X2017355D01*
X2019728D02*
X2021386D01*
X2025013D02*
X2026671D01*
X2030298D02*
X2031865D01*
X1942064Y1746055D02*
X1947843D01*
X1957203D02*
X1959844D01*
X1969206D02*
X1974985D01*
X1984345D02*
X1986003D01*
X1989630D02*
X1991199D01*
X1994826D02*
X1996482D01*
X1998319D02*
X1999977D01*
X2003425D02*
X2005352D01*
X2007994D02*
X2009741D01*
X2011039D02*
X2012966D01*
X2015697D02*
X2017355D01*
X2019728D02*
X2021386D01*
X2025013D02*
X2026671D01*
X2030298D02*
X2031865D01*
X1942064Y1746145D02*
X1947843D01*
X1957203D02*
X1959934D01*
X1969206D02*
X1974985D01*
X1984345D02*
X1986003D01*
X1989630D02*
X1991199D01*
X1994826D02*
X1996482D01*
X1998319D02*
X1999977D01*
X2003515D02*
X2005352D01*
X2007994D02*
X2009831D01*
X2011039D02*
X2012876D01*
X2015697D02*
X2017355D01*
X2019728D02*
X2021386D01*
X2025013D02*
X2026671D01*
X2030298D02*
X2031865D01*
X1942154Y1746234D02*
X1947843D01*
X1957113D02*
X1960024D01*
X1969206D02*
X1974985D01*
X1984345D02*
X1986003D01*
X1989630D02*
X1991199D01*
X1994826D02*
X1996482D01*
X1998319D02*
X1999977D01*
X2003604D02*
X2005352D01*
X2008083D02*
X2009920D01*
X2010950D02*
X2012876D01*
X2015697D02*
X2017355D01*
X2019728D02*
X2021386D01*
X2025013D02*
X2026671D01*
X2030298D02*
X2031865D01*
X1942154Y1746324D02*
X1947843D01*
X1957024D02*
X1960024D01*
X1969206D02*
X1974985D01*
X1984345D02*
X1986003D01*
X1989630D02*
X1991199D01*
X1994826D02*
X1996482D01*
X1998319D02*
X1999977D01*
X2003694D02*
X2005352D01*
X2008173D02*
X2009920D01*
X2010860D02*
X2012787D01*
X2015697D02*
X2017355D01*
X2019728D02*
X2021386D01*
X2025013D02*
X2026671D01*
X2030298D02*
X2031865D01*
X1942154Y1746413D02*
X1947843D01*
X1957024D02*
X1960115D01*
X1969206D02*
X1974895D01*
X1984345D02*
X1986003D01*
X1989630D02*
X1991199D01*
X1994826D02*
X1996482D01*
X1998319D02*
X1999977D01*
X2003694D02*
X2005352D01*
X2008173D02*
X2010010D01*
X2010860D02*
X2012697D01*
X2015697D02*
X2017355D01*
X2019728D02*
X2021386D01*
X2025013D02*
X2026671D01*
X2030298D02*
X2031865D01*
X1942154Y1746503D02*
X1947843D01*
X1956934D02*
X1960115D01*
X1969206D02*
X1974895D01*
X1984345D02*
X1986003D01*
X1989630D02*
X1991199D01*
X1994826D02*
X1996482D01*
X1998319D02*
X1999977D01*
X2003694D02*
X2005352D01*
X2008262D02*
X2010100D01*
X2010770D02*
X2012608D01*
X2015697D02*
X2017355D01*
X2019728D02*
X2021386D01*
X2025013D02*
X2026671D01*
X2030298D02*
X2031865D01*
X1942243Y1746592D02*
X1947843D01*
X1956934D02*
X1960204D01*
X1969206D02*
X1974895D01*
X1984345D02*
X1986003D01*
X1989630D02*
X1991199D01*
X1994826D02*
X1996482D01*
X1998319D02*
X1999977D01*
X2003694D02*
X2005352D01*
X2008352D02*
X2010100D01*
X2010681D02*
X2012608D01*
X2015697D02*
X2017355D01*
X2019728D02*
X2021386D01*
X2025013D02*
X2026671D01*
X2030298D02*
X2031865D01*
X1942243Y1746682D02*
X1947843D01*
X1956844D02*
X1960204D01*
X1969206D02*
X1974806D01*
X1984345D02*
X1986003D01*
X1989630D02*
X1991199D01*
X1994826D02*
X1996482D01*
X1998319D02*
X2000067D01*
X2003694D02*
X2005352D01*
X2008441D02*
X2010189D01*
X2010681D02*
X2012518D01*
X2015697D02*
X2017355D01*
X2019728D02*
X2021386D01*
X2025013D02*
X2026671D01*
X2030298D02*
X2031865D01*
X1942333Y1746772D02*
X1947843D01*
X1956844D02*
X1960294D01*
X1969206D02*
X1974806D01*
X1984345D02*
X1986003D01*
X1989630D02*
X1991199D01*
X1994826D02*
X1996482D01*
X1998409D02*
X2000067D01*
X2003694D02*
X2005352D01*
X2008441D02*
X2010279D01*
X2010591D02*
X2012429D01*
X2015697D02*
X2017355D01*
X2019728D02*
X2021386D01*
X2025013D02*
X2026671D01*
X2030298D02*
X2031865D01*
X1942333Y1746861D02*
X1947843D01*
X1956755D02*
X1960294D01*
X1969206D02*
X1974716D01*
X1984345D02*
X1986003D01*
X1989630D02*
X1991199D01*
X1994826D02*
X1996482D01*
X1998409D02*
X2000156D01*
X2003694D02*
X2005352D01*
X2008531D02*
X2010279D01*
X2010502D02*
X2012429D01*
X2015697D02*
X2017355D01*
X2019728D02*
X2021386D01*
X2025013D02*
X2026671D01*
X2030298D02*
X2031865D01*
X1942333Y1746951D02*
X1947843D01*
X1956665D02*
X1960384D01*
X1969206D02*
X1974716D01*
X1984345D02*
X1986003D01*
X1989630D02*
X1991199D01*
X1994826D02*
X1996482D01*
X1998409D02*
X2000156D01*
X2003694D02*
X2005352D01*
X2008621D02*
X2010368D01*
X2010502D02*
X2012339D01*
X2015697D02*
X2017355D01*
X2019728D02*
X2021386D01*
X2025013D02*
X2026671D01*
X2030298D02*
X2031865D01*
X1942422Y1747040D02*
X1947843D01*
X1956665D02*
X1960473D01*
X1969206D02*
X1974716D01*
X1984345D02*
X1986003D01*
X1989630D02*
X1991199D01*
X1994826D02*
X1996482D01*
X1998409D02*
X2000246D01*
X2003694D02*
X2005352D01*
X2008621D02*
X2012249D01*
X2015697D02*
X2017355D01*
X2019728D02*
X2021386D01*
X2025013D02*
X2026671D01*
X2030298D02*
X2031865D01*
X1942422Y1747130D02*
X1947843D01*
X1956576D02*
X1960473D01*
X1969206D02*
X1974627D01*
X1984345D02*
X1986003D01*
X1989630D02*
X1991199D01*
X1994826D02*
X1996482D01*
X1998498D02*
X2000335D01*
X2003694D02*
X2005352D01*
X2008710D02*
X2012249D01*
X2015697D02*
X2017355D01*
X2019728D02*
X2021386D01*
X2025013D02*
X2026671D01*
X2030298D02*
X2031865D01*
X1942422Y1747219D02*
X1947843D01*
X1956576D02*
X1960563D01*
X1969206D02*
X1974627D01*
X1984345D02*
X1986003D01*
X1989630D02*
X1991199D01*
X1994826D02*
X1996482D01*
X1998498D02*
X2000425D01*
X2003694D02*
X2005352D01*
X2008800D02*
X2012160D01*
X2015697D02*
X2017355D01*
X2019728D02*
X2021386D01*
X2025013D02*
X2026671D01*
X2030298D02*
X2031865D01*
X1942512Y1747309D02*
X1947843D01*
X1956486D02*
X1960563D01*
X1969206D02*
X1974627D01*
X1984345D02*
X1986003D01*
X1989630D02*
X1991199D01*
X1994826D02*
X1996482D01*
X1998498D02*
X2000515D01*
X2003694D02*
X2005352D01*
X2008800D02*
X2012070D01*
X2015697D02*
X2017355D01*
X2019728D02*
X2021386D01*
X2025013D02*
X2026671D01*
X2030298D02*
X2031865D01*
X1942512Y1747399D02*
X1947843D01*
X1956486D02*
X1960652D01*
X1969206D02*
X1974537D01*
X1984345D02*
X1986003D01*
X1989630D02*
X1991199D01*
X1994826D02*
X1996482D01*
X1998588D02*
X2000694D01*
X2003694D02*
X2005352D01*
X2008889D02*
X2011981D01*
X2015697D02*
X2017355D01*
X2019728D02*
X2021386D01*
X2025013D02*
X2026671D01*
X2030298D02*
X2031865D01*
X1942601Y1747488D02*
X1947843D01*
X1956397D02*
X1960652D01*
X1969206D02*
X1974537D01*
X1984345D02*
X1986003D01*
X1989630D02*
X1991199D01*
X1994826D02*
X1996482D01*
X1998588D02*
X2000783D01*
X2003694D02*
X2005352D01*
X2008979D02*
X2011981D01*
X2015697D02*
X2017355D01*
X2019728D02*
X2021386D01*
X2025013D02*
X2026671D01*
X2030298D02*
X2031865D01*
X1942601Y1747578D02*
X1947843D01*
X1956397D02*
X1960742D01*
X1969206D02*
X1974447D01*
X1984345D02*
X1986003D01*
X1989630D02*
X1991199D01*
X1994826D02*
X1996482D01*
X1998677D02*
X2000963D01*
X2003694D02*
X2005352D01*
X2008979D02*
X2011891D01*
X2015697D02*
X2017355D01*
X2019728D02*
X2021386D01*
X2025013D02*
X2026671D01*
X2030298D02*
X2031865D01*
X1942601Y1747667D02*
X1947843D01*
X1956307D02*
X1960742D01*
X1969206D02*
X1974447D01*
X1984345D02*
X1986003D01*
X1989630D02*
X1991199D01*
X1994826D02*
X1996482D01*
X1998767D02*
X2001142D01*
X2003694D02*
X2005352D01*
X2009068D02*
X2011801D01*
X2015697D02*
X2017355D01*
X2019728D02*
X2021386D01*
X2025013D02*
X2026671D01*
X2030298D02*
X2031865D01*
X1942691Y1747757D02*
X1947932D01*
X1956217D02*
X1960832D01*
X1969206D02*
X1974447D01*
X1984345D02*
X1986003D01*
X1989630D02*
X1991199D01*
X1994826D02*
X1996482D01*
X1998767D02*
X2001410D01*
X2003694D02*
X2005352D01*
X2009158D02*
X2011801D01*
X2015697D02*
X2017355D01*
X2019728D02*
X2021386D01*
X2025013D02*
X2026671D01*
X2030298D02*
X2031865D01*
X1942691Y1747847D02*
X1947932D01*
X1956217D02*
X1960921D01*
X1969206D02*
X1974358D01*
X1984345D02*
X1986003D01*
X1989630D02*
X1991199D01*
X1994826D02*
X1996482D01*
X1998857D02*
X2001679D01*
X2003694D02*
X2005352D01*
X2009248D02*
X2011712D01*
X2015697D02*
X2017355D01*
X2019728D02*
X2021386D01*
X2025013D02*
X2026671D01*
X2030298D02*
X2031865D01*
X1942781Y1747936D02*
X1947932D01*
X1956128D02*
X1960921D01*
X1969117D02*
X1974358D01*
X1984345D02*
X1986003D01*
X1989630D02*
X1991199D01*
X1994826D02*
X1996482D01*
X1998946D02*
X2002037D01*
X2003694D02*
X2005352D01*
X2009248D02*
X2011622D01*
X2015697D02*
X2017355D01*
X2019728D02*
X2021386D01*
X2025013D02*
X2026671D01*
X2030298D02*
X2031865D01*
X1942781Y1748026D02*
X1947932D01*
X1956128D02*
X1961011D01*
X1969117D02*
X1974268D01*
X1984345D02*
X1986003D01*
X1989630D02*
X1991199D01*
X1994826D02*
X1996482D01*
X1999036D02*
X2002396D01*
X2003694D02*
X2005352D01*
X2009337D02*
X2011622D01*
X2015697D02*
X2017355D01*
X2019728D02*
X2021386D01*
X2025013D02*
X2026671D01*
X2030298D02*
X2031865D01*
X1942870Y1748115D02*
X1948022D01*
X1956038D02*
X1961011D01*
X1969117D02*
X1974268D01*
X1984345D02*
X1986003D01*
X1989630D02*
X1991199D01*
X1994826D02*
X1996482D01*
X1999125D02*
X2002933D01*
X2003694D02*
X2005352D01*
X2009427D02*
X2011533D01*
X2015697D02*
X2017355D01*
X2019728D02*
X2021386D01*
X2025013D02*
X2026671D01*
X2030298D02*
X2031865D01*
X1942870Y1748205D02*
X1948022D01*
X1956038D02*
X1961100D01*
X1969027D02*
X1974179D01*
X1984345D02*
X1986003D01*
X1989630D02*
X1991199D01*
X1994826D02*
X1996482D01*
X1999215D02*
X2005352D01*
X2009427D02*
X2011443D01*
X2015697D02*
X2017355D01*
X2019728D02*
X2021386D01*
X2025013D02*
X2026671D01*
X2030298D02*
X2031865D01*
X1942870Y1748294D02*
X1948111D01*
X1955949D02*
X1961100D01*
X1968937D02*
X1974179D01*
X1984345D02*
X1986003D01*
X1989630D02*
X1991199D01*
X1994826D02*
X1996482D01*
X1999394D02*
X2005352D01*
X2009516D02*
X2011354D01*
X2015697D02*
X2017355D01*
X2019728D02*
X2021386D01*
X2025013D02*
X2026671D01*
X2030298D02*
X2031865D01*
X1942960Y1748384D02*
X1948201D01*
X1955859D02*
X1961190D01*
X1968937D02*
X1974089D01*
X1984345D02*
X1986003D01*
X1989630D02*
X1991199D01*
X1994826D02*
X1996482D01*
X1999484D02*
X2005352D01*
X2009427D02*
X2011354D01*
X2015697D02*
X2017355D01*
X2019728D02*
X2021386D01*
X2025013D02*
X2026671D01*
X2030298D02*
X2031865D01*
X1942960Y1748474D02*
X1948201D01*
X1955859D02*
X1961279D01*
X1968848D02*
X1974089D01*
X1984345D02*
X1986003D01*
X1989630D02*
X1991199D01*
X1994826D02*
X1996482D01*
X1999663D02*
X2005352D01*
X2009427D02*
X2011443D01*
X2015697D02*
X2017355D01*
X2019728D02*
X2021386D01*
X2025013D02*
X2026671D01*
X2030298D02*
X2031865D01*
X1943049Y1748563D02*
X1948291D01*
X1955769D02*
X1961279D01*
X1968758D02*
X1974000D01*
X1984345D02*
X1986003D01*
X1989630D02*
X1991199D01*
X1994826D02*
X1996482D01*
X1999752D02*
X2005352D01*
X2009337D02*
X2011533D01*
X2015697D02*
X2017355D01*
X2019728D02*
X2021386D01*
X2025013D02*
X2026671D01*
X2030298D02*
X2031865D01*
X1943049Y1748653D02*
X1948380D01*
X1955680D02*
X1961369D01*
X1968669D02*
X1974000D01*
X1984345D02*
X1986003D01*
X1989630D02*
X1991199D01*
X1994826D02*
X1996482D01*
X1999931D02*
X2005352D01*
X2009248D02*
X2011533D01*
X2015697D02*
X2017355D01*
X2019728D02*
X2021386D01*
X2025013D02*
X2026671D01*
X2030298D02*
X2031865D01*
X1943139Y1748742D02*
X1948470D01*
X1955590D02*
X1961459D01*
X1968579D02*
X1973910D01*
X1984345D02*
X1986003D01*
X1989630D02*
X1991199D01*
X1994826D02*
X1996482D01*
X2000200D02*
X2005352D01*
X2009158D02*
X2011622D01*
X2015697D02*
X2017355D01*
X2019728D02*
X2021386D01*
X2025013D02*
X2026671D01*
X2030298D02*
X2031865D01*
X1943139Y1748832D02*
X1948559D01*
X1955501D02*
X1961638D01*
X1968490D02*
X1973910D01*
X1984345D02*
X1986003D01*
X1989630D02*
X1991199D01*
X1994826D02*
X1996482D01*
X2000379D02*
X2005352D01*
X2009158D02*
X2011712D01*
X2015697D02*
X2017355D01*
X2019728D02*
X2021386D01*
X2025013D02*
X2026671D01*
X2030298D02*
X2031865D01*
X1943229Y1748921D02*
X1948738D01*
X1955322D02*
X1961727D01*
X1968310D02*
X1973820D01*
X1984345D02*
X1986003D01*
X1989630D02*
X1991199D01*
X1994826D02*
X1996482D01*
X2000648D02*
X2005352D01*
X2009068D02*
X2011712D01*
X2015697D02*
X2017355D01*
X2019728D02*
X2021386D01*
X2025013D02*
X2026671D01*
X2030298D02*
X2031865D01*
X1943229Y1749011D02*
X1948916D01*
X1955142D02*
X1961906D01*
X1968131D02*
X1973820D01*
X1984345D02*
X1986003D01*
X1989630D02*
X1991199D01*
X1994826D02*
X1996482D01*
X2000917D02*
X2005352D01*
X2008979D02*
X2011801D01*
X2015697D02*
X2017355D01*
X2019728D02*
X2021386D01*
X2025013D02*
X2026671D01*
X2030298D02*
X2031865D01*
X1943318Y1749101D02*
X1949185D01*
X1954874D02*
X1962173D01*
X1967952D02*
X1973731D01*
X1984345D02*
X1986003D01*
X1989630D02*
X1991199D01*
X1994826D02*
X1996482D01*
X2001186D02*
X2005352D01*
X2008979D02*
X2011891D01*
X2015697D02*
X2017355D01*
X2019728D02*
X2021386D01*
X2025013D02*
X2026671D01*
X2030298D02*
X2031865D01*
X1943408Y1749190D02*
X1973731D01*
X1984345D02*
X1986003D01*
X1989630D02*
X1991199D01*
X1994826D02*
X1996482D01*
X2001633D02*
X2005352D01*
X2008889D02*
X2011981D01*
X2015697D02*
X2017355D01*
X2019728D02*
X2021386D01*
X2025013D02*
X2026671D01*
X2030298D02*
X2031865D01*
X1943408Y1749280D02*
X1973641D01*
X1984345D02*
X1986003D01*
X1989630D02*
X1991199D01*
X1994826D02*
X1996482D01*
X2001992D02*
X2005352D01*
X2008800D02*
X2011981D01*
X2015697D02*
X2017355D01*
X2019728D02*
X2021386D01*
X2025013D02*
X2026671D01*
X2030298D02*
X2031865D01*
X1943497Y1749369D02*
X1973641D01*
X1984345D02*
X1986003D01*
X1989630D02*
X1991199D01*
X1994826D02*
X1996482D01*
X2002529D02*
X2005352D01*
X2008800D02*
X2012070D01*
X2015697D02*
X2017355D01*
X2019728D02*
X2021386D01*
X2025013D02*
X2026671D01*
X2030298D02*
X2031865D01*
X1943497Y1749459D02*
X1973552D01*
X1984345D02*
X1986003D01*
X1989630D02*
X1991199D01*
X1994826D02*
X1996482D01*
X2003156D02*
X2005352D01*
X2008710D02*
X2012160D01*
X2015697D02*
X2017355D01*
X2019728D02*
X2021386D01*
X2025013D02*
X2026671D01*
X2030298D02*
X2031865D01*
X1943587Y1749549D02*
X1973552D01*
X1984345D02*
X1986003D01*
X1989630D02*
X1991199D01*
X1994826D02*
X1996482D01*
X2003694D02*
X2005352D01*
X2008621D02*
X2012160D01*
X2015697D02*
X2017355D01*
X2019728D02*
X2021386D01*
X2025013D02*
X2026671D01*
X2030298D02*
X2031865D01*
X1943587Y1749638D02*
X1973462D01*
X1984345D02*
X1986003D01*
X1989630D02*
X1991199D01*
X1994826D02*
X1996482D01*
X2003694D02*
X2005352D01*
X2008531D02*
X2012249D01*
X2015697D02*
X2017355D01*
X2019728D02*
X2021386D01*
X2025013D02*
X2026671D01*
X2030298D02*
X2031865D01*
X1943676Y1749728D02*
X1973372D01*
X1984345D02*
X1986003D01*
X1989630D02*
X1991199D01*
X1994826D02*
X1996482D01*
X2003694D02*
X2005352D01*
X2008531D02*
X2010368D01*
X2010502D02*
X2012339D01*
X2015697D02*
X2017355D01*
X2019728D02*
X2021386D01*
X2025013D02*
X2026671D01*
X2030298D02*
X2031865D01*
X1943676Y1749817D02*
X1973372D01*
X1984345D02*
X1986003D01*
X1989630D02*
X1991288D01*
X1994826D02*
X1996482D01*
X2003694D02*
X2005352D01*
X2008441D02*
X2010279D01*
X2010591D02*
X2012339D01*
X2015697D02*
X2017355D01*
X2019728D02*
X2021386D01*
X2025013D02*
X2026671D01*
X2030298D02*
X2031865D01*
X1943766Y1749907D02*
X1973283D01*
X1984345D02*
X1986093D01*
X1989630D02*
X1991378D01*
X1994826D02*
X1996482D01*
X2003694D02*
X2005352D01*
X2008352D02*
X2010279D01*
X2010591D02*
X2012429D01*
X2015697D02*
X2017355D01*
X2019728D02*
X2021476D01*
X2025013D02*
X2026761D01*
X2030298D02*
X2031865D01*
X1943856Y1749996D02*
X1973283D01*
X1984345D02*
X1986182D01*
X1989630D02*
X1991467D01*
X1994826D02*
X1996482D01*
X2003694D02*
X2005352D01*
X2008352D02*
X2010189D01*
X2010681D02*
X2012518D01*
X2015697D02*
X2017355D01*
X2019728D02*
X2021566D01*
X2025013D02*
X2026851D01*
X2030298D02*
X2031865D01*
X1943856Y1750086D02*
X1973193D01*
X1984345D02*
X1986272D01*
X1989540D02*
X1991557D01*
X1994826D02*
X1996482D01*
X2003694D02*
X2005352D01*
X2008262D02*
X2010100D01*
X2010770D02*
X2012518D01*
X2015697D02*
X2017355D01*
X2019728D02*
X2021655D01*
X2025013D02*
X2026940D01*
X2030209D02*
X2031865D01*
X1943945Y1750176D02*
X1973104D01*
X1984345D02*
X1986361D01*
X1989540D02*
X1991646D01*
X1994826D02*
X1996482D01*
X2003694D02*
X2005352D01*
X2008173D02*
X2010100D01*
X2010770D02*
X2012608D01*
X2015697D02*
X2017355D01*
X2019728D02*
X2021745D01*
X2024924D02*
X2027030D01*
X2030209D02*
X2031865D01*
X1944035Y1750265D02*
X1973104D01*
X1984345D02*
X1986451D01*
X1989540D02*
X1991736D01*
X1994826D02*
X1996482D01*
X2003694D02*
X2005352D01*
X2008173D02*
X2010010D01*
X2010860D02*
X2012697D01*
X2015697D02*
X2017355D01*
X2019728D02*
X2021834D01*
X2024924D02*
X2027119D01*
X2030209D02*
X2031865D01*
X1944035Y1750355D02*
X1973014D01*
X1984345D02*
X1986540D01*
X1989540D02*
X1991826D01*
X1994826D02*
X1996482D01*
X2003604D02*
X2005352D01*
X2008083D02*
X2009920D01*
X2010950D02*
X2012787D01*
X2015697D02*
X2017355D01*
X2019728D02*
X2021924D01*
X2024924D02*
X2027209D01*
X2030209D02*
X2031865D01*
X1944124Y1750444D02*
X1972925D01*
X1984345D02*
X1986630D01*
X1989451D02*
X1991915D01*
X1994736D02*
X1996482D01*
X2003604D02*
X2005352D01*
X2007994D02*
X2009920D01*
X2010950D02*
X2012787D01*
X2015697D02*
X2017355D01*
X2019728D02*
X2022103D01*
X2024924D02*
X2027299D01*
X2030119D02*
X2031865D01*
X1944214Y1750534D02*
X1972925D01*
X1984345D02*
X1986809D01*
X1989451D02*
X1992094D01*
X1994736D02*
X1996482D01*
X1999125D02*
X1999261D01*
X2003604D02*
X2005352D01*
X2007904D02*
X2009831D01*
X2011039D02*
X2012876D01*
X2015697D02*
X2017355D01*
X2019728D02*
X2022193D01*
X2024834D02*
X2027478D01*
X2030119D02*
X2031865D01*
X1944214Y1750623D02*
X1972835D01*
X1984345D02*
X1986899D01*
X1989451D02*
X1992184D01*
X1994646D02*
X1996482D01*
X1999125D02*
X1999440D01*
X2003515D02*
X2005262D01*
X2007904D02*
X2009741D01*
X2011129D02*
X2012966D01*
X2015697D02*
X2017355D01*
X2019728D02*
X2022282D01*
X2024834D02*
X2027567D01*
X2030119D02*
X2031865D01*
X1944303Y1750713D02*
X1972745D01*
X1984345D02*
X1987078D01*
X1989361D02*
X1992273D01*
X1994646D02*
X1996482D01*
X1999125D02*
X1999708D01*
X2003425D02*
X2005262D01*
X2007814D02*
X2009741D01*
X2011129D02*
X2012966D01*
X2015697D02*
X2017355D01*
X2019728D02*
X2022461D01*
X2024745D02*
X2027746D01*
X2030030D02*
X2031865D01*
X1944393Y1750803D02*
X1972745D01*
X1984345D02*
X1987168D01*
X1989272D02*
X1992453D01*
X1994557D02*
X1996482D01*
X1999036D02*
X1999888D01*
X2003425D02*
X2005262D01*
X2007725D02*
X2009652D01*
X2011218D02*
X2013056D01*
X2015697D02*
X2017355D01*
X2019728D02*
X2022551D01*
X2024655D02*
X2027836D01*
X2029940D02*
X2031865D01*
X1944393Y1750892D02*
X1972656D01*
X1984345D02*
X1987347D01*
X1989182D02*
X1992632D01*
X1994467D02*
X1996482D01*
X1999036D02*
X2000156D01*
X2003335D02*
X2005262D01*
X2007725D02*
X2009562D01*
X2011308D02*
X2013145D01*
X2015697D02*
X2017355D01*
X2019728D02*
X2022730D01*
X2024565D02*
X2028013D01*
X2029851D02*
X2031865D01*
X1944483Y1750982D02*
X1972566D01*
X1984345D02*
X1987526D01*
X1989093D02*
X1992809D01*
X1994378D02*
X1996392D01*
X1999036D02*
X2000425D01*
X2003156D02*
X2005262D01*
X2007635D02*
X2009562D01*
X2011308D02*
X2013145D01*
X2015697D02*
X2017355D01*
X2019728D02*
X2022909D01*
X2024476D02*
X2028192D01*
X2029761D02*
X2031865D01*
X1944572Y1751071D02*
X1972566D01*
X1984345D02*
X1987795D01*
X1988913D02*
X1993078D01*
X1994198D02*
X1996392D01*
X1999036D02*
X2000783D01*
X2002977D02*
X2005173D01*
X2007546D02*
X2009472D01*
X2011397D02*
X2013235D01*
X2015697D02*
X2017355D01*
X2019728D02*
X2023178D01*
X2024297D02*
X2028461D01*
X2029582D02*
X2031776D01*
X1944572Y1751161D02*
X1972477D01*
X1984345D02*
X1988242D01*
X1988465D02*
X1993526D01*
X1993751D02*
X1996392D01*
X1999036D02*
X2001231D01*
X2002798D02*
X2005173D01*
X2007546D02*
X2009383D01*
X2011487D02*
X2013324D01*
X2015697D02*
X2017355D01*
X2019728D02*
X2023626D01*
X2023938D02*
X2028909D01*
X2029134D02*
X2031776D01*
X1944662Y1751250D02*
X1972387D01*
X1984345D02*
X1996392D01*
X1999036D02*
X2005173D01*
X2007456D02*
X2009383D01*
X2011487D02*
X2013324D01*
X2015697D02*
X2017355D01*
X2019728D02*
X2031776D01*
X1944751Y1751340D02*
X1972298D01*
X1984345D02*
X1996303D01*
X1999036D02*
X2005083D01*
X2007366D02*
X2009293D01*
X2011577D02*
X2013414D01*
X2015697D02*
X2017355D01*
X2019728D02*
X2031686D01*
X1944841Y1751430D02*
X1972298D01*
X1984345D02*
X1985824D01*
X1985957D02*
X1991019D01*
X1991242D02*
X1996303D01*
X1998946D02*
X2005083D01*
X2007277D02*
X2009204D01*
X2011666D02*
X2013503D01*
X2015697D02*
X2017355D01*
X2019728D02*
X2021207D01*
X2021341D02*
X2026403D01*
X2026626D02*
X2031686D01*
X1944841Y1751519D02*
X1972208D01*
X1984345D02*
X1985824D01*
X1986047D02*
X1991019D01*
X1991332D02*
X1996213D01*
X1998946D02*
X2004994D01*
X2007277D02*
X2009204D01*
X2011666D02*
X2013503D01*
X2015697D02*
X2017355D01*
X2019728D02*
X2021207D01*
X2021520D02*
X2026403D01*
X2026715D02*
X2031686D01*
X1944931Y1751609D02*
X1972118D01*
X1984345D02*
X1985824D01*
X1986226D02*
X1990930D01*
X1991422D02*
X1996213D01*
X1998946D02*
X2004994D01*
X2007187D02*
X2009114D01*
X2011756D02*
X2013593D01*
X2015697D02*
X2017355D01*
X2019728D02*
X2021207D01*
X2021609D02*
X2026313D01*
X2026805D02*
X2031596D01*
X1945020Y1751698D02*
X1972029D01*
X1984345D02*
X1985824D01*
X1986316D02*
X1990840D01*
X1991511D02*
X1996123D01*
X1998946D02*
X2004904D01*
X2007098D02*
X2009025D01*
X2011845D02*
X2013683D01*
X2015697D02*
X2017355D01*
X2019728D02*
X2021207D01*
X2021699D02*
X2026313D01*
X2026894D02*
X2031507D01*
X1945110Y1751788D02*
X1972029D01*
X1984345D02*
X1985734D01*
X1986405D02*
X1990840D01*
X1991601D02*
X1996123D01*
X1998946D02*
X2004814D01*
X2007098D02*
X2008935D01*
X2011845D02*
X2013772D01*
X2015697D02*
X2017355D01*
X2019728D02*
X2021207D01*
X2021789D02*
X2026224D01*
X2027074D02*
X2031507D01*
X1945199Y1751878D02*
X1971939D01*
X1984345D02*
X1985734D01*
X1986495D02*
X1990751D01*
X1991780D02*
X1996034D01*
X1998946D02*
X2004725D01*
X2007008D02*
X2008935D01*
X2011935D02*
X2013772D01*
X2015697D02*
X2017355D01*
X2019728D02*
X2021118D01*
X2021968D02*
X2026134D01*
X2027163D02*
X2031417D01*
X1945199Y1751967D02*
X1971850D01*
X1984345D02*
X1985734D01*
X1986674D02*
X1990661D01*
X1991869D02*
X1995944D01*
X1998946D02*
X2004635D01*
X2006919D02*
X2008845D01*
X2012025D02*
X2013862D01*
X2015697D02*
X2017355D01*
X2019728D02*
X2021118D01*
X2022057D02*
X2026044D01*
X2027253D02*
X2031328D01*
X1945289Y1752057D02*
X1971760D01*
X1984345D02*
X1985734D01*
X1986764D02*
X1990571D01*
X1992049D02*
X1995855D01*
X1999125D02*
X2004546D01*
X2006919D02*
X2008756D01*
X2012025D02*
X2013951D01*
X2015697D02*
X2017355D01*
X2019728D02*
X2021118D01*
X2022236D02*
X2026044D01*
X2027432D02*
X2031238D01*
X1945378Y1752146D02*
X1971670D01*
X1984345D02*
X1985734D01*
X1986943D02*
X1990482D01*
X1992138D02*
X1995765D01*
X1999394D02*
X2004456D01*
X2006829D02*
X2008756D01*
X2012114D02*
X2013951D01*
X2015697D02*
X2017355D01*
X2019728D02*
X2021118D01*
X2022326D02*
X2025955D01*
X2027611D02*
X2031149D01*
X1945468Y1752236D02*
X1971581D01*
X1984345D02*
X1985734D01*
X1987122D02*
X1990392D01*
X1992317D02*
X1995676D01*
X1999573D02*
X2004277D01*
X2006739D02*
X2008666D01*
X2012204D02*
X2014041D01*
X2015697D02*
X2017355D01*
X2019728D02*
X2021118D01*
X2022505D02*
X2025776D01*
X2027701D02*
X2031059D01*
X1945558Y1752325D02*
X1971581D01*
X1984345D02*
X1985645D01*
X1987301D02*
X1990303D01*
X1992496D02*
X1995496D01*
X1999842D02*
X2004187D01*
X2006650D02*
X2008577D01*
X2012204D02*
X2014131D01*
X2015697D02*
X2017355D01*
X2019728D02*
X2021118D01*
X2022684D02*
X2025686D01*
X2027880D02*
X2030969D01*
X1945647Y1752415D02*
X1971491D01*
X1984345D02*
X1985645D01*
X1987480D02*
X1990124D01*
X1992676D02*
X1995407D01*
X2000200D02*
X2003919D01*
X2006650D02*
X2008577D01*
X2012293D02*
X2014131D01*
X2015697D02*
X2017355D01*
X2019728D02*
X2021028D01*
X2022863D02*
X2025507D01*
X2028149D02*
X2030790D01*
X1945737Y1752505D02*
X1971402D01*
X1984345D02*
X1985645D01*
X1987659D02*
X1989944D01*
X1992944D02*
X1995138D01*
X2000559D02*
X2003739D01*
X2006650D02*
X2008487D01*
X2012383D02*
X2014131D01*
X2015697D02*
X2017355D01*
X2019728D02*
X2021028D01*
X2023132D02*
X2025328D01*
X2028328D02*
X2030611D01*
X1945737Y1752594D02*
X1971312D01*
X1988018D02*
X1989676D01*
X1993303D02*
X1994869D01*
X2001006D02*
X2003381D01*
X2023401D02*
X2025059D01*
X2028686D02*
X2030342D01*
X1945826Y1752684D02*
X1971223D01*
X1988555D02*
X1989049D01*
X1993840D02*
X1994332D01*
X2001902D02*
X2002575D01*
X2023938D02*
X2024432D01*
X2029224D02*
X2029715D01*
X1945916Y1752773D02*
X1971133D01*
X1946005Y1752863D02*
X1971043D01*
X1946095Y1752952D02*
X1970954D01*
X1946185Y1753042D02*
X1970864D01*
X1946274Y1753132D02*
X1970775D01*
X1946364Y1753221D02*
X1970685D01*
X1946453Y1753311D02*
X1970596D01*
X1946543Y1753400D02*
X1970506D01*
X1946632Y1753490D02*
X1970416D01*
X1946722Y1753580D02*
X1970327D01*
X1946812Y1753669D02*
X1970237D01*
X1946901Y1753759D02*
X1970148D01*
X1947080Y1753848D02*
X1970058D01*
X1947170Y1753938D02*
X1969969D01*
X1947260Y1754027D02*
X1969879D01*
X1947349Y1754117D02*
X1969700D01*
X1947439Y1754207D02*
X1969610D01*
X2016145D02*
X2016907D01*
X1947528Y1754296D02*
X1969521D01*
X2015966D02*
X2017087D01*
X1947707Y1754386D02*
X1969431D01*
X2015787D02*
X2017176D01*
X1947797Y1754475D02*
X1969341D01*
X2015697D02*
X2017266D01*
X1947887Y1754565D02*
X1969162D01*
X2015697D02*
X2017355D01*
X1947976Y1754654D02*
X1969073D01*
X2015608D02*
X2017445D01*
X1948155Y1754744D02*
X1968983D01*
X2015518D02*
X2017445D01*
X1948245Y1754834D02*
X1968804D01*
X2015518D02*
X2017534D01*
X1948334Y1754923D02*
X1968714D01*
X2015518D02*
X2017534D01*
X1948514Y1755013D02*
X1968625D01*
X2015518D02*
X2017534D01*
X1948603Y1755102D02*
X1968446D01*
X2015428D02*
X2017534D01*
X1948782Y1755192D02*
X1968356D01*
X2015428D02*
X2017534D01*
X1948872Y1755282D02*
X1968177D01*
X2015428D02*
X2017534D01*
X1949051Y1755371D02*
X1968087D01*
X2015518D02*
X2017534D01*
X1949141Y1755461D02*
X1967908D01*
X2015518D02*
X2017534D01*
X1949320Y1755550D02*
X1967819D01*
X2015518D02*
X2017445D01*
X1949409Y1755640D02*
X1967639D01*
X2015518D02*
X2017445D01*
X1949589Y1755729D02*
X1967548D01*
X2015608D02*
X2017445D01*
X1949678Y1755819D02*
X1967369D01*
X2015697D02*
X2017355D01*
X1949857Y1755909D02*
X1967190D01*
X2015697D02*
X2017266D01*
X1950036Y1755998D02*
X1967011D01*
X2015787D02*
X2017176D01*
X1950216Y1756088D02*
X1966921D01*
X2015966D02*
X2017087D01*
X1950395Y1756177D02*
X1966742D01*
X2016145D02*
X2016907D01*
X1950484Y1756267D02*
X1966563D01*
X1950664Y1756356D02*
X1966384D01*
X1950843Y1756446D02*
X1966206D01*
X1951022Y1756536D02*
X1966027D01*
X1951201Y1756625D02*
X1965848D01*
X1951470Y1756715D02*
X1965669D01*
X1951649Y1756804D02*
X1965400D01*
X1951828Y1756894D02*
X1965221D01*
X1952097Y1756983D02*
X1965042D01*
X1952276Y1757073D02*
X1964773D01*
X1952545Y1757163D02*
X1964594D01*
X1952813Y1757252D02*
X1964325D01*
X1952993Y1757342D02*
X1964056D01*
X1953261Y1757431D02*
X1963788D01*
X1953620Y1757521D02*
X1963519D01*
X1953888Y1757611D02*
X1963161D01*
X1954247Y1757700D02*
X1962802D01*
X1954605Y1757790D02*
X1962442D01*
X1955053Y1757879D02*
X1962084D01*
X1955501Y1757969D02*
X1961548D01*
X1956038Y1758058D02*
X1961011D01*
X1956755Y1758148D02*
X1960294D01*
X2061393Y1729659D02*
X2062199D01*
X2063901D02*
X2064887D01*
X2066051D02*
X2066678D01*
X2068022D02*
X2068828D01*
X2061393Y1729838D02*
X2062199D01*
X2063901D02*
X2064887D01*
X2066051D02*
X2066857D01*
X2068022D02*
X2068828D01*
X2061393Y1730017D02*
X2062199D01*
X2063901D02*
X2064887D01*
X2065872D02*
X2066857D01*
X2068022D02*
X2068828D01*
X2061393Y1730196D02*
X2062199D01*
X2063901D02*
X2064887D01*
X2065872D02*
X2066857D01*
X2068022D02*
X2068828D01*
X2061393Y1730375D02*
X2062199D01*
X2063901D02*
X2064887D01*
X2065872D02*
X2067036D01*
X2068022D02*
X2068828D01*
X2061393Y1730554D02*
X2062199D01*
X2063901D02*
X2064887D01*
X2065693D02*
X2067036D01*
X2068022D02*
X2068828D01*
X2061393Y1730733D02*
X2062199D01*
X2063901D02*
X2064887D01*
X2065693D02*
X2067036D01*
X2068022D02*
X2068828D01*
X2061393Y1730913D02*
X2062199D01*
X2063901D02*
X2064887D01*
X2065693D02*
X2067216D01*
X2068022D02*
X2068828D01*
X2061393Y1731092D02*
X2062199D01*
X2063901D02*
X2064887D01*
X2065514D02*
X2067216D01*
X2068022D02*
X2068828D01*
X2061393Y1731271D02*
X2062199D01*
X2063901D02*
X2064887D01*
X2065514D02*
X2067395D01*
X2068022D02*
X2068828D01*
X2061393Y1731450D02*
X2062199D01*
X2063901D02*
X2064887D01*
X2065334D02*
X2066320D01*
X2066589D02*
X2067395D01*
X2068022D02*
X2068828D01*
X2061393Y1731629D02*
X2062199D01*
X2063901D02*
X2064887D01*
X2065334D02*
X2066141D01*
X2066589D02*
X2067395D01*
X2068022D02*
X2068828D01*
X2061393Y1731808D02*
X2062199D01*
X2063901D02*
X2064887D01*
X2065334D02*
X2066141D01*
X2066768D02*
X2067574D01*
X2068022D02*
X2068828D01*
X2061393Y1731988D02*
X2062199D01*
X2063901D02*
X2064887D01*
X2065155D02*
X2066141D01*
X2066768D02*
X2067574D01*
X2068022D02*
X2068828D01*
X2061393Y1732167D02*
X2062199D01*
X2063901D02*
X2064887D01*
X2065155D02*
X2065962D01*
X2066768D02*
X2067574D01*
X2068022D02*
X2068828D01*
X2061393Y1732346D02*
X2062199D01*
X2063901D02*
X2065962D01*
X2066947D02*
X2067753D01*
X2068022D02*
X2068828D01*
X2061393Y1732525D02*
X2062199D01*
X2063901D02*
X2065782D01*
X2066947D02*
X2067753D01*
X2068022D02*
X2068828D01*
X2061393Y1732704D02*
X2062199D01*
X2063901D02*
X2065782D01*
X2066947D02*
X2068828D01*
X2061393Y1732883D02*
X2062199D01*
X2063901D02*
X2065782D01*
X2067126D02*
X2068828D01*
X2061393Y1733062D02*
X2062199D01*
X2063901D02*
X2065603D01*
X2067126D02*
X2068828D01*
X2061393Y1733242D02*
X2062199D01*
X2063901D02*
X2065603D01*
X2067305D02*
X2068828D01*
X2060139Y1733421D02*
X2063632D01*
X2063901D02*
X2065424D01*
X2067305D02*
X2068828D01*
X2060139Y1733600D02*
X2063632D01*
X2063901D02*
X2065424D01*
X2067305D02*
X2068828D01*
X2060139Y1733779D02*
X2063632D01*
X2063901D02*
X2065424D01*
X2067484D02*
X2068828D01*
X2060139Y1733958D02*
X2063632D01*
X2063901D02*
X2065245D01*
X2067484D02*
X2068828D01*
G74*
X0Y0D02*
M02*
