M48
INCH,LZ
;FILE_FORMAT=2:4
;TYPE=PLATED
;Layer: PTH_Through_Via
;EasyEDA v6.5.42, 2024-03-17 19:56:20
;22851bfb20aa482085f49a562fa88950,7084cd4cda9a42c7a5f6ba31724bf8e5,10
;Gerber Generator version 0.2
;Holesize 1 = 0.0120 inch
T01C0.0120
%
G05
G90
T01
X036300Y022520
X032010Y026470
X033110Y024630
X031630Y029400
X032620Y029290
X029180Y029120
X035510Y027870
X026230Y024240
X026620Y025700
X029710Y024460
X028140Y024120
X029760Y027510
X030810Y028230
X030450Y028230
X034670Y030860
X034670Y030570
X033350Y031700
X032260Y029210
X029310Y031080
X029310Y033180
X031520Y031100
X031510Y033180
X030410Y032770
X033700Y032750
X033700Y031100
X028570Y029160
X033740Y023250
X032740Y024290
X029530Y028289
X031320Y021860
X035280Y022070
X030780Y026600
X032438Y023939
X034018Y022090
X031630Y028140
X032190Y027900
X032676Y027545
X032954Y027269
X026849Y025271
X034679Y024894
X028698Y026243
X031764Y023296
X036048Y024558
X027168Y021513
X035640Y021510
M30
