G04 Layer: BoardOutlineLayer*
G04 EasyEDA v6.5.42, 2024-03-17 19:56:20*
G04 22851bfb20aa482085f49a562fa88950,7084cd4cda9a42c7a5f6ba31724bf8e5,10*
G04 Gerber Generator version 0.2*
G04 Scale: 100 percent, Rotated: No, Reflected: No *
G04 Dimensions in inches *
G04 leading zeros omitted , absolute positions ,3 integer and 6 decimal *
%FSLAX36Y36*%
%MOIN*%

%ADD10C,0.0100*%
D10*
X3800000Y2920000D02*
G01*
X3585000Y2920000D01*
X3585000Y3250000D01*
X3800000Y3250000D01*
X3800000Y3500000D01*
X3800000Y3500000D02*
G01*
X300000Y3500000D01*
X300000Y3500000D02*
G01*
X300000Y1500000D01*
X3800000Y1500000D01*
X3800000Y2920000D01*
G75*
G01*
X3800000Y3452960D02*
G03*
X3750238Y3500087I-50000J-2960D01*
G75*
G01*
X3749180Y1500000D02*
G03*
X3800004Y1549474I820J50000D01*
G75*
G01*
X349478Y3500000D02*
G03*
X300311Y3444411I523J-50000D01*
G75*
G01*
X300000Y1549408D02*
G03*
X346648Y1500109I50000J592D01*
X3514998Y3004996D02*
G01*
X3584998Y3004996D01*
X3584998Y3164996D01*
X3514998Y3164996D01*
X3514998Y3004996D02*
G01*
X3514939Y2935014D01*
X3804939Y2935014D01*
X3804939Y3235014D01*
X3514939Y3235014D01*
X3514998Y3164996D01*
X3805000Y2935000D02*
G01*
X3515000Y2935000D01*
X3515000Y2935000D02*
G01*
X3515000Y3005000D01*
X3515000Y3005000D02*
G01*
X3585000Y3005000D01*
X3585000Y3005000D02*
G01*
X3585000Y3165000D01*
X3585000Y3165000D02*
G01*
X3515000Y3165000D01*
X3515000Y3165000D02*
G01*
X3515000Y3235000D01*
X3515000Y3235000D02*
G01*
X3805000Y3235000D01*
X3805000Y3235000D02*
G01*
X3805000Y2935000D01*
X3805000Y2935000D02*
G01*
X3805000Y2935000D01*

%LPD*%
M02*
