G04 Layer: TopPasteMaskLayer*
G04 EasyEDA v6.5.42, 2024-03-17 19:56:20*
G04 22851bfb20aa482085f49a562fa88950,7084cd4cda9a42c7a5f6ba31724bf8e5,10*
G04 Gerber Generator version 0.2*
G04 Scale: 100 percent, Rotated: No, Reflected: No *
G04 Dimensions in inches *
G04 leading zeros omitted , absolute positions ,3 integer and 6 decimal *
%FSLAX36Y36*%
%MOIN*%

%AMMACRO1*21,1,$1,$2,0,0,$3*%
%ADD10O,0.059843X0.023622*%
%ADD11R,0.0217X0.0394*%
%ADD12R,0.0394X0.0433*%
%ADD13R,0.0433X0.0394*%
%ADD14R,0.0600X0.0157*%
%ADD15R,0.0748X0.0827*%
%ADD16MACRO1,0.0394X0.0433X-135.0000*%
%ADD17R,0.0472X0.0472*%
%ADD18MACRO1,0.0551X0.0453X135.0000*%
%ADD19MACRO1,0.0551X0.0453X134.9926*%
%ADD20MACRO1,0.0098X0.075X135.0000*%
%ADD21MACRO1,0.0099X0.075X135.0000*%
%ADD22MACRO1,0.0099X0.075X135.0409*%
%ADD23MACRO1,0.0098X0.075X45.0000*%
%ADD24MACRO1,0.0099X0.075X45.0000*%
%ADD25MACRO1,0.0098X0.075X44.9586*%
%ADD26MACRO1,0.0098X0.075X135.0414*%
%ADD27MACRO1,0.0099X0.075X44.9591*%
%ADD28MACRO1,0.2657X0.2657X45.0000*%
%ADD29C,0.0166*%

%LPD*%
D10*
G01*
X2734870Y2421999D03*
G01*
X2734870Y2471999D03*
G01*
X2734870Y2521999D03*
G01*
X2734870Y2571999D03*
G01*
X2519129Y2421999D03*
G01*
X2519129Y2471999D03*
G01*
X2519129Y2521999D03*
G01*
X2519129Y2571999D03*
D11*
G01*
X2783599Y3276050D03*
G01*
X2858400Y3276050D03*
G01*
X2858400Y3157939D03*
G01*
X2821000Y3157939D03*
G01*
X2783599Y3157939D03*
D12*
G01*
X2785569Y3056999D03*
G01*
X2856440Y3056999D03*
D11*
G01*
X3223599Y3276050D03*
G01*
X3298400Y3276050D03*
G01*
X3298400Y3157939D03*
G01*
X3261000Y3157939D03*
G01*
X3223599Y3157939D03*
D13*
G01*
X3371000Y3054439D03*
G01*
X3371000Y2983569D03*
D12*
G01*
X3009499Y3356999D03*
G01*
X3072489Y3356999D03*
G01*
X3277569Y2196999D03*
G01*
X3348440Y2196999D03*
G01*
X3357569Y2276999D03*
G01*
X3428440Y2276999D03*
D11*
G01*
X3003599Y3276050D03*
G01*
X3078400Y3276050D03*
G01*
X3078400Y3157939D03*
G01*
X3041000Y3157939D03*
G01*
X3003599Y3157939D03*
D12*
G01*
X3101499Y2016999D03*
G01*
X3164489Y2016999D03*
G01*
X3674499Y2786999D03*
G01*
X3611509Y2786999D03*
D14*
G01*
X3534939Y3033809D03*
G01*
X3534939Y3059409D03*
G01*
X3534939Y3085000D03*
G01*
X3534939Y3110590D03*
G01*
X3534939Y3136179D03*
D15*
G01*
X3715060Y3289720D03*
G01*
X3715060Y2880270D03*
G01*
X3549700Y2880270D03*
G01*
X3549700Y3289720D03*
D16*
G01*
X3498054Y2672054D03*
G01*
X3447939Y2621939D03*
G01*
X3318054Y2852054D03*
G01*
X3267939Y2801939D03*
D13*
G01*
X2931000Y3238499D03*
G01*
X2931000Y3175509D03*
G01*
X3151000Y3238499D03*
G01*
X3151000Y3175509D03*
G01*
X3151000Y2985500D03*
G01*
X3151000Y3048490D03*
D12*
G01*
X2904499Y2276999D03*
G01*
X2841509Y2276999D03*
G01*
X2757569Y2356999D03*
G01*
X2828440Y2356999D03*
G01*
X3225569Y3436999D03*
G01*
X3296440Y3436999D03*
G01*
X3225569Y3356999D03*
G01*
X3296440Y3356999D03*
G01*
X2785569Y2976999D03*
G01*
X2856440Y2976999D03*
G01*
X3005569Y2976999D03*
G01*
X3076440Y2976999D03*
G01*
X3225569Y2976999D03*
G01*
X3296440Y2976999D03*
D17*
G01*
X3491890Y1742829D03*
G01*
X3728109Y1742829D03*
G01*
X3491890Y1597159D03*
G01*
X3728109Y1597159D03*
D12*
G01*
X2852500Y3356999D03*
G01*
X2789510Y3356999D03*
G01*
X2917569Y2196999D03*
G01*
X2988440Y2196999D03*
D13*
G01*
X3533000Y2461570D03*
G01*
X3533000Y2532440D03*
D12*
G01*
X2917569Y2796999D03*
G01*
X2988440Y2796999D03*
G01*
X2747569Y2636999D03*
G01*
X2818440Y2636999D03*
G01*
X2827569Y2716999D03*
G01*
X2898440Y2716999D03*
G01*
X3437569Y2356999D03*
G01*
X3508440Y2356999D03*
G01*
X3097569Y2106999D03*
G01*
X3168440Y2106999D03*
G01*
X3161430Y2896999D03*
G01*
X3090559Y2896999D03*
G01*
X3005569Y3056999D03*
G01*
X3076440Y3056999D03*
G01*
X3225569Y3056999D03*
G01*
X3296440Y3056999D03*
D13*
G01*
X2931000Y2985500D03*
G01*
X2931000Y3048490D03*
D18*
G01*
X3333000Y2746994D03*
D19*
G01*
X3438789Y2730295D03*
G01*
X3394245Y2685744D03*
G01*
X3377539Y2791545D03*
D20*
G01*
X2865409Y2466689D03*
D21*
G01*
X2876545Y2455549D03*
D20*
G01*
X2887680Y2444410D03*
D21*
G01*
X2898820Y2433275D03*
D20*
G01*
X2909960Y2422139D03*
D21*
G01*
X2921095Y2411005D03*
D20*
G01*
X2932229Y2399865D03*
D21*
G01*
X2943364Y2388730D03*
D20*
G01*
X2954505Y2377590D03*
D22*
G01*
X2965644Y2366454D03*
D20*
G01*
X2976779Y2355320D03*
D21*
G01*
X2987914Y2344180D03*
D20*
G01*
X2999050Y2333044D03*
G01*
X3010154Y2321939D03*
D21*
G01*
X3021289Y2310805D03*
D20*
G01*
X3032429Y2299670D03*
D21*
G01*
X3043565Y2288534D03*
D20*
G01*
X3054699Y2277394D03*
D21*
G01*
X3065835Y2266254D03*
D20*
G01*
X3076974Y2255120D03*
D21*
G01*
X3088115Y2243985D03*
D20*
G01*
X3099249Y2232849D03*
D23*
G01*
X3163454Y2232850D03*
G01*
X3174555Y2243950D03*
D24*
G01*
X3185695Y2255084D03*
D23*
G01*
X3196830Y2266220D03*
D24*
G01*
X3207964Y2277360D03*
D23*
G01*
X3219104Y2288495D03*
D24*
G01*
X3230239Y2299634D03*
D23*
G01*
X3241380Y2310770D03*
D24*
G01*
X3252514Y2321905D03*
D23*
G01*
X3263650Y2333044D03*
D24*
G01*
X3274789Y2344179D03*
D23*
G01*
X3285925Y2355319D03*
D24*
G01*
X3297064Y2366455D03*
D23*
G01*
X3308200Y2377590D03*
D24*
G01*
X3319335Y2388730D03*
D23*
G01*
X3330470Y2399865D03*
D24*
G01*
X3341609Y2411005D03*
D23*
G01*
X3352750Y2422139D03*
D24*
G01*
X3363885Y2433274D03*
D25*
G01*
X3375019Y2444414D03*
D24*
G01*
X3386154Y2455550D03*
D23*
G01*
X3397294Y2466690D03*
D20*
G01*
X3397294Y2530889D03*
D21*
G01*
X3386155Y2542029D03*
D26*
G01*
X3375019Y2553170D03*
D21*
G01*
X3363885Y2564304D03*
D20*
G01*
X3352750Y2575439D03*
D21*
G01*
X3341610Y2586575D03*
D20*
G01*
X3330470Y2597715D03*
D21*
G01*
X3319334Y2608850D03*
D20*
G01*
X3308200Y2619990D03*
G01*
X3297100Y2631089D03*
D21*
G01*
X3285960Y2642225D03*
D20*
G01*
X3274824Y2653360D03*
D21*
G01*
X3263685Y2664500D03*
D20*
G01*
X3252550Y2675639D03*
D21*
G01*
X3241415Y2686775D03*
D20*
G01*
X3230274Y2697910D03*
D21*
G01*
X3219140Y2709044D03*
D20*
G01*
X3207999Y2720184D03*
D21*
G01*
X3196865Y2731324D03*
D20*
G01*
X3185729Y2742460D03*
D22*
G01*
X3174595Y2753595D03*
D20*
G01*
X3163454Y2764729D03*
D23*
G01*
X3099249Y2764729D03*
D24*
G01*
X3088115Y2753595D03*
D23*
G01*
X3076974Y2742459D03*
D24*
G01*
X3065840Y2731325D03*
D23*
G01*
X3054699Y2720185D03*
D24*
G01*
X3043564Y2709045D03*
D23*
G01*
X3032429Y2697909D03*
D24*
G01*
X3021290Y2686775D03*
D23*
G01*
X3010154Y2675640D03*
D24*
G01*
X2999014Y2664500D03*
D25*
G01*
X2987880Y2653364D03*
D24*
G01*
X2976745Y2642224D03*
D23*
G01*
X2965605Y2631090D03*
D24*
G01*
X2954469Y2619955D03*
D23*
G01*
X2943330Y2608814D03*
D24*
G01*
X2932194Y2597680D03*
D23*
G01*
X2921060Y2586540D03*
D27*
G01*
X2909919Y2575405D03*
D23*
G01*
X2898785Y2564269D03*
D24*
G01*
X2887644Y2553129D03*
D23*
G01*
X2876510Y2541994D03*
G01*
X2865409Y2530889D03*
D28*
G01*
X3131349Y2498789D03*
M02*
