G04 Layer: BottomLayer*
G04 EasyEDA v6.5.42, 2024-03-17 19:56:20*
G04 22851bfb20aa482085f49a562fa88950,7084cd4cda9a42c7a5f6ba31724bf8e5,10*
G04 Gerber Generator version 0.2*
G04 Scale: 100 percent, Rotated: No, Reflected: No *
G04 Dimensions in inches *
G04 leading zeros omitted , absolute positions ,3 integer and 6 decimal *
%FSLAX36Y36*%
%MOIN*%

%ADD10C,0.0100*%
%ADD11C,0.0080*%
%ADD12R,0.0740X0.0740*%
%ADD13C,0.0740*%
%ADD14C,0.0240*%

%LPD*%
D10*
X3311000Y2463000D02*
G01*
X3693999Y2080000D01*
X3710000Y2080000D01*
X3201000Y2646999D02*
G01*
X3531000Y2316999D01*
X3565000Y2316999D01*
X3630000Y2251999D01*
D11*
X3295399Y2694600D02*
G01*
X3295399Y2685000D01*
X2842799Y2685000D01*
X2684899Y2527100D01*
D10*
X3267600Y2754499D02*
G01*
X3216099Y2703000D01*
X2795000Y2703000D01*
X2661999Y2570000D01*
X2661000Y2570000D01*
X3151000Y3318000D02*
G01*
X3020000Y3318000D01*
X2986000Y3284000D01*
X2986000Y3275999D01*
X3151999Y3110000D01*
X3261999Y2929000D02*
G01*
X3261999Y2920000D01*
X3240000Y2898000D01*
X3205000Y2898000D01*
X3163000Y2940000D01*
X3551000Y2786999D02*
G01*
X3498999Y2839000D01*
X3138999Y2839000D01*
X3095000Y2795000D01*
X3035000Y2795000D01*
X2918000Y2911999D01*
X3218999Y2790000D02*
G01*
X3180000Y2790000D01*
X3111000Y2721001D01*
X2781000Y2721001D01*
X2622997Y2563000D01*
X2622997Y2423998D01*
D11*
X3131999Y2185999D02*
G01*
X2793001Y2185999D01*
X2586000Y2393000D01*
X2586000Y2558000D01*
X2856899Y2828899D01*
X2952997Y2828899D01*
X3604799Y2455799D02*
G01*
X3604799Y2416500D01*
X3694200Y2327100D01*
X3728299Y2327100D01*
X3758999Y2357800D01*
X3758999Y2630999D01*
X3710000Y2680000D01*
D10*
X2813999Y2411999D02*
G01*
X2936999Y2411999D01*
X2971000Y2445999D01*
X2976000Y2751001D02*
G01*
X3100001Y2751001D01*
X3163000Y2814000D01*
X3081000Y2823000D02*
G01*
X3117997Y2860000D01*
X3363999Y2860000D01*
X3466999Y2963000D01*
X3466999Y3056999D01*
X3045000Y2823000D02*
G01*
X3102002Y2880000D01*
X3247997Y2880000D01*
X3453998Y3085999D01*
X3466999Y3085999D01*
X3226000Y2920999D02*
G01*
X3226000Y3060999D01*
X3335000Y3170000D01*
X2931000Y3318000D02*
G01*
X2931000Y3108000D01*
X3041000Y3276999D02*
G01*
X3368000Y3276999D01*
X3370000Y3275000D01*
X3370000Y3275000D02*
G01*
X3370000Y3110000D01*
X2856999Y2915999D02*
G01*
X2865900Y2915999D01*
X2953000Y2828899D01*
D11*
X3273999Y2429000D02*
G01*
X3373999Y2329000D01*
X3373999Y2325000D01*
X3131999Y2185999D02*
G01*
X3132898Y2186898D01*
X3411000Y2186898D01*
X3423900Y2199899D01*
X3423900Y2275100D01*
X3373999Y2325000D01*
X3528000Y2206999D02*
G01*
X3528000Y2209998D01*
X3077997Y2660000D01*
X3243800Y2393899D02*
G01*
X3401800Y2235999D01*
X3401800Y2209000D01*
X3710000Y2580000D02*
G01*
X3476000Y2814000D01*
X3163000Y2814000D01*
X3710000Y2480000D02*
G01*
X3400000Y2790000D01*
X3218999Y2790000D01*
X3710000Y2380000D02*
G01*
X3710000Y2387800D01*
X3343299Y2754499D01*
X3267600Y2754499D01*
X3710000Y2280000D02*
G01*
X3295399Y2694600D01*
X3295399Y2694600D02*
G01*
X3295399Y2726900D01*
X3710000Y2027100D02*
G01*
X3733599Y2027100D01*
X3762899Y2056399D01*
X3762899Y2199400D01*
X3732299Y2230000D01*
X3691000Y2230000D01*
X3467899Y2453000D01*
X3467899Y2489400D01*
X3710000Y1980000D02*
G01*
X3710000Y2027100D01*
X2869799Y2624299D02*
G01*
X3164499Y2329600D01*
X3176400Y2329600D01*
D10*
X2716800Y2151300D02*
G01*
X3563999Y2150999D01*
D12*
G01*
X3710000Y1980000D03*
D13*
G01*
X3710000Y2080000D03*
G01*
X3710000Y2180000D03*
G01*
X3710000Y2280000D03*
G01*
X3710000Y2380000D03*
G01*
X3710000Y2480000D03*
G01*
X3710000Y2580000D03*
G01*
X3710000Y2680000D03*
D14*
G01*
X3630000Y2251999D03*
G01*
X3201000Y2646999D03*
G01*
X3311000Y2463000D03*
G01*
X3163000Y2940000D03*
G01*
X3261999Y2929000D03*
G01*
X2918000Y2911999D03*
G01*
X3551000Y2786999D03*
G01*
X2623000Y2424000D03*
G01*
X2661999Y2570000D03*
G01*
X2971000Y2445999D03*
G01*
X2813999Y2411999D03*
G01*
X2976000Y2750999D03*
G01*
X3081000Y2823000D03*
G01*
X3045000Y2823000D03*
G01*
X3466999Y3085999D03*
G01*
X3466999Y3056999D03*
G01*
X3335000Y3170000D03*
G01*
X3226000Y2920999D03*
G01*
X2931000Y3108000D03*
G01*
X2931000Y3318000D03*
G01*
X3151999Y3110000D03*
G01*
X3151000Y3318000D03*
G01*
X3041000Y3276999D03*
G01*
X3370000Y3275000D03*
G01*
X3370000Y3110000D03*
G01*
X2856999Y2915999D03*
G01*
X3373999Y2325000D03*
G01*
X3273999Y2429000D03*
G01*
X2953000Y2828899D03*
G01*
X3131999Y2185999D03*
G01*
X3528000Y2206999D03*
G01*
X3078000Y2660000D03*
G01*
X3243800Y2393899D03*
G01*
X3401800Y2209000D03*
G01*
X3163000Y2814000D03*
G01*
X3218999Y2790000D03*
G01*
X3267600Y2754499D03*
G01*
X3295399Y2726900D03*
G01*
X2684899Y2527100D03*
G01*
X3467899Y2489400D03*
G01*
X2869799Y2624299D03*
G01*
X3176400Y2329600D03*
G01*
X3604799Y2455799D03*
G01*
X2716800Y2151269D03*
G01*
X3563999Y2150999D03*
M02*
