G04 Layer: TopLayer*
G04 EasyEDA v6.5.42, 2024-03-17 19:56:20*
G04 22851bfb20aa482085f49a562fa88950,7084cd4cda9a42c7a5f6ba31724bf8e5,10*
G04 Gerber Generator version 0.2*
G04 Scale: 100 percent, Rotated: No, Reflected: No *
G04 Dimensions in inches *
G04 leading zeros omitted , absolute positions ,3 integer and 6 decimal *
%FSLAX36Y36*%
%MOIN*%

%AMMACRO1*21,1,$1,$2,0,0,$3*%
%ADD10C,0.0080*%
%ADD11C,0.0100*%
%ADD12O,0.059843X0.023622*%
%ADD13R,0.0217X0.0394*%
%ADD14R,0.0394X0.0433*%
%ADD15R,0.0433X0.0394*%
%ADD16R,0.0600X0.0157*%
%ADD17R,0.0748X0.0827*%
%ADD18MACRO1,0.0394X0.0433X-134.9990*%
%ADD19MACRO1,0.0394X0.0433X-135.0000*%
%ADD20R,0.0472X0.0472*%
%ADD21MACRO1,0.0551X0.0453X135.0007*%
%ADD22MACRO1,0.0551X0.0453X135.0000*%
%ADD23MACRO1,0.0551X0.0453X134.9993*%
%ADD24MACRO1,0.0098X0.075X135.0000*%
%ADD25MACRO1,0.0099X0.075X134.9959*%
%ADD26MACRO1,0.0098X0.075X135.0041*%
%ADD27MACRO1,0.0099X0.075X135.0041*%
%ADD28MACRO1,0.0098X0.075X134.9959*%
%ADD29MACRO1,0.0099X0.075X135.0000*%
%ADD30MACRO1,0.0098X0.075X45.0041*%
%ADD31MACRO1,0.0098X0.075X44.9959*%
%ADD32MACRO1,0.0099X0.075X45.0041*%
%ADD33MACRO1,0.0099X0.075X45.0000*%
%ADD34MACRO1,0.0098X0.075X45.0000*%
%ADD35MACRO1,0.0099X0.075X44.9959*%
%ADD36MACRO1,0.2657X0.2657X45.0002*%
%ADD37R,0.0740X0.0740*%
%ADD38C,0.0740*%
%ADD39C,0.0240*%
%ADD40C,0.0171*%

%LPD*%
D10*
X3437597Y2356999D02*
G01*
X3405598Y2325000D01*
X3373999Y2325000D01*
D11*
X3630000Y2251999D02*
G01*
X3701999Y2180000D01*
X3710000Y2180000D01*
X3230280Y2697910D02*
G01*
X3201000Y2668629D01*
X3201000Y2646999D01*
X3352700Y2575399D02*
G01*
X3311000Y2534000D01*
X3333000Y2511999D01*
X3333000Y2485000D01*
X3311000Y2463000D01*
X3151999Y3110000D02*
G01*
X3151000Y3109000D01*
X3151000Y3048490D01*
X3151000Y3238499D02*
G01*
X3151000Y3318000D01*
X3296440Y2976999D02*
G01*
X3261999Y2942559D01*
X3261999Y2929000D01*
X3163000Y2940000D02*
G01*
X3151000Y2951999D01*
X3151000Y2985500D01*
X3225569Y3056999D02*
G01*
X3188999Y3020430D01*
X3188999Y2924569D01*
X3161430Y2896999D01*
X2931000Y2985500D02*
G01*
X2931000Y2951999D01*
X2971000Y2911999D01*
X3011440Y2911999D01*
X3076440Y2976999D01*
X2918000Y2911999D02*
G01*
X2971000Y2911999D01*
D10*
X3611499Y2786999D02*
G01*
X3551000Y2786999D01*
D11*
X2622997Y2423998D02*
G01*
X2624997Y2421999D01*
X2734870Y2421999D01*
X2662002Y2570000D02*
G01*
X2614002Y2521999D01*
X2519129Y2521999D01*
X2971000Y2445999D02*
G01*
X3078559Y2445999D01*
X3131350Y2498789D01*
X2757569Y2356999D02*
G01*
X2758999Y2356999D01*
X2813999Y2411999D01*
D10*
X3054700Y2720200D02*
G01*
X3021099Y2753800D01*
X3021099Y2825200D01*
X3017299Y2828899D01*
X2953000Y2828899D01*
D11*
X2976000Y2750999D02*
G01*
X2976000Y2726900D01*
X3088100Y2753600D02*
G01*
X3056999Y2784000D01*
X3056999Y2799000D01*
X3081000Y2823000D01*
X3076980Y2742460D02*
G01*
X3036000Y2783440D01*
X3036000Y2814000D01*
X3045000Y2823000D01*
D10*
X3163000Y2814000D02*
G01*
X3163000Y2807202D01*
X3120497Y2764699D01*
D11*
X3534902Y3059398D02*
G01*
X3532502Y3056999D01*
X3466999Y3056999D01*
X3466999Y3085999D02*
G01*
X3533901Y3085999D01*
X3534902Y3085000D01*
X3005569Y3056999D02*
G01*
X3005569Y3119000D01*
X3225600Y2976999D02*
G01*
X3226000Y2920999D01*
X3298400Y3157939D02*
G01*
X3322939Y3157939D01*
X3335000Y3170000D01*
D10*
X3090600Y2896999D02*
G01*
X3090600Y2908600D01*
X3151000Y2969000D01*
X3151000Y2985500D01*
D11*
X3078400Y3157939D02*
G01*
X3078400Y3137399D01*
X3041000Y3100000D01*
X3041000Y3012429D01*
X3005569Y2976999D01*
X2852500Y3356999D02*
G01*
X2852500Y3331500D01*
X2823999Y3303000D01*
X2823999Y3255999D01*
X2715000Y3146999D01*
X2715000Y2950999D01*
X2751000Y2915000D01*
X2856000Y2915000D01*
X2856999Y2915999D01*
X2931000Y3108000D02*
G01*
X2931000Y3048490D01*
X2931000Y3238499D02*
G01*
X2931000Y3318000D01*
X3078400Y3275999D02*
G01*
X3041000Y3276999D01*
X3298400Y3276050D02*
G01*
X3368950Y3276050D01*
X3370000Y3275000D01*
X3371000Y3054439D02*
G01*
X3371000Y3109000D01*
X3370000Y3110000D01*
X3296440Y3356999D02*
G01*
X3296440Y3436999D01*
X3298400Y3276050D02*
G01*
X3296440Y3278009D01*
X3296440Y3356999D01*
X3225600Y3356999D02*
G01*
X3225600Y3339400D01*
X3251000Y3314000D01*
X3251000Y3251999D01*
X3174499Y3175500D01*
X3151000Y3175500D01*
X3223599Y3157899D02*
G01*
X3223599Y3171599D01*
X3298400Y3246399D01*
X3298400Y3275999D01*
X3225569Y3356999D02*
G01*
X3225569Y3436999D01*
X3072489Y3356999D02*
G01*
X3225569Y3356999D01*
X2856400Y2976999D02*
G01*
X2856999Y2915999D01*
X3076440Y3056999D02*
G01*
X3076440Y2976999D01*
X3296440Y3056999D02*
G01*
X3296440Y2976999D01*
X3534939Y3033809D02*
G01*
X3504809Y3033809D01*
X3454570Y2983569D01*
X3371000Y2983569D01*
X3240000Y3118000D02*
G01*
X3320000Y3118000D01*
X3338180Y3136179D01*
X3534939Y3136179D01*
X3225569Y3056999D02*
G01*
X3225569Y3118000D01*
X3151000Y3175509D02*
G01*
X3151000Y3170000D01*
X3203000Y3118000D01*
X3240000Y3118000D01*
X3261000Y3139000D01*
X3261000Y3157939D01*
X2931000Y3175509D02*
G01*
X2931000Y3158000D01*
X2970000Y3119000D01*
X3021999Y3119000D01*
X3041000Y3138000D01*
X3041000Y3157939D01*
X3041000Y3157939D02*
G01*
X3041000Y3175999D01*
X3066000Y3200999D01*
X3125510Y3200999D01*
X3151000Y3175509D01*
X3151000Y3238499D02*
G01*
X3188549Y3276050D01*
X3223599Y3276050D01*
X3003599Y3157939D02*
G01*
X3003599Y3201250D01*
X3078400Y3276050D01*
X3003599Y3276050D02*
G01*
X2968549Y3276050D01*
X2931000Y3238499D01*
X2789510Y3356999D02*
G01*
X2789510Y3376509D01*
X2826999Y3414000D01*
X2952500Y3414000D01*
X3009499Y3356999D01*
X2783599Y3276050D02*
G01*
X2783599Y3351089D01*
X2789510Y3356999D01*
X2783599Y3157939D02*
G01*
X2783599Y3172600D01*
X2858400Y3247399D01*
X2858400Y3276050D01*
X2821000Y3157899D02*
G01*
X2821000Y3171999D01*
X2841000Y3191999D01*
X2908000Y3191999D01*
X2924499Y3175500D01*
X2931000Y3175500D01*
X2785600Y2976999D02*
G01*
X2823000Y3014000D01*
X2823000Y3103000D01*
X2858400Y3138400D01*
X2858400Y3157899D01*
X2785600Y3056999D02*
G01*
X2785600Y3108600D01*
X2821000Y3144000D01*
X2821000Y3157899D01*
X2856440Y2976999D02*
G01*
X2856435Y3056999D01*
D10*
X3097600Y2106999D02*
G01*
X3097600Y2138699D01*
X3099300Y2232800D02*
G01*
X3099300Y2140399D01*
X3097600Y2138699D01*
X3273999Y2429000D02*
G01*
X3266400Y2421401D01*
X3266400Y2397100D01*
X3297100Y2366399D01*
X2953000Y2828899D02*
G01*
X2949499Y2828899D01*
X2917600Y2796999D01*
X3099300Y2232800D02*
G01*
X3120500Y2232800D01*
X3120497Y2232800D02*
G01*
X3131999Y2221298D01*
X3131999Y2185999D01*
X3728100Y1597199D02*
G01*
X3694399Y1597199D01*
X3078000Y2660000D02*
G01*
X3094799Y2676799D01*
X3094799Y2702399D01*
X3065801Y2731298D01*
X3556602Y1709099D02*
G01*
X3528000Y1737701D01*
X3528000Y2206999D01*
X3694399Y1597199D02*
G01*
X3582500Y1709099D01*
X3556599Y1709099D01*
X3556599Y1709099D02*
G01*
X3325799Y1709099D01*
X2841499Y2193400D01*
X2841499Y2276999D01*
X3319300Y2608800D02*
G01*
X3348599Y2638099D01*
X3348599Y2731399D01*
X3333000Y2746999D01*
X3333000Y2746999D02*
G01*
X3307299Y2772700D01*
X3307299Y2801900D01*
X3267899Y2801900D02*
G01*
X3307299Y2801900D01*
X3463100Y2671999D02*
G01*
X3498100Y2671999D01*
X3438800Y2730300D02*
G01*
X3463100Y2705999D01*
X3463100Y2671999D01*
X3463100Y2671999D02*
G01*
X3463100Y2671999D01*
X3451400Y2671999D01*
X3409099Y2629699D01*
X3362500Y2629699D01*
X3330500Y2597700D01*
X3674499Y2786999D02*
G01*
X3704300Y2786999D01*
X3101499Y2016999D02*
G01*
X3131300Y2016999D01*
X3274799Y2344200D02*
G01*
X3243800Y2375100D01*
X3243800Y2393899D01*
X3401800Y2209000D02*
G01*
X3411199Y2199600D01*
X3704300Y2786999D02*
G01*
X3777700Y2713600D01*
X3777700Y2378499D01*
X3729200Y2330000D01*
X3541700Y2330000D01*
X3411199Y2199600D01*
X3411199Y2199600D02*
G01*
X3264200Y2052500D01*
X3136999Y2052500D01*
X3131300Y2046799D01*
X3131300Y2016999D01*
X2910000Y2422100D02*
G01*
X2899399Y2422100D01*
X2904499Y2276999D02*
G01*
X2904499Y2308699D01*
X2899399Y2422100D02*
G01*
X2898800Y2422100D01*
X2868699Y2716999D02*
G01*
X2868699Y2702100D01*
X2851800Y2685200D01*
X2806899Y2685200D01*
X2786199Y2664600D01*
X2786199Y2613200D01*
X2745000Y2571999D01*
X2734899Y2571999D01*
X2878299Y2356999D02*
G01*
X2828400Y2356999D01*
X2883599Y2716999D02*
G01*
X2868699Y2716999D01*
X2883599Y2716999D02*
G01*
X2898400Y2716999D01*
X2878299Y2356999D02*
G01*
X2904499Y2330799D01*
X2904499Y2308699D01*
X3099300Y2764699D02*
G01*
X3120500Y2764699D01*
X3090600Y2896999D02*
G01*
X3068600Y2875000D01*
X3021000Y2875000D01*
X2904499Y2276999D02*
G01*
X2934300Y2276999D01*
X2898800Y2422100D02*
G01*
X2898800Y2433299D01*
X2898400Y2716999D02*
G01*
X2928199Y2716999D01*
X3076999Y2255100D02*
G01*
X3018900Y2196999D01*
X2988400Y2196999D01*
X2988400Y2228699D02*
G01*
X2982500Y2228699D01*
X2934300Y2276999D01*
X2988400Y2196999D02*
G01*
X2988400Y2228699D01*
X3533000Y2532399D02*
G01*
X3533000Y2536900D01*
X3710000Y2580000D02*
G01*
X3576099Y2580000D01*
X3533000Y2536900D01*
X3533000Y2536900D02*
G01*
X3490900Y2536900D01*
X3412200Y2615599D01*
X3370600Y2615599D01*
X3341599Y2586599D01*
X2898800Y2422100D02*
G01*
X2878299Y2401599D01*
X2878299Y2401599D02*
G01*
X2878299Y2356999D01*
X2755000Y2523998D02*
G01*
X2734870Y2544128D01*
X2734870Y2571999D01*
X2734870Y2521999D02*
G01*
X2771000Y2521999D01*
X2811899Y2481100D01*
X2811899Y2445700D01*
X2855897Y2401599D01*
X2878301Y2401599D01*
X3032399Y2697899D02*
G01*
X3003500Y2726900D01*
X2938100Y2726900D01*
X2928199Y2716999D01*
X2734899Y2571999D02*
G01*
X2711999Y2571999D01*
X2711999Y2681999D01*
X2905000Y2875000D01*
X3021000Y2875000D01*
X2734870Y2571999D02*
G01*
X2718698Y2571999D01*
X2716698Y2573998D01*
X2519129Y2471999D02*
G01*
X2598499Y2471999D01*
X2700497Y2573998D01*
X2716698Y2573998D01*
X3218999Y2790000D02*
G01*
X3241698Y2767301D01*
X3241698Y2753798D01*
X3207997Y2720200D01*
X3219099Y2709000D02*
G01*
X3264600Y2754499D01*
X3267600Y2754499D01*
X3267600Y2754499D01*
X3241400Y2686799D02*
G01*
X3281599Y2726900D01*
X3295399Y2726900D01*
X2684902Y2527100D02*
G01*
X2684902Y2504099D01*
X2717001Y2471999D01*
X2734870Y2471999D01*
X2519129Y2571999D02*
G01*
X2494799Y2571999D01*
X2444600Y2521799D01*
X2444600Y2423501D01*
X2716796Y2151271D01*
X3363900Y2564299D02*
G01*
X3392799Y2593200D01*
X3403699Y2593200D01*
X3467899Y2529000D01*
X3467899Y2489400D01*
X3277600Y2196999D02*
G01*
X3327799Y2247199D01*
X3327799Y2276999D01*
X3611499Y2786999D02*
G01*
X3641300Y2786999D01*
X3344899Y2340900D02*
G01*
X3308199Y2377600D01*
X3344899Y2340900D02*
G01*
X3330299Y2326300D01*
X3314899Y2326300D01*
X3357600Y2276999D02*
G01*
X3336700Y2276999D01*
X3336700Y2276999D02*
G01*
X3327799Y2276999D01*
X3305799Y2307899D02*
G01*
X3336700Y2276999D01*
X3314899Y2326300D02*
G01*
X3314899Y2316999D01*
X3305799Y2307899D01*
X3305799Y2307899D02*
G01*
X3301999Y2304099D01*
X3292600Y2304099D01*
X3263699Y2333000D01*
X3314899Y2326300D02*
G01*
X3285900Y2355300D01*
X3344899Y2340900D02*
G01*
X3355200Y2340900D01*
X3385699Y2371399D01*
X3387200Y2371399D01*
X3507200Y2491399D01*
X3594899Y2491399D01*
X3603100Y2483200D01*
X3606899Y2483200D01*
X3612200Y2477899D01*
X3613999Y2477899D01*
X3661899Y2430000D01*
X3731899Y2430000D01*
X3762399Y2460500D01*
X3762399Y2699299D01*
X3706499Y2755200D01*
X3643299Y2755200D01*
X3641300Y2757199D01*
X3641300Y2786999D01*
X2818400Y2636999D02*
G01*
X2848199Y2636999D01*
X3241400Y2310799D02*
G01*
X3241400Y2325999D01*
X3252500Y2325999D02*
G01*
X3241400Y2325999D01*
X3263699Y2333000D02*
G01*
X3259600Y2333000D01*
X3252500Y2325999D01*
X3252500Y2325999D02*
G01*
X3252500Y2321900D01*
X3176400Y2329600D02*
G01*
X3187100Y2340300D01*
X3227100Y2340300D01*
X3241400Y2325999D01*
X2869799Y2624299D02*
G01*
X2857100Y2636999D01*
X2848199Y2636999D01*
X2954499Y2619899D02*
G01*
X2921499Y2652899D01*
X2898500Y2652899D01*
X2869799Y2624299D01*
X2876499Y2541999D02*
G01*
X2887700Y2553099D01*
X2887700Y2553099D02*
G01*
X2898800Y2564299D01*
X2898800Y2564299D02*
G01*
X2909899Y2575399D01*
X3163500Y2764699D02*
G01*
X3174600Y2753600D01*
X3174600Y2753600D01*
X3174600Y2753600D02*
G01*
X3174600Y2752500D01*
X3164499Y2742500D01*
X3175100Y2742500D02*
G01*
X3185699Y2742500D01*
X3206899Y2742500D02*
G01*
X3196899Y2732399D01*
X3196899Y2731300D01*
X3185699Y2742500D02*
G01*
X3206899Y2742500D01*
X3508400Y2356999D02*
G01*
X3508400Y2388699D01*
X2797799Y2716999D02*
G01*
X2749499Y2668699D01*
X2747600Y2668699D01*
X2827600Y2716999D02*
G01*
X2797799Y2716999D01*
X2747600Y2636999D02*
G01*
X2747600Y2668699D01*
X3508400Y2388699D02*
G01*
X3533000Y2413299D01*
X3533000Y2461599D01*
X3491899Y1742800D02*
G01*
X3458199Y1742800D01*
X3164499Y2016999D02*
G01*
X3194300Y2016999D01*
X2519129Y2421999D02*
G01*
X2584129Y2356999D01*
X2757597Y2356999D01*
X3447899Y2621900D02*
G01*
X3447899Y2612500D01*
X3168400Y2106999D02*
G01*
X3168400Y2091100D01*
X3168400Y2091100D02*
G01*
X3227700Y2091100D01*
X3318699Y2182100D01*
X3318699Y2196999D01*
X3348400Y2196999D02*
G01*
X3318699Y2196999D01*
X3377500Y2791500D02*
G01*
X3384499Y2784600D01*
X3384499Y2779099D01*
X3384499Y2779099D02*
G01*
X3384499Y2695500D01*
X3394300Y2685700D01*
X3548400Y2674299D02*
G01*
X3486700Y2612500D01*
X3447899Y2612500D01*
X3710000Y2680000D02*
G01*
X3704300Y2674299D01*
X3548400Y2674299D01*
X3548400Y2674299D02*
G01*
X3443599Y2779099D01*
X3384499Y2779099D01*
X3348400Y2196999D02*
G01*
X3378199Y2196999D01*
X2772500Y2356999D02*
G01*
X2807500Y2321999D01*
X2855399Y2321999D01*
X2871300Y2305999D01*
X2871300Y2213499D01*
X2887799Y2196999D01*
X2988400Y2796999D02*
G01*
X2958699Y2796999D01*
X3413599Y2276999D02*
G01*
X3398699Y2276999D01*
X3413599Y2276999D02*
G01*
X3428400Y2276999D01*
X3458199Y2276999D02*
G01*
X3478699Y2297399D01*
X3478699Y2356999D01*
X3428400Y2276999D02*
G01*
X3458199Y2276999D01*
X3508400Y2356999D02*
G01*
X3478699Y2356999D01*
X3191199Y2896999D02*
G01*
X3193800Y2899600D01*
X3284099Y2899600D01*
X3318100Y2865700D01*
X3318100Y2851999D01*
X2902700Y2196999D02*
G01*
X2904499Y2196999D01*
X2902700Y2196999D02*
G01*
X2887799Y2196999D01*
X2917600Y2196999D02*
G01*
X2904499Y2196999D01*
X3176300Y2896999D02*
G01*
X3191199Y2896999D01*
X3176300Y2896999D02*
G01*
X3161400Y2896999D01*
X3161400Y2896999D02*
G01*
X3131700Y2896999D01*
X3318100Y2851999D02*
G01*
X3377500Y2792600D01*
X3377500Y2791500D01*
X2904499Y2196999D02*
G01*
X3027799Y2073600D01*
X3051800Y2073600D01*
X3051800Y2073600D02*
G01*
X3150900Y2073600D01*
X3168400Y2091100D01*
X3194300Y1959400D02*
G01*
X3194300Y2016999D01*
X3458199Y1742800D02*
G01*
X3241599Y1959400D01*
X3194300Y1959400D01*
X3194300Y1959400D02*
G01*
X3187799Y1953000D01*
X3101899Y1953000D01*
X3051800Y2003099D01*
X3051800Y2073600D01*
X2887799Y2762899D02*
G01*
X2940799Y2762899D01*
X2958699Y2780799D01*
X2958699Y2796999D01*
X2887799Y2762899D02*
G01*
X2841800Y2716999D01*
X2827600Y2716999D01*
X3163500Y2764699D02*
G01*
X3163500Y2782899D01*
X3232600Y2851999D01*
X3318100Y2851999D01*
X3533000Y2461599D02*
G01*
X3564799Y2461599D01*
X3564799Y2461599D02*
G01*
X3570500Y2455799D01*
X3604799Y2455799D01*
X2933400Y2498800D02*
G01*
X2910900Y2498800D01*
X2910900Y2498800D02*
G01*
X2910900Y2507600D01*
X2876499Y2541999D01*
X3131400Y2498800D02*
G01*
X3032399Y2498800D01*
X3032399Y2498800D02*
G01*
X2933400Y2498800D01*
X3032399Y2498800D02*
G01*
X2970799Y2560399D01*
X2970799Y2568299D01*
X2970799Y2568299D02*
G01*
X2961599Y2568299D01*
X2932200Y2597700D01*
X2757600Y2356999D02*
G01*
X2772500Y2356999D01*
X2876599Y2455500D02*
G01*
X2910900Y2489899D01*
X2910900Y2498800D01*
X3175100Y2742500D02*
G01*
X3166700Y2742500D01*
X3166700Y2742500D02*
G01*
X3164499Y2742500D01*
X3021300Y2686799D02*
G01*
X3050799Y2657300D01*
X3050799Y2657300D02*
G01*
X3050799Y2648299D01*
X2970799Y2568299D01*
X3378199Y2196999D02*
G01*
X3378199Y2216700D01*
X3398699Y2237100D01*
X3398699Y2276999D01*
X3131700Y2896999D02*
G01*
X3131700Y2881399D01*
X3103900Y2853600D01*
X2912299Y2853600D01*
X2887799Y2829099D01*
X2887799Y2762899D01*
X3164499Y2016999D02*
G01*
X3194300Y2016999D01*
D11*
X3563999Y2150999D02*
G01*
X3681000Y2150999D01*
X3710000Y2180000D01*
X3041000Y3276999D02*
G01*
X3041000Y3285999D01*
X3016000Y3310999D01*
X2983999Y3310999D01*
X2946999Y3348000D01*
X2913999Y3348000D01*
X2858400Y3292399D01*
X2858400Y3276050D01*
D12*
G01*
X2734870Y2421999D03*
G01*
X2734870Y2471999D03*
G01*
X2734870Y2521999D03*
G01*
X2734870Y2571999D03*
G01*
X2519129Y2421999D03*
G01*
X2519129Y2471999D03*
G01*
X2519129Y2521999D03*
G01*
X2519129Y2571999D03*
D13*
G01*
X2783599Y3276050D03*
G01*
X2858400Y3276050D03*
G01*
X2858400Y3157939D03*
G01*
X2821000Y3157939D03*
G01*
X2783599Y3157939D03*
D14*
G01*
X2785569Y3056999D03*
G01*
X2856440Y3056999D03*
D13*
G01*
X3223599Y3276050D03*
G01*
X3298400Y3276050D03*
G01*
X3298400Y3157939D03*
G01*
X3261000Y3157939D03*
G01*
X3223599Y3157939D03*
D15*
G01*
X3371000Y3054439D03*
G01*
X3371000Y2983569D03*
D14*
G01*
X3009499Y3356999D03*
G01*
X3072489Y3356999D03*
G01*
X3277569Y2196999D03*
G01*
X3348440Y2196999D03*
G01*
X3357569Y2276999D03*
G01*
X3428440Y2276999D03*
D13*
G01*
X3003599Y3276050D03*
G01*
X3078400Y3276050D03*
G01*
X3078400Y3157939D03*
G01*
X3041000Y3157939D03*
G01*
X3003599Y3157939D03*
D14*
G01*
X3101499Y2016999D03*
G01*
X3164489Y2016999D03*
G01*
X3674499Y2786999D03*
G01*
X3611509Y2786999D03*
D16*
G01*
X3534939Y3033809D03*
G01*
X3534939Y3059409D03*
G01*
X3534939Y3085000D03*
G01*
X3534939Y3110590D03*
G01*
X3534939Y3136179D03*
D17*
G01*
X3715060Y3289720D03*
G01*
X3715060Y2880270D03*
G01*
X3549700Y2880270D03*
G01*
X3549700Y3289720D03*
D18*
G01*
X3498054Y2672054D03*
D19*
G01*
X3447941Y2621941D03*
D18*
G01*
X3318054Y2852054D03*
D19*
G01*
X3267941Y2801941D03*
D15*
G01*
X2931000Y3238499D03*
G01*
X2931000Y3175509D03*
G01*
X3151000Y3238499D03*
G01*
X3151000Y3175509D03*
G01*
X3151000Y2985500D03*
G01*
X3151000Y3048490D03*
D14*
G01*
X2904499Y2276999D03*
G01*
X2841509Y2276999D03*
G01*
X2757569Y2356999D03*
G01*
X2828440Y2356999D03*
G01*
X3225569Y3436999D03*
G01*
X3296440Y3436999D03*
G01*
X3225569Y3356999D03*
G01*
X3296440Y3356999D03*
G01*
X2785569Y2976999D03*
G01*
X2856440Y2976999D03*
G01*
X3005569Y2976999D03*
G01*
X3076440Y2976999D03*
G01*
X3225569Y2976999D03*
G01*
X3296440Y2976999D03*
D20*
G01*
X3491890Y1742829D03*
G01*
X3728109Y1742829D03*
G01*
X3491890Y1597159D03*
G01*
X3728109Y1597159D03*
D14*
G01*
X2852500Y3356999D03*
G01*
X2789510Y3356999D03*
G01*
X2917569Y2196999D03*
G01*
X2988440Y2196999D03*
D15*
G01*
X3533000Y2461570D03*
G01*
X3533000Y2532440D03*
D14*
G01*
X2917569Y2796999D03*
G01*
X2988440Y2796999D03*
G01*
X2747569Y2636999D03*
G01*
X2818440Y2636999D03*
G01*
X2827569Y2716999D03*
G01*
X2898440Y2716999D03*
G01*
X3437569Y2356999D03*
G01*
X3508440Y2356999D03*
G01*
X3097569Y2106999D03*
G01*
X3168440Y2106999D03*
G01*
X3161430Y2896999D03*
G01*
X3090559Y2896999D03*
G01*
X3005569Y3056999D03*
G01*
X3076440Y3056999D03*
G01*
X3225569Y3056999D03*
G01*
X3296440Y3056999D03*
D15*
G01*
X2931000Y2985500D03*
G01*
X2931000Y3048490D03*
D21*
G01*
X3332995Y2746999D03*
D22*
G01*
X3438792Y2730297D03*
G01*
X3394244Y2685749D03*
D23*
G01*
X3377542Y2791547D03*
D24*
G01*
X2865408Y2466687D03*
D25*
G01*
X2876545Y2455550D03*
D26*
G01*
X2887682Y2444413D03*
D25*
G01*
X2898819Y2433277D03*
D26*
G01*
X2909956Y2422140D03*
D25*
G01*
X2921093Y2411002D03*
D24*
G01*
X2932229Y2399866D03*
D27*
G01*
X2943366Y2388729D03*
D28*
G01*
X2954504Y2377592D03*
D27*
G01*
X2965641Y2366455D03*
D28*
G01*
X2976777Y2355318D03*
D29*
G01*
X2987914Y2344181D03*
D24*
G01*
X2999051Y2333044D03*
D26*
G01*
X3010153Y2321942D03*
D25*
G01*
X3021290Y2310806D03*
D24*
G01*
X3032426Y2299669D03*
D27*
G01*
X3043564Y2288532D03*
D28*
G01*
X3054701Y2277395D03*
D27*
G01*
X3065837Y2266258D03*
D28*
G01*
X3076975Y2255121D03*
D27*
G01*
X3088112Y2243984D03*
D24*
G01*
X3099248Y2232847D03*
D30*
G01*
X3163454Y2232847D03*
D31*
G01*
X3174555Y2243949D03*
D32*
G01*
X3185692Y2255085D03*
D31*
G01*
X3196829Y2266223D03*
D32*
G01*
X3207966Y2277360D03*
D31*
G01*
X3219103Y2288497D03*
D33*
G01*
X3230240Y2299633D03*
D34*
G01*
X3241377Y2310770D03*
D35*
G01*
X3252514Y2321907D03*
D30*
G01*
X3263651Y2333044D03*
D35*
G01*
X3274787Y2344181D03*
D30*
G01*
X3285925Y2355318D03*
D35*
G01*
X3297062Y2366455D03*
D34*
G01*
X3308198Y2377592D03*
D33*
G01*
X3319335Y2388729D03*
D34*
G01*
X3330472Y2399865D03*
D32*
G01*
X3341609Y2411002D03*
D31*
G01*
X3352746Y2422140D03*
D32*
G01*
X3363883Y2433277D03*
D31*
G01*
X3375020Y2444413D03*
D32*
G01*
X3386157Y2455550D03*
D34*
G01*
X3397294Y2466687D03*
D26*
G01*
X3397294Y2530892D03*
D25*
G01*
X3386157Y2542029D03*
D26*
G01*
X3375020Y2553167D03*
D25*
G01*
X3363883Y2564303D03*
D24*
G01*
X3352746Y2575440D03*
D29*
G01*
X3341609Y2586577D03*
D24*
G01*
X3330472Y2597714D03*
D29*
G01*
X3319335Y2608851D03*
D24*
G01*
X3308198Y2619988D03*
D26*
G01*
X3297097Y2631090D03*
D25*
G01*
X3285960Y2642227D03*
D26*
G01*
X3274823Y2653363D03*
D25*
G01*
X3263686Y2664501D03*
D24*
G01*
X3252549Y2675637D03*
D29*
G01*
X3241412Y2686774D03*
D24*
G01*
X3230275Y2697911D03*
D29*
G01*
X3219138Y2709048D03*
D24*
G01*
X3208001Y2720185D03*
D27*
G01*
X3196864Y2731322D03*
D28*
G01*
X3185727Y2742459D03*
D27*
G01*
X3174591Y2753596D03*
D28*
G01*
X3163454Y2764733D03*
D34*
G01*
X3099248Y2764733D03*
D35*
G01*
X3088112Y2753596D03*
D30*
G01*
X3076975Y2742459D03*
D35*
G01*
X3065837Y2731322D03*
D30*
G01*
X3054701Y2720185D03*
D35*
G01*
X3043564Y2709048D03*
D30*
G01*
X3032426Y2697911D03*
D33*
G01*
X3021290Y2686774D03*
D31*
G01*
X3010153Y2675638D03*
D32*
G01*
X2999016Y2664500D03*
D31*
G01*
X2987879Y2653363D03*
D32*
G01*
X2976742Y2642227D03*
D31*
G01*
X2965605Y2631090D03*
D32*
G01*
X2954468Y2619952D03*
D34*
G01*
X2943331Y2608816D03*
D33*
G01*
X2932194Y2597679D03*
D30*
G01*
X2921057Y2586542D03*
D35*
G01*
X2909920Y2575405D03*
D30*
G01*
X2898784Y2564268D03*
D35*
G01*
X2887647Y2553131D03*
D30*
G01*
X2876509Y2541994D03*
D31*
G01*
X2865408Y2530892D03*
D36*
G01*
X3131351Y2498789D03*
D37*
G01*
X3710000Y1980000D03*
D38*
G01*
X3710000Y2080000D03*
G01*
X3710000Y2180000D03*
G01*
X3710000Y2280000D03*
G01*
X3710000Y2380000D03*
G01*
X3710000Y2480000D03*
G01*
X3710000Y2580000D03*
G01*
X3710000Y2680000D03*
D39*
G01*
X3630000Y2251999D03*
G01*
X3201000Y2646999D03*
G01*
X3311000Y2463000D03*
G01*
X3163000Y2940000D03*
G01*
X3261999Y2929000D03*
G01*
X2918000Y2911999D03*
G01*
X3551000Y2786999D03*
G01*
X2623000Y2424000D03*
G01*
X2661999Y2570000D03*
G01*
X2971000Y2445999D03*
G01*
X2813999Y2411999D03*
G01*
X2976000Y2750999D03*
G01*
X3081000Y2823000D03*
G01*
X3045000Y2823000D03*
G01*
X3466999Y3085999D03*
G01*
X3466999Y3056999D03*
G01*
X3335000Y3170000D03*
G01*
X3226000Y2920999D03*
G01*
X2931000Y3108000D03*
G01*
X2931000Y3318000D03*
G01*
X3151999Y3110000D03*
G01*
X3151000Y3318000D03*
G01*
X3041000Y3276999D03*
G01*
X3370000Y3275000D03*
G01*
X3370000Y3110000D03*
G01*
X2856999Y2915999D03*
G01*
X3373999Y2325000D03*
G01*
X3273999Y2429000D03*
G01*
X2953000Y2828899D03*
G01*
X3131999Y2185999D03*
G01*
X3528000Y2206999D03*
G01*
X3078000Y2660000D03*
G01*
X3243800Y2393899D03*
G01*
X3401800Y2209000D03*
G01*
X3163000Y2814000D03*
G01*
X3218999Y2790000D03*
G01*
X3267600Y2754499D03*
G01*
X3295399Y2726900D03*
G01*
X2684899Y2527100D03*
G01*
X3467899Y2489400D03*
G01*
X2869799Y2624299D03*
G01*
X3176400Y2329600D03*
G01*
X3604799Y2455799D03*
G01*
X2716800Y2151269D03*
G01*
X3563999Y2150999D03*
M02*
