%
T1C.015F095S3
X0058Y00355
X0058Y00395
X00175Y00475
X00435Y0073
X0044Y0078
X00485Y0114
X0055Y01165
X00485Y01185
X0053Y01195
X00425Y01245
X00565Y01245
X00515Y01245
X0047Y01245
X0058Y01325
X0043Y0146
X00415Y01495
X00515Y01505
X00295Y0162
X0039Y01635
X00545Y0166
X00295Y01675
X0039Y01675
X00525Y01695
X00505Y0174
X00505Y0178
X00555Y01795
X00555Y01835
X0031Y0186
X00475Y0195
X0052Y0195
X00685Y01935
X008Y0191
X00785Y0163
X00685Y01575
X0063Y0146
X00815Y0132
X00775Y0132
X00605Y01165
X0083Y0113
X0079Y01105
X00735Y01105
X00625Y00895
X0068Y00835
X0072Y00835
X0082Y00775
X0078Y00775
X00695Y00675
X0074Y0066
X0075Y0062
X0066Y0061
X0082Y00585
X0072Y00455
X0068Y00455
X00665Y0031
X00705Y0031
X0066Y0015
X0098Y00135
X00975Y0028
X00975Y0032
X00975Y00365
X0096Y00405
X0108Y00465
X01035Y0047
X0105Y00625
X01Y00625
X009875Y0089
X009275Y0113
X00875Y0113
X0099Y011325
X0106Y01135
X01025Y012
X00845Y0123
X00845Y0127
X00965Y01275
X00965Y01315
X00965Y01355
X00835Y0146
X00865Y01655
X00845Y017
X01285Y01355
X01285Y01315
X01285Y01275
X01105Y01135
X01115Y01005
X0122Y00965
X01175Y0096
X01185Y00825
X01175Y00725
X01175Y0054
X0113Y0054
X01125Y0049
X01225Y0036
X0123Y003
X0123Y002
X01555Y00175
X01555Y00225
X01555Y00275
X0156Y0054
X01515Y0054
X01515Y00625
X01515Y00675
X01555Y0071
X01515Y00725
X01515Y00775
X01515Y00825
X0154Y00875
X01515Y00925
X01505Y00975
X01515Y01045
X01475Y01065
X0145Y0112
X0145Y0117
X0138Y0144
X0142Y0144
X0148Y0152
X0153Y0152
X01385Y01565
X01385Y01605
X01405Y0166
X01775Y0211
X01825Y0211
X0164Y0205
X0164Y02
X0164Y0195
X0164Y019
X0181Y0174
X0167Y0166
X01615Y0155
X0181Y01435
X01765Y01425
X01685Y0139
X01685Y0134
X01815Y013175
X01815Y0112
X0168Y01115
X0166Y01055
X018Y01035
X01675Y00985
X018Y00985
X01685Y00945
X0166Y00905
X01805Y00895
X01825Y0073
X0175Y0073
X0162Y0071
X01785Y007
X01585Y00645
X01825Y0058
X01775Y0058
X01675Y0055
X0183Y0054
X0166Y0046
X017Y0046
X01745Y00335
X01615Y0028
X01615Y0024
X01615Y0018
X01615Y0014
X0206Y00115
X02025Y0017
X0202Y0021
X01965Y00255
X02075Y0048
X01965Y00605
X019Y00605
X0205Y00635
X02005Y00635
X01935Y00635
X01865Y00635
X01955Y00725
X0185Y0085
X01935Y00855
X0196Y00895
X019025Y0098
X01985Y01015
X01985Y01095
X01865Y01095
X01865Y01145
X0201Y01145
X0193Y012
X0206Y01245
X01955Y0132
X0191Y0132
X0204Y013375
X0204Y013825
X01875Y01565
X0192Y01565
X0197Y01715
X01895Y0174
X0205Y01755
X02005Y01995
X01875Y0211
X01925Y0211
X0225Y0146
X0221Y0142
X021Y01295
X02135Y0121
X0209Y0121
X0225Y01105
X0215Y0109
X02195Y0108
X0225Y01005
X0213Y0099
X02135Y00945
X02135Y00885
X022125Y0088
X02255Y0087
X02255Y00815
X02195Y00775
X02125Y0048
X0232Y00385
X0219Y00175
X0216Y00145
X0211Y00115
X02355Y002
X02375Y0023
X02545Y0027
X02545Y0033
X0235Y00505
T2C.01969F095S3
X024299Y003876G85X024161Y003876
X024299Y002124G85X024161Y002124
T3C.02F197S55
X0035Y0025
X00805Y0036
X0035Y00425
X005Y014
X0185Y019
X02125Y00275
T4C.02362F197S55
X025589Y004644G85X025333Y004644
X025589Y001356G85X025333Y001356
T5C.037F197S55
X0015Y0195
X0025Y0195
X0035Y0195
X00875Y01975
X00975Y01975
X01075Y01975
X01275Y01975
X01375Y01975
X01475Y01975
T6C.04F139S55
X0035Y0209
X00575Y0209
X008Y0209
X01075Y0209
X01475Y0209
X02075Y0209
X02425Y0209
T7C.05F107S55
X000802Y007437
X002771Y007437
X000802Y008421
X002771Y008421
X000802Y009406
X002771Y009406
X002771Y01039
X000802Y01039
X002771Y011374
X000802Y011374
X002771Y012358
X000802Y012358
X002771Y013343
X000802Y013343
X002771Y014327
X000802Y014327
M30
