M48
METRIC,LZ,000.000
;FILE_FORMAT=3:3
;TYPE=PLATED
;Layer: PTH_Through_Via
;EasyEDA v6.5.42, 2024-03-17 19:56:20
;22851bfb20aa482085f49a562fa88950,7084cd4cda9a42c7a5f6ba31724bf8e5,10
;Gerber Generator version 0.2
;Holesize 1 = 0.305 mm
T01C0.305
%
G05
G90
T01
X092202Y057201
X081305Y067234
X084099Y062560
X080340Y074676
X082855Y074397
X074117Y073965
X090195Y070790
X066624Y061570
X067615Y065278
X075463Y062128
X071476Y061265
X075590Y069875
X078257Y071704
X077343Y071704
X088062Y078384
X088062Y077648
X084709Y080518
X081940Y074193
X074447Y078943
X074447Y084277
X080061Y078994
X080035Y084277
X077241Y083236
X085598Y083185
X085598Y078994
X072568Y074066
X085700Y059055
X083160Y061697
X075006Y071854
X079553Y055524
X089611Y056058
X078181Y067564
X082393Y060805
X086406Y056109
X080340Y071476
X081763Y070866
X082997Y069964
X083703Y069263
X068196Y064188
X088085Y063231
X072893Y066657
X080681Y059172
X091562Y062377
X069007Y054642
X090526Y054635
M30
