G04 Layer: BottomLayer*
G04 EasyEDA v6.5.42, 2024-03-17 19:56:20*
G04 22851bfb20aa482085f49a562fa88950,7084cd4cda9a42c7a5f6ba31724bf8e5,10*
G04 Gerber Generator version 0.2*
G04 Scale: 100 percent, Rotated: No, Reflected: No *
G04 Dimensions in millimeters *
G04 leading zeros omitted , absolute positions ,4 integer and 5 decimal *
%FSLAX45Y45*%
%MOMM*%

%ADD10C,0.2540*%
%ADD11C,0.2032*%
%ADD12R,1.8796X1.8796*%
%ADD13C,1.8796*%
%ADD14C,0.6096*%

%LPD*%
D10*
X8409940Y6256020D02*
G01*
X9382759Y5283200D01*
X9423400Y5283200D01*
X8130540Y6723379D02*
G01*
X8968740Y5885179D01*
X9055100Y5885179D01*
X9220200Y5720079D01*
D11*
X8370315Y6844284D02*
G01*
X8370315Y6819900D01*
X7220711Y6819900D01*
X6819645Y6418834D01*
D10*
X8299704Y6996429D02*
G01*
X8168893Y6865620D01*
X7099300Y6865620D01*
X6761479Y6527800D01*
X6758940Y6527800D01*
X8003540Y8427720D02*
G01*
X7670800Y8427720D01*
X7584440Y8341360D01*
X7584440Y8321039D01*
X8006079Y7899400D01*
X8285479Y7439660D02*
G01*
X8285479Y7416800D01*
X8229600Y7360920D01*
X8140700Y7360920D01*
X8034020Y7467600D01*
X9019540Y7078979D02*
G01*
X8887459Y7211060D01*
X7973059Y7211060D01*
X7861300Y7099300D01*
X7708900Y7099300D01*
X7411720Y7396479D01*
X8176259Y7086600D02*
G01*
X8077200Y7086600D01*
X7901942Y6911342D01*
X7063742Y6911342D01*
X6662414Y6510020D01*
X6662414Y6156957D01*
D11*
X7955279Y5552439D02*
G01*
X7094222Y5552439D01*
X6568442Y6078220D01*
X6568442Y6497320D01*
X7256523Y7185403D01*
X7500614Y7185403D01*
X9156191Y6237731D02*
G01*
X9156191Y6137910D01*
X9383268Y5910834D01*
X9469881Y5910834D01*
X9547859Y5988812D01*
X9547859Y6682739D01*
X9423400Y6807200D01*
D10*
X7147559Y6126479D02*
G01*
X7459979Y6126479D01*
X7546340Y6212839D01*
X7559042Y6987542D02*
G01*
X7874002Y6987542D01*
X8034020Y7147560D01*
X7825742Y7170420D02*
G01*
X7919714Y7264400D01*
X8544557Y7264400D01*
X8806179Y7526022D01*
X8806179Y7764779D01*
X7734300Y7170420D02*
G01*
X7879085Y7315200D01*
X8249914Y7315200D01*
X8773154Y7838439D01*
X8806179Y7838439D01*
X8194040Y7419339D02*
G01*
X8194040Y7774939D01*
X8470900Y8051800D01*
X7444740Y8427720D02*
G01*
X7444740Y7894320D01*
X7724140Y8323579D02*
G01*
X8554720Y8323579D01*
X8559800Y8318500D01*
X8559800Y8318500D02*
G01*
X8559800Y7899400D01*
X7256779Y7406639D02*
G01*
X7279386Y7406639D01*
X7500620Y7185405D01*
D11*
X8315959Y6169660D02*
G01*
X8569957Y5915662D01*
X8569957Y5905500D01*
X7955279Y5552439D02*
G01*
X7957563Y5554723D01*
X8663942Y5554723D01*
X8696708Y5587745D01*
X8696708Y5778754D01*
X8569957Y5905500D01*
X8961120Y5605779D02*
G01*
X8961120Y5613394D01*
X7818114Y6756400D01*
X8239252Y6080505D02*
G01*
X8640572Y5679439D01*
X8640572Y5610860D01*
X9423400Y6553200D02*
G01*
X8829040Y7147560D01*
X8034020Y7147560D01*
X9423400Y6299200D02*
G01*
X8636000Y7086600D01*
X8176259Y7086600D01*
X9423400Y6045200D02*
G01*
X9423400Y6065012D01*
X8491981Y6996429D01*
X8299704Y6996429D01*
X9423400Y5791200D02*
G01*
X8370315Y6844284D01*
X8370315Y6844284D02*
G01*
X8370315Y6926326D01*
X9423400Y5148834D02*
G01*
X9483343Y5148834D01*
X9557765Y5223255D01*
X9557765Y5586476D01*
X9480041Y5664200D01*
X9375140Y5664200D01*
X8808465Y6230620D01*
X8808465Y6323076D01*
X9423400Y5029200D02*
G01*
X9423400Y5148834D01*
X7289291Y6665721D02*
G01*
X8037829Y5917184D01*
X8068056Y5917184D01*
D10*
X6900672Y5464302D02*
G01*
X9052559Y5463539D01*
D12*
G01*
X9423400Y5029200D03*
D13*
G01*
X9423400Y5283200D03*
G01*
X9423400Y5537200D03*
G01*
X9423400Y5791200D03*
G01*
X9423400Y6045200D03*
G01*
X9423400Y6299200D03*
G01*
X9423400Y6553200D03*
G01*
X9423400Y6807200D03*
D14*
G01*
X9220200Y5720079D03*
G01*
X8130540Y6723379D03*
G01*
X8409940Y6256020D03*
G01*
X8034020Y7467600D03*
G01*
X8285479Y7439660D03*
G01*
X7411720Y7396479D03*
G01*
X9019540Y7078979D03*
G01*
X6662420Y6156960D03*
G01*
X6761479Y6527800D03*
G01*
X7546340Y6212839D03*
G01*
X7147559Y6126479D03*
G01*
X7559040Y6987539D03*
G01*
X7825740Y7170420D03*
G01*
X7734300Y7170420D03*
G01*
X8806179Y7838439D03*
G01*
X8806179Y7764779D03*
G01*
X8470900Y8051800D03*
G01*
X8194040Y7419339D03*
G01*
X7444740Y7894320D03*
G01*
X7444740Y8427720D03*
G01*
X8006079Y7899400D03*
G01*
X8003540Y8427720D03*
G01*
X7724140Y8323579D03*
G01*
X8559800Y8318500D03*
G01*
X8559800Y7899400D03*
G01*
X7256779Y7406639D03*
G01*
X8569959Y5905500D03*
G01*
X8315959Y6169660D03*
G01*
X7500620Y7185405D03*
G01*
X7955279Y5552439D03*
G01*
X8961120Y5605779D03*
G01*
X7818120Y6756400D03*
G01*
X8239252Y6080505D03*
G01*
X8640572Y5610860D03*
G01*
X8034020Y7147560D03*
G01*
X8176259Y7086600D03*
G01*
X8299704Y6996429D03*
G01*
X8370315Y6926326D03*
G01*
X6819645Y6418834D03*
G01*
X8808465Y6323076D03*
G01*
X7289291Y6665721D03*
G01*
X8068056Y5917184D03*
G01*
X9156191Y6237731D03*
G01*
X6900672Y5464225D03*
G01*
X9052559Y5463539D03*
M02*
