G04 Layer: TopLayer*
G04 EasyEDA v6.5.42, 2024-03-17 19:56:20*
G04 22851bfb20aa482085f49a562fa88950,7084cd4cda9a42c7a5f6ba31724bf8e5,10*
G04 Gerber Generator version 0.2*
G04 Scale: 100 percent, Rotated: No, Reflected: No *
G04 Dimensions in millimeters *
G04 leading zeros omitted , absolute positions ,4 integer and 5 decimal *
%FSLAX45Y45*%
%MOMM*%

%AMMACRO1*21,1,$1,$2,0,0,$3*%
%ADD10C,0.2032*%
%ADD11C,0.2540*%
%ADD12O,1.5200122X0.5999988*%
%ADD13R,0.5500X1.0000*%
%ADD14R,1.0000X1.1000*%
%ADD15R,1.1000X1.0000*%
%ADD16R,1.5240X0.4000*%
%ADD17R,1.9000X2.1000*%
%ADD18MACRO1,1X1.1X-134.9990*%
%ADD19MACRO1,1X1.1X-135.0000*%
%ADD20R,1.2000X1.2000*%
%ADD21MACRO1,1.4X1.15X135.0007*%
%ADD22MACRO1,1.4X1.15X135.0000*%
%ADD23MACRO1,1.4X1.15X134.9993*%
%ADD24MACRO1,0.2489X1.905X135.0000*%
%ADD25MACRO1,0.2515X1.905X134.9959*%
%ADD26MACRO1,0.2489X1.905X135.0041*%
%ADD27MACRO1,0.2515X1.905X135.0041*%
%ADD28MACRO1,0.2489X1.905X134.9959*%
%ADD29MACRO1,0.2514X1.905X135.0000*%
%ADD30MACRO1,0.2489X1.905X45.0041*%
%ADD31MACRO1,0.2489X1.905X44.9959*%
%ADD32MACRO1,0.2515X1.905X45.0041*%
%ADD33MACRO1,0.2514X1.905X45.0000*%
%ADD34MACRO1,0.2489X1.905X45.0000*%
%ADD35MACRO1,0.2515X1.905X44.9959*%
%ADD36MACRO1,6.7488X6.7488X45.0002*%
%ADD37R,1.8796X1.8796*%
%ADD38C,1.8796*%
%ADD39C,0.6096*%
%ADD40C,0.0111*%

%LPD*%
D10*
X8731498Y5986779D02*
G01*
X8650218Y5905500D01*
X8569959Y5905500D01*
D11*
X9220200Y5720079D02*
G01*
X9403079Y5537200D01*
X9423400Y5537200D01*
X8204911Y6852691D02*
G01*
X8130540Y6778320D01*
X8130540Y6723379D01*
X8515858Y6541515D02*
G01*
X8409940Y6436360D01*
X8465820Y6380479D01*
X8465820Y6311900D01*
X8409940Y6256020D01*
X8006079Y7899400D02*
G01*
X8003540Y7896860D01*
X8003540Y7743164D01*
X8003540Y8225789D02*
G01*
X8003540Y8427720D01*
X8372957Y7561579D02*
G01*
X8285479Y7474102D01*
X8285479Y7439660D01*
X8034020Y7467600D02*
G01*
X8003540Y7498079D01*
X8003540Y7583170D01*
X8192947Y7764779D02*
G01*
X8100059Y7671892D01*
X8100059Y7428407D01*
X8030032Y7358379D01*
X7444740Y7583170D02*
G01*
X7444740Y7498079D01*
X7546340Y7396479D01*
X7649057Y7396479D01*
X7814157Y7561579D01*
X7411720Y7396479D02*
G01*
X7546340Y7396479D01*
D10*
X9173209Y7078979D02*
G01*
X9019540Y7078979D01*
D11*
X6662414Y6156957D02*
G01*
X6667492Y6151879D01*
X6946569Y6151879D01*
X6761485Y6527800D02*
G01*
X6639565Y6405879D01*
X6398590Y6405879D01*
X7546340Y6212839D02*
G01*
X7819542Y6212839D01*
X7953629Y6346926D01*
X7004227Y5986779D02*
G01*
X7007859Y5986779D01*
X7147559Y6126479D01*
D10*
X7758938Y6909308D02*
G01*
X7673593Y6994652D01*
X7673593Y7176008D01*
X7663941Y7185405D01*
X7500620Y7185405D01*
D11*
X7559040Y6987539D02*
G01*
X7559040Y6926326D01*
X7843774Y6994144D02*
G01*
X7764779Y7071360D01*
X7764779Y7109460D01*
X7825740Y7170420D01*
X7815529Y6965848D02*
G01*
X7711440Y7069937D01*
X7711440Y7147560D01*
X7734300Y7170420D01*
D10*
X8034020Y7147560D02*
G01*
X8034020Y7130293D01*
X7926064Y7022337D01*
D11*
X8978651Y7770873D02*
G01*
X8972557Y7764779D01*
X8806179Y7764779D01*
X8806179Y7838439D02*
G01*
X8976111Y7838439D01*
X8978651Y7835900D01*
X7634147Y7764779D02*
G01*
X7634147Y7922260D01*
X8193024Y7561579D02*
G01*
X8194040Y7419339D01*
X8377936Y8021167D02*
G01*
X8440267Y8021167D01*
X8470900Y8051800D01*
D10*
X7850124Y7358379D02*
G01*
X7850124Y7387844D01*
X8003540Y7541260D01*
X8003540Y7583170D01*
D11*
X7819136Y8021167D02*
G01*
X7819136Y7968995D01*
X7724140Y7874000D01*
X7724140Y7651572D01*
X7634147Y7561579D01*
X7245350Y8526779D02*
G01*
X7245350Y8462010D01*
X7172959Y8389620D01*
X7172959Y8270239D01*
X6896100Y7993379D01*
X6896100Y7495539D01*
X6987540Y7404100D01*
X7254240Y7404100D01*
X7256779Y7406639D01*
X7444740Y7894320D02*
G01*
X7444740Y7743164D01*
X7444740Y8225789D02*
G01*
X7444740Y8427720D01*
X7819136Y8321039D02*
G01*
X7724140Y8323579D01*
X8377936Y8321167D02*
G01*
X8557133Y8321167D01*
X8559800Y8318500D01*
X8562340Y7758277D02*
G01*
X8562340Y7896860D01*
X8559800Y7899400D01*
X8372957Y8526779D02*
G01*
X8372957Y8729979D01*
X8377936Y8321167D02*
G01*
X8372957Y8326145D01*
X8372957Y8526779D01*
X8193024Y8526779D02*
G01*
X8193024Y8482076D01*
X8257540Y8417560D01*
X8257540Y8260079D01*
X8063229Y8065770D01*
X8003540Y8065770D01*
X8187943Y8021065D02*
G01*
X8187943Y8055863D01*
X8377936Y8245855D01*
X8377936Y8321039D01*
X8192947Y8526779D02*
G01*
X8192947Y8729979D01*
X7804124Y8526779D02*
G01*
X8192947Y8526779D01*
X7255256Y7561579D02*
G01*
X7256779Y7406639D01*
X7814157Y7764779D02*
G01*
X7814157Y7561579D01*
X8372957Y7764779D02*
G01*
X8372957Y7561579D01*
X8978747Y7705877D02*
G01*
X8902217Y7705877D01*
X8774607Y7578267D01*
X8562340Y7578267D01*
X8229600Y7919720D02*
G01*
X8432800Y7919720D01*
X8478977Y7965897D01*
X8978747Y7965897D01*
X8192947Y7764779D02*
G01*
X8192947Y7919720D01*
X8003540Y8065795D02*
G01*
X8003540Y8051800D01*
X8135620Y7919720D01*
X8229600Y7919720D01*
X8282940Y7973060D01*
X8282940Y8021167D01*
X7444740Y8065795D02*
G01*
X7444740Y8021320D01*
X7543800Y7922260D01*
X7675879Y7922260D01*
X7724140Y7970520D01*
X7724140Y8021167D01*
X7724140Y8021167D02*
G01*
X7724140Y8067039D01*
X7787640Y8130539D01*
X7938795Y8130539D01*
X8003540Y8065795D01*
X8003540Y8225789D02*
G01*
X8098916Y8321167D01*
X8187943Y8321167D01*
X7629143Y8021167D02*
G01*
X7629143Y8131175D01*
X7819136Y8321167D01*
X7629143Y8321167D02*
G01*
X7540116Y8321167D01*
X7444740Y8225789D01*
X7085355Y8526779D02*
G01*
X7085355Y8576335D01*
X7180579Y8671560D01*
X7499350Y8671560D01*
X7644129Y8526779D01*
X7070343Y8321167D02*
G01*
X7070343Y8511768D01*
X7085355Y8526779D01*
X7070343Y8021167D02*
G01*
X7070343Y8058404D01*
X7260336Y8248395D01*
X7260336Y8321167D01*
X7165340Y8021065D02*
G01*
X7165340Y8056879D01*
X7216140Y8107679D01*
X7386320Y8107679D01*
X7428229Y8065770D01*
X7444740Y8065770D01*
X7075424Y7561579D02*
G01*
X7170420Y7655560D01*
X7170420Y7881620D01*
X7260336Y7971536D01*
X7260336Y8021065D01*
X7075424Y7764779D02*
G01*
X7075424Y7895844D01*
X7165340Y7985760D01*
X7165340Y8021065D01*
X7255357Y7561579D02*
G01*
X7255344Y7764779D01*
D10*
X7867904Y5351779D02*
G01*
X7867904Y5432297D01*
X7872222Y5671312D02*
G01*
X7872222Y5436615D01*
X7867904Y5432297D01*
X8315959Y6169660D02*
G01*
X8296658Y6150358D01*
X8296658Y6088634D01*
X8374634Y6010653D01*
X7500620Y7185405D02*
G01*
X7491729Y7185405D01*
X7410704Y7104379D01*
X7872222Y5671312D02*
G01*
X7926070Y5671312D01*
X7926064Y5671312D02*
G01*
X7955279Y5642096D01*
X7955279Y5552439D01*
X9469374Y4056887D02*
G01*
X9383775Y4056887D01*
X7818120Y6756400D02*
G01*
X7860791Y6799071D01*
X7860791Y6864095D01*
X7787134Y6937499D01*
X9033769Y4341111D02*
G01*
X8961120Y4413760D01*
X8961120Y5605779D01*
X9383775Y4056887D02*
G01*
X9099550Y4341113D01*
X9033763Y4341113D01*
X9033763Y4341113D02*
G01*
X8447531Y4341113D01*
X7217409Y5571236D01*
X7217409Y5783579D01*
X8431022Y6626352D02*
G01*
X8505443Y6700773D01*
X8505443Y6937755D01*
X8465820Y6977379D01*
X8465820Y6977379D02*
G01*
X8400541Y7042658D01*
X8400541Y7116826D01*
X8300465Y7116826D02*
G01*
X8400541Y7116826D01*
X8796274Y6786879D02*
G01*
X8885174Y6786879D01*
X8734552Y6934962D02*
G01*
X8796274Y6873239D01*
X8796274Y6786879D01*
X8796274Y6786879D02*
G01*
X8796274Y6786879D01*
X8766556Y6786879D01*
X8659113Y6679437D01*
X8540750Y6679437D01*
X8459470Y6598158D01*
X9333229Y7078979D02*
G01*
X9408922Y7078979D01*
X7877809Y5123179D02*
G01*
X7953502Y5123179D01*
X8317991Y5954268D02*
G01*
X8239252Y6032754D01*
X8239252Y6080505D01*
X8640572Y5610860D02*
G01*
X8664447Y5586984D01*
X9408922Y7078979D02*
G01*
X9595358Y6892544D01*
X9595358Y6041389D01*
X9472168Y5918200D01*
X8995918Y5918200D01*
X8664447Y5586984D01*
X8664447Y5586984D02*
G01*
X8291068Y5213350D01*
X7967979Y5213350D01*
X7953502Y5198871D01*
X7953502Y5123179D01*
X7391400Y6152134D02*
G01*
X7364475Y6152134D01*
X7377429Y5783579D02*
G01*
X7377429Y5864097D01*
X7364475Y6152134D02*
G01*
X7362952Y6152134D01*
X7286497Y6901179D02*
G01*
X7286497Y6863334D01*
X7243572Y6820408D01*
X7129525Y6820408D01*
X7076947Y6768084D01*
X7076947Y6637528D01*
X6972300Y6532879D01*
X6946645Y6532879D01*
X7310881Y5986779D02*
G01*
X7184136Y5986779D01*
X7324343Y6901179D02*
G01*
X7286497Y6901179D01*
X7324343Y6901179D02*
G01*
X7361936Y6901179D01*
X7310881Y5986779D02*
G01*
X7377429Y5920231D01*
X7377429Y5864097D01*
X7872222Y7022337D02*
G01*
X7926070Y7022337D01*
X7850126Y7358379D02*
G01*
X7794246Y7302500D01*
X7673340Y7302500D01*
X7377429Y5783579D02*
G01*
X7453122Y5783579D01*
X7362952Y6152134D02*
G01*
X7362952Y6180581D01*
X7361936Y6901179D02*
G01*
X7437627Y6901179D01*
X7815579Y5727954D02*
G01*
X7668006Y5580379D01*
X7590536Y5580379D01*
X7590536Y5660897D02*
G01*
X7575550Y5660897D01*
X7453122Y5783579D01*
X7590536Y5580379D02*
G01*
X7590536Y5660897D01*
X8973820Y6432295D02*
G01*
X8973820Y6443726D01*
X9423400Y6553200D02*
G01*
X9083293Y6553200D01*
X8973820Y6443726D01*
X8973820Y6443726D02*
G01*
X8866886Y6443726D01*
X8666988Y6643623D01*
X8561324Y6643623D01*
X8487663Y6569963D01*
X7362952Y6152134D02*
G01*
X7310881Y6100063D01*
X7310881Y6100063D02*
G01*
X7310881Y5986779D01*
X6997700Y6410957D02*
G01*
X6946569Y6462087D01*
X6946569Y6532879D01*
X6946569Y6405879D02*
G01*
X7038340Y6405879D01*
X7142223Y6301996D01*
X7142223Y6212080D01*
X7253980Y6100061D01*
X7310884Y6100061D01*
X7702295Y6852665D02*
G01*
X7628890Y6926326D01*
X7462774Y6926326D01*
X7437627Y6901179D01*
X6946645Y6532879D02*
G01*
X6888479Y6532879D01*
X6888479Y6812279D01*
X7378700Y7302500D01*
X7673340Y7302500D01*
X6946569Y6532879D02*
G01*
X6905492Y6532879D01*
X6900415Y6537957D01*
X6398590Y6278879D02*
G01*
X6600187Y6278879D01*
X6859264Y6537957D01*
X6900415Y6537957D01*
X8176259Y7086600D02*
G01*
X8233915Y7028944D01*
X8233915Y6994649D01*
X8148314Y6909308D01*
X8176513Y6880860D02*
G01*
X8292084Y6996429D01*
X8299704Y6996429D01*
X8299704Y6996429D01*
X8233156Y6824471D02*
G01*
X8335263Y6926326D01*
X8370315Y6926326D01*
X6819651Y6418834D02*
G01*
X6819651Y6360411D01*
X6901182Y6278879D01*
X6946569Y6278879D01*
X6398590Y6532879D02*
G01*
X6336791Y6532879D01*
X6209284Y6405369D01*
X6209284Y6155692D01*
X6900664Y5464230D01*
X8544306Y6513321D02*
G01*
X8617711Y6586728D01*
X8645397Y6586728D01*
X8808465Y6423660D01*
X8808465Y6323076D01*
X8325104Y5580379D02*
G01*
X8452611Y5707887D01*
X8452611Y5783579D01*
X9173209Y7078979D02*
G01*
X9248902Y7078979D01*
X8496045Y5945886D02*
G01*
X8402827Y6039104D01*
X8496045Y5945886D02*
G01*
X8458961Y5908802D01*
X8419845Y5908802D01*
X8528304Y5783579D02*
G01*
X8475218Y5783579D01*
X8475218Y5783579D02*
G01*
X8452611Y5783579D01*
X8396731Y5862065D02*
G01*
X8475218Y5783579D01*
X8419845Y5908802D02*
G01*
X8419845Y5885179D01*
X8396731Y5862065D01*
X8396731Y5862065D02*
G01*
X8387079Y5852413D01*
X8363204Y5852413D01*
X8289797Y5925820D01*
X8419845Y5908802D02*
G01*
X8346186Y5982462D01*
X8496045Y5945886D02*
G01*
X8522208Y5945886D01*
X8599677Y6023355D01*
X8603488Y6023355D01*
X8908288Y6328155D01*
X9131045Y6328155D01*
X9151874Y6307328D01*
X9161525Y6307328D01*
X9174988Y6293865D01*
X9179559Y6293865D01*
X9301225Y6172200D01*
X9479025Y6172200D01*
X9556495Y6249670D01*
X9556495Y6856221D01*
X9414509Y6998208D01*
X9253981Y6998208D01*
X9248902Y7003287D01*
X9248902Y7078979D01*
X7158736Y6697979D02*
G01*
X7234427Y6697979D01*
X8233156Y5869431D02*
G01*
X8233156Y5908039D01*
X8261350Y5908039D02*
G01*
X8233156Y5908039D01*
X8289797Y5925820D02*
G01*
X8279384Y5925820D01*
X8261350Y5908039D01*
X8261350Y5908039D02*
G01*
X8261350Y5897626D01*
X8068056Y5917184D02*
G01*
X8095234Y5944362D01*
X8196834Y5944362D01*
X8233156Y5908039D01*
X7289291Y6665721D02*
G01*
X7257034Y6697979D01*
X7234427Y6697979D01*
X7504429Y6654545D02*
G01*
X7420609Y6738365D01*
X7362190Y6738365D01*
X7289291Y6665721D01*
X7306309Y6456679D02*
G01*
X7334758Y6484873D01*
X7334758Y6484873D02*
G01*
X7362952Y6513321D01*
X7362952Y6513321D02*
G01*
X7391145Y6541515D01*
X8035290Y7022337D02*
G01*
X8063484Y6994144D01*
X8063484Y6994144D01*
X8063484Y6994144D02*
G01*
X8063484Y6991350D01*
X8037829Y6965950D01*
X8064754Y6965950D02*
G01*
X8091677Y6965950D01*
X8145525Y6965950D02*
G01*
X8120125Y6940295D01*
X8120125Y6937502D01*
X8091677Y6965950D02*
G01*
X8145525Y6965950D01*
X8911336Y5986779D02*
G01*
X8911336Y6067297D01*
X7106411Y6901179D02*
G01*
X6983729Y6778497D01*
X6978904Y6778497D01*
X7182104Y6901179D02*
G01*
X7106411Y6901179D01*
X6978904Y6697979D02*
G01*
X6978904Y6778497D01*
X8911336Y6067297D02*
G01*
X8973820Y6129781D01*
X8973820Y6252463D01*
X8869425Y4426712D02*
G01*
X8783827Y4426712D01*
X8037829Y5123179D02*
G01*
X8113522Y5123179D01*
X6398590Y6151879D02*
G01*
X6563690Y5986779D01*
X7004298Y5986779D01*
X8757665Y6659626D02*
G01*
X8757665Y6635750D01*
X8047736Y5351779D02*
G01*
X8047736Y5311394D01*
X8047736Y5311394D02*
G01*
X8198358Y5311394D01*
X8429497Y5542534D01*
X8429497Y5580379D01*
X8504936Y5580379D02*
G01*
X8429497Y5580379D01*
X8578850Y7090410D02*
G01*
X8596629Y7072884D01*
X8596629Y7058913D01*
X8596629Y7058913D02*
G01*
X8596629Y6846570D01*
X8621522Y6821678D01*
X9012936Y6792721D02*
G01*
X8856218Y6635750D01*
X8757665Y6635750D01*
X9423400Y6807200D02*
G01*
X9408922Y6792721D01*
X9012936Y6792721D01*
X9012936Y6792721D02*
G01*
X8746743Y7058913D01*
X8596629Y7058913D01*
X8504936Y5580379D02*
G01*
X8580627Y5580379D01*
X7042150Y5986779D02*
G01*
X7131050Y5897879D01*
X7252715Y5897879D01*
X7293102Y5857239D01*
X7293102Y5622289D01*
X7335011Y5580379D01*
X7590536Y7104379D02*
G01*
X7515097Y7104379D01*
X8670543Y5783579D02*
G01*
X8632697Y5783579D01*
X8670543Y5783579D02*
G01*
X8708136Y5783579D01*
X8783827Y5783579D02*
G01*
X8835897Y5835395D01*
X8835897Y5986779D01*
X8708136Y5783579D02*
G01*
X8783827Y5783579D01*
X8911336Y5986779D02*
G01*
X8835897Y5986779D01*
X8105647Y7358379D02*
G01*
X8112252Y7364984D01*
X8341613Y7364984D01*
X8427974Y7278878D01*
X8427974Y7244079D01*
X7372858Y5580379D02*
G01*
X7377429Y5580379D01*
X7372858Y5580379D02*
G01*
X7335011Y5580379D01*
X7410704Y5580379D02*
G01*
X7377429Y5580379D01*
X8067802Y7358379D02*
G01*
X8105647Y7358379D01*
X8067802Y7358379D02*
G01*
X8029956Y7358379D01*
X8029956Y7358379D02*
G01*
X7954518Y7358379D01*
X8427974Y7244079D02*
G01*
X8578850Y7093204D01*
X8578850Y7090410D01*
X7377429Y5580379D02*
G01*
X7690611Y5266944D01*
X7751572Y5266944D01*
X7751572Y5266944D02*
G01*
X8003286Y5266944D01*
X8047736Y5311394D01*
X8113522Y4976876D02*
G01*
X8113522Y5123179D01*
X8783827Y4426712D02*
G01*
X8233663Y4976876D01*
X8113522Y4976876D01*
X8113522Y4976876D02*
G01*
X8097011Y4960620D01*
X7878825Y4960620D01*
X7751572Y5087873D01*
X7751572Y5266944D01*
X7335011Y7017765D02*
G01*
X7469631Y7017765D01*
X7515097Y7063231D01*
X7515097Y7104379D01*
X7335011Y7017765D02*
G01*
X7218172Y6901179D01*
X7182104Y6901179D01*
X8035290Y7022337D02*
G01*
X8035290Y7068565D01*
X8210804Y7244079D01*
X8427974Y7244079D01*
X8973820Y6252463D02*
G01*
X9054591Y6252463D01*
X9054591Y6252463D02*
G01*
X9069070Y6237731D01*
X9156191Y6237731D01*
X7450836Y6346952D02*
G01*
X7393686Y6346952D01*
X7393686Y6346952D02*
G01*
X7393686Y6369304D01*
X7306309Y6456679D01*
X7953756Y6346952D02*
G01*
X7702295Y6346952D01*
X7702295Y6346952D02*
G01*
X7450836Y6346952D01*
X7702295Y6346952D02*
G01*
X7545831Y6503415D01*
X7545831Y6523481D01*
X7545831Y6523481D02*
G01*
X7522463Y6523481D01*
X7447788Y6598158D01*
X7004304Y5986779D02*
G01*
X7042150Y5986779D01*
X7306563Y6236970D02*
G01*
X7393686Y6324345D01*
X7393686Y6346952D01*
X8064754Y6965950D02*
G01*
X8043418Y6965950D01*
X8043418Y6965950D02*
G01*
X8037829Y6965950D01*
X7674102Y6824471D02*
G01*
X7749031Y6749542D01*
X7749031Y6749542D02*
G01*
X7749031Y6726681D01*
X7545831Y6523481D01*
X8580627Y5580379D02*
G01*
X8580627Y5630418D01*
X8632697Y5682234D01*
X8632697Y5783579D01*
X7954518Y7358379D02*
G01*
X7954518Y7318755D01*
X7883906Y7248144D01*
X7397241Y7248144D01*
X7335011Y7185913D01*
X7335011Y7017765D01*
X8037829Y5123179D02*
G01*
X8113522Y5123179D01*
D11*
X9052559Y5463539D02*
G01*
X9349740Y5463539D01*
X9423400Y5537200D01*
X7724140Y8323579D02*
G01*
X7724140Y8346439D01*
X7660640Y8409939D01*
X7579359Y8409939D01*
X7485379Y8503920D01*
X7401559Y8503920D01*
X7260336Y8362695D01*
X7260336Y8321167D01*
D12*
G01*
X6946569Y6151879D03*
G01*
X6946569Y6278879D03*
G01*
X6946569Y6405879D03*
G01*
X6946569Y6532879D03*
G01*
X6398590Y6151879D03*
G01*
X6398590Y6278879D03*
G01*
X6398590Y6405879D03*
G01*
X6398590Y6532879D03*
D13*
G01*
X7070343Y8321167D03*
G01*
X7260336Y8321167D03*
G01*
X7260336Y8021167D03*
G01*
X7165340Y8021167D03*
G01*
X7070343Y8021167D03*
D14*
G01*
X7075347Y7764779D03*
G01*
X7255357Y7764779D03*
D13*
G01*
X8187943Y8321167D03*
G01*
X8377936Y8321167D03*
G01*
X8377936Y8021167D03*
G01*
X8282940Y8021167D03*
G01*
X8187943Y8021167D03*
D15*
G01*
X8562340Y7758277D03*
G01*
X8562340Y7578267D03*
D14*
G01*
X7644129Y8526779D03*
G01*
X7804124Y8526779D03*
G01*
X8325027Y5580379D03*
G01*
X8505037Y5580379D03*
G01*
X8528227Y5783579D03*
G01*
X8708237Y5783579D03*
D13*
G01*
X7629143Y8321167D03*
G01*
X7819136Y8321167D03*
G01*
X7819136Y8021167D03*
G01*
X7724140Y8021167D03*
G01*
X7629143Y8021167D03*
D14*
G01*
X7877809Y5123179D03*
G01*
X8037804Y5123179D03*
G01*
X9333229Y7078979D03*
G01*
X9173235Y7078979D03*
D16*
G01*
X8978747Y7705877D03*
G01*
X8978747Y7770901D03*
G01*
X8978747Y7835900D03*
G01*
X8978747Y7900898D03*
G01*
X8978747Y7965897D03*
D17*
G01*
X9436252Y8355888D03*
G01*
X9436252Y7315885D03*
G01*
X9016238Y7315885D03*
G01*
X9016238Y8355888D03*
D18*
G01*
X8885057Y6787018D03*
D19*
G01*
X8757771Y6659731D03*
D18*
G01*
X8427857Y7244218D03*
D19*
G01*
X8300571Y7116931D03*
D15*
G01*
X7444740Y8225789D03*
G01*
X7444740Y8065795D03*
G01*
X8003540Y8225789D03*
G01*
X8003540Y8065795D03*
G01*
X8003540Y7583170D03*
G01*
X8003540Y7743164D03*
D14*
G01*
X7377429Y5783579D03*
G01*
X7217435Y5783579D03*
G01*
X7004227Y5986779D03*
G01*
X7184237Y5986779D03*
G01*
X8192947Y8729979D03*
G01*
X8372957Y8729979D03*
G01*
X8192947Y8526779D03*
G01*
X8372957Y8526779D03*
G01*
X7075347Y7561579D03*
G01*
X7255357Y7561579D03*
G01*
X7634147Y7561579D03*
G01*
X7814157Y7561579D03*
G01*
X8192947Y7561579D03*
G01*
X8372957Y7561579D03*
D20*
G01*
X8869400Y4426788D03*
G01*
X9469399Y4426788D03*
G01*
X8869400Y4056786D03*
G01*
X9469399Y4056786D03*
D14*
G01*
X7245350Y8526779D03*
G01*
X7085355Y8526779D03*
G01*
X7410627Y5580379D03*
G01*
X7590637Y5580379D03*
D15*
G01*
X8973820Y6252387D03*
G01*
X8973820Y6432397D03*
D14*
G01*
X7410627Y7104379D03*
G01*
X7590637Y7104379D03*
G01*
X6978827Y6697979D03*
G01*
X7158837Y6697979D03*
G01*
X7182027Y6901179D03*
G01*
X7362037Y6901179D03*
G01*
X8731427Y5986779D03*
G01*
X8911437Y5986779D03*
G01*
X7867827Y5351779D03*
G01*
X8047837Y5351779D03*
G01*
X8030032Y7358379D03*
G01*
X7850022Y7358379D03*
G01*
X7634147Y7764779D03*
G01*
X7814157Y7764779D03*
G01*
X8192947Y7764779D03*
G01*
X8372957Y7764779D03*
D15*
G01*
X7444740Y7583170D03*
G01*
X7444740Y7743164D03*
D21*
G01*
X8465807Y6977378D03*
D22*
G01*
X8734532Y6934955D03*
G01*
X8621381Y6821803D03*
D23*
G01*
X8578957Y7090529D03*
D24*
G01*
X7278137Y6265386D03*
D25*
G01*
X7306425Y6237099D03*
D26*
G01*
X7334713Y6208811D03*
D25*
G01*
X7363001Y6180523D03*
D26*
G01*
X7391289Y6152235D03*
D25*
G01*
X7419577Y6123947D03*
D24*
G01*
X7447864Y6095660D03*
D27*
G01*
X7476152Y6067372D03*
D28*
G01*
X7504440Y6039084D03*
D27*
G01*
X7532728Y6010796D03*
D28*
G01*
X7561016Y5982508D03*
D29*
G01*
X7589302Y5954221D03*
D24*
G01*
X7617590Y5925933D03*
D26*
G01*
X7645789Y5897735D03*
D25*
G01*
X7674077Y5869447D03*
D24*
G01*
X7702364Y5841159D03*
D27*
G01*
X7730652Y5812872D03*
D28*
G01*
X7758940Y5784584D03*
D27*
G01*
X7787228Y5756296D03*
D28*
G01*
X7815516Y5728008D03*
D27*
G01*
X7843804Y5699720D03*
D24*
G01*
X7872091Y5671432D03*
D30*
G01*
X8035173Y5671432D03*
D31*
G01*
X8063370Y5699630D03*
D32*
G01*
X8091658Y5727918D03*
D31*
G01*
X8119946Y5756206D03*
D32*
G01*
X8148234Y5784494D03*
D31*
G01*
X8176522Y5812782D03*
D33*
G01*
X8204810Y5841069D03*
D34*
G01*
X8233098Y5869357D03*
D35*
G01*
X8261385Y5897645D03*
D30*
G01*
X8289673Y5925933D03*
D35*
G01*
X8317961Y5954221D03*
D30*
G01*
X8346249Y5982508D03*
D35*
G01*
X8374537Y6010796D03*
D34*
G01*
X8402824Y6039084D03*
D33*
G01*
X8431112Y6067372D03*
D34*
G01*
X8459400Y6095659D03*
D32*
G01*
X8487688Y6123947D03*
D31*
G01*
X8515976Y6152235D03*
D32*
G01*
X8544264Y6180523D03*
D31*
G01*
X8572552Y6208811D03*
D32*
G01*
X8600840Y6237099D03*
D34*
G01*
X8629128Y6265386D03*
D26*
G01*
X8629128Y6428468D03*
D25*
G01*
X8600840Y6456756D03*
D26*
G01*
X8572552Y6485044D03*
D25*
G01*
X8544264Y6513332D03*
D24*
G01*
X8515976Y6541618D03*
D29*
G01*
X8487688Y6569906D03*
D24*
G01*
X8459400Y6598194D03*
D29*
G01*
X8431112Y6626482D03*
D24*
G01*
X8402824Y6654770D03*
D26*
G01*
X8374627Y6682968D03*
D25*
G01*
X8346339Y6711256D03*
D26*
G01*
X8318051Y6739544D03*
D25*
G01*
X8289763Y6767832D03*
D24*
G01*
X8261475Y6796119D03*
D29*
G01*
X8233187Y6824407D03*
D24*
G01*
X8204899Y6852695D03*
D29*
G01*
X8176611Y6880983D03*
D24*
G01*
X8148323Y6909271D03*
D27*
G01*
X8120037Y6937559D03*
D28*
G01*
X8091749Y6965847D03*
D27*
G01*
X8063461Y6994135D03*
D28*
G01*
X8035173Y7022423D03*
D34*
G01*
X7872091Y7022423D03*
D35*
G01*
X7843804Y6994135D03*
D30*
G01*
X7815516Y6965847D03*
D35*
G01*
X7787228Y6937559D03*
D30*
G01*
X7758940Y6909271D03*
D35*
G01*
X7730652Y6880983D03*
D30*
G01*
X7702364Y6852695D03*
D33*
G01*
X7674077Y6824407D03*
D31*
G01*
X7645789Y6796120D03*
D32*
G01*
X7617501Y6767832D03*
D31*
G01*
X7589213Y6739544D03*
D32*
G01*
X7560925Y6711256D03*
D31*
G01*
X7532637Y6682968D03*
D32*
G01*
X7504349Y6654680D03*
D34*
G01*
X7476062Y6626393D03*
D33*
G01*
X7447774Y6598105D03*
D30*
G01*
X7419487Y6569817D03*
D35*
G01*
X7391199Y6541529D03*
D30*
G01*
X7362911Y6513241D03*
D35*
G01*
X7334623Y6484954D03*
D30*
G01*
X7306335Y6456666D03*
D31*
G01*
X7278137Y6428468D03*
D36*
G01*
X7953632Y6346926D03*
D37*
G01*
X9423400Y5029200D03*
D38*
G01*
X9423400Y5283200D03*
G01*
X9423400Y5537200D03*
G01*
X9423400Y5791200D03*
G01*
X9423400Y6045200D03*
G01*
X9423400Y6299200D03*
G01*
X9423400Y6553200D03*
G01*
X9423400Y6807200D03*
D39*
G01*
X9220200Y5720079D03*
G01*
X8130540Y6723379D03*
G01*
X8409940Y6256020D03*
G01*
X8034020Y7467600D03*
G01*
X8285479Y7439660D03*
G01*
X7411720Y7396479D03*
G01*
X9019540Y7078979D03*
G01*
X6662420Y6156960D03*
G01*
X6761479Y6527800D03*
G01*
X7546340Y6212839D03*
G01*
X7147559Y6126479D03*
G01*
X7559040Y6987539D03*
G01*
X7825740Y7170420D03*
G01*
X7734300Y7170420D03*
G01*
X8806179Y7838439D03*
G01*
X8806179Y7764779D03*
G01*
X8470900Y8051800D03*
G01*
X8194040Y7419339D03*
G01*
X7444740Y7894320D03*
G01*
X7444740Y8427720D03*
G01*
X8006079Y7899400D03*
G01*
X8003540Y8427720D03*
G01*
X7724140Y8323579D03*
G01*
X8559800Y8318500D03*
G01*
X8559800Y7899400D03*
G01*
X7256779Y7406639D03*
G01*
X8569959Y5905500D03*
G01*
X8315959Y6169660D03*
G01*
X7500620Y7185405D03*
G01*
X7955279Y5552439D03*
G01*
X8961120Y5605779D03*
G01*
X7818120Y6756400D03*
G01*
X8239252Y6080505D03*
G01*
X8640572Y5610860D03*
G01*
X8034020Y7147560D03*
G01*
X8176259Y7086600D03*
G01*
X8299704Y6996429D03*
G01*
X8370315Y6926326D03*
G01*
X6819645Y6418834D03*
G01*
X8808465Y6323076D03*
G01*
X7289291Y6665721D03*
G01*
X8068056Y5917184D03*
G01*
X9156191Y6237731D03*
G01*
X6900672Y5464225D03*
G01*
X9052559Y5463539D03*
M02*
