G04 Layer: BoardOutlineLayer*
G04 EasyEDA v6.5.42, 2024-03-17 19:56:20*
G04 22851bfb20aa482085f49a562fa88950,7084cd4cda9a42c7a5f6ba31724bf8e5,10*
G04 Gerber Generator version 0.2*
G04 Scale: 100 percent, Rotated: No, Reflected: No *
G04 Dimensions in millimeters *
G04 leading zeros omitted , absolute positions ,4 integer and 5 decimal *
%FSLAX45Y45*%
%MOMM*%

%ADD10C,0.2540*%
D10*
X9652000Y7416800D02*
G01*
X9105900Y7416800D01*
X9105900Y8255000D01*
X9652000Y8255000D01*
X9652000Y8890000D01*
X9652000Y8890000D02*
G01*
X762000Y8890000D01*
X762000Y8890000D02*
G01*
X762000Y3810000D01*
X9652000Y3810000D01*
X9652000Y7416800D01*
G75*
G01*
X9652000Y8770518D02*
G03*
X9525605Y8890221I-127001J-7519D01*
G75*
G01*
X9522917Y3810000D02*
G03*
X9652010Y3935664I2082J127001D01*
G75*
G01*
X887674Y8890000D02*
G03*
X762790Y8748804I1328J-127001D01*
G75*
G01*
X762000Y3935496D02*
G03*
X880486Y3810277I127001J1505D01*
X8928097Y7632692D02*
G01*
X9105897Y7632692D01*
X9105897Y8039092D01*
X8928097Y8039092D01*
X8928097Y7632692D02*
G01*
X8927947Y7454938D01*
X9664547Y7454938D01*
X9664547Y8216938D01*
X8927947Y8216938D01*
X8928097Y8039092D01*
X9664700Y7454900D02*
G01*
X8928100Y7454900D01*
X8928100Y7454900D02*
G01*
X8928100Y7632700D01*
X8928100Y7632700D02*
G01*
X9105900Y7632700D01*
X9105900Y7632700D02*
G01*
X9105900Y8039100D01*
X9105900Y8039100D02*
G01*
X8928100Y8039100D01*
X8928100Y8039100D02*
G01*
X8928100Y8216900D01*
X8928100Y8216900D02*
G01*
X9664700Y8216900D01*
X9664700Y8216900D02*
G01*
X9664700Y7454900D01*
X9664700Y7454900D02*
G01*
X9664700Y7454900D01*

%LPD*%
M02*
