G75*
%MOIN*%
%OFA0B0*%
%FSLAX24Y24*%
%IPPOS*%
%LPD*%
%AMOC8*
5,1,8,0,0,1.08239X$1,22.5*
%
%ADD10C,0.0100*%
%ADD11C,0.0230*%
%ADD12C,0.0070*%
%ADD13C,0.0000*%
%ADD14C,0.0060*%
D10*
X008844Y009700D02*
X034056Y009700D01*
X034095Y009702D01*
X034133Y009708D01*
X034170Y009717D01*
X034207Y009730D01*
X034242Y009747D01*
X034275Y009766D01*
X034306Y009789D01*
X034335Y009815D01*
X034361Y009844D01*
X034384Y009875D01*
X034403Y009908D01*
X034420Y009943D01*
X034433Y009980D01*
X034442Y010017D01*
X034448Y010055D01*
X034450Y010094D01*
X034450Y010700D01*
X035450Y011700D01*
X035450Y024600D01*
X034450Y025600D01*
X034450Y030100D01*
X033850Y030700D01*
X008844Y030700D01*
X008805Y030698D01*
X008767Y030692D01*
X008730Y030683D01*
X008693Y030670D01*
X008658Y030653D01*
X008625Y030634D01*
X008594Y030611D01*
X008565Y030585D01*
X008539Y030556D01*
X008516Y030525D01*
X008497Y030492D01*
X008480Y030457D01*
X008467Y030420D01*
X008458Y030383D01*
X008452Y030345D01*
X008450Y030306D01*
X008450Y010094D01*
X008452Y010055D01*
X008458Y010017D01*
X008467Y009980D01*
X008480Y009943D01*
X008497Y009908D01*
X008516Y009875D01*
X008539Y009844D01*
X008565Y009815D01*
X008594Y009789D01*
X008625Y009766D01*
X008658Y009747D01*
X008693Y009730D01*
X008730Y009717D01*
X008767Y009708D01*
X008805Y009702D01*
X008844Y009700D01*
D11*
X041415Y010834D02*
X042262Y010834D01*
X042686Y011258D01*
X042262Y011682D01*
X041415Y011682D01*
X042051Y011682D02*
X042051Y010834D01*
X042686Y012216D02*
X042686Y013063D01*
X042686Y012639D02*
X041415Y012639D01*
X041415Y013597D02*
X042686Y013597D01*
X042262Y014020D01*
X042686Y014444D01*
X041415Y014444D01*
X041415Y014978D02*
X041415Y015825D01*
X041627Y016359D02*
X041415Y016571D01*
X041415Y016995D01*
X041627Y017206D01*
X042051Y017206D01*
X042051Y016783D01*
X042474Y017206D02*
X042686Y016995D01*
X042686Y016571D01*
X042474Y016359D01*
X041627Y016359D01*
X042686Y015825D02*
X042686Y014978D01*
X041415Y014978D01*
X042051Y014978D02*
X042051Y015402D01*
X042051Y017740D02*
X042051Y018588D01*
X042262Y018588D02*
X041415Y018588D01*
X042262Y018588D02*
X042686Y018164D01*
X042262Y017740D01*
X041415Y017740D01*
X041627Y019121D02*
X041415Y019333D01*
X041415Y019757D01*
X041627Y019969D01*
X041839Y019969D01*
X042051Y019757D01*
X042051Y019545D01*
X042051Y019757D02*
X042262Y019969D01*
X042474Y019969D01*
X042686Y019757D01*
X042686Y019333D01*
X042474Y019121D01*
X042474Y020503D02*
X042686Y020714D01*
X042686Y021138D01*
X042474Y021350D01*
X042262Y021350D01*
X041415Y020503D01*
X041415Y021350D01*
X041627Y021884D02*
X041839Y021884D01*
X042051Y022096D01*
X042051Y022519D01*
X041839Y022731D01*
X041627Y022731D01*
X041415Y022519D01*
X041415Y022096D01*
X041627Y021884D01*
X042051Y022096D02*
X042262Y021884D01*
X042474Y021884D01*
X042686Y022096D01*
X042686Y022519D01*
X042474Y022731D01*
X042262Y022731D01*
X042051Y022519D01*
D12*
X042017Y025485D02*
X042017Y025812D01*
X042017Y025648D02*
X041853Y025812D01*
X041771Y025812D01*
X042205Y025730D02*
X042205Y025648D01*
X042532Y025648D01*
X042532Y025567D02*
X042532Y025730D01*
X042450Y025812D01*
X042287Y025812D01*
X042205Y025730D01*
X042287Y025485D02*
X042450Y025485D01*
X042532Y025567D01*
X042717Y025485D02*
X042962Y025648D01*
X042717Y025812D01*
X042962Y025975D02*
X042962Y025485D01*
X043151Y025485D02*
X043151Y025730D01*
X043232Y025812D01*
X043477Y025812D01*
X043477Y025485D01*
X043658Y025485D02*
X043821Y025485D01*
X043740Y025485D02*
X043740Y025812D01*
X043821Y025812D01*
X044002Y025812D02*
X044165Y025812D01*
X044083Y025894D02*
X044083Y025567D01*
X044002Y025485D01*
X043740Y025975D02*
X043740Y026057D01*
X043739Y026435D02*
X043657Y026517D01*
X043739Y026598D01*
X043902Y026598D01*
X043984Y026680D01*
X043902Y026762D01*
X043657Y026762D01*
X043468Y026762D02*
X043386Y026762D01*
X043386Y026435D01*
X043305Y026435D02*
X043468Y026435D01*
X043739Y026435D02*
X043984Y026435D01*
X044172Y026598D02*
X044499Y026598D01*
X044499Y026517D02*
X044499Y026680D01*
X044418Y026762D01*
X044254Y026762D01*
X044172Y026680D01*
X044172Y026598D01*
X044254Y026435D02*
X044418Y026435D01*
X044499Y026517D01*
X044688Y026435D02*
X044933Y026435D01*
X045015Y026517D01*
X045015Y026680D01*
X044933Y026762D01*
X044688Y026762D01*
X044688Y026925D02*
X044688Y026435D01*
X043386Y026925D02*
X043386Y027007D01*
X043165Y027235D02*
X043002Y027235D01*
X043083Y027235D02*
X043083Y027725D01*
X043002Y027725D02*
X043165Y027725D01*
X042821Y027725D02*
X042494Y027725D01*
X042658Y027725D02*
X042658Y027235D01*
X042306Y027235D02*
X042306Y027562D01*
X042142Y027725D01*
X041979Y027562D01*
X041979Y027235D01*
X041790Y027235D02*
X041463Y027235D01*
X041790Y027235D02*
X041790Y027725D01*
X041979Y027480D02*
X042306Y027480D01*
X042389Y028235D02*
X042307Y028317D01*
X042307Y028644D01*
X042389Y028725D01*
X042634Y028725D01*
X042634Y028235D01*
X042389Y028235D01*
X042118Y028235D02*
X041791Y028235D01*
X041955Y028480D02*
X042118Y028480D01*
X042118Y028725D02*
X042118Y028235D01*
X042118Y028725D02*
X041791Y028725D01*
X041087Y028725D02*
X040923Y028725D01*
X041005Y028725D02*
X041005Y028235D01*
X041087Y028235D02*
X040923Y028235D01*
X040743Y028235D02*
X040743Y028725D01*
X040416Y028235D01*
X040416Y028725D01*
X040947Y027725D02*
X040947Y027644D01*
X041111Y027480D01*
X041111Y027235D01*
X041111Y027480D02*
X041274Y027644D01*
X041274Y027725D01*
X041250Y026925D02*
X041250Y026435D01*
X041496Y026435D01*
X041577Y026517D01*
X041577Y026680D01*
X041496Y026762D01*
X041250Y026762D01*
X041766Y026680D02*
X041766Y026598D01*
X042093Y026598D01*
X042093Y026517D02*
X042093Y026680D01*
X042011Y026762D01*
X041848Y026762D01*
X041766Y026680D01*
X041848Y026435D02*
X042011Y026435D01*
X042093Y026517D01*
X042282Y026435D02*
X042282Y026680D01*
X042363Y026762D01*
X042609Y026762D01*
X042609Y026435D01*
X042797Y026435D02*
X043043Y026435D01*
X043124Y026517D01*
X043124Y026680D01*
X043043Y026762D01*
X042797Y026762D01*
X042797Y026353D01*
X042879Y026272D01*
X042961Y026272D01*
X041071Y025812D02*
X040989Y025812D01*
X040989Y025485D01*
X040908Y025485D02*
X041071Y025485D01*
X040646Y025567D02*
X040646Y025894D01*
X040727Y025812D02*
X040564Y025812D01*
X040646Y025567D02*
X040564Y025485D01*
X040989Y025975D02*
X040989Y026057D01*
X040546Y026435D02*
X040301Y026435D01*
X040219Y026517D01*
X040219Y026680D01*
X040301Y026762D01*
X040546Y026762D01*
X040546Y026925D02*
X040546Y026435D01*
X040030Y026517D02*
X039949Y026435D01*
X039704Y026435D01*
X039704Y026353D02*
X039785Y026272D01*
X039867Y026272D01*
X039704Y026353D02*
X039704Y026762D01*
X040030Y026762D02*
X040030Y026517D01*
X042822Y028235D02*
X042822Y028562D01*
X042986Y028725D01*
X043149Y028562D01*
X043149Y028235D01*
X043338Y028235D02*
X043338Y028725D01*
X043502Y028562D01*
X043665Y028725D01*
X043665Y028235D01*
X043149Y028480D02*
X042822Y028480D01*
X033915Y027975D02*
X033915Y027485D01*
X033588Y027485D02*
X033588Y027975D01*
X033752Y027812D01*
X033915Y027975D01*
X033399Y027812D02*
X033399Y027485D01*
X033399Y027730D02*
X033072Y027730D01*
X033072Y027812D02*
X033072Y027485D01*
X032884Y027485D02*
X032884Y027975D01*
X032639Y027975D01*
X032557Y027894D01*
X032557Y027567D01*
X032639Y027485D01*
X032884Y027485D01*
X033072Y027812D02*
X033236Y027975D01*
X033399Y027812D01*
X032368Y027730D02*
X032205Y027730D01*
X032368Y027485D02*
X032041Y027485D01*
X032368Y027485D02*
X032368Y027975D01*
X032041Y027975D01*
X031337Y027975D02*
X031173Y027975D01*
X031255Y027975D02*
X031255Y027485D01*
X031337Y027485D02*
X031173Y027485D01*
X030993Y027485D02*
X030993Y027975D01*
X030666Y027485D01*
X030666Y027975D01*
X031447Y026975D02*
X031447Y026894D01*
X031611Y026730D01*
X031611Y026485D01*
X031611Y026730D02*
X031774Y026894D01*
X031774Y026975D01*
X032290Y026975D02*
X032290Y026485D01*
X031963Y026485D01*
X032479Y026485D02*
X032479Y026812D01*
X032642Y026975D01*
X032806Y026812D01*
X032806Y026485D01*
X032806Y026730D02*
X032479Y026730D01*
X032994Y026975D02*
X033321Y026975D01*
X033158Y026975D02*
X033158Y026485D01*
X033502Y026485D02*
X033665Y026485D01*
X033583Y026485D02*
X033583Y026975D01*
X033502Y026975D02*
X033665Y026975D01*
X024765Y027517D02*
X024683Y027435D01*
X024438Y027435D01*
X024438Y027925D01*
X024438Y027762D02*
X024683Y027762D01*
X024765Y027680D01*
X024765Y027517D01*
X024249Y027517D02*
X024168Y027435D01*
X024004Y027435D01*
X023922Y027598D02*
X024249Y027598D01*
X024249Y027517D02*
X024249Y027680D01*
X024168Y027762D01*
X024004Y027762D01*
X023922Y027680D01*
X023922Y027598D01*
X023734Y027680D02*
X023652Y027762D01*
X023407Y027762D01*
X023489Y027598D02*
X023652Y027598D01*
X023734Y027680D01*
X023734Y027435D02*
X023489Y027435D01*
X023407Y027517D01*
X023489Y027598D01*
X023490Y027307D02*
X023490Y027225D01*
X023490Y027062D02*
X023490Y026735D01*
X023571Y026735D02*
X023408Y026735D01*
X023227Y026735D02*
X023227Y027062D01*
X022982Y027062D01*
X022901Y026980D01*
X022901Y026735D01*
X022712Y026735D02*
X022712Y027225D01*
X022711Y027272D02*
X022629Y027272D01*
X022547Y027353D01*
X022547Y027762D01*
X022793Y027762D01*
X022874Y027680D01*
X022874Y027517D01*
X022793Y027435D01*
X022547Y027435D01*
X022359Y027435D02*
X022359Y027762D01*
X022113Y027762D01*
X022032Y027680D01*
X022032Y027435D01*
X021843Y027517D02*
X021761Y027435D01*
X021598Y027435D01*
X021516Y027598D02*
X021843Y027598D01*
X021843Y027517D02*
X021843Y027680D01*
X021761Y027762D01*
X021598Y027762D01*
X021516Y027680D01*
X021516Y027598D01*
X021327Y027517D02*
X021327Y027680D01*
X021246Y027762D01*
X021000Y027762D01*
X021000Y027925D02*
X021000Y027435D01*
X021246Y027435D01*
X021327Y027517D01*
X020739Y027307D02*
X020739Y027225D01*
X020739Y027062D02*
X020739Y026735D01*
X020658Y026735D02*
X020821Y026735D01*
X020821Y027062D02*
X020739Y027062D01*
X020477Y027062D02*
X020314Y027062D01*
X020396Y027144D02*
X020396Y026817D01*
X020314Y026735D01*
X020296Y027435D02*
X020051Y027435D01*
X019969Y027517D01*
X019969Y027680D01*
X020051Y027762D01*
X020296Y027762D01*
X020296Y027925D02*
X020296Y027435D01*
X019780Y027517D02*
X019699Y027435D01*
X019454Y027435D01*
X019454Y027353D02*
X019535Y027272D01*
X019617Y027272D01*
X019454Y027353D02*
X019454Y027762D01*
X019780Y027762D02*
X019780Y027517D01*
X021521Y027062D02*
X021603Y027062D01*
X021767Y026898D01*
X021767Y026735D02*
X021767Y027062D01*
X021955Y026980D02*
X021955Y026898D01*
X022282Y026898D01*
X022282Y026817D02*
X022282Y026980D01*
X022200Y027062D01*
X022037Y027062D01*
X021955Y026980D01*
X022037Y026735D02*
X022200Y026735D01*
X022282Y026817D01*
X022467Y026735D02*
X022712Y026898D01*
X022467Y027062D01*
X023055Y027435D02*
X023218Y027435D01*
X023136Y027435D02*
X023136Y027762D01*
X023218Y027762D01*
X023136Y027925D02*
X023136Y028007D01*
X023833Y027144D02*
X023833Y026817D01*
X023752Y026735D01*
X023752Y027062D02*
X023915Y027062D01*
X023571Y027062D02*
X023490Y027062D01*
D13*
X013820Y029700D02*
X013822Y029750D01*
X013828Y029800D01*
X013838Y029849D01*
X013852Y029897D01*
X013869Y029944D01*
X013890Y029989D01*
X013915Y030033D01*
X013943Y030074D01*
X013975Y030113D01*
X014009Y030150D01*
X014046Y030184D01*
X014086Y030214D01*
X014128Y030241D01*
X014172Y030265D01*
X014218Y030286D01*
X014265Y030302D01*
X014313Y030315D01*
X014363Y030324D01*
X014412Y030329D01*
X014463Y030330D01*
X014513Y030327D01*
X014562Y030320D01*
X014611Y030309D01*
X014659Y030294D01*
X014705Y030276D01*
X014750Y030254D01*
X014793Y030228D01*
X014834Y030199D01*
X014873Y030167D01*
X014909Y030132D01*
X014941Y030094D01*
X014971Y030054D01*
X014998Y030011D01*
X015021Y029967D01*
X015040Y029921D01*
X015056Y029873D01*
X015068Y029824D01*
X015076Y029775D01*
X015080Y029725D01*
X015080Y029675D01*
X015076Y029625D01*
X015068Y029576D01*
X015056Y029527D01*
X015040Y029479D01*
X015021Y029433D01*
X014998Y029389D01*
X014971Y029346D01*
X014941Y029306D01*
X014909Y029268D01*
X014873Y029233D01*
X014834Y029201D01*
X014793Y029172D01*
X014750Y029146D01*
X014705Y029124D01*
X014659Y029106D01*
X014611Y029091D01*
X014562Y029080D01*
X014513Y029073D01*
X014463Y029070D01*
X014412Y029071D01*
X014363Y029076D01*
X014313Y029085D01*
X014265Y029098D01*
X014218Y029114D01*
X014172Y029135D01*
X014128Y029159D01*
X014086Y029186D01*
X014046Y029216D01*
X014009Y029250D01*
X013975Y029287D01*
X013943Y029326D01*
X013915Y029367D01*
X013890Y029411D01*
X013869Y029456D01*
X013852Y029503D01*
X013838Y029551D01*
X013828Y029600D01*
X013822Y029650D01*
X013820Y029700D01*
X033820Y023700D02*
X033822Y023750D01*
X033828Y023800D01*
X033838Y023849D01*
X033852Y023897D01*
X033869Y023944D01*
X033890Y023989D01*
X033915Y024033D01*
X033943Y024074D01*
X033975Y024113D01*
X034009Y024150D01*
X034046Y024184D01*
X034086Y024214D01*
X034128Y024241D01*
X034172Y024265D01*
X034218Y024286D01*
X034265Y024302D01*
X034313Y024315D01*
X034363Y024324D01*
X034412Y024329D01*
X034463Y024330D01*
X034513Y024327D01*
X034562Y024320D01*
X034611Y024309D01*
X034659Y024294D01*
X034705Y024276D01*
X034750Y024254D01*
X034793Y024228D01*
X034834Y024199D01*
X034873Y024167D01*
X034909Y024132D01*
X034941Y024094D01*
X034971Y024054D01*
X034998Y024011D01*
X035021Y023967D01*
X035040Y023921D01*
X035056Y023873D01*
X035068Y023824D01*
X035076Y023775D01*
X035080Y023725D01*
X035080Y023675D01*
X035076Y023625D01*
X035068Y023576D01*
X035056Y023527D01*
X035040Y023479D01*
X035021Y023433D01*
X034998Y023389D01*
X034971Y023346D01*
X034941Y023306D01*
X034909Y023268D01*
X034873Y023233D01*
X034834Y023201D01*
X034793Y023172D01*
X034750Y023146D01*
X034705Y023124D01*
X034659Y023106D01*
X034611Y023091D01*
X034562Y023080D01*
X034513Y023073D01*
X034463Y023070D01*
X034412Y023071D01*
X034363Y023076D01*
X034313Y023085D01*
X034265Y023098D01*
X034218Y023114D01*
X034172Y023135D01*
X034128Y023159D01*
X034086Y023186D01*
X034046Y023216D01*
X034009Y023250D01*
X033975Y023287D01*
X033943Y023326D01*
X033915Y023367D01*
X033890Y023411D01*
X033869Y023456D01*
X033852Y023503D01*
X033838Y023551D01*
X033828Y023600D01*
X033822Y023650D01*
X033820Y023700D01*
X033820Y012700D02*
X033822Y012750D01*
X033828Y012800D01*
X033838Y012849D01*
X033852Y012897D01*
X033869Y012944D01*
X033890Y012989D01*
X033915Y013033D01*
X033943Y013074D01*
X033975Y013113D01*
X034009Y013150D01*
X034046Y013184D01*
X034086Y013214D01*
X034128Y013241D01*
X034172Y013265D01*
X034218Y013286D01*
X034265Y013302D01*
X034313Y013315D01*
X034363Y013324D01*
X034412Y013329D01*
X034463Y013330D01*
X034513Y013327D01*
X034562Y013320D01*
X034611Y013309D01*
X034659Y013294D01*
X034705Y013276D01*
X034750Y013254D01*
X034793Y013228D01*
X034834Y013199D01*
X034873Y013167D01*
X034909Y013132D01*
X034941Y013094D01*
X034971Y013054D01*
X034998Y013011D01*
X035021Y012967D01*
X035040Y012921D01*
X035056Y012873D01*
X035068Y012824D01*
X035076Y012775D01*
X035080Y012725D01*
X035080Y012675D01*
X035076Y012625D01*
X035068Y012576D01*
X035056Y012527D01*
X035040Y012479D01*
X035021Y012433D01*
X034998Y012389D01*
X034971Y012346D01*
X034941Y012306D01*
X034909Y012268D01*
X034873Y012233D01*
X034834Y012201D01*
X034793Y012172D01*
X034750Y012146D01*
X034705Y012124D01*
X034659Y012106D01*
X034611Y012091D01*
X034562Y012080D01*
X034513Y012073D01*
X034463Y012070D01*
X034412Y012071D01*
X034363Y012076D01*
X034313Y012085D01*
X034265Y012098D01*
X034218Y012114D01*
X034172Y012135D01*
X034128Y012159D01*
X034086Y012186D01*
X034046Y012216D01*
X034009Y012250D01*
X033975Y012287D01*
X033943Y012326D01*
X033915Y012367D01*
X033890Y012411D01*
X033869Y012456D01*
X033852Y012503D01*
X033838Y012551D01*
X033828Y012600D01*
X033822Y012650D01*
X033820Y012700D01*
X013320Y010700D02*
X013322Y010750D01*
X013328Y010800D01*
X013338Y010849D01*
X013352Y010897D01*
X013369Y010944D01*
X013390Y010989D01*
X013415Y011033D01*
X013443Y011074D01*
X013475Y011113D01*
X013509Y011150D01*
X013546Y011184D01*
X013586Y011214D01*
X013628Y011241D01*
X013672Y011265D01*
X013718Y011286D01*
X013765Y011302D01*
X013813Y011315D01*
X013863Y011324D01*
X013912Y011329D01*
X013963Y011330D01*
X014013Y011327D01*
X014062Y011320D01*
X014111Y011309D01*
X014159Y011294D01*
X014205Y011276D01*
X014250Y011254D01*
X014293Y011228D01*
X014334Y011199D01*
X014373Y011167D01*
X014409Y011132D01*
X014441Y011094D01*
X014471Y011054D01*
X014498Y011011D01*
X014521Y010967D01*
X014540Y010921D01*
X014556Y010873D01*
X014568Y010824D01*
X014576Y010775D01*
X014580Y010725D01*
X014580Y010675D01*
X014576Y010625D01*
X014568Y010576D01*
X014556Y010527D01*
X014540Y010479D01*
X014521Y010433D01*
X014498Y010389D01*
X014471Y010346D01*
X014441Y010306D01*
X014409Y010268D01*
X014373Y010233D01*
X014334Y010201D01*
X014293Y010172D01*
X014250Y010146D01*
X014205Y010124D01*
X014159Y010106D01*
X014111Y010091D01*
X014062Y010080D01*
X014013Y010073D01*
X013963Y010070D01*
X013912Y010071D01*
X013863Y010076D01*
X013813Y010085D01*
X013765Y010098D01*
X013718Y010114D01*
X013672Y010135D01*
X013628Y010159D01*
X013586Y010186D01*
X013546Y010216D01*
X013509Y010250D01*
X013475Y010287D01*
X013443Y010326D01*
X013415Y010367D01*
X013390Y010411D01*
X013369Y010456D01*
X013352Y010503D01*
X013338Y010551D01*
X013328Y010600D01*
X013322Y010650D01*
X013320Y010700D01*
D14*
X013500Y025300D02*
X012400Y025300D01*
X012383Y025302D01*
X012366Y025306D01*
X012350Y025313D01*
X012336Y025323D01*
X012323Y025336D01*
X012313Y025350D01*
X012306Y025366D01*
X012302Y025383D01*
X012300Y025400D01*
X012300Y026000D01*
X012302Y026017D01*
X012306Y026034D01*
X012313Y026050D01*
X012323Y026064D01*
X012336Y026077D01*
X012350Y026087D01*
X012366Y026094D01*
X012383Y026098D01*
X012400Y026100D01*
X013500Y026100D01*
X013517Y026098D01*
X013534Y026094D01*
X013550Y026087D01*
X013564Y026077D01*
X013577Y026064D01*
X013587Y026050D01*
X013594Y026034D01*
X013598Y026017D01*
X013600Y026000D01*
X013600Y025400D01*
X013598Y025383D01*
X013594Y025366D01*
X013587Y025350D01*
X013577Y025336D01*
X013564Y025323D01*
X013550Y025313D01*
X013534Y025306D01*
X013517Y025302D01*
X013500Y025300D01*
M02*
