<?xml version="1.0" encoding="UTF-8" standalone="no"?>
<svg
   xmlns:dc="http://purl.org/dc/elements/1.1/"
   xmlns:cc="http://creativecommons.org/ns#"
   xmlns:rdf="http://www.w3.org/1999/02/22-rdf-syntax-ns#"
   xmlns:svg="http://www.w3.org/2000/svg"
   xmlns="http://www.w3.org/2000/svg"
   viewBox="0 0 576.25 180"
   stroke-dasharray="1200 1000"
   height="180"
   width="576.25"
   xml:space="preserve"
   version="1.1"
   id="svg2"><metadata
     id="metadata8"><rdf:RDF><cc:Work
         rdf:about=""><dc:format>image/svg+xml</dc:format><dc:type
           rdf:resource="http://purl.org/dc/dcmitype/StillImage" /></cc:Work></rdf:RDF></metadata><defs
     id="defs6"><clipPath
       id="clipPath16"
       clipPathUnits="userSpaceOnUse"><path
         id="path18"
         d="M 0,144 461,144 461,0 0,0 0,144 Z" /></clipPath></defs><g
     transform="matrix(1.25,0,0,-1.25,0,180)"
     id="g10"><g
       id="g12"><g
         clip-path="url(#clipPath16)"
         id="g14"><g
           transform="translate(173.8184,92.7383)"
           id="g20"><path
             id="path22"
             style="fill:#ffffff;fill-opacity:1;fill-rule:nonzero;stroke:none"
             d="m 0,0 c -0.182,-0.501 -0.807,-1.329 -1.87,-2.484 -1.368,-1.501 -2.145,-2.386 -2.327,-2.656 -1.064,-1.578 -2.584,-4.928 -4.56,-10.048 -1.552,-3.928 -2.86,-7.528 -3.923,-10.797 -1.493,-4.541 -2.236,-7.545 -2.236,-9.008 0,-1.772 -0.443,-3.08 -1.323,-3.926 -0.183,-0.154 -0.746,-0.422 -1.689,-0.809 l -1.779,-0.634 c -0.334,2 -0.866,5.138 -1.597,9.414 -0.547,3.152 -1.292,6.254 -2.236,9.293 -1.184,-2.002 -2.994,-4.987 -5.427,-8.951 -2.919,-4.657 -5.001,-7.065 -6.248,-7.217 l -0.958,0.345 -0.321,1.387 c 0.883,1.461 2.189,3.697 3.924,6.699 2.401,4.157 3.725,6.469 3.969,6.928 0.971,1.965 1.916,4.487 2.828,7.567 0.426,1.501 0.881,2.75 1.368,3.751 1.489,-1.076 2.661,-2.85 3.512,-5.312 0.367,-1.078 0.943,-3.502 1.734,-7.273 0.638,-3.082 1.309,-5.334 2.006,-6.758 0.792,2.039 2.237,5.736 4.334,11.086 C -7.192,-5.391 -3.055,1.79 -0.41,2.136 L 0,0 Z" /></g><g
           transform="translate(173.8184,92.7383)"
           id="g24"><path
             id="path26"
             style="fill:none;stroke:#ffffff;stroke-width:1.80400002;stroke-linecap:butt;stroke-linejoin:miter;stroke-miterlimit:4;stroke-dasharray:none;stroke-opacity:1"
             d="m 0,0 c -0.182,-0.501 -0.807,-1.329 -1.87,-2.484 -1.368,-1.501 -2.145,-2.386 -2.327,-2.656 -1.064,-1.578 -2.584,-4.928 -4.56,-10.048 -1.552,-3.928 -2.86,-7.528 -3.923,-10.797 -1.493,-4.541 -2.236,-7.545 -2.236,-9.008 0,-1.772 -0.443,-3.08 -1.323,-3.926 -0.183,-0.154 -0.746,-0.422 -1.689,-0.809 l -1.779,-0.634 c -0.334,2 -0.866,5.138 -1.597,9.414 -0.547,3.152 -1.292,6.254 -2.236,9.293 -1.184,-2.002 -2.994,-4.987 -5.427,-8.951 -2.919,-4.657 -5.001,-7.065 -6.248,-7.217 l -0.958,0.345 -0.321,1.387 c 0.883,1.461 2.189,3.697 3.924,6.699 2.401,4.157 3.725,6.469 3.969,6.928 0.971,1.965 1.916,4.487 2.828,7.567 0.426,1.501 0.881,2.75 1.368,3.751 1.489,-1.076 2.661,-2.85 3.512,-5.312 0.367,-1.078 0.943,-3.502 1.734,-7.273 0.638,-3.082 1.309,-5.334 2.006,-6.758 0.792,2.039 2.237,5.736 4.334,11.086 C -7.192,-5.391 -3.055,1.79 -0.41,2.136 L 0,0 Z" /></g><g
           transform="translate(182.666,67.7334)"
           id="g28"><path
             id="path30"
             style="fill:#ffffff;fill-opacity:1;fill-rule:nonzero;stroke:none"
             d="M 0,0 C -0.912,1.232 -2.021,1.85 -3.329,1.85 -4.272,1.85 -5.124,1.598 -5.884,1.1 -5.915,1.061 -6.69,0.521 -8.21,-0.516 c 0.913,-1.851 2.159,-2.775 3.74,-2.775 1.794,0 3.285,1.096 4.47,3.291 m 4.7,-11.086 c -0.913,-1.268 -3.073,-2.23 -6.479,-2.887 -2.402,-0.465 -4.85,-0.693 -7.346,-0.693 -5.137,0 -7.707,1.867 -7.707,5.602 0,4.582 2.676,8.505 8.029,11.781 1.855,1.152 3.786,2.096 5.793,2.828 1.946,-0.578 3.239,-1 3.878,-1.272 1.369,-0.576 2.054,-2.019 2.054,-4.332 0,-2.039 -1.036,-3.652 -3.104,-4.849 -1.733,-1 -3.498,-1.502 -5.291,-1.502 -2.798,0 -4.806,0.541 -6.023,1.619 -1.521,-0.926 -2.279,-2.115 -2.279,-3.58 0,-2.58 1.853,-3.871 5.565,-3.871 1.368,0 2.965,0.117 4.79,0.347 4.288,0.54 6.994,0.809 8.12,0.809" /></g><g
           transform="translate(182.666,67.7334)"
           id="g32"><path
             id="path34"
             style="fill:none;stroke:#ffffff;stroke-width:1.80400002;stroke-linecap:butt;stroke-linejoin:miter;stroke-miterlimit:4;stroke-dasharray:none;stroke-opacity:1"
             d="M 0,0 C -0.912,1.232 -2.021,1.85 -3.329,1.85 -4.272,1.85 -5.124,1.598 -5.884,1.1 -5.915,1.061 -6.69,0.521 -8.21,-0.516 c 0.913,-1.851 2.159,-2.775 3.74,-2.775 1.794,0 3.285,1.096 4.47,3.291 z m 4.7,-11.086 c -0.913,-1.268 -3.073,-2.23 -6.479,-2.887 -2.402,-0.465 -4.85,-0.693 -7.346,-0.693 -5.137,0 -7.707,1.867 -7.707,5.602 0,4.582 2.676,8.505 8.029,11.781 1.855,1.152 3.786,2.096 5.793,2.828 1.946,-0.578 3.239,-1 3.878,-1.272 1.369,-0.576 2.054,-2.019 2.054,-4.332 0,-2.039 -1.036,-3.652 -3.104,-4.849 -1.733,-1 -3.498,-1.502 -5.291,-1.502 -2.798,0 -4.806,0.541 -6.023,1.619 -1.521,-0.926 -2.279,-2.115 -2.279,-3.58 0,-2.58 1.853,-3.871 5.565,-3.871 1.368,0 2.965,0.117 4.79,0.347 4.288,0.54 6.994,0.809 8.12,0.809 z" /></g><g
           transform="translate(210.6299,87.541)"
           id="g36"><path
             id="path38"
             style="fill:#ffffff;fill-opacity:1;fill-rule:nonzero;stroke:none"
             d="m 0,0 c 0,-0.963 -0.259,-2.041 -0.774,-3.234 -0.214,-0.5 -1.142,-2.138 -2.784,-4.909 0.761,-0.656 1.536,-1.289 2.327,-1.904 0.851,-0.887 1.231,-1.887 1.14,-3.004 l -0.046,-0.633 c -0.03,0 -0.729,0.267 -2.097,0.807 -0.883,0.347 -1.568,0.521 -2.053,0.521 -1.672,0 -4.084,-2.225 -7.231,-6.67 -3.148,-4.448 -4.72,-7.768 -4.72,-9.961 0,-1.887 1.337,-3.256 4.013,-4.102 1.704,-0.539 3.62,-0.807 5.747,-0.807 0.824,0 1.658,0.075 2.509,0.231 -0.03,-0.193 0.107,-0.541 0.411,-1.039 -1.916,-0.924 -3.816,-1.387 -5.702,-1.387 -6.843,0 -10.263,2.117 -10.263,6.354 0,2.5 1.716,6.177 5.154,11.029 l 3.923,5.543 -1.596,0.114 c -0.669,0.039 -1.567,-0.192 -2.69,-0.692 -2.222,-1 -3.531,-1.5 -3.926,-1.5 -0.515,0 -0.994,0.199 -1.436,0.605 -0.442,0.403 -0.66,0.915 -0.66,1.53 0,1.5 1.352,2.254 4.059,2.254 0.274,0 0.668,-0.021 1.186,-0.059 0.517,-0.039 0.913,-0.058 1.187,-0.058 2.31,0 4.219,0.5 5.723,1.5 1.505,1 2.836,2.735 3.993,5.198 0.394,0.846 1.324,3.235 2.782,7.159 0.395,0 0.799,-0.346 1.208,-1.039 C -0.204,1.153 0,0.539 0,0" /></g><g
           transform="translate(210.6299,87.541)"
           id="g40"><path
             id="path42"
             style="fill:none;stroke:#ffffff;stroke-width:1.80400002;stroke-linecap:butt;stroke-linejoin:miter;stroke-miterlimit:4;stroke-dasharray:none;stroke-opacity:1"
             d="m 0,0 c 0,-0.963 -0.259,-2.041 -0.774,-3.234 -0.214,-0.5 -1.142,-2.138 -2.784,-4.909 0.761,-0.656 1.536,-1.289 2.327,-1.904 0.851,-0.887 1.231,-1.887 1.14,-3.004 l -0.046,-0.633 c -0.03,0 -0.729,0.267 -2.097,0.807 -0.883,0.347 -1.568,0.521 -2.053,0.521 -1.672,0 -4.084,-2.225 -7.231,-6.67 -3.148,-4.448 -4.72,-7.768 -4.72,-9.961 0,-1.887 1.337,-3.256 4.013,-4.102 1.704,-0.539 3.62,-0.807 5.747,-0.807 0.824,0 1.658,0.075 2.509,0.231 -0.03,-0.193 0.107,-0.541 0.411,-1.039 -1.916,-0.924 -3.816,-1.387 -5.702,-1.387 -6.843,0 -10.263,2.117 -10.263,6.354 0,2.5 1.716,6.177 5.154,11.029 l 3.923,5.543 -1.596,0.114 c -0.669,0.039 -1.567,-0.192 -2.69,-0.692 -2.222,-1 -3.531,-1.5 -3.926,-1.5 -0.515,0 -0.994,0.199 -1.436,0.605 -0.442,0.403 -0.66,0.915 -0.66,1.53 0,1.5 1.352,2.254 4.059,2.254 0.274,0 0.668,-0.021 1.186,-0.059 0.517,-0.039 0.913,-0.058 1.187,-0.058 2.31,0 4.219,0.5 5.723,1.5 1.505,1 2.836,2.735 3.993,5.198 0.394,0.846 1.324,3.235 2.782,7.159 0.395,0 0.799,-0.346 1.208,-1.039 C -0.204,1.153 0,0.539 0,0 Z" /></g><g
           transform="translate(249.4951,100.417)"
           id="g44"><path
             id="path46"
             style="fill:#ffffff;fill-opacity:1;fill-rule:nonzero;stroke:none"
             d="m 0,0 c -9.823,-11.318 -17.988,-24.232 -24.495,-38.746 -0.122,-0.268 -0.456,-1.176 -1.004,-2.713 -1.125,-3.195 -2.221,-5.197 -3.284,-6.006 -0.305,-0.189 -0.624,-0.289 -0.958,-0.289 -1.825,0 -2.738,2.904 -2.738,8.719 0,1.234 0.046,2.678 0.136,4.33 l 0.229,4.275 c 0.061,2.231 -0.197,5.083 -0.776,8.546 -0.516,2.773 -1.034,5.563 -1.55,8.374 0.303,0.809 0.569,1.326 0.798,1.559 0.229,0.228 0.692,0.536 1.392,0.922 0.638,-2.387 1.049,-5.505 1.231,-9.354 l 0.455,-9.529 c 0.366,-3.58 1.093,-6.524 2.19,-8.834 l 0.411,0 c 0.883,0 3.055,3.351 6.523,10.047 5.048,9.74 8.379,15.957 9.992,18.652 4.104,6.815 7.297,10.183 9.577,10.105 L 0,0 Z" /></g><g
           transform="translate(249.4951,100.417)"
           id="g48"><path
             id="path50"
             style="fill:none;stroke:#ffffff;stroke-width:1.80400002;stroke-linecap:butt;stroke-linejoin:miter;stroke-miterlimit:4;stroke-dasharray:none;stroke-opacity:1"
             d="m 0,0 c -9.823,-11.318 -17.988,-24.232 -24.495,-38.746 -0.122,-0.268 -0.456,-1.176 -1.004,-2.713 -1.125,-3.195 -2.221,-5.197 -3.284,-6.006 -0.305,-0.189 -0.624,-0.289 -0.958,-0.289 -1.825,0 -2.738,2.904 -2.738,8.719 0,1.234 0.046,2.678 0.136,4.33 l 0.229,4.275 c 0.061,2.231 -0.197,5.083 -0.776,8.546 -0.516,2.773 -1.034,5.563 -1.55,8.374 0.303,0.809 0.569,1.326 0.798,1.559 0.229,0.228 0.692,0.536 1.392,0.922 0.638,-2.387 1.049,-5.505 1.231,-9.354 l 0.455,-9.529 c 0.366,-3.58 1.093,-6.524 2.19,-8.834 l 0.411,0 c 0.883,0 3.055,3.351 6.523,10.047 5.048,9.74 8.379,15.957 9.992,18.652 4.104,6.815 7.297,10.183 9.577,10.105 L 0,0 Z" /></g><g
           transform="translate(247.0313,85.3477)"
           id="g52"><path
             id="path54"
             style="fill:#ffffff;fill-opacity:1;fill-rule:nonzero;stroke:none"
             d="m 0,0 c 0,-1.388 -0.73,-2.08 -2.189,-2.08 -1.338,0 -2.007,0.692 -2.007,2.08 0,0.69 0.174,1.653 0.525,2.886 0.349,1.231 0.54,2.154 0.568,2.769 C -2.798,5.426 -2.22,4.329 -1.367,2.368 -1.307,2.251 -1.035,1.904 -0.549,1.327 -0.183,0.903 0,0.46 0,0 m -4.289,-15.88 c 0,-0.615 -0.851,-3.678 -2.552,-9.183 -0.214,-0.69 -0.534,-1.711 -0.96,-3.057 -0.364,-1.039 -0.835,-1.697 -1.413,-1.967 -0.335,-0.154 -1.02,-0.228 -2.052,-0.228 0,0.265 -0.039,0.652 -0.116,1.156 -0.074,0.498 -0.114,0.881 -0.114,1.154 0,0.844 0.259,1.789 0.775,2.828 0.701,1.424 1.095,2.291 1.187,2.6 0.245,0.959 0.714,2.656 1.415,5.08 0.517,1.691 1.339,3.117 2.465,4.271 0.909,-1.154 1.365,-2.039 1.365,-2.654" /></g><g
           transform="translate(247.0313,85.3477)"
           id="g56"><path
             id="path58"
             style="fill:none;stroke:#ffffff;stroke-width:1.80400002;stroke-linecap:butt;stroke-linejoin:miter;stroke-miterlimit:4;stroke-dasharray:none;stroke-opacity:1"
             d="m 0,0 c 0,-1.388 -0.73,-2.08 -2.189,-2.08 -1.338,0 -2.007,0.692 -2.007,2.08 0,0.69 0.174,1.653 0.525,2.886 0.349,1.231 0.54,2.154 0.568,2.769 C -2.798,5.426 -2.22,4.329 -1.367,2.368 -1.307,2.251 -1.035,1.904 -0.549,1.327 -0.183,0.903 0,0.46 0,0 Z m -4.289,-15.88 c 0,-0.615 -0.851,-3.678 -2.552,-9.183 -0.214,-0.69 -0.534,-1.711 -0.96,-3.057 -0.364,-1.039 -0.835,-1.697 -1.413,-1.967 -0.335,-0.154 -1.02,-0.228 -2.052,-0.228 0,0.265 -0.039,0.652 -0.116,1.156 -0.074,0.498 -0.114,0.881 -0.114,1.154 0,0.844 0.259,1.789 0.775,2.828 0.701,1.424 1.095,2.291 1.187,2.6 0.245,0.959 0.714,2.656 1.415,5.08 0.517,1.691 1.339,3.117 2.465,4.271 0.909,-1.154 1.365,-2.039 1.365,-2.654 z" /></g><g
           transform="translate(270.7969,51.2197)"
           id="g60"><path
             id="path62"
             style="fill:#ffffff;fill-opacity:1;fill-rule:nonzero;stroke:none"
             d="m 0,0 0,0.176 0.091,0 0,0.174 -0.091,0 0,0.343 0.184,0 0,-0.113 -0.093,0 0,-0.119 0.093,0 L 0.184,0 0,0 Z m -1.507,20.672 c 0,1.387 -0.943,2.08 -2.826,2.08 -2.767,0 -5.063,-0.789 -6.889,-2.369 -1.702,-1.463 -3.466,-3.424 -5.292,-5.891 -2.311,-3.115 -3.467,-5.58 -3.467,-7.39 0,-1.077 0.366,-1.905 1.096,-2.483 0.638,-0.5 1.415,-0.75 2.325,-0.75 2.646,0 4.911,1.174 6.799,3.524 0.454,0.578 1.746,2.791 3.876,6.64 1.308,2.387 2.571,3.58 3.786,3.58 0.395,1.076 0.592,2.096 0.592,3.059 M 0.138,1.156 c -0.671,-1.849 -1.461,-2.771 -2.373,-2.771 -1.036,0 -2.174,0.963 -3.422,2.885 -0.975,1.464 -1.764,3.041 -2.371,4.738 -2.556,-1.543 -4.288,-2.543 -5.201,-3.004 -2.25,-1.119 -4.06,-1.676 -5.427,-1.676 -2.405,0 -3.605,1.539 -3.605,4.619 0,4.965 2.128,9.391 6.388,13.283 1.396,1.268 3.282,2.636 5.656,4.099 2.828,1.732 4.834,2.597 6.02,2.597 0.822,0 1.595,-0.556 2.327,-1.672 0.729,-1.117 1.095,-2.214 1.095,-3.293 0,-2.117 -0.662,-4.898 -1.986,-8.342 -1.322,-3.447 -1.983,-5.437 -1.983,-5.978 0,-1.846 0.227,-3.118 0.684,-3.811 0.364,-0.578 1.764,-1.137 4.198,-1.674" /></g><g
           transform="translate(270.7969,51.2197)"
           id="g64"><path
             id="path66"
             style="fill:none;stroke:#ffffff;stroke-width:1.80400002;stroke-linecap:butt;stroke-linejoin:miter;stroke-miterlimit:4;stroke-dasharray:none;stroke-opacity:1"
             d="m 0,0 0,0.176 0.091,0 0,0.174 -0.091,0 0,0.343 0.184,0 0,-0.113 -0.093,0 0,-0.119 0.093,0 L 0.184,0 0,0 Z m -1.507,20.672 c 0,1.387 -0.943,2.08 -2.826,2.08 -2.767,0 -5.063,-0.789 -6.889,-2.369 -1.702,-1.463 -3.466,-3.424 -5.292,-5.891 -2.311,-3.115 -3.467,-5.58 -3.467,-7.39 0,-1.077 0.366,-1.905 1.096,-2.483 0.638,-0.5 1.415,-0.75 2.325,-0.75 2.646,0 4.911,1.174 6.799,3.524 0.454,0.578 1.746,2.791 3.876,6.64 1.308,2.387 2.571,3.58 3.786,3.58 0.395,1.076 0.592,2.096 0.592,3.059 z M 0.138,1.156 c -0.671,-1.849 -1.461,-2.771 -2.373,-2.771 -1.036,0 -2.174,0.963 -3.422,2.885 -0.975,1.464 -1.764,3.041 -2.371,4.738 -2.556,-1.543 -4.288,-2.543 -5.201,-3.004 -2.25,-1.119 -4.06,-1.676 -5.427,-1.676 -2.405,0 -3.605,1.539 -3.605,4.619 0,4.965 2.128,9.391 6.388,13.283 1.396,1.268 3.282,2.636 5.656,4.099 2.828,1.732 4.834,2.597 6.02,2.597 0.822,0 1.595,-0.556 2.327,-1.672 0.729,-1.117 1.095,-2.214 1.095,-3.293 0,-2.117 -0.662,-4.898 -1.986,-8.342 -1.322,-3.447 -1.983,-5.437 -1.983,-5.978 0,-1.846 0.227,-3.118 0.684,-3.811 0.364,-0.578 1.764,-1.137 4.198,-1.674 z" /></g><g
           transform="translate(323.8047,91.584)"
           id="g68"><path
             id="path70"
             style="fill:#ffffff;fill-opacity:1;fill-rule:nonzero;stroke:none"
             d="m 0,0 c -3.862,-1.157 -8.21,-3.024 -13.048,-5.603 -5.413,-2.847 -9.916,-5.87 -13.502,-9.065 -5.627,-4.968 -8.438,-9.874 -8.438,-14.724 0,-2.656 1.11,-4.621 3.327,-5.892 1.675,-0.961 3.699,-1.442 6.068,-1.442 10.828,0 16.241,4.85 16.241,14.553 l -0.044,0.516 c -4.168,-2 -6.797,-3.002 -7.893,-3.002 -1.338,0 -2.008,0.846 -2.008,2.543 0,1.193 0.456,1.963 1.369,2.31 0.426,0.153 1.277,0.229 2.554,0.229 0.215,0 0.531,-0.018 0.958,-0.059 0.305,-0.037 0.61,-0.037 0.912,0 0.639,0.041 2.617,0.752 5.93,2.139 1.612,0.655 2.768,0.961 3.469,0.924 l 0.73,-0.058 c -0.244,-2.462 -0.975,-5.218 -2.191,-8.259 -0.547,-1.349 -1.778,-4.023 -3.695,-8.025 -1.643,-3.389 -2.737,-6.061 -3.284,-8.025 -0.428,-1.502 -1.097,-2.252 -2.007,-2.252 -1.094,0 -1.841,0.539 -2.236,1.615 0.152,0.965 0.595,2.078 1.322,3.349 -0.305,0.385 -0.484,0.579 -0.547,0.579 -0.214,-0.041 -0.441,-0.059 -0.681,-0.059 -0.977,0 -3.196,-0.23 -6.662,-0.689 -1.733,-0.235 -3.087,-0.35 -4.06,-0.35 -2.677,0 -4.927,0.56 -6.751,1.672 -2.435,1.506 -3.651,3.736 -3.651,6.701 0,4.043 2.358,8.853 7.072,14.436 3.376,4.004 7.723,8.004 13.046,12.011 6.355,4.772 11.251,7.159 14.689,7.159 C -1.187,3.232 -0.184,2.154 0,0" /></g><g
           transform="translate(323.8047,91.584)"
           id="g72"><path
             id="path74"
             style="fill:none;stroke:#ffffff;stroke-width:1.80400002;stroke-linecap:butt;stroke-linejoin:miter;stroke-miterlimit:4;stroke-dasharray:none;stroke-opacity:1"
             d="m 0,0 c -3.862,-1.157 -8.21,-3.024 -13.048,-5.603 -5.413,-2.847 -9.916,-5.87 -13.502,-9.065 -5.627,-4.968 -8.438,-9.874 -8.438,-14.724 0,-2.656 1.11,-4.621 3.327,-5.892 1.675,-0.961 3.699,-1.442 6.068,-1.442 10.828,0 16.241,4.85 16.241,14.553 l -0.044,0.516 c -4.168,-2 -6.797,-3.002 -7.893,-3.002 -1.338,0 -2.008,0.846 -2.008,2.543 0,1.193 0.456,1.963 1.369,2.31 0.426,0.153 1.277,0.229 2.554,0.229 0.215,0 0.531,-0.018 0.958,-0.059 0.305,-0.037 0.61,-0.037 0.912,0 0.639,0.041 2.617,0.752 5.93,2.139 1.612,0.655 2.768,0.961 3.469,0.924 l 0.73,-0.058 c -0.244,-2.462 -0.975,-5.218 -2.191,-8.259 -0.547,-1.349 -1.778,-4.023 -3.695,-8.025 -1.643,-3.389 -2.737,-6.061 -3.284,-8.025 -0.428,-1.502 -1.097,-2.252 -2.007,-2.252 -1.094,0 -1.841,0.539 -2.236,1.615 0.152,0.965 0.595,2.078 1.322,3.349 -0.305,0.385 -0.484,0.579 -0.547,0.579 -0.214,-0.041 -0.441,-0.059 -0.681,-0.059 -0.977,0 -3.196,-0.23 -6.662,-0.689 -1.733,-0.235 -3.087,-0.35 -4.06,-0.35 -2.677,0 -4.927,0.56 -6.751,1.672 -2.435,1.506 -3.651,3.736 -3.651,6.701 0,4.043 2.358,8.853 7.072,14.436 3.376,4.004 7.723,8.004 13.046,12.011 6.355,4.772 11.251,7.159 14.689,7.159 C -1.187,3.232 -0.184,2.154 0,0 Z" /></g><g
           transform="translate(340.9102,66.0615)"
           id="g76"><path
             id="path78"
             style="fill:#ffffff;fill-opacity:1;fill-rule:nonzero;stroke:none"
             d="m 0,0 -7.164,2.945 c -1.763,0 -3.315,-1.523 -4.651,-4.564 -0.486,-1.037 -1.301,-3.494 -2.442,-7.361 -1.14,-3.87 -2.97,-5.805 -5.496,-5.805 0.151,1.58 0.944,3.756 2.374,6.527 1.549,3.004 2.476,5.217 2.781,6.639 0.244,1.193 0.41,3.156 0.5,5.889 0.032,1.158 0.244,2.349 0.642,3.582 0.546,1.732 1.168,2.637 1.868,2.715 l 0.866,-0.059 0.456,-3.926 c 0.213,-1 0.929,-1.504 2.143,-1.504 l 1.555,0 c 0.271,0.037 0.484,0.059 0.636,0.059 C -2.434,5.215 -0.457,3.5 0,0" /></g><g
           transform="translate(340.9102,66.0615)"
           id="g80"><path
             id="path82"
             style="fill:none;stroke:#ffffff;stroke-width:1.80400002;stroke-linecap:butt;stroke-linejoin:miter;stroke-miterlimit:4;stroke-dasharray:none;stroke-opacity:1"
             d="m 0,0 -7.164,2.945 c -1.763,0 -3.315,-1.523 -4.651,-4.564 -0.486,-1.037 -1.301,-3.494 -2.442,-7.361 -1.14,-3.87 -2.97,-5.805 -5.496,-5.805 0.151,1.58 0.944,3.756 2.374,6.527 1.549,3.004 2.476,5.217 2.781,6.639 0.244,1.193 0.41,3.156 0.5,5.889 0.032,1.158 0.244,2.349 0.642,3.582 0.546,1.732 1.168,2.637 1.868,2.715 l 0.866,-0.059 0.456,-3.926 c 0.213,-1 0.929,-1.504 2.143,-1.504 l 1.555,0 c 0.271,0.037 0.484,0.059 0.636,0.059 C -2.434,5.215 -0.457,3.5 0,0 Z" /></g><g
           transform="translate(367.7314,63.9814)"
           id="g84"><path
             id="path86"
             style="fill:#ffffff;fill-opacity:1;fill-rule:nonzero;stroke:none"
             d="m 0,0 c 0,1.885 -0.761,3.309 -2.285,4.273 -1.212,0.772 -2.643,1.157 -4.286,1.157 -2.735,0 -5.577,-0.963 -8.532,-2.891 -3.098,-1.961 -5.318,-4.367 -6.657,-7.217 2.068,-2.656 4.546,-3.982 7.436,-3.982 2.765,0 5.61,0.635 8.53,1.906 C -1.934,-5.064 0,-2.811 0,0 m 2.51,-0.348 c 0,-3.615 -2.072,-6.445 -6.204,-8.486 -3.135,-1.539 -6.435,-2.311 -9.901,-2.311 -7.269,0 -10.903,2.27 -10.903,6.817 0,3.23 2.373,6.371 7.118,9.41 4.227,2.691 7.782,4.042 10.674,4.042 2.553,0 4.665,-0.753 6.34,-2.253 1.917,-1.695 2.876,-4.1 2.876,-7.219" /></g><g
           transform="translate(367.7314,63.9814)"
           id="g88"><path
             id="path90"
             style="fill:none;stroke:#ffffff;stroke-width:1.80400002;stroke-linecap:butt;stroke-linejoin:miter;stroke-miterlimit:4;stroke-dasharray:none;stroke-opacity:1"
             d="m 0,0 c 0,1.885 -0.761,3.309 -2.285,4.273 -1.212,0.772 -2.643,1.157 -4.286,1.157 -2.735,0 -5.577,-0.963 -8.532,-2.891 -3.098,-1.961 -5.318,-4.367 -6.657,-7.217 2.068,-2.656 4.546,-3.982 7.436,-3.982 2.765,0 5.61,0.635 8.53,1.906 C -1.934,-5.064 0,-2.811 0,0 Z m 2.51,-0.348 c 0,-3.615 -2.072,-6.445 -6.204,-8.486 -3.135,-1.539 -6.435,-2.311 -9.901,-2.311 -7.269,0 -10.903,2.27 -10.903,6.817 0,3.23 2.373,6.371 7.118,9.41 4.227,2.691 7.782,4.042 10.674,4.042 2.553,0 4.665,-0.753 6.34,-2.253 1.917,-1.695 2.876,-4.1 2.876,-7.219 z" /></g><g
           transform="translate(402.5361,76.1069)"
           id="g92"><path
             id="path94"
             style="fill:#ffffff;fill-opacity:1;fill-rule:nonzero;stroke:none"
             d="m 0,0 c 0,-1.385 -0.762,-3.233 -2.282,-5.543 -0.854,-1.272 -2.356,-3.581 -4.514,-6.93 -1.613,-2.541 -2.42,-4.869 -2.42,-6.986 0,-1.118 0.565,-1.653 1.69,-1.616 0.243,0 0.467,0.018 0.684,0.057 l 0.456,0 c 0.456,0 0.944,-0.094 1.459,-0.289 l 0.637,-0.924 c -0.12,-0.039 -0.865,-0.287 -2.234,-0.75 -0.913,-0.269 -1.657,-0.404 -2.237,-0.404 -1.244,0 -2.127,0.383 -2.644,1.154 -0.428,0.695 -0.639,1.85 -0.639,3.467 l 0,1.326 c 0,0.422 0.016,0.867 0.047,1.33 -2.101,-1.697 -3.574,-2.851 -4.425,-3.467 -3.832,-2.656 -7.132,-3.984 -9.9,-3.984 -3.072,0 -4.607,0.941 -4.607,2.832 0,1.383 1.398,4.252 4.197,8.602 1.918,2.962 3.8,5.638 5.657,8.025 2.432,3.118 4,4.68 4.696,4.68 0.577,0 0.87,-0.389 0.87,-1.156 0,-1.002 -1.113,-3.118 -3.33,-6.352 -0.974,-1.346 -2.433,-3.408 -4.382,-6.178 -1.976,-2.891 -3.253,-5.178 -3.83,-6.871 l 0.456,-0.58 c 0.213,0 0.517,-0.02 0.911,-0.059 0.397,-0.037 0.7,-0.056 0.915,-0.056 0.941,0 1.943,0.267 3.009,0.808 0.639,0.348 1.595,0.865 2.875,1.561 3.223,1.652 5.685,3.349 7.39,5.08 0.882,0.887 2.081,2.654 3.601,5.312 0.67,1.194 1.887,3.328 3.651,6.411 1.215,2.08 2.146,3.119 2.781,3.119 0.367,0 0.762,-0.195 1.187,-0.58 L 0,0 Z" /></g><g
           transform="translate(402.5361,76.1069)"
           id="g96"><path
             id="path98"
             style="fill:none;stroke:#ffffff;stroke-width:1.80400002;stroke-linecap:butt;stroke-linejoin:miter;stroke-miterlimit:4;stroke-dasharray:none;stroke-opacity:1"
             d="m 0,0 c 0,-1.385 -0.762,-3.233 -2.282,-5.543 -0.854,-1.272 -2.356,-3.581 -4.514,-6.93 -1.613,-2.541 -2.42,-4.869 -2.42,-6.986 0,-1.118 0.565,-1.653 1.69,-1.616 0.243,0 0.467,0.018 0.684,0.057 l 0.456,0 c 0.456,0 0.944,-0.094 1.459,-0.289 l 0.637,-0.924 c -0.12,-0.039 -0.865,-0.287 -2.234,-0.75 -0.913,-0.269 -1.657,-0.404 -2.237,-0.404 -1.244,0 -2.127,0.383 -2.644,1.154 -0.428,0.695 -0.639,1.85 -0.639,3.467 l 0,1.326 c 0,0.422 0.016,0.867 0.047,1.33 -2.101,-1.697 -3.574,-2.851 -4.425,-3.467 -3.832,-2.656 -7.132,-3.984 -9.9,-3.984 -3.072,0 -4.607,0.941 -4.607,2.832 0,1.383 1.398,4.252 4.197,8.602 1.918,2.962 3.8,5.638 5.657,8.025 2.432,3.118 4,4.68 4.696,4.68 0.577,0 0.87,-0.389 0.87,-1.156 0,-1.002 -1.113,-3.118 -3.33,-6.352 -0.974,-1.346 -2.433,-3.408 -4.382,-6.178 -1.976,-2.891 -3.253,-5.178 -3.83,-6.871 l 0.456,-0.58 c 0.213,0 0.517,-0.02 0.911,-0.059 0.397,-0.037 0.7,-0.056 0.915,-0.056 0.941,0 1.943,0.267 3.009,0.808 0.639,0.348 1.595,0.865 2.875,1.561 3.223,1.652 5.685,3.349 7.39,5.08 0.882,0.887 2.081,2.654 3.601,5.312 0.67,1.194 1.887,3.328 3.651,6.411 1.215,2.08 2.146,3.119 2.781,3.119 0.367,0 0.762,-0.195 1.187,-0.58 L 0,0 Z" /></g><g
           transform="translate(425.7061,70.7959)"
           id="g100"><path
             id="path102"
             style="fill:#ffffff;fill-opacity:1;fill-rule:nonzero;stroke:none"
             d="m 0,0 c 0,1.617 -1.201,2.424 -3.602,2.424 -1.488,0 -2.952,-0.576 -4.379,-1.731 -1.275,-1.039 -2.98,-3.504 -5.11,-7.394 -2.188,-4.041 -3.284,-6.889 -3.284,-8.545 0.883,0.383 2.464,1.137 4.745,2.254 2.374,1.267 4.576,3.039 6.613,5.31 0.76,0.846 1.994,2.387 3.698,4.619 C -0.44,-1.906 0,-0.887 0,0 m 2.695,-0.172 c 0,-3.773 -1.901,-7.125 -5.704,-10.049 -1.704,-1.31 -5.46,-3.467 -11.266,-6.468 -4.471,-2.272 -7.103,-4.254 -7.89,-5.944 -1.005,-3.16 -1.828,-5.564 -2.467,-7.219 -1.338,-3.425 -2.704,-5.14 -4.105,-5.14 -0.85,0 -1.275,0.539 -1.275,1.615 0,0.848 0.835,2.617 2.506,5.313 0.763,1.154 1.864,2.886 3.308,5.197 1.446,2.308 2.335,4.099 2.668,5.367 l 4.699,7.279 c 1.977,3.424 2.967,6.178 2.967,8.258 -0.247,-0.191 -0.565,-0.435 -0.959,-0.725 -0.395,-0.287 -0.913,-0.585 -1.552,-0.89 -0.456,0.496 -0.685,1.211 -0.685,2.131 0,1.656 2.116,3.275 6.34,4.852 3.589,1.347 6.327,2.023 8.213,2.023 3.467,0 5.202,-1.867 5.202,-5.6" /></g><g
           transform="translate(425.7061,70.7959)"
           id="g104"><path
             id="path106"
             style="fill:none;stroke:#ffffff;stroke-width:1.80400002;stroke-linecap:butt;stroke-linejoin:miter;stroke-miterlimit:4;stroke-dasharray:none;stroke-opacity:1"
             d="m 0,0 c 0,1.617 -1.201,2.424 -3.602,2.424 -1.488,0 -2.952,-0.576 -4.379,-1.731 -1.275,-1.039 -2.98,-3.504 -5.11,-7.394 -2.188,-4.041 -3.284,-6.889 -3.284,-8.545 0.883,0.383 2.464,1.137 4.745,2.254 2.374,1.267 4.576,3.039 6.613,5.31 0.76,0.846 1.994,2.387 3.698,4.619 C -0.44,-1.906 0,-0.887 0,0 Z m 2.695,-0.172 c 0,-3.773 -1.901,-7.125 -5.704,-10.049 -1.704,-1.31 -5.46,-3.467 -11.266,-6.468 -4.471,-2.272 -7.103,-4.254 -7.89,-5.944 -1.005,-3.16 -1.828,-5.564 -2.467,-7.219 -1.338,-3.425 -2.704,-5.14 -4.105,-5.14 -0.85,0 -1.275,0.539 -1.275,1.615 0,0.848 0.835,2.617 2.506,5.313 0.763,1.154 1.864,2.886 3.308,5.197 1.446,2.308 2.335,4.099 2.668,5.367 l 4.699,7.279 c 1.977,3.424 2.967,6.178 2.967,8.258 -0.247,-0.191 -0.565,-0.435 -0.959,-0.725 -0.395,-0.287 -0.913,-0.585 -1.552,-0.89 -0.456,0.496 -0.685,1.211 -0.685,2.131 0,1.656 2.116,3.275 6.34,4.852 3.589,1.347 6.327,2.023 8.213,2.023 3.467,0 5.202,-1.867 5.202,-5.6 z" /></g><g
           transform="translate(52.7378,91.0747)"
           id="g108"><path
             id="path110"
             style="fill:#466933;fill-opacity:1;fill-rule:nonzero;stroke:none"
             d="m 0,0 c 7.902,-10.536 12.475,-13.128 21.261,-19.065 -6.129,-8.509 -8.825,-12.79 -19.244,-19.893 -8.569,7.259 -13.059,10.634 -22.938,21.952 C -10.782,-12.008 -7.382,-8.038 0,0" /></g><g
           transform="translate(81.8081,121.0518)"
           id="g112"><path
             id="path114"
             style="fill:#466933;fill-opacity:1;fill-rule:nonzero;stroke:none"
             d="M 0,0 C 4.901,-10.094 8.946,-13.351 17.129,-20.521 6.497,-28.382 3.752,-32.832 -2.407,-41.439 c -8.69,5.911 -13.076,8.459 -20.11,18.779 C -15.022,-14.216 -11.497,-9.82 0,0" /></g><g
           transform="translate(80.8696,67.4004)"
           id="g116"><path
             id="path118"
             style="fill:#466933;fill-opacity:1;fill-rule:nonzero;stroke:none"
             d="m 0,0 c 8.689,-5.911 13.078,-8.464 20.113,-18.784 -7.497,-8.449 -11.014,-12.842 -22.515,-22.662 -4.901,10.097 -8.95,13.355 -17.133,20.519 C -8.901,-13.063 -6.157,-8.61 0,0" /></g><g
           transform="translate(105.519,94.9038)"
           id="g120"><path
             id="path122"
             style="fill:#5d617b;fill-opacity:1;fill-rule:nonzero;stroke:none"
             d="M 0,0 C 8.571,-7.268 13.062,-10.64 22.938,-21.959 12.803,-26.96 9.401,-30.934 2.017,-38.973 -5.88,-28.434 -10.457,-25.84 -19.248,-19.902 -13.119,-11.391 -10.414,-7.109 0,0" /></g></g></g></g></svg>