G75*
%MOIN*%
%OFA0B0*%
%FSLAX24Y24*%
%IPPOS*%
%LPD*%
%AMOC8*
5,1,8,0,0,1.08239X$1,22.5*
%
%ADD10C,0.0120*%
%ADD11C,0.0100*%
%ADD12C,0.0070*%
%ADD13C,0.0050*%
%ADD14C,0.0130*%
%ADD15C,0.0060*%
%ADD16C,0.0080*%
%ADD17C,0.0110*%
%ADD18C,0.0190*%
%ADD19C,0.0040*%
%ADD20R,0.0118X0.0059*%
%ADD21R,0.0118X0.0118*%
%ADD22C,0.0030*%
%ADD23C,0.0028*%
%ADD24R,0.0276X0.0118*%
%ADD25C,0.0020*%
%ADD26C,0.0087*%
%ADD27C,0.0010*%
%ADD28R,0.0620X0.0240*%
D10*
X020400Y027450D02*
X019950Y027900D01*
X020400Y027450D02*
X023600Y027450D01*
X027800Y027450D02*
X031000Y027450D01*
X031450Y027900D01*
X032100Y027850D02*
X032450Y028200D01*
X032800Y027850D01*
X032100Y027850D01*
X032250Y027900D02*
X032450Y028100D01*
X032650Y027900D01*
X032350Y027900D01*
X032500Y028000D01*
X033150Y028200D02*
X033500Y027850D01*
X033850Y028200D01*
X033150Y028200D01*
X033300Y028150D02*
X033700Y028150D01*
X033500Y027950D01*
X033350Y028100D01*
X033550Y028100D01*
X033500Y028050D02*
X033500Y028000D01*
D11*
X027529Y027236D02*
X027155Y027236D01*
X027155Y027796D01*
X026921Y027610D02*
X026921Y027236D01*
X026921Y027516D02*
X026548Y027516D01*
X026548Y027610D02*
X026735Y027796D01*
X026921Y027610D01*
X026548Y027610D02*
X026548Y027236D01*
X026127Y027236D02*
X026127Y027796D01*
X025940Y027796D02*
X026314Y027796D01*
X025722Y027796D02*
X025535Y027796D01*
X025628Y027796D02*
X025628Y027236D01*
X025535Y027236D02*
X025722Y027236D01*
X025301Y027329D02*
X025301Y027516D01*
X025114Y027516D01*
X024927Y027703D02*
X024927Y027329D01*
X025021Y027236D01*
X025207Y027236D01*
X025301Y027329D01*
X025301Y027703D02*
X025207Y027796D01*
X025021Y027796D01*
X024927Y027703D01*
X024709Y027796D02*
X024522Y027796D01*
X024615Y027796D02*
X024615Y027236D01*
X024522Y027236D02*
X024709Y027236D01*
X024288Y027329D02*
X024288Y027703D01*
X024195Y027796D01*
X023914Y027796D01*
X023914Y027236D01*
X024195Y027236D01*
X024288Y027329D01*
X027234Y023237D02*
X027234Y023111D01*
X027234Y022857D02*
X027234Y022350D01*
X027107Y022350D02*
X027361Y022350D01*
X027635Y022350D02*
X027635Y022857D01*
X028015Y022857D01*
X028142Y022730D01*
X028142Y022350D01*
X028427Y022477D02*
X028554Y022350D01*
X028807Y022350D01*
X028934Y022477D01*
X028934Y022730D01*
X028807Y022857D01*
X028554Y022857D01*
X028427Y022730D01*
X028427Y022477D01*
X029219Y022477D02*
X029219Y022350D01*
X029346Y022350D01*
X029346Y022477D01*
X029219Y022477D01*
X029615Y022477D02*
X029741Y022350D01*
X030122Y022350D01*
X030407Y022477D02*
X030533Y022350D01*
X030914Y022350D01*
X030407Y022477D02*
X030407Y022730D01*
X030533Y022857D01*
X030914Y022857D01*
X030122Y022857D02*
X029741Y022857D01*
X029615Y022730D01*
X029615Y022477D01*
X027234Y022857D02*
X027107Y022857D01*
X026822Y022857D02*
X026822Y022350D01*
X026442Y022350D01*
X026315Y022477D01*
X026315Y022857D01*
X026030Y022857D02*
X025650Y022857D01*
X025523Y022730D01*
X025523Y022477D01*
X025650Y022350D01*
X026030Y022350D01*
X026030Y023111D01*
X025244Y022857D02*
X025117Y022857D01*
X024863Y022604D01*
X024863Y022857D02*
X024863Y022350D01*
X024579Y022350D02*
X024579Y022730D01*
X024452Y022857D01*
X024198Y022857D01*
X024198Y022604D02*
X024579Y022604D01*
X024579Y022350D02*
X024198Y022350D01*
X024072Y022477D01*
X024198Y022604D01*
X023802Y022477D02*
X023802Y022350D01*
X023676Y022350D01*
X023676Y022477D01*
X023802Y022477D01*
X023391Y022477D02*
X023264Y022350D01*
X023137Y022477D01*
X023011Y022350D01*
X022884Y022477D01*
X022884Y022857D01*
X022599Y022857D02*
X022599Y022477D01*
X022472Y022350D01*
X022345Y022477D01*
X022219Y022350D01*
X022092Y022477D01*
X022092Y022857D01*
X021807Y022857D02*
X021807Y022477D01*
X021680Y022350D01*
X021554Y022477D01*
X021427Y022350D01*
X021300Y022477D01*
X021300Y022857D01*
X023391Y022857D02*
X023391Y022477D01*
X012155Y022377D02*
X012155Y027023D01*
X005954Y027023D01*
X005954Y022377D01*
X012155Y022377D01*
X017050Y028900D02*
X017052Y028920D01*
X017058Y028938D01*
X017067Y028956D01*
X017079Y028971D01*
X017094Y028983D01*
X017112Y028992D01*
X017130Y028998D01*
X017150Y029000D01*
X017170Y028998D01*
X017188Y028992D01*
X017206Y028983D01*
X017221Y028971D01*
X017233Y028956D01*
X017242Y028938D01*
X017248Y028920D01*
X017250Y028900D01*
X017248Y028880D01*
X017242Y028862D01*
X017233Y028844D01*
X017221Y028829D01*
X017206Y028817D01*
X017188Y028808D01*
X017170Y028802D01*
X017150Y028800D01*
X017130Y028802D01*
X017112Y028808D01*
X017094Y028817D01*
X017079Y028829D01*
X017067Y028844D01*
X017058Y028862D01*
X017052Y028880D01*
X017050Y028900D01*
X028587Y012710D02*
X028774Y012524D01*
X028774Y012150D01*
X029008Y012150D02*
X029008Y012710D01*
X029381Y012150D01*
X029381Y012710D01*
X029615Y012524D02*
X029615Y012150D01*
X029615Y012430D02*
X029989Y012430D01*
X029989Y012524D02*
X029989Y012150D01*
X030223Y012150D02*
X030223Y012710D01*
X029989Y012524D02*
X029802Y012710D01*
X029615Y012524D01*
X030223Y012150D02*
X030597Y012150D01*
X030831Y012243D02*
X030831Y012617D01*
X030924Y012710D01*
X031111Y012710D01*
X031205Y012617D01*
X031205Y012243D01*
X031111Y012150D01*
X030924Y012150D01*
X030831Y012243D01*
X031439Y012243D02*
X031439Y012617D01*
X031532Y012710D01*
X031719Y012710D01*
X031812Y012617D01*
X031812Y012430D02*
X031625Y012430D01*
X031812Y012430D02*
X031812Y012243D01*
X031719Y012150D01*
X031532Y012150D01*
X031439Y012243D01*
X032654Y012150D02*
X032841Y012150D01*
X032747Y012150D02*
X032747Y012710D01*
X032654Y012710D02*
X032841Y012710D01*
X033059Y012710D02*
X033433Y012150D01*
X033433Y012710D01*
X033059Y012710D02*
X033059Y012150D01*
X028774Y012430D02*
X028400Y012430D01*
X028400Y012524D02*
X028587Y012710D01*
X028400Y012524D02*
X028400Y012150D01*
D12*
X027121Y011925D02*
X027121Y011435D01*
X026794Y011925D01*
X026794Y011435D01*
X026614Y011435D02*
X026451Y011435D01*
X026532Y011435D02*
X026532Y011925D01*
X026451Y011925D02*
X026614Y011925D01*
X026262Y011925D02*
X026262Y011598D01*
X026098Y011435D01*
X025935Y011598D01*
X025935Y011925D01*
X025597Y011838D02*
X025597Y011512D01*
X025515Y011430D01*
X025270Y011430D01*
X025270Y011920D01*
X025515Y011920D01*
X025597Y011838D01*
X025081Y011920D02*
X025081Y011430D01*
X024754Y011920D01*
X024754Y011430D01*
X024565Y011512D02*
X024565Y011675D01*
X024402Y011675D01*
X024565Y011512D02*
X024484Y011430D01*
X024320Y011430D01*
X024238Y011512D01*
X024238Y011838D01*
X024320Y011920D01*
X024484Y011920D01*
X024565Y011838D01*
X023878Y011925D02*
X023878Y011598D01*
X023714Y011435D01*
X023551Y011598D01*
X023551Y011925D01*
X023362Y011925D02*
X023035Y011925D01*
X023035Y011680D01*
X023198Y011762D01*
X023280Y011762D01*
X023362Y011680D01*
X023362Y011517D01*
X023280Y011435D01*
X023117Y011435D01*
X023035Y011517D01*
X024606Y015735D02*
X024606Y016155D01*
X024816Y016366D01*
X025026Y016155D01*
X025026Y015735D01*
X025026Y016050D02*
X024606Y016050D01*
X025250Y016366D02*
X025671Y016366D01*
X025461Y016366D02*
X025461Y015735D01*
X025895Y015735D02*
X025895Y016366D01*
X026105Y016155D01*
X026315Y016366D01*
X026315Y015735D01*
X026539Y015735D02*
X026960Y015735D01*
X027184Y015840D02*
X027289Y015735D01*
X027499Y015735D01*
X027604Y015840D01*
X027604Y016050D01*
X027394Y016050D01*
X027184Y016260D02*
X027184Y015840D01*
X027184Y016260D02*
X027289Y016366D01*
X027499Y016366D01*
X027604Y016260D01*
X027829Y016155D02*
X028039Y016366D01*
X028249Y016155D01*
X028249Y015735D01*
X028473Y015840D02*
X028578Y015735D01*
X028788Y015735D01*
X028893Y015840D01*
X028893Y015945D01*
X028788Y016050D01*
X028683Y016050D01*
X028788Y016050D02*
X028893Y016155D01*
X028893Y016260D01*
X028788Y016366D01*
X028578Y016366D01*
X028473Y016260D01*
X028249Y016050D02*
X027829Y016050D01*
X027829Y016155D02*
X027829Y015735D01*
X026960Y016366D02*
X026539Y016366D01*
X026539Y015735D01*
X026539Y016050D02*
X026750Y016050D01*
X029118Y016260D02*
X029223Y016366D01*
X029433Y016366D01*
X029538Y016260D01*
X029538Y016155D01*
X029118Y015735D01*
X029538Y015735D01*
X029762Y015840D02*
X029867Y015735D01*
X030078Y015735D01*
X030183Y015840D01*
X030183Y015945D01*
X030078Y016050D01*
X029867Y016050D01*
X029762Y016155D01*
X029762Y016260D01*
X029867Y016366D01*
X030078Y016366D01*
X030183Y016260D01*
X030183Y016155D01*
X030078Y016050D01*
X029867Y016050D02*
X029762Y015945D01*
X029762Y015840D01*
X030407Y015735D02*
X030407Y016366D01*
X030722Y016366D01*
X030827Y016260D01*
X030827Y016050D01*
X030722Y015945D01*
X030407Y015945D01*
X031051Y016050D02*
X031472Y016050D01*
X031696Y015945D02*
X032011Y015945D01*
X032116Y016050D01*
X032116Y016260D01*
X032011Y016366D01*
X031696Y016366D01*
X031696Y015735D01*
X032340Y015840D02*
X032446Y015735D01*
X032656Y015735D01*
X032761Y015840D01*
X032761Y016366D01*
X032340Y016366D02*
X032340Y015840D01*
X023075Y028004D02*
X023075Y028331D01*
X023075Y028167D02*
X022585Y028167D01*
X022748Y028004D01*
X022075Y028004D02*
X022075Y028331D01*
X022075Y028167D02*
X021585Y028167D01*
X021748Y028004D01*
X021075Y028004D02*
X021075Y028331D01*
X021075Y028167D02*
X020585Y028167D01*
X020748Y028004D01*
X020075Y028004D02*
X020075Y028331D01*
X020075Y028167D02*
X019585Y028167D01*
X019748Y028004D01*
X019666Y028519D02*
X019585Y028601D01*
X019585Y028765D01*
X019666Y028846D01*
X019748Y028846D01*
X019830Y028765D01*
X019912Y028846D01*
X019993Y028846D01*
X020075Y028765D01*
X020075Y028601D01*
X019993Y028519D01*
X019830Y028683D02*
X019830Y028765D01*
X020585Y028765D02*
X020666Y028846D01*
X020748Y028846D01*
X021075Y028519D01*
X021075Y028846D01*
X020585Y028765D02*
X020585Y028601D01*
X020666Y028519D01*
X021585Y028683D02*
X022075Y028683D01*
X022075Y028846D02*
X022075Y028519D01*
X021748Y028519D02*
X021585Y028683D01*
X022585Y028765D02*
X022666Y028846D01*
X022993Y028519D01*
X023075Y028601D01*
X023075Y028765D01*
X022993Y028846D01*
X022666Y028846D01*
X022585Y028765D02*
X022585Y028601D01*
X022666Y028519D01*
X022993Y028519D01*
X023585Y028601D02*
X023666Y028519D01*
X023748Y028519D01*
X023830Y028601D01*
X023830Y028846D01*
X023993Y028846D02*
X023666Y028846D01*
X023585Y028765D01*
X023585Y028601D01*
X023993Y028519D02*
X024075Y028601D01*
X024075Y028765D01*
X023993Y028846D01*
X024585Y028765D02*
X024666Y028846D01*
X024748Y028846D01*
X024830Y028765D01*
X024830Y028601D01*
X024748Y028519D01*
X024666Y028519D01*
X024585Y028601D01*
X024585Y028765D01*
X024830Y028765D02*
X024912Y028846D01*
X024993Y028846D01*
X025075Y028765D01*
X025075Y028601D01*
X024993Y028519D01*
X024912Y028519D01*
X024830Y028601D01*
X026185Y028519D02*
X026185Y028846D01*
X026266Y028846D01*
X026593Y028519D01*
X026675Y028519D01*
X027185Y028846D02*
X027266Y028683D01*
X027430Y028519D01*
X027430Y028765D01*
X027512Y028846D01*
X027593Y028846D01*
X027675Y028765D01*
X027675Y028601D01*
X027593Y028519D01*
X027430Y028519D01*
X028185Y028519D02*
X028185Y028846D01*
X028348Y028765D02*
X028430Y028846D01*
X028593Y028846D01*
X028675Y028765D01*
X028675Y028601D01*
X028593Y028519D01*
X028430Y028519D02*
X028348Y028683D01*
X028348Y028765D01*
X028430Y028519D02*
X028185Y028519D01*
X029185Y028765D02*
X029430Y028519D01*
X029430Y028846D01*
X029675Y028765D02*
X029185Y028765D01*
X030185Y028765D02*
X030266Y028846D01*
X030348Y028846D01*
X030430Y028765D01*
X030512Y028846D01*
X030593Y028846D01*
X030675Y028765D01*
X030675Y028601D01*
X030593Y028519D01*
X030430Y028683D02*
X030430Y028765D01*
X030185Y028765D02*
X030185Y028601D01*
X030266Y028519D01*
X031185Y028601D02*
X031266Y028519D01*
X031185Y028601D02*
X031185Y028765D01*
X031266Y028846D01*
X031348Y028846D01*
X031675Y028519D01*
X031675Y028846D01*
X032185Y028683D02*
X032675Y028683D01*
X032675Y028846D02*
X032675Y028519D01*
X032348Y028519D02*
X032185Y028683D01*
X033185Y028765D02*
X033266Y028846D01*
X033593Y028519D01*
X033675Y028601D01*
X033675Y028765D01*
X033593Y028846D01*
X033266Y028846D01*
X033185Y028765D02*
X033185Y028601D01*
X033266Y028519D01*
X033593Y028519D01*
X035409Y030045D02*
X035409Y030535D01*
X035654Y030535D01*
X035736Y030454D01*
X035736Y030290D01*
X035654Y030208D01*
X035409Y030208D01*
X035925Y030208D02*
X036088Y030372D01*
X036170Y030372D01*
X036354Y030290D02*
X036354Y030127D01*
X036436Y030045D01*
X036599Y030045D01*
X036681Y030127D01*
X036681Y030290D01*
X036599Y030372D01*
X036436Y030372D01*
X036354Y030290D01*
X036314Y029875D02*
X036314Y029385D01*
X036641Y029385D01*
X036829Y029385D02*
X036993Y029385D01*
X036911Y029385D02*
X036911Y029712D01*
X036829Y029712D01*
X036911Y029875D02*
X036911Y029957D01*
X037033Y030045D02*
X036952Y030127D01*
X036952Y030454D01*
X036870Y030372D02*
X037033Y030372D01*
X037214Y030290D02*
X037214Y030127D01*
X037295Y030045D01*
X037459Y030045D01*
X037541Y030127D01*
X037541Y030290D01*
X037459Y030372D01*
X037295Y030372D01*
X037214Y030290D01*
X037729Y030372D02*
X037893Y030372D01*
X037811Y030454D02*
X037811Y030127D01*
X037893Y030045D01*
X037770Y029957D02*
X037770Y029875D01*
X037770Y029712D02*
X037770Y029385D01*
X037689Y029385D02*
X037852Y029385D01*
X038114Y029467D02*
X038196Y029385D01*
X038114Y029467D02*
X038114Y029794D01*
X038032Y029712D02*
X038196Y029712D01*
X038237Y029882D02*
X038318Y029882D01*
X038400Y029963D01*
X038400Y030372D01*
X038589Y030372D02*
X038589Y029882D01*
X038589Y030045D02*
X038834Y030045D01*
X038916Y030127D01*
X038916Y030290D01*
X038834Y030372D01*
X038589Y030372D01*
X038400Y030045D02*
X038155Y030045D01*
X038073Y030127D01*
X038073Y030372D01*
X037770Y029712D02*
X037689Y029712D01*
X037500Y029630D02*
X037500Y029385D01*
X037337Y029385D02*
X037337Y029630D01*
X037418Y029712D01*
X037500Y029630D01*
X037337Y029630D02*
X037255Y029712D01*
X037173Y029712D01*
X037173Y029385D01*
X038376Y029467D02*
X038376Y029630D01*
X038458Y029712D01*
X038621Y029712D01*
X038703Y029630D01*
X038703Y029548D01*
X038376Y029548D01*
X038376Y029467D02*
X038458Y029385D01*
X038621Y029385D01*
X038892Y029467D02*
X038892Y029630D01*
X038974Y029712D01*
X039219Y029712D01*
X039219Y029875D02*
X039219Y029385D01*
X038974Y029385D01*
X038892Y029467D01*
X039186Y030045D02*
X039104Y030127D01*
X039104Y030290D01*
X039186Y030372D01*
X039350Y030372D01*
X039431Y030290D01*
X039431Y030208D01*
X039104Y030208D01*
X039186Y030045D02*
X039350Y030045D01*
X040561Y030073D02*
X040561Y030563D01*
X040888Y030563D01*
X040725Y030318D02*
X040561Y030318D01*
X040561Y030073D02*
X040888Y030073D01*
X041077Y030154D02*
X041159Y030073D01*
X041404Y030073D01*
X041404Y030563D01*
X041404Y030399D02*
X041159Y030399D01*
X041077Y030318D01*
X041077Y030154D01*
X041592Y030073D02*
X041756Y030073D01*
X041674Y030073D02*
X041674Y030399D01*
X041592Y030399D01*
X041674Y030563D02*
X041674Y030645D01*
X041936Y030399D02*
X042100Y030399D01*
X042018Y030481D02*
X042018Y030154D01*
X042100Y030073D01*
X042280Y030073D02*
X042443Y030073D01*
X042362Y030073D02*
X042362Y030399D01*
X042280Y030399D01*
X042362Y030563D02*
X042362Y030645D01*
X042624Y030318D02*
X042624Y030154D01*
X042705Y030073D01*
X042869Y030073D01*
X042951Y030154D01*
X042951Y030318D01*
X042869Y030399D01*
X042705Y030399D01*
X042624Y030318D01*
X043139Y030399D02*
X043385Y030399D01*
X043466Y030318D01*
X043466Y030073D01*
X043139Y030073D02*
X043139Y030399D01*
X035925Y030372D02*
X035925Y030045D01*
D13*
X030925Y023036D02*
X030700Y022810D01*
X030775Y022735D02*
X030475Y023036D01*
X030475Y022735D02*
X030925Y022735D01*
X030925Y022575D02*
X030925Y022275D01*
X030925Y022425D02*
X030475Y022425D01*
X030625Y022275D01*
X032500Y020742D02*
X032575Y020818D01*
X032725Y020818D01*
X032800Y020742D01*
X032800Y020517D01*
X032950Y020517D02*
X032500Y020517D01*
X032500Y020742D01*
X032575Y020357D02*
X032500Y020282D01*
X032500Y020132D01*
X032575Y020057D01*
X032650Y020057D01*
X032725Y020132D01*
X032725Y020282D01*
X032800Y020357D01*
X032875Y020357D01*
X032950Y020282D01*
X032950Y020132D01*
X032875Y020057D01*
X032875Y019897D02*
X032950Y019822D01*
X032950Y019672D01*
X032875Y019596D01*
X032575Y019596D01*
X032500Y019672D01*
X032500Y019822D01*
X032575Y019897D01*
X032500Y019440D02*
X032500Y019290D01*
X032500Y019365D02*
X032950Y019365D01*
X032950Y019290D02*
X032950Y019440D01*
X026137Y012770D02*
X026137Y012620D01*
X026062Y012545D01*
X025837Y012545D01*
X025987Y012545D02*
X026137Y012395D01*
X025837Y012395D02*
X025837Y012845D01*
X026062Y012845D01*
X026137Y012770D01*
X025676Y012845D02*
X025376Y012845D01*
X025376Y012395D01*
X025676Y012395D01*
X025526Y012620D02*
X025376Y012620D01*
X025216Y012395D02*
X025216Y012845D01*
X024916Y012845D02*
X024916Y012395D01*
X025066Y012545D01*
X025216Y012395D01*
X024756Y012470D02*
X024756Y012770D01*
X024681Y012845D01*
X024530Y012845D01*
X024455Y012770D01*
X024455Y012470D01*
X024530Y012395D01*
X024681Y012395D01*
X024756Y012470D01*
X024295Y012620D02*
X024295Y012770D01*
X024220Y012845D01*
X023995Y012845D01*
X023995Y012395D01*
X023995Y012545D02*
X024220Y012545D01*
X024295Y012620D01*
X028156Y011663D02*
X028272Y011780D01*
X028389Y011663D01*
X028389Y011430D01*
X028524Y011488D02*
X028757Y011722D01*
X028757Y011488D01*
X028699Y011430D01*
X028582Y011430D01*
X028524Y011488D01*
X028524Y011722D01*
X028582Y011780D01*
X028699Y011780D01*
X028757Y011722D01*
X028389Y011605D02*
X028156Y011605D01*
X028156Y011663D02*
X028156Y011430D01*
X029156Y011430D02*
X029156Y011663D01*
X029272Y011780D01*
X029389Y011663D01*
X029389Y011430D01*
X029524Y011430D02*
X029757Y011430D01*
X029641Y011430D02*
X029641Y011780D01*
X029524Y011663D01*
X029389Y011605D02*
X029156Y011605D01*
X030156Y011605D02*
X030389Y011605D01*
X030389Y011663D02*
X030389Y011430D01*
X030524Y011430D02*
X030757Y011663D01*
X030757Y011722D01*
X030699Y011780D01*
X030582Y011780D01*
X030524Y011722D01*
X030389Y011663D02*
X030272Y011780D01*
X030156Y011663D01*
X030156Y011430D01*
X030524Y011430D02*
X030757Y011430D01*
X031156Y011430D02*
X031156Y011663D01*
X031272Y011780D01*
X031389Y011663D01*
X031389Y011430D01*
X031524Y011488D02*
X031582Y011430D01*
X031699Y011430D01*
X031757Y011488D01*
X031757Y011547D01*
X031699Y011605D01*
X031641Y011605D01*
X031699Y011605D02*
X031757Y011663D01*
X031757Y011722D01*
X031699Y011780D01*
X031582Y011780D01*
X031524Y011722D01*
X031389Y011605D02*
X031156Y011605D01*
X032156Y011605D02*
X032389Y011605D01*
X032389Y011663D02*
X032389Y011430D01*
X032524Y011605D02*
X032699Y011780D01*
X032699Y011430D01*
X032757Y011605D02*
X032524Y011605D01*
X032389Y011663D02*
X032272Y011780D01*
X032156Y011663D01*
X032156Y011430D01*
X033156Y011430D02*
X033156Y011663D01*
X033272Y011780D01*
X033389Y011663D01*
X033389Y011430D01*
X033524Y011488D02*
X033582Y011430D01*
X033699Y011430D01*
X033757Y011488D01*
X033757Y011605D01*
X033699Y011663D01*
X033641Y011663D01*
X033524Y011605D01*
X033524Y011780D01*
X033757Y011780D01*
X033389Y011605D02*
X033156Y011605D01*
X019415Y013075D02*
X019415Y013375D01*
X019415Y013075D02*
X019190Y013075D01*
X019115Y013150D01*
X019115Y013375D01*
X018954Y013450D02*
X018654Y013150D01*
X018654Y013075D01*
X018419Y013075D02*
X018419Y013525D01*
X018194Y013300D01*
X018494Y013300D01*
X018654Y013525D02*
X018954Y013525D01*
X018954Y013450D01*
X016565Y013375D02*
X016565Y013075D01*
X016340Y013075D01*
X016265Y013150D01*
X016265Y013375D01*
X016104Y013450D02*
X015804Y013150D01*
X015804Y013075D01*
X015569Y013075D02*
X015569Y013525D01*
X015344Y013300D01*
X015644Y013300D01*
X015804Y013525D02*
X016104Y013525D01*
X016104Y013450D01*
X013050Y014000D02*
X013050Y014540D01*
X009110Y014540D01*
X009110Y011010D01*
X007740Y011000D02*
X010800Y011000D01*
X012925Y011000D02*
X013050Y011000D01*
X013050Y011875D01*
X009110Y014540D02*
X007740Y014540D01*
X007740Y011000D01*
X012375Y017502D02*
X012375Y017803D01*
X012375Y017963D02*
X012375Y018188D01*
X012450Y018263D01*
X012750Y018263D01*
X012825Y018188D01*
X012825Y017963D01*
X012375Y017963D01*
X012600Y017652D02*
X012600Y017502D01*
X012825Y017502D02*
X012375Y017502D01*
X012375Y018423D02*
X012825Y018723D01*
X012375Y018723D01*
X012450Y018883D02*
X012375Y018958D01*
X012375Y019109D01*
X012450Y019184D01*
X012525Y019184D01*
X012600Y019109D01*
X012675Y019184D01*
X012750Y019184D01*
X012825Y019109D01*
X012825Y018958D01*
X012750Y018883D01*
X012675Y018825D02*
X012825Y018975D01*
X012825Y018525D01*
X012825Y018423D02*
X012375Y018423D01*
X012364Y018525D02*
X012064Y018525D01*
X012064Y018975D01*
X012525Y018975D02*
X012675Y018825D01*
X012525Y018975D02*
X012525Y018525D01*
X012985Y018675D02*
X012985Y018975D01*
X012985Y018675D02*
X013135Y018525D01*
X013285Y018675D01*
X013285Y018975D01*
X013445Y018900D02*
X013520Y018975D01*
X013671Y018975D01*
X013746Y018900D01*
X013746Y018825D01*
X013671Y018750D01*
X013746Y018675D01*
X013746Y018600D01*
X013671Y018525D01*
X013520Y018525D01*
X013445Y018600D01*
X013595Y018750D02*
X013671Y018750D01*
X013906Y018750D02*
X014056Y018825D01*
X014131Y018825D01*
X014206Y018750D01*
X014206Y018600D01*
X014131Y018525D01*
X013981Y018525D01*
X013906Y018600D01*
X013906Y018750D02*
X013906Y018975D01*
X014206Y018975D01*
X014366Y018900D02*
X014366Y018825D01*
X014441Y018750D01*
X014591Y018750D01*
X014666Y018675D01*
X014666Y018600D01*
X014591Y018525D01*
X014441Y018525D01*
X014366Y018600D01*
X014366Y018675D01*
X014441Y018750D01*
X014591Y018750D02*
X014666Y018825D01*
X014666Y018900D01*
X014591Y018975D01*
X014441Y018975D01*
X014366Y018900D01*
X014826Y018975D02*
X014977Y018975D01*
X014902Y018975D02*
X014902Y018525D01*
X014977Y018525D02*
X014826Y018525D01*
X015133Y018525D02*
X015133Y018975D01*
X015359Y018975D01*
X015434Y018900D01*
X015434Y018600D01*
X015359Y018525D01*
X015133Y018525D01*
X015594Y018600D02*
X015669Y018525D01*
X015819Y018525D01*
X015894Y018600D01*
X015894Y018750D01*
X015744Y018750D01*
X015594Y018900D02*
X015594Y018600D01*
X015594Y018900D02*
X015669Y018975D01*
X015819Y018975D01*
X015894Y018900D01*
X016054Y018975D02*
X016054Y018525D01*
X016054Y018675D02*
X016354Y018975D01*
X016515Y018975D02*
X016740Y018975D01*
X016815Y018900D01*
X016815Y018750D01*
X016740Y018675D01*
X016515Y018675D01*
X016665Y018675D02*
X016815Y018525D01*
X016515Y018525D02*
X016515Y018975D01*
X016129Y018750D02*
X016354Y018525D01*
X018475Y018525D02*
X018925Y018525D01*
X018925Y018375D02*
X018925Y018675D01*
X018850Y018835D02*
X018550Y018835D01*
X018475Y018910D01*
X018475Y019061D01*
X018550Y019136D01*
X018850Y018835D01*
X018925Y018910D01*
X018925Y019061D01*
X018850Y019136D01*
X018550Y019136D01*
X018475Y019296D02*
X018925Y019296D01*
X018775Y019296D02*
X018475Y019596D01*
X018700Y019371D02*
X018925Y019596D01*
X018475Y018525D02*
X018625Y018375D01*
X018620Y020925D02*
X018800Y020925D01*
X018914Y020970D02*
X018959Y020925D01*
X019049Y020925D01*
X019094Y020970D01*
X019094Y021015D01*
X019049Y021060D01*
X018959Y021060D01*
X018914Y021105D01*
X018914Y021150D01*
X018959Y021195D01*
X019049Y021195D01*
X019094Y021150D01*
X019209Y021195D02*
X019209Y020925D01*
X019389Y020925D01*
X019299Y021060D02*
X019209Y021060D01*
X019209Y021195D02*
X019389Y021195D01*
X019504Y021195D02*
X019684Y021195D01*
X019594Y021195D02*
X019594Y020925D01*
X019798Y021060D02*
X019978Y021060D01*
X020093Y021060D02*
X020183Y021060D01*
X020093Y020925D02*
X020273Y020925D01*
X020388Y020925D02*
X020388Y021195D01*
X020568Y020925D01*
X020568Y021195D01*
X020273Y021195D02*
X020093Y021195D01*
X020093Y020925D01*
X018800Y021195D02*
X018620Y021195D01*
X018620Y020925D01*
X018505Y020925D02*
X018415Y021015D01*
X018460Y021015D02*
X018325Y021015D01*
X018325Y020925D02*
X018325Y021195D01*
X018460Y021195D01*
X018505Y021150D01*
X018505Y021060D01*
X018460Y021015D01*
X018620Y021060D02*
X018710Y021060D01*
X017765Y021075D02*
X017465Y021075D01*
X017765Y021375D01*
X017465Y021375D01*
X017304Y021300D02*
X017004Y021300D01*
X017004Y021075D02*
X017004Y021525D01*
X016844Y021525D02*
X016844Y021075D01*
X016544Y021075D02*
X016544Y021525D01*
X016694Y021375D01*
X016844Y021525D01*
X016384Y021525D02*
X016234Y021450D01*
X016083Y021300D01*
X016309Y021300D01*
X016384Y021225D01*
X016384Y021150D01*
X016309Y021075D01*
X016158Y021075D01*
X016083Y021150D01*
X016083Y021300D01*
X015923Y021075D02*
X015623Y021075D01*
X015773Y021075D02*
X015773Y021525D01*
X015623Y021375D01*
X017304Y021525D02*
X017304Y021075D01*
X017284Y022366D02*
X015441Y022366D01*
X015316Y022491D01*
X015316Y024334D01*
X017284Y024334D01*
X017284Y022366D01*
X015546Y022720D02*
X015548Y022742D01*
X015553Y022762D01*
X015563Y022782D01*
X015575Y022800D01*
X015590Y022815D01*
X015608Y022827D01*
X015628Y022837D01*
X015648Y022842D01*
X015670Y022844D01*
X015692Y022842D01*
X015712Y022837D01*
X015732Y022827D01*
X015750Y022815D01*
X015765Y022800D01*
X015777Y022782D01*
X015787Y022762D01*
X015792Y022742D01*
X015794Y022720D01*
X015792Y022698D01*
X015787Y022678D01*
X015777Y022658D01*
X015765Y022640D01*
X015750Y022625D01*
X015732Y022613D01*
X015712Y022603D01*
X015692Y022598D01*
X015670Y022596D01*
X015648Y022598D01*
X015628Y022603D01*
X015608Y022613D01*
X015590Y022625D01*
X015575Y022640D01*
X015563Y022658D01*
X015553Y022678D01*
X015548Y022698D01*
X015546Y022720D01*
X012975Y023475D02*
X012675Y023775D01*
X012600Y023775D01*
X012525Y023700D01*
X012525Y023550D01*
X012600Y023475D01*
X012975Y023475D02*
X012975Y023775D01*
X012975Y023935D02*
X012675Y024236D01*
X012600Y024236D01*
X012525Y024161D01*
X012525Y024010D01*
X012600Y023935D01*
X012975Y023935D02*
X012975Y024236D01*
X012975Y024396D02*
X012525Y024396D01*
X012525Y024621D01*
X012600Y024696D01*
X012750Y024696D01*
X012825Y024621D01*
X012825Y024396D01*
X012825Y024546D02*
X012975Y024696D01*
X011962Y027450D02*
X010978Y027450D01*
X011344Y028284D02*
X010556Y028284D01*
X010556Y028363D01*
X009828Y028363D01*
X009828Y028953D01*
X009730Y028953D01*
X009730Y029347D01*
X009828Y029347D01*
X009828Y029937D01*
X010556Y029937D01*
X010556Y029859D01*
X011344Y029859D01*
X011344Y029937D01*
X012072Y029937D01*
X012072Y028363D01*
X011344Y028363D01*
X011344Y028441D01*
X010556Y028441D01*
X010556Y028363D01*
X011344Y028363D02*
X011344Y028284D01*
X010478Y029150D02*
X010480Y029193D01*
X010486Y029235D01*
X010496Y029277D01*
X010509Y029318D01*
X010526Y029358D01*
X010547Y029395D01*
X010571Y029431D01*
X010598Y029464D01*
X010628Y029495D01*
X010661Y029523D01*
X010696Y029548D01*
X010733Y029569D01*
X010772Y029587D01*
X010812Y029601D01*
X010854Y029612D01*
X010896Y029619D01*
X010939Y029622D01*
X010982Y029621D01*
X011025Y029616D01*
X011067Y029607D01*
X011108Y029595D01*
X011148Y029579D01*
X011186Y029559D01*
X011222Y029536D01*
X011256Y029509D01*
X011288Y029480D01*
X011316Y029448D01*
X011342Y029413D01*
X011364Y029377D01*
X011383Y029338D01*
X011398Y029298D01*
X011410Y029257D01*
X011418Y029214D01*
X011422Y029171D01*
X011422Y029129D01*
X011418Y029086D01*
X011410Y029043D01*
X011398Y029002D01*
X011383Y028962D01*
X011364Y028923D01*
X011342Y028887D01*
X011316Y028852D01*
X011288Y028820D01*
X011256Y028791D01*
X011222Y028764D01*
X011186Y028741D01*
X011148Y028721D01*
X011108Y028705D01*
X011067Y028693D01*
X011025Y028684D01*
X010982Y028679D01*
X010939Y028678D01*
X010896Y028681D01*
X010854Y028688D01*
X010812Y028699D01*
X010772Y028713D01*
X010733Y028731D01*
X010696Y028752D01*
X010661Y028777D01*
X010628Y028805D01*
X010598Y028836D01*
X010571Y028869D01*
X010547Y028905D01*
X010526Y028942D01*
X010509Y028982D01*
X010496Y029023D01*
X010486Y029065D01*
X010480Y029107D01*
X010478Y029150D01*
X010359Y029150D02*
X010361Y029198D01*
X010367Y029246D01*
X010377Y029293D01*
X010390Y029339D01*
X010408Y029384D01*
X010428Y029428D01*
X010453Y029470D01*
X010481Y029509D01*
X010511Y029546D01*
X010545Y029580D01*
X010582Y029612D01*
X010620Y029641D01*
X010661Y029666D01*
X010704Y029688D01*
X010749Y029706D01*
X010795Y029720D01*
X010842Y029731D01*
X010890Y029738D01*
X010938Y029741D01*
X010986Y029740D01*
X011034Y029735D01*
X011082Y029726D01*
X011128Y029714D01*
X011173Y029697D01*
X011217Y029677D01*
X011259Y029654D01*
X011299Y029627D01*
X011337Y029597D01*
X011372Y029564D01*
X011404Y029528D01*
X011434Y029490D01*
X011460Y029449D01*
X011482Y029406D01*
X011502Y029362D01*
X011517Y029317D01*
X011529Y029270D01*
X011537Y029222D01*
X011541Y029174D01*
X011541Y029126D01*
X011537Y029078D01*
X011529Y029030D01*
X011517Y028983D01*
X011502Y028938D01*
X011482Y028894D01*
X011460Y028851D01*
X011434Y028810D01*
X011404Y028772D01*
X011372Y028736D01*
X011337Y028703D01*
X011299Y028673D01*
X011259Y028646D01*
X011217Y028623D01*
X011173Y028603D01*
X011128Y028586D01*
X011082Y028574D01*
X011034Y028565D01*
X010986Y028560D01*
X010938Y028559D01*
X010890Y028562D01*
X010842Y028569D01*
X010795Y028580D01*
X010749Y028594D01*
X010704Y028612D01*
X010661Y028634D01*
X010620Y028659D01*
X010582Y028688D01*
X010545Y028720D01*
X010511Y028754D01*
X010481Y028791D01*
X010453Y028830D01*
X010428Y028872D01*
X010408Y028916D01*
X010390Y028961D01*
X010377Y029007D01*
X010367Y029054D01*
X010361Y029102D01*
X010359Y029150D01*
X010556Y029937D02*
X010556Y030016D01*
X011344Y030016D01*
X011344Y029937D01*
X008132Y030025D02*
X007999Y030025D01*
X008065Y030025D02*
X008065Y030292D01*
X007999Y030292D01*
X007851Y030292D02*
X007584Y030025D01*
X007851Y030025D01*
X007851Y030292D02*
X007584Y030292D01*
X007437Y030225D02*
X007437Y030025D01*
X007437Y030225D02*
X007370Y030292D01*
X007170Y030292D01*
X007170Y030025D01*
X007023Y030025D02*
X006822Y030025D01*
X006756Y030092D01*
X006822Y030158D01*
X007023Y030158D01*
X007023Y030225D02*
X007023Y030025D01*
X007023Y030225D02*
X006956Y030292D01*
X006822Y030292D01*
X006608Y030292D02*
X006542Y030225D01*
X006341Y030225D01*
X006201Y030092D02*
X006201Y030025D01*
X006134Y030025D01*
X006134Y030092D01*
X006201Y030092D01*
X006341Y030025D02*
X006542Y030025D01*
X006608Y030092D01*
X006608Y030158D01*
X006542Y030225D01*
X006608Y030292D02*
X006608Y030359D01*
X006542Y030425D01*
X006341Y030425D01*
X006341Y030025D01*
X006240Y029742D02*
X006240Y029675D01*
X006240Y029542D02*
X006240Y029275D01*
X006173Y029275D02*
X006307Y029275D01*
X006449Y029342D02*
X006449Y029475D01*
X006516Y029542D01*
X006650Y029542D01*
X006716Y029475D01*
X006716Y029408D01*
X006449Y029408D01*
X006449Y029342D02*
X006516Y029275D01*
X006650Y029275D01*
X006726Y029075D02*
X006859Y029075D01*
X006792Y029075D02*
X006792Y028675D01*
X006726Y028675D02*
X006859Y028675D01*
X007002Y028742D02*
X007069Y028675D01*
X007269Y028675D01*
X007269Y028608D02*
X007269Y028942D01*
X007069Y028942D01*
X007002Y028875D01*
X007002Y028742D01*
X007135Y028542D02*
X007202Y028542D01*
X007269Y028608D01*
X007207Y028492D02*
X007207Y028425D01*
X007207Y028292D02*
X007207Y028025D01*
X007140Y028025D02*
X007274Y028025D01*
X007416Y028025D02*
X007416Y028292D01*
X007616Y028292D01*
X007683Y028225D01*
X007683Y028025D01*
X007831Y028092D02*
X007831Y028225D01*
X007897Y028292D01*
X008031Y028292D01*
X008098Y028225D01*
X008098Y028092D01*
X008031Y028025D01*
X007897Y028025D01*
X007831Y028092D01*
X007621Y027842D02*
X007621Y027775D01*
X007621Y027642D02*
X007621Y027375D01*
X007554Y027375D02*
X007688Y027375D01*
X007831Y027375D02*
X008031Y027375D01*
X008098Y027442D01*
X008031Y027508D01*
X007897Y027508D01*
X007831Y027575D01*
X007897Y027642D01*
X008098Y027642D01*
X007621Y027642D02*
X007554Y027642D01*
X007345Y027775D02*
X007345Y027375D01*
X007278Y027375D02*
X007412Y027375D01*
X007135Y027375D02*
X007002Y027375D01*
X007069Y027375D02*
X007069Y027775D01*
X007002Y027775D01*
X006854Y027575D02*
X006854Y027508D01*
X006588Y027508D01*
X006588Y027442D02*
X006588Y027575D01*
X006654Y027642D01*
X006788Y027642D01*
X006854Y027575D01*
X006788Y027375D02*
X006654Y027375D01*
X006588Y027442D01*
X006440Y027375D02*
X006440Y027775D01*
X006307Y027642D01*
X006173Y027775D01*
X006173Y027375D01*
X006033Y027375D02*
X005966Y027375D01*
X005966Y027442D01*
X006033Y027442D01*
X006033Y027375D01*
X005819Y027442D02*
X005819Y027709D01*
X005752Y027775D01*
X005552Y027775D01*
X005552Y027375D01*
X005752Y027375D01*
X005819Y027442D01*
X005690Y028025D02*
X005690Y028425D01*
X005823Y028292D01*
X005957Y028425D01*
X005957Y028025D01*
X006104Y028092D02*
X006171Y028158D01*
X006371Y028158D01*
X006371Y028225D02*
X006371Y028025D01*
X006171Y028025D01*
X006104Y028092D01*
X006171Y028292D02*
X006304Y028292D01*
X006371Y028225D01*
X006519Y028158D02*
X006652Y028292D01*
X006719Y028292D01*
X006864Y028292D02*
X006997Y028292D01*
X006931Y028359D02*
X006931Y028092D01*
X006997Y028025D01*
X007140Y028292D02*
X007207Y028292D01*
X007483Y028675D02*
X007416Y028742D01*
X007416Y028875D01*
X007483Y028942D01*
X007616Y028942D01*
X007683Y028875D01*
X007683Y028742D01*
X007616Y028675D01*
X007483Y028675D01*
X007831Y028742D02*
X007831Y028875D01*
X007897Y028942D01*
X008031Y028942D01*
X008098Y028875D01*
X008098Y028808D01*
X007831Y028808D01*
X007831Y028742D02*
X007897Y028675D01*
X008031Y028675D01*
X008031Y029275D02*
X008098Y029342D01*
X008031Y029408D01*
X007897Y029408D01*
X007831Y029475D01*
X007897Y029542D01*
X008098Y029542D01*
X008031Y029275D02*
X007831Y029275D01*
X007683Y029408D02*
X007416Y029408D01*
X007416Y029342D02*
X007416Y029475D01*
X007483Y029542D01*
X007616Y029542D01*
X007683Y029475D01*
X007683Y029408D01*
X007616Y029275D02*
X007483Y029275D01*
X007416Y029342D01*
X007273Y029275D02*
X007140Y029275D01*
X007207Y029275D02*
X007207Y029675D01*
X007140Y029675D01*
X006931Y029675D02*
X006931Y029275D01*
X006997Y029275D02*
X006864Y029275D01*
X006864Y029675D02*
X006931Y029675D01*
X006240Y029542D02*
X006173Y029542D01*
X006030Y029542D02*
X005897Y029542D01*
X005964Y029609D02*
X005964Y029342D01*
X006030Y029275D01*
X006104Y029075D02*
X006371Y029075D01*
X006238Y029075D02*
X006238Y028675D01*
X006519Y028675D02*
X006585Y028675D01*
X006585Y028742D01*
X006519Y028742D01*
X006519Y028675D01*
X006519Y028292D02*
X006519Y028025D01*
X005549Y028025D02*
X005483Y028025D01*
X005483Y028092D01*
X005549Y028092D01*
X005549Y028025D01*
X005335Y028092D02*
X005335Y028225D01*
X005202Y028225D01*
X005335Y028092D02*
X005268Y028025D01*
X005135Y028025D01*
X005068Y028092D01*
X005068Y028359D01*
X005135Y028425D01*
X005268Y028425D01*
X005335Y028359D01*
X005404Y029275D02*
X005204Y029275D01*
X005137Y029342D01*
X005204Y029408D01*
X005404Y029408D01*
X005404Y029475D02*
X005404Y029275D01*
X005552Y029275D02*
X005552Y029542D01*
X005685Y029542D02*
X005752Y029542D01*
X005685Y029542D02*
X005552Y029408D01*
X005404Y029475D02*
X005338Y029542D01*
X005204Y029542D01*
X004990Y029542D02*
X004990Y029275D01*
X004790Y029275D01*
X004723Y029342D01*
X004723Y029542D01*
X004576Y029609D02*
X004509Y029675D01*
X004375Y029675D01*
X004309Y029609D01*
X004309Y029342D01*
X004375Y029275D01*
X004509Y029275D01*
X004576Y029342D01*
X004168Y029342D02*
X004168Y029275D01*
X004101Y029275D01*
X004101Y029342D01*
X004168Y029342D01*
X003954Y029342D02*
X003954Y029609D01*
X003887Y029675D01*
X003687Y029675D01*
X003687Y029275D01*
X003887Y029275D01*
X003954Y029342D01*
X005720Y030025D02*
X005720Y030425D01*
X005853Y030292D01*
X005987Y030425D01*
X005987Y030025D01*
X008065Y030425D02*
X008065Y030492D01*
X007345Y027775D02*
X007278Y027775D01*
X012450Y020565D02*
X012600Y020565D01*
X012675Y020490D01*
X012675Y020265D01*
X012825Y020265D02*
X012375Y020265D01*
X012375Y020490D01*
X012450Y020565D01*
X012450Y020104D02*
X012750Y019804D01*
X012825Y019879D01*
X012825Y020029D01*
X012750Y020104D01*
X012450Y020104D01*
X012375Y020029D01*
X012375Y019879D01*
X012450Y019804D01*
X012750Y019804D01*
X012600Y019644D02*
X012600Y019344D01*
X012375Y019569D01*
X012825Y019569D01*
X012600Y019109D02*
X012600Y019034D01*
X019975Y025204D02*
X020125Y025054D01*
X019975Y025204D02*
X020425Y025204D01*
X020425Y025054D02*
X020425Y025354D01*
X020425Y025515D02*
X019975Y025515D01*
X020200Y025590D02*
X020425Y025815D01*
X020275Y025515D02*
X019975Y025815D01*
D14*
X024515Y025412D02*
X024515Y024765D01*
X025162Y024765D02*
X025162Y025412D01*
X024839Y025736D01*
X024515Y025412D01*
X024515Y025250D02*
X025162Y025250D01*
X025528Y025089D02*
X025851Y025412D01*
X026013Y025412D01*
X026372Y025250D02*
X026534Y025412D01*
X027019Y025412D01*
X027019Y025736D02*
X027019Y024765D01*
X026534Y024765D01*
X026372Y024927D01*
X026372Y025250D01*
X025528Y025412D02*
X025528Y024765D01*
X027385Y024927D02*
X027547Y024765D01*
X028032Y024765D01*
X028032Y025412D01*
X028398Y025412D02*
X028559Y025412D01*
X028559Y024765D01*
X028398Y024765D02*
X028721Y024765D01*
X029073Y024765D02*
X029073Y025412D01*
X029558Y025412D01*
X029720Y025250D01*
X029720Y024765D01*
X030086Y024927D02*
X030248Y024765D01*
X030571Y024765D01*
X030733Y024927D01*
X030733Y025250D01*
X030571Y025412D01*
X030248Y025412D01*
X030086Y025250D01*
X030086Y024927D01*
X028559Y025736D02*
X028559Y025898D01*
X027385Y025412D02*
X027385Y024927D01*
D15*
X027003Y026680D02*
X026876Y026680D01*
X027003Y026680D02*
X027003Y027060D01*
X026876Y027060D01*
X026724Y027060D02*
X026724Y026680D01*
X026471Y026680D02*
X026471Y027060D01*
X026597Y026934D01*
X026724Y027060D01*
X026319Y027060D02*
X026319Y026680D01*
X026192Y026807D01*
X026066Y026680D01*
X026066Y027060D01*
X025914Y026997D02*
X025914Y026870D01*
X025851Y026807D01*
X025660Y026807D01*
X025660Y026680D02*
X025660Y027060D01*
X025851Y027060D01*
X025914Y026997D01*
X025509Y026934D02*
X025255Y026934D01*
X025255Y026807D02*
X025509Y026807D01*
X025104Y026807D02*
X024850Y026807D01*
X024850Y026934D02*
X025040Y026934D01*
X025104Y026934D01*
X025040Y027060D02*
X025040Y026680D01*
X024913Y026680D02*
X024913Y027060D01*
X024707Y027060D02*
X024580Y027060D01*
X024580Y026680D01*
X024707Y026680D01*
X023070Y027643D02*
X022690Y027643D01*
X022690Y027770D02*
X023070Y027770D01*
X022943Y027834D02*
X022943Y027580D01*
X022816Y027580D02*
X022816Y027770D01*
X022816Y027834D01*
X023640Y028143D02*
X024020Y028143D01*
X024020Y028270D02*
X023640Y028270D01*
X023766Y028270D02*
X023766Y028334D01*
X023766Y028270D02*
X023766Y028080D01*
X023893Y028080D02*
X023893Y028334D01*
X024100Y029200D02*
X023600Y029200D01*
X023350Y029450D01*
X023350Y029950D01*
X023600Y030200D01*
X024100Y030200D01*
X024350Y029950D01*
X024600Y030200D01*
X025100Y030200D01*
X025350Y029950D01*
X025350Y029450D01*
X025100Y029200D01*
X024600Y029200D01*
X024350Y029450D01*
X024100Y029200D01*
X024350Y029450D02*
X024350Y029950D01*
X023350Y029950D02*
X023100Y030200D01*
X022600Y030200D01*
X022350Y029950D01*
X022100Y030200D01*
X021600Y030200D01*
X021350Y029950D01*
X021100Y030200D01*
X020600Y030200D01*
X020350Y029950D01*
X020350Y029450D01*
X020600Y029200D01*
X021100Y029200D01*
X021350Y029450D01*
X021350Y029950D01*
X021350Y029450D02*
X021600Y029200D01*
X022100Y029200D01*
X022350Y029450D01*
X022350Y029950D01*
X022350Y029450D02*
X022600Y029200D01*
X023100Y029200D01*
X023350Y029450D01*
X021943Y027834D02*
X021943Y027580D01*
X021816Y027580D02*
X021816Y027770D01*
X021816Y027834D01*
X021690Y027770D02*
X022070Y027770D01*
X022070Y027643D02*
X021690Y027643D01*
X020100Y029200D02*
X019600Y029200D01*
X019350Y029450D01*
X019100Y029200D01*
X018600Y029200D01*
X018350Y029450D01*
X018100Y029200D01*
X017600Y029200D01*
X017350Y029450D01*
X017350Y029950D01*
X017600Y030200D01*
X018100Y030200D01*
X018350Y029950D01*
X018600Y030200D01*
X019100Y030200D01*
X019350Y029950D01*
X019600Y030200D01*
X020100Y030200D01*
X020350Y029950D01*
X019350Y029950D02*
X019350Y029450D01*
X019004Y028893D02*
X018670Y028893D01*
X018587Y028810D01*
X018587Y028560D01*
X019087Y028560D01*
X019087Y028810D01*
X019004Y028893D01*
X018350Y029450D02*
X018350Y029950D01*
X017350Y029950D02*
X017100Y030200D01*
X016600Y030200D01*
X016350Y029950D01*
X016100Y030200D01*
X015600Y030200D01*
X015350Y029950D01*
X015350Y029450D01*
X015600Y029200D01*
X016100Y029200D01*
X016350Y029450D01*
X016350Y029950D01*
X016350Y029450D02*
X016600Y029200D01*
X017100Y029200D01*
X017350Y029450D01*
X017541Y028903D02*
X017541Y028570D01*
X018042Y028570D01*
X018042Y028388D02*
X018042Y028054D01*
X017541Y028054D01*
X017541Y028388D01*
X017792Y028221D02*
X017792Y028054D01*
X017792Y027872D02*
X017875Y027788D01*
X017875Y027538D01*
X018042Y027538D02*
X017541Y027538D01*
X017541Y027788D01*
X017625Y027872D01*
X017792Y027872D01*
X017875Y027705D02*
X018042Y027872D01*
X018587Y027778D02*
X018587Y027612D01*
X018670Y027528D01*
X019004Y027528D01*
X019087Y027612D01*
X019087Y027778D01*
X019004Y027862D01*
X018837Y027862D01*
X018837Y027695D01*
X018670Y027862D02*
X018587Y027778D01*
X018587Y028044D02*
X019087Y028378D01*
X018587Y028378D01*
X018587Y028044D02*
X019087Y028044D01*
X018042Y027356D02*
X017708Y027356D01*
X017541Y027189D01*
X017708Y027023D01*
X018042Y027023D01*
X017792Y027023D02*
X017792Y027356D01*
X017150Y027150D02*
X016900Y026900D01*
X015400Y026900D01*
X015150Y026650D01*
X015150Y026150D01*
X015400Y025900D01*
X016900Y025900D01*
X017150Y026150D01*
X017150Y026650D01*
X016900Y026900D01*
X016400Y026900D01*
X016150Y027150D01*
X016150Y028650D01*
X015900Y028900D01*
X015400Y028900D01*
X015150Y028650D01*
X014900Y028900D01*
X014400Y028900D01*
X014150Y028650D01*
X014150Y027150D01*
X014400Y026900D01*
X014900Y026900D01*
X015150Y027150D01*
X015150Y028650D01*
X016150Y028650D02*
X016400Y028900D01*
X016900Y028900D01*
X017150Y028650D01*
X017150Y027150D01*
X016150Y027150D02*
X015900Y026900D01*
X015400Y026900D01*
X015150Y027150D01*
X015400Y025900D02*
X015150Y025650D01*
X015150Y025150D01*
X015400Y024900D01*
X016900Y024900D01*
X017150Y025150D01*
X017150Y025650D01*
X016900Y025900D01*
X017792Y028570D02*
X017792Y028736D01*
X020100Y029200D02*
X020350Y029450D01*
X017208Y030908D02*
X017125Y030825D01*
X017208Y030908D02*
X017208Y031075D01*
X017125Y031158D01*
X017041Y031158D01*
X016958Y031075D01*
X016958Y030908D01*
X016875Y030825D01*
X016791Y030825D01*
X016708Y030908D01*
X016708Y031075D01*
X016791Y031158D01*
X016708Y031340D02*
X016708Y031591D01*
X016791Y031674D01*
X017125Y031674D01*
X017208Y031591D01*
X017208Y031340D01*
X016708Y031340D01*
X016108Y031474D02*
X016108Y031641D01*
X016025Y031724D01*
X016108Y031906D02*
X016108Y032240D01*
X016108Y031906D02*
X015608Y031906D01*
X015691Y031724D02*
X015608Y031641D01*
X015608Y031474D01*
X015691Y031390D01*
X016025Y031390D01*
X016108Y031474D01*
X016025Y031208D02*
X016108Y031125D01*
X016108Y030958D01*
X016025Y030875D01*
X015858Y030958D02*
X015858Y031125D01*
X015941Y031208D01*
X016025Y031208D01*
X015858Y030958D02*
X015775Y030875D01*
X015691Y030875D01*
X015608Y030958D01*
X015608Y031125D01*
X015691Y031208D01*
X016708Y032023D02*
X016875Y032190D01*
X017208Y032190D01*
X016958Y032190D02*
X016958Y031856D01*
X016875Y031856D02*
X016708Y032023D01*
X016875Y031856D02*
X017208Y031856D01*
X025950Y029950D02*
X025950Y029450D01*
X026200Y029200D01*
X026700Y029200D01*
X026950Y029450D01*
X026950Y029950D01*
X026700Y030200D01*
X026200Y030200D01*
X025950Y029950D01*
X026950Y029950D02*
X027200Y030200D01*
X027700Y030200D01*
X027950Y029950D01*
X028200Y030200D01*
X028700Y030200D01*
X028950Y029950D01*
X029200Y030200D01*
X029700Y030200D01*
X029950Y029950D01*
X030200Y030200D01*
X030700Y030200D01*
X030950Y029950D01*
X031200Y030200D01*
X031700Y030200D01*
X031950Y029950D01*
X032200Y030200D01*
X032700Y030200D01*
X032950Y029950D01*
X033200Y030200D01*
X033700Y030200D01*
X033950Y029950D01*
X033950Y029450D01*
X033700Y029200D01*
X033200Y029200D01*
X032950Y029450D01*
X032700Y029200D01*
X032200Y029200D01*
X031950Y029450D01*
X031950Y029950D01*
X032950Y029950D02*
X032950Y029450D01*
X031950Y029450D02*
X031700Y029200D01*
X031200Y029200D01*
X030950Y029450D01*
X030700Y029200D01*
X030200Y029200D01*
X029950Y029450D01*
X029700Y029200D01*
X029200Y029200D01*
X028950Y029450D01*
X028950Y029950D01*
X029950Y029950D02*
X029950Y029450D01*
X028950Y029450D02*
X028700Y029200D01*
X028200Y029200D01*
X027950Y029450D01*
X027700Y029200D01*
X027200Y029200D01*
X026950Y029450D01*
X027950Y029450D02*
X027950Y029950D01*
X027543Y028334D02*
X027543Y028080D01*
X027416Y028080D02*
X027416Y028270D01*
X027416Y028334D01*
X027290Y028270D02*
X027670Y028270D01*
X027670Y028143D02*
X027290Y028143D01*
X028240Y028143D02*
X028620Y028143D01*
X028620Y028270D02*
X028240Y028270D01*
X028366Y028270D02*
X028366Y028334D01*
X028366Y028270D02*
X028366Y028080D01*
X028493Y028080D02*
X028493Y028334D01*
X030240Y028270D02*
X030620Y028270D01*
X030620Y028143D02*
X030240Y028143D01*
X030366Y028080D02*
X030366Y028270D01*
X030366Y028334D01*
X030493Y028334D02*
X030493Y028080D01*
X032218Y027684D02*
X032718Y027350D01*
X032718Y027684D02*
X032218Y027350D01*
X032218Y027168D02*
X032218Y026835D01*
X032218Y027002D02*
X032718Y027002D01*
X033220Y027080D02*
X033303Y027164D01*
X033470Y027164D01*
X033553Y027080D01*
X033553Y026830D01*
X033553Y026997D02*
X033720Y027164D01*
X033720Y027346D02*
X033220Y027679D01*
X033220Y027346D02*
X033720Y027679D01*
X033220Y027080D02*
X033220Y026830D01*
X033720Y026830D01*
X030950Y029450D02*
X030950Y029950D01*
X033250Y022200D02*
X034750Y022200D01*
X035000Y021950D01*
X035000Y021450D01*
X034750Y021200D01*
X033250Y021200D01*
X033000Y020950D01*
X033000Y020450D01*
X033250Y020200D01*
X033000Y019950D01*
X033000Y019450D01*
X033250Y019200D01*
X034750Y019200D01*
X035000Y019450D01*
X035000Y019950D01*
X034750Y020200D01*
X033250Y020200D01*
X034750Y020200D02*
X035000Y020450D01*
X035000Y020950D01*
X034750Y021200D01*
X033250Y021200D02*
X033000Y021450D01*
X033000Y021950D01*
X033250Y022200D01*
X034000Y017250D02*
X019400Y017250D01*
X019400Y015050D01*
X034000Y015050D01*
X034000Y015900D01*
X033970Y015902D01*
X033940Y015907D01*
X033911Y015916D01*
X033884Y015929D01*
X033858Y015944D01*
X033834Y015963D01*
X033813Y015984D01*
X033794Y016008D01*
X033779Y016034D01*
X033766Y016061D01*
X033757Y016090D01*
X033752Y016120D01*
X033750Y016150D01*
X033752Y016180D01*
X033757Y016210D01*
X033766Y016239D01*
X033779Y016266D01*
X033794Y016292D01*
X033813Y016316D01*
X033834Y016337D01*
X033858Y016356D01*
X033884Y016371D01*
X033911Y016384D01*
X033940Y016393D01*
X033970Y016398D01*
X034000Y016400D01*
X034000Y017250D01*
X033700Y011200D02*
X033200Y011200D01*
X032950Y010950D01*
X032950Y010450D01*
X033200Y010200D01*
X033700Y010200D01*
X033950Y010450D01*
X033950Y010950D01*
X033700Y011200D01*
X032950Y010950D02*
X032700Y011200D01*
X032200Y011200D01*
X031950Y010950D01*
X031950Y010450D01*
X032200Y010200D01*
X032700Y010200D01*
X032950Y010450D01*
X031950Y010450D02*
X031700Y010200D01*
X031200Y010200D01*
X030950Y010450D01*
X030700Y010200D01*
X030200Y010200D01*
X029950Y010450D01*
X029700Y010200D01*
X029200Y010200D01*
X028950Y010450D01*
X028700Y010200D01*
X028200Y010200D01*
X027950Y010450D01*
X027950Y010950D01*
X028200Y011200D01*
X028700Y011200D01*
X028950Y010950D01*
X029200Y011200D01*
X029700Y011200D01*
X029950Y010950D01*
X029950Y010450D01*
X029950Y010950D02*
X030200Y011200D01*
X030700Y011200D01*
X030950Y010950D01*
X031200Y011200D01*
X031700Y011200D01*
X031950Y010950D01*
X030950Y010950D02*
X030950Y010450D01*
X028950Y010450D02*
X028950Y010950D01*
X026950Y010950D02*
X026950Y010450D01*
X026700Y010200D01*
X026200Y010200D01*
X025950Y010450D01*
X025700Y010200D01*
X025200Y010200D01*
X024950Y010450D01*
X024700Y010200D01*
X024200Y010200D01*
X023950Y010450D01*
X023700Y010200D01*
X023200Y010200D01*
X022950Y010450D01*
X022700Y010200D01*
X022200Y010200D01*
X021950Y010450D01*
X021700Y010200D01*
X021200Y010200D01*
X020950Y010450D01*
X020700Y010200D01*
X020200Y010200D01*
X019950Y010450D01*
X019700Y010200D01*
X019200Y010200D01*
X018950Y010450D01*
X018950Y010950D01*
X019200Y011200D01*
X019700Y011200D01*
X019950Y010950D01*
X020200Y011200D01*
X020700Y011200D01*
X020950Y010950D01*
X020950Y010450D01*
X020950Y010950D02*
X021200Y011200D01*
X021700Y011200D01*
X021950Y010950D01*
X022200Y011200D01*
X022700Y011200D01*
X022950Y010950D01*
X023200Y011200D01*
X023700Y011200D01*
X023950Y010950D01*
X023950Y010450D01*
X023950Y010950D02*
X024200Y011200D01*
X024700Y011200D01*
X024950Y010950D01*
X025200Y011200D01*
X025700Y011200D01*
X025950Y010950D01*
X026200Y011200D01*
X026700Y011200D01*
X026950Y010950D01*
X025950Y010950D02*
X025950Y010450D01*
X024950Y010450D02*
X024950Y010950D01*
X022950Y010950D02*
X022950Y010450D01*
X021950Y010450D02*
X021950Y010950D01*
X022203Y011430D02*
X022120Y011513D01*
X022120Y011680D01*
X022203Y011764D01*
X022286Y011764D01*
X022370Y011680D01*
X022453Y011764D01*
X022537Y011764D01*
X022620Y011680D01*
X022620Y011513D01*
X022537Y011430D01*
X022370Y011597D02*
X022370Y011680D01*
X022453Y011946D02*
X022120Y011946D01*
X022453Y011946D02*
X022620Y012112D01*
X022453Y012279D01*
X022120Y012279D01*
X022203Y012461D02*
X022120Y012545D01*
X022120Y012711D01*
X022203Y012795D01*
X022286Y012795D01*
X022370Y012711D01*
X022453Y012795D01*
X022537Y012795D01*
X022620Y012711D01*
X022620Y012545D01*
X022537Y012461D01*
X022370Y012628D02*
X022370Y012711D01*
X021520Y012761D02*
X021520Y012595D01*
X021437Y012511D01*
X021270Y012595D02*
X021270Y012761D01*
X021353Y012845D01*
X021437Y012845D01*
X021520Y012761D01*
X021520Y013027D02*
X021520Y013361D01*
X021270Y013194D02*
X021270Y013027D01*
X021103Y012845D02*
X021020Y012761D01*
X021020Y012595D01*
X021103Y012511D01*
X021186Y012511D01*
X021270Y012595D01*
X021520Y012329D02*
X021520Y011996D01*
X021020Y011996D01*
X021020Y012329D01*
X021270Y012162D02*
X021270Y011996D01*
X021270Y011814D02*
X021353Y011730D01*
X021353Y011480D01*
X021353Y011647D02*
X021520Y011814D01*
X021270Y011814D02*
X021103Y011814D01*
X021020Y011730D01*
X021020Y011480D01*
X021520Y011480D01*
X020670Y011480D02*
X020670Y011647D01*
X020670Y011563D02*
X020170Y011563D01*
X020170Y011480D02*
X020170Y011647D01*
X020253Y011824D02*
X020587Y011824D01*
X020670Y011907D01*
X020670Y012074D01*
X020587Y012157D01*
X020253Y012157D01*
X020170Y012074D01*
X020170Y011907D01*
X020253Y011824D01*
X020170Y012339D02*
X020170Y012590D01*
X020253Y012673D01*
X020420Y012673D01*
X020503Y012590D01*
X020503Y012339D01*
X020670Y012339D02*
X020170Y012339D01*
X020503Y012506D02*
X020670Y012673D01*
X020670Y012855D02*
X020170Y012855D01*
X020170Y013189D01*
X020170Y013371D02*
X020170Y013704D01*
X020420Y013537D02*
X020420Y013371D01*
X020670Y013371D02*
X020170Y013371D01*
X020420Y013022D02*
X020420Y012855D01*
X020670Y012855D02*
X020670Y013189D01*
X021020Y013027D02*
X021520Y013027D01*
X021020Y013027D02*
X021020Y013361D01*
X021020Y013543D02*
X021020Y013876D01*
X021020Y013709D02*
X021520Y013709D01*
X017419Y015140D02*
X017419Y015177D01*
X017419Y015140D02*
X016781Y015140D01*
X016781Y015177D01*
X016781Y015494D02*
X016781Y015531D01*
X016781Y015869D02*
X016781Y015906D01*
X016781Y016223D02*
X016781Y016260D01*
X017419Y016260D01*
X017419Y016223D01*
X017419Y015906D02*
X017419Y015494D01*
X016462Y017060D02*
X015439Y017060D01*
X015419Y017062D01*
X015399Y017066D01*
X015381Y017074D01*
X015364Y017084D01*
X015348Y017097D01*
X015335Y017113D01*
X015325Y017130D01*
X015317Y017148D01*
X015313Y017168D01*
X015311Y017188D01*
X015311Y017226D01*
X015311Y017406D02*
X015311Y017482D01*
X015311Y017662D02*
X015311Y017738D01*
X015311Y017918D02*
X015311Y017994D01*
X015311Y018174D02*
X015311Y018211D01*
X015313Y018231D01*
X015317Y018251D01*
X015325Y018269D01*
X015335Y018286D01*
X015348Y018302D01*
X015364Y018315D01*
X015381Y018325D01*
X015399Y018333D01*
X015419Y018337D01*
X015439Y018339D01*
X016462Y018339D01*
X016482Y018337D01*
X016502Y018333D01*
X016520Y018325D01*
X016537Y018315D01*
X016553Y018302D01*
X016566Y018286D01*
X016576Y018269D01*
X016584Y018251D01*
X016588Y018231D01*
X016590Y018211D01*
X016590Y018174D01*
X016590Y017994D02*
X016590Y017918D01*
X016590Y017738D02*
X016590Y017662D01*
X016590Y017482D02*
X016590Y017406D01*
X016590Y017226D02*
X016590Y017172D01*
X016590Y017188D02*
X016588Y017168D01*
X016584Y017148D01*
X016576Y017130D01*
X016566Y017113D01*
X016553Y017097D01*
X016537Y017084D01*
X016520Y017074D01*
X016502Y017066D01*
X016482Y017062D01*
X016462Y017060D01*
X017250Y019100D02*
X014550Y019100D01*
X014491Y019102D01*
X014433Y019108D01*
X014374Y019117D01*
X014317Y019131D01*
X014261Y019148D01*
X014206Y019169D01*
X014152Y019193D01*
X014100Y019221D01*
X014050Y019252D01*
X014002Y019286D01*
X013957Y019323D01*
X013914Y019364D01*
X013873Y019407D01*
X013836Y019452D01*
X013802Y019500D01*
X013771Y019550D01*
X013743Y019602D01*
X013719Y019656D01*
X013698Y019711D01*
X013681Y019767D01*
X013667Y019824D01*
X013658Y019883D01*
X013652Y019941D01*
X013650Y020000D01*
X013652Y020059D01*
X013658Y020117D01*
X013667Y020176D01*
X013681Y020233D01*
X013698Y020289D01*
X013719Y020344D01*
X013743Y020398D01*
X013771Y020450D01*
X013802Y020500D01*
X013836Y020548D01*
X013873Y020593D01*
X013914Y020636D01*
X013957Y020677D01*
X014002Y020714D01*
X014050Y020748D01*
X014100Y020779D01*
X014152Y020807D01*
X014206Y020831D01*
X014261Y020852D01*
X014317Y020869D01*
X014374Y020883D01*
X014433Y020892D01*
X014491Y020898D01*
X014550Y020900D01*
X017250Y020900D01*
X017309Y020898D01*
X017367Y020892D01*
X017426Y020883D01*
X017483Y020869D01*
X017539Y020852D01*
X017594Y020831D01*
X017648Y020807D01*
X017700Y020779D01*
X017750Y020748D01*
X017798Y020714D01*
X017843Y020677D01*
X017886Y020636D01*
X017927Y020593D01*
X017964Y020548D01*
X017998Y020500D01*
X018029Y020450D01*
X018057Y020398D01*
X018081Y020344D01*
X018102Y020289D01*
X018119Y020233D01*
X018133Y020176D01*
X018142Y020117D01*
X018148Y020059D01*
X018150Y020000D01*
X018148Y019941D01*
X018142Y019883D01*
X018133Y019824D01*
X018119Y019767D01*
X018102Y019711D01*
X018081Y019656D01*
X018057Y019602D01*
X018029Y019550D01*
X017998Y019500D01*
X017964Y019452D01*
X017927Y019407D01*
X017886Y019364D01*
X017843Y019323D01*
X017798Y019286D01*
X017750Y019252D01*
X017700Y019221D01*
X017648Y019193D01*
X017594Y019169D01*
X017539Y019148D01*
X017483Y019131D01*
X017426Y019117D01*
X017367Y019108D01*
X017309Y019102D01*
X017250Y019100D01*
X018800Y020150D02*
X018800Y020750D01*
X018802Y020767D01*
X018806Y020784D01*
X018813Y020800D01*
X018823Y020814D01*
X018836Y020827D01*
X018850Y020837D01*
X018866Y020844D01*
X018883Y020848D01*
X018900Y020850D01*
X020000Y020850D01*
X020017Y020848D01*
X020034Y020844D01*
X020050Y020837D01*
X020064Y020827D01*
X020077Y020814D01*
X020087Y020800D01*
X020094Y020784D01*
X020098Y020767D01*
X020100Y020750D01*
X020100Y020150D01*
X020098Y020133D01*
X020094Y020116D01*
X020087Y020100D01*
X020077Y020086D01*
X020064Y020073D01*
X020050Y020063D01*
X020034Y020056D01*
X020017Y020052D01*
X020000Y020050D01*
X018900Y020050D01*
X018883Y020052D01*
X018866Y020056D01*
X018850Y020063D01*
X018836Y020073D01*
X018823Y020086D01*
X018813Y020100D01*
X018806Y020116D01*
X018802Y020133D01*
X018800Y020150D01*
X011800Y020710D02*
X011800Y019570D01*
X011500Y019570D01*
X011500Y020710D01*
X011800Y020710D01*
X019950Y010950D02*
X019950Y010450D01*
D16*
X017277Y010800D02*
X016874Y010406D01*
X016874Y011194D01*
X017277Y010800D01*
X012200Y015260D02*
X010800Y015260D01*
X010800Y017840D01*
X012200Y017840D01*
X012200Y015260D01*
X017659Y023030D02*
X017659Y023510D01*
X017899Y023510D01*
X017979Y023430D01*
X017979Y023270D01*
X017899Y023190D01*
X017659Y023190D01*
X017819Y023190D02*
X017979Y023030D01*
X018174Y023030D02*
X018495Y023510D01*
X018174Y023510D02*
X018495Y023030D01*
X018395Y023980D02*
X018074Y024460D01*
X017879Y024460D02*
X017559Y024460D01*
X017719Y024460D02*
X017719Y023980D01*
X018074Y023980D02*
X018395Y024460D01*
X018395Y026080D02*
X018074Y026080D01*
X018074Y026560D01*
X013797Y028097D02*
X013600Y027703D01*
X013403Y028097D01*
X013797Y028097D01*
X030740Y025810D02*
X030954Y025810D01*
X030847Y025810D02*
X030847Y025490D01*
X031108Y025490D02*
X031108Y025810D01*
X031215Y025704D01*
X031322Y025810D01*
X031322Y025490D01*
X032490Y024290D02*
X032490Y023970D01*
X032570Y023890D01*
X032730Y023890D01*
X032810Y023970D01*
X032810Y024290D01*
X032730Y024370D01*
X032570Y024370D01*
X032490Y024290D01*
X033006Y024370D02*
X033326Y023890D01*
X033326Y024370D01*
X033006Y024370D02*
X033006Y023890D01*
X032743Y021949D02*
X032743Y021529D01*
X032603Y021529D02*
X032883Y021529D01*
X032603Y021809D02*
X032743Y021949D01*
X031850Y020897D02*
X031653Y020503D01*
X032047Y020503D01*
X031850Y020897D01*
D17*
X024001Y031155D02*
X024001Y031746D01*
X023607Y031746D02*
X024001Y031155D01*
X023607Y031155D02*
X023607Y031746D01*
X023375Y031746D02*
X023178Y031746D01*
X023276Y031746D02*
X023276Y031155D01*
X023178Y031155D02*
X023375Y031155D01*
X022282Y031155D02*
X021889Y031155D01*
X021889Y031746D01*
X022282Y031746D01*
X022085Y031450D02*
X021889Y031450D01*
X021638Y031253D02*
X021638Y031647D01*
X021539Y031746D01*
X021244Y031746D01*
X021244Y031155D01*
X021539Y031155D01*
X021638Y031253D01*
X020993Y031155D02*
X020993Y031549D01*
X020796Y031746D01*
X020600Y031549D01*
X020600Y031155D01*
X020349Y031155D02*
X020349Y031746D01*
X020152Y031549D01*
X019955Y031746D01*
X019955Y031155D01*
X020600Y031450D02*
X020993Y031450D01*
X024455Y031205D02*
X024652Y031205D01*
X024553Y031205D02*
X024553Y031796D01*
X024455Y031796D02*
X024652Y031796D01*
X024885Y031796D02*
X025278Y031796D01*
X025082Y031796D02*
X025082Y031205D01*
X025529Y031205D02*
X025529Y031599D01*
X025726Y031796D01*
X025923Y031599D01*
X025923Y031205D01*
X026174Y031205D02*
X026567Y031205D01*
X026174Y031205D02*
X026174Y031796D01*
X025923Y031500D02*
X025529Y031500D01*
X026818Y031697D02*
X027015Y031500D01*
X027015Y031205D01*
X027015Y031500D02*
X027212Y031697D01*
X027212Y031796D01*
X026818Y031796D02*
X026818Y031697D01*
D18*
X027024Y024356D02*
X026847Y024179D01*
X026847Y023472D01*
X027024Y023295D01*
X027377Y023295D01*
X027554Y023472D01*
X027554Y024179D01*
X027377Y024356D01*
X027024Y024356D01*
X026403Y024356D02*
X026403Y023295D01*
X025696Y024356D01*
X025696Y023295D01*
X025252Y023472D02*
X025252Y024356D01*
X024545Y024356D02*
X024545Y023472D01*
X024722Y023295D01*
X025075Y023295D01*
X025252Y023472D01*
D19*
X017840Y010050D02*
X016060Y010050D01*
X016230Y010485D02*
X015770Y010485D01*
X016230Y010485D02*
X016230Y010792D01*
X016230Y010945D02*
X015770Y010945D01*
X015770Y011175D01*
X015846Y011252D01*
X016000Y011252D01*
X016077Y011175D01*
X016077Y010945D01*
X016230Y011406D02*
X015923Y011713D01*
X015846Y011713D01*
X015770Y011636D01*
X015770Y011482D01*
X015846Y011406D01*
X016060Y011550D02*
X017840Y011550D01*
X017360Y011670D02*
X017360Y011747D01*
X017667Y012054D01*
X017667Y012130D01*
X017360Y012130D01*
X017206Y012130D02*
X017206Y011670D01*
X016899Y011670D02*
X016899Y012130D01*
X017053Y011977D01*
X017206Y012130D01*
X017220Y012020D02*
X017220Y013910D01*
X017890Y014580D01*
X018126Y014580D01*
X018874Y014580D02*
X019110Y014580D01*
X019780Y013910D01*
X019780Y012020D01*
X018874Y012020D01*
X018126Y012020D02*
X017220Y012020D01*
X016980Y012020D02*
X016074Y012020D01*
X016000Y011943D02*
X016000Y012173D01*
X016153Y012173D02*
X015846Y012173D01*
X015770Y012096D01*
X015770Y011943D01*
X015846Y011866D01*
X015923Y011866D01*
X016000Y011943D01*
X016153Y011866D02*
X016230Y011943D01*
X016230Y012096D01*
X016153Y012173D01*
X016153Y012326D02*
X016077Y012326D01*
X016000Y012403D01*
X016000Y012557D01*
X016077Y012633D01*
X016153Y012633D01*
X016230Y012557D01*
X016230Y012403D01*
X016153Y012326D01*
X016000Y012403D02*
X015923Y012326D01*
X015846Y012326D01*
X015770Y012403D01*
X015770Y012557D01*
X015846Y012633D01*
X015923Y012633D01*
X016000Y012557D01*
X016000Y012787D02*
X015923Y012940D01*
X015923Y013017D01*
X016000Y013094D01*
X016153Y013094D01*
X016230Y013017D01*
X016230Y012864D01*
X016153Y012787D01*
X016000Y012787D02*
X015770Y012787D01*
X015770Y013094D01*
X015680Y013278D02*
X015680Y013585D01*
X015680Y013432D02*
X015220Y013432D01*
X015373Y013278D01*
X016074Y012139D02*
X016138Y012161D01*
X016201Y012188D01*
X016263Y012218D01*
X016322Y012251D01*
X016380Y012287D01*
X016436Y012327D01*
X016489Y012370D01*
X016540Y012415D01*
X016588Y012463D01*
X016633Y012514D01*
X016676Y012568D01*
X016715Y012624D01*
X016752Y012681D01*
X016785Y012741D01*
X016814Y012803D01*
X016840Y012866D01*
X016863Y012930D01*
X016882Y012996D01*
X016897Y013063D01*
X016908Y013130D01*
X016916Y013198D01*
X016920Y013266D01*
X016920Y013334D01*
X016916Y013402D01*
X016908Y013470D01*
X016897Y013537D01*
X016882Y013604D01*
X016863Y013670D01*
X016840Y013734D01*
X016814Y013797D01*
X016785Y013859D01*
X016752Y013919D01*
X016715Y013976D01*
X016676Y014032D01*
X016633Y014086D01*
X016588Y014137D01*
X016540Y014185D01*
X016489Y014230D01*
X016436Y014273D01*
X016380Y014313D01*
X016322Y014349D01*
X016263Y014382D01*
X016201Y014412D01*
X016138Y014439D01*
X016074Y014461D01*
X016077Y014475D02*
X016153Y014475D01*
X016230Y014398D01*
X016230Y014245D01*
X016153Y014168D01*
X016153Y014015D02*
X016230Y013938D01*
X016230Y013784D01*
X016153Y013708D01*
X016000Y013861D02*
X016000Y013938D01*
X016077Y014015D01*
X016153Y014015D01*
X016000Y013938D02*
X015923Y014015D01*
X015846Y014015D01*
X015770Y013938D01*
X015770Y013784D01*
X015846Y013708D01*
X015680Y013816D02*
X015603Y013739D01*
X015296Y014046D01*
X015603Y014046D01*
X015680Y013969D01*
X015680Y013816D01*
X015603Y013739D02*
X015296Y013739D01*
X015220Y013816D01*
X015220Y013969D01*
X015296Y014046D01*
X015296Y014199D02*
X015220Y014276D01*
X015220Y014429D01*
X015296Y014506D01*
X015603Y014199D01*
X015680Y014276D01*
X015680Y014429D01*
X015603Y014506D01*
X015296Y014506D01*
X015326Y014580D02*
X015090Y014580D01*
X014420Y013910D01*
X014420Y012020D01*
X015326Y012020D01*
X016230Y011713D02*
X016230Y011406D01*
X016980Y012020D02*
X016980Y013910D01*
X016310Y014580D01*
X016074Y014580D01*
X016077Y014475D02*
X016000Y014398D01*
X016000Y014321D01*
X016000Y014398D02*
X015923Y014475D01*
X015846Y014475D01*
X015770Y014398D01*
X015770Y014245D01*
X015846Y014168D01*
X015603Y014199D02*
X015296Y014199D01*
X015373Y014660D02*
X015373Y014890D01*
X015450Y014967D01*
X015680Y014967D01*
X015770Y014859D02*
X015770Y014628D01*
X016230Y014628D01*
X016230Y014859D01*
X016153Y014935D01*
X015846Y014935D01*
X015770Y014859D01*
X015680Y014660D02*
X015373Y014660D01*
X015770Y015089D02*
X015770Y015319D01*
X015846Y015396D01*
X015923Y015396D01*
X016000Y015319D01*
X016000Y015089D01*
X016230Y015089D02*
X015770Y015089D01*
X016000Y015319D02*
X016077Y015396D01*
X016153Y015396D01*
X016230Y015319D01*
X016230Y015089D01*
X016077Y015549D02*
X016230Y015703D01*
X016077Y015856D01*
X015770Y015856D01*
X015770Y016010D02*
X015770Y016240D01*
X015846Y016317D01*
X016000Y016317D01*
X016077Y016240D01*
X016077Y016010D01*
X016230Y016010D02*
X015770Y016010D01*
X016077Y016163D02*
X016230Y016317D01*
X016077Y015549D02*
X015770Y015549D01*
X013180Y015398D02*
X013180Y015211D01*
X013180Y015304D02*
X012900Y015304D01*
X012993Y015211D01*
X012666Y014531D02*
X012225Y013870D01*
X012021Y013870D02*
X012021Y014531D01*
X011801Y014310D01*
X011581Y014531D01*
X011581Y013870D01*
X011377Y013870D02*
X011377Y014531D01*
X011157Y014310D01*
X010936Y014531D01*
X010936Y013870D01*
X010732Y013870D02*
X010292Y013870D01*
X010088Y013870D02*
X009647Y013870D01*
X010088Y014310D01*
X010088Y014420D01*
X009978Y014531D01*
X009757Y014531D01*
X009647Y014420D01*
X009443Y014420D02*
X009333Y014531D01*
X009113Y014531D01*
X009003Y014420D01*
X009003Y013980D01*
X009113Y013870D01*
X009333Y013870D01*
X009443Y013980D01*
X008799Y013980D02*
X008799Y014420D01*
X008688Y014531D01*
X008358Y014531D01*
X008358Y013870D01*
X008688Y013870D01*
X008799Y013980D01*
X008154Y013760D02*
X007714Y013760D01*
X007289Y013870D02*
X007289Y014200D01*
X007509Y014420D01*
X007509Y014531D01*
X007289Y014200D02*
X007069Y014420D01*
X007069Y014531D01*
X006424Y014531D02*
X006424Y013870D01*
X006865Y013870D01*
X006220Y014200D02*
X006110Y014090D01*
X005780Y014090D01*
X005780Y013870D02*
X005780Y014531D01*
X006110Y014531D01*
X006220Y014420D01*
X006220Y014200D01*
X005576Y014200D02*
X005576Y014420D01*
X005466Y014531D01*
X005135Y014531D01*
X005135Y013870D01*
X005135Y014090D02*
X005466Y014090D01*
X005576Y014200D01*
X004931Y013980D02*
X004931Y014531D01*
X004491Y014531D02*
X004491Y013980D01*
X004601Y013870D01*
X004821Y013870D01*
X004931Y013980D01*
X004287Y013980D02*
X004287Y014090D01*
X004177Y014200D01*
X003956Y014200D01*
X003846Y014310D01*
X003846Y014420D01*
X003956Y014531D01*
X004177Y014531D01*
X004287Y014420D01*
X003642Y014420D02*
X003642Y014200D01*
X003532Y014090D01*
X003202Y014090D01*
X003422Y014090D02*
X003642Y013870D01*
X003846Y013980D02*
X003956Y013870D01*
X004177Y013870D01*
X004287Y013980D01*
X003642Y014420D02*
X003532Y014531D01*
X003202Y014531D01*
X003202Y013870D01*
X002998Y013870D02*
X002557Y013870D01*
X002557Y014531D01*
X002998Y014531D01*
X002777Y014200D02*
X002557Y014200D01*
X002353Y013870D02*
X002353Y014531D01*
X001913Y014531D02*
X001913Y013870D01*
X002133Y014090D01*
X002353Y013870D01*
X001708Y013980D02*
X001708Y014420D01*
X001598Y014531D01*
X001378Y014531D01*
X001268Y014420D01*
X001268Y013980D01*
X001378Y013870D01*
X001598Y013870D01*
X001708Y013980D01*
X001064Y014200D02*
X000954Y014090D01*
X000624Y014090D01*
X000624Y013870D02*
X000624Y014531D01*
X000954Y014531D01*
X001064Y014420D01*
X001064Y014200D01*
X002774Y015890D02*
X002774Y016350D01*
X003081Y015890D01*
X003081Y016350D01*
X003235Y016274D02*
X003235Y015967D01*
X003312Y015890D01*
X003465Y015890D01*
X003542Y015967D01*
X003695Y016043D02*
X003925Y016043D01*
X004002Y016120D01*
X004002Y016274D01*
X003925Y016350D01*
X003695Y016350D01*
X003695Y015890D01*
X003542Y016274D02*
X003465Y016350D01*
X003312Y016350D01*
X003235Y016274D01*
X004156Y016197D02*
X004309Y016350D01*
X004309Y015890D01*
X004156Y015890D02*
X004463Y015890D01*
X004616Y015890D02*
X004923Y015890D01*
X005076Y015890D02*
X005383Y015890D01*
X005230Y015890D02*
X005230Y016350D01*
X005076Y016197D01*
X004770Y016350D02*
X004770Y015890D01*
X004616Y016197D02*
X004770Y016350D01*
X005537Y016350D02*
X005844Y016350D01*
X005844Y016274D01*
X005537Y015967D01*
X005537Y015890D01*
X005997Y015967D02*
X006074Y015890D01*
X006227Y015890D01*
X006304Y015967D01*
X006304Y016043D01*
X006227Y016120D01*
X006074Y016120D01*
X005997Y016197D01*
X005997Y016274D01*
X006074Y016350D01*
X006227Y016350D01*
X006304Y016274D01*
X006458Y016350D02*
X006765Y016350D01*
X006918Y016350D02*
X006918Y016120D01*
X007071Y016197D01*
X007148Y016197D01*
X007225Y016120D01*
X007225Y015967D01*
X007148Y015890D01*
X006995Y015890D01*
X006918Y015967D01*
X006611Y015890D02*
X006611Y016350D01*
X006918Y016350D02*
X007225Y016350D01*
X007378Y016274D02*
X007455Y016350D01*
X007609Y016350D01*
X007685Y016274D01*
X007378Y015967D01*
X007455Y015890D01*
X007609Y015890D01*
X007685Y015967D01*
X007685Y016274D01*
X007839Y016350D02*
X008146Y016350D01*
X007992Y016350D02*
X007992Y015890D01*
X008299Y015967D02*
X008376Y015890D01*
X008529Y015890D01*
X008606Y015967D01*
X008606Y016043D01*
X008529Y016120D01*
X008453Y016120D01*
X008529Y016120D02*
X008606Y016197D01*
X008606Y016274D01*
X008529Y016350D01*
X008376Y016350D01*
X008299Y016274D01*
X008760Y016274D02*
X008760Y015967D01*
X008836Y015890D01*
X008990Y015890D01*
X009067Y015967D01*
X009067Y016120D01*
X008913Y016120D01*
X008760Y016274D02*
X008836Y016350D01*
X008990Y016350D01*
X009067Y016274D01*
X010200Y017460D02*
X010340Y017320D01*
X010340Y017507D01*
X010480Y017460D02*
X010200Y017460D01*
X009380Y019070D02*
X008920Y019070D01*
X009073Y019223D01*
X008920Y019377D01*
X009380Y019377D01*
X009380Y019530D02*
X008920Y019530D01*
X008920Y019837D01*
X009150Y019684D02*
X009150Y019530D01*
X009150Y019991D02*
X009150Y020298D01*
X009380Y020451D02*
X008920Y020451D01*
X009073Y020605D01*
X008920Y020758D01*
X009380Y020758D01*
X009303Y020912D02*
X009380Y020988D01*
X009380Y021142D01*
X009303Y021218D01*
X009227Y021218D01*
X009150Y021142D01*
X009150Y020988D01*
X009073Y020912D01*
X008996Y020912D01*
X008920Y020988D01*
X008920Y021142D01*
X008996Y021218D01*
X008920Y021372D02*
X009073Y021525D01*
X008920Y021679D01*
X009380Y021679D01*
X009386Y021720D02*
X009386Y022180D01*
X009303Y022293D02*
X008996Y022600D01*
X009303Y022600D01*
X009380Y022523D01*
X009380Y022369D01*
X009303Y022293D01*
X008996Y022293D01*
X008920Y022369D01*
X008920Y022523D01*
X008996Y022600D01*
X008920Y022753D02*
X009150Y022753D01*
X009073Y022907D01*
X009073Y022983D01*
X009150Y023060D01*
X009303Y023060D01*
X009380Y022983D01*
X009380Y022830D01*
X009303Y022753D01*
X008920Y022753D02*
X008920Y023060D01*
X008996Y023214D02*
X008920Y023290D01*
X008920Y023444D01*
X008996Y023520D01*
X009303Y023214D01*
X009380Y023290D01*
X009380Y023444D01*
X009303Y023520D01*
X008996Y023520D01*
X009150Y023674D02*
X009150Y023981D01*
X008996Y024134D02*
X008920Y024211D01*
X008920Y024365D01*
X008996Y024441D01*
X009073Y024441D01*
X009380Y024134D01*
X009380Y024441D01*
X009303Y025055D02*
X009380Y025132D01*
X009380Y025285D01*
X009303Y025362D01*
X009150Y025362D01*
X009073Y025285D01*
X009073Y025209D01*
X009150Y025055D01*
X008920Y025055D01*
X008920Y025362D01*
X008996Y025515D02*
X008920Y025592D01*
X008920Y025746D01*
X008996Y025822D01*
X009303Y025515D01*
X009380Y025592D01*
X009380Y025746D01*
X009303Y025822D01*
X008996Y025822D01*
X008996Y025976D02*
X008920Y026053D01*
X008920Y026206D01*
X008996Y026283D01*
X009303Y025976D01*
X009380Y026053D01*
X009380Y026206D01*
X009303Y026283D01*
X008996Y026283D01*
X009073Y026436D02*
X009073Y026513D01*
X009150Y026590D01*
X009073Y026666D01*
X009150Y026743D01*
X009380Y026743D01*
X009380Y026590D02*
X009150Y026590D01*
X009073Y026436D02*
X009380Y026436D01*
X009303Y025976D02*
X008996Y025976D01*
X008996Y025515D02*
X009303Y025515D01*
X009380Y026897D02*
X009073Y026897D01*
X008920Y027050D01*
X009073Y027204D01*
X009380Y027204D01*
X009150Y027204D02*
X009150Y026897D01*
X009789Y027698D02*
X009789Y028159D01*
X010019Y028159D01*
X010096Y028082D01*
X010096Y027929D01*
X010019Y027852D01*
X009789Y027852D01*
X009942Y027852D02*
X010096Y027698D01*
X010249Y027698D02*
X010556Y027698D01*
X010710Y027775D02*
X010786Y027698D01*
X010940Y027698D01*
X011017Y027775D01*
X011017Y027852D01*
X010940Y027929D01*
X010786Y027929D01*
X010710Y028005D01*
X010710Y028082D01*
X010786Y028159D01*
X010940Y028159D01*
X011017Y028082D01*
X011170Y028159D02*
X011170Y027698D01*
X011477Y027698D01*
X011324Y027929D02*
X011170Y027929D01*
X011170Y028159D02*
X011477Y028159D01*
X011630Y028159D02*
X011937Y028159D01*
X011784Y028159D02*
X011784Y027698D01*
X010556Y028159D02*
X010249Y028159D01*
X010249Y027698D01*
X010249Y027929D02*
X010403Y027929D01*
X012899Y026927D02*
X013053Y027080D01*
X013053Y026620D01*
X013206Y026620D02*
X012899Y026620D01*
X013360Y026697D02*
X013360Y026927D01*
X013360Y026697D02*
X013436Y026620D01*
X013667Y026620D01*
X013667Y026927D01*
X014070Y027347D02*
X014146Y027270D01*
X014453Y027270D01*
X014530Y027347D01*
X014530Y027500D01*
X014453Y027577D01*
X014530Y027730D02*
X014530Y027961D01*
X014453Y028037D01*
X014146Y028037D01*
X014070Y027961D01*
X014070Y027730D01*
X014530Y027730D01*
X014146Y027577D02*
X014070Y027500D01*
X014070Y027347D01*
X014223Y028191D02*
X014070Y028344D01*
X014530Y028344D01*
X014530Y028191D02*
X014530Y028498D01*
X014530Y028651D02*
X014223Y028958D01*
X014146Y028958D01*
X014070Y028881D01*
X014070Y028728D01*
X014146Y028651D01*
X014530Y028651D02*
X014530Y028958D01*
X014453Y029112D02*
X014146Y029418D01*
X014453Y029418D01*
X014530Y029342D01*
X014530Y029188D01*
X014453Y029112D01*
X014146Y029112D01*
X014070Y029188D01*
X014070Y029342D01*
X014146Y029418D01*
X014300Y029572D02*
X014300Y029802D01*
X014377Y029879D01*
X014453Y029879D01*
X014530Y029802D01*
X014530Y029649D01*
X014453Y029572D01*
X014300Y029572D01*
X014146Y029725D01*
X014070Y029879D01*
X014300Y030032D02*
X014300Y030339D01*
X014223Y030493D02*
X014300Y030569D01*
X014300Y030723D01*
X014377Y030800D01*
X014453Y030800D01*
X014530Y030723D01*
X014530Y030569D01*
X014453Y030493D01*
X014377Y030595D02*
X014377Y031055D01*
X014453Y030953D02*
X014146Y030953D01*
X014070Y031030D01*
X014070Y031183D01*
X014146Y031260D01*
X014453Y030953D01*
X014530Y031030D01*
X014530Y031183D01*
X014453Y031260D01*
X014146Y031260D01*
X014223Y031414D02*
X014070Y031567D01*
X014530Y031567D01*
X014530Y031414D02*
X014530Y031720D01*
X014453Y031874D02*
X014530Y031951D01*
X014530Y032104D01*
X014453Y032181D01*
X014300Y032181D01*
X014223Y032104D01*
X014223Y032027D01*
X014300Y031874D01*
X014070Y031874D01*
X014070Y032181D01*
X014070Y032334D02*
X014070Y032641D01*
X014146Y032641D01*
X014453Y032334D01*
X014530Y032334D01*
X014453Y032795D02*
X014530Y032871D01*
X014530Y033025D01*
X014453Y033102D01*
X014300Y033102D01*
X014223Y033025D01*
X014223Y032948D01*
X014300Y032795D01*
X014070Y032795D01*
X014070Y033102D01*
X014224Y031055D02*
X014531Y031055D01*
X014684Y031055D02*
X014915Y031055D01*
X014991Y030978D01*
X014991Y030825D01*
X014915Y030748D01*
X014684Y030748D01*
X014684Y030595D02*
X014684Y031055D01*
X014838Y030748D02*
X014991Y030595D01*
X015145Y030825D02*
X015452Y030825D01*
X015605Y030672D02*
X015605Y030595D01*
X015605Y030672D02*
X015912Y030978D01*
X015912Y031055D01*
X015605Y031055D01*
X016066Y030978D02*
X016142Y031055D01*
X016296Y031055D01*
X016372Y030978D01*
X016372Y030902D01*
X016066Y030595D01*
X016372Y030595D01*
X016526Y030672D02*
X016603Y030595D01*
X016756Y030595D01*
X016833Y030672D01*
X016833Y030748D01*
X016756Y030825D01*
X016526Y030825D01*
X016526Y030672D01*
X016526Y030825D02*
X016679Y030978D01*
X016833Y031055D01*
X016986Y030978D02*
X017063Y031055D01*
X017217Y031055D01*
X017293Y030978D01*
X016986Y030672D01*
X017063Y030595D01*
X017217Y030595D01*
X017293Y030672D01*
X017293Y030978D01*
X016986Y030978D02*
X016986Y030672D01*
X017017Y029630D02*
X017017Y029170D01*
X016710Y029170D02*
X016710Y029630D01*
X016863Y029477D01*
X017017Y029630D01*
X017420Y029370D02*
X017880Y029370D01*
X017880Y029064D02*
X017420Y029064D01*
X017573Y029217D01*
X017420Y029370D01*
X017420Y028910D02*
X017880Y028910D01*
X017420Y028603D01*
X017880Y028603D01*
X017839Y028681D02*
X017686Y028681D01*
X017532Y028528D01*
X017609Y028374D02*
X017762Y028374D01*
X017839Y028298D01*
X017839Y028068D01*
X017839Y028221D02*
X017993Y028374D01*
X017993Y028528D02*
X017839Y028681D01*
X017609Y028374D02*
X017532Y028298D01*
X017532Y028068D01*
X017993Y028068D01*
X017993Y027914D02*
X017839Y027761D01*
X017686Y027761D01*
X017532Y027914D01*
X017650Y027989D02*
X017650Y027682D01*
X017532Y027607D02*
X017916Y027607D01*
X017993Y027530D01*
X017993Y027377D01*
X017916Y027300D01*
X017532Y027300D01*
X017532Y027147D02*
X017993Y027147D01*
X017880Y027068D02*
X017420Y027068D01*
X017573Y026915D01*
X017420Y026762D01*
X017880Y026762D01*
X017993Y026840D02*
X017532Y026840D01*
X017686Y026993D01*
X017532Y027147D01*
X018470Y027167D02*
X018930Y027167D01*
X018777Y027013D01*
X018930Y026860D01*
X018470Y026860D01*
X018546Y026706D02*
X018470Y026629D01*
X018470Y026476D01*
X018546Y026399D01*
X018853Y026399D01*
X018930Y026476D01*
X018930Y026629D01*
X018853Y026706D01*
X018546Y026706D01*
X018930Y026246D02*
X018930Y025939D01*
X018470Y025939D01*
X018470Y025478D02*
X018930Y025478D01*
X018930Y025785D01*
X018930Y025325D02*
X018930Y025018D01*
X018470Y025018D01*
X018470Y025325D01*
X018589Y025080D02*
X018589Y024620D01*
X018896Y024620D01*
X018930Y024711D02*
X018700Y024711D01*
X018546Y024865D01*
X018470Y024865D01*
X018435Y024620D02*
X018128Y024620D01*
X018128Y025080D01*
X017993Y025075D02*
X017993Y025228D01*
X017916Y025305D01*
X017839Y025305D01*
X017762Y025228D01*
X017762Y024998D01*
X017916Y024998D01*
X017993Y025075D01*
X017975Y025080D02*
X017668Y025080D01*
X017668Y024620D01*
X017975Y024620D01*
X017993Y024691D02*
X017532Y024691D01*
X017686Y024538D01*
X017686Y024384D02*
X017993Y024384D01*
X017993Y024538D02*
X017993Y024845D01*
X017880Y024920D02*
X017573Y025227D01*
X017496Y025227D01*
X017420Y025150D01*
X017420Y024997D01*
X017496Y024920D01*
X017515Y025004D02*
X017515Y025080D01*
X017515Y025004D02*
X017361Y024850D01*
X017361Y024620D01*
X017361Y024850D02*
X017208Y025004D01*
X017208Y025080D01*
X017532Y025305D02*
X017609Y025152D01*
X017762Y024998D01*
X017880Y024920D02*
X017880Y025227D01*
X017880Y025380D02*
X017573Y025687D01*
X017532Y025766D02*
X017916Y025766D01*
X017993Y025689D01*
X017993Y025535D01*
X017916Y025459D01*
X017532Y025459D01*
X017573Y025380D02*
X017880Y025687D01*
X017880Y025841D02*
X017573Y026148D01*
X017496Y026148D01*
X017420Y026071D01*
X017420Y025918D01*
X017496Y025841D01*
X017609Y025919D02*
X017532Y025996D01*
X017532Y026149D01*
X017609Y026226D01*
X017686Y026226D01*
X017993Y025919D01*
X017993Y026226D01*
X017880Y026148D02*
X017880Y025841D01*
X017762Y026379D02*
X017762Y026686D01*
X019028Y027620D02*
X019335Y027620D01*
X019182Y027620D02*
X019182Y028080D01*
X019028Y027927D01*
X019489Y028004D02*
X019489Y027697D01*
X019796Y028004D01*
X019796Y027697D01*
X019719Y027620D01*
X019566Y027620D01*
X019489Y027697D01*
X019489Y028004D02*
X019566Y028080D01*
X019719Y028080D01*
X019796Y028004D01*
X019949Y028004D02*
X019949Y027697D01*
X020256Y028004D01*
X020256Y027697D01*
X020179Y027620D01*
X020026Y027620D01*
X019949Y027697D01*
X019949Y028004D02*
X020026Y028080D01*
X020179Y028080D01*
X020256Y028004D01*
X020410Y027927D02*
X020410Y027620D01*
X020717Y027620D02*
X020717Y027850D01*
X020640Y027927D01*
X020410Y027927D01*
X020303Y030470D02*
X019996Y030470D01*
X020150Y030470D02*
X020150Y030930D01*
X019996Y030777D01*
X020457Y030854D02*
X020533Y030930D01*
X020687Y030930D01*
X020764Y030854D01*
X020457Y030547D01*
X020533Y030470D01*
X020687Y030470D01*
X020764Y030547D01*
X020764Y030854D01*
X020917Y030777D02*
X021224Y030470D01*
X021377Y030470D02*
X021684Y030470D01*
X021531Y030470D02*
X021531Y030930D01*
X021377Y030777D01*
X021224Y030777D02*
X020917Y030470D01*
X020457Y030547D02*
X020457Y030854D01*
X021838Y030930D02*
X021838Y030470D01*
X021838Y030700D02*
X021991Y030700D01*
X021838Y030930D02*
X022145Y030930D01*
X022298Y030700D02*
X022605Y030700D01*
X022759Y030700D02*
X023066Y030700D01*
X023219Y030623D02*
X023296Y030700D01*
X023449Y030700D01*
X023526Y030623D01*
X023526Y030547D01*
X023449Y030470D01*
X023296Y030470D01*
X023219Y030547D01*
X023219Y030623D01*
X023296Y030700D02*
X023219Y030777D01*
X023219Y030854D01*
X023296Y030930D01*
X023449Y030930D01*
X023526Y030854D01*
X023526Y030777D01*
X023449Y030700D01*
X023679Y030547D02*
X023756Y030547D01*
X023756Y030470D01*
X023679Y030470D01*
X023679Y030547D01*
X023910Y030547D02*
X023986Y030470D01*
X024140Y030470D01*
X024217Y030547D01*
X024217Y030700D01*
X024140Y030777D01*
X024063Y030777D01*
X023910Y030700D01*
X023910Y030930D01*
X024217Y030930D01*
X023066Y030930D02*
X023066Y030470D01*
X022759Y030470D02*
X022759Y030930D01*
X016096Y029554D02*
X016096Y029477D01*
X015789Y029170D01*
X016096Y029170D01*
X016096Y029554D02*
X016019Y029630D01*
X015866Y029630D01*
X015789Y029554D01*
X015635Y029477D02*
X015328Y029170D01*
X015175Y029247D02*
X015098Y029170D01*
X014945Y029170D01*
X014868Y029247D01*
X015021Y029400D02*
X015098Y029400D01*
X015175Y029323D01*
X015175Y029247D01*
X015098Y029400D02*
X015175Y029477D01*
X015175Y029554D01*
X015098Y029630D01*
X014945Y029630D01*
X014868Y029554D01*
X015328Y029477D02*
X015635Y029170D01*
X014223Y030493D02*
X014146Y030493D01*
X014070Y030569D01*
X014070Y030723D01*
X014146Y030800D01*
X014071Y030825D02*
X013764Y030825D01*
X013610Y030825D02*
X013533Y030748D01*
X013303Y030748D01*
X013303Y030595D02*
X013303Y031055D01*
X013533Y031055D01*
X013610Y030978D01*
X013610Y030825D01*
X013457Y030748D02*
X013610Y030595D01*
X013150Y030672D02*
X013150Y030978D01*
X012843Y030672D01*
X012920Y030595D01*
X013073Y030595D01*
X013150Y030672D01*
X013150Y030978D02*
X013073Y031055D01*
X012920Y031055D01*
X012843Y030978D01*
X012843Y030672D01*
X012689Y030672D02*
X012689Y030748D01*
X012613Y030825D01*
X012382Y030825D01*
X012382Y030672D01*
X012459Y030595D01*
X012613Y030595D01*
X012689Y030672D01*
X012536Y030978D02*
X012382Y030825D01*
X012536Y030978D02*
X012689Y031055D01*
X012076Y031055D02*
X012076Y030595D01*
X012229Y030595D02*
X011922Y030595D01*
X011769Y030825D02*
X011462Y030825D01*
X011308Y030595D02*
X011001Y030595D01*
X011155Y030595D02*
X011155Y031055D01*
X011001Y030902D01*
X010848Y030902D02*
X010771Y030825D01*
X010848Y030748D01*
X010848Y030672D01*
X010771Y030595D01*
X010618Y030595D01*
X010541Y030672D01*
X010387Y030672D02*
X010311Y030595D01*
X010157Y030595D01*
X010080Y030672D01*
X010387Y030978D01*
X010387Y030672D01*
X010387Y030978D02*
X010311Y031055D01*
X010157Y031055D01*
X010080Y030978D01*
X010080Y030672D01*
X009927Y030595D02*
X009620Y030595D01*
X009927Y030902D01*
X009927Y030978D01*
X009850Y031055D01*
X009697Y031055D01*
X009620Y030978D01*
X009467Y030825D02*
X009160Y030825D01*
X009390Y031055D01*
X009390Y030595D01*
X009006Y030672D02*
X008929Y030595D01*
X008776Y030595D01*
X008699Y030672D01*
X008776Y030825D02*
X008929Y030825D01*
X009006Y030748D01*
X009006Y030672D01*
X008776Y030825D02*
X008699Y030902D01*
X008699Y030978D01*
X008776Y031055D01*
X008929Y031055D01*
X009006Y030978D01*
X008546Y031055D02*
X008239Y031055D01*
X008392Y031055D02*
X008392Y030595D01*
X010541Y030978D02*
X010618Y031055D01*
X010771Y031055D01*
X010848Y030978D01*
X010848Y030902D01*
X010771Y030825D02*
X010694Y030825D01*
X011922Y030902D02*
X012076Y031055D01*
X018700Y025171D02*
X018700Y025018D01*
X018700Y024711D02*
X018546Y024558D01*
X018470Y024558D01*
X018589Y024180D02*
X018589Y023720D01*
X018896Y023720D01*
X019049Y023797D02*
X019126Y023720D01*
X019279Y023720D01*
X019356Y023797D01*
X019356Y024104D01*
X019279Y024180D01*
X019126Y024180D01*
X019049Y024104D01*
X019049Y023797D01*
X019510Y023720D02*
X019663Y023873D01*
X019817Y023720D01*
X019817Y024180D01*
X019510Y024180D02*
X019510Y023720D01*
X018435Y023720D02*
X018128Y023720D01*
X018128Y024180D01*
X017975Y024180D02*
X017668Y024180D01*
X017668Y023720D01*
X017975Y023720D01*
X017993Y023694D02*
X017993Y023847D01*
X017916Y023924D01*
X017762Y023924D01*
X017762Y023771D01*
X017821Y023950D02*
X017668Y023950D01*
X017609Y023924D02*
X017532Y023847D01*
X017532Y023694D01*
X017609Y023617D01*
X017916Y023617D01*
X017993Y023694D01*
X017993Y023464D02*
X017993Y023157D01*
X017532Y023157D01*
X017532Y023464D01*
X017762Y023310D02*
X017762Y023157D01*
X017532Y023003D02*
X017993Y023003D01*
X017993Y022696D02*
X017532Y022696D01*
X017686Y022850D01*
X017532Y023003D01*
X017532Y022543D02*
X017532Y022236D01*
X017532Y022389D02*
X017993Y022389D01*
X017993Y022082D02*
X017686Y022082D01*
X017532Y021929D01*
X017686Y021775D01*
X017993Y021775D01*
X017762Y021775D02*
X017762Y022082D01*
X018420Y021527D02*
X018573Y021680D01*
X018573Y021220D01*
X018420Y021220D02*
X018727Y021220D01*
X018880Y021297D02*
X019187Y021604D01*
X019187Y021297D01*
X019111Y021220D01*
X018957Y021220D01*
X018880Y021297D01*
X018880Y021604D01*
X018957Y021680D01*
X019111Y021680D01*
X019187Y021604D01*
X019341Y021604D02*
X019341Y021297D01*
X019648Y021604D01*
X019648Y021297D01*
X019571Y021220D01*
X019418Y021220D01*
X019341Y021297D01*
X019273Y021030D02*
X019120Y020877D01*
X019273Y021030D02*
X019273Y020570D01*
X019120Y020570D02*
X019427Y020570D01*
X019580Y020647D02*
X019887Y020954D01*
X019887Y020647D01*
X019811Y020570D01*
X019657Y020570D01*
X019580Y020647D01*
X019580Y020954D01*
X019657Y021030D01*
X019811Y021030D01*
X019887Y020954D01*
X020041Y020954D02*
X020118Y021030D01*
X020271Y021030D01*
X020348Y020954D01*
X020041Y020647D01*
X020118Y020570D01*
X020271Y020570D01*
X020348Y020647D01*
X020348Y020954D01*
X020501Y020877D02*
X020501Y020570D01*
X020501Y020877D02*
X020731Y020877D01*
X020808Y020800D01*
X020808Y020570D01*
X020041Y020647D02*
X020041Y020954D01*
X020108Y021220D02*
X020108Y021450D01*
X020031Y021527D01*
X019801Y021527D01*
X019801Y021220D01*
X019648Y021604D02*
X019571Y021680D01*
X019418Y021680D01*
X019341Y021604D01*
X018098Y020800D02*
X018098Y020647D01*
X018021Y020570D01*
X017791Y020570D01*
X017791Y020417D02*
X017791Y020877D01*
X018021Y020877D01*
X018098Y020800D01*
X017637Y020877D02*
X017637Y020954D01*
X017561Y021030D01*
X017407Y021030D01*
X017330Y020954D01*
X017177Y020954D02*
X017100Y021030D01*
X016947Y021030D01*
X016870Y020954D01*
X017177Y020954D02*
X017177Y020877D01*
X016870Y020570D01*
X017177Y020570D01*
X017330Y020570D02*
X017637Y020877D01*
X017637Y020570D02*
X017330Y020570D01*
X016487Y020620D02*
X016487Y021080D01*
X016334Y020927D01*
X016180Y021080D01*
X016180Y020620D01*
X016027Y020620D02*
X015720Y020620D01*
X015873Y020620D02*
X015873Y021080D01*
X015720Y020927D01*
X014967Y021747D02*
X014890Y021670D01*
X014660Y021670D01*
X014660Y021517D02*
X014660Y021977D01*
X014890Y021977D01*
X014967Y021900D01*
X014967Y021747D01*
X014506Y021670D02*
X014199Y021670D01*
X014506Y021977D01*
X014506Y022054D01*
X014429Y022130D01*
X014276Y022130D01*
X014199Y022054D01*
X014046Y022054D02*
X013969Y022130D01*
X013816Y022130D01*
X013739Y022054D01*
X014046Y022054D02*
X014046Y021977D01*
X013739Y021670D01*
X014046Y021670D01*
X013417Y021770D02*
X013417Y022000D01*
X013340Y022077D01*
X013110Y022077D01*
X013110Y021770D01*
X012956Y021847D02*
X012879Y021770D01*
X012726Y021770D01*
X012649Y021847D01*
X012956Y022154D01*
X012956Y021847D01*
X012956Y022154D02*
X012879Y022230D01*
X012726Y022230D01*
X012649Y022154D01*
X012649Y021847D01*
X012496Y021847D02*
X012419Y021770D01*
X012266Y021770D01*
X012189Y021847D01*
X012496Y022154D01*
X012496Y021847D01*
X012496Y022154D02*
X012419Y022230D01*
X012266Y022230D01*
X012189Y022154D01*
X012189Y021847D01*
X012035Y021770D02*
X011728Y021770D01*
X011882Y021770D02*
X011882Y022230D01*
X011728Y022077D01*
X010000Y022180D02*
X010000Y021720D01*
X010000Y021950D02*
X009693Y021950D01*
X009693Y021720D02*
X009693Y022180D01*
X009539Y022180D02*
X009232Y022180D01*
X009150Y021986D02*
X009150Y021832D01*
X009079Y021643D02*
X008772Y021643D01*
X008618Y021797D02*
X008542Y021720D01*
X008312Y021720D01*
X008312Y022180D01*
X008542Y022180D01*
X008618Y022104D01*
X008618Y022027D01*
X008542Y021950D01*
X008312Y021950D01*
X008158Y021950D02*
X007851Y021950D01*
X007698Y021873D02*
X007698Y021797D01*
X007621Y021720D01*
X007391Y021720D01*
X007391Y022180D01*
X007621Y022180D01*
X007698Y022104D01*
X007698Y022027D01*
X007621Y021950D01*
X007391Y021950D01*
X007237Y021873D02*
X007237Y021797D01*
X007161Y021720D01*
X007007Y021720D01*
X006930Y021797D01*
X006777Y021797D02*
X006777Y022180D01*
X006930Y022104D02*
X007007Y022180D01*
X007161Y022180D01*
X007237Y022104D01*
X007161Y021950D02*
X007237Y021873D01*
X007161Y021950D02*
X007007Y021950D01*
X006930Y022027D01*
X006930Y022104D01*
X006777Y021797D02*
X006700Y021720D01*
X006547Y021720D01*
X006470Y021797D01*
X006470Y022180D01*
X007621Y021950D02*
X007698Y021873D01*
X008542Y021950D02*
X008618Y021873D01*
X008618Y021797D01*
X008920Y021832D02*
X008920Y022139D01*
X008920Y021832D02*
X009380Y021832D01*
X009380Y021372D02*
X008920Y021372D01*
X008996Y023214D02*
X009303Y023214D01*
X017208Y024104D02*
X017361Y023950D01*
X017361Y023720D01*
X017361Y023950D02*
X017515Y024104D01*
X017515Y024180D01*
X017532Y024231D02*
X017686Y024384D01*
X017762Y024384D02*
X017762Y024077D01*
X017686Y024077D02*
X017532Y024231D01*
X017686Y024077D02*
X017993Y024077D01*
X017208Y024104D02*
X017208Y024180D01*
X017668Y024850D02*
X017821Y024850D01*
X019049Y024697D02*
X019126Y024620D01*
X019279Y024620D01*
X019356Y024697D01*
X019356Y025004D01*
X019279Y025080D01*
X019126Y025080D01*
X019049Y025004D01*
X019049Y024697D01*
X019510Y024620D02*
X019510Y025080D01*
X019817Y025080D02*
X019817Y024620D01*
X019663Y024773D01*
X019510Y024620D01*
X024253Y019530D02*
X024253Y019070D01*
X024406Y019070D02*
X024099Y019070D01*
X024099Y019377D02*
X024253Y019530D01*
X024560Y019530D02*
X024713Y019377D01*
X024867Y019530D01*
X024867Y019070D01*
X024560Y019070D02*
X024560Y019530D01*
X019380Y016187D02*
X019073Y016187D01*
X019073Y015880D02*
X019303Y015880D01*
X019380Y015957D01*
X019380Y016187D01*
X019380Y015727D02*
X019380Y015420D01*
X019380Y015573D02*
X018920Y015573D01*
X019073Y015420D01*
X016000Y013554D02*
X016000Y013247D01*
X015326Y012139D02*
X015262Y012161D01*
X015199Y012188D01*
X015137Y012218D01*
X015078Y012251D01*
X015020Y012287D01*
X014964Y012327D01*
X014911Y012370D01*
X014860Y012415D01*
X014812Y012463D01*
X014767Y012514D01*
X014724Y012568D01*
X014685Y012624D01*
X014648Y012681D01*
X014615Y012741D01*
X014586Y012803D01*
X014560Y012866D01*
X014537Y012930D01*
X014518Y012996D01*
X014503Y013063D01*
X014492Y013130D01*
X014484Y013198D01*
X014480Y013266D01*
X014480Y013334D01*
X014484Y013402D01*
X014492Y013470D01*
X014503Y013537D01*
X014518Y013604D01*
X014537Y013670D01*
X014560Y013734D01*
X014586Y013797D01*
X014615Y013859D01*
X014648Y013919D01*
X014685Y013976D01*
X014724Y014032D01*
X014767Y014086D01*
X014812Y014137D01*
X014860Y014185D01*
X014911Y014230D01*
X014964Y014273D01*
X015020Y014313D01*
X015078Y014349D01*
X015137Y014382D01*
X015199Y014412D01*
X015262Y014439D01*
X015326Y014461D01*
X013184Y016062D02*
X012997Y016249D01*
X012950Y016249D01*
X012903Y016202D01*
X012903Y016109D01*
X012950Y016062D01*
X013184Y016062D02*
X013184Y016249D01*
X013133Y016972D02*
X013180Y017019D01*
X013180Y017112D01*
X013133Y017159D01*
X013087Y017159D01*
X013040Y017112D01*
X013040Y017065D01*
X013040Y017112D02*
X012993Y017159D01*
X012946Y017159D01*
X012900Y017112D01*
X012900Y017019D01*
X012946Y016972D01*
X012225Y014531D02*
X012666Y013870D01*
X010512Y013870D02*
X010512Y014531D01*
X010292Y014310D01*
X007378Y015967D02*
X007378Y016274D01*
X018874Y014461D02*
X018938Y014439D01*
X019001Y014412D01*
X019063Y014382D01*
X019122Y014349D01*
X019180Y014313D01*
X019236Y014273D01*
X019289Y014230D01*
X019340Y014185D01*
X019388Y014137D01*
X019433Y014086D01*
X019476Y014032D01*
X019515Y013976D01*
X019552Y013919D01*
X019585Y013859D01*
X019614Y013797D01*
X019640Y013734D01*
X019663Y013670D01*
X019682Y013604D01*
X019697Y013537D01*
X019708Y013470D01*
X019716Y013402D01*
X019720Y013334D01*
X019720Y013266D01*
X019716Y013198D01*
X019708Y013130D01*
X019697Y013063D01*
X019682Y012996D01*
X019663Y012930D01*
X019640Y012866D01*
X019614Y012803D01*
X019585Y012741D01*
X019552Y012681D01*
X019515Y012624D01*
X019476Y012568D01*
X019433Y012514D01*
X019388Y012463D01*
X019340Y012415D01*
X019289Y012370D01*
X019236Y012327D01*
X019180Y012287D01*
X019122Y012251D01*
X019063Y012218D01*
X019001Y012188D01*
X018938Y012161D01*
X018874Y012139D01*
X018126Y012139D02*
X018062Y012161D01*
X017999Y012188D01*
X017937Y012218D01*
X017878Y012251D01*
X017820Y012287D01*
X017764Y012327D01*
X017711Y012370D01*
X017660Y012415D01*
X017612Y012463D01*
X017567Y012514D01*
X017524Y012568D01*
X017485Y012624D01*
X017448Y012681D01*
X017415Y012741D01*
X017386Y012803D01*
X017360Y012866D01*
X017337Y012930D01*
X017318Y012996D01*
X017303Y013063D01*
X017292Y013130D01*
X017284Y013198D01*
X017280Y013266D01*
X017280Y013334D01*
X017284Y013402D01*
X017292Y013470D01*
X017303Y013537D01*
X017318Y013604D01*
X017337Y013670D01*
X017360Y013734D01*
X017386Y013797D01*
X017415Y013859D01*
X017448Y013919D01*
X017485Y013976D01*
X017524Y014032D01*
X017567Y014086D01*
X017612Y014137D01*
X017660Y014185D01*
X017711Y014230D01*
X017764Y014273D01*
X017820Y014313D01*
X017878Y014349D01*
X017937Y014382D01*
X017999Y014412D01*
X018062Y014439D01*
X018126Y014461D01*
X024078Y014527D02*
X024232Y014680D01*
X024232Y014220D01*
X024385Y014220D02*
X024078Y014220D01*
X024539Y014297D02*
X024846Y014604D01*
X024846Y014297D01*
X024769Y014220D01*
X024616Y014220D01*
X024539Y014297D01*
X024539Y014604D01*
X024616Y014680D01*
X024769Y014680D01*
X024846Y014604D01*
X024999Y014604D02*
X025076Y014680D01*
X025229Y014680D01*
X025306Y014604D01*
X024999Y014297D01*
X025076Y014220D01*
X025229Y014220D01*
X025306Y014297D01*
X025306Y014604D01*
X025460Y014527D02*
X025690Y014527D01*
X025767Y014450D01*
X025767Y014220D01*
X025460Y014220D02*
X025460Y014527D01*
X024999Y014604D02*
X024999Y014297D01*
X030920Y015462D02*
X030996Y015385D01*
X031303Y015385D01*
X031380Y015462D01*
X031380Y015615D01*
X031303Y015692D01*
X031380Y015845D02*
X030920Y015845D01*
X030920Y016075D01*
X030996Y016152D01*
X031303Y016152D01*
X031380Y016075D01*
X031380Y015845D01*
X030996Y015692D02*
X030920Y015615D01*
X030920Y015462D01*
X031073Y016306D02*
X030920Y016459D01*
X031380Y016459D01*
X031380Y016306D02*
X031380Y016613D01*
X031380Y016766D02*
X031073Y017073D01*
X030996Y017073D01*
X030920Y016996D01*
X030920Y016843D01*
X030996Y016766D01*
X031380Y016766D02*
X031380Y017073D01*
X031303Y017226D02*
X030996Y017226D01*
X030920Y017303D01*
X030920Y017457D01*
X030996Y017533D01*
X031303Y017226D01*
X031380Y017303D01*
X031380Y017457D01*
X031303Y017533D01*
X030996Y017533D01*
X031150Y017687D02*
X031150Y017917D01*
X031227Y017994D01*
X031303Y017994D01*
X031380Y017917D01*
X031380Y017764D01*
X031303Y017687D01*
X031150Y017687D01*
X030996Y017840D01*
X030920Y017994D01*
X031150Y018147D02*
X031150Y018454D01*
X031073Y018608D02*
X031150Y018684D01*
X031150Y018838D01*
X031227Y018915D01*
X031303Y018915D01*
X031380Y018838D01*
X031380Y018684D01*
X031303Y018608D01*
X031073Y018608D02*
X030996Y018608D01*
X030920Y018684D01*
X030920Y018838D01*
X030996Y018915D01*
X030996Y019068D02*
X030920Y019145D01*
X030920Y019298D01*
X030996Y019375D01*
X031303Y019068D01*
X031380Y019145D01*
X031380Y019298D01*
X031303Y019375D01*
X030996Y019375D01*
X031073Y019528D02*
X030920Y019682D01*
X031380Y019682D01*
X031380Y019835D02*
X031380Y019528D01*
X031303Y019989D02*
X031380Y020066D01*
X031380Y020219D01*
X031303Y020296D01*
X031150Y020296D01*
X031073Y020219D01*
X031073Y020142D01*
X031150Y019989D01*
X030920Y019989D01*
X030920Y020296D01*
X030920Y020449D02*
X030920Y020756D01*
X030996Y020756D01*
X031303Y020449D01*
X031380Y020449D01*
X031303Y020910D02*
X031380Y020986D01*
X031380Y021140D01*
X031303Y021217D01*
X031150Y021217D01*
X031073Y021140D01*
X031073Y021063D01*
X031150Y020910D01*
X030920Y020910D01*
X030920Y021217D01*
X031047Y023120D02*
X031200Y023120D01*
X031277Y023197D01*
X031277Y023350D01*
X031123Y023350D01*
X030970Y023197D02*
X031047Y023120D01*
X030970Y023197D02*
X030970Y023504D01*
X031047Y023580D01*
X031200Y023580D01*
X031277Y023504D01*
X031430Y023580D02*
X031661Y023580D01*
X031737Y023504D01*
X031737Y023350D01*
X031661Y023273D01*
X031430Y023273D01*
X031430Y023120D02*
X031430Y023580D01*
X031584Y023273D02*
X031737Y023120D01*
X031891Y023120D02*
X031891Y023580D01*
X032198Y023580D01*
X032351Y023580D02*
X032351Y023120D01*
X032658Y023120D01*
X032812Y023120D02*
X032812Y023580D01*
X033118Y023120D01*
X033118Y023580D01*
X032658Y023580D02*
X032351Y023580D01*
X032351Y023350D02*
X032505Y023350D01*
X032198Y023120D02*
X031891Y023120D01*
X031891Y023350D02*
X032044Y023350D01*
X031303Y019068D02*
X030996Y019068D01*
X032713Y018923D02*
X032790Y019000D01*
X032943Y019000D01*
X033020Y018923D01*
X033020Y018847D01*
X032943Y018770D01*
X033020Y018693D01*
X033020Y018616D01*
X032943Y018540D01*
X032790Y018540D01*
X032713Y018616D01*
X032866Y018770D02*
X032943Y018770D01*
X033173Y018847D02*
X033480Y018540D01*
X033634Y018540D02*
X033941Y018847D01*
X033941Y018923D01*
X033864Y019000D01*
X033710Y019000D01*
X033634Y018923D01*
X033480Y018847D02*
X033173Y018540D01*
X033634Y018540D02*
X033941Y018540D01*
X034554Y018540D02*
X034554Y019000D01*
X034708Y018847D01*
X034861Y019000D01*
X034861Y018540D01*
X031730Y009930D02*
X031423Y009930D01*
X031423Y009700D01*
X031576Y009777D01*
X031653Y009777D01*
X031730Y009700D01*
X031730Y009547D01*
X031653Y009470D01*
X031500Y009470D01*
X031423Y009547D01*
X031269Y009547D02*
X031269Y009470D01*
X031193Y009470D01*
X031193Y009547D01*
X031269Y009547D01*
X031039Y009547D02*
X030963Y009470D01*
X030809Y009470D01*
X030732Y009547D01*
X030732Y009623D01*
X030809Y009700D01*
X030963Y009700D01*
X031039Y009623D01*
X031039Y009547D01*
X030963Y009700D02*
X031039Y009777D01*
X031039Y009854D01*
X030963Y009930D01*
X030809Y009930D01*
X030732Y009854D01*
X030732Y009777D01*
X030809Y009700D01*
X030579Y009700D02*
X030272Y009700D01*
X030118Y009700D02*
X029812Y009700D01*
X029658Y009930D02*
X029351Y009930D01*
X029351Y009470D01*
X029198Y009470D02*
X028891Y009470D01*
X029044Y009470D02*
X029044Y009930D01*
X028891Y009777D01*
X028737Y009777D02*
X028430Y009470D01*
X028277Y009547D02*
X028277Y009623D01*
X028200Y009700D01*
X027970Y009700D01*
X027970Y009547D01*
X028047Y009470D01*
X028200Y009470D01*
X028277Y009547D01*
X028430Y009777D02*
X028737Y009470D01*
X028277Y009930D02*
X028123Y009854D01*
X027970Y009700D01*
X029351Y009700D02*
X029505Y009700D01*
X030272Y009470D02*
X030272Y009930D01*
X030579Y009930D02*
X030579Y009470D01*
X022730Y009547D02*
X022653Y009470D01*
X022500Y009470D01*
X022423Y009547D01*
X022423Y009700D02*
X022576Y009777D01*
X022653Y009777D01*
X022730Y009700D01*
X022730Y009547D01*
X022423Y009700D02*
X022423Y009930D01*
X022730Y009930D01*
X022269Y009547D02*
X022193Y009547D01*
X022193Y009470D01*
X022269Y009470D01*
X022269Y009547D01*
X022039Y009547D02*
X021963Y009470D01*
X021809Y009470D01*
X021732Y009547D01*
X021732Y009623D01*
X021809Y009700D01*
X021963Y009700D01*
X022039Y009623D01*
X022039Y009547D01*
X021963Y009700D02*
X022039Y009777D01*
X022039Y009854D01*
X021963Y009930D01*
X021809Y009930D01*
X021732Y009854D01*
X021732Y009777D01*
X021809Y009700D01*
X021579Y009700D02*
X021272Y009700D01*
X021118Y009700D02*
X020812Y009700D01*
X020658Y009930D02*
X020351Y009930D01*
X020351Y009470D01*
X020198Y009470D02*
X019891Y009470D01*
X020044Y009470D02*
X020044Y009930D01*
X019891Y009777D01*
X019737Y009777D02*
X019430Y009470D01*
X019277Y009547D02*
X019200Y009470D01*
X019047Y009470D01*
X018970Y009547D01*
X018970Y009623D01*
X019047Y009700D01*
X019200Y009700D01*
X019277Y009623D01*
X019277Y009547D01*
X019200Y009700D02*
X019277Y009777D01*
X019277Y009854D01*
X019200Y009930D01*
X019047Y009930D01*
X018970Y009854D01*
X018970Y009777D01*
X019047Y009700D01*
X019430Y009777D02*
X019737Y009470D01*
X020351Y009700D02*
X020505Y009700D01*
X021272Y009470D02*
X021272Y009930D01*
X021579Y009930D02*
X021579Y009470D01*
X030133Y030470D02*
X030057Y030547D01*
X030057Y030623D01*
X030133Y030700D01*
X030287Y030700D01*
X030364Y030623D01*
X030364Y030547D01*
X030287Y030470D01*
X030133Y030470D01*
X030133Y030700D02*
X030057Y030777D01*
X030057Y030854D01*
X030133Y030930D01*
X030287Y030930D01*
X030364Y030854D01*
X030364Y030777D01*
X030287Y030700D01*
X030517Y030777D02*
X030824Y030470D01*
X030977Y030470D02*
X031284Y030470D01*
X031131Y030470D02*
X031131Y030930D01*
X030977Y030777D01*
X030824Y030777D02*
X030517Y030470D01*
X031438Y030470D02*
X031438Y030930D01*
X031745Y030930D01*
X031898Y030700D02*
X032205Y030700D01*
X032359Y030700D02*
X032666Y030700D01*
X032819Y030623D02*
X032896Y030700D01*
X033049Y030700D01*
X033126Y030623D01*
X033126Y030547D01*
X033049Y030470D01*
X032896Y030470D01*
X032819Y030547D01*
X032819Y030623D01*
X032896Y030700D02*
X032819Y030777D01*
X032819Y030854D01*
X032896Y030930D01*
X033049Y030930D01*
X033126Y030854D01*
X033126Y030777D01*
X033049Y030700D01*
X033279Y030547D02*
X033356Y030547D01*
X033356Y030470D01*
X033279Y030470D01*
X033279Y030547D01*
X033510Y030547D02*
X033586Y030470D01*
X033740Y030470D01*
X033817Y030547D01*
X033817Y030700D01*
X033740Y030777D01*
X033663Y030777D01*
X033510Y030700D01*
X033510Y030930D01*
X033817Y030930D01*
X032666Y030930D02*
X032666Y030470D01*
X032359Y030470D02*
X032359Y030930D01*
X031591Y030700D02*
X031438Y030700D01*
D20*
X031509Y024336D03*
X031509Y023864D03*
X019391Y023864D03*
X019391Y024336D03*
X019391Y023436D03*
X019391Y022964D03*
X019509Y026064D03*
X019509Y026536D03*
D21*
X019509Y026300D03*
X019391Y024100D03*
X019391Y023200D03*
X031509Y024100D03*
D22*
X015498Y022338D02*
X015498Y022145D01*
X015498Y022241D02*
X015207Y022241D01*
X015304Y022145D01*
X013934Y023352D02*
X013687Y023352D01*
X013687Y023723D01*
X013934Y023723D01*
X013811Y023538D02*
X013687Y023538D01*
X013566Y023538D02*
X013566Y023414D01*
X013504Y023352D01*
X013381Y023352D01*
X013319Y023414D01*
X013197Y023414D02*
X013197Y023661D01*
X012951Y023414D01*
X013012Y023352D01*
X013136Y023352D01*
X013197Y023414D01*
X013319Y023538D02*
X013442Y023599D01*
X013504Y023599D01*
X013566Y023538D01*
X013566Y023723D02*
X013319Y023723D01*
X013319Y023538D01*
X013197Y023661D02*
X013136Y023723D01*
X013012Y023723D01*
X012951Y023661D01*
X012951Y023414D01*
X012829Y023538D02*
X012582Y023538D01*
X012461Y023661D02*
X012399Y023723D01*
X012276Y023723D01*
X012214Y023661D01*
X012214Y023414D01*
X012276Y023352D01*
X012399Y023352D01*
X012461Y023414D01*
X012093Y023352D02*
X011846Y023352D01*
X011846Y023723D01*
X011724Y023723D02*
X011724Y023352D01*
X011477Y023352D02*
X011477Y023723D01*
X011601Y023599D01*
X011724Y023723D01*
X011356Y023661D02*
X011356Y023599D01*
X011294Y023538D01*
X011356Y023476D01*
X011356Y023414D01*
X011294Y023352D01*
X011171Y023352D01*
X011109Y023414D01*
X010988Y023414D02*
X010926Y023352D01*
X010802Y023352D01*
X010741Y023414D01*
X010988Y023661D01*
X010988Y023414D01*
X010988Y023661D02*
X010926Y023723D01*
X010802Y023723D01*
X010741Y023661D01*
X010741Y023414D01*
X010619Y023414D02*
X010619Y023476D01*
X010558Y023538D01*
X010372Y023538D01*
X010372Y023414D01*
X010434Y023352D01*
X010558Y023352D01*
X010619Y023414D01*
X010496Y023661D02*
X010372Y023538D01*
X010251Y023661D02*
X010004Y023414D01*
X010066Y023352D01*
X010189Y023352D01*
X010251Y023414D01*
X010251Y023661D01*
X010189Y023723D01*
X010066Y023723D01*
X010004Y023661D01*
X010004Y023414D01*
X009883Y023414D02*
X009883Y023538D01*
X009759Y023538D01*
X009636Y023661D02*
X009636Y023414D01*
X009697Y023352D01*
X009821Y023352D01*
X009883Y023414D01*
X009883Y023661D02*
X009821Y023723D01*
X009697Y023723D01*
X009636Y023661D01*
X009514Y023661D02*
X009453Y023723D01*
X009329Y023723D01*
X009267Y023661D01*
X009267Y023414D01*
X009329Y023352D01*
X009453Y023352D01*
X009514Y023414D01*
X010496Y023661D02*
X010619Y023723D01*
X011109Y023661D02*
X011171Y023723D01*
X011294Y023723D01*
X011356Y023661D01*
X011294Y023538D02*
X011232Y023538D01*
X011171Y025602D02*
X011109Y025664D01*
X011171Y025602D02*
X011294Y025602D01*
X011356Y025664D01*
X011356Y025726D01*
X011294Y025788D01*
X011232Y025788D01*
X011294Y025788D02*
X011356Y025849D01*
X011356Y025911D01*
X011294Y025973D01*
X011171Y025973D01*
X011109Y025911D01*
X010988Y025911D02*
X010741Y025664D01*
X010802Y025602D01*
X010926Y025602D01*
X010988Y025664D01*
X010988Y025911D01*
X010926Y025973D01*
X010802Y025973D01*
X010741Y025911D01*
X010741Y025664D01*
X010619Y025664D02*
X010619Y025726D01*
X010558Y025788D01*
X010372Y025788D01*
X010372Y025664D01*
X010434Y025602D01*
X010558Y025602D01*
X010619Y025664D01*
X010496Y025911D02*
X010372Y025788D01*
X010251Y025911D02*
X010251Y025664D01*
X010189Y025602D01*
X010066Y025602D01*
X010004Y025664D01*
X010251Y025911D01*
X010189Y025973D01*
X010066Y025973D01*
X010004Y025911D01*
X010004Y025664D01*
X009883Y025664D02*
X009883Y025788D01*
X009759Y025788D01*
X009636Y025911D02*
X009636Y025664D01*
X009697Y025602D01*
X009821Y025602D01*
X009883Y025664D01*
X009883Y025911D02*
X009821Y025973D01*
X009697Y025973D01*
X009636Y025911D01*
X009514Y025911D02*
X009453Y025973D01*
X009329Y025973D01*
X009267Y025911D01*
X009267Y025664D01*
X009329Y025602D01*
X009453Y025602D01*
X009514Y025664D01*
X010496Y025911D02*
X010619Y025973D01*
X011477Y025973D02*
X011477Y025602D01*
X011724Y025602D02*
X011724Y025973D01*
X011601Y025849D01*
X011477Y025973D01*
X011846Y025973D02*
X011846Y025602D01*
X012093Y025602D01*
X012214Y025664D02*
X012276Y025602D01*
X012399Y025602D01*
X012461Y025664D01*
X012582Y025788D02*
X012829Y025788D01*
X012951Y025664D02*
X012951Y025911D01*
X013012Y025973D01*
X013136Y025973D01*
X013197Y025911D01*
X012951Y025664D01*
X013012Y025602D01*
X013136Y025602D01*
X013197Y025664D01*
X013197Y025911D01*
X013319Y025973D02*
X013319Y025788D01*
X013442Y025849D01*
X013504Y025849D01*
X013566Y025788D01*
X013566Y025664D01*
X013504Y025602D01*
X013381Y025602D01*
X013319Y025664D01*
X013319Y025973D02*
X013566Y025973D01*
X013687Y025973D02*
X013687Y025602D01*
X013934Y025602D01*
X013811Y025788D02*
X013687Y025788D01*
X013687Y025973D02*
X013934Y025973D01*
X012461Y025911D02*
X012399Y025973D01*
X012276Y025973D01*
X012214Y025911D01*
X012214Y025664D01*
D23*
X011844Y027204D02*
X011056Y027204D01*
X011056Y027696D02*
X011844Y027696D01*
D24*
X011450Y027450D03*
D25*
X011547Y027065D02*
X011620Y026992D01*
X011694Y027065D01*
X011694Y026845D01*
X011768Y026845D02*
X011915Y026992D01*
X011915Y027028D01*
X011878Y027065D01*
X011805Y027065D01*
X011768Y027028D01*
X011768Y026845D02*
X011915Y026845D01*
X011989Y026845D02*
X012136Y026845D01*
X012062Y026845D02*
X012062Y027065D01*
X011989Y026992D01*
X011547Y027065D02*
X011547Y026845D01*
X011473Y026845D02*
X011326Y026845D01*
X011326Y027065D01*
X011252Y027028D02*
X011252Y026992D01*
X011215Y026955D01*
X011105Y026955D01*
X011105Y026845D02*
X011215Y026845D01*
X011252Y026882D01*
X011252Y026918D01*
X011215Y026955D01*
X011252Y027028D02*
X011215Y027065D01*
X011105Y027065D01*
X011105Y026845D01*
X014550Y020700D02*
X017250Y020700D01*
X017301Y020698D01*
X017352Y020693D01*
X017402Y020683D01*
X017452Y020670D01*
X017500Y020654D01*
X017547Y020634D01*
X017593Y020610D01*
X017636Y020584D01*
X017678Y020554D01*
X017717Y020521D01*
X017754Y020486D01*
X017788Y020448D01*
X017819Y020407D01*
X017848Y020365D01*
X017873Y020320D01*
X017894Y020274D01*
X017913Y020226D01*
X017927Y020177D01*
X017938Y020127D01*
X017946Y020077D01*
X017950Y020026D01*
X017950Y019974D01*
X017946Y019923D01*
X017938Y019873D01*
X017927Y019823D01*
X017913Y019774D01*
X017894Y019726D01*
X017873Y019680D01*
X017848Y019635D01*
X017819Y019593D01*
X017788Y019552D01*
X017754Y019514D01*
X017717Y019479D01*
X017678Y019446D01*
X017636Y019416D01*
X017593Y019390D01*
X017547Y019366D01*
X017500Y019346D01*
X017452Y019330D01*
X017402Y019317D01*
X017352Y019307D01*
X017301Y019302D01*
X017250Y019300D01*
X014550Y019300D01*
X014499Y019302D01*
X014448Y019307D01*
X014398Y019317D01*
X014348Y019330D01*
X014300Y019346D01*
X014253Y019366D01*
X014207Y019390D01*
X014164Y019416D01*
X014122Y019446D01*
X014083Y019479D01*
X014046Y019514D01*
X014012Y019552D01*
X013981Y019593D01*
X013952Y019635D01*
X013927Y019680D01*
X013906Y019726D01*
X013887Y019774D01*
X013873Y019823D01*
X013862Y019873D01*
X013854Y019923D01*
X013850Y019974D01*
X013850Y020026D01*
X013854Y020077D01*
X013862Y020127D01*
X013873Y020177D01*
X013887Y020226D01*
X013906Y020274D01*
X013927Y020320D01*
X013952Y020365D01*
X013981Y020407D01*
X014012Y020448D01*
X014046Y020486D01*
X014083Y020521D01*
X014122Y020554D01*
X014164Y020584D01*
X014207Y020610D01*
X014253Y020634D01*
X014300Y020654D01*
X014348Y020670D01*
X014398Y020683D01*
X014448Y020693D01*
X014499Y020698D01*
X014550Y020700D01*
X016064Y017328D02*
X016066Y017355D01*
X016072Y017382D01*
X016081Y017408D01*
X016094Y017432D01*
X016110Y017455D01*
X016129Y017474D01*
X016151Y017491D01*
X016175Y017505D01*
X016200Y017515D01*
X016227Y017522D01*
X016254Y017525D01*
X016282Y017524D01*
X016309Y017519D01*
X016335Y017511D01*
X016359Y017499D01*
X016382Y017483D01*
X016403Y017465D01*
X016420Y017444D01*
X016435Y017420D01*
X016446Y017395D01*
X016454Y017369D01*
X016458Y017342D01*
X016458Y017314D01*
X016454Y017287D01*
X016446Y017261D01*
X016435Y017236D01*
X016420Y017212D01*
X016403Y017191D01*
X016382Y017173D01*
X016360Y017157D01*
X016335Y017145D01*
X016309Y017137D01*
X016282Y017132D01*
X016254Y017131D01*
X016227Y017134D01*
X016200Y017141D01*
X016175Y017151D01*
X016151Y017165D01*
X016129Y017182D01*
X016110Y017201D01*
X016094Y017224D01*
X016081Y017248D01*
X016072Y017274D01*
X016066Y017301D01*
X016064Y017328D01*
D26*
X024070Y019185D02*
X024070Y019815D01*
X025330Y019815D02*
X025330Y019185D01*
D27*
X025294Y018971D02*
X025294Y018884D01*
X025338Y018840D01*
X025381Y018884D01*
X025381Y018971D01*
X025423Y018971D02*
X025423Y018905D01*
X025467Y018927D01*
X025488Y018927D01*
X025510Y018905D01*
X025510Y018862D01*
X025488Y018840D01*
X025445Y018840D01*
X025423Y018862D01*
X025423Y018971D02*
X025510Y018971D01*
X025552Y018949D02*
X025574Y018971D01*
X025617Y018971D01*
X025639Y018949D01*
X025639Y018927D01*
X025617Y018905D01*
X025639Y018884D01*
X025639Y018862D01*
X025617Y018840D01*
X025574Y018840D01*
X025552Y018862D01*
X025596Y018905D02*
X025617Y018905D01*
X025681Y018905D02*
X025768Y018905D01*
X025810Y018884D02*
X025875Y018884D01*
X025897Y018905D01*
X025897Y018949D01*
X025875Y018971D01*
X025810Y018971D01*
X025810Y018840D01*
X025853Y018884D02*
X025897Y018840D01*
X025939Y018862D02*
X026026Y018949D01*
X026026Y018862D01*
X026004Y018840D01*
X025961Y018840D01*
X025939Y018862D01*
X025939Y018949D01*
X025961Y018971D01*
X026004Y018971D01*
X026026Y018949D01*
X026197Y018927D02*
X026240Y018971D01*
X026240Y018840D01*
X026197Y018840D02*
X026283Y018840D01*
X026326Y018862D02*
X026347Y018840D01*
X026391Y018840D01*
X026412Y018862D01*
X026412Y018884D01*
X026391Y018905D01*
X026326Y018905D01*
X026326Y018862D01*
X026326Y018905D02*
X026369Y018949D01*
X026412Y018971D01*
X026455Y018971D02*
X026498Y018927D01*
X026541Y018971D01*
X026541Y018840D01*
X026583Y018840D02*
X026583Y018971D01*
X026583Y018905D02*
X026670Y018905D01*
X026712Y018862D02*
X026712Y018840D01*
X026799Y018840D01*
X026712Y018862D02*
X026799Y018949D01*
X026799Y018971D01*
X026712Y018971D01*
X026670Y018971D02*
X026670Y018840D01*
X026455Y018840D02*
X026455Y018971D01*
X025252Y018949D02*
X025165Y018862D01*
X025187Y018840D01*
X025230Y018840D01*
X025252Y018862D01*
X025252Y018949D01*
X025230Y018971D01*
X025187Y018971D01*
X025165Y018949D01*
X025165Y018862D01*
X025123Y018840D02*
X025123Y018971D01*
X025080Y018927D01*
X025037Y018971D01*
X025037Y018840D01*
X024994Y018862D02*
X024994Y018884D01*
X024973Y018905D01*
X024908Y018905D01*
X024908Y018862D01*
X024929Y018840D01*
X024973Y018840D01*
X024994Y018862D01*
X024908Y018905D02*
X024951Y018949D01*
X024994Y018971D01*
X024822Y018971D02*
X024822Y018840D01*
X024779Y018840D02*
X024865Y018840D01*
X024779Y018927D02*
X024822Y018971D01*
X024737Y018971D02*
X024650Y018971D01*
X024650Y018840D01*
X024737Y018840D01*
X024693Y018905D02*
X024650Y018905D01*
X024608Y018862D02*
X024586Y018840D01*
X024543Y018840D01*
X024521Y018862D01*
X024521Y018949D01*
X024543Y018971D01*
X024586Y018971D01*
X024608Y018949D01*
X024479Y018971D02*
X024392Y018971D01*
X024435Y018971D02*
X024435Y018840D01*
X024350Y018862D02*
X024328Y018840D01*
X024285Y018840D01*
X024263Y018862D01*
X024221Y018862D02*
X024199Y018840D01*
X024156Y018840D01*
X024134Y018862D01*
X024134Y018949D01*
X024156Y018971D01*
X024199Y018971D01*
X024221Y018949D01*
X024263Y018949D02*
X024263Y018927D01*
X024285Y018905D01*
X024328Y018905D01*
X024350Y018884D01*
X024350Y018862D01*
X024350Y018949D02*
X024328Y018971D01*
X024285Y018971D01*
X024263Y018949D01*
D28*
X031850Y020920D03*
X013600Y027680D03*
M02*
