<?xml version="1.0" encoding="iso-8859-1"?>
<!-- Generator: Adobe Illustrator 18.1.1, SVG Export Plug-In . SVG Version: 6.00 Build 0)  -->
<svg version="1.1" id="Capa_1" xmlns="http://www.w3.org/2000/svg" xmlns:xlink="http://www.w3.org/1999/xlink" x="0px" y="0px"
	 viewBox="0 0 368.806 368.806" style="enable-background:new 0 0 368.806 368.806;" xml:space="preserve">
<g>
	<g>
		<circle style="fill:#010002;" cx="184.4" cy="184.406" r="16.904"/>
		<path style="fill:#010002;" d="M221.037,48.171l-10.185,31.899c-1.008,3.139,0.728,6.498,3.867,7.5
			c0.603,0.191,1.211,0.286,1.814,0.286c2.53,0,4.875-1.617,5.68-4.153l10.185-31.899c1.008-3.139-0.728-6.498-3.867-7.5
			C225.405,43.308,222.033,45.038,221.037,48.171z"/>
		<path style="fill:#010002;" d="M133.67,95.667c0.961,0,1.933-0.233,2.84-0.722c2.9-1.575,3.974-5.197,2.399-8.091l-15.973-29.429
			c-1.575-2.894-5.197-3.968-8.085-2.399c-2.9,1.575-3.974,5.197-2.399,8.091l15.973,29.429
			C129.505,94.539,131.558,95.667,133.67,95.667z"/>
		<path style="fill:#010002;" d="M279.112,139.637c0.961,0,1.933-0.233,2.84-0.722l29.429-15.973c2.9-1.575,3.974-5.197,2.399-8.091
			c-1.575-2.894-5.191-3.974-8.085-2.399l-29.429,15.973c-2.9,1.575-3.974,5.197-2.399,8.091
			C274.947,138.509,276.994,139.637,279.112,139.637z"/>
		<path style="fill:#010002;" d="M320.63,221.043l-31.899-10.185c-3.127-1.038-6.498,0.728-7.494,3.867
			c-1.008,3.133,0.728,6.492,3.867,7.494l31.899,10.185c0.603,0.197,1.211,0.286,1.814,0.286c2.53,0,4.875-1.617,5.68-4.153
			C325.505,225.399,323.768,222.045,320.63,221.043z"/>
		<path style="fill:#010002;" d="M140.269,324.502c0.603,0.197,1.211,0.286,1.814,0.286c2.53,0,4.875-1.617,5.68-4.153
			l10.185-31.899c1.008-3.133-0.728-6.492-3.867-7.494c-3.133-1.038-6.498,0.728-7.494,3.867l-10.185,31.899
			C135.394,320.146,137.131,323.506,140.269,324.502z"/>
		<path style="fill:#010002;" d="M232.29,273.867c-2.9,1.575-3.974,5.191-2.399,8.085l15.973,29.429
			c1.086,1.993,3.133,3.121,5.251,3.121c0.961,0,1.933-0.233,2.84-0.722c2.9-1.575,3.974-5.191,2.399-8.085l-15.973-29.429
			C238.8,273.372,235.184,272.304,232.29,273.867z"/>
		<path style="fill:#010002;" d="M86.854,229.898l-29.429,15.973c-2.9,1.575-3.974,5.191-2.399,8.085
			c1.086,1.993,3.133,3.121,5.251,3.121c0.961,0,1.933-0.233,2.84-0.722l29.429-15.973c2.9-1.575,3.974-5.191,2.399-8.085
			C93.37,229.402,89.754,228.322,86.854,229.898z"/>
		<path style="fill:#010002;" d="M83.697,146.594l-31.893-10.185c-3.162-1.002-6.498,0.734-7.5,3.867
			c-1.008,3.139,0.728,6.498,3.861,7.5l31.893,10.185c0.609,0.191,1.217,0.286,1.82,0.286c2.53,0,4.869-1.617,5.68-4.153
			C88.566,150.956,86.83,147.597,83.697,146.594z"/>
		<path style="fill:#010002;" d="M185.021,143.127c4.929,0,8.932-3.986,8.95-8.92L194.389,8.98c0.018-4.941-3.98-8.962-8.92-8.98
			c-0.012,0-0.018,0-0.03,0c-4.929,0-8.932,3.986-8.95,8.92l-0.418,125.221c-0.018,4.941,3.98,8.962,8.92,8.98
			C185.003,143.127,185.009,143.127,185.021,143.127z"/>
		<path style="fill:#010002;" d="M101.246,122.333c1.742,0,3.467-0.758,4.642-2.214c2.076-2.566,1.677-6.319-0.883-8.395
			L78.984,90.661c-2.56-2.082-6.331-1.671-8.389,0.883c-2.076,2.566-1.677,6.319,0.883,8.395l26.022,21.063
			C98.603,121.897,99.933,122.333,101.246,122.333z"/>
		<path style="fill:#010002;" d="M252.434,107.225c1.742,0,3.467-0.758,4.642-2.214l21.063-26.027
			c2.076-2.56,1.677-6.319-0.883-8.389c-2.56-2.076-6.325-1.671-8.389,0.883l-21.063,26.027c-2.076,2.56-1.677,6.319,0.883,8.389
			C249.791,106.795,251.122,107.225,252.434,107.225z"/>
		<path style="fill:#010002;" d="M359.886,176.494l-119.254-0.418c-0.006,0-0.018,0-0.03,0c-4.929,0-8.932,3.986-8.95,8.92
			c-0.018,4.947,3.974,8.962,8.92,8.98l119.254,0.418c0.006,0,0.018,0,0.03,0c4.929,0,8.932-3.986,8.95-8.92
			C368.824,180.534,364.832,176.512,359.886,176.494z"/>
		<path style="fill:#010002;" d="M183.332,368.806c0.012,0,0.018,0,0.03,0c4.929,0,8.932-3.986,8.95-8.92l0.418-125.215
			c0.018-4.941-3.98-8.962-8.92-8.98c-0.012,0-0.018,0-0.03,0c-4.929,0-8.932,3.986-8.95,8.92l-0.418,125.215
			C174.394,364.773,178.392,368.788,183.332,368.806z"/>
		<path style="fill:#010002;" d="M262.912,248.693c-2.076,2.56-1.677,6.319,0.883,8.389l26.022,21.063
			c1.104,0.889,2.429,1.331,3.747,1.331c1.742,0,3.467-0.758,4.642-2.214c2.076-2.56,1.677-6.319-0.883-8.389l-26.022-21.063
			C268.748,245.734,264.977,246.133,262.912,248.693z"/>
		<path style="fill:#010002;" d="M111.718,263.801l-21.057,26.027c-2.076,2.566-1.677,6.319,0.883,8.389
			c1.104,0.889,2.429,1.331,3.747,1.331c1.742,0,3.467-0.758,4.642-2.214l21.057-26.027c2.076-2.566,1.677-6.319-0.883-8.389
			C117.553,260.848,113.788,261.242,111.718,263.801z"/>
		<path style="fill:#010002;" d="M235.542,95.894c2.112,0,4.153-1.122,5.239-3.097L256.88,63.44
			c1.587-2.888,0.525-6.516-2.363-8.103s-6.522-0.519-8.097,2.363l-16.099,29.357c-1.587,2.888-0.525,6.516,2.363,8.103
			C233.591,95.655,234.576,95.894,235.542,95.894z"/>
		<path style="fill:#010002;" d="M158.415,79.956l-10.048-31.941c-0.99-3.133-4.332-4.899-7.482-3.902
			c-3.145,0.991-4.893,4.344-3.902,7.482l10.048,31.941c0.806,2.548,3.15,4.177,5.692,4.177c0.591,0,1.193-0.09,1.79-0.274
			C157.657,86.448,159.405,83.095,158.415,79.956z"/>
		<path style="fill:#010002;" d="M287.06,158.689c0.591,0,1.193-0.089,1.79-0.274l31.947-10.048
			c3.145-0.991,4.887-4.338,3.902-7.482c-0.99-3.139-4.338-4.905-7.482-3.902L285.27,147.03c-3.145,0.991-4.887,4.338-3.902,7.482
			C282.173,157.06,284.518,158.689,287.06,158.689z"/>
		<path style="fill:#010002;" d="M273.653,232.69c-1.587,2.882-0.525,6.516,2.363,8.097l29.357,16.099
			c0.907,0.501,1.892,0.734,2.858,0.734c2.112,0,4.153-1.122,5.239-3.103c1.587-2.882,0.525-6.516-2.363-8.097l-29.357-16.099
			C278.862,228.734,275.24,229.796,273.653,232.69z"/>
		<path style="fill:#010002;" d="M128.019,276.021l-16.093,29.363c-1.587,2.888-0.525,6.516,2.363,8.097
			c0.907,0.501,1.891,0.734,2.858,0.734c2.112,0,4.153-1.122,5.239-3.103l16.093-29.363c1.587-2.888,0.525-6.516-2.363-8.097
			C133.222,272.059,129.595,273.128,128.019,276.021z"/>
		<path style="fill:#010002;" d="M220.44,320.791c0.806,2.554,3.151,4.177,5.692,4.177c0.591,0,1.193-0.09,1.79-0.274
			c3.145-0.991,4.893-4.344,3.902-7.482l-10.048-31.941c-0.991-3.145-4.326-4.893-7.482-3.902c-3.145,0.991-4.893,4.344-3.902,7.482
			L220.44,320.791z"/>
		<path style="fill:#010002;" d="M79.95,210.392L48.01,220.44c-3.145,0.99-4.893,4.344-3.902,7.482
			c0.806,2.554,3.151,4.177,5.692,4.177c0.591,0,1.193-0.089,1.79-0.274l31.941-10.048c3.145-0.99,4.893-4.344,3.902-7.482
			C86.442,211.15,83.107,209.395,79.95,210.392z"/>
		<path style="fill:#010002;" d="M95.154,136.128c1.587-2.888,0.525-6.516-2.363-8.103l-29.357-16.099
			c-2.888-1.587-6.522-0.519-8.097,2.363c-1.587,2.888-0.525,6.516,2.363,8.103l29.357,16.099c0.907,0.495,1.892,0.734,2.858,0.734
			C92.027,139.225,94.068,138.103,95.154,136.128z"/>
		<path style="fill:#010002;" d="M115.811,107.684c1.354,0,2.709-0.459,3.831-1.396c2.524-2.118,2.858-5.877,0.74-8.407
			L98.865,72.229c-2.118-2.518-5.871-2.852-8.407-0.74c-2.524,2.118-2.858,5.877-0.74,8.407l21.511,25.652
			C112.416,106.956,114.105,107.684,115.811,107.684z"/>
		<path style="fill:#010002;" d="M267.095,121.778c1.354,0,2.709-0.459,3.831-1.396l25.658-21.517
			c2.524-2.118,2.858-5.877,0.74-8.407c-2.112-2.524-5.871-2.858-8.407-0.74l-25.658,21.517c-2.524,2.118-2.858,5.877-0.74,8.407
			C263.7,121.05,265.389,121.778,267.095,121.778z"/>
		<path style="fill:#010002;" d="M249.165,262.53c-2.524,2.112-2.858,5.877-0.734,8.401l21.517,25.652
			c1.175,1.408,2.864,2.13,4.577,2.13c1.354,0,2.709-0.459,3.831-1.396c2.524-2.112,2.858-5.877,0.734-8.401l-21.517-25.652
			C255.46,260.74,251.695,260.406,249.165,262.53z"/>
		<path style="fill:#010002;" d="M97.875,248.425l-25.652,21.511c-2.524,2.118-2.858,5.883-0.74,8.407
			c1.181,1.408,2.87,2.13,4.583,2.13c1.354,0,2.709-0.459,3.831-1.39l25.652-21.511c2.524-2.118,2.858-5.883,0.74-8.407
			C104.164,246.647,100.411,246.318,97.875,248.425z"/>
		<path style="fill:#010002;" d="M128.174,192.736c0.006,0,0.018,0,0.03,0c4.929,0,8.932-3.986,8.95-8.92
			c0.018-4.947-3.974-8.962-8.92-8.98L8.98,174.418c-0.006,0-0.018,0-0.03,0c-4.929,0-8.932,3.986-8.95,8.92
			c-0.018,4.947,3.974,8.962,8.92,8.98L128.174,192.736z"/>
	</g>
</g>
<g>
</g>
<g>
</g>
<g>
</g>
<g>
</g>
<g>
</g>
<g>
</g>
<g>
</g>
<g>
</g>
<g>
</g>
<g>
</g>
<g>
</g>
<g>
</g>
<g>
</g>
<g>
</g>
<g>
</g>
</svg>
