*
*
G04 PADS 9.5 Build Number: 522968 generated Gerber (RS-274-X) file*
G04 PC Version=2.1*
*
%IN "MAXREFDES12_A.pcb"*%
*
%MOIN*%
*
%FSLAX35Y35*%
*
*
*
*
G04 PC Standard Apertures*
*
*
G04 Thermal Relief Aperture macro.*
%AMTER*
1,1,$1,0,0*
1,0,$1-$2,0,0*
21,0,$3,$4,0,0,45*
21,0,$3,$4,0,0,135*
%
*
*
G04 Annular Aperture macro.*
%AMANN*
1,1,$1,0,0*
1,0,$2,0,0*
%
*
*
G04 Odd Aperture macro.*
%AMODD*
1,1,$1,0,0*
1,0,$1-0.005,0,0*
%
*
*
G04 PC Custom Aperture Macros*
*
*
*
*
*
*
G04 PC Aperture Table*
*
%ADD046C,0.015*%
%ADD177C,0.01*%
%ADD180C,0.007*%
%ADD185C,0.001*%
%ADD189C,0*%
%ADD193C,0.008*%
%ADD239C,0.002*%
%ADD252C,0.009*%
%ADD263C,0.089*%
%ADD264R,0.064X0.064*%
%ADD265C,0.064*%
%ADD266R,0.074X0.074*%
%ADD267C,0.074*%
%ADD268R,0.026X0.026*%
%ADD269R,0.054X0.054*%
%ADD270R,0.034X0.044*%
%ADD271R,0.044X0.01581*%
%ADD272R,0.06306X0.09455*%
%ADD273C,0.049*%
%ADD274R,0.079X0.044*%
%ADD275R,0.02369X0.02959*%
%ADD276R,0.05026X0.03215*%
%ADD277R,0.104X0.074*%
%ADD278R,0.124X0.114*%
%ADD279R,0.05124X0.06699*%
%ADD280R,0.07093X0.09849*%
%ADD281R,0.044X0.034*%
%ADD282R,0.064X0.019*%
%ADD283R,0.119X0.229*%
%ADD284C,0.029*%
*
*
*
*
G04 PC Circuitry*
G04 Layer Name MAXREFDES12_A.pcb - circuitry*
%LPD*%
*
*
G04 PC Custom Flashes*
G04 Layer Name MAXREFDES12_A.pcb - flashes*
%LPD*%
*
*
G04 PC Circuitry*
G04 Layer Name MAXREFDES12_A.pcb - circuitry*
%LPD*%
*
G54D46*
G01X2240000Y1553750D02*
Y1548750D01*
Y1543750*
Y1583750D02*
Y1553750D01*
X2220000Y1568750D02*
X2215000D01*
X2225000D02*
X2220000D01*
X2240000Y1583750D02*
Y1588750D01*
X2260000Y1568750D02*
X2265000D01*
X2255000D02*
X2260000D01*
X2225000D02*
X2255000D01*
X2245000D02*
G75*
G03X2245000I-5000J0D01*
G01X2255000D02*
G03X2255000I-15000J0D01*
G01X2250000D02*
G03X2250000I-10000J0D01*
G01X2240000Y1588750D02*
Y1593750D01*
Y1473750D02*
Y1468750D01*
Y1463750*
Y1503750D02*
Y1473750D01*
X2220000Y1488750D02*
X2215000D01*
X2225000D02*
X2220000D01*
X2240000Y1503750D02*
Y1508750D01*
X2260000Y1488750D02*
X2265000D01*
X2255000D02*
X2260000D01*
X2225000D02*
X2255000D01*
X2245000D02*
G03X2245000I-5000J0D01*
G01X2255000D02*
G03X2255000I-15000J0D01*
G01X2250000D02*
G03X2250000I-10000J0D01*
G01X2240000Y1508750D02*
Y1513750D01*
X1760000Y1473750D02*
Y1468750D01*
Y1463750*
Y1503750D02*
Y1473750D01*
X1740000Y1488750D02*
X1735000D01*
X1745000D02*
X1740000D01*
X1760000Y1503750D02*
Y1508750D01*
X1780000Y1488750D02*
X1785000D01*
X1775000D02*
X1780000D01*
X1745000D02*
X1775000D01*
X1765000D02*
G03X1765000I-5000J0D01*
G01X1775000D02*
G03X1775000I-15000J0D01*
G01X1770000D02*
G03X1770000I-10000J0D01*
G01X1760000Y1508750D02*
Y1513750D01*
G54D177*
X1888800Y1528350D02*
X1886200D01*
Y1524550*
X1888800*
Y1528350*
X1886500Y1524550D02*
Y1528350D01*
X1887000Y1524550D02*
Y1528350D01*
X1887500Y1524550D02*
Y1528350D01*
X1888000Y1524550D02*
Y1528350D01*
X1888500Y1524550D02*
Y1528350D01*
X1888800Y1539950D02*
X1886200D01*
Y1536250*
X1888800*
Y1539950*
X1886500Y1536250D02*
Y1539950D01*
X1887000Y1536250D02*
Y1539950D01*
X1887500Y1536250D02*
Y1539950D01*
X1888000Y1536250D02*
Y1539950D01*
X1888500Y1536250D02*
Y1539950D01*
X1968391Y1535218D02*
Y1528022D01*
X1972625*
Y1535218*
X1968391*
X1968500Y1528022D02*
Y1535218D01*
X1969000Y1528022D02*
Y1535218D01*
X1969500Y1528022D02*
Y1535218D01*
X1970000Y1528022D02*
Y1535218D01*
X1970500Y1528022D02*
Y1535218D01*
X1971000Y1528022D02*
Y1535218D01*
X1971500Y1528022D02*
Y1535218D01*
X1972000Y1528022D02*
Y1535218D01*
X1972500Y1528022D02*
Y1535218D01*
X2080000Y1453750D02*
X2180000D01*
Y1478750*
X2080000*
Y1453750*
Y1446250D02*
X2124500D01*
X2080000D02*
X2090000Y1448750D01*
Y1443750*
X2080000Y1446250*
X2180000D02*
X2144136D01*
X2180000D02*
X2170000Y1443750D01*
Y1448750*
X2180000Y1446250*
X2080000Y1448750D02*
Y1441250D01*
X2180000Y1448750D02*
Y1441250D01*
X2082000Y1453750D02*
Y1466250D01*
X2083000Y1453750D02*
Y1466250D01*
X2084000D02*
Y1453750D01*
X2085000Y1466250D02*
Y1453750D01*
X2086000Y1466250D02*
Y1453750D01*
X2087000Y1466250D02*
Y1453750D01*
X2088000Y1466250D02*
Y1453750D01*
X2089000Y1466250D02*
Y1453750D01*
X2090000D02*
Y1466250D01*
X2091000Y1453750D02*
Y1466250D01*
X2094000D02*
Y1478750D01*
X2095000Y1466250D02*
Y1478750D01*
X2096000D02*
Y1466250D01*
X2097000Y1478750D02*
Y1466250D01*
X2098000Y1478750D02*
Y1466250D01*
X2099000Y1478750D02*
Y1466250D01*
X2100000Y1478750D02*
Y1466250D01*
X2101000Y1478750D02*
Y1466250D01*
X2102000D02*
Y1478750D01*
X2103000Y1466250D02*
Y1478750D01*
X2092500Y1453750D02*
Y1478750D01*
X2105000Y1453750D02*
Y1478750D01*
X2080000Y1466250D02*
X2180000D01*
X2155000Y1453750D02*
Y1478750D01*
X2130000Y1453750D02*
Y1478750D01*
X2081000Y1453750D02*
Y1466250D01*
X2091500Y1453750D02*
Y1466250D01*
X2093500D02*
Y1478750D01*
X2104000Y1466250D02*
Y1478750D01*
X2107000Y1466250D02*
Y1478750D01*
X2106000Y1466250D02*
Y1478750D01*
X2108000Y1466250D02*
Y1478750D01*
X2109000D02*
Y1466250D01*
X2110000Y1478750D02*
Y1466250D01*
X2111000Y1478750D02*
Y1466250D01*
X2112000Y1478750D02*
Y1466250D01*
X2113000Y1478750D02*
Y1466250D01*
X2115000D02*
Y1478750D01*
X2114000D02*
Y1466250D01*
X2116000D02*
Y1478750D01*
X2117000Y1466250D02*
Y1478750D01*
X2119000Y1466250D02*
Y1478750D01*
X2118000Y1466250D02*
Y1478750D01*
X2120000Y1466250D02*
Y1478750D01*
X2121000D02*
Y1466250D01*
X2122000Y1478750D02*
Y1466250D01*
X2123000Y1478750D02*
Y1466250D01*
X2124000Y1478750D02*
Y1466250D01*
X2125000Y1478750D02*
Y1466250D01*
X2126000Y1478750D02*
Y1466250D01*
X2127000D02*
Y1478750D01*
X2128000Y1466250D02*
Y1478750D01*
X2129000Y1466250D02*
Y1478750D01*
X2125000Y1598750D02*
Y1758750D01*
X1875000*
Y1598750*
X2125000*
X2102500Y1716250D02*
Y1691250D01*
X2125000Y1716250D02*
X1875000D01*
X2125000Y1691250D02*
X1875000D01*
X2125000Y1618750D02*
X1875000D01*
X2125000Y1641950D02*
X1875000D01*
X1990000Y1598750D02*
Y1618750D01*
X1895000Y1710563D02*
Y1698750D01*
Y1710563D02*
X1898682D01*
X1898682D02*
X1899909Y1710000D01*
X1900318Y1709438*
X1900318D02*
X1900727Y1708313D01*
X1900727D02*
Y1706625D01*
X1900318Y1705500*
X1899909Y1704938*
X1899909D02*
X1898682Y1704375D01*
X1895000*
X1911773Y1712813D02*
X1904409Y1694812D01*
X1915455Y1710563D02*
Y1698750D01*
Y1710563D02*
X1921182Y1698750D01*
Y1710563D02*
Y1698750D01*
X1925273Y1706625D02*
X1924864Y1706063D01*
X1924864D02*
X1925273Y1705500D01*
X1925682Y1706063*
X1925682D02*
X1925273Y1706625D01*
Y1699875D02*
X1924864Y1699313D01*
X1924864D02*
X1925273Y1698750D01*
X1925682Y1699313*
X1925682D02*
X1925273Y1699875D01*
X1938773Y1710563D02*
Y1698750D01*
Y1710563D02*
X1944091D01*
X1938773Y1704938D02*
X1942045D01*
X1938773Y1698750D02*
X1944091D01*
X1947773Y1710563D02*
Y1698750D01*
Y1710563D02*
X1951455D01*
X1951455D02*
X1952682Y1710000D01*
X1953091Y1709438*
X1953091D02*
X1953500Y1708313D01*
X1953500D02*
Y1706625D01*
X1953091Y1705500*
X1952682Y1704938*
X1952682D02*
X1951455Y1704375D01*
X1947773*
X1963318Y1707750D02*
X1962909Y1708875D01*
X1962091Y1710000*
X1961273Y1710563*
X1961273D02*
X1959636D01*
X1959636D02*
X1958818Y1710000D01*
X1958000Y1708875*
X1957591Y1707750*
X1957182Y1706063*
X1957182D02*
Y1703250D01*
X1957591Y1701563*
X1957591D02*
X1958000Y1700438D01*
X1958000D02*
X1958818Y1699313D01*
X1958818D02*
X1959636Y1698750D01*
X1961273*
X1962091Y1699313*
X1962091D02*
X1962909Y1700438D01*
X1962909D02*
X1963318Y1701563D01*
X1967000Y1710563D02*
Y1698750D01*
Y1710563D02*
X1970682D01*
X1970682D02*
X1971909Y1710000D01*
X1972318Y1709438*
X1972318D02*
X1972727Y1708313D01*
X1972727D02*
Y1707188D01*
X1972727D02*
X1972318Y1706063D01*
X1972318D02*
X1971909Y1705500D01*
X1970682Y1704938*
X1967000D02*
X1970682D01*
X1970682D02*
X1971909Y1704375D01*
X1972318Y1703813*
X1972318D02*
X1972727Y1702688D01*
X1972727D02*
Y1701000D01*
X1972318Y1699875*
X1971909Y1699313*
X1971909D02*
X1970682Y1698750D01*
X1967000*
X1976409Y1710563D02*
Y1698750D01*
Y1710563D02*
X1980091D01*
X1980091D02*
X1981318Y1710000D01*
X1981727Y1709438*
X1981727D02*
X1982136Y1708313D01*
X1982136D02*
Y1707188D01*
X1982136D02*
X1981727Y1706063D01*
X1981727D02*
X1981318Y1705500D01*
X1980091Y1704938*
X1980091D02*
X1976409D01*
X1979273D02*
X1982136Y1698750D01*
X1985818Y1710563D02*
Y1698750D01*
Y1710563D02*
X1991136D01*
X1985818Y1704938D02*
X1989091D01*
X1985818Y1698750D02*
X1991136D01*
X1994818Y1710563D02*
Y1698750D01*
Y1710563D02*
X2000136D01*
X1994818Y1704938D02*
X1998091D01*
X2003818Y1710563D02*
Y1698750D01*
Y1710563D02*
X2006682D01*
X2006682D02*
X2007909Y1710000D01*
X2008727Y1708875*
X2009136Y1707750*
X2009545Y1706063*
X2009545D02*
Y1703250D01*
X2009136Y1701563*
X2009136D02*
X2008727Y1700438D01*
X2008727D02*
X2007909Y1699313D01*
X2007909D02*
X2006682Y1698750D01*
X2003818*
X2013227Y1710563D02*
Y1698750D01*
Y1710563D02*
X2018545D01*
X2013227Y1704938D02*
X2016500D01*
X2013227Y1698750D02*
X2018545D01*
X2027955Y1708875D02*
X2027136Y1710000D01*
X2025909Y1710563*
X2025909D02*
X2024273D01*
X2024273D02*
X2023045Y1710000D01*
X2022227Y1708875*
Y1707750*
X2022636Y1706625*
X2023045Y1706063*
X2023045D02*
X2023864Y1705500D01*
X2026318Y1704375*
X2027136Y1703813*
X2027136D02*
X2027545Y1703250D01*
X2027955Y1702125*
Y1700438*
X2027955D02*
X2027136Y1699313D01*
X2027136D02*
X2025909Y1698750D01*
X2024273*
X2023045Y1699313*
X2023045D02*
X2022227Y1700438D01*
X2031636Y1708313D02*
X2032455Y1708875D01*
X2033682Y1710563*
X2033682D02*
Y1698750D01*
X2037773Y1707750D02*
Y1708313D01*
X2037773D02*
X2038182Y1709438D01*
X2038182D02*
X2038591Y1710000D01*
X2039409Y1710563*
X2039409D02*
X2041045D01*
X2041045D02*
X2041864Y1710000D01*
X2042273Y1709438*
X2042273D02*
X2042682Y1708313D01*
X2042682D02*
Y1707188D01*
X2042682D02*
X2042273Y1706063D01*
X2042273D02*
X2041455Y1704375D01*
X2037364Y1698750*
X2043091*
X1908636Y1747750D02*
X1908227Y1748875D01*
X1907409Y1750000*
X1906591Y1750563*
X1906591D02*
X1904955D01*
X1904955D02*
X1904136Y1750000D01*
X1903318Y1748875*
X1902909Y1747750*
X1902500Y1746063*
X1902500D02*
Y1743250D01*
X1902909Y1741563*
X1902909D02*
X1903318Y1740438D01*
X1903318D02*
X1904136Y1739313D01*
X1904136D02*
X1904955Y1738750D01*
X1906591*
X1907409Y1739313*
X1907409D02*
X1908227Y1740438D01*
X1908227D02*
X1908636Y1741563D01*
X1914773Y1750563D02*
X1913955Y1750000D01*
X1913136Y1748875*
X1912727Y1747750*
X1912318Y1746063*
X1912318D02*
Y1743250D01*
X1912727Y1741563*
X1912727D02*
X1913136Y1740438D01*
X1913136D02*
X1913955Y1739313D01*
X1913955D02*
X1914773Y1738750D01*
X1916409*
X1917227Y1739313*
X1917227D02*
X1918045Y1740438D01*
X1918045D02*
X1918455Y1741563D01*
X1918455D02*
X1918864Y1743250D01*
Y1746063*
X1918864D02*
X1918455Y1747750D01*
X1918045Y1748875*
X1917227Y1750000*
X1916409Y1750563*
X1916409D02*
X1914773D01*
X1922545D02*
Y1738750D01*
Y1750563D02*
X1926227D01*
X1926227D02*
X1927455Y1750000D01*
X1927864Y1749438*
X1927864D02*
X1928273Y1748313D01*
X1928273D02*
Y1747188D01*
X1928273D02*
X1927864Y1746063D01*
X1927864D02*
X1927455Y1745500D01*
X1926227Y1744938*
X1926227D02*
X1922545D01*
X1925409D02*
X1928273Y1738750D01*
X1934409Y1750563D02*
X1933591Y1750000D01*
X1932773Y1748875*
X1932364Y1747750*
X1931955Y1746063*
X1931955D02*
Y1743250D01*
X1932364Y1741563*
X1932364D02*
X1932773Y1740438D01*
X1932773D02*
X1933591Y1739313D01*
X1933591D02*
X1934409Y1738750D01*
X1936045*
X1936864Y1739313*
X1936864D02*
X1937682Y1740438D01*
X1937682D02*
X1938091Y1741563D01*
X1938091D02*
X1938500Y1743250D01*
Y1746063*
X1938500D02*
X1938091Y1747750D01*
X1937682Y1748875*
X1936864Y1750000*
X1936045Y1750563*
X1936045D02*
X1934409D01*
X1942182D02*
Y1738750D01*
Y1750563D02*
X1947909Y1738750D01*
Y1750563D02*
Y1738750D01*
X1954864Y1750563D02*
X1951591Y1738750D01*
X1954864Y1750563D02*
X1958136Y1738750D01*
X1952818Y1742688D02*
X1956909D01*
X1974091Y1752813D02*
X1973273Y1751688D01*
X1973273D02*
X1972455Y1750000D01*
X1971636Y1747750*
X1971227Y1744938*
X1971227D02*
Y1742688D01*
X1971227D02*
X1971636Y1739875D01*
X1972455Y1737625*
X1973273Y1735937*
X1973273D02*
X1974091Y1734812D01*
X1977773Y1750563D02*
Y1738750D01*
Y1750563D02*
X1981045Y1738750D01*
X1984318Y1750563D02*
X1981045Y1738750D01*
X1984318Y1750563D02*
Y1738750D01*
X1991273Y1750563D02*
X1988000Y1738750D01*
X1991273Y1750563D02*
X1994545Y1738750D01*
X1989227Y1742688D02*
X1993318D01*
X1998227Y1750563D02*
X2003955Y1738750D01*
Y1750563D02*
X1998227Y1738750D01*
X2007636Y1750563D02*
Y1738750D01*
Y1750563D02*
X2011318D01*
X2011318D02*
X2012545Y1750000D01*
X2012955Y1749438*
X2012955D02*
X2013364Y1748313D01*
X2013364D02*
Y1747188D01*
X2013364D02*
X2012955Y1746063D01*
X2012955D02*
X2012545Y1745500D01*
X2011318Y1744938*
X2011318D02*
X2007636D01*
X2010500D02*
X2013364Y1738750D01*
X2017045Y1750563D02*
Y1738750D01*
Y1750563D02*
X2022364D01*
X2017045Y1744938D02*
X2020318D01*
X2017045Y1738750D02*
X2022364D01*
X2026045Y1750563D02*
Y1738750D01*
Y1750563D02*
X2031364D01*
X2026045Y1744938D02*
X2029318D01*
X2035045Y1750563D02*
Y1738750D01*
Y1750563D02*
X2037909D01*
X2037909D02*
X2039136Y1750000D01*
X2039955Y1748875*
X2040364Y1747750*
X2040773Y1746063*
X2040773D02*
Y1743250D01*
X2040364Y1741563*
X2040364D02*
X2039955Y1740438D01*
X2039955D02*
X2039136Y1739313D01*
X2039136D02*
X2037909Y1738750D01*
X2035045*
X2044455Y1750563D02*
Y1738750D01*
Y1750563D02*
X2049773D01*
X2044455Y1744938D02*
X2047727D01*
X2044455Y1738750D02*
X2049773D01*
X2059182Y1748875D02*
X2058364Y1750000D01*
X2057136Y1750563*
X2057136D02*
X2055500D01*
X2055500D02*
X2054273Y1750000D01*
X2053455Y1748875*
Y1747750*
X2053864Y1746625*
X2054273Y1746063*
X2054273D02*
X2055091Y1745500D01*
X2057545Y1744375*
X2058364Y1743813*
X2058364D02*
X2058773Y1743250D01*
X2059182Y1742125*
Y1740438*
X2059182D02*
X2058364Y1739313D01*
X2058364D02*
X2057136Y1738750D01*
X2055500*
X2054273Y1739313*
X2054273D02*
X2053455Y1740438D01*
X2062864Y1748313D02*
X2063682Y1748875D01*
X2064909Y1750563*
X2064909D02*
Y1738750D01*
X2069000Y1747750D02*
Y1748313D01*
X2069000D02*
X2069409Y1749438D01*
X2069409D02*
X2069818Y1750000D01*
X2070636Y1750563*
X2070636D02*
X2072273D01*
X2072273D02*
X2073091Y1750000D01*
X2073500Y1749438*
X2073500D02*
X2073909Y1748313D01*
X2073909D02*
Y1747188D01*
X2073909D02*
X2073500Y1746063D01*
X2073500D02*
X2072682Y1744375D01*
X2068591Y1738750*
X2074318*
X2081273Y1752813D02*
X2078409Y1734812D01*
X2083727Y1752813D02*
X2080864Y1734812D01*
X2078409Y1745500D02*
X2084136D01*
X2078000Y1742125D02*
X2083727D01*
X2087818Y1752813D02*
X2088636Y1751688D01*
X2088636D02*
X2089455Y1750000D01*
X2090273Y1747750*
X2090682Y1744938*
X2090682D02*
Y1742688D01*
X2090682D02*
X2090273Y1739875D01*
X2089455Y1737625*
X2088636Y1735937*
X2088636D02*
X2087818Y1734812D01*
X2110227Y1703594D02*
X2107500Y1693750D01*
X2110227Y1703594D02*
X2112955Y1693750D01*
X2108523Y1697031D02*
X2111932D01*
X2006818Y1610313D02*
X2005000Y1603750D01*
X2006818Y1610313D02*
X2008636Y1603750D01*
X2005682Y1605938D02*
X2007955D01*
X2010682Y1610313D02*
Y1603750D01*
X2013409*
X2015455Y1610313D02*
Y1603750D01*
X2018182*
X2025455Y1610313D02*
Y1605625D01*
X2025682Y1604688*
X2025682D02*
X2026136Y1604063D01*
X2026136D02*
X2026818Y1603750D01*
X2027273*
X2027955Y1604063*
X2027955D02*
X2028409Y1604688D01*
X2028409D02*
X2028636Y1605625D01*
Y1610313*
X2030682D02*
Y1603750D01*
Y1610313D02*
X2033864Y1603750D01*
Y1610313D02*
Y1603750D01*
X2035909Y1610313D02*
Y1603750D01*
X2039545Y1610313D02*
Y1603750D01*
X2037955Y1610313D02*
X2041136D01*
X2046364Y1609375D02*
X2045909Y1610000D01*
X2045227Y1610313*
X2045227D02*
X2044318D01*
X2044318D02*
X2043636Y1610000D01*
X2043182Y1609375*
Y1608750*
X2043409Y1608125*
X2043636Y1607813*
X2043636D02*
X2044091Y1607500D01*
X2045455Y1606875*
X2045909Y1606563*
X2045909D02*
X2046136Y1606250D01*
X2046364Y1605625*
Y1604688*
X2046364D02*
X2045909Y1604063D01*
X2045909D02*
X2045227Y1603750D01*
X2044318*
X2043636Y1604063*
X2043636D02*
X2043182Y1604688D01*
X2055455Y1610313D02*
X2053636Y1603750D01*
X2055455Y1610313D02*
X2057273Y1603750D01*
X2054318Y1605938D02*
X2056591D01*
X2059318Y1610313D02*
Y1603750D01*
Y1610313D02*
X2061364D01*
X2061364D02*
X2062045Y1610000D01*
X2062273Y1609688*
X2062273D02*
X2062500Y1609063D01*
X2062500D02*
Y1608438D01*
X2062500D02*
X2062273Y1607813D01*
X2062273D02*
X2062045Y1607500D01*
X2061364Y1607188*
X2061364D02*
X2059318D01*
X2060909D02*
X2062500Y1603750D01*
X2064545Y1610313D02*
Y1603750D01*
Y1610313D02*
X2067500D01*
X2064545Y1607188D02*
X2066364D01*
X2064545Y1603750D02*
X2067500D01*
X2074773Y1610313D02*
Y1603750D01*
X2076818Y1610313D02*
Y1603750D01*
Y1610313D02*
X2080000Y1603750D01*
Y1610313D02*
Y1603750D01*
X2088636Y1610313D02*
X2087955Y1610000D01*
X2087500Y1609063*
X2087500D02*
X2087273Y1607500D01*
Y1606563*
X2087273D02*
X2087500Y1605000D01*
X2087955Y1604063*
X2087955D02*
X2088636Y1603750D01*
X2089091*
X2089773Y1604063*
X2089773D02*
X2090227Y1605000D01*
X2090455Y1606563*
X2090455D02*
Y1607500D01*
X2090227Y1609063*
X2090227D02*
X2089773Y1610000D01*
X2089091Y1610313*
X2089091D02*
X2088636D01*
X2092727Y1604375D02*
X2092500Y1604063D01*
X2092500D02*
X2092727Y1603750D01*
X2092955Y1604063*
X2092955D02*
X2092727Y1604375D01*
X2096364Y1610313D02*
X2095682Y1610000D01*
X2095227Y1609063*
X2095227D02*
X2095000Y1607500D01*
Y1606563*
X2095000D02*
X2095227Y1605000D01*
X2095682Y1604063*
X2095682D02*
X2096364Y1603750D01*
X2096818*
X2097500Y1604063*
X2097500D02*
X2097955Y1605000D01*
X2098182Y1606563*
X2098182D02*
Y1607500D01*
X2097955Y1609063*
X2097955D02*
X2097500Y1610000D01*
X2096818Y1610313*
X2096818D02*
X2096364D01*
X2101591D02*
X2100909Y1610000D01*
X2100455Y1609063*
X2100455D02*
X2100227Y1607500D01*
Y1606563*
X2100227D02*
X2100455Y1605000D01*
X2100909Y1604063*
X2100909D02*
X2101591Y1603750D01*
X2102045*
X2102727Y1604063*
X2102727D02*
X2103182Y1605000D01*
X2103409Y1606563*
X2103409D02*
Y1607500D01*
X2103182Y1609063*
X2103182D02*
X2102727Y1610000D01*
X2102045Y1610313*
X2102045D02*
X2101591D01*
X2105455Y1609063D02*
X2105909Y1609375D01*
X2106591Y1610313*
X2106591D02*
Y1603750D01*
X2108636Y1610313D02*
Y1608125D01*
X2110455Y1610313D02*
Y1608125D01*
X1921591Y1632813D02*
Y1626250D01*
X1920000Y1632813D02*
X1923182D01*
X1926591D02*
X1926136Y1632500D01*
X1925682Y1631875*
X1925455Y1631250*
X1925227Y1630313*
X1925227D02*
Y1628750D01*
X1925455Y1627813*
X1925455D02*
X1925682Y1627188D01*
X1925682D02*
X1926136Y1626563D01*
X1926136D02*
X1926591Y1626250D01*
X1927500*
X1927955Y1626563*
X1927955D02*
X1928409Y1627188D01*
X1928409D02*
X1928636Y1627813D01*
X1928636D02*
X1928864Y1628750D01*
Y1630313*
X1928864D02*
X1928636Y1631250D01*
X1928409Y1631875*
X1927955Y1632500*
X1927500Y1632813*
X1927500D02*
X1926591D01*
X1930909D02*
Y1626250D01*
Y1632813D02*
X1932955D01*
X1932955D02*
X1933636Y1632500D01*
X1933864Y1632188*
X1933864D02*
X1934091Y1631563D01*
X1934091D02*
Y1630625D01*
X1933864Y1630000*
X1933636Y1629688*
X1933636D02*
X1932955Y1629375D01*
X1930909*
X1944545Y1631875D02*
X1944091Y1632500D01*
X1943409Y1632813*
X1943409D02*
X1942500D01*
X1942500D02*
X1941818Y1632500D01*
X1941364Y1631875*
Y1631250*
X1941591Y1630625*
X1941818Y1630313*
X1941818D02*
X1942273Y1630000D01*
X1943636Y1629375*
X1944091Y1629063*
X1944091D02*
X1944318Y1628750D01*
X1944545Y1628125*
Y1627188*
X1944545D02*
X1944091Y1626563D01*
X1944091D02*
X1943409Y1626250D01*
X1942500*
X1941818Y1626563*
X1941818D02*
X1941364Y1627188D01*
X1947955Y1632813D02*
X1947500Y1632500D01*
X1947045Y1631875*
X1946818Y1631250*
X1946591Y1630313*
X1946591D02*
Y1628750D01*
X1946818Y1627813*
X1946818D02*
X1947045Y1627188D01*
X1947045D02*
X1947500Y1626563D01*
X1947500D02*
X1947955Y1626250D01*
X1948864*
X1949318Y1626563*
X1949318D02*
X1949773Y1627188D01*
X1949773D02*
X1950000Y1627813D01*
X1950000D02*
X1950227Y1628750D01*
Y1630313*
X1950227D02*
X1950000Y1631250D01*
X1949773Y1631875*
X1949318Y1632500*
X1948864Y1632813*
X1948864D02*
X1947955D01*
X1952273D02*
Y1626250D01*
X1955000*
X1957045Y1632813D02*
Y1626250D01*
Y1632813D02*
X1958636D01*
X1958636D02*
X1959318Y1632500D01*
X1959773Y1631875*
X1960000Y1631250*
X1960227Y1630313*
X1960227D02*
Y1628750D01*
X1960000Y1627813*
X1960000D02*
X1959773Y1627188D01*
X1959773D02*
X1959318Y1626563D01*
X1959318D02*
X1958636Y1626250D01*
X1957045*
X1962273Y1632813D02*
Y1626250D01*
Y1632813D02*
X1965227D01*
X1962273Y1629688D02*
X1964091D01*
X1962273Y1626250D02*
X1965227D01*
X1967273Y1632813D02*
Y1626250D01*
Y1632813D02*
X1969318D01*
X1969318D02*
X1970000Y1632500D01*
X1970227Y1632188*
X1970227D02*
X1970455Y1631563D01*
X1970455D02*
Y1630938D01*
X1970455D02*
X1970227Y1630313D01*
X1970227D02*
X1970000Y1630000D01*
X1969318Y1629688*
X1969318D02*
X1967273D01*
X1968864D02*
X1970455Y1626250D01*
X1972500Y1632813D02*
Y1626250D01*
Y1632813D02*
X1974318Y1626250D01*
X1976136Y1632813D02*
X1974318Y1626250D01*
X1976136Y1632813D02*
Y1626250D01*
X1980000Y1632813D02*
X1978182Y1626250D01*
X1980000Y1632813D02*
X1981818Y1626250D01*
X1978864Y1628438D02*
X1981136D01*
X1987045Y1631875D02*
X1986591Y1632500D01*
X1985909Y1632813*
X1985909D02*
X1985000D01*
X1985000D02*
X1984318Y1632500D01*
X1983864Y1631875*
Y1631250*
X1984091Y1630625*
X1984318Y1630313*
X1984318D02*
X1984773Y1630000D01*
X1986136Y1629375*
X1986591Y1629063*
X1986591D02*
X1986818Y1628750D01*
X1987045Y1628125*
Y1627188*
X1987045D02*
X1986591Y1626563D01*
X1986591D02*
X1985909Y1626250D01*
X1985000*
X1984318Y1626563*
X1984318D02*
X1983864Y1627188D01*
X1989091Y1632813D02*
Y1626250D01*
X1992273Y1632813D02*
X1989091Y1628438D01*
X1990227Y1630000D02*
X1992273Y1626250D01*
G54D180*
X1882500Y1615844D02*
Y1611250D01*
Y1615844D02*
X1883614D01*
X1884091Y1615625*
X1884409Y1615188*
X1884409D02*
X1884568Y1614750D01*
X1884727Y1614094*
Y1613000*
X1884568Y1612344*
X1884409Y1611906*
X1884091Y1611469*
X1883614Y1611250*
X1882500*
X1887432Y1615844D02*
X1886159Y1611250D01*
X1887432Y1615844D02*
X1888705Y1611250D01*
X1886636Y1612781D02*
X1888227D01*
X1891250Y1615844D02*
Y1611250D01*
X1890136Y1615844D02*
X1892364D01*
X1893795D02*
Y1611250D01*
Y1615844D02*
X1895864D01*
X1893795Y1613656D02*
X1895068D01*
X1893795Y1611250D02*
X1895864D01*
X1897455Y1614313D02*
X1897295Y1614094D01*
X1897455Y1613875*
X1897614Y1614094*
X1897455Y1614313*
Y1611688D02*
X1897295Y1611469D01*
X1897455Y1611250*
X1897614Y1611469*
X1897455Y1611688*
X1882500Y1638344D02*
Y1633750D01*
X1884409*
X1887114Y1638344D02*
X1885841Y1633750D01*
X1887114Y1638344D02*
X1888386Y1633750D01*
X1886318Y1635281D02*
X1887909D01*
X1889818Y1638344D02*
X1891091Y1636156D01*
Y1633750*
X1892364Y1638344D02*
X1891091Y1636156D01*
X1893795Y1638344D02*
Y1633750D01*
Y1638344D02*
X1895864D01*
X1893795Y1636156D02*
X1895068D01*
X1893795Y1633750D02*
X1895864D01*
X1897295Y1638344D02*
Y1633750D01*
Y1638344D02*
X1898727D01*
X1899205Y1638125*
X1899364Y1637906*
X1899523Y1637469*
Y1637031*
X1899364Y1636594*
X1899205Y1636375*
X1898727Y1636156*
X1897295*
X1898409D02*
X1899523Y1633750D01*
X2107500Y1713344D02*
Y1708750D01*
Y1713344D02*
X2108932D01*
X2109409Y1713125*
X2109568Y1712906*
X2109727Y1712469*
Y1712031*
X2109568Y1711594*
X2109409Y1711375*
X2108932Y1711156*
X2107500*
X2108614D02*
X2109727Y1708750D01*
X2111159Y1713344D02*
Y1708750D01*
Y1713344D02*
X2113227D01*
X2111159Y1711156D02*
X2112432D01*
X2111159Y1708750D02*
X2113227D01*
X2114659Y1713344D02*
X2115932Y1708750D01*
X2117205Y1713344D02*
X2115932Y1708750D01*
G54D185*
X2080000Y1453750D02*
X2080003D01*
X2180000D02*
X2180003D01*
G54D189*
X2127500Y1449063D02*
X2127955Y1449375D01*
X2128636Y1450313*
X2128636D02*
Y1443750D01*
X2130909Y1444375D02*
X2130682Y1444063D01*
X2130682D02*
X2130909Y1443750D01*
X2131136Y1444063*
X2131136D02*
X2130909Y1444375D01*
X2134545Y1450313D02*
X2133864Y1450000D01*
X2133409Y1449063*
X2133409D02*
X2133182Y1447500D01*
Y1446563*
X2133182D02*
X2133409Y1445000D01*
X2133864Y1444063*
X2133864D02*
X2134545Y1443750D01*
X2135000*
X2135682Y1444063*
X2135682D02*
X2136136Y1445000D01*
X2136364Y1446563*
X2136364D02*
Y1447500D01*
X2136136Y1449063*
X2136136D02*
X2135682Y1450000D01*
X2135000Y1450313*
X2135000D02*
X2134545D01*
X2138409D02*
Y1448125D01*
X2140227Y1450313D02*
Y1448125D01*
G54D193*
X1962281Y1531519D02*
Y1527922D01*
X1967280*
Y1530901*
X1967195Y1530926*
X1967039Y1531011*
X1966905Y1531127*
X1966799Y1531270*
X1966725Y1531432*
X1966707Y1531519*
X1962281*
X1962300Y1527922D02*
Y1531519D01*
X1962700Y1527922D02*
Y1531519D01*
X1963100Y1527922D02*
Y1531519D01*
X1963500Y1527922D02*
Y1531519D01*
X1963900Y1527922D02*
Y1531519D01*
X1964300Y1527922D02*
Y1531519D01*
X1964700Y1527922D02*
Y1531519D01*
X1965100Y1527922D02*
Y1531519D01*
X1965500Y1527922D02*
Y1531519D01*
X1965900Y1527922D02*
Y1531519D01*
X1966300Y1527922D02*
Y1531519D01*
X1966700Y1527922D02*
Y1531519D01*
X1967100Y1527922D02*
Y1530978D01*
G54D239*
X1952500Y1648750D02*
X1954516D01*
X1951425Y1648840D02*
X1955502D01*
X1950798Y1648929D02*
X1956218D01*
X1950261Y1649019D02*
X1956666D01*
X1949813Y1649108D02*
X1957112D01*
X1949454Y1649198D02*
X1957562D01*
X1949096Y1649287D02*
X1957920D01*
X1948738Y1649377D02*
X1958189D01*
X1948469Y1649467D02*
X1958547D01*
X1948111Y1649556D02*
X1958816D01*
X1947842Y1649646D02*
X1959085D01*
X1947663Y1649735D02*
X1959354D01*
X1947394Y1649825D02*
X1959533D01*
X1947125Y1649915D02*
X1959802D01*
X1946946Y1650004D02*
X1960070D01*
X1946677Y1650094D02*
X1960249D01*
X1946498Y1650183D02*
X1960429D01*
X1946319Y1650273D02*
X1960608D01*
X1946140Y1650362D02*
X1960876D01*
X1945961Y1650452D02*
X1961056D01*
X1945782Y1650542D02*
X1961235D01*
X1945602Y1650631D02*
X1961412D01*
X1945423Y1650721D02*
X1961591D01*
X1945244Y1650810D02*
X1961681D01*
X1945065Y1650900D02*
X1961860D01*
X1944886Y1650989D02*
X1962039D01*
X1944796Y1651079D02*
X1962218D01*
X2009382D02*
X2011040D01*
X1944617Y1651169D02*
X1962308D01*
X2008755D02*
X2011757D01*
X1944438Y1651258D02*
X1962487D01*
X2008307D02*
X2012115D01*
X1944348Y1651348D02*
X1962668D01*
X2008038D02*
X2012473D01*
X1944169Y1651437D02*
X1962758D01*
X2007770D02*
X2012653D01*
X1944080Y1651527D02*
X1962937D01*
X2007501D02*
X2012921D01*
X1943900Y1651617D02*
X1963026D01*
X2007322D02*
X2013101D01*
X1943811Y1651706D02*
X1963206D01*
X2007232D02*
X2013280D01*
X1943632Y1651796D02*
X1963295D01*
X2007053D02*
X2013369D01*
X1943542Y1651885D02*
X1963474D01*
X2006964D02*
X2013548D01*
X1943363Y1651975D02*
X1963564D01*
X2006874D02*
X2013638D01*
X1943273Y1652064D02*
X1963653D01*
X2006784D02*
X2013728D01*
X1943184Y1652154D02*
X1963833D01*
X2006695D02*
X2013817D01*
X1943005Y1652244D02*
X1963922D01*
X2006605D02*
X2013907D01*
X1942915Y1652333D02*
X1964012D01*
X2006516D02*
X2009517D01*
X2011174D02*
X2013996D01*
X1942826Y1652423D02*
X1964191D01*
X2006516D02*
X2009070D01*
X2011622D02*
X2014086D01*
X1942646Y1652512D02*
X1964280D01*
X2006426D02*
X2008711D01*
X2011890D02*
X2014175D01*
X1942557Y1652602D02*
X1964370D01*
X2006426D02*
X2008532D01*
X2012159D02*
X2014175D01*
X1942467Y1652691D02*
X1964460D01*
X2006336D02*
X2008353D01*
X2012338D02*
X2014265D01*
X1942378Y1652781D02*
X1964639D01*
X2006336D02*
X2008174D01*
X2012428D02*
X2014265D01*
X1942288Y1652871D02*
X1964728D01*
X2006336D02*
X2008084D01*
X2012607D02*
X2014355D01*
X1942109Y1652960D02*
X1964818D01*
X2006247D02*
X2007995D01*
X2012697D02*
X2014355D01*
X1942019Y1653050D02*
X1964907D01*
X2006247D02*
X2007995D01*
X2012786D02*
X2014355D01*
X1941930Y1653139D02*
X1964997D01*
X2006247D02*
X2007905D01*
X2012786D02*
X2014444D01*
X1941840Y1653229D02*
X1965087D01*
X2006247D02*
X2007905D01*
X2012876D02*
X2014444D01*
X1941751Y1653318D02*
X1965176D01*
X2006247D02*
X2007815D01*
X2012876D02*
X2014444D01*
X1941661Y1653408D02*
X1965266D01*
X2006247D02*
X2007815D01*
X2012876D02*
X2014444D01*
X1941571Y1653498D02*
X1965355D01*
X2006247D02*
X2007815D01*
X2012965D02*
X2014444D01*
X1941482Y1653587D02*
X1965535D01*
X2006247D02*
X2007815D01*
X2012965D02*
X2014444D01*
X1941392Y1653677D02*
X1965624D01*
X2006336D02*
X2007905D01*
X2012876D02*
X2014444D01*
X1941303Y1653766D02*
X1965714D01*
X2006336D02*
X2007905D01*
X2012876D02*
X2014444D01*
X1941213Y1653856D02*
X1965803D01*
X2006336D02*
X2007905D01*
X2012876D02*
X2014444D01*
X1941124Y1653946D02*
X1965893D01*
X2006336D02*
X2007995D01*
X2012786D02*
X2014444D01*
X1941034Y1654035D02*
X1965893D01*
X2006426D02*
X2008084D01*
X2012697D02*
X2014444D01*
X1940944Y1654125D02*
X1965982D01*
X2006426D02*
X2008084D01*
X2012607D02*
X2014444D01*
X1940855Y1654214D02*
X1966072D01*
X1994870D02*
X1996708D01*
X2000872D02*
X2002978D01*
X2006516D02*
X2008174D01*
X2012428D02*
X2014444D01*
X2022819D02*
X2024475D01*
X2032672D02*
X2034420D01*
X2038674D02*
X2040691D01*
X2047005D02*
X2048573D01*
X1940765Y1654304D02*
X1966162D01*
X1994512D02*
X1997066D01*
X2000514D02*
X2003336D01*
X2006516D02*
X2008263D01*
X2012249D02*
X2014444D01*
X2022461D02*
X2024833D01*
X2032314D02*
X2034778D01*
X2038316D02*
X2041138D01*
X2046647D02*
X2048932D01*
X1940676Y1654393D02*
X1966251D01*
X1979284D02*
X1980942D01*
X1983315D02*
X1984973D01*
X1988690D02*
X1990346D01*
X1994243D02*
X1997066D01*
X2000245D02*
X2003695D01*
X2006605D02*
X2008353D01*
X2012069D02*
X2014355D01*
X2016011D02*
X2017669D01*
X2022281D02*
X2025102D01*
X2026760D02*
X2028058D01*
X2032045D02*
X2034778D01*
X2038047D02*
X2041407D01*
X2046467D02*
X2049111D01*
X2050767D02*
X2052067D01*
X1940586Y1654483D02*
X1966341D01*
X1979284D02*
X1980942D01*
X1983315D02*
X1984973D01*
X1988690D02*
X1990346D01*
X1994064D02*
X1997066D01*
X2000066D02*
X2003964D01*
X2006695D02*
X2008532D01*
X2011711D02*
X2014355D01*
X2016011D02*
X2017669D01*
X2022102D02*
X2025281D01*
X2026760D02*
X2028058D01*
X2031866D02*
X2034778D01*
X2037778D02*
X2041676D01*
X2046288D02*
X2049290D01*
X2050767D02*
X2052067D01*
X1940497Y1654573D02*
X1966430D01*
X1979284D02*
X1980942D01*
X1983315D02*
X1984973D01*
X1988690D02*
X1990346D01*
X1993975D02*
X1996976D01*
X1999887D02*
X2004143D01*
X2006784D02*
X2008622D01*
X2011353D02*
X2014265D01*
X2016011D02*
X2017669D01*
X2022013D02*
X2025460D01*
X2026760D02*
X2028058D01*
X2031687D02*
X2034778D01*
X2037599D02*
X2041945D01*
X2046109D02*
X2049469D01*
X2050678D02*
X2052067D01*
X1940407Y1654662D02*
X1966520D01*
X1979284D02*
X1980942D01*
X1983315D02*
X1984973D01*
X1988690D02*
X1990346D01*
X1993796D02*
X1996976D01*
X1999708D02*
X2004322D01*
X2006874D02*
X2008711D01*
X2010815D02*
X2014265D01*
X2016011D02*
X2017669D01*
X2021833D02*
X2025640D01*
X2026671D02*
X2028058D01*
X2031597D02*
X2034778D01*
X2037510D02*
X2042124D01*
X2045930D02*
X2049648D01*
X2050678D02*
X2052067D01*
X1940407Y1654752D02*
X1966609D01*
X1979284D02*
X1980942D01*
X1983315D02*
X1984973D01*
X1988690D02*
X1990346D01*
X1993706D02*
X1996976D01*
X1999529D02*
X2004501D01*
X2006964D02*
X2008890D01*
X2010278D02*
X2014175D01*
X2016011D02*
X2017669D01*
X2021744D02*
X2025819D01*
X2026671D02*
X2028058D01*
X2031508D02*
X2034778D01*
X2037330D02*
X2042303D01*
X2045840D02*
X2049738D01*
X2050678D02*
X2052067D01*
X1940317Y1654841D02*
X1966699D01*
X1979284D02*
X1980942D01*
X1983315D02*
X1984973D01*
X1988690D02*
X1990346D01*
X1993616D02*
X1996976D01*
X1999439D02*
X2004680D01*
X2007053D02*
X2009070D01*
X2009830D02*
X2014175D01*
X2016011D02*
X2017669D01*
X2021654D02*
X2025908D01*
X2026671D02*
X2028058D01*
X2031418D02*
X2034689D01*
X2037241D02*
X2042482D01*
X2045751D02*
X2049917D01*
X2050678D02*
X2052067D01*
X1940228Y1654931D02*
X1966699D01*
X1979284D02*
X1980942D01*
X1983315D02*
X1984973D01*
X1988690D02*
X1990346D01*
X1993527D02*
X1996976D01*
X1999349D02*
X2004859D01*
X2007143D02*
X2009249D01*
X2009382D02*
X2014086D01*
X2016011D02*
X2017669D01*
X2021565D02*
X2025998D01*
X2026671D02*
X2028058D01*
X2031329D02*
X2034689D01*
X2037062D02*
X2042572D01*
X2045661D02*
X2050007D01*
X2050678D02*
X2052067D01*
X1940138Y1655020D02*
X1966789D01*
X1979284D02*
X1980942D01*
X1983315D02*
X1984973D01*
X1988690D02*
X1990346D01*
X1993527D02*
X1996976D01*
X1999260D02*
X2004949D01*
X2007232D02*
X2013996D01*
X2016011D02*
X2017669D01*
X2021475D02*
X2026177D01*
X2026671D02*
X2028058D01*
X2031239D02*
X2034689D01*
X2036972D02*
X2042751D01*
X2045572D02*
X2050096D01*
X2050678D02*
X2052067D01*
X1940049Y1655110D02*
X1966878D01*
X1979284D02*
X1980942D01*
X1983315D02*
X1984973D01*
X1988690D02*
X1990346D01*
X1993437D02*
X1996976D01*
X1999081D02*
X2005128D01*
X2007411D02*
X2013907D01*
X2016011D02*
X2017669D01*
X2021475D02*
X2026267D01*
X2026671D02*
X2028058D01*
X2031239D02*
X2034689D01*
X2036883D02*
X2042840D01*
X2045482D02*
X2050186D01*
X2050588D02*
X2052067D01*
X1939959Y1655200D02*
X1966968D01*
X1979284D02*
X1980942D01*
X1983315D02*
X1984973D01*
X1988690D02*
X1990346D01*
X1993437D02*
X1996887D01*
X1998991D02*
X2005218D01*
X2007501D02*
X2013728D01*
X2016011D02*
X2017669D01*
X2021386D02*
X2026356D01*
X2026581D02*
X2028058D01*
X2031150D02*
X2034689D01*
X2036793D02*
X2043020D01*
X2045393D02*
X2050275D01*
X2050588D02*
X2052067D01*
X1939959Y1655289D02*
X1967057D01*
X1979284D02*
X1980942D01*
X1983315D02*
X1984973D01*
X1988690D02*
X1990346D01*
X1993348D02*
X1996887D01*
X1998901D02*
X2005307D01*
X2007680D02*
X2013638D01*
X2016011D02*
X2017669D01*
X2021386D02*
X2026446D01*
X2026581D02*
X2028058D01*
X2031150D02*
X2034689D01*
X2036703D02*
X2043109D01*
X2045303D02*
X2050365D01*
X2050588D02*
X2052067D01*
X1939869Y1655379D02*
X1967057D01*
X1979284D02*
X1980942D01*
X1983315D02*
X1984973D01*
X1988690D02*
X1990346D01*
X1993348D02*
X1996887D01*
X1998901D02*
X2005307D01*
X2007770D02*
X2013459D01*
X2016011D02*
X2017669D01*
X2021296D02*
X2028058D01*
X2031060D02*
X2034689D01*
X2036614D02*
X2043109D01*
X2045213D02*
X2050455D01*
X2050588D02*
X2052067D01*
X1939780Y1655468D02*
X1967147D01*
X1979284D02*
X1980942D01*
X1983315D02*
X1984973D01*
X1988690D02*
X1990346D01*
X1993258D02*
X1996887D01*
X1998812D02*
X2005307D01*
X2007949D02*
X2013369D01*
X2016011D02*
X2017669D01*
X2021296D02*
X2028058D01*
X2031060D02*
X2034599D01*
X2036524D02*
X2043020D01*
X2045124D02*
X2052067D01*
X1939690Y1655558D02*
X1967237D01*
X1979284D02*
X1980942D01*
X1983315D02*
X1984973D01*
X1988690D02*
X1990346D01*
X1993258D02*
X1996887D01*
X1998722D02*
X2005307D01*
X2007949D02*
X2013101D01*
X2016011D02*
X2017669D01*
X2021206D02*
X2023669D01*
X2024252D02*
X2028058D01*
X2031060D02*
X2034599D01*
X2036524D02*
X2043020D01*
X2045124D02*
X2052067D01*
X1939690Y1655648D02*
X1967326D01*
X1979284D02*
X1980942D01*
X1983315D02*
X1984973D01*
X1988690D02*
X1990346D01*
X1993258D02*
X1996887D01*
X1998633D02*
X2001366D01*
X2002753D02*
X2005307D01*
X2007859D02*
X2012921D01*
X2016011D02*
X2017669D01*
X2021206D02*
X2023311D01*
X2024700D02*
X2028058D01*
X2030970D02*
X2034599D01*
X2036435D02*
X2039078D01*
X2040555D02*
X2043020D01*
X2045034D02*
X2047767D01*
X2048259D02*
X2052067D01*
X1939601Y1655737D02*
X1967326D01*
X1979284D02*
X1980942D01*
X1983315D02*
X1984973D01*
X1988690D02*
X1990346D01*
X1993258D02*
X1995364D01*
X1998633D02*
X2001097D01*
X2003112D02*
X2005218D01*
X2007770D02*
X2012653D01*
X2016011D02*
X2017669D01*
X2021206D02*
X2023131D01*
X2024969D02*
X2028058D01*
X2030970D02*
X2033166D01*
X2036345D02*
X2038809D01*
X2040914D02*
X2043020D01*
X2045034D02*
X2047409D01*
X2048707D02*
X2052067D01*
X1939511Y1655827D02*
X1967416D01*
X1979284D02*
X1980942D01*
X1983315D02*
X1984973D01*
X1988690D02*
X1990346D01*
X1993168D02*
X1995185D01*
X1998543D02*
X2000828D01*
X2003380D02*
X2005218D01*
X2007680D02*
X2012294D01*
X2016011D02*
X2017669D01*
X2021117D02*
X2023042D01*
X2025148D02*
X2028058D01*
X2030970D02*
X2032985D01*
X2036345D02*
X2038630D01*
X2041182D02*
X2043020D01*
X2044945D02*
X2047230D01*
X2048976D02*
X2052067D01*
X1939422Y1655916D02*
X1967505D01*
X1979284D02*
X1980942D01*
X1983315D02*
X1984973D01*
X1988690D02*
X1990346D01*
X1993168D02*
X1995095D01*
X1998454D02*
X2000649D01*
X2003649D02*
X2005218D01*
X2007680D02*
X2011936D01*
X2016011D02*
X2017669D01*
X2021117D02*
X2022952D01*
X2025327D02*
X2028058D01*
X2030970D02*
X2032806D01*
X2036256D02*
X2038451D01*
X2041361D02*
X2043020D01*
X2044945D02*
X2047051D01*
X2049155D02*
X2052067D01*
X1939422Y1656006D02*
X1967595D01*
X1979284D02*
X1980942D01*
X1983315D02*
X1984973D01*
X1988690D02*
X1990346D01*
X1993168D02*
X1995006D01*
X1998454D02*
X2000560D01*
X2003828D02*
X2005218D01*
X2007591D02*
X2011488D01*
X2016011D02*
X2017669D01*
X2021117D02*
X2022865D01*
X2025506D02*
X2028058D01*
X2030970D02*
X2032716D01*
X2036166D02*
X2038272D01*
X2041541D02*
X2042930D01*
X2044855D02*
X2046961D01*
X2049244D02*
X2052067D01*
X1939332Y1656095D02*
X1967595D01*
X1979284D02*
X1980942D01*
X1983315D02*
X1984973D01*
X1988690D02*
X1990346D01*
X1993168D02*
X1994916D01*
X1998364D02*
X2000470D01*
X2004007D02*
X2005218D01*
X2007591D02*
X2010951D01*
X2016011D02*
X2017669D01*
X2021117D02*
X2022865D01*
X2025685D02*
X2028058D01*
X2030970D02*
X2032716D01*
X2036166D02*
X2038182D01*
X2041720D02*
X2042930D01*
X2044855D02*
X2046871D01*
X2049424D02*
X2052067D01*
X1939242Y1656185D02*
X1967684D01*
X1979284D02*
X1980942D01*
X1983315D02*
X1984973D01*
X1988690D02*
X1990346D01*
X1993168D02*
X1994916D01*
X1998364D02*
X2000380D01*
X2004187D02*
X2005218D01*
X2007591D02*
X2010413D01*
X2016011D02*
X2017669D01*
X2021117D02*
X2022775D01*
X2025775D02*
X2028058D01*
X2030881D02*
X2032627D01*
X2036076D02*
X2038093D01*
X2041899D02*
X2042930D01*
X2044765D02*
X2046782D01*
X2049513D02*
X2052067D01*
X1939242Y1656275D02*
X1967774D01*
X1979284D02*
X1980942D01*
X1983315D02*
X1984973D01*
X1988690D02*
X1990346D01*
X1993168D02*
X1994827D01*
X1998274D02*
X2000291D01*
X2004276D02*
X2005128D01*
X2007501D02*
X2009965D01*
X2016011D02*
X2017669D01*
X2021027D02*
X2022775D01*
X2025954D02*
X2028058D01*
X2030881D02*
X2032627D01*
X2036076D02*
X2038003D01*
X2042078D02*
X2042930D01*
X2044765D02*
X2046692D01*
X2049603D02*
X2052067D01*
X1939153Y1656364D02*
X1967774D01*
X1979284D02*
X1980942D01*
X1983315D02*
X1984973D01*
X1988690D02*
X1990346D01*
X1993168D02*
X1994827D01*
X1998274D02*
X2000201D01*
X2004455D02*
X2005128D01*
X2007501D02*
X2009607D01*
X2016011D02*
X2017669D01*
X2021027D02*
X2022685D01*
X2026044D02*
X2028058D01*
X2030881D02*
X2032537D01*
X2036076D02*
X2037914D01*
X2042168D02*
X2042930D01*
X2044676D02*
X2046603D01*
X2049782D02*
X2052067D01*
X1939063Y1656454D02*
X1967864D01*
X1979284D02*
X1980942D01*
X1983315D02*
X1984973D01*
X1988690D02*
X1990346D01*
X1993168D02*
X1994827D01*
X1998274D02*
X2000112D01*
X2004545D02*
X2005128D01*
X2007501D02*
X2009338D01*
X2016011D02*
X2017669D01*
X2021027D02*
X2022685D01*
X2026133D02*
X2028058D01*
X2030881D02*
X2032537D01*
X2035987D02*
X2037824D01*
X2042347D02*
X2042930D01*
X2044676D02*
X2046603D01*
X2049871D02*
X2052067D01*
X1939063Y1656543D02*
X1967953D01*
X1979284D02*
X1980942D01*
X1983315D02*
X1984973D01*
X1988690D02*
X1990346D01*
X1993168D02*
X1994737D01*
X1998185D02*
X2000022D01*
X2004724D02*
X2005128D01*
X2007591D02*
X2009249D01*
X2016011D02*
X2017669D01*
X2021027D02*
X2022685D01*
X2026223D02*
X2028058D01*
X2030881D02*
X2032537D01*
X2035987D02*
X2037824D01*
X2042436D02*
X2042840D01*
X2044676D02*
X2046513D01*
X2049961D02*
X2052067D01*
X1938974Y1656633D02*
X1967953D01*
X1979284D02*
X1980942D01*
X1983315D02*
X1984973D01*
X1988690D02*
X1990346D01*
X1993168D02*
X1994737D01*
X1998185D02*
X2000022D01*
X2004814D02*
X2005128D01*
X2007591D02*
X2009159D01*
X2016011D02*
X2017669D01*
X2021027D02*
X2022685D01*
X2026312D02*
X2028058D01*
X2030881D02*
X2032537D01*
X2035897D02*
X2037734D01*
X2042616D02*
X2042840D01*
X2044586D02*
X2046424D01*
X2050051D02*
X2052067D01*
X1938884Y1656722D02*
X1968043D01*
X1979284D02*
X1980942D01*
X1983315D02*
X1984973D01*
X1988690D02*
X1990346D01*
X1993168D02*
X1994737D01*
X1998185D02*
X1999933D01*
X2004903D02*
X2005128D01*
X2007591D02*
X2009159D01*
X2016011D02*
X2017669D01*
X2021027D02*
X2022685D01*
X2026402D02*
X2028058D01*
X2030881D02*
X2032537D01*
X2035897D02*
X2037734D01*
X2042705D02*
X2042840D01*
X2044586D02*
X2046424D01*
X2050140D02*
X2052067D01*
X1938884Y1656812D02*
X1968132D01*
X1979284D02*
X1980942D01*
X1983315D02*
X1984973D01*
X1988690D02*
X1990346D01*
X1993168D02*
X1994737D01*
X1998095D02*
X1999933D01*
X2007591D02*
X2009159D01*
X2016011D02*
X2017669D01*
X2021027D02*
X2022685D01*
X2026492D02*
X2028058D01*
X2030881D02*
X2032537D01*
X2035897D02*
X2037645D01*
X2044586D02*
X2046334D01*
X2050140D02*
X2052067D01*
X1938795Y1656902D02*
X1968132D01*
X1979284D02*
X1980942D01*
X1983315D02*
X1984973D01*
X1988690D02*
X1990346D01*
X1993168D02*
X1994737D01*
X1998095D02*
X1999843D01*
X2007680D02*
X2009249D01*
X2016011D02*
X2017669D01*
X2021117D02*
X2022685D01*
X2026492D02*
X2028058D01*
X2030881D02*
X2032537D01*
X2035897D02*
X2037645D01*
X2044586D02*
X2046334D01*
X2050230D02*
X2052067D01*
X1938705Y1656991D02*
X1968222D01*
X1979284D02*
X1980942D01*
X1983315D02*
X1984973D01*
X1988690D02*
X1990346D01*
X1993168D02*
X1994737D01*
X1998095D02*
X1999843D01*
X2007770D02*
X2009338D01*
X2016011D02*
X2017669D01*
X2021117D02*
X2022775D01*
X2026492D02*
X2028058D01*
X2030881D02*
X2032537D01*
X2035808D02*
X2037555D01*
X2044497D02*
X2046334D01*
X2050319D02*
X2052067D01*
X1938705Y1657081D02*
X1968222D01*
X1979284D02*
X1980942D01*
X1983315D02*
X1984973D01*
X1988690D02*
X1990346D01*
X1993168D02*
X1994737D01*
X1998095D02*
X1999753D01*
X2007770D02*
X2009428D01*
X2016011D02*
X2017669D01*
X2021117D02*
X2022775D01*
X2026492D02*
X2028058D01*
X2030881D02*
X2032537D01*
X2035808D02*
X2037555D01*
X2044497D02*
X2046244D01*
X2050409D02*
X2052067D01*
X1938615Y1657170D02*
X1968311D01*
X1979284D02*
X1980942D01*
X1983315D02*
X1984973D01*
X1988690D02*
X1990346D01*
X1993168D02*
X1994737D01*
X1998006D02*
X1999753D01*
X2007859D02*
X2010861D01*
X2016011D02*
X2017669D01*
X2021117D02*
X2022775D01*
X2026492D02*
X2028058D01*
X2030881D02*
X2032537D01*
X2035808D02*
X2037466D01*
X2044497D02*
X2046244D01*
X2050409D02*
X2052067D01*
X1938615Y1657260D02*
X1968401D01*
X1979284D02*
X1980942D01*
X1983315D02*
X1984973D01*
X1988690D02*
X1990346D01*
X1993168D02*
X1994737D01*
X1998006D02*
X1999753D01*
X2007949D02*
X2011219D01*
X2016011D02*
X2017669D01*
X2021117D02*
X2022865D01*
X2026492D02*
X2028058D01*
X2030881D02*
X2032537D01*
X2035808D02*
X2037466D01*
X2044497D02*
X2046244D01*
X2050409D02*
X2052067D01*
X1938526Y1657350D02*
X1968401D01*
X1979284D02*
X1980942D01*
X1983315D02*
X1984973D01*
X1988690D02*
X1990346D01*
X1993168D02*
X1994737D01*
X1998006D02*
X1999664D01*
X2008038D02*
X2011488D01*
X2016011D02*
X2017669D01*
X2021117D02*
X2022865D01*
X2026492D02*
X2028058D01*
X2030881D02*
X2032537D01*
X2035718D02*
X2037466D01*
X2044497D02*
X2046155D01*
X2050409D02*
X2052067D01*
X1938526Y1657439D02*
X1968491D01*
X1979284D02*
X1980942D01*
X1983315D02*
X1984973D01*
X1988690D02*
X1990346D01*
X1993168D02*
X1994737D01*
X1998006D02*
X1999664D01*
X2008218D02*
X2011757D01*
X2016011D02*
X2017669D01*
X2021206D02*
X2022952D01*
X2026492D02*
X2028058D01*
X2030881D02*
X2032537D01*
X2035718D02*
X2037466D01*
X2044497D02*
X2046155D01*
X2050409D02*
X2052067D01*
X1938436Y1657529D02*
X1968491D01*
X1979284D02*
X1980942D01*
X1983315D02*
X1984973D01*
X1988690D02*
X1990346D01*
X1993168D02*
X1994737D01*
X1998006D02*
X1999664D01*
X2008307D02*
X2011936D01*
X2016011D02*
X2017669D01*
X2021206D02*
X2023042D01*
X2026492D02*
X2028058D01*
X2030881D02*
X2032537D01*
X2035718D02*
X2037376D01*
X2044497D02*
X2046155D01*
X2050409D02*
X2052067D01*
X1938347Y1657618D02*
X1942782D01*
X1946409D02*
X1947348D01*
X1951156D02*
X1955771D01*
X1959577D02*
X1960518D01*
X1964145D02*
X1968580D01*
X1979284D02*
X1980942D01*
X1983315D02*
X1984973D01*
X1988690D02*
X1990346D01*
X1993168D02*
X1994737D01*
X1997916D02*
X1999664D01*
X2008218D02*
X2012115D01*
X2016011D02*
X2017669D01*
X2021206D02*
X2023131D01*
X2026492D02*
X2028058D01*
X2030881D02*
X2032537D01*
X2035718D02*
X2037376D01*
X2044407D02*
X2046155D01*
X2050409D02*
X2052067D01*
X1938347Y1657708D02*
X1942782D01*
X1946409D02*
X1947438D01*
X1951246D02*
X1955771D01*
X1959577D02*
X1960518D01*
X1964145D02*
X1968580D01*
X1979284D02*
X1980942D01*
X1983315D02*
X1984973D01*
X1988690D02*
X1990346D01*
X1993168D02*
X1994737D01*
X1997916D02*
X1999574D01*
X2008128D02*
X2012205D01*
X2016011D02*
X2017669D01*
X2021296D02*
X2023221D01*
X2026492D02*
X2028058D01*
X2030881D02*
X2032537D01*
X2035718D02*
X2037376D01*
X2044407D02*
X2046155D01*
X2050409D02*
X2052067D01*
X1938257Y1657797D02*
X1942782D01*
X1946409D02*
X1947438D01*
X1951246D02*
X1955681D01*
X1959487D02*
X1960518D01*
X1964145D02*
X1968670D01*
X1979284D02*
X1980942D01*
X1983315D02*
X1984973D01*
X1988690D02*
X1990346D01*
X1993168D02*
X1994737D01*
X1997916D02*
X1999574D01*
X2007949D02*
X2012384D01*
X2016011D02*
X2017669D01*
X2021296D02*
X2023311D01*
X2026492D02*
X2028058D01*
X2030881D02*
X2032537D01*
X2035718D02*
X2037376D01*
X2044407D02*
X2046155D01*
X2050409D02*
X2052067D01*
X1938257Y1657887D02*
X1942782D01*
X1946409D02*
X1947529D01*
X1951335D02*
X1955681D01*
X1959487D02*
X1960518D01*
X1964145D02*
X1968759D01*
X1979284D02*
X1980942D01*
X1983315D02*
X1984973D01*
X1988690D02*
X1990346D01*
X1993168D02*
X1994737D01*
X1997916D02*
X1999574D01*
X2007859D02*
X2012473D01*
X2016011D02*
X2017669D01*
X2021386D02*
X2023490D01*
X2026492D02*
X2028058D01*
X2030881D02*
X2032537D01*
X2035718D02*
X2037376D01*
X2044407D02*
X2046065D01*
X2050409D02*
X2052067D01*
X1938167Y1657977D02*
X1942782D01*
X1946409D02*
X1947529D01*
X1951335D02*
X1955591D01*
X1959398D02*
X1960518D01*
X1964145D02*
X1968759D01*
X1979284D02*
X1980942D01*
X1983315D02*
X1984973D01*
X1988690D02*
X1990346D01*
X1993168D02*
X1994737D01*
X1997916D02*
X1999574D01*
X2007770D02*
X2012563D01*
X2016011D02*
X2017669D01*
X2021386D02*
X2023669D01*
X2026492D02*
X2028058D01*
X2030881D02*
X2032537D01*
X2035718D02*
X2037287D01*
X2044407D02*
X2046065D01*
X2050409D02*
X2052067D01*
X1938167Y1658066D02*
X1942782D01*
X1946409D02*
X1947619D01*
X1951425D02*
X1955502D01*
X1959308D02*
X1960518D01*
X1964145D02*
X1968849D01*
X1979284D02*
X1980942D01*
X1983315D02*
X1984973D01*
X1988690D02*
X1990346D01*
X1993168D02*
X1994737D01*
X1997916D02*
X1999574D01*
X2007680D02*
X2012653D01*
X2016011D02*
X2017669D01*
X2021475D02*
X2023848D01*
X2026492D02*
X2028058D01*
X2030881D02*
X2032537D01*
X2035629D02*
X2037287D01*
X2044407D02*
X2046065D01*
X2050409D02*
X2052067D01*
X1938078Y1658156D02*
X1942782D01*
X1946409D02*
X1947619D01*
X1951425D02*
X1955502D01*
X1959308D02*
X1960518D01*
X1964145D02*
X1968849D01*
X1979284D02*
X1980942D01*
X1983315D02*
X1984973D01*
X1988690D02*
X1990346D01*
X1993168D02*
X1994737D01*
X1997916D02*
X1999574D01*
X2007591D02*
X2012742D01*
X2016011D02*
X2017669D01*
X2021565D02*
X2024027D01*
X2026492D02*
X2028058D01*
X2030881D02*
X2032537D01*
X2035629D02*
X2037287D01*
X2044407D02*
X2046065D01*
X2050409D02*
X2052067D01*
X1938078Y1658245D02*
X1942782D01*
X1946409D02*
X1947708D01*
X1951515D02*
X1955412D01*
X1959218D02*
X1960518D01*
X1964145D02*
X1968939D01*
X1979284D02*
X1980942D01*
X1983315D02*
X1984973D01*
X1988690D02*
X1990346D01*
X1993168D02*
X1994737D01*
X1997916D02*
X1999574D01*
X2007501D02*
X2012832D01*
X2016011D02*
X2017669D01*
X2021565D02*
X2024296D01*
X2026492D02*
X2028058D01*
X2030881D02*
X2032537D01*
X2035629D02*
X2037287D01*
X2044407D02*
X2046065D01*
X2050409D02*
X2052067D01*
X1937988Y1658335D02*
X1942782D01*
X1946409D02*
X1947798D01*
X1951604D02*
X1955412D01*
X1959218D02*
X1960518D01*
X1964145D02*
X1968939D01*
X1979284D02*
X1980942D01*
X1983315D02*
X1984973D01*
X1988690D02*
X1990346D01*
X1993168D02*
X1994737D01*
X1997916D02*
X1999574D01*
X2007411D02*
X2012921D01*
X2016011D02*
X2017669D01*
X2021654D02*
X2024654D01*
X2026492D02*
X2028058D01*
X2030881D02*
X2032537D01*
X2035629D02*
X2037287D01*
X2044407D02*
X2046065D01*
X2050409D02*
X2052067D01*
X1937988Y1658424D02*
X1942782D01*
X1946409D02*
X1947798D01*
X1951604D02*
X1955323D01*
X1959129D02*
X1960518D01*
X1964145D02*
X1969028D01*
X1979284D02*
X1980942D01*
X1983315D02*
X1984973D01*
X1988690D02*
X1990346D01*
X1993168D02*
X1994737D01*
X1997916D02*
X2005307D01*
X2007322D02*
X2009607D01*
X2010726D02*
X2013011D01*
X2016011D02*
X2017669D01*
X2021744D02*
X2025013D01*
X2026492D02*
X2028058D01*
X2030881D02*
X2032537D01*
X2035629D02*
X2043109D01*
X2044407D02*
X2046065D01*
X2050409D02*
X2052067D01*
X1937899Y1658514D02*
X1942782D01*
X1946409D02*
X1947888D01*
X1951694D02*
X1955323D01*
X1959129D02*
X1960518D01*
X1964145D02*
X1969028D01*
X1979284D02*
X1980942D01*
X1983315D02*
X1984973D01*
X1988690D02*
X1990346D01*
X1993168D02*
X1994737D01*
X1997916D02*
X2005307D01*
X2007322D02*
X2009338D01*
X2010905D02*
X2013011D01*
X2016011D02*
X2017669D01*
X2021833D02*
X2025460D01*
X2026492D02*
X2028058D01*
X2030881D02*
X2032537D01*
X2035629D02*
X2043109D01*
X2044407D02*
X2046065D01*
X2050409D02*
X2052067D01*
X1937899Y1658604D02*
X1942782D01*
X1946409D02*
X1947888D01*
X1951694D02*
X1955233D01*
X1959039D02*
X1960518D01*
X1964145D02*
X1969118D01*
X1979284D02*
X1980942D01*
X1983315D02*
X1984973D01*
X1988690D02*
X1990346D01*
X1993168D02*
X1994737D01*
X1997916D02*
X2005307D01*
X2007232D02*
X2009159D01*
X2011084D02*
X2013101D01*
X2016011D02*
X2017669D01*
X2021923D02*
X2026177D01*
X2026492D02*
X2028058D01*
X2030881D02*
X2032537D01*
X2035629D02*
X2043109D01*
X2044407D02*
X2046065D01*
X2050409D02*
X2052067D01*
X1937809Y1658693D02*
X1942782D01*
X1946409D02*
X1947977D01*
X1951783D02*
X1955233D01*
X1959039D02*
X1960518D01*
X1964145D02*
X1969118D01*
X1979284D02*
X1980942D01*
X1983315D02*
X1984973D01*
X1988690D02*
X1990346D01*
X1993168D02*
X1994737D01*
X1997916D02*
X2005307D01*
X2007143D02*
X2009070D01*
X2011263D02*
X2013101D01*
X2016011D02*
X2017669D01*
X2022102D02*
X2028058D01*
X2030881D02*
X2032537D01*
X2035629D02*
X2043109D01*
X2044407D02*
X2046065D01*
X2050409D02*
X2052067D01*
X1937809Y1658783D02*
X1942782D01*
X1946409D02*
X1947977D01*
X1951783D02*
X1955143D01*
X1958950D02*
X1960518D01*
X1964145D02*
X1969118D01*
X1979284D02*
X1980942D01*
X1983315D02*
X1984973D01*
X1988690D02*
X1990346D01*
X1993168D02*
X1994737D01*
X1997916D02*
X2005307D01*
X2007143D02*
X2008980D01*
X2011353D02*
X2013190D01*
X2016011D02*
X2017669D01*
X2022192D02*
X2028058D01*
X2030881D02*
X2032537D01*
X2035629D02*
X2043109D01*
X2044407D02*
X2046065D01*
X2050409D02*
X2052067D01*
X1937720Y1658872D02*
X1942782D01*
X1946409D02*
X1948067D01*
X1951873D02*
X1955054D01*
X1958860D02*
X1960518D01*
X1964145D02*
X1969207D01*
X1979284D02*
X1980942D01*
X1983315D02*
X1984973D01*
X1988690D02*
X1990346D01*
X1993168D02*
X1994737D01*
X1997916D02*
X2005307D01*
X2007053D02*
X2008890D01*
X2011442D02*
X2013190D01*
X2016011D02*
X2017669D01*
X2022281D02*
X2028058D01*
X2030881D02*
X2032537D01*
X2035629D02*
X2043109D01*
X2044407D02*
X2046065D01*
X2050409D02*
X2052067D01*
X1937720Y1658962D02*
X1942782D01*
X1946409D02*
X1948067D01*
X1951873D02*
X1955054D01*
X1958860D02*
X1960518D01*
X1964145D02*
X1969207D01*
X1979284D02*
X1980942D01*
X1983315D02*
X1984973D01*
X1988690D02*
X1990346D01*
X1993168D02*
X1994737D01*
X1997916D02*
X2005307D01*
X2007053D02*
X2008801D01*
X2011532D02*
X2013280D01*
X2016011D02*
X2017669D01*
X2022461D02*
X2028058D01*
X2030881D02*
X2032537D01*
X2035629D02*
X2043109D01*
X2044407D02*
X2046065D01*
X2050409D02*
X2052067D01*
X1937720Y1659051D02*
X1942782D01*
X1946409D02*
X1948155D01*
X1951963D02*
X1954962D01*
X1958770D02*
X1960518D01*
X1964145D02*
X1969297D01*
X1979284D02*
X1980942D01*
X1983315D02*
X1984973D01*
X1988690D02*
X1990346D01*
X1993168D02*
X1994737D01*
X1997916D02*
X2005307D01*
X2007053D02*
X2008711D01*
X2011532D02*
X2013280D01*
X2016011D02*
X2017669D01*
X2022640D02*
X2028058D01*
X2030881D02*
X2032537D01*
X2035629D02*
X2043109D01*
X2044407D02*
X2046065D01*
X2050409D02*
X2052067D01*
X1937630Y1659141D02*
X1942782D01*
X1946409D02*
X1948244D01*
X1952052D02*
X1954962D01*
X1958770D02*
X1960518D01*
X1964145D02*
X1969297D01*
X1979284D02*
X1980942D01*
X1983315D02*
X1984973D01*
X1988690D02*
X1990346D01*
X1993168D02*
X1994737D01*
X1997916D02*
X2005307D01*
X2006964D02*
X2008711D01*
X2011622D02*
X2013369D01*
X2016011D02*
X2017669D01*
X2022819D02*
X2028058D01*
X2030881D02*
X2032537D01*
X2035629D02*
X2043109D01*
X2044407D02*
X2046155D01*
X2050409D02*
X2052067D01*
X1937630Y1659231D02*
X1942782D01*
X1946409D02*
X1948244D01*
X1952052D02*
X1954873D01*
X1958681D02*
X1960518D01*
X1964145D02*
X1969386D01*
X1979284D02*
X1980942D01*
X1983315D02*
X1984973D01*
X1988690D02*
X1990346D01*
X1993168D02*
X1994737D01*
X1997916D02*
X2005307D01*
X2006964D02*
X2008622D01*
X2011711D02*
X2013369D01*
X2016011D02*
X2017669D01*
X2022998D02*
X2028058D01*
X2030881D02*
X2032537D01*
X2035629D02*
X2043109D01*
X2044497D02*
X2046155D01*
X2050409D02*
X2052067D01*
X1937540Y1659320D02*
X1942782D01*
X1946409D02*
X1948334D01*
X1952142D02*
X1954873D01*
X1958681D02*
X1960518D01*
X1964145D02*
X1969386D01*
X1979284D02*
X1980942D01*
X1983315D02*
X1984973D01*
X1988690D02*
X1990346D01*
X1993168D02*
X1994737D01*
X1997916D02*
X2005307D01*
X2006964D02*
X2008622D01*
X2011711D02*
X2013369D01*
X2016011D02*
X2017669D01*
X2023267D02*
X2028058D01*
X2030881D02*
X2032537D01*
X2035718D02*
X2043109D01*
X2044497D02*
X2046155D01*
X2050409D02*
X2052067D01*
X1937540Y1659410D02*
X1942782D01*
X1946409D02*
X1948334D01*
X1952142D02*
X1954783D01*
X1958591D02*
X1960518D01*
X1964145D02*
X1969476D01*
X1979284D02*
X1980942D01*
X1983315D02*
X1984973D01*
X1988690D02*
X1990346D01*
X1993168D02*
X1994737D01*
X1997916D02*
X2005307D01*
X2006874D02*
X2008532D01*
X2011711D02*
X2013369D01*
X2016011D02*
X2017669D01*
X2023535D02*
X2028058D01*
X2030881D02*
X2032537D01*
X2035718D02*
X2043109D01*
X2044497D02*
X2046155D01*
X2050409D02*
X2052067D01*
X1937451Y1659499D02*
X1942782D01*
X1946409D02*
X1948423D01*
X1952231D02*
X1954783D01*
X1958591D02*
X1960518D01*
X1964145D02*
X1969476D01*
X1979284D02*
X1980942D01*
X1983315D02*
X1984973D01*
X1988690D02*
X1990346D01*
X1993168D02*
X1994737D01*
X1997916D02*
X2005307D01*
X2006874D02*
X2008532D01*
X2011801D02*
X2013459D01*
X2016011D02*
X2017669D01*
X2023804D02*
X2028058D01*
X2030881D02*
X2032537D01*
X2035718D02*
X2043020D01*
X2044497D02*
X2046155D01*
X2050409D02*
X2052067D01*
X1937451Y1659589D02*
X1942782D01*
X1946409D02*
X1948423D01*
X1952231D02*
X1954696D01*
X1958502D02*
X1960518D01*
X1964145D02*
X1969476D01*
X1979284D02*
X1980942D01*
X1983315D02*
X1984973D01*
X1988690D02*
X1990346D01*
X1993168D02*
X1994737D01*
X1997916D02*
X2005307D01*
X2006874D02*
X2008532D01*
X2011801D02*
X2013459D01*
X2016011D02*
X2017759D01*
X2024163D02*
X2028058D01*
X2030881D02*
X2032537D01*
X2035718D02*
X2043020D01*
X2044497D02*
X2046155D01*
X2050409D02*
X2052067D01*
X1937451Y1659679D02*
X1942782D01*
X1946409D02*
X1948513D01*
X1952321D02*
X1954696D01*
X1958412D02*
X1960518D01*
X1964145D02*
X1969566D01*
X1979284D02*
X1980942D01*
X1983315D02*
X1984973D01*
X1988690D02*
X1990346D01*
X1993168D02*
X1994737D01*
X1998006D02*
X2005307D01*
X2006874D02*
X2008442D01*
X2011801D02*
X2013459D01*
X2016011D02*
X2017848D01*
X2024610D02*
X2028058D01*
X2030881D02*
X2032537D01*
X2035718D02*
X2043020D01*
X2044497D02*
X2046244D01*
X2050409D02*
X2052067D01*
X1937361Y1659768D02*
X1942782D01*
X1946409D02*
X1948513D01*
X1952321D02*
X1954606D01*
X1958412D02*
X1960518D01*
X1964145D02*
X1969566D01*
X1979284D02*
X1980942D01*
X1983315D02*
X1984973D01*
X1988690D02*
X1990346D01*
X1993168D02*
X1994737D01*
X1998006D02*
X1999664D01*
X2003649D02*
X2005307D01*
X2006874D02*
X2008442D01*
X2011890D02*
X2013459D01*
X2016011D02*
X2017848D01*
X2025058D02*
X2028058D01*
X2030881D02*
X2032537D01*
X2035718D02*
X2037376D01*
X2041451D02*
X2043020D01*
X2044497D02*
X2046244D01*
X2050409D02*
X2052067D01*
X1937361Y1659858D02*
X1942782D01*
X1946409D02*
X1948602D01*
X1952410D02*
X1954516D01*
X1958323D02*
X1960518D01*
X1964145D02*
X1969566D01*
X1979284D02*
X1980942D01*
X1983315D02*
X1984973D01*
X1988690D02*
X1990346D01*
X1993168D02*
X1994737D01*
X1998006D02*
X1999664D01*
X2003649D02*
X2005218D01*
X2006874D02*
X2008442D01*
X2011890D02*
X2013459D01*
X2016011D02*
X2017938D01*
X2025685D02*
X2028058D01*
X2030881D02*
X2032537D01*
X2035718D02*
X2037376D01*
X2041361D02*
X2043020D01*
X2044586D02*
X2046244D01*
X2050409D02*
X2052067D01*
X1937272Y1659947D02*
X1942782D01*
X1946409D02*
X1948692D01*
X1952410D02*
X1954516D01*
X1958323D02*
X1960518D01*
X1964145D02*
X1969655D01*
X1979284D02*
X1980942D01*
X1983315D02*
X1984973D01*
X1988690D02*
X1990346D01*
X1993168D02*
X1994737D01*
X1998006D02*
X1999664D01*
X2003649D02*
X2005218D01*
X2006874D02*
X2008442D01*
X2011890D02*
X2013459D01*
X2016011D02*
X2018027D01*
X2026402D02*
X2028058D01*
X2030881D02*
X2032537D01*
X2035808D02*
X2037466D01*
X2041361D02*
X2043020D01*
X2044586D02*
X2046244D01*
X2050409D02*
X2052067D01*
X1937272Y1660037D02*
X1942782D01*
X1946409D02*
X1948692D01*
X1952500D02*
X1954427D01*
X1958233D02*
X1960518D01*
X1964145D02*
X1969655D01*
X1979284D02*
X1980942D01*
X1983315D02*
X1984973D01*
X1988690D02*
X1990346D01*
X1993168D02*
X1994737D01*
X1998006D02*
X1999664D01*
X2003560D02*
X2005218D01*
X2006874D02*
X2008442D01*
X2011890D02*
X2013459D01*
X2016011D02*
X2018027D01*
X2026492D02*
X2028058D01*
X2030881D02*
X2032537D01*
X2035808D02*
X2037466D01*
X2041361D02*
X2043020D01*
X2044586D02*
X2046334D01*
X2050409D02*
X2052067D01*
X1937272Y1660126D02*
X1942782D01*
X1946409D02*
X1948782D01*
X1952590D02*
X1954427D01*
X1958233D02*
X1960518D01*
X1964145D02*
X1969745D01*
X1979284D02*
X1980942D01*
X1983315D02*
X1984973D01*
X1988690D02*
X1990346D01*
X1993168D02*
X1994737D01*
X1998095D02*
X1999753D01*
X2003560D02*
X2005218D01*
X2006874D02*
X2008442D01*
X2011890D02*
X2013459D01*
X2016011D02*
X2018117D01*
X2026492D02*
X2028058D01*
X2030881D02*
X2032537D01*
X2035808D02*
X2037466D01*
X2041361D02*
X2042930D01*
X2044586D02*
X2046334D01*
X2050409D02*
X2052067D01*
X1937182Y1660216D02*
X1942782D01*
X1946409D02*
X1948782D01*
X1952590D02*
X1954337D01*
X1958143D02*
X1960518D01*
X1964145D02*
X1969745D01*
X1979284D02*
X1980942D01*
X1983315D02*
X1984973D01*
X1988690D02*
X1990346D01*
X1993168D02*
X1994737D01*
X1998095D02*
X1999753D01*
X2003560D02*
X2005218D01*
X2006874D02*
X2008442D01*
X2011890D02*
X2013459D01*
X2016011D02*
X2018206D01*
X2026492D02*
X2028058D01*
X2030881D02*
X2032537D01*
X2035808D02*
X2037555D01*
X2041272D02*
X2042930D01*
X2044676D02*
X2046424D01*
X2050409D02*
X2052067D01*
X1937182Y1660306D02*
X1942782D01*
X1946409D02*
X1948871D01*
X1952679D02*
X1954337D01*
X1958143D02*
X1960518D01*
X1964145D02*
X1969745D01*
X1979284D02*
X1980942D01*
X1983315D02*
X1985063D01*
X1988690D02*
X1990346D01*
X1993168D02*
X1994737D01*
X1998095D02*
X1999753D01*
X2003560D02*
X2005128D01*
X2006874D02*
X2008442D01*
X2011890D02*
X2013459D01*
X2016011D02*
X2018296D01*
X2026492D02*
X2028058D01*
X2030881D02*
X2032537D01*
X2035897D02*
X2037555D01*
X2041272D02*
X2042930D01*
X2044676D02*
X2046424D01*
X2050409D02*
X2052067D01*
X1937182Y1660395D02*
X1942782D01*
X1946409D02*
X1948871D01*
X1952679D02*
X1954248D01*
X1958054D02*
X1960518D01*
X1964145D02*
X1969834D01*
X1979284D02*
X1980942D01*
X1983315D02*
X1985152D01*
X1988690D02*
X1990346D01*
X1993168D02*
X1994737D01*
X1998095D02*
X1999843D01*
X2003470D02*
X2005128D01*
X2006874D02*
X2008442D01*
X2011890D02*
X2013459D01*
X2016011D02*
X2018386D01*
X2026492D02*
X2028058D01*
X2030881D02*
X2032537D01*
X2035897D02*
X2037555D01*
X2041272D02*
X2042930D01*
X2044676D02*
X2046424D01*
X2050409D02*
X2052067D01*
X1937093Y1660485D02*
X1942782D01*
X1946409D02*
X1948961D01*
X1952769D02*
X1954248D01*
X1957964D02*
X1960518D01*
X1964145D02*
X1969834D01*
X1979284D02*
X1980942D01*
X1983315D02*
X1985242D01*
X1988690D02*
X1990346D01*
X1993168D02*
X1994737D01*
X1998185D02*
X1999843D01*
X2003470D02*
X2005128D01*
X2006874D02*
X2008442D01*
X2011890D02*
X2013459D01*
X2016011D02*
X2018475D01*
X2026402D02*
X2028058D01*
X2030881D02*
X2032537D01*
X2035897D02*
X2037645D01*
X2041182D02*
X2042840D01*
X2044765D02*
X2046513D01*
X2050409D02*
X2052067D01*
X1937093Y1660574D02*
X1942782D01*
X1946409D02*
X1948961D01*
X1952769D02*
X1954158D01*
X1957964D02*
X1960518D01*
X1964145D02*
X1969834D01*
X1979284D02*
X1980942D01*
X1983315D02*
X1985331D01*
X1988690D02*
X1990346D01*
X1993168D02*
X1994737D01*
X1998185D02*
X1999933D01*
X2003470D02*
X2005128D01*
X2006874D02*
X2008532D01*
X2011801D02*
X2013459D01*
X2016011D02*
X2018565D01*
X2026402D02*
X2028058D01*
X2030881D02*
X2032537D01*
X2035987D02*
X2037645D01*
X2041182D02*
X2042840D01*
X2044765D02*
X2046603D01*
X2050409D02*
X2052067D01*
X1937093Y1660664D02*
X1942782D01*
X1946409D02*
X1949050D01*
X1952858D02*
X1954069D01*
X1957875D02*
X1960518D01*
X1964145D02*
X1969924D01*
X1979284D02*
X1980942D01*
X1983315D02*
X1985421D01*
X1988600D02*
X1990346D01*
X1993168D02*
X1994737D01*
X1998185D02*
X1999933D01*
X2003380D02*
X2005038D01*
X2006874D02*
X2008532D01*
X2011801D02*
X2013459D01*
X2016011D02*
X2018654D01*
X2026402D02*
X2028058D01*
X2030881D02*
X2032537D01*
X2035987D02*
X2037734D01*
X2041182D02*
X2042840D01*
X2044765D02*
X2046603D01*
X2050409D02*
X2052067D01*
X1937003Y1660753D02*
X1942782D01*
X1946409D02*
X1949140D01*
X1952858D02*
X1954069D01*
X1957875D02*
X1960518D01*
X1964145D02*
X1969924D01*
X1979284D02*
X1980942D01*
X1983315D02*
X1985510D01*
X1988600D02*
X1990346D01*
X1993168D02*
X1994737D01*
X1998274D02*
X2000022D01*
X2003380D02*
X2005038D01*
X2006874D02*
X2008532D01*
X2011801D02*
X2013459D01*
X2016011D02*
X2018834D01*
X2026402D02*
X2028058D01*
X2030881D02*
X2032537D01*
X2035987D02*
X2037734D01*
X2041093D02*
X2042840D01*
X2044855D02*
X2046692D01*
X2050409D02*
X2052067D01*
X1937003Y1660843D02*
X1942782D01*
X1946409D02*
X1949140D01*
X1952948D02*
X1953979D01*
X1957785D02*
X1960518D01*
X1964145D02*
X1969924D01*
X1979284D02*
X1980942D01*
X1983315D02*
X1985600D01*
X1988600D02*
X1990346D01*
X1993168D02*
X1994737D01*
X1998274D02*
X2000022D01*
X2003291D02*
X2005038D01*
X2006874D02*
X2008622D01*
X2011711D02*
X2013369D01*
X2016011D02*
X2018923D01*
X2026402D02*
X2028058D01*
X2030881D02*
X2032537D01*
X2036076D02*
X2037824D01*
X2041093D02*
X2042751D01*
X2044855D02*
X2046782D01*
X2050409D02*
X2052067D01*
X1937003Y1660933D02*
X1942782D01*
X1946409D02*
X1949229D01*
X1953037D02*
X1953979D01*
X1957785D02*
X1960518D01*
X1964145D02*
X1970013D01*
X1979284D02*
X1980942D01*
X1983315D02*
X1985779D01*
X1988510D02*
X1990346D01*
X1993168D02*
X1994737D01*
X1998364D02*
X2000112D01*
X2003291D02*
X2004949D01*
X2006964D02*
X2008622D01*
X2011711D02*
X2013369D01*
X2016011D02*
X2019102D01*
X2026312D02*
X2028058D01*
X2030881D02*
X2032537D01*
X2036076D02*
X2037824D01*
X2041003D02*
X2042751D01*
X2044945D02*
X2046782D01*
X2050409D02*
X2052067D01*
X1936913Y1661022D02*
X1942782D01*
X1946409D02*
X1949229D01*
X1953037D02*
X1953889D01*
X1957696D02*
X1960518D01*
X1964145D02*
X1970013D01*
X1979284D02*
X1980942D01*
X1983315D02*
X1985869D01*
X1988510D02*
X1990346D01*
X1993168D02*
X1994737D01*
X1998364D02*
X2000201D01*
X2003201D02*
X2004949D01*
X2006964D02*
X2008711D01*
X2011622D02*
X2013369D01*
X2016011D02*
X2019192D01*
X2021833D02*
X2022148D01*
X2026312D02*
X2028058D01*
X2030881D02*
X2032537D01*
X2036166D02*
X2037914D01*
X2040914D02*
X2042661D01*
X2044945D02*
X2046871D01*
X2050409D02*
X2052067D01*
X1936913Y1661112D02*
X1942782D01*
X1946409D02*
X1949319D01*
X1953127D02*
X1953889D01*
X1957696D02*
X1960518D01*
X1964145D02*
X1970013D01*
X1979284D02*
X1980942D01*
X1983315D02*
X1985958D01*
X1988421D02*
X1990346D01*
X1993168D02*
X1994737D01*
X1998454D02*
X2000201D01*
X2003112D02*
X2004859D01*
X2006964D02*
X2008711D01*
X2011622D02*
X2013280D01*
X2016011D02*
X2019371D01*
X2021833D02*
X2022327D01*
X2026223D02*
X2028058D01*
X2030881D02*
X2032537D01*
X2036166D02*
X2038003D01*
X2040914D02*
X2042661D01*
X2045034D02*
X2046961D01*
X2050409D02*
X2052067D01*
X1936913Y1661201D02*
X1942782D01*
X1946409D02*
X1949319D01*
X1953127D02*
X1953800D01*
X1957606D02*
X1960518D01*
X1964145D02*
X1970013D01*
X1979284D02*
X1980942D01*
X1983315D02*
X1986138D01*
X1988421D02*
X1990256D01*
X1993168D02*
X1994737D01*
X1998454D02*
X2000291D01*
X2003022D02*
X2004859D01*
X2007053D02*
X2008801D01*
X2011532D02*
X2013280D01*
X2016011D02*
X2019550D01*
X2021833D02*
X2022596D01*
X2026133D02*
X2028058D01*
X2030881D02*
X2032537D01*
X2036256D02*
X2038093D01*
X2040824D02*
X2042572D01*
X2045034D02*
X2047140D01*
X2050319D02*
X2052067D01*
X1936913Y1661291D02*
X1942782D01*
X1946409D02*
X1949409D01*
X1953217D02*
X1953800D01*
X1957606D02*
X1960518D01*
X1964145D02*
X1970103D01*
X1979284D02*
X1980942D01*
X1983315D02*
X1986317D01*
X1988331D02*
X1990256D01*
X1993168D02*
X1994737D01*
X1998543D02*
X2000380D01*
X2002932D02*
X2004770D01*
X2007053D02*
X2008890D01*
X2011442D02*
X2013280D01*
X2016011D02*
X2019729D01*
X2021833D02*
X2022775D01*
X2026044D02*
X2027969D01*
X2030881D02*
X2032537D01*
X2036256D02*
X2038182D01*
X2040734D02*
X2042572D01*
X2045124D02*
X2047230D01*
X2050140D02*
X2052067D01*
X1936824Y1661381D02*
X1942782D01*
X1946409D02*
X1949409D01*
X1953217D02*
X1953708D01*
X1957516D02*
X1960518D01*
X1964145D02*
X1970103D01*
X1979284D02*
X1980942D01*
X1983315D02*
X1986496D01*
X1988152D02*
X1990256D01*
X1993168D02*
X1994737D01*
X1998543D02*
X2000560D01*
X2002843D02*
X2004770D01*
X2007143D02*
X2008980D01*
X2011353D02*
X2013190D01*
X2016011D02*
X2020088D01*
X2021833D02*
X2023042D01*
X2025954D02*
X2027969D01*
X2030881D02*
X2032537D01*
X2036345D02*
X2038272D01*
X2040645D02*
X2042482D01*
X2045124D02*
X2047409D01*
X2049871D02*
X2052067D01*
X1936824Y1661470D02*
X1942782D01*
X1946409D02*
X1949498D01*
X1953306D02*
X1953619D01*
X1957427D02*
X1960518D01*
X1964145D02*
X1970103D01*
X1979284D02*
X1980942D01*
X1983315D02*
X1986675D01*
X1988063D02*
X1990256D01*
X1993168D02*
X1994737D01*
X1998633D02*
X2000649D01*
X2002753D02*
X2004680D01*
X2007143D02*
X2009070D01*
X2011263D02*
X2013996D01*
X2016011D02*
X2017490D01*
X2017713D02*
X2020446D01*
X2021744D02*
X2023400D01*
X2025864D02*
X2027969D01*
X2030881D02*
X2032537D01*
X2036345D02*
X2038362D01*
X2040466D02*
X2042482D01*
X2045213D02*
X2047588D01*
X2049603D02*
X2052067D01*
X1936824Y1661560D02*
X1942782D01*
X1946409D02*
X1949588D01*
X1953306D02*
X1953619D01*
X1957427D02*
X1960518D01*
X1964145D02*
X1970191D01*
X1979284D02*
X1980942D01*
X1983315D02*
X1987033D01*
X1987794D02*
X1990167D01*
X1991735D02*
X1996887D01*
X1998633D02*
X2000828D01*
X2002574D02*
X2004680D01*
X2007232D02*
X2009159D01*
X2011174D02*
X2014803D01*
X2016011D02*
X2017490D01*
X2017802D02*
X2020804D01*
X2021744D02*
X2023758D01*
X2025596D02*
X2027879D01*
X2029448D02*
X2034599D01*
X2036435D02*
X2038541D01*
X2040376D02*
X2042393D01*
X2045303D02*
X2047857D01*
X2049155D02*
X2052067D01*
X1936824Y1661649D02*
X1942782D01*
X1946409D02*
X1949588D01*
X1953396D02*
X1953531D01*
X1957337D02*
X1960518D01*
X1964145D02*
X1970191D01*
X1979284D02*
X1980942D01*
X1983315D02*
X1990167D01*
X1991735D02*
X1996887D01*
X1998722D02*
X2001007D01*
X2002395D02*
X2004591D01*
X2007232D02*
X2009249D01*
X2010995D02*
X2014803D01*
X2016011D02*
X2017490D01*
X2017802D02*
X2020804D01*
X2021744D02*
X2024386D01*
X2025237D02*
X2027879D01*
X2029448D02*
X2034599D01*
X2036524D02*
X2038720D01*
X2040197D02*
X2042393D01*
X2045393D02*
X2052067D01*
X1936734Y1661739D02*
X1942782D01*
X1946409D02*
X1949677D01*
X1953485D02*
X1953531D01*
X1957337D02*
X1960518D01*
X1964145D02*
X1970191D01*
X1979284D02*
X1980942D01*
X1983315D02*
X1990167D01*
X1991735D02*
X1996887D01*
X1998812D02*
X2001276D01*
X2002126D02*
X2004501D01*
X2007322D02*
X2009517D01*
X2010815D02*
X2014713D01*
X2016011D02*
X2017490D01*
X2017892D02*
X2020804D01*
X2021744D02*
X2027879D01*
X2029448D02*
X2034599D01*
X2036524D02*
X2039078D01*
X2039839D02*
X2042303D01*
X2045393D02*
X2052067D01*
X1936734Y1661828D02*
X1942782D01*
X1946409D02*
X1949677D01*
X1957248D02*
X1960518D01*
X1964145D02*
X1970191D01*
X1979284D02*
X1980942D01*
X1983315D02*
X1984794D01*
X1984927D02*
X1990077D01*
X1991735D02*
X1996887D01*
X1998901D02*
X2004501D01*
X2007322D02*
X2009786D01*
X2010547D02*
X2014713D01*
X2016011D02*
X2017490D01*
X2017982D02*
X2020804D01*
X2021744D02*
X2027789D01*
X2029448D02*
X2034599D01*
X2036614D02*
X2042213D01*
X2045482D02*
X2052067D01*
X1936734Y1661918D02*
X1942782D01*
X1946409D02*
X1949767D01*
X1957248D02*
X1960518D01*
X1964145D02*
X1970280D01*
X1979284D02*
X1980942D01*
X1983315D02*
X1984794D01*
X1985017D02*
X1990077D01*
X1991735D02*
X1996887D01*
X1998991D02*
X2004411D01*
X2007411D02*
X2014713D01*
X2016011D02*
X2017490D01*
X2018071D02*
X2020804D01*
X2021744D02*
X2027789D01*
X2029448D02*
X2034599D01*
X2036703D02*
X2042213D01*
X2045572D02*
X2052067D01*
X1936734Y1662008D02*
X1942782D01*
X1946409D02*
X1949767D01*
X1957158D02*
X1960518D01*
X1964145D02*
X1970280D01*
X1979284D02*
X1980942D01*
X1983315D02*
X1984794D01*
X1985106D02*
X1989988D01*
X1991735D02*
X1996887D01*
X1998991D02*
X2004322D01*
X2007501D02*
X2014713D01*
X2016011D02*
X2017490D01*
X2018161D02*
X2020715D01*
X2021744D02*
X2027700D01*
X2029448D02*
X2034599D01*
X2036793D02*
X2042124D01*
X2045661D02*
X2052067D01*
X1936645Y1662097D02*
X1942782D01*
X1946409D02*
X1949857D01*
X1957158D02*
X1960518D01*
X1964145D02*
X1970280D01*
X1979284D02*
X1980942D01*
X1983315D02*
X1984794D01*
X1985286D02*
X1989988D01*
X1991735D02*
X1996887D01*
X1999081D02*
X2004232D01*
X2007591D02*
X2014713D01*
X2016011D02*
X2017400D01*
X2018250D02*
X2020715D01*
X2021654D02*
X2027700D01*
X2029448D02*
X2034599D01*
X2036883D02*
X2042034D01*
X2045751D02*
X2052067D01*
X1936645Y1662187D02*
X1942782D01*
X1946409D02*
X1949857D01*
X1957068D02*
X1960518D01*
X1964145D02*
X1970280D01*
X1979284D02*
X1980942D01*
X1983315D02*
X1984794D01*
X1985375D02*
X1989898D01*
X1991735D02*
X1996887D01*
X1999170D02*
X2004143D01*
X2007680D02*
X2014713D01*
X2016011D02*
X2017400D01*
X2018340D02*
X2020715D01*
X2021654D02*
X2027610D01*
X2029448D02*
X2034599D01*
X2036972D02*
X2041945D01*
X2045840D02*
X2052067D01*
X1936645Y1662276D02*
X1942782D01*
X1946409D02*
X1949946D01*
X1956979D02*
X1960518D01*
X1964145D02*
X1970280D01*
X1979284D02*
X1980942D01*
X1983315D02*
X1984704D01*
X1985465D02*
X1989808D01*
X1991735D02*
X1996887D01*
X1999349D02*
X2004053D01*
X2007770D02*
X2014623D01*
X2016011D02*
X2017400D01*
X2018430D02*
X2020715D01*
X2021654D02*
X2027521D01*
X2029448D02*
X2034599D01*
X2037062D02*
X2041855D01*
X2045930D02*
X2052067D01*
X1936645Y1662366D02*
X1942782D01*
X1946409D02*
X1950038D01*
X1956979D02*
X1960518D01*
X1964145D02*
X1970370D01*
X1979284D02*
X1980942D01*
X1983315D02*
X1984704D01*
X1985644D02*
X1989808D01*
X1991735D02*
X1996887D01*
X1999439D02*
X2003964D01*
X2007859D02*
X2014623D01*
X2016011D02*
X2017400D01*
X2018519D02*
X2020715D01*
X2021654D02*
X2027431D01*
X2029448D02*
X2034599D01*
X2037151D02*
X2041766D01*
X2046109D02*
X2052067D01*
X1936555Y1662455D02*
X1942782D01*
X1946409D02*
X1950038D01*
X1956889D02*
X1960518D01*
X1964145D02*
X1970370D01*
X1979284D02*
X1980942D01*
X1983315D02*
X1984704D01*
X1985733D02*
X1989719D01*
X1991735D02*
X1996887D01*
X1999529D02*
X2003874D01*
X2007949D02*
X2012294D01*
X2012517D02*
X2014623D01*
X2016011D02*
X2017400D01*
X2018698D02*
X2020715D01*
X2021744D02*
X2027342D01*
X2029448D02*
X2034599D01*
X2037330D02*
X2041586D01*
X2046199D02*
X2052067D01*
X1936555Y1662545D02*
X1942782D01*
X1946409D02*
X1950127D01*
X1956889D02*
X1960518D01*
X1964145D02*
X1970370D01*
X1979284D02*
X1980942D01*
X1983315D02*
X1984704D01*
X1985913D02*
X1989629D01*
X1991735D02*
X1996887D01*
X1999618D02*
X2003695D01*
X2008128D02*
X2012205D01*
X2012786D02*
X2014623D01*
X2016011D02*
X2017400D01*
X2018788D02*
X2020625D01*
X2022013D02*
X2027252D01*
X2029448D02*
X2034599D01*
X2037420D02*
X2041497D01*
X2046378D02*
X2052067D01*
X1936555Y1662635D02*
X1942782D01*
X1946409D02*
X1950127D01*
X1956800D02*
X1960518D01*
X1964145D02*
X1970370D01*
X1979284D02*
X1980942D01*
X1983315D02*
X1984704D01*
X1986002D02*
X1989450D01*
X1991735D02*
X1996887D01*
X1999797D02*
X2003605D01*
X2008218D02*
X2012026D01*
X2013055D02*
X2014623D01*
X2016011D02*
X2017311D01*
X2018967D02*
X2020625D01*
X2022281D02*
X2027073D01*
X2029448D02*
X2034599D01*
X2037599D02*
X2041318D01*
X2046557D02*
X2052067D01*
X1936555Y1662724D02*
X1942782D01*
X1946409D02*
X1950217D01*
X1956800D02*
X1960518D01*
X1964145D02*
X1970370D01*
X1979284D02*
X1980942D01*
X1983315D02*
X1984704D01*
X1986181D02*
X1989360D01*
X1991735D02*
X1996887D01*
X1999976D02*
X2003426D01*
X2008397D02*
X2011846D01*
X2013324D02*
X2014623D01*
X2016011D02*
X2017311D01*
X2019057D02*
X2020625D01*
X2022550D02*
X2026983D01*
X2029448D02*
X2034599D01*
X2037689D02*
X2041228D01*
X2046736D02*
X2052067D01*
X1936555Y1662814D02*
X1942782D01*
X1946409D02*
X1950217D01*
X1956710D02*
X1960518D01*
X1964145D02*
X1970459D01*
X1979284D02*
X1980942D01*
X1983315D02*
X1984615D01*
X1986450D02*
X1989181D01*
X1991735D02*
X1996887D01*
X2000156D02*
X2003247D01*
X2008576D02*
X2011667D01*
X2013682D02*
X2014534D01*
X2016011D02*
X2017311D01*
X2019236D02*
X2020625D01*
X2022819D02*
X2026804D01*
X2029448D02*
X2034599D01*
X2037868D02*
X2041049D01*
X2046915D02*
X2050096D01*
X2050409D02*
X2052067D01*
X1936555Y1662903D02*
X1942782D01*
X1946409D02*
X1950304D01*
X1956710D02*
X1960518D01*
X1964145D02*
X1970459D01*
X1979284D02*
X1980942D01*
X1983315D02*
X1984615D01*
X1986629D02*
X1989002D01*
X1991735D02*
X1996887D01*
X2000335D02*
X2003068D01*
X2008845D02*
X2011488D01*
X2013951D02*
X2014534D01*
X2016011D02*
X2017311D01*
X2019504D02*
X2020625D01*
X2023088D02*
X2026535D01*
X2029448D02*
X2034599D01*
X2038137D02*
X2040780D01*
X2047184D02*
X2049738D01*
X2050409D02*
X2052067D01*
X1936466Y1662993D02*
X1942782D01*
X1946409D02*
X1950304D01*
X1956621D02*
X1960518D01*
X1964145D02*
X1970459D01*
X1986898D02*
X1988823D01*
X1993168D02*
X1994737D01*
X2000693D02*
X2002709D01*
X2009113D02*
X2011219D01*
X2014219D02*
X2014534D01*
X2019773D02*
X2020625D01*
X2023535D02*
X2026267D01*
X2030881D02*
X2032537D01*
X2038405D02*
X2040511D01*
X2047542D02*
X2049200D01*
X2050409D02*
X2052067D01*
X1936466Y1663083D02*
X1942782D01*
X1946409D02*
X1950394D01*
X1956531D02*
X1960518D01*
X1964145D02*
X1970459D01*
X1987346D02*
X1988375D01*
X1993168D02*
X1994737D01*
X2001051D02*
X2002262D01*
X2009561D02*
X2010771D01*
X2020131D02*
X2020536D01*
X2024163D02*
X2025729D01*
X2030881D02*
X2032537D01*
X2038853D02*
X2040064D01*
X2050409D02*
X2052067D01*
X1936466Y1663172D02*
X1942782D01*
X1946409D02*
X1950484D01*
X1956531D02*
X1960518D01*
X1964145D02*
X1970459D01*
X1993168D02*
X1994737D01*
X2030881D02*
X2032537D01*
X2050409D02*
X2052067D01*
X1936466Y1663262D02*
X1942782D01*
X1946409D02*
X1950484D01*
X1956441D02*
X1960518D01*
X1964145D02*
X1970459D01*
X1993168D02*
X1994737D01*
X2030881D02*
X2032537D01*
X2050409D02*
X2052067D01*
X1936466Y1663351D02*
X1942782D01*
X1946409D02*
X1950573D01*
X1956441D02*
X1960518D01*
X1964145D02*
X1970549D01*
X1993168D02*
X1994737D01*
X2030881D02*
X2032537D01*
X2050409D02*
X2052067D01*
X1936466Y1663441D02*
X1942782D01*
X1946409D02*
X1950573D01*
X1956352D02*
X1960518D01*
X1964145D02*
X1970549D01*
X1993168D02*
X1994737D01*
X2030881D02*
X2032537D01*
X2050409D02*
X2052067D01*
X1936376Y1663530D02*
X1942782D01*
X1946409D02*
X1950663D01*
X1956352D02*
X1960518D01*
X1964145D02*
X1970549D01*
X1993168D02*
X1994737D01*
X2030881D02*
X2032537D01*
X2050409D02*
X2052067D01*
X1936376Y1663620D02*
X1942782D01*
X1946409D02*
X1950663D01*
X1956262D02*
X1960518D01*
X1964145D02*
X1970549D01*
X1993168D02*
X1994737D01*
X2030881D02*
X2032537D01*
X2050409D02*
X2052067D01*
X1936376Y1663710D02*
X1942782D01*
X1946409D02*
X1950752D01*
X1956262D02*
X1960518D01*
X1964145D02*
X1970549D01*
X1993168D02*
X1994737D01*
X2030881D02*
X2032537D01*
X2050409D02*
X2052067D01*
X1936376Y1663799D02*
X1942782D01*
X1946409D02*
X1950752D01*
X1956173D02*
X1960518D01*
X1964145D02*
X1970549D01*
X1993168D02*
X1994737D01*
X2030881D02*
X2032537D01*
X2050409D02*
X2052067D01*
X1936376Y1663889D02*
X1942782D01*
X1946409D02*
X1950842D01*
X1956083D02*
X1960518D01*
X1964145D02*
X1970549D01*
X1993168D02*
X1994737D01*
X2030881D02*
X2032537D01*
X2050409D02*
X2052067D01*
X1936376Y1663978D02*
X1942782D01*
X1946409D02*
X1950931D01*
X1956083D02*
X1960518D01*
X1964145D02*
X1970639D01*
X1993168D02*
X1994737D01*
X2030881D02*
X2032537D01*
X2050409D02*
X2052067D01*
X1936376Y1664068D02*
X1942782D01*
X1946409D02*
X1950931D01*
X1955994D02*
X1960518D01*
X1964145D02*
X1970639D01*
X1993168D02*
X1994737D01*
X2030881D02*
X2032537D01*
X2050409D02*
X2052067D01*
X1936376Y1664157D02*
X1942782D01*
X1946409D02*
X1951021D01*
X1955994D02*
X1960518D01*
X1964145D02*
X1970639D01*
X1993168D02*
X1994737D01*
X2030881D02*
X2032537D01*
X2050409D02*
X2052067D01*
X1936286Y1664247D02*
X1942782D01*
X1946409D02*
X1951021D01*
X1955904D02*
X1960518D01*
X1964145D02*
X1970639D01*
X1993168D02*
X1994737D01*
X2030881D02*
X2032537D01*
X2050409D02*
X2052067D01*
X1936286Y1664337D02*
X1942782D01*
X1946409D02*
X1951111D01*
X1955904D02*
X1960518D01*
X1964145D02*
X1970639D01*
X1993168D02*
X1994737D01*
X2030881D02*
X2032537D01*
X2050409D02*
X2052067D01*
X1936286Y1664426D02*
X1942782D01*
X1946409D02*
X1951111D01*
X1955814D02*
X1960518D01*
X1964145D02*
X1970639D01*
X1993168D02*
X1994737D01*
X2030881D02*
X2032537D01*
X2050409D02*
X2052067D01*
X1936286Y1664516D02*
X1942782D01*
X1946409D02*
X1951200D01*
X1955814D02*
X1960518D01*
X1964145D02*
X1970639D01*
X1993168D02*
X1994737D01*
X2030881D02*
X2032537D01*
X2050409D02*
X2052067D01*
X1936286Y1664605D02*
X1942782D01*
X1946409D02*
X1951200D01*
X1955725D02*
X1960518D01*
X1964145D02*
X1970639D01*
X1979821D02*
X1980405D01*
X1993168D02*
X1994737D01*
X2030881D02*
X2032537D01*
X2050409D02*
X2052067D01*
X1936286Y1664695D02*
X1942782D01*
X1946409D02*
X1951292D01*
X1955635D02*
X1960518D01*
X1964145D02*
X1970639D01*
X1979553D02*
X1980584D01*
X1993168D02*
X1994737D01*
X2030881D02*
X2032537D01*
X2050409D02*
X2052067D01*
X1936286Y1664784D02*
X1942782D01*
X1946409D02*
X1951381D01*
X1955635D02*
X1960518D01*
X1964145D02*
X1970639D01*
X1979463D02*
X1980763D01*
X1993168D02*
X1994737D01*
X2030881D02*
X2032537D01*
X2050409D02*
X2052067D01*
X1936286Y1664874D02*
X1942782D01*
X1946409D02*
X1951381D01*
X1955546D02*
X1960518D01*
X1964145D02*
X1970639D01*
X1979373D02*
X1980852D01*
X1993168D02*
X1994737D01*
X2030881D02*
X2032537D01*
X2050409D02*
X2052067D01*
X1936286Y1664964D02*
X1942782D01*
X1946409D02*
X1951469D01*
X1955546D02*
X1960518D01*
X1964145D02*
X1970639D01*
X1979284D02*
X1980942D01*
X1993168D02*
X1994737D01*
X2030881D02*
X2032537D01*
X2050409D02*
X2052067D01*
X1936286Y1665053D02*
X1942782D01*
X1946409D02*
X1951469D01*
X1955456D02*
X1960518D01*
X1964145D02*
X1970728D01*
X1979194D02*
X1980942D01*
X1993168D02*
X1994737D01*
X2030881D02*
X2032537D01*
X2050409D02*
X2052067D01*
X1936286Y1665143D02*
X1942782D01*
X1946409D02*
X1951559D01*
X1955456D02*
X1960518D01*
X1964145D02*
X1970728D01*
X1979194D02*
X1981032D01*
X1993168D02*
X1994737D01*
X2030881D02*
X2032537D01*
X2050409D02*
X2052067D01*
X1936286Y1665232D02*
X1942782D01*
X1946409D02*
X1951559D01*
X1955367D02*
X1960518D01*
X1964145D02*
X1970728D01*
X1979105D02*
X1981032D01*
X1993168D02*
X1994737D01*
X2030881D02*
X2032537D01*
X2050409D02*
X2052067D01*
X1936286Y1665322D02*
X1942782D01*
X1946409D02*
X1951648D01*
X1955367D02*
X1960518D01*
X1964145D02*
X1970728D01*
X1979105D02*
X1981121D01*
X1993168D02*
X1994737D01*
X2030881D02*
X2032537D01*
X2050409D02*
X2052067D01*
X1936286Y1665412D02*
X1942782D01*
X1946409D02*
X1951648D01*
X1955456D02*
X1960518D01*
X1964145D02*
X1970728D01*
X1979105D02*
X1981121D01*
X1993168D02*
X1994737D01*
X2030881D02*
X2032537D01*
X2050409D02*
X2052067D01*
X1936286Y1665501D02*
X1942782D01*
X1946409D02*
X1951738D01*
X1955546D02*
X1960518D01*
X1964145D02*
X1970728D01*
X1979015D02*
X1981121D01*
X1993168D02*
X1994737D01*
X2030881D02*
X2032537D01*
X2050409D02*
X2052067D01*
X1936286Y1665591D02*
X1942782D01*
X1946409D02*
X1951827D01*
X1955546D02*
X1960518D01*
X1964145D02*
X1970728D01*
X1979015D02*
X1981121D01*
X1993168D02*
X1994737D01*
X2030881D02*
X2032537D01*
X2050409D02*
X2052067D01*
X1936286Y1665680D02*
X1942782D01*
X1946409D02*
X1951827D01*
X1955635D02*
X1960518D01*
X1964145D02*
X1970728D01*
X1979015D02*
X1981121D01*
X2050409D02*
X2052067D01*
X1936286Y1665770D02*
X1942782D01*
X1946409D02*
X1951919D01*
X1955635D02*
X1960518D01*
X1964145D02*
X1970728D01*
X1979105D02*
X1981121D01*
X2050409D02*
X2052067D01*
X1936286Y1665859D02*
X1942782D01*
X1946409D02*
X1951919D01*
X1955725D02*
X1960518D01*
X1964145D02*
X1970728D01*
X1979105D02*
X1981121D01*
X2050409D02*
X2052067D01*
X1936286Y1665949D02*
X1942782D01*
X1946409D02*
X1952006D01*
X1955725D02*
X1960518D01*
X1964145D02*
X1970728D01*
X1979105D02*
X1981121D01*
X2050409D02*
X2052067D01*
X1936286Y1666039D02*
X1942782D01*
X1946409D02*
X1952006D01*
X1955814D02*
X1960518D01*
X1964145D02*
X1970728D01*
X1979105D02*
X1981032D01*
X2050409D02*
X2052067D01*
X1936286Y1666128D02*
X1942782D01*
X1946409D02*
X1952096D01*
X1955814D02*
X1960518D01*
X1964145D02*
X1970728D01*
X1979194D02*
X1981032D01*
X2050409D02*
X2052067D01*
X1936286Y1666218D02*
X1942782D01*
X1946409D02*
X1952096D01*
X1955904D02*
X1960518D01*
X1964145D02*
X1970728D01*
X1979194D02*
X1980942D01*
X2050409D02*
X2052067D01*
X1936286Y1666307D02*
X1942782D01*
X1946409D02*
X1952187D01*
X1955994D02*
X1960518D01*
X1964145D02*
X1970728D01*
X1979284D02*
X1980942D01*
X2050409D02*
X2052067D01*
X1936286Y1666397D02*
X1942782D01*
X1946409D02*
X1952275D01*
X1955994D02*
X1960518D01*
X1964145D02*
X1970728D01*
X1979373D02*
X1980852D01*
X2050409D02*
X2052067D01*
X1936286Y1666486D02*
X1942782D01*
X1946409D02*
X1952275D01*
X1956083D02*
X1960518D01*
X1964145D02*
X1970728D01*
X1979463D02*
X1980763D01*
X2050409D02*
X2052067D01*
X1936286Y1666576D02*
X1942782D01*
X1946409D02*
X1952365D01*
X1956083D02*
X1960518D01*
X1964145D02*
X1970728D01*
X1979642D02*
X1980584D01*
X2050409D02*
X2052067D01*
X1936286Y1666666D02*
X1942782D01*
X1946409D02*
X1952365D01*
X1956173D02*
X1960518D01*
X1964145D02*
X1970728D01*
X1979821D02*
X1980315D01*
X2050409D02*
X2052067D01*
X1936286Y1666755D02*
X1942782D01*
X1946409D02*
X1952454D01*
X1956173D02*
X1960518D01*
X1964145D02*
X1970728D01*
X2050409D02*
X2052067D01*
X1936286Y1666845D02*
X1942782D01*
X1946409D02*
X1952454D01*
X1956262D02*
X1960518D01*
X1964145D02*
X1970728D01*
X2050409D02*
X2052067D01*
X1936286Y1666934D02*
X1942782D01*
X1946409D02*
X1950663D01*
X1950798D02*
X1952546D01*
X1956262D02*
X1960518D01*
X1964145D02*
X1970728D01*
X2050409D02*
X2052067D01*
X1936286Y1667024D02*
X1942782D01*
X1946409D02*
X1950573D01*
X1950798D02*
X1952546D01*
X1956352D02*
X1960518D01*
X1964145D02*
X1970639D01*
X1936286Y1667114D02*
X1942782D01*
X1946409D02*
X1950573D01*
X1950888D02*
X1952635D01*
X1956441D02*
X1960518D01*
X1964145D02*
X1970639D01*
X1936286Y1667203D02*
X1942782D01*
X1946409D02*
X1950484D01*
X1950888D02*
X1952725D01*
X1956441D02*
X1960518D01*
X1964145D02*
X1970639D01*
X1936286Y1667293D02*
X1942782D01*
X1946409D02*
X1950484D01*
X1950977D02*
X1952725D01*
X1956531D02*
X1960518D01*
X1964145D02*
X1970639D01*
X1936286Y1667382D02*
X1942782D01*
X1946409D02*
X1950394D01*
X1950977D02*
X1952813D01*
X1956531D02*
X1960518D01*
X1964145D02*
X1970639D01*
X1936286Y1667472D02*
X1942782D01*
X1946409D02*
X1950394D01*
X1951067D02*
X1952813D01*
X1956621D02*
X1960518D01*
X1964145D02*
X1970639D01*
X1936286Y1667561D02*
X1942782D01*
X1946409D02*
X1950304D01*
X1951067D02*
X1952904D01*
X1956621D02*
X1960518D01*
X1964145D02*
X1970639D01*
X1936286Y1667651D02*
X1942782D01*
X1946409D02*
X1950304D01*
X1951156D02*
X1952904D01*
X1956710D02*
X1960518D01*
X1964145D02*
X1970639D01*
X1936286Y1667741D02*
X1942782D01*
X1946409D02*
X1950217D01*
X1951246D02*
X1952994D01*
X1956710D02*
X1960518D01*
X1964145D02*
X1970639D01*
X1936376Y1667830D02*
X1942782D01*
X1946409D02*
X1950127D01*
X1951246D02*
X1952994D01*
X1956800D02*
X1960518D01*
X1964145D02*
X1970639D01*
X1936376Y1667920D02*
X1942782D01*
X1946409D02*
X1950127D01*
X1951335D02*
X1953081D01*
X1956889D02*
X1960518D01*
X1964145D02*
X1970639D01*
X1936376Y1668009D02*
X1942782D01*
X1946409D02*
X1950038D01*
X1951335D02*
X1953173D01*
X1956889D02*
X1960518D01*
X1964145D02*
X1970639D01*
X1936376Y1668099D02*
X1942782D01*
X1946409D02*
X1950038D01*
X1951425D02*
X1953173D01*
X1956979D02*
X1960518D01*
X1964145D02*
X1970549D01*
X1936376Y1668188D02*
X1942782D01*
X1946409D02*
X1949946D01*
X1951425D02*
X1953262D01*
X1956979D02*
X1960518D01*
X1964145D02*
X1970549D01*
X1936376Y1668278D02*
X1942782D01*
X1946409D02*
X1949946D01*
X1951515D02*
X1953262D01*
X1957068D02*
X1960518D01*
X1964145D02*
X1970549D01*
X1936376Y1668368D02*
X1942782D01*
X1946409D02*
X1949857D01*
X1951515D02*
X1953352D01*
X1957068D02*
X1960518D01*
X1964145D02*
X1970549D01*
X1936376Y1668457D02*
X1942782D01*
X1946409D02*
X1949857D01*
X1951604D02*
X1953352D01*
X1957158D02*
X1960518D01*
X1964145D02*
X1970549D01*
X1936466Y1668547D02*
X1942782D01*
X1946409D02*
X1949767D01*
X1951604D02*
X1953441D01*
X1957158D02*
X1960518D01*
X1964145D02*
X1970549D01*
X1936466Y1668636D02*
X1942782D01*
X1946409D02*
X1949677D01*
X1951694D02*
X1953441D01*
X1957248D02*
X1960518D01*
X1964145D02*
X1970549D01*
X1936466Y1668726D02*
X1942782D01*
X1946409D02*
X1949677D01*
X1951783D02*
X1953531D01*
X1957337D02*
X1960518D01*
X1964145D02*
X1970459D01*
X1995318D02*
X1996349D01*
X1936466Y1668816D02*
X1942782D01*
X1946409D02*
X1949588D01*
X1951783D02*
X1953619D01*
X1957337D02*
X1960518D01*
X1964145D02*
X1970459D01*
X1994870D02*
X1996797D01*
X1936466Y1668905D02*
X1942782D01*
X1946409D02*
X1949588D01*
X1951873D02*
X1953619D01*
X1957427D02*
X1960518D01*
X1964145D02*
X1970459D01*
X1979284D02*
X1980942D01*
X1984569D02*
X1986138D01*
X1989764D02*
X1991421D01*
X1994602D02*
X1997156D01*
X1998991D02*
X2000291D01*
X2001499D02*
X2003247D01*
X2007501D02*
X2009338D01*
X2010636D02*
X2012294D01*
X2014667D02*
X2016325D01*
X2019952D02*
X2021610D01*
X2025237D02*
X2026804D01*
X1936466Y1668995D02*
X1942782D01*
X1946409D02*
X1949498D01*
X1951873D02*
X1953708D01*
X1957427D02*
X1960518D01*
X1964145D02*
X1970459D01*
X1979284D02*
X1980942D01*
X1984569D02*
X1986138D01*
X1989764D02*
X1991421D01*
X1994423D02*
X1997335D01*
X1998901D02*
X2000291D01*
X2001499D02*
X2003336D01*
X2007411D02*
X2009338D01*
X2010636D02*
X2012294D01*
X2014667D02*
X2016325D01*
X2019952D02*
X2021610D01*
X2025237D02*
X2026804D01*
X1936555Y1669084D02*
X1942782D01*
X1946409D02*
X1949498D01*
X1951963D02*
X1953708D01*
X1957516D02*
X1960518D01*
X1964145D02*
X1970459D01*
X1979284D02*
X1980942D01*
X1984569D02*
X1986138D01*
X1989764D02*
X1991421D01*
X1994243D02*
X1997604D01*
X1998901D02*
X2000291D01*
X2001499D02*
X2003426D01*
X2007322D02*
X2009249D01*
X2010636D02*
X2012294D01*
X2014667D02*
X2016325D01*
X2019952D02*
X2021610D01*
X2025237D02*
X2026804D01*
X1936555Y1669174D02*
X1942782D01*
X1946409D02*
X1949409D01*
X1951963D02*
X1953800D01*
X1957516D02*
X1960518D01*
X1964145D02*
X1970459D01*
X1979284D02*
X1980942D01*
X1984569D02*
X1986138D01*
X1989764D02*
X1991421D01*
X1994154D02*
X1997693D01*
X1998901D02*
X2000291D01*
X2001589D02*
X2003426D01*
X2007322D02*
X2009249D01*
X2010636D02*
X2012294D01*
X2014667D02*
X2016325D01*
X2019952D02*
X2021610D01*
X2025237D02*
X2026804D01*
X1936555Y1669263D02*
X1942782D01*
X1946409D02*
X1949409D01*
X1952052D02*
X1953800D01*
X1957606D02*
X1960518D01*
X1964145D02*
X1970370D01*
X1979284D02*
X1980942D01*
X1984569D02*
X1986138D01*
X1989764D02*
X1991421D01*
X1994064D02*
X1997872D01*
X1998901D02*
X2000291D01*
X2001678D02*
X2003516D01*
X2007232D02*
X2009159D01*
X2010636D02*
X2012294D01*
X2014667D02*
X2016325D01*
X2019952D02*
X2021610D01*
X2025237D02*
X2026804D01*
X1936555Y1669353D02*
X1942782D01*
X1946409D02*
X1949319D01*
X1952052D02*
X1953889D01*
X1957606D02*
X1960518D01*
X1964145D02*
X1970370D01*
X1979284D02*
X1980942D01*
X1984569D02*
X1986138D01*
X1989764D02*
X1991421D01*
X1993885D02*
X1998051D01*
X1998901D02*
X2000291D01*
X2001768D02*
X2003605D01*
X2007143D02*
X2009070D01*
X2010636D02*
X2012294D01*
X2014667D02*
X2016325D01*
X2019952D02*
X2021610D01*
X2025237D02*
X2026804D01*
X1936555Y1669443D02*
X1942782D01*
X1946409D02*
X1949229D01*
X1952142D02*
X1953889D01*
X1957696D02*
X1960518D01*
X1964145D02*
X1970370D01*
X1979284D02*
X1980942D01*
X1984569D02*
X1986138D01*
X1989764D02*
X1991421D01*
X1993796D02*
X1998141D01*
X1998901D02*
X2000291D01*
X2001768D02*
X2003605D01*
X2007143D02*
X2009070D01*
X2010636D02*
X2012294D01*
X2014667D02*
X2016325D01*
X2019952D02*
X2021610D01*
X2025237D02*
X2026804D01*
X1936645Y1669532D02*
X1942782D01*
X1946409D02*
X1949229D01*
X1952231D02*
X1953979D01*
X1957785D02*
X1960518D01*
X1964145D02*
X1970370D01*
X1979284D02*
X1980942D01*
X1984569D02*
X1986138D01*
X1989764D02*
X1991421D01*
X1993796D02*
X1998320D01*
X1998812D02*
X2000291D01*
X2001858D02*
X2003695D01*
X2007053D02*
X2008980D01*
X2010636D02*
X2012294D01*
X2014667D02*
X2016325D01*
X2019952D02*
X2021610D01*
X2025237D02*
X2026804D01*
X1936645Y1669622D02*
X1942782D01*
X1946409D02*
X1949140D01*
X1952231D02*
X1954069D01*
X1957785D02*
X1960518D01*
X1964145D02*
X1970370D01*
X1979284D02*
X1980942D01*
X1984569D02*
X1986138D01*
X1989764D02*
X1991421D01*
X1993706D02*
X1998410D01*
X1998812D02*
X2000291D01*
X2001947D02*
X2003784D01*
X2006964D02*
X2008890D01*
X2010636D02*
X2012294D01*
X2014667D02*
X2016325D01*
X2019952D02*
X2021610D01*
X2025237D02*
X2026804D01*
X1936645Y1669711D02*
X1942782D01*
X1946409D02*
X1949140D01*
X1952321D02*
X1954069D01*
X1957875D02*
X1960518D01*
X1964145D02*
X1970280D01*
X1979284D02*
X1980942D01*
X1984569D02*
X1986138D01*
X1989764D02*
X1991421D01*
X1993616D02*
X1998499D01*
X1998812D02*
X2000291D01*
X2001947D02*
X2003784D01*
X2006964D02*
X2008890D01*
X2010636D02*
X2012294D01*
X2014667D02*
X2016325D01*
X2019952D02*
X2021610D01*
X2025237D02*
X2026804D01*
X1936645Y1669801D02*
X1942782D01*
X1946409D02*
X1949050D01*
X1952321D02*
X1954158D01*
X1957875D02*
X1960518D01*
X1964145D02*
X1970280D01*
X1979284D02*
X1980942D01*
X1984569D02*
X1986138D01*
X1989764D02*
X1991421D01*
X1993616D02*
X1998589D01*
X1998812D02*
X2000291D01*
X2002037D02*
X2003874D01*
X2006874D02*
X2008801D01*
X2010636D02*
X2012294D01*
X2014667D02*
X2016325D01*
X2019952D02*
X2021610D01*
X2025237D02*
X2026804D01*
X1936645Y1669890D02*
X1942782D01*
X1946409D02*
X1949050D01*
X1952410D02*
X1954158D01*
X1957964D02*
X1960518D01*
X1964145D02*
X1970280D01*
X1979284D02*
X1980942D01*
X1984569D02*
X1986138D01*
X1989764D02*
X1991421D01*
X1993527D02*
X1998678D01*
X1998812D02*
X2000291D01*
X2002126D02*
X2003964D01*
X2006784D02*
X2008711D01*
X2010636D02*
X2012294D01*
X2014667D02*
X2016325D01*
X2019952D02*
X2021610D01*
X2025237D02*
X2026804D01*
X1936734Y1669980D02*
X1942782D01*
X1946409D02*
X1948961D01*
X1952410D02*
X1954248D01*
X1957964D02*
X1960518D01*
X1964145D02*
X1970280D01*
X1979284D02*
X1980942D01*
X1984569D02*
X1986138D01*
X1989764D02*
X1991421D01*
X1993437D02*
X2000291D01*
X2002126D02*
X2003964D01*
X2006784D02*
X2008622D01*
X2010636D02*
X2012294D01*
X2014667D02*
X2016325D01*
X2019952D02*
X2021610D01*
X2025237D02*
X2026804D01*
X1936734Y1670070D02*
X1942782D01*
X1946409D02*
X1948961D01*
X1952500D02*
X1954248D01*
X1958054D02*
X1960518D01*
X1964145D02*
X1970191D01*
X1979284D02*
X1980942D01*
X1984569D02*
X1986138D01*
X1989764D02*
X1991421D01*
X1993437D02*
X2000291D01*
X2002216D02*
X2004053D01*
X2006695D02*
X2008622D01*
X2010636D02*
X2012294D01*
X2014667D02*
X2016325D01*
X2019952D02*
X2021610D01*
X2025237D02*
X2026804D01*
X1936734Y1670159D02*
X1942782D01*
X1946409D02*
X1948871D01*
X1952500D02*
X1954337D01*
X1958054D02*
X1960518D01*
X1964145D02*
X1970191D01*
X1979284D02*
X1980942D01*
X1984569D02*
X1986138D01*
X1989764D02*
X1991421D01*
X1993437D02*
X1995722D01*
X1996662D02*
X2000291D01*
X2002305D02*
X2004143D01*
X2006605D02*
X2008532D01*
X2010636D02*
X2012294D01*
X2014667D02*
X2016325D01*
X2019952D02*
X2021610D01*
X2025237D02*
X2026804D01*
X1936734Y1670249D02*
X1942782D01*
X1946409D02*
X1948782D01*
X1952590D02*
X1954337D01*
X1958143D02*
X1960518D01*
X1964145D02*
X1970191D01*
X1979284D02*
X1980942D01*
X1984569D02*
X1986138D01*
X1989764D02*
X1991421D01*
X1993348D02*
X1995454D01*
X1997020D02*
X2000291D01*
X2002305D02*
X2004143D01*
X2006605D02*
X2008442D01*
X2010636D02*
X2012294D01*
X2014667D02*
X2016325D01*
X2019952D02*
X2021610D01*
X2025237D02*
X2026804D01*
X1936824Y1670338D02*
X1942782D01*
X1946409D02*
X1948782D01*
X1952590D02*
X1954427D01*
X1958233D02*
X1960518D01*
X1964145D02*
X1970191D01*
X1979284D02*
X1980942D01*
X1984569D02*
X1986138D01*
X1989764D02*
X1991421D01*
X1993348D02*
X1995274D01*
X1997289D02*
X2000291D01*
X2002395D02*
X2004232D01*
X2006516D02*
X2008442D01*
X2010636D02*
X2012294D01*
X2014667D02*
X2016325D01*
X2019952D02*
X2021610D01*
X2025237D02*
X2026804D01*
X1936824Y1670428D02*
X1942782D01*
X1946409D02*
X1948692D01*
X1952500D02*
X1954516D01*
X1958233D02*
X1960518D01*
X1964145D02*
X1970103D01*
X1979284D02*
X1980942D01*
X1984569D02*
X1986138D01*
X1989764D02*
X1991421D01*
X1993348D02*
X1995185D01*
X1997468D02*
X2000291D01*
X2002485D02*
X2004322D01*
X2006426D02*
X2008353D01*
X2010636D02*
X2012294D01*
X2014667D02*
X2016325D01*
X2019952D02*
X2021610D01*
X2025237D02*
X2026804D01*
X1936824Y1670517D02*
X1942782D01*
X1946409D02*
X1948692D01*
X1952500D02*
X1954516D01*
X1958323D02*
X1960518D01*
X1964145D02*
X1970103D01*
X1979284D02*
X1980942D01*
X1984569D02*
X1986138D01*
X1989764D02*
X1991421D01*
X1993348D02*
X1995095D01*
X1997647D02*
X2000291D01*
X2002574D02*
X2004322D01*
X2006426D02*
X2008263D01*
X2010636D02*
X2012294D01*
X2014667D02*
X2016325D01*
X2019952D02*
X2021610D01*
X2025237D02*
X2026804D01*
X1936824Y1670607D02*
X1942782D01*
X1946409D02*
X1948602D01*
X1952410D02*
X1954606D01*
X1958323D02*
X1960518D01*
X1964145D02*
X1970103D01*
X1979284D02*
X1980942D01*
X1984569D02*
X1986138D01*
X1989764D02*
X1991421D01*
X1993258D02*
X1995095D01*
X1997737D02*
X2000291D01*
X2002574D02*
X2004411D01*
X2006336D02*
X2008263D01*
X2010636D02*
X2012294D01*
X2014667D02*
X2016325D01*
X2019952D02*
X2021610D01*
X2025237D02*
X2026804D01*
X1936913Y1670697D02*
X1942782D01*
X1946409D02*
X1948602D01*
X1952321D02*
X1954606D01*
X1958412D02*
X1960518D01*
X1964145D02*
X1970103D01*
X1979284D02*
X1980942D01*
X1984569D02*
X1986138D01*
X1989764D02*
X1991421D01*
X1993258D02*
X1995006D01*
X1997916D02*
X2000291D01*
X2002664D02*
X2004501D01*
X2006247D02*
X2008174D01*
X2010636D02*
X2012294D01*
X2014667D02*
X2016325D01*
X2019952D02*
X2021610D01*
X2025237D02*
X2026804D01*
X1936913Y1670786D02*
X1942782D01*
X1946409D02*
X1948513D01*
X1952321D02*
X1954696D01*
X1958412D02*
X1960518D01*
X1964145D02*
X1970013D01*
X1979284D02*
X1980942D01*
X1984569D02*
X1986138D01*
X1989764D02*
X1991421D01*
X1993258D02*
X1995006D01*
X1998006D02*
X2000291D01*
X2002753D02*
X2004501D01*
X2006247D02*
X2008084D01*
X2010636D02*
X2012294D01*
X2014667D02*
X2016325D01*
X2019952D02*
X2021610D01*
X2025237D02*
X2026804D01*
X1936913Y1670876D02*
X1942782D01*
X1946409D02*
X1948423D01*
X1952231D02*
X1954696D01*
X1958502D02*
X1960518D01*
X1964145D02*
X1970013D01*
X1979284D02*
X1980942D01*
X1984569D02*
X1986138D01*
X1989764D02*
X1991421D01*
X1993258D02*
X1994916D01*
X1998185D02*
X2000291D01*
X2002753D02*
X2004591D01*
X2006157D02*
X2007995D01*
X2010636D02*
X2012294D01*
X2014667D02*
X2016325D01*
X2019952D02*
X2021610D01*
X2025237D02*
X2026804D01*
X1937003Y1670965D02*
X1942782D01*
X1952231D02*
X1954783D01*
X1964145D02*
X1970013D01*
X1979284D02*
X1980942D01*
X1984569D02*
X1986138D01*
X1989764D02*
X1991421D01*
X1993258D02*
X1994916D01*
X1998274D02*
X2000291D01*
X2002843D02*
X2004680D01*
X2006068D02*
X2007995D01*
X2010636D02*
X2012294D01*
X2014667D02*
X2016325D01*
X2019952D02*
X2021610D01*
X2025237D02*
X2026804D01*
X1937003Y1671055D02*
X1942782D01*
X1952142D02*
X1954783D01*
X1964145D02*
X1969924D01*
X1979284D02*
X1980942D01*
X1984569D02*
X1986138D01*
X1989764D02*
X1991421D01*
X1993258D02*
X1994916D01*
X1998364D02*
X2000291D01*
X2002932D02*
X2004680D01*
X2005978D02*
X2007905D01*
X2010636D02*
X2012294D01*
X2014667D02*
X2016325D01*
X2019952D02*
X2021610D01*
X2025237D02*
X2026804D01*
X1937003Y1671145D02*
X1942782D01*
X1952142D02*
X1954873D01*
X1964145D02*
X1969924D01*
X1979284D02*
X1980942D01*
X1984569D02*
X1986138D01*
X1989764D02*
X1991421D01*
X1993258D02*
X1994916D01*
X1998454D02*
X2000291D01*
X2002932D02*
X2004770D01*
X2005978D02*
X2007815D01*
X2010636D02*
X2012294D01*
X2014667D02*
X2016325D01*
X2019952D02*
X2021610D01*
X2025237D02*
X2026804D01*
X1937093Y1671234D02*
X1942782D01*
X1952052D02*
X1954962D01*
X1964145D02*
X1969924D01*
X1979284D02*
X1980942D01*
X1984569D02*
X1986138D01*
X1989764D02*
X1991421D01*
X1993258D02*
X1994916D01*
X1998543D02*
X2000291D01*
X2003022D02*
X2004859D01*
X2005889D02*
X2007815D01*
X2010636D02*
X2012294D01*
X2014667D02*
X2016325D01*
X2019952D02*
X2021610D01*
X2025237D02*
X2026804D01*
X1937093Y1671324D02*
X1942782D01*
X1951963D02*
X1954962D01*
X1964145D02*
X1969924D01*
X1979284D02*
X1980942D01*
X1984569D02*
X1986138D01*
X1989764D02*
X1991421D01*
X1993258D02*
X1994916D01*
X1998633D02*
X2000291D01*
X2003112D02*
X2004859D01*
X2005799D02*
X2007726D01*
X2010636D02*
X2012294D01*
X2014667D02*
X2016325D01*
X2019952D02*
X2021610D01*
X2025237D02*
X2026804D01*
X1937093Y1671413D02*
X1942782D01*
X1951963D02*
X1955054D01*
X1964145D02*
X1969834D01*
X1979284D02*
X1980942D01*
X1984569D02*
X1986138D01*
X1989764D02*
X1991421D01*
X1993258D02*
X1994916D01*
X1998633D02*
X2000291D01*
X2003112D02*
X2004949D01*
X2005799D02*
X2007636D01*
X2010636D02*
X2012294D01*
X2014667D02*
X2016325D01*
X2019952D02*
X2021610D01*
X2025237D02*
X2026804D01*
X1937093Y1671503D02*
X1942782D01*
X1951873D02*
X1955054D01*
X1964145D02*
X1969834D01*
X1979284D02*
X1980942D01*
X1984569D02*
X1986138D01*
X1989764D02*
X1991421D01*
X1993258D02*
X1994916D01*
X1998633D02*
X2000291D01*
X2003201D02*
X2005038D01*
X2005709D02*
X2007547D01*
X2010636D02*
X2012294D01*
X2014667D02*
X2016325D01*
X2019952D02*
X2021610D01*
X2025237D02*
X2026804D01*
X1937182Y1671592D02*
X1942782D01*
X1951873D02*
X1955143D01*
X1964145D02*
X1969834D01*
X1979284D02*
X1980942D01*
X1984569D02*
X1986138D01*
X1989764D02*
X1991421D01*
X1993258D02*
X1994916D01*
X1998633D02*
X2000291D01*
X2003291D02*
X2005038D01*
X2005620D02*
X2007547D01*
X2010636D02*
X2012294D01*
X2014667D02*
X2016325D01*
X2019952D02*
X2021610D01*
X2025237D02*
X2026804D01*
X1937182Y1671682D02*
X1942782D01*
X1951783D02*
X1955143D01*
X1964145D02*
X1969745D01*
X1979284D02*
X1980942D01*
X1984569D02*
X1986138D01*
X1989764D02*
X1991421D01*
X1993258D02*
X1995006D01*
X1998633D02*
X2000291D01*
X2003380D02*
X2005128D01*
X2005620D02*
X2007457D01*
X2010636D02*
X2012294D01*
X2014667D02*
X2016325D01*
X2019952D02*
X2021610D01*
X2025237D02*
X2026804D01*
X1937272Y1671772D02*
X1942782D01*
X1951783D02*
X1955233D01*
X1964145D02*
X1969745D01*
X1979284D02*
X1980942D01*
X1984569D02*
X1986138D01*
X1989764D02*
X1991421D01*
X1993348D02*
X1995006D01*
X1998633D02*
X2000291D01*
X2003380D02*
X2005218D01*
X2005530D02*
X2007368D01*
X2010636D02*
X2012294D01*
X2014667D02*
X2016325D01*
X2019952D02*
X2021610D01*
X2025237D02*
X2026804D01*
X1937272Y1671861D02*
X1942782D01*
X1951694D02*
X1955233D01*
X1964145D02*
X1969655D01*
X1979284D02*
X1980942D01*
X1984569D02*
X1986138D01*
X1989764D02*
X1991421D01*
X1993348D02*
X1995095D01*
X1998633D02*
X2000291D01*
X2003470D02*
X2005218D01*
X2005441D02*
X2007368D01*
X2010636D02*
X2012294D01*
X2014667D02*
X2016325D01*
X2019952D02*
X2021610D01*
X2025237D02*
X2026804D01*
X1937272Y1671951D02*
X1942782D01*
X1951604D02*
X1955323D01*
X1964145D02*
X1969655D01*
X1979284D02*
X1980942D01*
X1984569D02*
X1986138D01*
X1989764D02*
X1991421D01*
X1993348D02*
X1995095D01*
X1998633D02*
X2000291D01*
X2003560D02*
X2005307D01*
X2005441D02*
X2007278D01*
X2010636D02*
X2012294D01*
X2014667D02*
X2016325D01*
X2019952D02*
X2021610D01*
X2025237D02*
X2026804D01*
X1937361Y1672040D02*
X1942782D01*
X1951604D02*
X1955412D01*
X1964145D02*
X1969655D01*
X1979284D02*
X1980942D01*
X1984569D02*
X1986138D01*
X1989764D02*
X1991421D01*
X1993348D02*
X1995185D01*
X1998633D02*
X2000291D01*
X2003560D02*
X2007188D01*
X2010636D02*
X2012294D01*
X2014667D02*
X2016325D01*
X2019952D02*
X2021610D01*
X2025237D02*
X2026804D01*
X1937361Y1672130D02*
X1942782D01*
X1951515D02*
X1955412D01*
X1964145D02*
X1969566D01*
X1979284D02*
X1980942D01*
X1984569D02*
X1986138D01*
X1989764D02*
X1991421D01*
X1993437D02*
X1995274D01*
X1998633D02*
X2000291D01*
X2003649D02*
X2007188D01*
X2010636D02*
X2012294D01*
X2014667D02*
X2016325D01*
X2019952D02*
X2021610D01*
X2025237D02*
X2026804D01*
X1937361Y1672219D02*
X1942782D01*
X1951515D02*
X1955502D01*
X1964145D02*
X1969566D01*
X1979284D02*
X1980942D01*
X1984569D02*
X1986138D01*
X1989764D02*
X1991421D01*
X1993437D02*
X1995364D01*
X1998633D02*
X2000291D01*
X2003739D02*
X2007099D01*
X2010636D02*
X2012294D01*
X2014667D02*
X2016325D01*
X2019952D02*
X2021610D01*
X2025237D02*
X2026804D01*
X1937451Y1672309D02*
X1942782D01*
X1951425D02*
X1955502D01*
X1964145D02*
X1969566D01*
X1979284D02*
X1980942D01*
X1984569D02*
X1986138D01*
X1989764D02*
X1991421D01*
X1993437D02*
X1995454D01*
X1998633D02*
X2000291D01*
X2003739D02*
X2007009D01*
X2010636D02*
X2012294D01*
X2014667D02*
X2016325D01*
X2019952D02*
X2021610D01*
X2025237D02*
X2026804D01*
X1937451Y1672399D02*
X1942782D01*
X1951425D02*
X1955591D01*
X1964145D02*
X1969476D01*
X1979284D02*
X1980942D01*
X1984569D02*
X1986138D01*
X1989764D02*
X1991421D01*
X1993527D02*
X1995633D01*
X1998633D02*
X2000291D01*
X2003828D02*
X2006920D01*
X2010636D02*
X2012294D01*
X2014667D02*
X2016325D01*
X2019952D02*
X2021610D01*
X2025237D02*
X2026804D01*
X1937540Y1672488D02*
X1942782D01*
X1951335D02*
X1955591D01*
X1964145D02*
X1969476D01*
X1979284D02*
X1980942D01*
X1984569D02*
X1986138D01*
X1989764D02*
X1991421D01*
X1993527D02*
X1995722D01*
X1998633D02*
X2000291D01*
X2003918D02*
X2006920D01*
X2010636D02*
X2012294D01*
X2014667D02*
X2016325D01*
X2019952D02*
X2021610D01*
X2025237D02*
X2026804D01*
X1937540Y1672578D02*
X1942782D01*
X1951335D02*
X1955681D01*
X1964145D02*
X1969386D01*
X1979284D02*
X1980942D01*
X1984569D02*
X1986138D01*
X1989764D02*
X1991421D01*
X1993616D02*
X1995902D01*
X1998633D02*
X2000291D01*
X2003918D02*
X2006830D01*
X2010636D02*
X2012294D01*
X2014667D02*
X2016325D01*
X2019952D02*
X2021610D01*
X2025237D02*
X2026804D01*
X1937540Y1672667D02*
X1942782D01*
X1951246D02*
X1955681D01*
X1964145D02*
X1969386D01*
X1979284D02*
X1980942D01*
X1984569D02*
X1986138D01*
X1989764D02*
X1991421D01*
X1993706D02*
X1996081D01*
X1998633D02*
X2000291D01*
X2004007D02*
X2006740D01*
X2010636D02*
X2012294D01*
X2014667D02*
X2016325D01*
X2019952D02*
X2021610D01*
X2025237D02*
X2026804D01*
X1937630Y1672757D02*
X1942871D01*
X1951156D02*
X1955771D01*
X1964145D02*
X1969386D01*
X1979284D02*
X1980942D01*
X1984569D02*
X1986138D01*
X1989764D02*
X1991421D01*
X1993706D02*
X1996349D01*
X1998633D02*
X2000291D01*
X2004097D02*
X2006740D01*
X2010636D02*
X2012294D01*
X2014667D02*
X2016325D01*
X2019952D02*
X2021610D01*
X2025237D02*
X2026804D01*
X1937630Y1672847D02*
X1942871D01*
X1951156D02*
X1955860D01*
X1964145D02*
X1969297D01*
X1979284D02*
X1980942D01*
X1984569D02*
X1986138D01*
X1989764D02*
X1991421D01*
X1993796D02*
X1996618D01*
X1998633D02*
X2000291D01*
X2004187D02*
X2006651D01*
X2010636D02*
X2012294D01*
X2014667D02*
X2016325D01*
X2019952D02*
X2021610D01*
X2025237D02*
X2026804D01*
X1937720Y1672936D02*
X1942871D01*
X1951067D02*
X1955860D01*
X1964056D02*
X1969297D01*
X1979284D02*
X1980942D01*
X1984569D02*
X1986138D01*
X1989764D02*
X1991421D01*
X1993885D02*
X1996976D01*
X1998633D02*
X2000291D01*
X2004187D02*
X2006561D01*
X2010636D02*
X2012294D01*
X2014667D02*
X2016325D01*
X2019952D02*
X2021610D01*
X2025237D02*
X2026804D01*
X1937720Y1673026D02*
X1942871D01*
X1951067D02*
X1955950D01*
X1964056D02*
X1969207D01*
X1979284D02*
X1980942D01*
X1984569D02*
X1986138D01*
X1989764D02*
X1991421D01*
X1993975D02*
X1997335D01*
X1998633D02*
X2000291D01*
X2004276D02*
X2006561D01*
X2010636D02*
X2012294D01*
X2014667D02*
X2016325D01*
X2019952D02*
X2021610D01*
X2025237D02*
X2026804D01*
X1937809Y1673115D02*
X1942961D01*
X1950977D02*
X1955950D01*
X1964056D02*
X1969207D01*
X1979284D02*
X1980942D01*
X1984569D02*
X1986138D01*
X1989764D02*
X1991421D01*
X1994064D02*
X1997872D01*
X1998633D02*
X2000291D01*
X2004366D02*
X2006472D01*
X2010636D02*
X2012294D01*
X2014667D02*
X2016325D01*
X2019952D02*
X2021610D01*
X2025237D02*
X2026804D01*
X1937809Y1673205D02*
X1942961D01*
X1950977D02*
X1956039D01*
X1963966D02*
X1969118D01*
X1979284D02*
X1980942D01*
X1984569D02*
X1986138D01*
X1989764D02*
X1991421D01*
X1994154D02*
X2000291D01*
X2004366D02*
X2006382D01*
X2010636D02*
X2012294D01*
X2014667D02*
X2016325D01*
X2019952D02*
X2021610D01*
X2025237D02*
X2026804D01*
X1937809Y1673294D02*
X1943050D01*
X1950888D02*
X1956039D01*
X1963876D02*
X1969118D01*
X1979284D02*
X1980942D01*
X1984569D02*
X1986138D01*
X1989764D02*
X1991421D01*
X1994333D02*
X2000291D01*
X2004455D02*
X2006293D01*
X2010636D02*
X2012294D01*
X2014667D02*
X2016325D01*
X2019952D02*
X2021610D01*
X2025237D02*
X2026804D01*
X1937899Y1673384D02*
X1943140D01*
X1950798D02*
X1956129D01*
X1963876D02*
X1969028D01*
X1979284D02*
X1980942D01*
X1984569D02*
X1986138D01*
X1989764D02*
X1991421D01*
X1994423D02*
X2000291D01*
X2004366D02*
X2006293D01*
X2010636D02*
X2012294D01*
X2014667D02*
X2016325D01*
X2019952D02*
X2021610D01*
X2025237D02*
X2026804D01*
X1937899Y1673474D02*
X1943140D01*
X1950798D02*
X1956218D01*
X1963787D02*
X1969028D01*
X1979284D02*
X1980942D01*
X1984569D02*
X1986138D01*
X1989764D02*
X1991421D01*
X1994602D02*
X2000291D01*
X2004366D02*
X2006382D01*
X2010636D02*
X2012294D01*
X2014667D02*
X2016325D01*
X2019952D02*
X2021610D01*
X2025237D02*
X2026804D01*
X1937988Y1673563D02*
X1943230D01*
X1950708D02*
X1956218D01*
X1963697D02*
X1968939D01*
X1979284D02*
X1980942D01*
X1984569D02*
X1986138D01*
X1989764D02*
X1991421D01*
X1994691D02*
X2000291D01*
X2004276D02*
X2006472D01*
X2010636D02*
X2012294D01*
X2014667D02*
X2016325D01*
X2019952D02*
X2021610D01*
X2025237D02*
X2026804D01*
X1937988Y1673653D02*
X1943319D01*
X1950619D02*
X1956308D01*
X1963608D02*
X1968939D01*
X1979284D02*
X1980942D01*
X1984569D02*
X1986138D01*
X1989764D02*
X1991421D01*
X1994870D02*
X2000291D01*
X2004187D02*
X2006472D01*
X2010636D02*
X2012294D01*
X2014667D02*
X2016325D01*
X2019952D02*
X2021610D01*
X2025237D02*
X2026804D01*
X1938078Y1673742D02*
X1943409D01*
X1950529D02*
X1956398D01*
X1963518D02*
X1968849D01*
X1979284D02*
X1980942D01*
X1984569D02*
X1986138D01*
X1989764D02*
X1991421D01*
X1995139D02*
X2000291D01*
X2004097D02*
X2006561D01*
X2010636D02*
X2012294D01*
X2014667D02*
X2016325D01*
X2019952D02*
X2021610D01*
X2025237D02*
X2026804D01*
X1938078Y1673832D02*
X1943498D01*
X1950440D02*
X1956577D01*
X1963429D02*
X1968849D01*
X1979284D02*
X1980942D01*
X1984569D02*
X1986138D01*
X1989764D02*
X1991421D01*
X1995318D02*
X2000291D01*
X2004097D02*
X2006651D01*
X2010636D02*
X2012294D01*
X2014667D02*
X2016325D01*
X2019952D02*
X2021610D01*
X2025237D02*
X2026804D01*
X1938167Y1673921D02*
X1943677D01*
X1950261D02*
X1956666D01*
X1963249D02*
X1968759D01*
X1979284D02*
X1980942D01*
X1984569D02*
X1986138D01*
X1989764D02*
X1991421D01*
X1995587D02*
X2000291D01*
X2004007D02*
X2006651D01*
X2010636D02*
X2012294D01*
X2014667D02*
X2016325D01*
X2019952D02*
X2021610D01*
X2025237D02*
X2026804D01*
X1938167Y1674011D02*
X1943855D01*
X1950081D02*
X1956845D01*
X1963070D02*
X1968759D01*
X1979284D02*
X1980942D01*
X1984569D02*
X1986138D01*
X1989764D02*
X1991421D01*
X1995856D02*
X2000291D01*
X2003918D02*
X2006740D01*
X2010636D02*
X2012294D01*
X2014667D02*
X2016325D01*
X2019952D02*
X2021610D01*
X2025237D02*
X2026804D01*
X1938257Y1674101D02*
X1944124D01*
X1949813D02*
X1957112D01*
X1962891D02*
X1968670D01*
X1979284D02*
X1980942D01*
X1984569D02*
X1986138D01*
X1989764D02*
X1991421D01*
X1996125D02*
X2000291D01*
X2003918D02*
X2006830D01*
X2010636D02*
X2012294D01*
X2014667D02*
X2016325D01*
X2019952D02*
X2021610D01*
X2025237D02*
X2026804D01*
X1938347Y1674190D02*
X1968670D01*
X1979284D02*
X1980942D01*
X1984569D02*
X1986138D01*
X1989764D02*
X1991421D01*
X1996572D02*
X2000291D01*
X2003828D02*
X2006920D01*
X2010636D02*
X2012294D01*
X2014667D02*
X2016325D01*
X2019952D02*
X2021610D01*
X2025237D02*
X2026804D01*
X1938347Y1674280D02*
X1968580D01*
X1979284D02*
X1980942D01*
X1984569D02*
X1986138D01*
X1989764D02*
X1991421D01*
X1996931D02*
X2000291D01*
X2003739D02*
X2006920D01*
X2010636D02*
X2012294D01*
X2014667D02*
X2016325D01*
X2019952D02*
X2021610D01*
X2025237D02*
X2026804D01*
X1938436Y1674369D02*
X1968580D01*
X1979284D02*
X1980942D01*
X1984569D02*
X1986138D01*
X1989764D02*
X1991421D01*
X1997468D02*
X2000291D01*
X2003739D02*
X2007009D01*
X2010636D02*
X2012294D01*
X2014667D02*
X2016325D01*
X2019952D02*
X2021610D01*
X2025237D02*
X2026804D01*
X1938436Y1674459D02*
X1968491D01*
X1979284D02*
X1980942D01*
X1984569D02*
X1986138D01*
X1989764D02*
X1991421D01*
X1998095D02*
X2000291D01*
X2003649D02*
X2007099D01*
X2010636D02*
X2012294D01*
X2014667D02*
X2016325D01*
X2019952D02*
X2021610D01*
X2025237D02*
X2026804D01*
X1938526Y1674549D02*
X1968491D01*
X1979284D02*
X1980942D01*
X1984569D02*
X1986138D01*
X1989764D02*
X1991421D01*
X1998633D02*
X2000291D01*
X2003560D02*
X2007099D01*
X2010636D02*
X2012294D01*
X2014667D02*
X2016325D01*
X2019952D02*
X2021610D01*
X2025237D02*
X2026804D01*
X1938526Y1674638D02*
X1968401D01*
X1979284D02*
X1980942D01*
X1984569D02*
X1986138D01*
X1989764D02*
X1991421D01*
X1998633D02*
X2000291D01*
X2003470D02*
X2007188D01*
X2010636D02*
X2012294D01*
X2014667D02*
X2016325D01*
X2019952D02*
X2021610D01*
X2025237D02*
X2026804D01*
X1938615Y1674728D02*
X1968311D01*
X1979284D02*
X1980942D01*
X1984569D02*
X1986138D01*
X1989764D02*
X1991421D01*
X1998633D02*
X2000291D01*
X2003470D02*
X2005307D01*
X2005441D02*
X2007278D01*
X2010636D02*
X2012294D01*
X2014667D02*
X2016325D01*
X2019952D02*
X2021610D01*
X2025237D02*
X2026804D01*
X1938615Y1674817D02*
X1968311D01*
X1979284D02*
X1980942D01*
X1984569D02*
X1986227D01*
X1989764D02*
X1991421D01*
X1998633D02*
X2000291D01*
X2003380D02*
X2005218D01*
X2005530D02*
X2007278D01*
X2010636D02*
X2012294D01*
X2014667D02*
X2016325D01*
X2019952D02*
X2021610D01*
X2025237D02*
X2026804D01*
X1938705Y1674907D02*
X1968222D01*
X1979284D02*
X1981032D01*
X1984569D02*
X1986317D01*
X1989764D02*
X1991421D01*
X1998633D02*
X2000291D01*
X2003291D02*
X2005218D01*
X2005530D02*
X2007368D01*
X2010636D02*
X2012294D01*
X2014667D02*
X2016415D01*
X2019952D02*
X2021700D01*
X2025237D02*
X2026804D01*
X1938795Y1674996D02*
X1968222D01*
X1979284D02*
X1981121D01*
X1984569D02*
X1986406D01*
X1989764D02*
X1991421D01*
X1998633D02*
X2000291D01*
X2003291D02*
X2005128D01*
X2005620D02*
X2007457D01*
X2010636D02*
X2012294D01*
X2014667D02*
X2016504D01*
X2019952D02*
X2021790D01*
X2025237D02*
X2026804D01*
X1938795Y1675086D02*
X1968132D01*
X1979284D02*
X1981211D01*
X1984479D02*
X1986496D01*
X1989764D02*
X1991421D01*
X1998633D02*
X2000291D01*
X2003201D02*
X2005038D01*
X2005709D02*
X2007457D01*
X2010636D02*
X2012294D01*
X2014667D02*
X2016594D01*
X2019952D02*
X2021879D01*
X2025148D02*
X2026804D01*
X1938884Y1675176D02*
X1968043D01*
X1979284D02*
X1981300D01*
X1984479D02*
X1986585D01*
X1989764D02*
X1991421D01*
X1998633D02*
X2000291D01*
X2003112D02*
X2005038D01*
X2005709D02*
X2007547D01*
X2010636D02*
X2012294D01*
X2014667D02*
X2016684D01*
X2019863D02*
X2021969D01*
X2025148D02*
X2026804D01*
X1938974Y1675265D02*
X1968043D01*
X1979284D02*
X1981390D01*
X1984479D02*
X1986675D01*
X1989764D02*
X1991421D01*
X1998633D02*
X2000291D01*
X2003112D02*
X2004949D01*
X2005799D02*
X2007636D01*
X2010636D02*
X2012294D01*
X2014667D02*
X2016773D01*
X2019863D02*
X2022058D01*
X2025148D02*
X2026804D01*
X1938974Y1675355D02*
X1967953D01*
X1979284D02*
X1981479D01*
X1984479D02*
X1986765D01*
X1989764D02*
X1991421D01*
X1998543D02*
X2000291D01*
X2003022D02*
X2004859D01*
X2005889D02*
X2007726D01*
X2010636D02*
X2012294D01*
X2014667D02*
X2016863D01*
X2019863D02*
X2022148D01*
X2025148D02*
X2026804D01*
X1939063Y1675444D02*
X1967864D01*
X1979284D02*
X1981569D01*
X1984390D02*
X1986854D01*
X1989675D02*
X1991421D01*
X1998543D02*
X2000291D01*
X2002932D02*
X2004859D01*
X2005889D02*
X2007726D01*
X2010636D02*
X2012294D01*
X2014667D02*
X2017042D01*
X2019863D02*
X2022237D01*
X2025058D02*
X2026804D01*
X1939153Y1675534D02*
X1967864D01*
X1979284D02*
X1981748D01*
X1984390D02*
X1987033D01*
X1989675D02*
X1991421D01*
X1994064D02*
X1994200D01*
X1998543D02*
X2000291D01*
X2002843D02*
X2004770D01*
X2005978D02*
X2007815D01*
X2010636D02*
X2012294D01*
X2014667D02*
X2017132D01*
X2019773D02*
X2022417D01*
X2025058D02*
X2026804D01*
X1939153Y1675623D02*
X1967774D01*
X1979284D02*
X1981838D01*
X1984390D02*
X1987123D01*
X1989585D02*
X1991421D01*
X1994064D02*
X1994379D01*
X1998454D02*
X2000201D01*
X2002843D02*
X2004680D01*
X2006068D02*
X2007905D01*
X2010636D02*
X2012294D01*
X2014667D02*
X2017221D01*
X2019773D02*
X2022506D01*
X2025058D02*
X2026804D01*
X1939242Y1675713D02*
X1967684D01*
X1979284D02*
X1982017D01*
X1984300D02*
X1987212D01*
X1989585D02*
X1991421D01*
X1994064D02*
X1994647D01*
X1998364D02*
X2000201D01*
X2002753D02*
X2004680D01*
X2006068D02*
X2007905D01*
X2010636D02*
X2012294D01*
X2014667D02*
X2017400D01*
X2019684D02*
X2022685D01*
X2024969D02*
X2026804D01*
X1939332Y1675803D02*
X1967684D01*
X1979284D02*
X1982106D01*
X1984211D02*
X1987392D01*
X1989496D02*
X1991421D01*
X1993975D02*
X1994827D01*
X1998364D02*
X2000201D01*
X2002664D02*
X2004591D01*
X2006157D02*
X2007995D01*
X2010636D02*
X2012294D01*
X2014667D02*
X2017490D01*
X2019594D02*
X2022775D01*
X2024879D02*
X2026804D01*
X1939332Y1675892D02*
X1967595D01*
X1979284D02*
X1982286D01*
X1984121D02*
X1987571D01*
X1989406D02*
X1991421D01*
X1993975D02*
X1995095D01*
X1998274D02*
X2000201D01*
X2002664D02*
X2004501D01*
X2006247D02*
X2008084D01*
X2010636D02*
X2012294D01*
X2014667D02*
X2017669D01*
X2019504D02*
X2022952D01*
X2024790D02*
X2026804D01*
X1939422Y1675982D02*
X1967505D01*
X1979284D02*
X1982465D01*
X1984032D02*
X1987748D01*
X1989317D02*
X1991331D01*
X1993975D02*
X1995364D01*
X1998095D02*
X2000201D01*
X2002574D02*
X2004501D01*
X2006247D02*
X2008084D01*
X2010636D02*
X2012294D01*
X2014667D02*
X2017848D01*
X2019415D02*
X2023131D01*
X2024700D02*
X2026804D01*
X1939511Y1676071D02*
X1967505D01*
X1979284D02*
X1982734D01*
X1983852D02*
X1988017D01*
X1989137D02*
X1991331D01*
X1993975D02*
X1995722D01*
X1997916D02*
X2000112D01*
X2002485D02*
X2004411D01*
X2006336D02*
X2008174D01*
X2010636D02*
X2012294D01*
X2014667D02*
X2018117D01*
X2019236D02*
X2023400D01*
X2024521D02*
X2026715D01*
X1939511Y1676161D02*
X1967416D01*
X1979284D02*
X1983181D01*
X1983404D02*
X1988465D01*
X1988690D02*
X1991331D01*
X1993975D02*
X1996170D01*
X1997737D02*
X2000112D01*
X2002485D02*
X2004322D01*
X2006426D02*
X2008263D01*
X2010636D02*
X2012294D01*
X2014667D02*
X2018565D01*
X2018877D02*
X2023848D01*
X2024073D02*
X2026715D01*
X1939601Y1676250D02*
X1967326D01*
X1979284D02*
X1991331D01*
X1993975D02*
X2000112D01*
X2002395D02*
X2004322D01*
X2006426D02*
X2008263D01*
X2010636D02*
X2012294D01*
X2014667D02*
X2026715D01*
X1939690Y1676340D02*
X1967237D01*
X1979284D02*
X1991242D01*
X1993975D02*
X2000022D01*
X2002305D02*
X2004232D01*
X2006516D02*
X2008353D01*
X2010636D02*
X2012294D01*
X2014667D02*
X2026625D01*
X1939780Y1676430D02*
X1967237D01*
X1979284D02*
X1980763D01*
X1980896D02*
X1985958D01*
X1986181D02*
X1991242D01*
X1993885D02*
X2000022D01*
X2002216D02*
X2004143D01*
X2006605D02*
X2008442D01*
X2010636D02*
X2012294D01*
X2014667D02*
X2016146D01*
X2016280D02*
X2021342D01*
X2021565D02*
X2026625D01*
X1939780Y1676519D02*
X1967147D01*
X1979284D02*
X1980763D01*
X1980986D02*
X1985958D01*
X1986271D02*
X1991152D01*
X1993885D02*
X1999933D01*
X2002216D02*
X2004143D01*
X2006605D02*
X2008442D01*
X2010636D02*
X2012294D01*
X2014667D02*
X2016146D01*
X2016459D02*
X2021342D01*
X2021654D02*
X2026625D01*
X1939869Y1676609D02*
X1967057D01*
X1979284D02*
X1980763D01*
X1981165D02*
X1985869D01*
X1986361D02*
X1991152D01*
X1993885D02*
X1999933D01*
X2002126D02*
X2004053D01*
X2006695D02*
X2008532D01*
X2010636D02*
X2012294D01*
X2014667D02*
X2016146D01*
X2016548D02*
X2021252D01*
X2021744D02*
X2026535D01*
X1939959Y1676698D02*
X1966968D01*
X1979284D02*
X1980763D01*
X1981255D02*
X1985779D01*
X1986450D02*
X1991062D01*
X1993885D02*
X1999843D01*
X2002037D02*
X2003964D01*
X2006784D02*
X2008622D01*
X2010636D02*
X2012294D01*
X2014667D02*
X2016146D01*
X2016638D02*
X2021252D01*
X2021833D02*
X2026446D01*
X1940049Y1676788D02*
X1966968D01*
X1979284D02*
X1980673D01*
X1981344D02*
X1985779D01*
X1986540D02*
X1991062D01*
X1993885D02*
X1999753D01*
X2002037D02*
X2003874D01*
X2006784D02*
X2008711D01*
X2010636D02*
X2012294D01*
X2014667D02*
X2016146D01*
X2016728D02*
X2021163D01*
X2022013D02*
X2026446D01*
X1940138Y1676878D02*
X1966878D01*
X1979284D02*
X1980673D01*
X1981434D02*
X1985690D01*
X1986719D02*
X1990973D01*
X1993885D02*
X1999664D01*
X2001947D02*
X2003874D01*
X2006874D02*
X2008711D01*
X2010636D02*
X2012294D01*
X2014667D02*
X2016057D01*
X2016907D02*
X2021073D01*
X2022102D02*
X2026356D01*
X1940138Y1676967D02*
X1966789D01*
X1979284D02*
X1980673D01*
X1981613D02*
X1985600D01*
X1986808D02*
X1990883D01*
X1993885D02*
X1999574D01*
X2001858D02*
X2003784D01*
X2006964D02*
X2008801D01*
X2010636D02*
X2012294D01*
X2014667D02*
X2016057D01*
X2016996D02*
X2020983D01*
X2022192D02*
X2026267D01*
X1940228Y1677057D02*
X1966699D01*
X1979284D02*
X1980673D01*
X1981702D02*
X1985510D01*
X1986988D02*
X1990794D01*
X1994064D02*
X1999485D01*
X2001858D02*
X2003695D01*
X2006964D02*
X2008890D01*
X2010636D02*
X2012294D01*
X2014667D02*
X2016057D01*
X2017175D02*
X2020983D01*
X2022371D02*
X2026177D01*
X1940317Y1677146D02*
X1966609D01*
X1979284D02*
X1980673D01*
X1981882D02*
X1985421D01*
X1987077D02*
X1990704D01*
X1994333D02*
X1999395D01*
X2001768D02*
X2003695D01*
X2007053D02*
X2008890D01*
X2010636D02*
X2012294D01*
X2014667D02*
X2016057D01*
X2017265D02*
X2020894D01*
X2022550D02*
X2026088D01*
X1940407Y1677236D02*
X1966520D01*
X1979284D02*
X1980673D01*
X1982061D02*
X1985331D01*
X1987256D02*
X1990615D01*
X1994512D02*
X1999216D01*
X2001678D02*
X2003605D01*
X2007143D02*
X2008980D01*
X2010636D02*
X2012294D01*
X2014667D02*
X2016057D01*
X2017444D02*
X2020715D01*
X2022640D02*
X2025998D01*
X1940497Y1677325D02*
X1966520D01*
X1979284D02*
X1980584D01*
X1982240D02*
X1985242D01*
X1987435D02*
X1990435D01*
X1994781D02*
X1999126D01*
X2001589D02*
X2003516D01*
X2007143D02*
X2009070D01*
X2010636D02*
X2012294D01*
X2014667D02*
X2016057D01*
X2017623D02*
X2020625D01*
X2022819D02*
X2025908D01*
X1940586Y1677415D02*
X1966430D01*
X1979284D02*
X1980584D01*
X1982419D02*
X1985063D01*
X1987615D02*
X1990346D01*
X1995139D02*
X1998858D01*
X2001589D02*
X2003516D01*
X2007232D02*
X2009070D01*
X2010636D02*
X2012294D01*
X2014667D02*
X2015967D01*
X2017802D02*
X2020446D01*
X2023088D02*
X2025729D01*
X1940676Y1677505D02*
X1966341D01*
X1979284D02*
X1980584D01*
X1982598D02*
X1984883D01*
X1987883D02*
X1990077D01*
X1995498D02*
X1998678D01*
X2001589D02*
X2003426D01*
X2007322D02*
X2009070D01*
X2010636D02*
X2012294D01*
X2014667D02*
X2015967D01*
X2018071D02*
X2020267D01*
X2023267D02*
X2025550D01*
X1940676Y1677594D02*
X1966251D01*
X1982957D02*
X1984615D01*
X1988242D02*
X1989808D01*
X1995945D02*
X1998320D01*
X2018340D02*
X2019998D01*
X2023625D02*
X2025281D01*
X1940765Y1677684D02*
X1966162D01*
X1983494D02*
X1983988D01*
X1988779D02*
X1989271D01*
X1996841D02*
X1997514D01*
X2018877D02*
X2019371D01*
X2024163D02*
X2024654D01*
X1940855Y1677773D02*
X1966072D01*
X1940944Y1677863D02*
X1965982D01*
X1941034Y1677952D02*
X1965893D01*
X1941124Y1678042D02*
X1965803D01*
X1941213Y1678132D02*
X1965714D01*
X1941303Y1678221D02*
X1965624D01*
X1941392Y1678311D02*
X1965535D01*
X1941482Y1678400D02*
X1965445D01*
X1941571Y1678490D02*
X1965355D01*
X1941661Y1678580D02*
X1965266D01*
X1941751Y1678669D02*
X1965176D01*
X1941840Y1678759D02*
X1965087D01*
X1942019Y1678848D02*
X1964997D01*
X1942109Y1678938D02*
X1964907D01*
X1942199Y1679027D02*
X1964818D01*
X1942288Y1679117D02*
X1964639D01*
X1942378Y1679207D02*
X1964549D01*
X2011084D02*
X2011846D01*
X1942467Y1679296D02*
X1964460D01*
X2010905D02*
X2012026D01*
X1942646Y1679386D02*
X1964370D01*
X2010726D02*
X2012115D01*
X1942736Y1679475D02*
X1964280D01*
X2010636D02*
X2012205D01*
X1942826Y1679565D02*
X1964101D01*
X2010636D02*
X2012294D01*
X1942915Y1679654D02*
X1964012D01*
X2010547D02*
X2012384D01*
X1943094Y1679744D02*
X1963922D01*
X2010457D02*
X2012384D01*
X1943184Y1679834D02*
X1963743D01*
X2010457D02*
X2012473D01*
X1943273Y1679923D02*
X1963653D01*
X2010457D02*
X2012473D01*
X1943453Y1680013D02*
X1963564D01*
X2010457D02*
X2012473D01*
X1943542Y1680102D02*
X1963385D01*
X2010367D02*
X2012473D01*
X1943721Y1680192D02*
X1963295D01*
X2010367D02*
X2012473D01*
X1943811Y1680282D02*
X1963116D01*
X2010367D02*
X2012473D01*
X1943990Y1680371D02*
X1963026D01*
X2010457D02*
X2012473D01*
X1944080Y1680461D02*
X1962847D01*
X2010457D02*
X2012473D01*
X1944259Y1680550D02*
X1962758D01*
X2010457D02*
X2012384D01*
X1944348Y1680640D02*
X1962578D01*
X2010457D02*
X2012384D01*
X1944528Y1680729D02*
X1962487D01*
X2010547D02*
X2012384D01*
X1944617Y1680819D02*
X1962308D01*
X2010636D02*
X2012294D01*
X1944796Y1680909D02*
X1962129D01*
X2010636D02*
X2012205D01*
X1944975Y1680998D02*
X1961950D01*
X2010726D02*
X2012115D01*
X1945155Y1681088D02*
X1961860D01*
X2010905D02*
X2012026D01*
X1945334Y1681177D02*
X1961681D01*
X2011084D02*
X2011846D01*
X1945423Y1681267D02*
X1961502D01*
X1945602Y1681356D02*
X1961323D01*
X1945782Y1681446D02*
X1961145D01*
X1945961Y1681536D02*
X1960966D01*
X1946140Y1681625D02*
X1960787D01*
X1946409Y1681715D02*
X1960608D01*
X1946588Y1681804D02*
X1960339D01*
X1946767Y1681894D02*
X1960160D01*
X1947036Y1681983D02*
X1959981D01*
X1947215Y1682073D02*
X1959712D01*
X1947484Y1682163D02*
X1959533D01*
X1947752Y1682252D02*
X1959264D01*
X1947932Y1682342D02*
X1958995D01*
X1948200Y1682431D02*
X1958727D01*
X1948559Y1682521D02*
X1958458D01*
X1948827Y1682611D02*
X1958100D01*
X1949186Y1682700D02*
X1957741D01*
X1949544Y1682790D02*
X1957381D01*
X1949992Y1682879D02*
X1957023D01*
X1950440Y1682969D02*
X1956487D01*
X1950977Y1683058D02*
X1955950D01*
X1951694Y1683148D02*
X1955233D01*
X2056332Y1654659D02*
X2057138D01*
X2058840D02*
X2059826D01*
X2060990D02*
X2061617D01*
X2062961D02*
X2063767D01*
X2056332Y1654838D02*
X2057138D01*
X2058840D02*
X2059826D01*
X2060990D02*
X2061796D01*
X2062961D02*
X2063767D01*
X2056332Y1655017D02*
X2057138D01*
X2058840D02*
X2059826D01*
X2060811D02*
X2061796D01*
X2062961D02*
X2063767D01*
X2056332Y1655196D02*
X2057138D01*
X2058840D02*
X2059826D01*
X2060811D02*
X2061796D01*
X2062961D02*
X2063767D01*
X2056332Y1655375D02*
X2057138D01*
X2058840D02*
X2059826D01*
X2060811D02*
X2061975D01*
X2062961D02*
X2063767D01*
X2056332Y1655554D02*
X2057138D01*
X2058840D02*
X2059826D01*
X2060632D02*
X2061975D01*
X2062961D02*
X2063767D01*
X2056332Y1655733D02*
X2057138D01*
X2058840D02*
X2059826D01*
X2060632D02*
X2061975D01*
X2062961D02*
X2063767D01*
X2056332Y1655913D02*
X2057138D01*
X2058840D02*
X2059826D01*
X2060632D02*
X2062155D01*
X2062961D02*
X2063767D01*
X2056332Y1656092D02*
X2057138D01*
X2058840D02*
X2059826D01*
X2060453D02*
X2062155D01*
X2062961D02*
X2063767D01*
X2056332Y1656271D02*
X2057138D01*
X2058840D02*
X2059826D01*
X2060453D02*
X2062334D01*
X2062961D02*
X2063767D01*
X2056332Y1656450D02*
X2057138D01*
X2058840D02*
X2059826D01*
X2060273D02*
X2061259D01*
X2061528D02*
X2062334D01*
X2062961D02*
X2063767D01*
X2056332Y1656629D02*
X2057138D01*
X2058840D02*
X2059826D01*
X2060273D02*
X2061080D01*
X2061528D02*
X2062334D01*
X2062961D02*
X2063767D01*
X2056332Y1656808D02*
X2057138D01*
X2058840D02*
X2059826D01*
X2060273D02*
X2061080D01*
X2061707D02*
X2062513D01*
X2062961D02*
X2063767D01*
X2056332Y1656988D02*
X2057138D01*
X2058840D02*
X2059826D01*
X2060094D02*
X2061080D01*
X2061707D02*
X2062513D01*
X2062961D02*
X2063767D01*
X2056332Y1657167D02*
X2057138D01*
X2058840D02*
X2059826D01*
X2060094D02*
X2060900D01*
X2061707D02*
X2062513D01*
X2062961D02*
X2063767D01*
X2056332Y1657346D02*
X2057138D01*
X2058840D02*
X2060900D01*
X2061886D02*
X2062692D01*
X2062961D02*
X2063767D01*
X2056332Y1657525D02*
X2057138D01*
X2058840D02*
X2060721D01*
X2061886D02*
X2062692D01*
X2062961D02*
X2063767D01*
X2056332Y1657704D02*
X2057138D01*
X2058840D02*
X2060721D01*
X2061886D02*
X2063767D01*
X2056332Y1657883D02*
X2057138D01*
X2058840D02*
X2060721D01*
X2062065D02*
X2063767D01*
X2056332Y1658062D02*
X2057138D01*
X2058840D02*
X2060542D01*
X2062065D02*
X2063767D01*
X2056332Y1658242D02*
X2057138D01*
X2058840D02*
X2060542D01*
X2062244D02*
X2063767D01*
X2055078Y1658421D02*
X2058571D01*
X2058840D02*
X2060363D01*
X2062244D02*
X2063767D01*
X2055078Y1658600D02*
X2058571D01*
X2058840D02*
X2060363D01*
X2062244D02*
X2063767D01*
X2055078Y1658779D02*
X2058571D01*
X2058840D02*
X2060363D01*
X2062423D02*
X2063767D01*
X2055078Y1658958D02*
X2058571D01*
X2058840D02*
X2060184D01*
X2062423D02*
X2063767D01*
G54D252*
X1887500Y1729656D02*
Y1723750D01*
X1891591Y1726844D02*
X1891386Y1727406D01*
X1890773Y1727688*
X1890773D02*
X1890159D01*
X1890159D02*
X1889545Y1727406D01*
X1889341Y1726844*
X1889545Y1726281*
X1889955Y1726000*
X1890977Y1725719*
X1891386Y1725438*
X1891386D02*
X1891591Y1724875D01*
Y1724594*
X1891386Y1724031*
X1890773Y1723750*
X1890159*
X1889545Y1724031*
X1889341Y1724594*
X1894455Y1727688D02*
X1894045Y1727406D01*
X1893636Y1726844*
X1893432Y1726000*
Y1725438*
X1893432D02*
X1893636Y1724594D01*
X1894045Y1724031*
X1894455Y1723750*
X1895068*
X1895477Y1724031*
X1895886Y1724594*
X1896091Y1725438*
X1896091D02*
Y1726000D01*
X1895886Y1726844*
X1895477Y1727406*
X1895068Y1727688*
X1895068D02*
X1894455D01*
X1897932Y1729656D02*
Y1723750D01*
X1902227Y1727688D02*
Y1723750D01*
Y1726844D02*
X1901818Y1727406D01*
X1901409Y1727688*
X1901409D02*
X1900795D01*
X1900795D02*
X1900386Y1727406D01*
X1899977Y1726844*
X1899773Y1726000*
Y1725438*
X1899773D02*
X1899977Y1724594D01*
X1900386Y1724031*
X1900795Y1723750*
X1901409*
X1901818Y1724031*
X1902227Y1724594*
X1904682Y1729656D02*
Y1724875D01*
X1904886Y1724031*
X1905295Y1723750*
X1905705*
X1904068Y1727688D02*
X1905500D01*
X1907545Y1726000D02*
X1910000D01*
Y1726563*
X1910000D02*
X1909795Y1727125D01*
X1909591Y1727406*
X1909182Y1727688*
X1909182D02*
X1908568D01*
X1908568D02*
X1908159Y1727406D01*
X1907750Y1726844*
X1907545Y1726000*
Y1725438*
X1907545D02*
X1907750Y1724594D01*
X1908159Y1724031*
X1908568Y1723750*
X1909182*
X1909591Y1724031*
X1910000Y1724594*
X1914295Y1729656D02*
Y1723750D01*
Y1726844D02*
X1913886Y1727406D01*
X1913477Y1727688*
X1913477D02*
X1912864D01*
X1912864D02*
X1912455Y1727406D01*
X1912045Y1726844*
X1911841Y1726000*
Y1725438*
X1911841D02*
X1912045Y1724594D01*
X1912455Y1724031*
X1912864Y1723750*
X1913477*
X1913886Y1724031*
X1914295Y1724594*
X1920841Y1729656D02*
Y1723750D01*
X1922682Y1727688D02*
Y1723750D01*
Y1726563D02*
X1923295Y1727406D01*
X1923705Y1727688*
X1923705D02*
X1924318D01*
X1924318D02*
X1924727Y1727406D01*
X1924932Y1726563*
X1924932D02*
Y1723750D01*
X1929227Y1729656D02*
Y1723750D01*
Y1726844D02*
X1928818Y1727406D01*
X1928409Y1727688*
X1928409D02*
X1927795D01*
X1927795D02*
X1927386Y1727406D01*
X1926977Y1726844*
X1926773Y1726000*
Y1725438*
X1926773D02*
X1926977Y1724594D01*
X1927386Y1724031*
X1927795Y1723750*
X1928409*
X1928818Y1724031*
X1929227Y1724594*
X1931068Y1727688D02*
Y1724875D01*
X1931273Y1724031*
X1931682Y1723750*
X1932295*
X1932705Y1724031*
X1933318Y1724875*
Y1727688D02*
Y1723750D01*
X1937409Y1726844D02*
X1937205Y1727406D01*
X1936591Y1727688*
X1936591D02*
X1935977D01*
X1935977D02*
X1935364Y1727406D01*
X1935159Y1726844*
X1935364Y1726281*
X1935773Y1726000*
X1936795Y1725719*
X1937205Y1725438*
X1937205D02*
X1937409Y1724875D01*
Y1724594*
X1937205Y1724031*
X1936591Y1723750*
X1935977*
X1935364Y1724031*
X1935159Y1724594*
X1939864Y1729656D02*
Y1724875D01*
X1940068Y1724031*
X1940477Y1723750*
X1940886*
X1939250Y1727688D02*
X1940682D01*
X1942727D02*
Y1723750D01*
Y1726000D02*
X1942932Y1726844D01*
X1943341Y1727406*
X1943750Y1727688*
X1943750D02*
X1944364D01*
X1946205Y1729656D02*
X1946409Y1729375D01*
X1946614Y1729656*
X1946409Y1729938*
X1946409D02*
X1946205Y1729656D01*
X1946409Y1727688D02*
Y1723750D01*
X1950909Y1727688D02*
Y1723750D01*
Y1726844D02*
X1950500Y1727406D01*
X1950091Y1727688*
X1950091D02*
X1949477D01*
X1949477D02*
X1949068Y1727406D01*
X1948659Y1726844*
X1948455Y1726000*
Y1725438*
X1948455D02*
X1948659Y1724594D01*
X1949068Y1724031*
X1949477Y1723750*
X1950091*
X1950500Y1724031*
X1950909Y1724594*
X1952750Y1729656D02*
Y1723750D01*
X1960523Y1729656D02*
X1960114Y1729375D01*
X1959705Y1728813*
X1959705D02*
X1959500Y1728250D01*
X1959295Y1727406*
Y1726000*
X1959500Y1725156*
X1959705Y1724594*
X1960114Y1724031*
X1960523Y1723750*
X1961341*
X1961750Y1724031*
X1962159Y1724594*
X1962364Y1725156*
X1962568Y1726000*
Y1727406*
X1962364Y1728250*
X1962159Y1728813*
X1962159D02*
X1961750Y1729375D01*
X1961341Y1729656*
X1960523*
X1966864Y1726844D02*
X1966455Y1727406D01*
X1966045Y1727688*
X1966045D02*
X1965432D01*
X1965432D02*
X1965023Y1727406D01*
X1964614Y1726844*
X1964409Y1726000*
Y1725438*
X1964409D02*
X1964614Y1724594D01*
X1965023Y1724031*
X1965432Y1723750*
X1966045*
X1966455Y1724031*
X1966864Y1724594*
X1969318Y1729656D02*
Y1724875D01*
X1969523Y1724031*
X1969932Y1723750*
X1970341*
X1968705Y1727688D02*
X1970136D01*
X1974636D02*
Y1723750D01*
Y1726844D02*
X1974227Y1727406D01*
X1973818Y1727688*
X1973818D02*
X1973205D01*
X1973205D02*
X1972795Y1727406D01*
X1972386Y1726844*
X1972182Y1726000*
Y1725438*
X1972182D02*
X1972386Y1724594D01*
X1972795Y1724031*
X1973205Y1723750*
X1973818*
X1974227Y1724031*
X1974636Y1724594*
X1976477Y1729656D02*
Y1723750D01*
X1983023Y1729656D02*
Y1723750D01*
Y1729656D02*
X1984455D01*
X1985068Y1729375*
X1985477Y1728813*
X1985477D02*
X1985682Y1728250D01*
X1985886Y1727406*
Y1726000*
X1985682Y1725156*
X1985477Y1724594*
X1985068Y1724031*
X1984455Y1723750*
X1983023*
X1987727Y1729656D02*
X1987932Y1729375D01*
X1988136Y1729656*
X1987932Y1729938*
X1987932D02*
X1987727Y1729656D01*
X1987932Y1727688D02*
Y1723750D01*
X1992432Y1727688D02*
Y1723187D01*
X1992432D02*
X1992227Y1722344D01*
X1992023Y1722062*
X1992023D02*
X1991614Y1721781D01*
X1991000*
X1990591Y1722062*
X1992432Y1726844D02*
X1992023Y1727406D01*
X1991614Y1727688*
X1991614D02*
X1991000D01*
X1991000D02*
X1990591Y1727406D01*
X1990182Y1726844*
X1989977Y1726000*
Y1725438*
X1989977D02*
X1990182Y1724594D01*
X1990591Y1724031*
X1991000Y1723750*
X1991614*
X1992023Y1724031*
X1992432Y1724594*
X1994273Y1729656D02*
X1994477Y1729375D01*
X1994682Y1729656*
X1994477Y1729938*
X1994477D02*
X1994273Y1729656D01*
X1994477Y1727688D02*
Y1723750D01*
X1997136Y1729656D02*
Y1724875D01*
X1997341Y1724031*
X1997750Y1723750*
X1998159*
X1996523Y1727688D02*
X1997955D01*
X2002455D02*
Y1723750D01*
Y1726844D02*
X2002045Y1727406D01*
X2001636Y1727688*
X2001636D02*
X2001023D01*
X2001023D02*
X2000614Y1727406D01*
X2000205Y1726844*
X2000000Y1726000*
Y1725438*
X2000000D02*
X2000205Y1724594D01*
X2000614Y1724031*
X2001023Y1723750*
X2001636*
X2002045Y1724031*
X2002455Y1724594*
X2004295Y1729656D02*
Y1723750D01*
X2010841Y1729656D02*
Y1723750D01*
X2012682Y1727688D02*
Y1723750D01*
Y1726563D02*
X2013295Y1727406D01*
X2013705Y1727688*
X2013705D02*
X2014318D01*
X2014318D02*
X2014727Y1727406D01*
X2014932Y1726563*
X2014932D02*
Y1723750D01*
X2016773Y1727688D02*
Y1721781D01*
Y1726844D02*
X2017182Y1727406D01*
X2017591Y1727688*
X2017591D02*
X2018205D01*
X2018205D02*
X2018614Y1727406D01*
X2019023Y1726844*
X2019227Y1726000*
Y1725438*
X2019227D02*
X2019023Y1724594D01*
X2018614Y1724031*
X2018205Y1723750*
X2017591*
X2017182Y1724031*
X2016773Y1724594*
X2021068Y1727688D02*
Y1724875D01*
X2021273Y1724031*
X2021682Y1723750*
X2022295*
X2022705Y1724031*
X2023318Y1724875*
Y1727688D02*
Y1723750D01*
X2025773Y1729656D02*
Y1724875D01*
X2025977Y1724031*
X2026386Y1723750*
X2026795*
X2025159Y1727688D02*
X2026591D01*
X2034773Y1729656D02*
Y1723750D01*
X2033341Y1729656D02*
X2036205D01*
X2038045Y1727688D02*
Y1723750D01*
Y1726000D02*
X2038250Y1726844D01*
X2038659Y1727406*
X2039068Y1727688*
X2039068D02*
X2039682D01*
X2043977D02*
Y1723750D01*
Y1726844D02*
X2043568Y1727406D01*
X2043159Y1727688*
X2043159D02*
X2042545D01*
X2042545D02*
X2042136Y1727406D01*
X2041727Y1726844*
X2041523Y1726000*
Y1725438*
X2041523D02*
X2041727Y1724594D01*
X2042136Y1724031*
X2042545Y1723750*
X2043159*
X2043568Y1724031*
X2043977Y1724594*
X2045818Y1727688D02*
Y1723750D01*
Y1726563D02*
X2046432Y1727406D01*
X2046841Y1727688*
X2046841D02*
X2047455D01*
X2047455D02*
X2047864Y1727406D01*
X2048068Y1726563*
X2048068D02*
Y1723750D01*
X2052159Y1726844D02*
X2051955Y1727406D01*
X2051341Y1727688*
X2051341D02*
X2050727D01*
X2050727D02*
X2050114Y1727406D01*
X2049909Y1726844*
X2050114Y1726281*
X2050523Y1726000*
X2051545Y1725719*
X2051955Y1725438*
X2051955D02*
X2052159Y1724875D01*
Y1724594*
X2051955Y1724031*
X2051341Y1723750*
X2050727*
X2050114Y1724031*
X2049909Y1724594*
X2054000Y1729656D02*
Y1723750D01*
X2058295Y1727688D02*
Y1723750D01*
Y1726844D02*
X2057886Y1727406D01*
X2057477Y1727688*
X2057477D02*
X2056864D01*
X2056864D02*
X2056455Y1727406D01*
X2056045Y1726844*
X2055841Y1726000*
Y1725438*
X2055841D02*
X2056045Y1724594D01*
X2056455Y1724031*
X2056864Y1723750*
X2057477*
X2057886Y1724031*
X2058295Y1724594*
X2060750Y1729656D02*
Y1724875D01*
X2060955Y1724031*
X2061364Y1723750*
X2061773*
X2060136Y1727688D02*
X2061568D01*
X2064636D02*
X2064227Y1727406D01*
X2063818Y1726844*
X2063614Y1726000*
Y1725438*
X2063614D02*
X2063818Y1724594D01*
X2064227Y1724031*
X2064636Y1723750*
X2065250*
X2065659Y1724031*
X2066068Y1724594*
X2066273Y1725438*
X2066273D02*
Y1726000D01*
X2066068Y1726844*
X2065659Y1727406*
X2065250Y1727688*
X2065250D02*
X2064636D01*
X2068114D02*
Y1723750D01*
Y1726000D02*
X2068318Y1726844D01*
X2068727Y1727406*
X2069136Y1727688*
X2069136D02*
X2069750D01*
X2075273Y1730781D02*
X2071591Y1721781D01*
X2079977Y1728813D02*
X2079568Y1729375D01*
X2078955Y1729656*
X2078136*
X2077523Y1729375*
X2077114Y1728813*
X2077114D02*
Y1728250D01*
X2077318Y1727688*
X2077318D02*
X2077523Y1727406D01*
X2077932Y1727125*
X2079159Y1726563*
X2079159D02*
X2079568Y1726281D01*
X2079773Y1726000*
X2079977Y1725438*
X2079977D02*
Y1724594D01*
X2079568Y1724031*
X2078955Y1723750*
X2078136*
X2077523Y1724031*
X2077114Y1724594*
X2081818Y1726000D02*
X2084273D01*
Y1726563*
X2084273D02*
X2084068Y1727125D01*
X2083864Y1727406*
X2083455Y1727688*
X2083455D02*
X2082841D01*
X2082841D02*
X2082432Y1727406D01*
X2082023Y1726844*
X2081818Y1726000*
Y1725438*
X2081818D02*
X2082023Y1724594D01*
X2082432Y1724031*
X2082841Y1723750*
X2083455*
X2083864Y1724031*
X2084273Y1724594*
X2086114Y1727688D02*
Y1723750D01*
Y1726000D02*
X2086318Y1726844D01*
X2086727Y1727406*
X2087136Y1727688*
X2087136D02*
X2087750D01*
X2089591Y1729656D02*
X2089795Y1729375D01*
X2090000Y1729656*
X2089795Y1729938*
X2089795D02*
X2089591Y1729656D01*
X2089795Y1727688D02*
Y1723750D01*
X2094295Y1727688D02*
Y1723750D01*
Y1726844D02*
X2093886Y1727406D01*
X2093477Y1727688*
X2093477D02*
X2092864D01*
X2092864D02*
X2092455Y1727406D01*
X2092045Y1726844*
X2091841Y1726000*
Y1725438*
X2091841D02*
X2092045Y1724594D01*
X2092455Y1724031*
X2092864Y1723750*
X2093477*
X2093886Y1724031*
X2094295Y1724594*
X2096136Y1729656D02*
Y1723750D01*
X2097977Y1729656D02*
X2098182Y1729375D01*
X2098386Y1729656*
X2098182Y1729938*
X2098182D02*
X2097977Y1729656D01*
X2098182Y1727688D02*
Y1723750D01*
X2102477Y1727688D02*
X2100227Y1723750D01*
Y1727688D02*
X2102477D01*
X2100227Y1723750D02*
X2102477D01*
X2104318Y1726000D02*
X2106773D01*
Y1726563*
X2106773D02*
X2106568Y1727125D01*
X2106364Y1727406*
X2105955Y1727688*
X2105955D02*
X2105341D01*
X2105341D02*
X2104932Y1727406D01*
X2104523Y1726844*
X2104318Y1726000*
Y1725438*
X2104318D02*
X2104523Y1724594D01*
X2104932Y1724031*
X2105341Y1723750*
X2105955*
X2106364Y1724031*
X2106773Y1724594*
X2108614Y1727688D02*
Y1723750D01*
Y1726000D02*
X2108818Y1726844D01*
X2109227Y1727406*
X2109636Y1727688*
X2109636D02*
X2110250D01*
G54D263*
X2040000Y1558750D03*
X1865000D03*
X1885000D03*
X2102500D03*
G54D264*
X2082500Y1538750D03*
X2045000Y1498750D03*
Y1511250D03*
X1990000D03*
Y1498750D03*
X2157500Y1493750D03*
G54D265*
X2092500Y1538750D03*
X2102500D03*
X2055000Y1498750D03*
Y1511250D03*
X1980000D03*
Y1498750D03*
X2147500Y1493750D03*
X2157500Y1503750D03*
X2147500D03*
X2157500Y1513750D03*
X2147500D03*
X2157500Y1523750D03*
X2147500D03*
X2157500Y1533750D03*
X2147500D03*
X2157500Y1543750D03*
X2147500D03*
X2157500Y1553750D03*
X2147500D03*
X2157500Y1563750D03*
X2147500D03*
G54D266*
X1845000Y1553750D03*
G54D267*
Y1543750D03*
Y1533750D03*
Y1523750D03*
Y1513750D03*
Y1503750D03*
X1835000Y1553750D03*
Y1543750D03*
Y1533750D03*
Y1523750D03*
Y1513750D03*
Y1503750D03*
G54D268*
X1998000Y1551000D03*
Y1546500D03*
G54D269*
X1980500Y1522250D03*
Y1530250D03*
X1990500Y1555250D03*
Y1547250D03*
G54D270*
X1887750D03*
X1881250D03*
X1888750Y1517750D03*
X1882250D03*
X1993250Y1538750D03*
X1986750D03*
G54D271*
X1881595Y1536187D03*
X1881594Y1534219D03*
Y1532250D03*
X1881595Y1530281D03*
Y1528313D03*
X1893405D03*
Y1530281D03*
X1893406Y1532250D03*
Y1534219D03*
X1893405Y1536187D03*
G54D272*
X1887500Y1532250D03*
G54D273*
X1887500D03*
G54D274*
X1908000Y1547250D03*
Y1537250D03*
Y1527250D03*
X1952000D03*
Y1537250D03*
Y1547250D03*
G54D275*
X1964941Y1527033D03*
X1970059D03*
Y1537467D03*
X1964941D03*
G54D276*
X1964793Y1534110D03*
G54D277*
X2052500Y1531750D03*
Y1545750D03*
G54D278*
X2067500Y1545250D03*
Y1527250D03*
G54D279*
X2081791Y1497250D03*
X2093209D03*
X2081791Y1509750D03*
X2093209D03*
X2116791Y1547750D03*
X2128209D03*
X2116791Y1560250D03*
X2128209D03*
X2116791Y1497250D03*
X2128209D03*
X2116791Y1509750D03*
X2128209D03*
X2116791Y1522750D03*
X2128209D03*
X2116791Y1535250D03*
X2128209D03*
G54D280*
X2060354Y1558750D03*
X2079646D03*
G54D281*
X2042000Y1538500D03*
Y1545000D03*
X1980000Y1540500D03*
Y1547000D03*
X1873500Y1530000D03*
Y1536500D03*
G54D282*
X2030000Y1512116D03*
Y1514675D03*
Y1517234D03*
Y1519793D03*
Y1522352D03*
Y1524911D03*
Y1527470D03*
Y1530030D03*
Y1532589D03*
Y1535148D03*
Y1537707D03*
Y1540266D03*
Y1542825D03*
Y1545384D03*
X2005000D03*
Y1542825D03*
Y1540266D03*
Y1537707D03*
Y1535148D03*
Y1532589D03*
Y1530030D03*
Y1527470D03*
Y1524911D03*
Y1522352D03*
Y1519793D03*
Y1517234D03*
Y1514675D03*
Y1512116D03*
G54D283*
X2017500Y1528750D03*
G54D284*
X2021000Y1519750D03*
X2014000D03*
X2021000Y1524750D03*
X2014000D03*
X2021000Y1531750D03*
X2014000D03*
X2021000Y1537750D03*
X2014000D03*
X2017500Y1522750D03*
Y1534750D03*
G74*
X0Y0D02*
M02*
