*
*
G04 PADS 9.5 Build Number: 522968 generated Gerber (RS-274-X) file*
G04 PC Version=2.1*
*
%IN "MAXREFDES12_A.pcb"*%
*
%MOIN*%
*
%FSLAX35Y35*%
*
*
*
*
G04 PC Standard Apertures*
*
*
G04 Thermal Relief Aperture macro.*
%AMTER*
1,1,$1,0,0*
1,0,$1-$2,0,0*
21,0,$3,$4,0,0,45*
21,0,$3,$4,0,0,135*
%
*
*
G04 Annular Aperture macro.*
%AMANN*
1,1,$1,0,0*
1,0,$2,0,0*
%
*
*
G04 Odd Aperture macro.*
%AMODD*
1,1,$1,0,0*
1,0,$1-0.005,0,0*
%
*
*
G04 PC Custom Aperture Macros*
*
*
*
*
*
*
G04 PC Aperture Table*
*
%ADD046C,0.015*%
%ADD172C,0.012*%
%ADD177C,0.01*%
%ADD180C,0.007*%
%ADD185C,0.001*%
%ADD189C,0*%
%ADD193C,0.008*%
%ADD213C,0.005*%
%ADD239C,0.002*%
%ADD252C,0.009*%
*
*
*
*
G04 PC Circuitry*
G04 Layer Name MAXREFDES12_A.pcb - circuitry*
%LPD*%
*
*
G04 PC Custom Flashes*
G04 Layer Name MAXREFDES12_A.pcb - flashes*
%LPD*%
*
*
G04 PC Circuitry*
G04 Layer Name MAXREFDES12_A.pcb - circuitry*
%LPD*%
*
G54D46*
G01X2240000Y1553750D02*
Y1548750D01*
Y1543750*
Y1583750D02*
Y1553750D01*
X2220000Y1568750D02*
X2215000D01*
X2225000D02*
X2220000D01*
X2240000Y1583750D02*
Y1588750D01*
X2260000Y1568750D02*
X2265000D01*
X2255000D02*
X2260000D01*
X2225000D02*
X2255000D01*
X2245000D02*
G75*
G03X2245000I-5000J0D01*
G01X2255000D02*
G03X2255000I-15000J0D01*
G01X2250000D02*
G03X2250000I-10000J0D01*
G01X2240000Y1588750D02*
Y1593750D01*
Y1473750D02*
Y1468750D01*
Y1463750*
Y1503750D02*
Y1473750D01*
X2220000Y1488750D02*
X2215000D01*
X2225000D02*
X2220000D01*
X2240000Y1503750D02*
Y1508750D01*
X2260000Y1488750D02*
X2265000D01*
X2255000D02*
X2260000D01*
X2225000D02*
X2255000D01*
X2245000D02*
G03X2245000I-5000J0D01*
G01X2255000D02*
G03X2255000I-15000J0D01*
G01X2250000D02*
G03X2250000I-10000J0D01*
G01X2240000Y1508750D02*
Y1513750D01*
X1760000Y1473750D02*
Y1468750D01*
Y1463750*
Y1503750D02*
Y1473750D01*
X1740000Y1488750D02*
X1735000D01*
X1745000D02*
X1740000D01*
X1760000Y1503750D02*
Y1508750D01*
X1780000Y1488750D02*
X1785000D01*
X1775000D02*
X1780000D01*
X1745000D02*
X1775000D01*
X1765000D02*
G03X1765000I-5000J0D01*
G01X1775000D02*
G03X1775000I-15000J0D01*
G01X1770000D02*
G03X1770000I-10000J0D01*
G01X1760000Y1508750D02*
Y1513750D01*
G54D172*
X2142500Y1488750D02*
Y1568750D01*
X2162500*
Y1491750*
X2159500Y1488750*
X2142500*
G54D177*
X2046300Y1558750D02*
G03X2046300I-6300J0D01*
G01X1871300D02*
G03X1871300I-6300J0D01*
G01X2077500Y1543750D02*
X2107500D01*
Y1533750*
X2077500*
Y1543750*
X1820000Y1498750D02*
Y1558750D01*
X1850000*
Y1498750*
X1820000*
X1891300Y1558750D02*
G03X1891300I-6300J0D01*
G01X1976000Y1518250D02*
Y1534250D01*
X1985000*
Y1518250*
X1976000*
X1890750Y1550750D02*
Y1543750D01*
X1878250*
Y1550750*
X1890750*
X1892000D02*
Y1543750D01*
X1893000Y1550750D02*
Y1543750D01*
X1879806Y1539449D02*
G03X1879806I-880J0D01*
G01X1952000Y1550750D02*
Y1556250D01*
X1908000*
Y1550750*
X1952000Y1523750D02*
Y1518250D01*
X1908000*
Y1523750*
X1916242Y1551750D02*
G03X1916242I-1342J0D01*
G01X2046000Y1526750D02*
Y1550750D01*
X2059000*
Y1526750*
X2046000*
X1995000Y1559250D02*
Y1543250D01*
X1986000*
Y1559250*
X1995000*
X2060000Y1552250D02*
X2075000D01*
Y1520250*
X2060000*
Y1552250*
Y1538250D02*
X2075000D01*
X2097250Y1502000D02*
Y1492500D01*
X2078750*
X2077750Y1493500*
Y1501000*
X2078750Y1502000*
X2097250*
X2084500Y1565000D02*
Y1552500D01*
X2056500*
X2055500Y1553500*
Y1564000*
X2056500Y1565000*
X2084500*
X2097250Y1514500D02*
Y1505000D01*
X2078750*
X2077750Y1506000*
Y1513500*
X2078750Y1514500*
X2097250*
X1891750Y1521250D02*
Y1514250D01*
X1879250*
Y1521250*
X1891750*
X2132250Y1552500D02*
Y1543000D01*
X2113750*
X2112750Y1544000*
Y1551500*
X2113750Y1552500*
X2132250*
Y1565000D02*
Y1555500D01*
X2113750*
X2112750Y1556500*
Y1564000*
X2113750Y1565000*
X2132250*
X2045500Y1535500D02*
X2038500D01*
Y1548000*
X2045500*
Y1535500*
X2040000Y1503750D02*
X2060000D01*
Y1493750*
X2040000*
Y1503750*
Y1516250D02*
X2060000D01*
Y1506250*
X2040000*
Y1516250*
X1995000Y1506250D02*
X1975000D01*
Y1516250*
X1995000*
Y1506250*
Y1493750D02*
X1975000D01*
Y1503750*
X1995000*
Y1493750*
X1996250Y1542250D02*
Y1535250D01*
X1983750*
Y1542250*
X1996250*
X1997500D02*
Y1535250D01*
X1998500Y1542250D02*
Y1535250D01*
X2132250Y1502000D02*
Y1492500D01*
X2113750*
X2112750Y1493500*
Y1501000*
X2113750Y1502000*
X2132250*
Y1514500D02*
Y1505000D01*
X2113750*
X2112750Y1506000*
Y1513500*
X2113750Y1514500*
X2132250*
Y1527500D02*
Y1518000D01*
X2113750*
X2112750Y1519000*
Y1526500*
X2113750Y1527500*
X2132250*
Y1540000D02*
Y1530500D01*
X2113750*
X2112750Y1531500*
Y1539000*
X2113750Y1540000*
X2132250*
X1983500Y1537500D02*
X1976500D01*
Y1550000*
X1983500*
Y1537500*
X2108800Y1558750D02*
G03X2108800I-6300J0D01*
G01X2025079Y1509459D02*
Y1548041D01*
X2009921*
Y1509459*
X2015236*
Y1512750*
X2019764*
Y1509459*
X2025079*
X1877000Y1527000D02*
X1870000D01*
Y1539500*
X1877000*
Y1527000*
X2080000Y1453750D02*
X2180000D01*
Y1478750*
X2080000*
Y1453750*
Y1446250D02*
X2124500D01*
X2080000D02*
X2090000Y1448750D01*
Y1443750*
X2080000Y1446250*
X2180000D02*
X2144136D01*
X2180000D02*
X2170000Y1443750D01*
Y1448750*
X2180000Y1446250*
X2080000Y1448750D02*
Y1441250D01*
X2180000Y1448750D02*
Y1441250D01*
X2082000Y1453750D02*
Y1466250D01*
X2083000Y1453750D02*
Y1466250D01*
X2084000D02*
Y1453750D01*
X2085000Y1466250D02*
Y1453750D01*
X2086000Y1466250D02*
Y1453750D01*
X2087000Y1466250D02*
Y1453750D01*
X2088000Y1466250D02*
Y1453750D01*
X2089000Y1466250D02*
Y1453750D01*
X2090000D02*
Y1466250D01*
X2091000Y1453750D02*
Y1466250D01*
X2094000D02*
Y1478750D01*
X2095000Y1466250D02*
Y1478750D01*
X2096000D02*
Y1466250D01*
X2097000Y1478750D02*
Y1466250D01*
X2098000Y1478750D02*
Y1466250D01*
X2099000Y1478750D02*
Y1466250D01*
X2100000Y1478750D02*
Y1466250D01*
X2101000Y1478750D02*
Y1466250D01*
X2102000D02*
Y1478750D01*
X2103000Y1466250D02*
Y1478750D01*
X2092500Y1453750D02*
Y1478750D01*
X2105000Y1453750D02*
Y1478750D01*
X2080000Y1466250D02*
X2180000D01*
X2155000Y1453750D02*
Y1478750D01*
X2130000Y1453750D02*
Y1478750D01*
X2081000Y1453750D02*
Y1466250D01*
X2091500Y1453750D02*
Y1466250D01*
X2093500D02*
Y1478750D01*
X2104000Y1466250D02*
Y1478750D01*
X2107000Y1466250D02*
Y1478750D01*
X2106000Y1466250D02*
Y1478750D01*
X2108000Y1466250D02*
Y1478750D01*
X2109000D02*
Y1466250D01*
X2110000Y1478750D02*
Y1466250D01*
X2111000Y1478750D02*
Y1466250D01*
X2112000Y1478750D02*
Y1466250D01*
X2113000Y1478750D02*
Y1466250D01*
X2115000D02*
Y1478750D01*
X2114000D02*
Y1466250D01*
X2116000D02*
Y1478750D01*
X2117000Y1466250D02*
Y1478750D01*
X2119000Y1466250D02*
Y1478750D01*
X2118000Y1466250D02*
Y1478750D01*
X2120000Y1466250D02*
Y1478750D01*
X2121000D02*
Y1466250D01*
X2122000Y1478750D02*
Y1466250D01*
X2123000Y1478750D02*
Y1466250D01*
X2124000Y1478750D02*
Y1466250D01*
X2125000Y1478750D02*
Y1466250D01*
X2126000Y1478750D02*
Y1466250D01*
X2127000D02*
Y1478750D01*
X2128000Y1466250D02*
Y1478750D01*
X2129000Y1466250D02*
Y1478750D01*
X2125000Y1598750D02*
Y1758750D01*
X1875000*
Y1598750*
X2125000*
X2102500Y1716250D02*
Y1691250D01*
X2125000Y1716250D02*
X1875000D01*
X2125000Y1691250D02*
X1875000D01*
X2125000Y1618750D02*
X1875000D01*
X2125000Y1641950D02*
X1875000D01*
X1990000Y1598750D02*
Y1618750D01*
X1895000Y1710563D02*
Y1698750D01*
Y1710563D02*
X1898682D01*
X1898682D02*
X1899909Y1710000D01*
X1900318Y1709438*
X1900318D02*
X1900727Y1708313D01*
X1900727D02*
Y1706625D01*
X1900318Y1705500*
X1899909Y1704938*
X1899909D02*
X1898682Y1704375D01*
X1895000*
X1911773Y1712813D02*
X1904409Y1694812D01*
X1915455Y1710563D02*
Y1698750D01*
Y1710563D02*
X1921182Y1698750D01*
Y1710563D02*
Y1698750D01*
X1925273Y1706625D02*
X1924864Y1706063D01*
X1924864D02*
X1925273Y1705500D01*
X1925682Y1706063*
X1925682D02*
X1925273Y1706625D01*
Y1699875D02*
X1924864Y1699313D01*
X1924864D02*
X1925273Y1698750D01*
X1925682Y1699313*
X1925682D02*
X1925273Y1699875D01*
X1938773Y1710563D02*
Y1698750D01*
Y1710563D02*
X1944091D01*
X1938773Y1704938D02*
X1942045D01*
X1938773Y1698750D02*
X1944091D01*
X1947773Y1710563D02*
Y1698750D01*
Y1710563D02*
X1951455D01*
X1951455D02*
X1952682Y1710000D01*
X1953091Y1709438*
X1953091D02*
X1953500Y1708313D01*
X1953500D02*
Y1706625D01*
X1953091Y1705500*
X1952682Y1704938*
X1952682D02*
X1951455Y1704375D01*
X1947773*
X1963318Y1707750D02*
X1962909Y1708875D01*
X1962091Y1710000*
X1961273Y1710563*
X1961273D02*
X1959636D01*
X1959636D02*
X1958818Y1710000D01*
X1958000Y1708875*
X1957591Y1707750*
X1957182Y1706063*
X1957182D02*
Y1703250D01*
X1957591Y1701563*
X1957591D02*
X1958000Y1700438D01*
X1958000D02*
X1958818Y1699313D01*
X1958818D02*
X1959636Y1698750D01*
X1961273*
X1962091Y1699313*
X1962091D02*
X1962909Y1700438D01*
X1962909D02*
X1963318Y1701563D01*
X1967000Y1710563D02*
Y1698750D01*
Y1710563D02*
X1970682D01*
X1970682D02*
X1971909Y1710000D01*
X1972318Y1709438*
X1972318D02*
X1972727Y1708313D01*
X1972727D02*
Y1707188D01*
X1972727D02*
X1972318Y1706063D01*
X1972318D02*
X1971909Y1705500D01*
X1970682Y1704938*
X1967000D02*
X1970682D01*
X1970682D02*
X1971909Y1704375D01*
X1972318Y1703813*
X1972318D02*
X1972727Y1702688D01*
X1972727D02*
Y1701000D01*
X1972318Y1699875*
X1971909Y1699313*
X1971909D02*
X1970682Y1698750D01*
X1967000*
X1976409Y1710563D02*
Y1698750D01*
Y1710563D02*
X1980091D01*
X1980091D02*
X1981318Y1710000D01*
X1981727Y1709438*
X1981727D02*
X1982136Y1708313D01*
X1982136D02*
Y1707188D01*
X1982136D02*
X1981727Y1706063D01*
X1981727D02*
X1981318Y1705500D01*
X1980091Y1704938*
X1980091D02*
X1976409D01*
X1979273D02*
X1982136Y1698750D01*
X1985818Y1710563D02*
Y1698750D01*
Y1710563D02*
X1991136D01*
X1985818Y1704938D02*
X1989091D01*
X1985818Y1698750D02*
X1991136D01*
X1994818Y1710563D02*
Y1698750D01*
Y1710563D02*
X2000136D01*
X1994818Y1704938D02*
X1998091D01*
X2003818Y1710563D02*
Y1698750D01*
Y1710563D02*
X2006682D01*
X2006682D02*
X2007909Y1710000D01*
X2008727Y1708875*
X2009136Y1707750*
X2009545Y1706063*
X2009545D02*
Y1703250D01*
X2009136Y1701563*
X2009136D02*
X2008727Y1700438D01*
X2008727D02*
X2007909Y1699313D01*
X2007909D02*
X2006682Y1698750D01*
X2003818*
X2013227Y1710563D02*
Y1698750D01*
Y1710563D02*
X2018545D01*
X2013227Y1704938D02*
X2016500D01*
X2013227Y1698750D02*
X2018545D01*
X2027955Y1708875D02*
X2027136Y1710000D01*
X2025909Y1710563*
X2025909D02*
X2024273D01*
X2024273D02*
X2023045Y1710000D01*
X2022227Y1708875*
Y1707750*
X2022636Y1706625*
X2023045Y1706063*
X2023045D02*
X2023864Y1705500D01*
X2026318Y1704375*
X2027136Y1703813*
X2027136D02*
X2027545Y1703250D01*
X2027955Y1702125*
Y1700438*
X2027955D02*
X2027136Y1699313D01*
X2027136D02*
X2025909Y1698750D01*
X2024273*
X2023045Y1699313*
X2023045D02*
X2022227Y1700438D01*
X2031636Y1708313D02*
X2032455Y1708875D01*
X2033682Y1710563*
X2033682D02*
Y1698750D01*
X2037773Y1707750D02*
Y1708313D01*
X2037773D02*
X2038182Y1709438D01*
X2038182D02*
X2038591Y1710000D01*
X2039409Y1710563*
X2039409D02*
X2041045D01*
X2041045D02*
X2041864Y1710000D01*
X2042273Y1709438*
X2042273D02*
X2042682Y1708313D01*
X2042682D02*
Y1707188D01*
X2042682D02*
X2042273Y1706063D01*
X2042273D02*
X2041455Y1704375D01*
X2037364Y1698750*
X2043091*
X1908636Y1747750D02*
X1908227Y1748875D01*
X1907409Y1750000*
X1906591Y1750563*
X1906591D02*
X1904955D01*
X1904955D02*
X1904136Y1750000D01*
X1903318Y1748875*
X1902909Y1747750*
X1902500Y1746063*
X1902500D02*
Y1743250D01*
X1902909Y1741563*
X1902909D02*
X1903318Y1740438D01*
X1903318D02*
X1904136Y1739313D01*
X1904136D02*
X1904955Y1738750D01*
X1906591*
X1907409Y1739313*
X1907409D02*
X1908227Y1740438D01*
X1908227D02*
X1908636Y1741563D01*
X1914773Y1750563D02*
X1913955Y1750000D01*
X1913136Y1748875*
X1912727Y1747750*
X1912318Y1746063*
X1912318D02*
Y1743250D01*
X1912727Y1741563*
X1912727D02*
X1913136Y1740438D01*
X1913136D02*
X1913955Y1739313D01*
X1913955D02*
X1914773Y1738750D01*
X1916409*
X1917227Y1739313*
X1917227D02*
X1918045Y1740438D01*
X1918045D02*
X1918455Y1741563D01*
X1918455D02*
X1918864Y1743250D01*
Y1746063*
X1918864D02*
X1918455Y1747750D01*
X1918045Y1748875*
X1917227Y1750000*
X1916409Y1750563*
X1916409D02*
X1914773D01*
X1922545D02*
Y1738750D01*
Y1750563D02*
X1926227D01*
X1926227D02*
X1927455Y1750000D01*
X1927864Y1749438*
X1927864D02*
X1928273Y1748313D01*
X1928273D02*
Y1747188D01*
X1928273D02*
X1927864Y1746063D01*
X1927864D02*
X1927455Y1745500D01*
X1926227Y1744938*
X1926227D02*
X1922545D01*
X1925409D02*
X1928273Y1738750D01*
X1934409Y1750563D02*
X1933591Y1750000D01*
X1932773Y1748875*
X1932364Y1747750*
X1931955Y1746063*
X1931955D02*
Y1743250D01*
X1932364Y1741563*
X1932364D02*
X1932773Y1740438D01*
X1932773D02*
X1933591Y1739313D01*
X1933591D02*
X1934409Y1738750D01*
X1936045*
X1936864Y1739313*
X1936864D02*
X1937682Y1740438D01*
X1937682D02*
X1938091Y1741563D01*
X1938091D02*
X1938500Y1743250D01*
Y1746063*
X1938500D02*
X1938091Y1747750D01*
X1937682Y1748875*
X1936864Y1750000*
X1936045Y1750563*
X1936045D02*
X1934409D01*
X1942182D02*
Y1738750D01*
Y1750563D02*
X1947909Y1738750D01*
Y1750563D02*
Y1738750D01*
X1954864Y1750563D02*
X1951591Y1738750D01*
X1954864Y1750563D02*
X1958136Y1738750D01*
X1952818Y1742688D02*
X1956909D01*
X1974091Y1752813D02*
X1973273Y1751688D01*
X1973273D02*
X1972455Y1750000D01*
X1971636Y1747750*
X1971227Y1744938*
X1971227D02*
Y1742688D01*
X1971227D02*
X1971636Y1739875D01*
X1972455Y1737625*
X1973273Y1735937*
X1973273D02*
X1974091Y1734812D01*
X1977773Y1750563D02*
Y1738750D01*
Y1750563D02*
X1981045Y1738750D01*
X1984318Y1750563D02*
X1981045Y1738750D01*
X1984318Y1750563D02*
Y1738750D01*
X1991273Y1750563D02*
X1988000Y1738750D01*
X1991273Y1750563D02*
X1994545Y1738750D01*
X1989227Y1742688D02*
X1993318D01*
X1998227Y1750563D02*
X2003955Y1738750D01*
Y1750563D02*
X1998227Y1738750D01*
X2007636Y1750563D02*
Y1738750D01*
Y1750563D02*
X2011318D01*
X2011318D02*
X2012545Y1750000D01*
X2012955Y1749438*
X2012955D02*
X2013364Y1748313D01*
X2013364D02*
Y1747188D01*
X2013364D02*
X2012955Y1746063D01*
X2012955D02*
X2012545Y1745500D01*
X2011318Y1744938*
X2011318D02*
X2007636D01*
X2010500D02*
X2013364Y1738750D01*
X2017045Y1750563D02*
Y1738750D01*
Y1750563D02*
X2022364D01*
X2017045Y1744938D02*
X2020318D01*
X2017045Y1738750D02*
X2022364D01*
X2026045Y1750563D02*
Y1738750D01*
Y1750563D02*
X2031364D01*
X2026045Y1744938D02*
X2029318D01*
X2035045Y1750563D02*
Y1738750D01*
Y1750563D02*
X2037909D01*
X2037909D02*
X2039136Y1750000D01*
X2039955Y1748875*
X2040364Y1747750*
X2040773Y1746063*
X2040773D02*
Y1743250D01*
X2040364Y1741563*
X2040364D02*
X2039955Y1740438D01*
X2039955D02*
X2039136Y1739313D01*
X2039136D02*
X2037909Y1738750D01*
X2035045*
X2044455Y1750563D02*
Y1738750D01*
Y1750563D02*
X2049773D01*
X2044455Y1744938D02*
X2047727D01*
X2044455Y1738750D02*
X2049773D01*
X2059182Y1748875D02*
X2058364Y1750000D01*
X2057136Y1750563*
X2057136D02*
X2055500D01*
X2055500D02*
X2054273Y1750000D01*
X2053455Y1748875*
Y1747750*
X2053864Y1746625*
X2054273Y1746063*
X2054273D02*
X2055091Y1745500D01*
X2057545Y1744375*
X2058364Y1743813*
X2058364D02*
X2058773Y1743250D01*
X2059182Y1742125*
Y1740438*
X2059182D02*
X2058364Y1739313D01*
X2058364D02*
X2057136Y1738750D01*
X2055500*
X2054273Y1739313*
X2054273D02*
X2053455Y1740438D01*
X2062864Y1748313D02*
X2063682Y1748875D01*
X2064909Y1750563*
X2064909D02*
Y1738750D01*
X2069000Y1747750D02*
Y1748313D01*
X2069000D02*
X2069409Y1749438D01*
X2069409D02*
X2069818Y1750000D01*
X2070636Y1750563*
X2070636D02*
X2072273D01*
X2072273D02*
X2073091Y1750000D01*
X2073500Y1749438*
X2073500D02*
X2073909Y1748313D01*
X2073909D02*
Y1747188D01*
X2073909D02*
X2073500Y1746063D01*
X2073500D02*
X2072682Y1744375D01*
X2068591Y1738750*
X2074318*
X2081273Y1752813D02*
X2078409Y1734812D01*
X2083727Y1752813D02*
X2080864Y1734812D01*
X2078409Y1745500D02*
X2084136D01*
X2078000Y1742125D02*
X2083727D01*
X2087818Y1752813D02*
X2088636Y1751688D01*
X2088636D02*
X2089455Y1750000D01*
X2090273Y1747750*
X2090682Y1744938*
X2090682D02*
Y1742688D01*
X2090682D02*
X2090273Y1739875D01*
X2089455Y1737625*
X2088636Y1735937*
X2088636D02*
X2087818Y1734812D01*
X2110227Y1703594D02*
X2107500Y1693750D01*
X2110227Y1703594D02*
X2112955Y1693750D01*
X2108523Y1697031D02*
X2111932D01*
X2006818Y1610313D02*
X2005000Y1603750D01*
X2006818Y1610313D02*
X2008636Y1603750D01*
X2005682Y1605938D02*
X2007955D01*
X2010682Y1610313D02*
Y1603750D01*
X2013409*
X2015455Y1610313D02*
Y1603750D01*
X2018182*
X2025455Y1610313D02*
Y1605625D01*
X2025682Y1604688*
X2025682D02*
X2026136Y1604063D01*
X2026136D02*
X2026818Y1603750D01*
X2027273*
X2027955Y1604063*
X2027955D02*
X2028409Y1604688D01*
X2028409D02*
X2028636Y1605625D01*
Y1610313*
X2030682D02*
Y1603750D01*
Y1610313D02*
X2033864Y1603750D01*
Y1610313D02*
Y1603750D01*
X2035909Y1610313D02*
Y1603750D01*
X2039545Y1610313D02*
Y1603750D01*
X2037955Y1610313D02*
X2041136D01*
X2046364Y1609375D02*
X2045909Y1610000D01*
X2045227Y1610313*
X2045227D02*
X2044318D01*
X2044318D02*
X2043636Y1610000D01*
X2043182Y1609375*
Y1608750*
X2043409Y1608125*
X2043636Y1607813*
X2043636D02*
X2044091Y1607500D01*
X2045455Y1606875*
X2045909Y1606563*
X2045909D02*
X2046136Y1606250D01*
X2046364Y1605625*
Y1604688*
X2046364D02*
X2045909Y1604063D01*
X2045909D02*
X2045227Y1603750D01*
X2044318*
X2043636Y1604063*
X2043636D02*
X2043182Y1604688D01*
X2055455Y1610313D02*
X2053636Y1603750D01*
X2055455Y1610313D02*
X2057273Y1603750D01*
X2054318Y1605938D02*
X2056591D01*
X2059318Y1610313D02*
Y1603750D01*
Y1610313D02*
X2061364D01*
X2061364D02*
X2062045Y1610000D01*
X2062273Y1609688*
X2062273D02*
X2062500Y1609063D01*
X2062500D02*
Y1608438D01*
X2062500D02*
X2062273Y1607813D01*
X2062273D02*
X2062045Y1607500D01*
X2061364Y1607188*
X2061364D02*
X2059318D01*
X2060909D02*
X2062500Y1603750D01*
X2064545Y1610313D02*
Y1603750D01*
Y1610313D02*
X2067500D01*
X2064545Y1607188D02*
X2066364D01*
X2064545Y1603750D02*
X2067500D01*
X2074773Y1610313D02*
Y1603750D01*
X2076818Y1610313D02*
Y1603750D01*
Y1610313D02*
X2080000Y1603750D01*
Y1610313D02*
Y1603750D01*
X2088636Y1610313D02*
X2087955Y1610000D01*
X2087500Y1609063*
X2087500D02*
X2087273Y1607500D01*
Y1606563*
X2087273D02*
X2087500Y1605000D01*
X2087955Y1604063*
X2087955D02*
X2088636Y1603750D01*
X2089091*
X2089773Y1604063*
X2089773D02*
X2090227Y1605000D01*
X2090455Y1606563*
X2090455D02*
Y1607500D01*
X2090227Y1609063*
X2090227D02*
X2089773Y1610000D01*
X2089091Y1610313*
X2089091D02*
X2088636D01*
X2092727Y1604375D02*
X2092500Y1604063D01*
X2092500D02*
X2092727Y1603750D01*
X2092955Y1604063*
X2092955D02*
X2092727Y1604375D01*
X2096364Y1610313D02*
X2095682Y1610000D01*
X2095227Y1609063*
X2095227D02*
X2095000Y1607500D01*
Y1606563*
X2095000D02*
X2095227Y1605000D01*
X2095682Y1604063*
X2095682D02*
X2096364Y1603750D01*
X2096818*
X2097500Y1604063*
X2097500D02*
X2097955Y1605000D01*
X2098182Y1606563*
X2098182D02*
Y1607500D01*
X2097955Y1609063*
X2097955D02*
X2097500Y1610000D01*
X2096818Y1610313*
X2096818D02*
X2096364D01*
X2101591D02*
X2100909Y1610000D01*
X2100455Y1609063*
X2100455D02*
X2100227Y1607500D01*
Y1606563*
X2100227D02*
X2100455Y1605000D01*
X2100909Y1604063*
X2100909D02*
X2101591Y1603750D01*
X2102045*
X2102727Y1604063*
X2102727D02*
X2103182Y1605000D01*
X2103409Y1606563*
X2103409D02*
Y1607500D01*
X2103182Y1609063*
X2103182D02*
X2102727Y1610000D01*
X2102045Y1610313*
X2102045D02*
X2101591D01*
X2105455Y1609063D02*
X2105909Y1609375D01*
X2106591Y1610313*
X2106591D02*
Y1603750D01*
X2108636Y1610313D02*
Y1608125D01*
X2110455Y1610313D02*
Y1608125D01*
X1921591Y1632813D02*
Y1626250D01*
X1920000Y1632813D02*
X1923182D01*
X1926591D02*
X1926136Y1632500D01*
X1925682Y1631875*
X1925455Y1631250*
X1925227Y1630313*
X1925227D02*
Y1628750D01*
X1925455Y1627813*
X1925455D02*
X1925682Y1627188D01*
X1925682D02*
X1926136Y1626563D01*
X1926136D02*
X1926591Y1626250D01*
X1927500*
X1927955Y1626563*
X1927955D02*
X1928409Y1627188D01*
X1928409D02*
X1928636Y1627813D01*
X1928636D02*
X1928864Y1628750D01*
Y1630313*
X1928864D02*
X1928636Y1631250D01*
X1928409Y1631875*
X1927955Y1632500*
X1927500Y1632813*
X1927500D02*
X1926591D01*
X1930909D02*
Y1626250D01*
Y1632813D02*
X1932955D01*
X1932955D02*
X1933636Y1632500D01*
X1933864Y1632188*
X1933864D02*
X1934091Y1631563D01*
X1934091D02*
Y1630625D01*
X1933864Y1630000*
X1933636Y1629688*
X1933636D02*
X1932955Y1629375D01*
X1930909*
X1944545Y1631875D02*
X1944091Y1632500D01*
X1943409Y1632813*
X1943409D02*
X1942500D01*
X1942500D02*
X1941818Y1632500D01*
X1941364Y1631875*
Y1631250*
X1941591Y1630625*
X1941818Y1630313*
X1941818D02*
X1942273Y1630000D01*
X1943636Y1629375*
X1944091Y1629063*
X1944091D02*
X1944318Y1628750D01*
X1944545Y1628125*
Y1627188*
X1944545D02*
X1944091Y1626563D01*
X1944091D02*
X1943409Y1626250D01*
X1942500*
X1941818Y1626563*
X1941818D02*
X1941364Y1627188D01*
X1946591Y1632813D02*
Y1626250D01*
X1948636Y1632813D02*
Y1626250D01*
X1951364*
X1953409Y1632813D02*
Y1626250D01*
X1956591Y1632813D02*
X1953409Y1628438D01*
X1954545Y1630000D02*
X1956591Y1626250D01*
X1961818Y1631875D02*
X1961364Y1632500D01*
X1960682Y1632813*
X1960682D02*
X1959773D01*
X1959773D02*
X1959091Y1632500D01*
X1958636Y1631875*
Y1631250*
X1958864Y1630625*
X1959091Y1630313*
X1959091D02*
X1959545Y1630000D01*
X1960909Y1629375*
X1961364Y1629063*
X1961364D02*
X1961591Y1628750D01*
X1961818Y1628125*
Y1627188*
X1961818D02*
X1961364Y1626563D01*
X1961364D02*
X1960682Y1626250D01*
X1959773*
X1959091Y1626563*
X1959091D02*
X1958636Y1627188D01*
X1967273Y1631250D02*
X1967045Y1631875D01*
X1966591Y1632500*
X1966136Y1632813*
X1966136D02*
X1965227D01*
X1965227D02*
X1964773Y1632500D01*
X1964318Y1631875*
X1964091Y1631250*
X1963864Y1630313*
X1963864D02*
Y1628750D01*
X1964091Y1627813*
X1964091D02*
X1964318Y1627188D01*
X1964318D02*
X1964773Y1626563D01*
X1964773D02*
X1965227Y1626250D01*
X1966136*
X1966591Y1626563*
X1966591D02*
X1967045Y1627188D01*
X1967045D02*
X1967273Y1627813D01*
X1969318Y1632813D02*
Y1626250D01*
Y1632813D02*
X1971364D01*
X1971364D02*
X1972045Y1632500D01*
X1972273Y1632188*
X1972273D02*
X1972500Y1631563D01*
X1972500D02*
Y1630938D01*
X1972500D02*
X1972273Y1630313D01*
X1972273D02*
X1972045Y1630000D01*
X1971364Y1629688*
X1971364D02*
X1969318D01*
X1970909D02*
X1972500Y1626250D01*
X1974545Y1632813D02*
Y1626250D01*
Y1632813D02*
X1977500D01*
X1974545Y1629688D02*
X1976364D01*
X1974545Y1626250D02*
X1977500D01*
X1979545Y1632813D02*
Y1626250D01*
Y1632813D02*
X1982500D01*
X1979545Y1629688D02*
X1981364D01*
X1979545Y1626250D02*
X1982500D01*
X1984545Y1632813D02*
Y1626250D01*
Y1632813D02*
X1987727Y1626250D01*
Y1632813D02*
Y1626250D01*
G54D180*
X2002500Y1556136D02*
X2002062Y1555977D01*
X2001625Y1555659*
X2001406Y1555341*
Y1554705*
X2001625Y1554386*
X2002062Y1554068*
X2002500Y1553909*
X2003156Y1553750*
X2004250*
X2004906Y1553909*
X2005344Y1554068*
X2005781Y1554386*
X2006000Y1554705*
Y1555341*
X2005781Y1555659*
X2005344Y1555977*
X2004906Y1556136*
X2002281Y1557568D02*
X2002062Y1557886D01*
X2001406Y1558364*
X2006000*
X2002281Y1559795D02*
X2002062Y1560114D01*
X2001406Y1560591*
X2006000*
X1987500Y1527636D02*
X1987062Y1527477D01*
X1987062D02*
X1986625Y1527159D01*
X1986406Y1526841*
Y1526205*
X1986625Y1525886*
X1987062Y1525568*
X1987062D02*
X1987500Y1525409D01*
X1988156Y1525250*
X1989250*
X1989906Y1525409*
X1990344Y1525568*
X1990781Y1525886*
X1991000Y1526205*
Y1526841*
X1990781Y1527159*
X1990344Y1527477*
X1989906Y1527636*
X1987281Y1529068D02*
X1987062Y1529386D01*
X1987062D02*
X1986406Y1529864D01*
X1991000*
X1986406Y1532886D02*
X1989469Y1531295D01*
Y1533682*
X1986406Y1532886D02*
X1991000D01*
X1895500Y1549844D02*
Y1545250D01*
Y1549844D02*
X1896614D01*
X1897091Y1549625*
X1897409Y1549188*
X1897568Y1548750*
X1897727Y1548094*
Y1547000*
X1897568Y1546344*
X1897409Y1545906*
X1897091Y1545469*
X1896614Y1545250*
X1895500*
X1899477Y1549844D02*
X1901227D01*
X1900273Y1548094*
X1900750*
X1901068Y1547875*
X1901227Y1547656*
X1901386Y1547000*
Y1546563*
X1901227Y1545906*
X1900909Y1545469*
X1900432Y1545250*
X1899955*
X1899477Y1545469*
X1899318Y1545688*
X1899159Y1546125*
X1967500Y1544344D02*
Y1539750D01*
Y1544344D02*
X1968614D01*
X1969091Y1544125*
X1969409Y1543688*
X1969409D02*
X1969568Y1543250D01*
X1969727Y1542594*
Y1541500*
X1969568Y1540844*
X1969409Y1540406*
X1969091Y1539969*
X1968614Y1539750*
X1967500*
X1972750Y1544344D02*
X1971159Y1541281D01*
X1973545*
X1972750Y1544344D02*
Y1539750D01*
X2051386Y1523750D02*
X2051227Y1524188D01*
X2051227D02*
X2050909Y1524625D01*
X2050591Y1524844*
X2049955*
X2049636Y1524625*
X2049318Y1524188*
X2049318D02*
X2049159Y1523750D01*
X2049000Y1523094*
Y1522000*
X2049159Y1521344*
X2049318Y1520906*
X2049636Y1520469*
X2049955Y1520250*
X2050591*
X2050909Y1520469*
X2051227Y1520906*
X2051386Y1521344*
X2052977Y1523750D02*
Y1523969D01*
X2053136Y1524406*
X2053295Y1524625*
X2053614Y1524844*
X2054250*
X2054568Y1524625*
X2054727Y1524406*
X2054886Y1523969*
Y1523531*
X2054727Y1523094*
X2054409Y1522438*
X2054409D02*
X2052818Y1520250D01*
X2055045*
X1981000Y1557136D02*
X1980562Y1556977D01*
X1980562D02*
X1980125Y1556659D01*
X1979906Y1556341*
Y1555705*
X1980125Y1555386*
X1980562Y1555068*
X1980562D02*
X1981000Y1554909D01*
X1981656Y1554750*
X1982750*
X1983406Y1554909*
X1983844Y1555068*
X1984281Y1555386*
X1984500Y1555705*
Y1556341*
X1984281Y1556659*
X1983844Y1556977*
X1983406Y1557136*
X1980781Y1558568D02*
X1980562Y1558886D01*
X1980562D02*
X1979906Y1559364D01*
X1984500*
X1981000Y1560955D02*
X1980781D01*
X1980344Y1561114*
X1980125Y1561273*
X1979906Y1561591*
Y1562227*
X1980125Y1562545*
X1980344Y1562705*
X1980781Y1562864*
X1981219*
X1981656Y1562705*
X1982312Y1562386*
X1982312D02*
X1984500Y1560795D01*
Y1563023*
X2076906Y1519250D02*
X2081500D01*
X2076906D02*
Y1520364D01*
X2077125Y1520841*
X2077562Y1521159*
X2077562D02*
X2078000Y1521318D01*
X2078656Y1521477*
X2079750*
X2080406Y1521318*
X2080844Y1521159*
X2081281Y1520841*
X2081500Y1520364*
Y1519250*
X2077781Y1522909D02*
X2077562Y1523227D01*
X2077562D02*
X2076906Y1523705D01*
X2081500*
X2100000Y1500844D02*
Y1496250D01*
Y1500844D02*
X2101432D01*
X2101909Y1500625*
X2102068Y1500406*
X2102227Y1499969*
Y1499531*
X2102068Y1499094*
X2101909Y1498875*
X2101432Y1498656*
X2100000*
X2101114D02*
X2102227Y1496250D01*
X2103818Y1499750D02*
Y1499969D01*
X2103977Y1500406*
X2104136Y1500625*
X2104455Y1500844*
X2105091*
X2105409Y1500625*
X2105568Y1500406*
X2105727Y1499969*
Y1499531*
X2105568Y1499094*
X2105250Y1498438*
X2105250D02*
X2103659Y1496250D01*
X2105886*
X2048500Y1560844D02*
Y1556250D01*
Y1560844D02*
X2049932D01*
X2050409Y1560625*
X2050568Y1560406*
X2050727Y1559969*
Y1559531*
X2050568Y1559094*
X2050409Y1558875*
X2049932Y1558656*
X2048500*
X2049614D02*
X2050727Y1556250D01*
X2052159Y1559969D02*
X2052477Y1560188D01*
X2052477D02*
X2052955Y1560844D01*
Y1556250*
X2100000Y1515844D02*
Y1511250D01*
Y1515844D02*
X2101432D01*
X2101909Y1515625*
X2102068Y1515406*
X2102227Y1514969*
Y1514531*
X2102068Y1514094*
X2101909Y1513875*
X2101432Y1513656*
X2100000*
X2101114D02*
X2102227Y1511250D01*
X2103977Y1515844D02*
X2105727D01*
X2104773Y1514094*
X2105250*
X2105568Y1513875*
X2105727Y1513656*
X2105886Y1513000*
Y1512563*
X2105886D02*
X2105727Y1511906D01*
X2105409Y1511469*
X2104932Y1511250*
X2104455*
X2103977Y1511469*
X2103818Y1511688*
X2103818D02*
X2103659Y1512125D01*
X1895000Y1518344D02*
Y1513750D01*
Y1518344D02*
X1896432D01*
X1896909Y1518125*
X1897068Y1517906*
X1897227Y1517469*
Y1517031*
X1897068Y1516594*
X1896909Y1516375*
X1896432Y1516156*
X1895000*
X1896114D02*
X1897227Y1513750D01*
X1898659Y1517469D02*
X1898977Y1517688D01*
X1899455Y1518344*
Y1513750*
X1901205Y1518344D02*
X1902955D01*
X1902000Y1516594*
X1902477*
X1902795Y1516375*
X1902955Y1516156*
X1903114Y1515500*
Y1515063*
X1902955Y1514406*
X1902636Y1513969*
X1902159Y1513750*
X1901682*
X1901205Y1513969*
X1901045Y1514188*
X1900886Y1514625*
X2135000Y1548344D02*
Y1543750D01*
Y1548344D02*
X2136432D01*
X2136909Y1548125*
X2137068Y1547906*
X2137227Y1547469*
Y1547031*
X2137068Y1546594*
X2136909Y1546375*
X2136432Y1546156*
X2135000*
X2136114D02*
X2137227Y1543750D01*
X2139455Y1548344D02*
X2138977Y1548125D01*
X2138818Y1547688*
X2138818D02*
Y1547250D01*
X2138977Y1546813*
X2138977D02*
X2139295Y1546594D01*
X2139932Y1546375*
X2140409Y1546156*
X2140727Y1545719*
X2140886Y1545281*
Y1544625*
X2140727Y1544188*
X2140727D02*
X2140568Y1543969D01*
X2140091Y1543750*
X2139455*
X2138977Y1543969*
X2138818Y1544188*
X2138818D02*
X2138659Y1544625D01*
Y1545281*
X2138818Y1545719*
X2139136Y1546156*
X2139614Y1546375*
X2140250Y1546594*
X2140568Y1546813*
X2140568D02*
X2140727Y1547250D01*
Y1547688*
X2140727D02*
X2140568Y1548125D01*
X2140091Y1548344*
X2139455*
X2135000Y1558344D02*
Y1553750D01*
Y1558344D02*
X2136432D01*
X2136909Y1558125*
X2137068Y1557906*
X2137227Y1557469*
Y1557031*
X2137068Y1556594*
X2136909Y1556375*
X2136432Y1556156*
X2135000*
X2136114D02*
X2137227Y1553750D01*
X2140727Y1556813D02*
X2140568Y1556156D01*
X2140250Y1555719*
X2139773Y1555500*
X2139614*
X2139136Y1555719*
X2138818Y1556156*
X2138659Y1556813*
X2138659D02*
Y1557031D01*
X2138818Y1557688*
X2138818D02*
X2139136Y1558125D01*
X2139614Y1558344*
X2139773*
X2140250Y1558125*
X2140568Y1557688*
X2140568D02*
X2140727Y1556813D01*
X2140727D02*
Y1555719D01*
X2140568Y1554625*
X2140250Y1553969*
X2139773Y1553750*
X2139455*
X2138977Y1553969*
X2138818Y1554406*
X2041886Y1532250D02*
X2041727Y1532688D01*
X2041727D02*
X2041409Y1533125D01*
X2041091Y1533344*
X2040455*
X2040136Y1533125*
X2039818Y1532688*
X2039818D02*
X2039659Y1532250D01*
X2039500Y1531594*
Y1530500*
X2039659Y1529844*
X2039818Y1529406*
X2040136Y1528969*
X2040455Y1528750*
X2041091*
X2041409Y1528969*
X2041727Y1529406*
X2041886Y1529844*
X2043318Y1532469D02*
X2043636Y1532688D01*
X2043636D02*
X2044114Y1533344D01*
Y1528750*
X1995000Y1533344D02*
Y1528750D01*
Y1533344D02*
X1996114D01*
X1996591Y1533125*
X1996909Y1532688*
X1997068Y1532250*
X1997227Y1531594*
Y1530500*
X1997068Y1529844*
X1996909Y1529406*
X1996591Y1528969*
X1996114Y1528750*
X1995000*
X1998818Y1532250D02*
Y1532469D01*
X1998977Y1532906*
X1999136Y1533125*
X1999455Y1533344*
X2000091*
X2000409Y1533125*
X2000568Y1532906*
X2000727Y1532469*
Y1532031*
X2000568Y1531594*
X2000250Y1530938*
X1998659Y1528750*
X2000886*
X2135000Y1503344D02*
Y1498750D01*
Y1503344D02*
X2136432D01*
X2136909Y1503125*
X2137068Y1502906*
X2137227Y1502469*
Y1502031*
X2137068Y1501594*
X2136909Y1501375*
X2136432Y1501156*
X2135000*
X2136114D02*
X2137227Y1498750D01*
X2140250Y1503344D02*
X2138659Y1500281D01*
X2141045*
X2140250Y1503344D02*
Y1498750D01*
X2135000Y1513344D02*
Y1508750D01*
Y1513344D02*
X2136432D01*
X2136909Y1513125*
X2137068Y1512906*
X2137227Y1512469*
Y1512031*
X2137068Y1511594*
X2136909Y1511375*
X2136432Y1511156*
X2135000*
X2136114D02*
X2137227Y1508750D01*
X2140727Y1513344D02*
X2139136D01*
X2138977Y1511375*
X2139136Y1511594*
X2139614Y1511813*
X2139614D02*
X2140091D01*
X2140091D02*
X2140568Y1511594D01*
X2140886Y1511156*
X2141045Y1510500*
X2140886Y1510063*
X2140886D02*
X2140727Y1509406D01*
X2140409Y1508969*
X2139932Y1508750*
X2139455*
X2138977Y1508969*
X2138818Y1509188*
X2138818D02*
X2138659Y1509625D01*
X2135000Y1523344D02*
Y1518750D01*
Y1523344D02*
X2136432D01*
X2136909Y1523125*
X2137068Y1522906*
X2137227Y1522469*
Y1522031*
X2137068Y1521594*
X2136909Y1521375*
X2136432Y1521156*
X2135000*
X2136114D02*
X2137227Y1518750D01*
X2140568Y1522688D02*
X2140409Y1523125D01*
X2139932Y1523344*
X2139614*
X2139136Y1523125*
X2138818Y1522469*
X2138659Y1521375*
Y1520281*
X2138818Y1519406*
X2139136Y1518969*
X2139614Y1518750*
X2139773*
X2140250Y1518969*
X2140568Y1519406*
X2140727Y1520063*
X2140727D02*
Y1520281D01*
X2140568Y1520938*
X2140568D02*
X2140250Y1521375D01*
X2139773Y1521594*
X2139614*
X2139136Y1521375*
X2138818Y1520938*
X2138818D02*
X2138659Y1520281D01*
X2135000Y1538344D02*
Y1533750D01*
Y1538344D02*
X2136432D01*
X2136909Y1538125*
X2137068Y1537906*
X2137227Y1537469*
Y1537031*
X2137068Y1536594*
X2136909Y1536375*
X2136432Y1536156*
X2135000*
X2136114D02*
X2137227Y1533750D01*
X2140886Y1538344D02*
X2139295Y1533750D01*
X2138659Y1538344D02*
X2140886D01*
X1970406Y1546750D02*
X1975000D01*
X1970406D02*
Y1548182D01*
X1970625Y1548659*
X1970844Y1548818*
X1971281Y1548977*
X1971719*
X1972156Y1548818*
X1972375Y1548659*
X1972594Y1548182*
Y1546750*
Y1547864D02*
X1975000Y1548977D01*
X1971281Y1550409D02*
X1971062Y1550727D01*
X1971062D02*
X1970406Y1551205D01*
X1975000*
X1971281Y1552636D02*
X1971062Y1552955D01*
X1971062D02*
X1970406Y1553432D01*
X1975000*
X1872000Y1543636D02*
X1871562Y1543477D01*
X1871125Y1543159*
X1870906Y1542841*
Y1542205*
X1871125Y1541886*
X1871562Y1541568*
X1872000Y1541409*
X1872656Y1541250*
X1873750*
X1874406Y1541409*
X1874844Y1541568*
X1875281Y1541886*
X1875500Y1542205*
Y1542841*
X1875281Y1543159*
X1874844Y1543477*
X1874406Y1543636*
X1871781Y1545068D02*
X1871562Y1545386D01*
X1870906Y1545864*
X1875500*
X1870906Y1547614D02*
Y1549364D01*
X1872656Y1548409*
Y1548886*
X1872875Y1549205*
X1873094Y1549364*
X1873750Y1549523*
X1874187*
X1874844Y1549364*
X1875281Y1549045*
X1875500Y1548568*
Y1548091*
X1875281Y1547614*
X1875062Y1547455*
X1874625Y1547295*
X1844500Y1564969D02*
X1844818Y1565188D01*
X1844818D02*
X1845295Y1565844D01*
Y1561250*
X1836227Y1565844D02*
X1834636Y1561250D01*
X1834000Y1565844D02*
X1836227D01*
X1832500Y1494969D02*
X1832818Y1495188D01*
X1832818D02*
X1833295Y1495844D01*
Y1491250*
X1834886Y1494750D02*
Y1494969D01*
X1835045Y1495406*
X1835205Y1495625*
X1835523Y1495844*
X1836159*
X1836477Y1495625*
X1836636Y1495406*
X1836795Y1494969*
Y1494531*
X1836636Y1494094*
X1836318Y1493438*
X1836318D02*
X1834727Y1491250D01*
X1836955*
X1845909Y1495188D02*
X1845750Y1495625D01*
X1845273Y1495844*
X1844955*
X1844477Y1495625*
X1844159Y1494969*
X1844000Y1493875*
Y1492781*
X1844159Y1491906*
X1844477Y1491469*
X1844955Y1491250*
X1845114*
X1845591Y1491469*
X1845909Y1491906*
X1846068Y1492563*
X1846068D02*
Y1492781D01*
X1845909Y1493438*
X1845909D02*
X1845591Y1493875D01*
X1845114Y1494094*
X1844955*
X1844477Y1493875*
X1844159Y1493438*
X1844159D02*
X1844000Y1492781D01*
X2043500Y1521969D02*
X2043818Y1522188D01*
X2043818D02*
X2044295Y1522844D01*
Y1518250*
X2101818Y1531844D02*
X2103568D01*
X2102614Y1530094*
X2103091*
X2103409Y1529875*
X2103568Y1529656*
X2103727Y1529000*
Y1528563*
X2103727D02*
X2103568Y1527906D01*
X2103250Y1527469*
X2102773Y1527250*
X2102295*
X2101818Y1527469*
X2101659Y1527688*
X2101659D02*
X2101500Y1528125D01*
X1990000Y1522469D02*
X1990318Y1522688D01*
X1990318D02*
X1990795Y1523344D01*
Y1518750*
X2091659Y1530750D02*
Y1530969D01*
X2091818Y1531406*
X2091977Y1531625*
X2092295Y1531844*
X2092932*
X2093250Y1531625*
X2093409Y1531406*
X2093568Y1530969*
Y1530531*
X2093409Y1530094*
X2093091Y1529438*
X2093091D02*
X2091500Y1527250D01*
X2093727*
X1997500Y1499969D02*
X1997818Y1500188D01*
X1997818D02*
X1998295Y1500844D01*
Y1496250*
X2082000Y1530969D02*
X2082318Y1531188D01*
X2082318D02*
X2082795Y1531844D01*
Y1527250*
X2136000Y1564969D02*
X2136318Y1565188D01*
X2136318D02*
X2136795Y1565844D01*
Y1561250*
X2140136Y1565188D02*
X2139977Y1565625D01*
X2139500Y1565844*
X2139182*
X2138705Y1565625*
X2138386Y1564969*
X2138227Y1563875*
Y1562781*
X2138386Y1561906*
X2138705Y1561469*
X2139182Y1561250*
X2139341*
X2139818Y1561469*
X2140136Y1561906*
X2140295Y1562563*
X2140295D02*
Y1562781D01*
X2140136Y1563438*
X2140136D02*
X2139818Y1563875D01*
X2139341Y1564094*
X2139182*
X2138705Y1563875*
X2138386Y1563438*
X2138386D02*
X2138227Y1562781D01*
X2138659Y1494750D02*
Y1494969D01*
X2138818Y1495406*
X2138977Y1495625*
X2139295Y1495844*
X2139932*
X2140250Y1495625*
X2140409Y1495406*
X2140568Y1494969*
Y1494531*
X2140409Y1494094*
X2140091Y1493438*
X2140091D02*
X2138500Y1491250D01*
X2140727*
X2036500Y1499969D02*
X2036818Y1500188D01*
X2036818D02*
X2037295Y1500844D01*
Y1496250*
X2165500Y1495844D02*
Y1491250D01*
Y1495844D02*
X2167568D01*
X2165500Y1493656D02*
X2166773D01*
X2169000Y1495844D02*
Y1491250D01*
X2170432Y1495844D02*
Y1491250D01*
Y1495844D02*
X2172659Y1491250D01*
Y1495844D02*
Y1491250D01*
X2174091Y1494969D02*
X2174409Y1495188D01*
X2174409D02*
X2174886Y1495844D01*
Y1491250*
X2165500Y1505844D02*
Y1501250D01*
Y1505844D02*
X2167568D01*
X2165500Y1503656D02*
X2166773D01*
X2169000Y1505844D02*
Y1501250D01*
X2170432Y1505844D02*
Y1501250D01*
Y1505844D02*
X2172659Y1501250D01*
Y1505844D02*
Y1501250D01*
X2174250Y1504750D02*
Y1504969D01*
X2174409Y1505406*
X2174568Y1505625*
X2174886Y1505844*
X2175523*
X2175841Y1505625*
X2176000Y1505406*
X2176159Y1504969*
Y1504531*
X2176000Y1504094*
X2175682Y1503438*
X2175682D02*
X2174091Y1501250D01*
X2176318*
X2165500Y1515844D02*
Y1511250D01*
Y1515844D02*
X2167568D01*
X2165500Y1513656D02*
X2166773D01*
X2169000Y1515844D02*
Y1511250D01*
X2170432Y1515844D02*
Y1511250D01*
Y1515844D02*
X2172659Y1511250D01*
Y1515844D02*
Y1511250D01*
X2174409Y1515844D02*
X2176159D01*
X2175205Y1514094*
X2175682*
X2176000Y1513875*
X2176159Y1513656*
X2176318Y1513000*
Y1512563*
X2176318D02*
X2176159Y1511906D01*
X2175841Y1511469*
X2175364Y1511250*
X2174886*
X2174409Y1511469*
X2174250Y1511688*
X2174250D02*
X2174091Y1512125D01*
X2165500Y1525844D02*
Y1521250D01*
Y1525844D02*
X2167568D01*
X2165500Y1523656D02*
X2166773D01*
X2169000Y1525844D02*
Y1521250D01*
X2170432Y1525844D02*
Y1521250D01*
Y1525844D02*
X2172659Y1521250D01*
Y1525844D02*
Y1521250D01*
X2175682Y1525844D02*
X2174091Y1522781D01*
X2176477*
X2175682Y1525844D02*
Y1521250D01*
X2165500Y1565844D02*
Y1561250D01*
Y1565844D02*
X2167568D01*
X2165500Y1563656D02*
X2166773D01*
X2169000Y1565844D02*
Y1561250D01*
X2170432Y1565844D02*
Y1561250D01*
Y1565844D02*
X2172659Y1561250D01*
Y1565844D02*
Y1561250D01*
X2174886Y1565844D02*
X2174409Y1565625D01*
X2174250Y1565188*
X2174250D02*
Y1564750D01*
X2174409Y1564313*
X2174409D02*
X2174727Y1564094D01*
X2175364Y1563875*
X2175841Y1563656*
X2176159Y1563219*
X2176318Y1562781*
Y1562125*
X2176159Y1561688*
X2176159D02*
X2176000Y1561469D01*
X2175523Y1561250*
X2174886*
X2174409Y1561469*
X2174250Y1561688*
X2174250D02*
X2174091Y1562125D01*
Y1562781*
X2174250Y1563219*
X2174568Y1563656*
X2175045Y1563875*
X2175682Y1564094*
X2176000Y1564313*
X2176000D02*
X2176159Y1564750D01*
Y1565188*
X2176159D02*
X2176000Y1565625D01*
X2175523Y1565844*
X2174886*
X2165500Y1555844D02*
Y1551250D01*
Y1555844D02*
X2167568D01*
X2165500Y1553656D02*
X2166773D01*
X2169000Y1555844D02*
Y1551250D01*
X2170432Y1555844D02*
Y1551250D01*
Y1555844D02*
X2172659Y1551250D01*
Y1555844D02*
Y1551250D01*
X2176318Y1555844D02*
X2174727Y1551250D01*
X2174091Y1555844D02*
X2176318D01*
X2165500Y1545844D02*
Y1541250D01*
Y1545844D02*
X2167568D01*
X2165500Y1543656D02*
X2166773D01*
X2169000Y1545844D02*
Y1541250D01*
X2170432Y1545844D02*
Y1541250D01*
Y1545844D02*
X2172659Y1541250D01*
Y1545844D02*
Y1541250D01*
X2176000Y1545188D02*
X2175841Y1545625D01*
X2175364Y1545844*
X2175045*
X2174568Y1545625*
X2174250Y1544969*
X2174091Y1543875*
Y1542781*
X2174250Y1541906*
X2174568Y1541469*
X2175045Y1541250*
X2175205*
X2175682Y1541469*
X2176000Y1541906*
X2176159Y1542563*
X2176159D02*
Y1542781D01*
X2176000Y1543438*
X2176000D02*
X2175682Y1543875D01*
X2175205Y1544094*
X2175045*
X2174568Y1543875*
X2174250Y1543438*
X2174250D02*
X2174091Y1542781D01*
X2165500Y1535844D02*
Y1531250D01*
Y1535844D02*
X2167568D01*
X2165500Y1533656D02*
X2166773D01*
X2169000Y1535844D02*
Y1531250D01*
X2170432Y1535844D02*
Y1531250D01*
Y1535844D02*
X2172659Y1531250D01*
Y1535844D02*
Y1531250D01*
X2176159Y1535844D02*
X2174568D01*
X2174409Y1533875*
X2174568Y1534094*
X2175045Y1534313*
X2175045D02*
X2175523D01*
X2175523D02*
X2176000Y1534094D01*
X2176318Y1533656*
X2176477Y1533000*
X2176318Y1532563*
X2176318D02*
X2176159Y1531906D01*
X2175841Y1531469*
X2175364Y1531250*
X2174886*
X2174409Y1531469*
X2174250Y1531688*
X2174250D02*
X2174091Y1532125D01*
X1861386Y1543750D02*
X1861227Y1544188D01*
X1861227D02*
X1860909Y1544625D01*
X1860591Y1544844*
X1859955*
X1859636Y1544625*
X1859318Y1544188*
X1859318D02*
X1859159Y1543750D01*
X1859000Y1543094*
Y1542000*
X1859159Y1541344*
X1859318Y1540906*
X1859636Y1540469*
X1859955Y1540250*
X1860591*
X1860909Y1540469*
X1861227Y1540906*
X1861386Y1541344*
Y1542000*
X1860591D02*
X1861386D01*
X1862818Y1544844D02*
Y1540250D01*
Y1544844D02*
X1865045Y1540250D01*
Y1544844D02*
Y1540250D01*
X1866477Y1544844D02*
Y1540250D01*
Y1544844D02*
X1867591D01*
X1868068Y1544625*
X1868386Y1544188*
X1868386D02*
X1868545Y1543750D01*
X1868705Y1543094*
Y1542000*
X1868545Y1541344*
X1868386Y1540906*
X1868068Y1540469*
X1867591Y1540250*
X1866477*
X1905159Y1564750D02*
Y1564969D01*
X1905318Y1565406*
X1905477Y1565625*
X1905795Y1565844*
X1906432*
X1906750Y1565625*
X1906909Y1565406*
X1907068Y1564969*
Y1564531*
X1906909Y1564094*
X1906591Y1563438*
X1906591D02*
X1905000Y1561250D01*
X1907227*
X1910250Y1565844D02*
X1908659Y1562781D01*
X1911045*
X1910250Y1565844D02*
Y1561250D01*
X1912477Y1565844D02*
X1913750Y1561250D01*
X1915023Y1565844D02*
X1913750Y1561250D01*
X1916455Y1560375D02*
X1919795D01*
X1920750Y1565844D02*
Y1561250D01*
Y1565844D02*
X1922818D01*
X1920750Y1563656D02*
X1922023D01*
X1920750Y1561250D02*
X1922818D01*
X1924250Y1565844D02*
X1926477Y1561250D01*
Y1565844D02*
X1924250Y1561250D01*
X1929023Y1565844D02*
Y1561250D01*
X1927909Y1565844D02*
X1930136D01*
X2080159Y1549750D02*
Y1549969D01*
X2080318Y1550406*
X2080477Y1550625*
X2080795Y1550844*
X2081432*
X2081750Y1550625*
X2081909Y1550406*
X2082068Y1549969*
Y1549531*
X2081909Y1549094*
X2081591Y1548438*
X2081591D02*
X2080000Y1546250D01*
X2082227*
X2085250Y1550844D02*
X2083659Y1547781D01*
X2086045*
X2085250Y1550844D02*
Y1546250D01*
X2087477Y1550844D02*
X2088750Y1546250D01*
X2090023Y1550844D02*
X2088750Y1546250D01*
X2091455Y1545375D02*
X2094795D01*
X2095750Y1550844D02*
Y1546250D01*
Y1550844D02*
X2097818D01*
X2095750Y1548656D02*
X2097023D01*
X2099250Y1550844D02*
Y1546250D01*
X2100682Y1550844D02*
Y1546250D01*
Y1550844D02*
X2102750D01*
X2100682Y1548656D02*
X2101955D01*
X2100682Y1546250D02*
X2102750D01*
X2104182Y1550844D02*
Y1546250D01*
X2106091*
X2107523Y1550844D02*
Y1546250D01*
Y1550844D02*
X2108636D01*
X2109114Y1550625*
X2109432Y1550188*
X2109432D02*
X2109591Y1549750D01*
X2109750Y1549094*
Y1548000*
X2109591Y1547344*
X2109432Y1546906*
X2109114Y1546469*
X2108636Y1546250*
X2107523*
X2024886Y1555750D02*
X2024727Y1556188D01*
X2024727D02*
X2024409Y1556625D01*
X2024091Y1556844*
X2023455*
X2023136Y1556625*
X2022818Y1556188*
X2022818D02*
X2022659Y1555750D01*
X2022500Y1555094*
Y1554000*
X2022659Y1553344*
X2022818Y1552906*
X2023136Y1552469*
X2023455Y1552250*
X2024091*
X2024409Y1552469*
X2024727Y1552906*
X2024886Y1553344*
Y1554000*
X2024091D02*
X2024886D01*
X2026318Y1556844D02*
Y1552250D01*
Y1556844D02*
X2028545Y1552250D01*
Y1556844D02*
Y1552250D01*
X2029977Y1556844D02*
Y1552250D01*
Y1556844D02*
X2031091D01*
X2031568Y1556625*
X2031886Y1556188*
X2031886D02*
X2032045Y1555750D01*
X2032205Y1555094*
Y1554000*
X2032045Y1553344*
X2031886Y1552906*
X2031568Y1552469*
X2031091Y1552250*
X2029977*
X2063000Y1496844D02*
Y1492250D01*
Y1496844D02*
X2064114D01*
X2064591Y1496625*
X2064909Y1496188*
X2064909D02*
X2065068Y1495750D01*
X2065227Y1495094*
Y1494000*
X2065068Y1493344*
X2064909Y1492906*
X2064591Y1492469*
X2064114Y1492250*
X2063000*
X2066659Y1496844D02*
Y1492250D01*
Y1496844D02*
X2068091D01*
X2068568Y1496625*
X2068727Y1496406*
X2068886Y1495969*
Y1495531*
X2068727Y1495094*
X2068568Y1494875*
X2068091Y1494656*
X2066659D02*
X2068091D01*
X2068568Y1494438*
X2068568D02*
X2068727Y1494219D01*
X2068886Y1493781*
Y1493125*
X2068727Y1492688*
X2068727D02*
X2068568Y1492469D01*
X2068091Y1492250*
X2066659*
X2071273Y1496844D02*
X2070795Y1496625D01*
X2070477Y1495969*
X2070318Y1494875*
Y1494219*
X2070477Y1493125*
X2070795Y1492469*
X2071273Y1492250*
X2071591*
X2072068Y1492469*
X2072386Y1493125*
X2072545Y1494219*
Y1494875*
X2072386Y1495969*
X2072068Y1496625*
X2071591Y1496844*
X2071273*
X2063500Y1511344D02*
Y1506750D01*
Y1511344D02*
X2064614D01*
X2065091Y1511125*
X2065409Y1510688*
X2065409D02*
X2065568Y1510250D01*
X2065727Y1509594*
Y1508500*
X2065568Y1507844*
X2065409Y1507406*
X2065091Y1506969*
X2064614Y1506750*
X2063500*
X2067159Y1511344D02*
Y1506750D01*
Y1511344D02*
X2068591D01*
X2069068Y1511125*
X2069227Y1510906*
X2069386Y1510469*
Y1510031*
X2069227Y1509594*
X2069068Y1509375*
X2068591Y1509156*
X2067159D02*
X2068591D01*
X2069068Y1508938*
X2069068D02*
X2069227Y1508719D01*
X2069386Y1508281*
Y1507625*
X2069227Y1507188*
X2069227D02*
X2069068Y1506969D01*
X2068591Y1506750*
X2067159*
X2070818Y1510469D02*
X2071136Y1510688D01*
X2071136D02*
X2071614Y1511344D01*
Y1506750*
X1949000Y1510344D02*
Y1505750D01*
Y1510344D02*
X1950273Y1505750D01*
X1951545Y1510344D02*
X1950273Y1505750D01*
X1951545Y1510344D02*
Y1505750D01*
X1953932Y1510344D02*
X1953614Y1510125D01*
X1953295Y1509688*
X1953295D02*
X1953136Y1509250D01*
X1952977Y1508594*
Y1507500*
X1953136Y1506844*
X1953295Y1506406*
X1953614Y1505969*
X1953932Y1505750*
X1954568*
X1954886Y1505969*
X1955205Y1506406*
X1955364Y1506844*
X1955523Y1507500*
Y1508594*
X1955364Y1509250*
X1955205Y1509688*
X1955205D02*
X1954886Y1510125D01*
X1954568Y1510344*
X1953932*
X1956955D02*
Y1505750D01*
Y1510344D02*
X1958068D01*
X1958545Y1510125*
X1958864Y1509688*
X1958864D02*
X1959023Y1509250D01*
X1959182Y1508594*
Y1507500*
X1959023Y1506844*
X1958864Y1506406*
X1958545Y1505969*
X1958068Y1505750*
X1956955*
X1960614Y1510344D02*
Y1505750D01*
Y1510344D02*
X1962682D01*
X1960614Y1508156D02*
X1961886D01*
X1960614Y1505750D02*
X1962682D01*
X1966341Y1509688D02*
X1966023Y1510125D01*
X1965545Y1510344*
X1964909*
X1964432Y1510125*
X1964114Y1509688*
X1964114D02*
Y1509250D01*
X1964273Y1508813*
X1964273D02*
X1964432Y1508594D01*
X1964750Y1508375*
X1965705Y1507938*
X1965705D02*
X1966023Y1507719D01*
X1966182Y1507500*
X1966341Y1507063*
X1966341D02*
Y1506406D01*
X1966023Y1505969*
X1965545Y1505750*
X1964909*
X1964432Y1505969*
X1964114Y1506406*
X1967773Y1510344D02*
Y1505750D01*
Y1510344D02*
X1969841D01*
X1967773Y1508156D02*
X1969045D01*
X1967773Y1505750D02*
X1969841D01*
X1971273Y1510344D02*
Y1505750D01*
X1973182*
X1965227Y1496188D02*
X1964909Y1496625D01*
X1964432Y1496844*
X1963795*
X1963318Y1496625*
X1963000Y1496188*
X1963000D02*
Y1495750D01*
X1963159Y1495313*
X1963159D02*
X1963318Y1495094D01*
X1963636Y1494875*
X1964591Y1494438*
X1964591D02*
X1964909Y1494219D01*
X1965068Y1494000*
X1965227Y1493563*
X1965227D02*
Y1492906D01*
X1964909Y1492469*
X1964432Y1492250*
X1963795*
X1963318Y1492469*
X1963000Y1492906*
X1966659Y1496844D02*
Y1492250D01*
X1968091Y1496844D02*
Y1492250D01*
Y1496844D02*
X1970318Y1492250D01*
Y1496844D02*
Y1492250D01*
X1855000Y1503344D02*
Y1498750D01*
X1858182Y1501156D02*
X1858023Y1501594D01*
X1857545Y1501813*
X1857545D02*
X1857068D01*
X1857068D02*
X1856591Y1501594D01*
X1856432Y1501156*
X1856591Y1500719*
X1856909Y1500500*
X1857705Y1500281*
X1858023Y1500063*
X1858023D02*
X1858182Y1499625D01*
Y1499406*
X1858023Y1498969*
X1857545Y1498750*
X1857068*
X1856591Y1498969*
X1856432Y1499406*
X1860409Y1501813D02*
X1860091Y1501594D01*
X1859773Y1501156*
X1859614Y1500500*
Y1500063*
X1859614D02*
X1859773Y1499406D01*
X1860091Y1498969*
X1860409Y1498750*
X1860886*
X1861205Y1498969*
X1861523Y1499406*
X1861682Y1500063*
X1861682D02*
Y1500500D01*
X1861523Y1501156*
X1861205Y1501594*
X1860886Y1501813*
X1860886D02*
X1860409D01*
X1863114Y1503344D02*
Y1498750D01*
X1866455Y1501813D02*
Y1498750D01*
Y1501156D02*
X1866136Y1501594D01*
X1865818Y1501813*
X1865818D02*
X1865341D01*
X1865341D02*
X1865023Y1501594D01*
X1864705Y1501156*
X1864545Y1500500*
Y1500063*
X1864545D02*
X1864705Y1499406D01*
X1865023Y1498969*
X1865341Y1498750*
X1865818*
X1866136Y1498969*
X1866455Y1499406*
X1868364Y1503344D02*
Y1499625D01*
X1868523Y1498969*
X1868841Y1498750*
X1869159*
X1867886Y1501813D02*
X1869000D01*
X1870591Y1500500D02*
X1872500D01*
Y1500938*
X1872500D02*
X1872341Y1501375D01*
X1872182Y1501594*
X1871864Y1501813*
X1871864D02*
X1871386D01*
X1871386D02*
X1871068Y1501594D01*
X1870750Y1501156*
X1870591Y1500500*
Y1500063*
X1870591D02*
X1870750Y1499406D01*
X1871068Y1498969*
X1871386Y1498750*
X1871864*
X1872182Y1498969*
X1872500Y1499406*
X1875841Y1503344D02*
Y1498750D01*
Y1501156D02*
X1875523Y1501594D01*
X1875205Y1501813*
X1875205D02*
X1874727D01*
X1874727D02*
X1874409Y1501594D01*
X1874091Y1501156*
X1873932Y1500500*
Y1500063*
X1873932D02*
X1874091Y1499406D01*
X1874409Y1498969*
X1874727Y1498750*
X1875205*
X1875523Y1498969*
X1875841Y1499406*
X1880932Y1503344D02*
Y1498750D01*
X1882364Y1501813D02*
Y1498750D01*
Y1500938D02*
X1882841Y1501594D01*
X1883159Y1501813*
X1883159D02*
X1883636D01*
X1883636D02*
X1883955Y1501594D01*
X1884114Y1500938*
X1884114D02*
Y1498750D01*
X1887455Y1503344D02*
Y1498750D01*
Y1501156D02*
X1887136Y1501594D01*
X1886818Y1501813*
X1886818D02*
X1886341D01*
X1886341D02*
X1886023Y1501594D01*
X1885705Y1501156*
X1885545Y1500500*
Y1500063*
X1885545D02*
X1885705Y1499406D01*
X1886023Y1498969*
X1886341Y1498750*
X1886818*
X1887136Y1498969*
X1887455Y1499406*
X1888886Y1501813D02*
Y1499625D01*
X1889045Y1498969*
X1889364Y1498750*
X1889841*
X1890159Y1498969*
X1890636Y1499625*
Y1501813D02*
Y1498750D01*
X1893818Y1501156D02*
X1893659Y1501594D01*
X1893182Y1501813*
X1893182D02*
X1892705D01*
X1892705D02*
X1892227Y1501594D01*
X1892068Y1501156*
X1892227Y1500719*
X1892545Y1500500*
X1893341Y1500281*
X1893659Y1500063*
X1893659D02*
X1893818Y1499625D01*
Y1499406*
X1893659Y1498969*
X1893182Y1498750*
X1892705*
X1892227Y1498969*
X1892068Y1499406*
X1895727Y1503344D02*
Y1499625D01*
X1895886Y1498969*
X1896205Y1498750*
X1896523*
X1895250Y1501813D02*
X1896364D01*
X1897955D02*
Y1498750D01*
Y1500500D02*
X1898114Y1501156D01*
X1898432Y1501594*
X1898750Y1501813*
X1898750D02*
X1899227D01*
X1900659Y1503344D02*
X1900818Y1503125D01*
X1900977Y1503344*
X1900818Y1503563*
X1900818D02*
X1900659Y1503344D01*
X1900818Y1501813D02*
Y1498750D01*
X1904318Y1501813D02*
Y1498750D01*
Y1501156D02*
X1904000Y1501594D01*
X1903682Y1501813*
X1903682D02*
X1903205D01*
X1903205D02*
X1902886Y1501594D01*
X1902568Y1501156*
X1902409Y1500500*
Y1500063*
X1902409D02*
X1902568Y1499406D01*
X1902886Y1498969*
X1903205Y1498750*
X1903682*
X1904000Y1498969*
X1904318Y1499406*
X1905750Y1503344D02*
Y1498750D01*
X1911795Y1503344D02*
X1911477Y1503125D01*
X1911159Y1502688*
X1911159D02*
X1911000Y1502250D01*
X1910841Y1501594*
Y1500500*
X1911000Y1499844*
X1911159Y1499406*
X1911477Y1498969*
X1911795Y1498750*
X1912432*
X1912750Y1498969*
X1913068Y1499406*
X1913227Y1499844*
X1913386Y1500500*
Y1501594*
X1913227Y1502250*
X1913068Y1502688*
X1913068D02*
X1912750Y1503125D01*
X1912432Y1503344*
X1911795*
X1916727Y1501156D02*
X1916409Y1501594D01*
X1916091Y1501813*
X1916091D02*
X1915614D01*
X1915614D02*
X1915295Y1501594D01*
X1914977Y1501156*
X1914818Y1500500*
Y1500063*
X1914818D02*
X1914977Y1499406D01*
X1915295Y1498969*
X1915614Y1498750*
X1916091*
X1916409Y1498969*
X1916727Y1499406*
X1918636Y1503344D02*
Y1499625D01*
X1918795Y1498969*
X1919114Y1498750*
X1919432*
X1918159Y1501813D02*
X1919273D01*
X1922773D02*
Y1498750D01*
Y1501156D02*
X1922455Y1501594D01*
X1922136Y1501813*
X1922136D02*
X1921659D01*
X1921659D02*
X1921341Y1501594D01*
X1921023Y1501156*
X1920864Y1500500*
Y1500063*
X1920864D02*
X1921023Y1499406D01*
X1921341Y1498969*
X1921659Y1498750*
X1922136*
X1922455Y1498969*
X1922773Y1499406*
X1924205Y1503344D02*
Y1498750D01*
X1855000Y1495844D02*
Y1491250D01*
Y1495844D02*
X1856114D01*
X1856591Y1495625*
X1856909Y1495188*
X1856909D02*
X1857068Y1494750D01*
X1857227Y1494094*
Y1493000*
X1857068Y1492344*
X1856909Y1491906*
X1856591Y1491469*
X1856114Y1491250*
X1855000*
X1858659Y1495844D02*
X1858818Y1495625D01*
X1858977Y1495844*
X1858818Y1496063*
X1858818D02*
X1858659Y1495844D01*
X1858818Y1494313D02*
Y1491250D01*
X1862318Y1494313D02*
Y1490812D01*
X1862318D02*
X1862159Y1490156D01*
X1862000Y1489937*
X1862000D02*
X1861682Y1489719D01*
X1861205*
X1860886Y1489937*
X1862318Y1493656D02*
X1862000Y1494094D01*
X1861682Y1494313*
X1861682D02*
X1861205D01*
X1861205D02*
X1860886Y1494094D01*
X1860568Y1493656*
X1860409Y1493000*
Y1492563*
X1860409D02*
X1860568Y1491906D01*
X1860886Y1491469*
X1861205Y1491250*
X1861682*
X1862000Y1491469*
X1862318Y1491906*
X1863750Y1495844D02*
X1863909Y1495625D01*
X1864068Y1495844*
X1863909Y1496063*
X1863909D02*
X1863750Y1495844D01*
X1863909Y1494313D02*
Y1491250D01*
X1865977Y1495844D02*
Y1492125D01*
X1866136Y1491469*
X1866455Y1491250*
X1866773*
X1865500Y1494313D02*
X1866614D01*
X1870114D02*
Y1491250D01*
Y1493656D02*
X1869795Y1494094D01*
X1869477Y1494313*
X1869477D02*
X1869000D01*
X1869000D02*
X1868682Y1494094D01*
X1868364Y1493656*
X1868205Y1493000*
Y1492563*
X1868205D02*
X1868364Y1491906D01*
X1868682Y1491469*
X1869000Y1491250*
X1869477*
X1869795Y1491469*
X1870114Y1491906*
X1871545Y1495844D02*
Y1491250D01*
X1876636Y1495844D02*
Y1491250D01*
X1878068Y1494313D02*
Y1491250D01*
Y1493438D02*
X1878545Y1494094D01*
X1878864Y1494313*
X1878864D02*
X1879341D01*
X1879341D02*
X1879659Y1494094D01*
X1879818Y1493438*
X1879818D02*
Y1491250D01*
X1881250Y1494313D02*
Y1489719D01*
Y1493656D02*
X1881568Y1494094D01*
X1881886Y1494313*
X1881886D02*
X1882364D01*
X1882364D02*
X1882682Y1494094D01*
X1883000Y1493656*
X1883159Y1493000*
Y1492563*
X1883159D02*
X1883000Y1491906D01*
X1882682Y1491469*
X1882364Y1491250*
X1881886*
X1881568Y1491469*
X1881250Y1491906*
X1884591Y1494313D02*
Y1492125D01*
X1884750Y1491469*
X1885068Y1491250*
X1885545*
X1885864Y1491469*
X1886341Y1492125*
Y1494313D02*
Y1491250D01*
X1888250Y1495844D02*
Y1492125D01*
X1888409Y1491469*
X1888727Y1491250*
X1889045*
X1887773Y1494313D02*
X1888886D01*
X1895250Y1495844D02*
Y1491250D01*
X1894136Y1495844D02*
X1896364D01*
X1897795Y1494313D02*
Y1491250D01*
Y1493000D02*
X1897955Y1493656D01*
X1898273Y1494094*
X1898591Y1494313*
X1898591D02*
X1899068D01*
X1902409D02*
Y1491250D01*
Y1493656D02*
X1902091Y1494094D01*
X1901773Y1494313*
X1901773D02*
X1901295D01*
X1901295D02*
X1900977Y1494094D01*
X1900659Y1493656*
X1900500Y1493000*
Y1492563*
X1900500D02*
X1900659Y1491906D01*
X1900977Y1491469*
X1901295Y1491250*
X1901773*
X1902091Y1491469*
X1902409Y1491906*
X1903841Y1494313D02*
Y1491250D01*
Y1493438D02*
X1904318Y1494094D01*
X1904636Y1494313*
X1904636D02*
X1905114D01*
X1905114D02*
X1905432Y1494094D01*
X1905591Y1493438*
X1905591D02*
Y1491250D01*
X1908773Y1493656D02*
X1908614Y1494094D01*
X1908136Y1494313*
X1908136D02*
X1907659D01*
X1907659D02*
X1907182Y1494094D01*
X1907023Y1493656*
X1907182Y1493219*
X1907500Y1493000*
X1908295Y1492781*
X1908614Y1492563*
X1908614D02*
X1908773Y1492125D01*
Y1491906*
X1908614Y1491469*
X1908136Y1491250*
X1907659*
X1907182Y1491469*
X1907023Y1491906*
X1910205Y1495844D02*
Y1491250D01*
X1913545Y1494313D02*
Y1491250D01*
Y1493656D02*
X1913227Y1494094D01*
X1912909Y1494313*
X1912909D02*
X1912432D01*
X1912432D02*
X1912114Y1494094D01*
X1911795Y1493656*
X1911636Y1493000*
Y1492563*
X1911636D02*
X1911795Y1491906D01*
X1912114Y1491469*
X1912432Y1491250*
X1912909*
X1913227Y1491469*
X1913545Y1491906*
X1915455Y1495844D02*
Y1492125D01*
X1915614Y1491469*
X1915932Y1491250*
X1916250*
X1914977Y1494313D02*
X1916091D01*
X1918477D02*
X1918159Y1494094D01*
X1917841Y1493656*
X1917682Y1493000*
Y1492563*
X1917682D02*
X1917841Y1491906D01*
X1918159Y1491469*
X1918477Y1491250*
X1918955*
X1919273Y1491469*
X1919591Y1491906*
X1919750Y1492563*
X1919750D02*
Y1493000D01*
X1919591Y1493656*
X1919273Y1494094*
X1918955Y1494313*
X1918955D02*
X1918477D01*
X1921182D02*
Y1491250D01*
Y1493000D02*
X1921341Y1493656D01*
X1921659Y1494094*
X1921977Y1494313*
X1921977D02*
X1922455D01*
X1926750Y1496719D02*
X1923886Y1489719D01*
X1930409Y1495188D02*
X1930091Y1495625D01*
X1929614Y1495844*
X1928977*
X1928500Y1495625*
X1928182Y1495188*
X1928182D02*
Y1494750D01*
X1928341Y1494313*
X1928341D02*
X1928500Y1494094D01*
X1928818Y1493875*
X1929773Y1493438*
X1929773D02*
X1930091Y1493219D01*
X1930250Y1493000*
X1930409Y1492563*
X1930409D02*
Y1491906D01*
X1930091Y1491469*
X1929614Y1491250*
X1928977*
X1928500Y1491469*
X1928182Y1491906*
X1931841Y1493000D02*
X1933750D01*
Y1493438*
X1933750D02*
X1933591Y1493875D01*
X1933432Y1494094*
X1933114Y1494313*
X1933114D02*
X1932636D01*
X1932636D02*
X1932318Y1494094D01*
X1932000Y1493656*
X1931841Y1493000*
Y1492563*
X1931841D02*
X1932000Y1491906D01*
X1932318Y1491469*
X1932636Y1491250*
X1933114*
X1933432Y1491469*
X1933750Y1491906*
X1935182Y1494313D02*
Y1491250D01*
Y1493000D02*
X1935341Y1493656D01*
X1935659Y1494094*
X1935977Y1494313*
X1935977D02*
X1936455D01*
X1937886Y1495844D02*
X1938045Y1495625D01*
X1938205Y1495844*
X1938045Y1496063*
X1938045D02*
X1937886Y1495844D01*
X1938045Y1494313D02*
Y1491250D01*
X1941545Y1494313D02*
Y1491250D01*
Y1493656D02*
X1941227Y1494094D01*
X1940909Y1494313*
X1940909D02*
X1940432D01*
X1940432D02*
X1940114Y1494094D01*
X1939795Y1493656*
X1939636Y1493000*
Y1492563*
X1939636D02*
X1939795Y1491906D01*
X1940114Y1491469*
X1940432Y1491250*
X1940909*
X1941227Y1491469*
X1941545Y1491906*
X1942977Y1495844D02*
Y1491250D01*
X1944409Y1495844D02*
X1944568Y1495625D01*
X1944727Y1495844*
X1944568Y1496063*
X1944568D02*
X1944409Y1495844D01*
X1944568Y1494313D02*
Y1491250D01*
X1947909Y1494313D02*
X1946159Y1491250D01*
Y1494313D02*
X1947909D01*
X1946159Y1491250D02*
X1947909D01*
X1949341Y1493000D02*
X1951250D01*
Y1493438*
X1951250D02*
X1951091Y1493875D01*
X1950932Y1494094*
X1950614Y1494313*
X1950614D02*
X1950136D01*
X1950136D02*
X1949818Y1494094D01*
X1949500Y1493656*
X1949341Y1493000*
Y1492563*
X1949341D02*
X1949500Y1491906D01*
X1949818Y1491469*
X1950136Y1491250*
X1950614*
X1950932Y1491469*
X1951250Y1491906*
X1952682Y1494313D02*
Y1491250D01*
Y1493000D02*
X1952841Y1493656D01*
X1953159Y1494094*
X1953477Y1494313*
X1953477D02*
X1953955D01*
X1882500Y1615844D02*
Y1611250D01*
Y1615844D02*
X1883614D01*
X1884091Y1615625*
X1884409Y1615188*
X1884409D02*
X1884568Y1614750D01*
X1884727Y1614094*
Y1613000*
X1884568Y1612344*
X1884409Y1611906*
X1884091Y1611469*
X1883614Y1611250*
X1882500*
X1887432Y1615844D02*
X1886159Y1611250D01*
X1887432Y1615844D02*
X1888705Y1611250D01*
X1886636Y1612781D02*
X1888227D01*
X1891250Y1615844D02*
Y1611250D01*
X1890136Y1615844D02*
X1892364D01*
X1893795D02*
Y1611250D01*
Y1615844D02*
X1895864D01*
X1893795Y1613656D02*
X1895068D01*
X1893795Y1611250D02*
X1895864D01*
X1897455Y1614313D02*
X1897295Y1614094D01*
X1897455Y1613875*
X1897614Y1614094*
X1897455Y1614313*
Y1611688D02*
X1897295Y1611469D01*
X1897455Y1611250*
X1897614Y1611469*
X1897455Y1611688*
X1882500Y1638344D02*
Y1633750D01*
X1884409*
X1887114Y1638344D02*
X1885841Y1633750D01*
X1887114Y1638344D02*
X1888386Y1633750D01*
X1886318Y1635281D02*
X1887909D01*
X1889818Y1638344D02*
X1891091Y1636156D01*
Y1633750*
X1892364Y1638344D02*
X1891091Y1636156D01*
X1893795Y1638344D02*
Y1633750D01*
Y1638344D02*
X1895864D01*
X1893795Y1636156D02*
X1895068D01*
X1893795Y1633750D02*
X1895864D01*
X1897295Y1638344D02*
Y1633750D01*
Y1638344D02*
X1898727D01*
X1899205Y1638125*
X1899364Y1637906*
X1899523Y1637469*
Y1637031*
X1899364Y1636594*
X1899205Y1636375*
X1898727Y1636156*
X1897295*
X1898409D02*
X1899523Y1633750D01*
X2107500Y1713344D02*
Y1708750D01*
Y1713344D02*
X2108932D01*
X2109409Y1713125*
X2109568Y1712906*
X2109727Y1712469*
Y1712031*
X2109568Y1711594*
X2109409Y1711375*
X2108932Y1711156*
X2107500*
X2108614D02*
X2109727Y1708750D01*
X2111159Y1713344D02*
Y1708750D01*
Y1713344D02*
X2113227D01*
X2111159Y1711156D02*
X2112432D01*
X2111159Y1708750D02*
X2113227D01*
X2114659Y1713344D02*
X2115932Y1708750D01*
X2117205Y1713344D02*
X2115932Y1708750D01*
G54D185*
X2080000Y1453750D02*
X2080003D01*
X2180000D02*
X2180003D01*
G54D189*
X2127500Y1449063D02*
X2127955Y1449375D01*
X2128636Y1450313*
X2128636D02*
Y1443750D01*
X2130909Y1444375D02*
X2130682Y1444063D01*
X2130682D02*
X2130909Y1443750D01*
X2131136Y1444063*
X2131136D02*
X2130909Y1444375D01*
X2134545Y1450313D02*
X2133864Y1450000D01*
X2133409Y1449063*
X2133409D02*
X2133182Y1447500D01*
Y1446563*
X2133182D02*
X2133409Y1445000D01*
X2133864Y1444063*
X2133864D02*
X2134545Y1443750D01*
X2135000*
X2135682Y1444063*
X2135682D02*
X2136136Y1445000D01*
X2136364Y1446563*
X2136364D02*
Y1447500D01*
X2136136Y1449063*
X2136136D02*
X2135682Y1450000D01*
X2135000Y1450313*
X2135000D02*
X2134545D01*
X2138409D02*
Y1448125D01*
X2140227Y1450313D02*
Y1448125D01*
G54D193*
X1884350Y1524750D02*
X1880020D01*
X1890650D02*
X1894980D01*
Y1539750D02*
X1890650D01*
X1884350D02*
X1881201D01*
X1962776Y1526148D02*
X1960610D01*
Y1538352*
X1962776*
X1972224D02*
X1974390D01*
Y1526148*
X1972224*
X2022773Y1564000D02*
Y1558750D01*
X2021500Y1564000D02*
X2024045D01*
X2025682D02*
Y1558750D01*
Y1564000D02*
X2027318D01*
X2027864Y1563750*
X2028045Y1563500*
X2028227Y1563000*
Y1562250*
X2028045Y1561750*
X2027864Y1561500*
X2027318Y1561250*
X2025682*
X2030045Y1562750D02*
Y1563000D01*
X2030227Y1563500*
X2030409Y1563750*
X2030773Y1564000*
X2031500*
X2031864Y1563750*
X2032045Y1563500*
X2032227Y1563000*
Y1562500*
X2032045Y1562000*
X2031682Y1561250*
X2029864Y1558750*
X2032409*
X1859273Y1551500D02*
Y1546250D01*
X1858000Y1551500D02*
X1860545D01*
X1862182D02*
Y1546250D01*
Y1551500D02*
X1863818D01*
X1864364Y1551250*
X1864545Y1551000*
X1864727Y1550500*
Y1549750*
X1864545Y1549250*
X1864364Y1549000*
X1863818Y1548750*
X1862182*
X1868182Y1551500D02*
X1866364Y1548000D01*
X1869091*
X1868182Y1551500D02*
Y1546250D01*
X2088818Y1525000D02*
Y1521000D01*
X2088636Y1520250*
X2088455Y1520000*
X2088091Y1519750*
X2087727*
X2087364Y1520000*
X2087182Y1520250*
X2087000Y1521000*
Y1521500*
X2090455Y1525000D02*
Y1521250D01*
X2090636Y1520500*
X2091000Y1520000*
X2091545Y1519750*
X2091909*
X2092455Y1520000*
X2092818Y1520500*
X2093000Y1521250*
Y1525000*
X2094636Y1524000D02*
X2095000Y1524250D01*
X2095545Y1525000*
Y1519750*
X1854318Y1531500D02*
Y1527500D01*
X1854136Y1526750*
X1853955Y1526500*
X1853591Y1526250*
X1853227*
X1852864Y1526500*
X1852682Y1526750*
X1852500Y1527500*
Y1528000*
X1856136Y1530250D02*
Y1530500D01*
X1856318Y1531000*
X1856500Y1531250*
X1856864Y1531500*
X1857591*
X1857955Y1531250*
X1858136Y1531000*
X1858318Y1530500*
Y1530000*
X1858136Y1529500*
X1857773Y1528750*
X1855955Y1526250*
X1858500*
X1893273Y1565500D02*
Y1560250D01*
X1892000Y1565500D02*
X1894545D01*
X1896182D02*
Y1560250D01*
Y1565500D02*
X1897818D01*
X1898364Y1565250*
X1898545Y1565000*
X1898727Y1564500*
Y1563750*
X1898545Y1563250*
X1898364Y1563000*
X1897818Y1562750*
X1896182*
X1900727Y1565500D02*
X1902727D01*
X1901636Y1563500*
X1902182*
X1902545Y1563250*
X1902727Y1563000*
X1902909Y1562250*
Y1561750*
X1902727Y1561000*
X1902364Y1560500*
X1901818Y1560250*
X1901273*
X1900727Y1560500*
X1900545Y1560750*
X1900364Y1561250*
X1870500Y1523500D02*
Y1519750D01*
X1870682Y1519000*
X1871045Y1518500*
X1871591Y1518250*
X1871955*
X1872500Y1518500*
X1872864Y1519000*
X1873045Y1519750*
Y1523500*
X1874864Y1522250D02*
Y1522500D01*
X1875045Y1523000*
X1875227Y1523250*
X1875591Y1523500*
X1876318*
X1876682Y1523250*
X1876864Y1523000*
X1877045Y1522500*
Y1522000*
X1876864Y1521500*
X1876500Y1520750*
X1874682Y1518250*
X1877227*
X1938773Y1564000D02*
Y1558750D01*
X1937500Y1564000D02*
X1940045D01*
X1941682Y1563000D02*
X1942045Y1563250D01*
X1942591Y1564000*
Y1558750*
X2063818Y1503500D02*
Y1499500D01*
X2063636Y1498750*
X2063455Y1498500*
X2063091Y1498250*
X2062727*
X2062364Y1498500*
X2062182Y1498750*
X2062000Y1499500*
Y1500000*
X2065455Y1503500D02*
Y1499750D01*
X2065636Y1499000*
X2066000Y1498500*
X2066545Y1498250*
X2066909*
X2067455Y1498500*
X2067818Y1499000*
X2068000Y1499750*
Y1503500*
X2069818Y1502250D02*
Y1502500D01*
X2070000Y1503000*
X2070182Y1503250*
X2070545Y1503500*
X2071273*
X2071636Y1503250*
X2071818Y1503000*
X2072000Y1502500*
Y1502000*
X2071818Y1501500*
X2071455Y1500750*
X2069636Y1498250*
X2072182*
X2064818Y1518000D02*
Y1514000D01*
X2064636Y1513250*
X2064455Y1513000*
X2064091Y1512750*
X2063727*
X2063364Y1513000*
X2063182Y1513250*
X2063000Y1514000*
Y1514500*
X2066455Y1518000D02*
Y1514250D01*
X2066636Y1513500*
X2067000Y1513000*
X2067545Y1512750*
X2067909*
X2068455Y1513000*
X2068818Y1513500*
X2069000Y1514250*
Y1518000*
X2071000D02*
X2073000D01*
X2071909Y1516000*
X2072455*
X2072818Y1515750*
X2073000Y1515500*
X2073182Y1514750*
Y1514250*
X2073000Y1513500*
X2072636Y1513000*
X2072091Y1512750*
X2071545*
X2071000Y1513000*
X2070818Y1513250*
X2070636Y1513750*
X1963318Y1517000D02*
Y1513000D01*
X1963136Y1512250*
X1962955Y1512000*
X1962591Y1511750*
X1962227*
X1961864Y1512000*
X1961682Y1512250*
X1961500Y1513000*
Y1513500*
X1964955Y1517000D02*
Y1513250D01*
X1965136Y1512500*
X1965500Y1512000*
X1966045Y1511750*
X1966409*
X1966955Y1512000*
X1967318Y1512500*
X1967500Y1513250*
Y1517000*
X1970955D02*
X1969136Y1513500D01*
X1971864*
X1970955Y1517000D02*
Y1511750D01*
X1963318Y1503500D02*
Y1499500D01*
X1963136Y1498750*
X1962955Y1498500*
X1962591Y1498250*
X1962227*
X1961864Y1498500*
X1961682Y1498750*
X1961500Y1499500*
Y1500000*
X1964955Y1503500D02*
Y1499750D01*
X1965136Y1499000*
X1965500Y1498500*
X1966045Y1498250*
X1966409*
X1966955Y1498500*
X1967318Y1499000*
X1967500Y1499750*
Y1503500*
X1971500D02*
X1969682D01*
X1969500Y1501250*
X1969682Y1501500*
X1970227Y1501750*
X1970773*
X1971318Y1501500*
X1971682Y1501000*
X1971864Y1500250*
X1971682Y1499750*
X1971500Y1499000*
X1971136Y1498500*
X1970591Y1498250*
X1970045*
X1969500Y1498500*
X1969318Y1498750*
X1969136Y1499250*
X2087273Y1558000D02*
Y1552750D01*
X2086000Y1558000D02*
X2088545D01*
X2090182D02*
Y1552750D01*
Y1558000D02*
X2091818D01*
X2092364Y1557750*
X2092545Y1557500*
X2092727Y1557000*
Y1556250*
X2092545Y1555750*
X2092364Y1555500*
X2091818Y1555250*
X2090182*
X2094364Y1557000D02*
X2094727Y1557250D01*
X2095273Y1558000*
Y1552750*
X2137318Y1531500D02*
Y1527500D01*
X2137136Y1526750*
X2136955Y1526500*
X2136591Y1526250*
X2136227*
X2135864Y1526500*
X2135682Y1526750*
X2135500Y1527500*
Y1528000*
X2138955Y1530500D02*
X2139318Y1530750D01*
X2139864Y1531500*
Y1526250*
X2035000Y1526500D02*
Y1522750D01*
X2035182Y1522000*
X2035545Y1521500*
X2036091Y1521250*
X2036455*
X2037000Y1521500*
X2037364Y1522000*
X2037545Y1522750*
Y1526500*
X2039182Y1525500D02*
X2039545Y1525750D01*
X2040091Y1526500*
Y1521250*
X1857727Y1510250D02*
X1857545Y1510750D01*
X1857182Y1511250*
X1856818Y1511500*
X1856091*
X1855727Y1511250*
X1855364Y1510750*
X1855182Y1510250*
X1855000Y1509500*
Y1508250*
X1855182Y1507500*
X1855364Y1507000*
X1855727Y1506500*
X1856091Y1506250*
X1856818*
X1857182Y1506500*
X1857545Y1507000*
X1857727Y1507500*
X1860455Y1511500D02*
X1860091Y1511250D01*
X1859727Y1510750*
X1859545Y1510250*
X1859364Y1509500*
Y1508250*
X1859545Y1507500*
X1859727Y1507000*
X1860091Y1506500*
X1860455Y1506250*
X1861182*
X1861545Y1506500*
X1861909Y1507000*
X1862091Y1507500*
X1862273Y1508250*
Y1509500*
X1862091Y1510250*
X1861909Y1510750*
X1861545Y1511250*
X1861182Y1511500*
X1860455*
X1863909D02*
Y1506250D01*
Y1511500D02*
X1865545D01*
X1866091Y1511250*
X1866273Y1511000*
X1866455Y1510500*
Y1510000*
X1866273Y1509500*
X1866091Y1509250*
X1865545Y1509000*
X1863909*
X1865182D02*
X1866455Y1506250D01*
X1869182Y1511500D02*
X1868818Y1511250D01*
X1868455Y1510750*
X1868273Y1510250*
X1868091Y1509500*
Y1508250*
X1868273Y1507500*
X1868455Y1507000*
X1868818Y1506500*
X1869182Y1506250*
X1869909*
X1870273Y1506500*
X1870636Y1507000*
X1870818Y1507500*
X1871000Y1508250*
Y1509500*
X1870818Y1510250*
X1870636Y1510750*
X1870273Y1511250*
X1869909Y1511500*
X1869182*
X1872636D02*
Y1506250D01*
Y1511500D02*
X1875182Y1506250D01*
Y1511500D02*
Y1506250D01*
X1878273Y1511500D02*
X1876818Y1506250D01*
X1878273Y1511500D02*
X1879727Y1506250D01*
X1877364Y1508000D02*
X1879182D01*
X1886818Y1512500D02*
X1886455Y1512000D01*
X1886091Y1511250*
X1885727Y1510250*
X1885545Y1509000*
Y1508000*
X1885727Y1506750*
X1886091Y1505750*
X1886455Y1505000*
X1886818Y1504500*
X1888455Y1511500D02*
Y1506250D01*
Y1511500D02*
X1889909Y1506250D01*
X1891364Y1511500D02*
X1889909Y1506250D01*
X1891364Y1511500D02*
Y1506250D01*
X1894455Y1511500D02*
X1893000Y1506250D01*
X1894455Y1511500D02*
X1895909Y1506250D01*
X1893545Y1508000D02*
X1895364D01*
X1897545Y1511500D02*
X1900091Y1506250D01*
Y1511500D02*
X1897545Y1506250D01*
X1901727Y1511500D02*
Y1506250D01*
Y1511500D02*
X1903364D01*
X1903909Y1511250*
X1904091Y1511000*
X1904273Y1510500*
Y1510000*
X1904091Y1509500*
X1903909Y1509250*
X1903364Y1509000*
X1901727*
X1903000D02*
X1904273Y1506250D01*
X1905909Y1511500D02*
Y1506250D01*
Y1511500D02*
X1908273D01*
X1905909Y1509000D02*
X1907364D01*
X1905909Y1506250D02*
X1908273D01*
X1909909Y1511500D02*
Y1506250D01*
Y1511500D02*
X1912273D01*
X1909909Y1509000D02*
X1911364D01*
X1913909Y1511500D02*
Y1506250D01*
Y1511500D02*
X1915182D01*
X1915727Y1511250*
X1916091Y1510750*
X1916273Y1510250*
X1916455Y1509500*
Y1508250*
X1916273Y1507500*
X1916091Y1507000*
X1915727Y1506500*
X1915182Y1506250*
X1913909*
X1918091Y1511500D02*
Y1506250D01*
Y1511500D02*
X1920455D01*
X1918091Y1509000D02*
X1919545D01*
X1918091Y1506250D02*
X1920455D01*
X1924636Y1510750D02*
X1924273Y1511250D01*
X1923727Y1511500*
X1923000*
X1922455Y1511250*
X1922091Y1510750*
Y1510250*
X1922273Y1509750*
X1922455Y1509500*
X1922818Y1509250*
X1923909Y1508750*
X1924273Y1508500*
X1924455Y1508250*
X1924636Y1507750*
Y1507000*
X1924273Y1506500*
X1923727Y1506250*
X1923000*
X1922455Y1506500*
X1922091Y1507000*
X1926273Y1510500D02*
X1926636Y1510750D01*
X1927182Y1511500*
Y1506250*
X1929000Y1510250D02*
Y1510500D01*
X1929182Y1511000*
X1929364Y1511250*
X1929727Y1511500*
X1930455*
X1930818Y1511250*
X1931000Y1511000*
X1931182Y1510500*
Y1510000*
X1931000Y1509500*
X1930636Y1508750*
X1928818Y1506250*
X1931364*
X1934455Y1512500D02*
X1933182Y1504500D01*
X1935545Y1512500D02*
X1934273Y1504500D01*
X1933182Y1509250D02*
X1935727D01*
X1933000Y1507750D02*
X1935545D01*
X1937364Y1512500D02*
X1937727Y1512000D01*
X1938091Y1511250*
X1938455Y1510250*
X1938636Y1509000*
Y1508000*
X1938455Y1506750*
X1938091Y1505750*
X1937727Y1505000*
X1937364Y1504500*
G54D213*
X1996000Y1552950D02*
Y1544550D01*
X2000000*
Y1552950*
X1996000*
G54D239*
X1952500Y1648750D02*
X1954516D01*
X1951425Y1648840D02*
X1955502D01*
X1950798Y1648929D02*
X1956218D01*
X1950261Y1649019D02*
X1956666D01*
X1949813Y1649108D02*
X1957112D01*
X1949454Y1649198D02*
X1957562D01*
X1949096Y1649287D02*
X1957920D01*
X1948738Y1649377D02*
X1958189D01*
X1948469Y1649467D02*
X1958547D01*
X1948111Y1649556D02*
X1958816D01*
X1947842Y1649646D02*
X1959085D01*
X1947663Y1649735D02*
X1959354D01*
X1947394Y1649825D02*
X1959533D01*
X1947125Y1649915D02*
X1959802D01*
X1946946Y1650004D02*
X1960070D01*
X1946677Y1650094D02*
X1960249D01*
X1946498Y1650183D02*
X1960429D01*
X1946319Y1650273D02*
X1960608D01*
X1946140Y1650362D02*
X1960876D01*
X1945961Y1650452D02*
X1961056D01*
X1945782Y1650542D02*
X1961235D01*
X1945602Y1650631D02*
X1961412D01*
X1945423Y1650721D02*
X1961591D01*
X1945244Y1650810D02*
X1961681D01*
X1945065Y1650900D02*
X1961860D01*
X1944886Y1650989D02*
X1962039D01*
X1944796Y1651079D02*
X1962218D01*
X2009382D02*
X2011040D01*
X1944617Y1651169D02*
X1962308D01*
X2008755D02*
X2011757D01*
X1944438Y1651258D02*
X1962487D01*
X2008307D02*
X2012115D01*
X1944348Y1651348D02*
X1962668D01*
X2008038D02*
X2012473D01*
X1944169Y1651437D02*
X1962758D01*
X2007770D02*
X2012653D01*
X1944080Y1651527D02*
X1962937D01*
X2007501D02*
X2012921D01*
X1943900Y1651617D02*
X1963026D01*
X2007322D02*
X2013101D01*
X1943811Y1651706D02*
X1963206D01*
X2007232D02*
X2013280D01*
X1943632Y1651796D02*
X1963295D01*
X2007053D02*
X2013369D01*
X1943542Y1651885D02*
X1963474D01*
X2006964D02*
X2013548D01*
X1943363Y1651975D02*
X1963564D01*
X2006874D02*
X2013638D01*
X1943273Y1652064D02*
X1963653D01*
X2006784D02*
X2013728D01*
X1943184Y1652154D02*
X1963833D01*
X2006695D02*
X2013817D01*
X1943005Y1652244D02*
X1963922D01*
X2006605D02*
X2013907D01*
X1942915Y1652333D02*
X1964012D01*
X2006516D02*
X2009517D01*
X2011174D02*
X2013996D01*
X1942826Y1652423D02*
X1964191D01*
X2006516D02*
X2009070D01*
X2011622D02*
X2014086D01*
X1942646Y1652512D02*
X1964280D01*
X2006426D02*
X2008711D01*
X2011890D02*
X2014175D01*
X1942557Y1652602D02*
X1964370D01*
X2006426D02*
X2008532D01*
X2012159D02*
X2014175D01*
X1942467Y1652691D02*
X1964460D01*
X2006336D02*
X2008353D01*
X2012338D02*
X2014265D01*
X1942378Y1652781D02*
X1964639D01*
X2006336D02*
X2008174D01*
X2012428D02*
X2014265D01*
X1942288Y1652871D02*
X1964728D01*
X2006336D02*
X2008084D01*
X2012607D02*
X2014355D01*
X1942109Y1652960D02*
X1964818D01*
X2006247D02*
X2007995D01*
X2012697D02*
X2014355D01*
X1942019Y1653050D02*
X1964907D01*
X2006247D02*
X2007995D01*
X2012786D02*
X2014355D01*
X1941930Y1653139D02*
X1964997D01*
X2006247D02*
X2007905D01*
X2012786D02*
X2014444D01*
X1941840Y1653229D02*
X1965087D01*
X2006247D02*
X2007905D01*
X2012876D02*
X2014444D01*
X1941751Y1653318D02*
X1965176D01*
X2006247D02*
X2007815D01*
X2012876D02*
X2014444D01*
X1941661Y1653408D02*
X1965266D01*
X2006247D02*
X2007815D01*
X2012876D02*
X2014444D01*
X1941571Y1653498D02*
X1965355D01*
X2006247D02*
X2007815D01*
X2012965D02*
X2014444D01*
X1941482Y1653587D02*
X1965535D01*
X2006247D02*
X2007815D01*
X2012965D02*
X2014444D01*
X1941392Y1653677D02*
X1965624D01*
X2006336D02*
X2007905D01*
X2012876D02*
X2014444D01*
X1941303Y1653766D02*
X1965714D01*
X2006336D02*
X2007905D01*
X2012876D02*
X2014444D01*
X1941213Y1653856D02*
X1965803D01*
X2006336D02*
X2007905D01*
X2012876D02*
X2014444D01*
X1941124Y1653946D02*
X1965893D01*
X2006336D02*
X2007995D01*
X2012786D02*
X2014444D01*
X1941034Y1654035D02*
X1965893D01*
X2006426D02*
X2008084D01*
X2012697D02*
X2014444D01*
X1940944Y1654125D02*
X1965982D01*
X2006426D02*
X2008084D01*
X2012607D02*
X2014444D01*
X1940855Y1654214D02*
X1966072D01*
X1994870D02*
X1996708D01*
X2000872D02*
X2002978D01*
X2006516D02*
X2008174D01*
X2012428D02*
X2014444D01*
X2022819D02*
X2024475D01*
X2032672D02*
X2034420D01*
X2038674D02*
X2040691D01*
X2047005D02*
X2048573D01*
X1940765Y1654304D02*
X1966162D01*
X1994512D02*
X1997066D01*
X2000514D02*
X2003336D01*
X2006516D02*
X2008263D01*
X2012249D02*
X2014444D01*
X2022461D02*
X2024833D01*
X2032314D02*
X2034778D01*
X2038316D02*
X2041138D01*
X2046647D02*
X2048932D01*
X1940676Y1654393D02*
X1966251D01*
X1979284D02*
X1980942D01*
X1983315D02*
X1984973D01*
X1988690D02*
X1990346D01*
X1994243D02*
X1997066D01*
X2000245D02*
X2003695D01*
X2006605D02*
X2008353D01*
X2012069D02*
X2014355D01*
X2016011D02*
X2017669D01*
X2022281D02*
X2025102D01*
X2026760D02*
X2028058D01*
X2032045D02*
X2034778D01*
X2038047D02*
X2041407D01*
X2046467D02*
X2049111D01*
X2050767D02*
X2052067D01*
X1940586Y1654483D02*
X1966341D01*
X1979284D02*
X1980942D01*
X1983315D02*
X1984973D01*
X1988690D02*
X1990346D01*
X1994064D02*
X1997066D01*
X2000066D02*
X2003964D01*
X2006695D02*
X2008532D01*
X2011711D02*
X2014355D01*
X2016011D02*
X2017669D01*
X2022102D02*
X2025281D01*
X2026760D02*
X2028058D01*
X2031866D02*
X2034778D01*
X2037778D02*
X2041676D01*
X2046288D02*
X2049290D01*
X2050767D02*
X2052067D01*
X1940497Y1654573D02*
X1966430D01*
X1979284D02*
X1980942D01*
X1983315D02*
X1984973D01*
X1988690D02*
X1990346D01*
X1993975D02*
X1996976D01*
X1999887D02*
X2004143D01*
X2006784D02*
X2008622D01*
X2011353D02*
X2014265D01*
X2016011D02*
X2017669D01*
X2022013D02*
X2025460D01*
X2026760D02*
X2028058D01*
X2031687D02*
X2034778D01*
X2037599D02*
X2041945D01*
X2046109D02*
X2049469D01*
X2050678D02*
X2052067D01*
X1940407Y1654662D02*
X1966520D01*
X1979284D02*
X1980942D01*
X1983315D02*
X1984973D01*
X1988690D02*
X1990346D01*
X1993796D02*
X1996976D01*
X1999708D02*
X2004322D01*
X2006874D02*
X2008711D01*
X2010815D02*
X2014265D01*
X2016011D02*
X2017669D01*
X2021833D02*
X2025640D01*
X2026671D02*
X2028058D01*
X2031597D02*
X2034778D01*
X2037510D02*
X2042124D01*
X2045930D02*
X2049648D01*
X2050678D02*
X2052067D01*
X1940407Y1654752D02*
X1966609D01*
X1979284D02*
X1980942D01*
X1983315D02*
X1984973D01*
X1988690D02*
X1990346D01*
X1993706D02*
X1996976D01*
X1999529D02*
X2004501D01*
X2006964D02*
X2008890D01*
X2010278D02*
X2014175D01*
X2016011D02*
X2017669D01*
X2021744D02*
X2025819D01*
X2026671D02*
X2028058D01*
X2031508D02*
X2034778D01*
X2037330D02*
X2042303D01*
X2045840D02*
X2049738D01*
X2050678D02*
X2052067D01*
X1940317Y1654841D02*
X1966699D01*
X1979284D02*
X1980942D01*
X1983315D02*
X1984973D01*
X1988690D02*
X1990346D01*
X1993616D02*
X1996976D01*
X1999439D02*
X2004680D01*
X2007053D02*
X2009070D01*
X2009830D02*
X2014175D01*
X2016011D02*
X2017669D01*
X2021654D02*
X2025908D01*
X2026671D02*
X2028058D01*
X2031418D02*
X2034689D01*
X2037241D02*
X2042482D01*
X2045751D02*
X2049917D01*
X2050678D02*
X2052067D01*
X1940228Y1654931D02*
X1966699D01*
X1979284D02*
X1980942D01*
X1983315D02*
X1984973D01*
X1988690D02*
X1990346D01*
X1993527D02*
X1996976D01*
X1999349D02*
X2004859D01*
X2007143D02*
X2009249D01*
X2009382D02*
X2014086D01*
X2016011D02*
X2017669D01*
X2021565D02*
X2025998D01*
X2026671D02*
X2028058D01*
X2031329D02*
X2034689D01*
X2037062D02*
X2042572D01*
X2045661D02*
X2050007D01*
X2050678D02*
X2052067D01*
X1940138Y1655020D02*
X1966789D01*
X1979284D02*
X1980942D01*
X1983315D02*
X1984973D01*
X1988690D02*
X1990346D01*
X1993527D02*
X1996976D01*
X1999260D02*
X2004949D01*
X2007232D02*
X2013996D01*
X2016011D02*
X2017669D01*
X2021475D02*
X2026177D01*
X2026671D02*
X2028058D01*
X2031239D02*
X2034689D01*
X2036972D02*
X2042751D01*
X2045572D02*
X2050096D01*
X2050678D02*
X2052067D01*
X1940049Y1655110D02*
X1966878D01*
X1979284D02*
X1980942D01*
X1983315D02*
X1984973D01*
X1988690D02*
X1990346D01*
X1993437D02*
X1996976D01*
X1999081D02*
X2005128D01*
X2007411D02*
X2013907D01*
X2016011D02*
X2017669D01*
X2021475D02*
X2026267D01*
X2026671D02*
X2028058D01*
X2031239D02*
X2034689D01*
X2036883D02*
X2042840D01*
X2045482D02*
X2050186D01*
X2050588D02*
X2052067D01*
X1939959Y1655200D02*
X1966968D01*
X1979284D02*
X1980942D01*
X1983315D02*
X1984973D01*
X1988690D02*
X1990346D01*
X1993437D02*
X1996887D01*
X1998991D02*
X2005218D01*
X2007501D02*
X2013728D01*
X2016011D02*
X2017669D01*
X2021386D02*
X2026356D01*
X2026581D02*
X2028058D01*
X2031150D02*
X2034689D01*
X2036793D02*
X2043020D01*
X2045393D02*
X2050275D01*
X2050588D02*
X2052067D01*
X1939959Y1655289D02*
X1967057D01*
X1979284D02*
X1980942D01*
X1983315D02*
X1984973D01*
X1988690D02*
X1990346D01*
X1993348D02*
X1996887D01*
X1998901D02*
X2005307D01*
X2007680D02*
X2013638D01*
X2016011D02*
X2017669D01*
X2021386D02*
X2026446D01*
X2026581D02*
X2028058D01*
X2031150D02*
X2034689D01*
X2036703D02*
X2043109D01*
X2045303D02*
X2050365D01*
X2050588D02*
X2052067D01*
X1939869Y1655379D02*
X1967057D01*
X1979284D02*
X1980942D01*
X1983315D02*
X1984973D01*
X1988690D02*
X1990346D01*
X1993348D02*
X1996887D01*
X1998901D02*
X2005307D01*
X2007770D02*
X2013459D01*
X2016011D02*
X2017669D01*
X2021296D02*
X2028058D01*
X2031060D02*
X2034689D01*
X2036614D02*
X2043109D01*
X2045213D02*
X2050455D01*
X2050588D02*
X2052067D01*
X1939780Y1655468D02*
X1967147D01*
X1979284D02*
X1980942D01*
X1983315D02*
X1984973D01*
X1988690D02*
X1990346D01*
X1993258D02*
X1996887D01*
X1998812D02*
X2005307D01*
X2007949D02*
X2013369D01*
X2016011D02*
X2017669D01*
X2021296D02*
X2028058D01*
X2031060D02*
X2034599D01*
X2036524D02*
X2043020D01*
X2045124D02*
X2052067D01*
X1939690Y1655558D02*
X1967237D01*
X1979284D02*
X1980942D01*
X1983315D02*
X1984973D01*
X1988690D02*
X1990346D01*
X1993258D02*
X1996887D01*
X1998722D02*
X2005307D01*
X2007949D02*
X2013101D01*
X2016011D02*
X2017669D01*
X2021206D02*
X2023669D01*
X2024252D02*
X2028058D01*
X2031060D02*
X2034599D01*
X2036524D02*
X2043020D01*
X2045124D02*
X2052067D01*
X1939690Y1655648D02*
X1967326D01*
X1979284D02*
X1980942D01*
X1983315D02*
X1984973D01*
X1988690D02*
X1990346D01*
X1993258D02*
X1996887D01*
X1998633D02*
X2001366D01*
X2002753D02*
X2005307D01*
X2007859D02*
X2012921D01*
X2016011D02*
X2017669D01*
X2021206D02*
X2023311D01*
X2024700D02*
X2028058D01*
X2030970D02*
X2034599D01*
X2036435D02*
X2039078D01*
X2040555D02*
X2043020D01*
X2045034D02*
X2047767D01*
X2048259D02*
X2052067D01*
X1939601Y1655737D02*
X1967326D01*
X1979284D02*
X1980942D01*
X1983315D02*
X1984973D01*
X1988690D02*
X1990346D01*
X1993258D02*
X1995364D01*
X1998633D02*
X2001097D01*
X2003112D02*
X2005218D01*
X2007770D02*
X2012653D01*
X2016011D02*
X2017669D01*
X2021206D02*
X2023131D01*
X2024969D02*
X2028058D01*
X2030970D02*
X2033166D01*
X2036345D02*
X2038809D01*
X2040914D02*
X2043020D01*
X2045034D02*
X2047409D01*
X2048707D02*
X2052067D01*
X1939511Y1655827D02*
X1967416D01*
X1979284D02*
X1980942D01*
X1983315D02*
X1984973D01*
X1988690D02*
X1990346D01*
X1993168D02*
X1995185D01*
X1998543D02*
X2000828D01*
X2003380D02*
X2005218D01*
X2007680D02*
X2012294D01*
X2016011D02*
X2017669D01*
X2021117D02*
X2023042D01*
X2025148D02*
X2028058D01*
X2030970D02*
X2032985D01*
X2036345D02*
X2038630D01*
X2041182D02*
X2043020D01*
X2044945D02*
X2047230D01*
X2048976D02*
X2052067D01*
X1939422Y1655916D02*
X1967505D01*
X1979284D02*
X1980942D01*
X1983315D02*
X1984973D01*
X1988690D02*
X1990346D01*
X1993168D02*
X1995095D01*
X1998454D02*
X2000649D01*
X2003649D02*
X2005218D01*
X2007680D02*
X2011936D01*
X2016011D02*
X2017669D01*
X2021117D02*
X2022952D01*
X2025327D02*
X2028058D01*
X2030970D02*
X2032806D01*
X2036256D02*
X2038451D01*
X2041361D02*
X2043020D01*
X2044945D02*
X2047051D01*
X2049155D02*
X2052067D01*
X1939422Y1656006D02*
X1967595D01*
X1979284D02*
X1980942D01*
X1983315D02*
X1984973D01*
X1988690D02*
X1990346D01*
X1993168D02*
X1995006D01*
X1998454D02*
X2000560D01*
X2003828D02*
X2005218D01*
X2007591D02*
X2011488D01*
X2016011D02*
X2017669D01*
X2021117D02*
X2022865D01*
X2025506D02*
X2028058D01*
X2030970D02*
X2032716D01*
X2036166D02*
X2038272D01*
X2041541D02*
X2042930D01*
X2044855D02*
X2046961D01*
X2049244D02*
X2052067D01*
X1939332Y1656095D02*
X1967595D01*
X1979284D02*
X1980942D01*
X1983315D02*
X1984973D01*
X1988690D02*
X1990346D01*
X1993168D02*
X1994916D01*
X1998364D02*
X2000470D01*
X2004007D02*
X2005218D01*
X2007591D02*
X2010951D01*
X2016011D02*
X2017669D01*
X2021117D02*
X2022865D01*
X2025685D02*
X2028058D01*
X2030970D02*
X2032716D01*
X2036166D02*
X2038182D01*
X2041720D02*
X2042930D01*
X2044855D02*
X2046871D01*
X2049424D02*
X2052067D01*
X1939242Y1656185D02*
X1967684D01*
X1979284D02*
X1980942D01*
X1983315D02*
X1984973D01*
X1988690D02*
X1990346D01*
X1993168D02*
X1994916D01*
X1998364D02*
X2000380D01*
X2004187D02*
X2005218D01*
X2007591D02*
X2010413D01*
X2016011D02*
X2017669D01*
X2021117D02*
X2022775D01*
X2025775D02*
X2028058D01*
X2030881D02*
X2032627D01*
X2036076D02*
X2038093D01*
X2041899D02*
X2042930D01*
X2044765D02*
X2046782D01*
X2049513D02*
X2052067D01*
X1939242Y1656275D02*
X1967774D01*
X1979284D02*
X1980942D01*
X1983315D02*
X1984973D01*
X1988690D02*
X1990346D01*
X1993168D02*
X1994827D01*
X1998274D02*
X2000291D01*
X2004276D02*
X2005128D01*
X2007501D02*
X2009965D01*
X2016011D02*
X2017669D01*
X2021027D02*
X2022775D01*
X2025954D02*
X2028058D01*
X2030881D02*
X2032627D01*
X2036076D02*
X2038003D01*
X2042078D02*
X2042930D01*
X2044765D02*
X2046692D01*
X2049603D02*
X2052067D01*
X1939153Y1656364D02*
X1967774D01*
X1979284D02*
X1980942D01*
X1983315D02*
X1984973D01*
X1988690D02*
X1990346D01*
X1993168D02*
X1994827D01*
X1998274D02*
X2000201D01*
X2004455D02*
X2005128D01*
X2007501D02*
X2009607D01*
X2016011D02*
X2017669D01*
X2021027D02*
X2022685D01*
X2026044D02*
X2028058D01*
X2030881D02*
X2032537D01*
X2036076D02*
X2037914D01*
X2042168D02*
X2042930D01*
X2044676D02*
X2046603D01*
X2049782D02*
X2052067D01*
X1939063Y1656454D02*
X1967864D01*
X1979284D02*
X1980942D01*
X1983315D02*
X1984973D01*
X1988690D02*
X1990346D01*
X1993168D02*
X1994827D01*
X1998274D02*
X2000112D01*
X2004545D02*
X2005128D01*
X2007501D02*
X2009338D01*
X2016011D02*
X2017669D01*
X2021027D02*
X2022685D01*
X2026133D02*
X2028058D01*
X2030881D02*
X2032537D01*
X2035987D02*
X2037824D01*
X2042347D02*
X2042930D01*
X2044676D02*
X2046603D01*
X2049871D02*
X2052067D01*
X1939063Y1656543D02*
X1967953D01*
X1979284D02*
X1980942D01*
X1983315D02*
X1984973D01*
X1988690D02*
X1990346D01*
X1993168D02*
X1994737D01*
X1998185D02*
X2000022D01*
X2004724D02*
X2005128D01*
X2007591D02*
X2009249D01*
X2016011D02*
X2017669D01*
X2021027D02*
X2022685D01*
X2026223D02*
X2028058D01*
X2030881D02*
X2032537D01*
X2035987D02*
X2037824D01*
X2042436D02*
X2042840D01*
X2044676D02*
X2046513D01*
X2049961D02*
X2052067D01*
X1938974Y1656633D02*
X1967953D01*
X1979284D02*
X1980942D01*
X1983315D02*
X1984973D01*
X1988690D02*
X1990346D01*
X1993168D02*
X1994737D01*
X1998185D02*
X2000022D01*
X2004814D02*
X2005128D01*
X2007591D02*
X2009159D01*
X2016011D02*
X2017669D01*
X2021027D02*
X2022685D01*
X2026312D02*
X2028058D01*
X2030881D02*
X2032537D01*
X2035897D02*
X2037734D01*
X2042616D02*
X2042840D01*
X2044586D02*
X2046424D01*
X2050051D02*
X2052067D01*
X1938884Y1656722D02*
X1968043D01*
X1979284D02*
X1980942D01*
X1983315D02*
X1984973D01*
X1988690D02*
X1990346D01*
X1993168D02*
X1994737D01*
X1998185D02*
X1999933D01*
X2004903D02*
X2005128D01*
X2007591D02*
X2009159D01*
X2016011D02*
X2017669D01*
X2021027D02*
X2022685D01*
X2026402D02*
X2028058D01*
X2030881D02*
X2032537D01*
X2035897D02*
X2037734D01*
X2042705D02*
X2042840D01*
X2044586D02*
X2046424D01*
X2050140D02*
X2052067D01*
X1938884Y1656812D02*
X1968132D01*
X1979284D02*
X1980942D01*
X1983315D02*
X1984973D01*
X1988690D02*
X1990346D01*
X1993168D02*
X1994737D01*
X1998095D02*
X1999933D01*
X2007591D02*
X2009159D01*
X2016011D02*
X2017669D01*
X2021027D02*
X2022685D01*
X2026492D02*
X2028058D01*
X2030881D02*
X2032537D01*
X2035897D02*
X2037645D01*
X2044586D02*
X2046334D01*
X2050140D02*
X2052067D01*
X1938795Y1656902D02*
X1968132D01*
X1979284D02*
X1980942D01*
X1983315D02*
X1984973D01*
X1988690D02*
X1990346D01*
X1993168D02*
X1994737D01*
X1998095D02*
X1999843D01*
X2007680D02*
X2009249D01*
X2016011D02*
X2017669D01*
X2021117D02*
X2022685D01*
X2026492D02*
X2028058D01*
X2030881D02*
X2032537D01*
X2035897D02*
X2037645D01*
X2044586D02*
X2046334D01*
X2050230D02*
X2052067D01*
X1938705Y1656991D02*
X1968222D01*
X1979284D02*
X1980942D01*
X1983315D02*
X1984973D01*
X1988690D02*
X1990346D01*
X1993168D02*
X1994737D01*
X1998095D02*
X1999843D01*
X2007770D02*
X2009338D01*
X2016011D02*
X2017669D01*
X2021117D02*
X2022775D01*
X2026492D02*
X2028058D01*
X2030881D02*
X2032537D01*
X2035808D02*
X2037555D01*
X2044497D02*
X2046334D01*
X2050319D02*
X2052067D01*
X1938705Y1657081D02*
X1968222D01*
X1979284D02*
X1980942D01*
X1983315D02*
X1984973D01*
X1988690D02*
X1990346D01*
X1993168D02*
X1994737D01*
X1998095D02*
X1999753D01*
X2007770D02*
X2009428D01*
X2016011D02*
X2017669D01*
X2021117D02*
X2022775D01*
X2026492D02*
X2028058D01*
X2030881D02*
X2032537D01*
X2035808D02*
X2037555D01*
X2044497D02*
X2046244D01*
X2050409D02*
X2052067D01*
X1938615Y1657170D02*
X1968311D01*
X1979284D02*
X1980942D01*
X1983315D02*
X1984973D01*
X1988690D02*
X1990346D01*
X1993168D02*
X1994737D01*
X1998006D02*
X1999753D01*
X2007859D02*
X2010861D01*
X2016011D02*
X2017669D01*
X2021117D02*
X2022775D01*
X2026492D02*
X2028058D01*
X2030881D02*
X2032537D01*
X2035808D02*
X2037466D01*
X2044497D02*
X2046244D01*
X2050409D02*
X2052067D01*
X1938615Y1657260D02*
X1968401D01*
X1979284D02*
X1980942D01*
X1983315D02*
X1984973D01*
X1988690D02*
X1990346D01*
X1993168D02*
X1994737D01*
X1998006D02*
X1999753D01*
X2007949D02*
X2011219D01*
X2016011D02*
X2017669D01*
X2021117D02*
X2022865D01*
X2026492D02*
X2028058D01*
X2030881D02*
X2032537D01*
X2035808D02*
X2037466D01*
X2044497D02*
X2046244D01*
X2050409D02*
X2052067D01*
X1938526Y1657350D02*
X1968401D01*
X1979284D02*
X1980942D01*
X1983315D02*
X1984973D01*
X1988690D02*
X1990346D01*
X1993168D02*
X1994737D01*
X1998006D02*
X1999664D01*
X2008038D02*
X2011488D01*
X2016011D02*
X2017669D01*
X2021117D02*
X2022865D01*
X2026492D02*
X2028058D01*
X2030881D02*
X2032537D01*
X2035718D02*
X2037466D01*
X2044497D02*
X2046155D01*
X2050409D02*
X2052067D01*
X1938526Y1657439D02*
X1968491D01*
X1979284D02*
X1980942D01*
X1983315D02*
X1984973D01*
X1988690D02*
X1990346D01*
X1993168D02*
X1994737D01*
X1998006D02*
X1999664D01*
X2008218D02*
X2011757D01*
X2016011D02*
X2017669D01*
X2021206D02*
X2022952D01*
X2026492D02*
X2028058D01*
X2030881D02*
X2032537D01*
X2035718D02*
X2037466D01*
X2044497D02*
X2046155D01*
X2050409D02*
X2052067D01*
X1938436Y1657529D02*
X1968491D01*
X1979284D02*
X1980942D01*
X1983315D02*
X1984973D01*
X1988690D02*
X1990346D01*
X1993168D02*
X1994737D01*
X1998006D02*
X1999664D01*
X2008307D02*
X2011936D01*
X2016011D02*
X2017669D01*
X2021206D02*
X2023042D01*
X2026492D02*
X2028058D01*
X2030881D02*
X2032537D01*
X2035718D02*
X2037376D01*
X2044497D02*
X2046155D01*
X2050409D02*
X2052067D01*
X1938347Y1657618D02*
X1942782D01*
X1946409D02*
X1947348D01*
X1951156D02*
X1955771D01*
X1959577D02*
X1960518D01*
X1964145D02*
X1968580D01*
X1979284D02*
X1980942D01*
X1983315D02*
X1984973D01*
X1988690D02*
X1990346D01*
X1993168D02*
X1994737D01*
X1997916D02*
X1999664D01*
X2008218D02*
X2012115D01*
X2016011D02*
X2017669D01*
X2021206D02*
X2023131D01*
X2026492D02*
X2028058D01*
X2030881D02*
X2032537D01*
X2035718D02*
X2037376D01*
X2044407D02*
X2046155D01*
X2050409D02*
X2052067D01*
X1938347Y1657708D02*
X1942782D01*
X1946409D02*
X1947438D01*
X1951246D02*
X1955771D01*
X1959577D02*
X1960518D01*
X1964145D02*
X1968580D01*
X1979284D02*
X1980942D01*
X1983315D02*
X1984973D01*
X1988690D02*
X1990346D01*
X1993168D02*
X1994737D01*
X1997916D02*
X1999574D01*
X2008128D02*
X2012205D01*
X2016011D02*
X2017669D01*
X2021296D02*
X2023221D01*
X2026492D02*
X2028058D01*
X2030881D02*
X2032537D01*
X2035718D02*
X2037376D01*
X2044407D02*
X2046155D01*
X2050409D02*
X2052067D01*
X1938257Y1657797D02*
X1942782D01*
X1946409D02*
X1947438D01*
X1951246D02*
X1955681D01*
X1959487D02*
X1960518D01*
X1964145D02*
X1968670D01*
X1979284D02*
X1980942D01*
X1983315D02*
X1984973D01*
X1988690D02*
X1990346D01*
X1993168D02*
X1994737D01*
X1997916D02*
X1999574D01*
X2007949D02*
X2012384D01*
X2016011D02*
X2017669D01*
X2021296D02*
X2023311D01*
X2026492D02*
X2028058D01*
X2030881D02*
X2032537D01*
X2035718D02*
X2037376D01*
X2044407D02*
X2046155D01*
X2050409D02*
X2052067D01*
X1938257Y1657887D02*
X1942782D01*
X1946409D02*
X1947529D01*
X1951335D02*
X1955681D01*
X1959487D02*
X1960518D01*
X1964145D02*
X1968759D01*
X1979284D02*
X1980942D01*
X1983315D02*
X1984973D01*
X1988690D02*
X1990346D01*
X1993168D02*
X1994737D01*
X1997916D02*
X1999574D01*
X2007859D02*
X2012473D01*
X2016011D02*
X2017669D01*
X2021386D02*
X2023490D01*
X2026492D02*
X2028058D01*
X2030881D02*
X2032537D01*
X2035718D02*
X2037376D01*
X2044407D02*
X2046065D01*
X2050409D02*
X2052067D01*
X1938167Y1657977D02*
X1942782D01*
X1946409D02*
X1947529D01*
X1951335D02*
X1955591D01*
X1959398D02*
X1960518D01*
X1964145D02*
X1968759D01*
X1979284D02*
X1980942D01*
X1983315D02*
X1984973D01*
X1988690D02*
X1990346D01*
X1993168D02*
X1994737D01*
X1997916D02*
X1999574D01*
X2007770D02*
X2012563D01*
X2016011D02*
X2017669D01*
X2021386D02*
X2023669D01*
X2026492D02*
X2028058D01*
X2030881D02*
X2032537D01*
X2035718D02*
X2037287D01*
X2044407D02*
X2046065D01*
X2050409D02*
X2052067D01*
X1938167Y1658066D02*
X1942782D01*
X1946409D02*
X1947619D01*
X1951425D02*
X1955502D01*
X1959308D02*
X1960518D01*
X1964145D02*
X1968849D01*
X1979284D02*
X1980942D01*
X1983315D02*
X1984973D01*
X1988690D02*
X1990346D01*
X1993168D02*
X1994737D01*
X1997916D02*
X1999574D01*
X2007680D02*
X2012653D01*
X2016011D02*
X2017669D01*
X2021475D02*
X2023848D01*
X2026492D02*
X2028058D01*
X2030881D02*
X2032537D01*
X2035629D02*
X2037287D01*
X2044407D02*
X2046065D01*
X2050409D02*
X2052067D01*
X1938078Y1658156D02*
X1942782D01*
X1946409D02*
X1947619D01*
X1951425D02*
X1955502D01*
X1959308D02*
X1960518D01*
X1964145D02*
X1968849D01*
X1979284D02*
X1980942D01*
X1983315D02*
X1984973D01*
X1988690D02*
X1990346D01*
X1993168D02*
X1994737D01*
X1997916D02*
X1999574D01*
X2007591D02*
X2012742D01*
X2016011D02*
X2017669D01*
X2021565D02*
X2024027D01*
X2026492D02*
X2028058D01*
X2030881D02*
X2032537D01*
X2035629D02*
X2037287D01*
X2044407D02*
X2046065D01*
X2050409D02*
X2052067D01*
X1938078Y1658245D02*
X1942782D01*
X1946409D02*
X1947708D01*
X1951515D02*
X1955412D01*
X1959218D02*
X1960518D01*
X1964145D02*
X1968939D01*
X1979284D02*
X1980942D01*
X1983315D02*
X1984973D01*
X1988690D02*
X1990346D01*
X1993168D02*
X1994737D01*
X1997916D02*
X1999574D01*
X2007501D02*
X2012832D01*
X2016011D02*
X2017669D01*
X2021565D02*
X2024296D01*
X2026492D02*
X2028058D01*
X2030881D02*
X2032537D01*
X2035629D02*
X2037287D01*
X2044407D02*
X2046065D01*
X2050409D02*
X2052067D01*
X1937988Y1658335D02*
X1942782D01*
X1946409D02*
X1947798D01*
X1951604D02*
X1955412D01*
X1959218D02*
X1960518D01*
X1964145D02*
X1968939D01*
X1979284D02*
X1980942D01*
X1983315D02*
X1984973D01*
X1988690D02*
X1990346D01*
X1993168D02*
X1994737D01*
X1997916D02*
X1999574D01*
X2007411D02*
X2012921D01*
X2016011D02*
X2017669D01*
X2021654D02*
X2024654D01*
X2026492D02*
X2028058D01*
X2030881D02*
X2032537D01*
X2035629D02*
X2037287D01*
X2044407D02*
X2046065D01*
X2050409D02*
X2052067D01*
X1937988Y1658424D02*
X1942782D01*
X1946409D02*
X1947798D01*
X1951604D02*
X1955323D01*
X1959129D02*
X1960518D01*
X1964145D02*
X1969028D01*
X1979284D02*
X1980942D01*
X1983315D02*
X1984973D01*
X1988690D02*
X1990346D01*
X1993168D02*
X1994737D01*
X1997916D02*
X2005307D01*
X2007322D02*
X2009607D01*
X2010726D02*
X2013011D01*
X2016011D02*
X2017669D01*
X2021744D02*
X2025013D01*
X2026492D02*
X2028058D01*
X2030881D02*
X2032537D01*
X2035629D02*
X2043109D01*
X2044407D02*
X2046065D01*
X2050409D02*
X2052067D01*
X1937899Y1658514D02*
X1942782D01*
X1946409D02*
X1947888D01*
X1951694D02*
X1955323D01*
X1959129D02*
X1960518D01*
X1964145D02*
X1969028D01*
X1979284D02*
X1980942D01*
X1983315D02*
X1984973D01*
X1988690D02*
X1990346D01*
X1993168D02*
X1994737D01*
X1997916D02*
X2005307D01*
X2007322D02*
X2009338D01*
X2010905D02*
X2013011D01*
X2016011D02*
X2017669D01*
X2021833D02*
X2025460D01*
X2026492D02*
X2028058D01*
X2030881D02*
X2032537D01*
X2035629D02*
X2043109D01*
X2044407D02*
X2046065D01*
X2050409D02*
X2052067D01*
X1937899Y1658604D02*
X1942782D01*
X1946409D02*
X1947888D01*
X1951694D02*
X1955233D01*
X1959039D02*
X1960518D01*
X1964145D02*
X1969118D01*
X1979284D02*
X1980942D01*
X1983315D02*
X1984973D01*
X1988690D02*
X1990346D01*
X1993168D02*
X1994737D01*
X1997916D02*
X2005307D01*
X2007232D02*
X2009159D01*
X2011084D02*
X2013101D01*
X2016011D02*
X2017669D01*
X2021923D02*
X2026177D01*
X2026492D02*
X2028058D01*
X2030881D02*
X2032537D01*
X2035629D02*
X2043109D01*
X2044407D02*
X2046065D01*
X2050409D02*
X2052067D01*
X1937809Y1658693D02*
X1942782D01*
X1946409D02*
X1947977D01*
X1951783D02*
X1955233D01*
X1959039D02*
X1960518D01*
X1964145D02*
X1969118D01*
X1979284D02*
X1980942D01*
X1983315D02*
X1984973D01*
X1988690D02*
X1990346D01*
X1993168D02*
X1994737D01*
X1997916D02*
X2005307D01*
X2007143D02*
X2009070D01*
X2011263D02*
X2013101D01*
X2016011D02*
X2017669D01*
X2022102D02*
X2028058D01*
X2030881D02*
X2032537D01*
X2035629D02*
X2043109D01*
X2044407D02*
X2046065D01*
X2050409D02*
X2052067D01*
X1937809Y1658783D02*
X1942782D01*
X1946409D02*
X1947977D01*
X1951783D02*
X1955143D01*
X1958950D02*
X1960518D01*
X1964145D02*
X1969118D01*
X1979284D02*
X1980942D01*
X1983315D02*
X1984973D01*
X1988690D02*
X1990346D01*
X1993168D02*
X1994737D01*
X1997916D02*
X2005307D01*
X2007143D02*
X2008980D01*
X2011353D02*
X2013190D01*
X2016011D02*
X2017669D01*
X2022192D02*
X2028058D01*
X2030881D02*
X2032537D01*
X2035629D02*
X2043109D01*
X2044407D02*
X2046065D01*
X2050409D02*
X2052067D01*
X1937720Y1658872D02*
X1942782D01*
X1946409D02*
X1948067D01*
X1951873D02*
X1955054D01*
X1958860D02*
X1960518D01*
X1964145D02*
X1969207D01*
X1979284D02*
X1980942D01*
X1983315D02*
X1984973D01*
X1988690D02*
X1990346D01*
X1993168D02*
X1994737D01*
X1997916D02*
X2005307D01*
X2007053D02*
X2008890D01*
X2011442D02*
X2013190D01*
X2016011D02*
X2017669D01*
X2022281D02*
X2028058D01*
X2030881D02*
X2032537D01*
X2035629D02*
X2043109D01*
X2044407D02*
X2046065D01*
X2050409D02*
X2052067D01*
X1937720Y1658962D02*
X1942782D01*
X1946409D02*
X1948067D01*
X1951873D02*
X1955054D01*
X1958860D02*
X1960518D01*
X1964145D02*
X1969207D01*
X1979284D02*
X1980942D01*
X1983315D02*
X1984973D01*
X1988690D02*
X1990346D01*
X1993168D02*
X1994737D01*
X1997916D02*
X2005307D01*
X2007053D02*
X2008801D01*
X2011532D02*
X2013280D01*
X2016011D02*
X2017669D01*
X2022461D02*
X2028058D01*
X2030881D02*
X2032537D01*
X2035629D02*
X2043109D01*
X2044407D02*
X2046065D01*
X2050409D02*
X2052067D01*
X1937720Y1659051D02*
X1942782D01*
X1946409D02*
X1948155D01*
X1951963D02*
X1954962D01*
X1958770D02*
X1960518D01*
X1964145D02*
X1969297D01*
X1979284D02*
X1980942D01*
X1983315D02*
X1984973D01*
X1988690D02*
X1990346D01*
X1993168D02*
X1994737D01*
X1997916D02*
X2005307D01*
X2007053D02*
X2008711D01*
X2011532D02*
X2013280D01*
X2016011D02*
X2017669D01*
X2022640D02*
X2028058D01*
X2030881D02*
X2032537D01*
X2035629D02*
X2043109D01*
X2044407D02*
X2046065D01*
X2050409D02*
X2052067D01*
X1937630Y1659141D02*
X1942782D01*
X1946409D02*
X1948244D01*
X1952052D02*
X1954962D01*
X1958770D02*
X1960518D01*
X1964145D02*
X1969297D01*
X1979284D02*
X1980942D01*
X1983315D02*
X1984973D01*
X1988690D02*
X1990346D01*
X1993168D02*
X1994737D01*
X1997916D02*
X2005307D01*
X2006964D02*
X2008711D01*
X2011622D02*
X2013369D01*
X2016011D02*
X2017669D01*
X2022819D02*
X2028058D01*
X2030881D02*
X2032537D01*
X2035629D02*
X2043109D01*
X2044407D02*
X2046155D01*
X2050409D02*
X2052067D01*
X1937630Y1659231D02*
X1942782D01*
X1946409D02*
X1948244D01*
X1952052D02*
X1954873D01*
X1958681D02*
X1960518D01*
X1964145D02*
X1969386D01*
X1979284D02*
X1980942D01*
X1983315D02*
X1984973D01*
X1988690D02*
X1990346D01*
X1993168D02*
X1994737D01*
X1997916D02*
X2005307D01*
X2006964D02*
X2008622D01*
X2011711D02*
X2013369D01*
X2016011D02*
X2017669D01*
X2022998D02*
X2028058D01*
X2030881D02*
X2032537D01*
X2035629D02*
X2043109D01*
X2044497D02*
X2046155D01*
X2050409D02*
X2052067D01*
X1937540Y1659320D02*
X1942782D01*
X1946409D02*
X1948334D01*
X1952142D02*
X1954873D01*
X1958681D02*
X1960518D01*
X1964145D02*
X1969386D01*
X1979284D02*
X1980942D01*
X1983315D02*
X1984973D01*
X1988690D02*
X1990346D01*
X1993168D02*
X1994737D01*
X1997916D02*
X2005307D01*
X2006964D02*
X2008622D01*
X2011711D02*
X2013369D01*
X2016011D02*
X2017669D01*
X2023267D02*
X2028058D01*
X2030881D02*
X2032537D01*
X2035718D02*
X2043109D01*
X2044497D02*
X2046155D01*
X2050409D02*
X2052067D01*
X1937540Y1659410D02*
X1942782D01*
X1946409D02*
X1948334D01*
X1952142D02*
X1954783D01*
X1958591D02*
X1960518D01*
X1964145D02*
X1969476D01*
X1979284D02*
X1980942D01*
X1983315D02*
X1984973D01*
X1988690D02*
X1990346D01*
X1993168D02*
X1994737D01*
X1997916D02*
X2005307D01*
X2006874D02*
X2008532D01*
X2011711D02*
X2013369D01*
X2016011D02*
X2017669D01*
X2023535D02*
X2028058D01*
X2030881D02*
X2032537D01*
X2035718D02*
X2043109D01*
X2044497D02*
X2046155D01*
X2050409D02*
X2052067D01*
X1937451Y1659499D02*
X1942782D01*
X1946409D02*
X1948423D01*
X1952231D02*
X1954783D01*
X1958591D02*
X1960518D01*
X1964145D02*
X1969476D01*
X1979284D02*
X1980942D01*
X1983315D02*
X1984973D01*
X1988690D02*
X1990346D01*
X1993168D02*
X1994737D01*
X1997916D02*
X2005307D01*
X2006874D02*
X2008532D01*
X2011801D02*
X2013459D01*
X2016011D02*
X2017669D01*
X2023804D02*
X2028058D01*
X2030881D02*
X2032537D01*
X2035718D02*
X2043020D01*
X2044497D02*
X2046155D01*
X2050409D02*
X2052067D01*
X1937451Y1659589D02*
X1942782D01*
X1946409D02*
X1948423D01*
X1952231D02*
X1954696D01*
X1958502D02*
X1960518D01*
X1964145D02*
X1969476D01*
X1979284D02*
X1980942D01*
X1983315D02*
X1984973D01*
X1988690D02*
X1990346D01*
X1993168D02*
X1994737D01*
X1997916D02*
X2005307D01*
X2006874D02*
X2008532D01*
X2011801D02*
X2013459D01*
X2016011D02*
X2017759D01*
X2024163D02*
X2028058D01*
X2030881D02*
X2032537D01*
X2035718D02*
X2043020D01*
X2044497D02*
X2046155D01*
X2050409D02*
X2052067D01*
X1937451Y1659679D02*
X1942782D01*
X1946409D02*
X1948513D01*
X1952321D02*
X1954696D01*
X1958412D02*
X1960518D01*
X1964145D02*
X1969566D01*
X1979284D02*
X1980942D01*
X1983315D02*
X1984973D01*
X1988690D02*
X1990346D01*
X1993168D02*
X1994737D01*
X1998006D02*
X2005307D01*
X2006874D02*
X2008442D01*
X2011801D02*
X2013459D01*
X2016011D02*
X2017848D01*
X2024610D02*
X2028058D01*
X2030881D02*
X2032537D01*
X2035718D02*
X2043020D01*
X2044497D02*
X2046244D01*
X2050409D02*
X2052067D01*
X1937361Y1659768D02*
X1942782D01*
X1946409D02*
X1948513D01*
X1952321D02*
X1954606D01*
X1958412D02*
X1960518D01*
X1964145D02*
X1969566D01*
X1979284D02*
X1980942D01*
X1983315D02*
X1984973D01*
X1988690D02*
X1990346D01*
X1993168D02*
X1994737D01*
X1998006D02*
X1999664D01*
X2003649D02*
X2005307D01*
X2006874D02*
X2008442D01*
X2011890D02*
X2013459D01*
X2016011D02*
X2017848D01*
X2025058D02*
X2028058D01*
X2030881D02*
X2032537D01*
X2035718D02*
X2037376D01*
X2041451D02*
X2043020D01*
X2044497D02*
X2046244D01*
X2050409D02*
X2052067D01*
X1937361Y1659858D02*
X1942782D01*
X1946409D02*
X1948602D01*
X1952410D02*
X1954516D01*
X1958323D02*
X1960518D01*
X1964145D02*
X1969566D01*
X1979284D02*
X1980942D01*
X1983315D02*
X1984973D01*
X1988690D02*
X1990346D01*
X1993168D02*
X1994737D01*
X1998006D02*
X1999664D01*
X2003649D02*
X2005218D01*
X2006874D02*
X2008442D01*
X2011890D02*
X2013459D01*
X2016011D02*
X2017938D01*
X2025685D02*
X2028058D01*
X2030881D02*
X2032537D01*
X2035718D02*
X2037376D01*
X2041361D02*
X2043020D01*
X2044586D02*
X2046244D01*
X2050409D02*
X2052067D01*
X1937272Y1659947D02*
X1942782D01*
X1946409D02*
X1948692D01*
X1952410D02*
X1954516D01*
X1958323D02*
X1960518D01*
X1964145D02*
X1969655D01*
X1979284D02*
X1980942D01*
X1983315D02*
X1984973D01*
X1988690D02*
X1990346D01*
X1993168D02*
X1994737D01*
X1998006D02*
X1999664D01*
X2003649D02*
X2005218D01*
X2006874D02*
X2008442D01*
X2011890D02*
X2013459D01*
X2016011D02*
X2018027D01*
X2026402D02*
X2028058D01*
X2030881D02*
X2032537D01*
X2035808D02*
X2037466D01*
X2041361D02*
X2043020D01*
X2044586D02*
X2046244D01*
X2050409D02*
X2052067D01*
X1937272Y1660037D02*
X1942782D01*
X1946409D02*
X1948692D01*
X1952500D02*
X1954427D01*
X1958233D02*
X1960518D01*
X1964145D02*
X1969655D01*
X1979284D02*
X1980942D01*
X1983315D02*
X1984973D01*
X1988690D02*
X1990346D01*
X1993168D02*
X1994737D01*
X1998006D02*
X1999664D01*
X2003560D02*
X2005218D01*
X2006874D02*
X2008442D01*
X2011890D02*
X2013459D01*
X2016011D02*
X2018027D01*
X2026492D02*
X2028058D01*
X2030881D02*
X2032537D01*
X2035808D02*
X2037466D01*
X2041361D02*
X2043020D01*
X2044586D02*
X2046334D01*
X2050409D02*
X2052067D01*
X1937272Y1660126D02*
X1942782D01*
X1946409D02*
X1948782D01*
X1952590D02*
X1954427D01*
X1958233D02*
X1960518D01*
X1964145D02*
X1969745D01*
X1979284D02*
X1980942D01*
X1983315D02*
X1984973D01*
X1988690D02*
X1990346D01*
X1993168D02*
X1994737D01*
X1998095D02*
X1999753D01*
X2003560D02*
X2005218D01*
X2006874D02*
X2008442D01*
X2011890D02*
X2013459D01*
X2016011D02*
X2018117D01*
X2026492D02*
X2028058D01*
X2030881D02*
X2032537D01*
X2035808D02*
X2037466D01*
X2041361D02*
X2042930D01*
X2044586D02*
X2046334D01*
X2050409D02*
X2052067D01*
X1937182Y1660216D02*
X1942782D01*
X1946409D02*
X1948782D01*
X1952590D02*
X1954337D01*
X1958143D02*
X1960518D01*
X1964145D02*
X1969745D01*
X1979284D02*
X1980942D01*
X1983315D02*
X1984973D01*
X1988690D02*
X1990346D01*
X1993168D02*
X1994737D01*
X1998095D02*
X1999753D01*
X2003560D02*
X2005218D01*
X2006874D02*
X2008442D01*
X2011890D02*
X2013459D01*
X2016011D02*
X2018206D01*
X2026492D02*
X2028058D01*
X2030881D02*
X2032537D01*
X2035808D02*
X2037555D01*
X2041272D02*
X2042930D01*
X2044676D02*
X2046424D01*
X2050409D02*
X2052067D01*
X1937182Y1660306D02*
X1942782D01*
X1946409D02*
X1948871D01*
X1952679D02*
X1954337D01*
X1958143D02*
X1960518D01*
X1964145D02*
X1969745D01*
X1979284D02*
X1980942D01*
X1983315D02*
X1985063D01*
X1988690D02*
X1990346D01*
X1993168D02*
X1994737D01*
X1998095D02*
X1999753D01*
X2003560D02*
X2005128D01*
X2006874D02*
X2008442D01*
X2011890D02*
X2013459D01*
X2016011D02*
X2018296D01*
X2026492D02*
X2028058D01*
X2030881D02*
X2032537D01*
X2035897D02*
X2037555D01*
X2041272D02*
X2042930D01*
X2044676D02*
X2046424D01*
X2050409D02*
X2052067D01*
X1937182Y1660395D02*
X1942782D01*
X1946409D02*
X1948871D01*
X1952679D02*
X1954248D01*
X1958054D02*
X1960518D01*
X1964145D02*
X1969834D01*
X1979284D02*
X1980942D01*
X1983315D02*
X1985152D01*
X1988690D02*
X1990346D01*
X1993168D02*
X1994737D01*
X1998095D02*
X1999843D01*
X2003470D02*
X2005128D01*
X2006874D02*
X2008442D01*
X2011890D02*
X2013459D01*
X2016011D02*
X2018386D01*
X2026492D02*
X2028058D01*
X2030881D02*
X2032537D01*
X2035897D02*
X2037555D01*
X2041272D02*
X2042930D01*
X2044676D02*
X2046424D01*
X2050409D02*
X2052067D01*
X1937093Y1660485D02*
X1942782D01*
X1946409D02*
X1948961D01*
X1952769D02*
X1954248D01*
X1957964D02*
X1960518D01*
X1964145D02*
X1969834D01*
X1979284D02*
X1980942D01*
X1983315D02*
X1985242D01*
X1988690D02*
X1990346D01*
X1993168D02*
X1994737D01*
X1998185D02*
X1999843D01*
X2003470D02*
X2005128D01*
X2006874D02*
X2008442D01*
X2011890D02*
X2013459D01*
X2016011D02*
X2018475D01*
X2026402D02*
X2028058D01*
X2030881D02*
X2032537D01*
X2035897D02*
X2037645D01*
X2041182D02*
X2042840D01*
X2044765D02*
X2046513D01*
X2050409D02*
X2052067D01*
X1937093Y1660574D02*
X1942782D01*
X1946409D02*
X1948961D01*
X1952769D02*
X1954158D01*
X1957964D02*
X1960518D01*
X1964145D02*
X1969834D01*
X1979284D02*
X1980942D01*
X1983315D02*
X1985331D01*
X1988690D02*
X1990346D01*
X1993168D02*
X1994737D01*
X1998185D02*
X1999933D01*
X2003470D02*
X2005128D01*
X2006874D02*
X2008532D01*
X2011801D02*
X2013459D01*
X2016011D02*
X2018565D01*
X2026402D02*
X2028058D01*
X2030881D02*
X2032537D01*
X2035987D02*
X2037645D01*
X2041182D02*
X2042840D01*
X2044765D02*
X2046603D01*
X2050409D02*
X2052067D01*
X1937093Y1660664D02*
X1942782D01*
X1946409D02*
X1949050D01*
X1952858D02*
X1954069D01*
X1957875D02*
X1960518D01*
X1964145D02*
X1969924D01*
X1979284D02*
X1980942D01*
X1983315D02*
X1985421D01*
X1988600D02*
X1990346D01*
X1993168D02*
X1994737D01*
X1998185D02*
X1999933D01*
X2003380D02*
X2005038D01*
X2006874D02*
X2008532D01*
X2011801D02*
X2013459D01*
X2016011D02*
X2018654D01*
X2026402D02*
X2028058D01*
X2030881D02*
X2032537D01*
X2035987D02*
X2037734D01*
X2041182D02*
X2042840D01*
X2044765D02*
X2046603D01*
X2050409D02*
X2052067D01*
X1937003Y1660753D02*
X1942782D01*
X1946409D02*
X1949140D01*
X1952858D02*
X1954069D01*
X1957875D02*
X1960518D01*
X1964145D02*
X1969924D01*
X1979284D02*
X1980942D01*
X1983315D02*
X1985510D01*
X1988600D02*
X1990346D01*
X1993168D02*
X1994737D01*
X1998274D02*
X2000022D01*
X2003380D02*
X2005038D01*
X2006874D02*
X2008532D01*
X2011801D02*
X2013459D01*
X2016011D02*
X2018834D01*
X2026402D02*
X2028058D01*
X2030881D02*
X2032537D01*
X2035987D02*
X2037734D01*
X2041093D02*
X2042840D01*
X2044855D02*
X2046692D01*
X2050409D02*
X2052067D01*
X1937003Y1660843D02*
X1942782D01*
X1946409D02*
X1949140D01*
X1952948D02*
X1953979D01*
X1957785D02*
X1960518D01*
X1964145D02*
X1969924D01*
X1979284D02*
X1980942D01*
X1983315D02*
X1985600D01*
X1988600D02*
X1990346D01*
X1993168D02*
X1994737D01*
X1998274D02*
X2000022D01*
X2003291D02*
X2005038D01*
X2006874D02*
X2008622D01*
X2011711D02*
X2013369D01*
X2016011D02*
X2018923D01*
X2026402D02*
X2028058D01*
X2030881D02*
X2032537D01*
X2036076D02*
X2037824D01*
X2041093D02*
X2042751D01*
X2044855D02*
X2046782D01*
X2050409D02*
X2052067D01*
X1937003Y1660933D02*
X1942782D01*
X1946409D02*
X1949229D01*
X1953037D02*
X1953979D01*
X1957785D02*
X1960518D01*
X1964145D02*
X1970013D01*
X1979284D02*
X1980942D01*
X1983315D02*
X1985779D01*
X1988510D02*
X1990346D01*
X1993168D02*
X1994737D01*
X1998364D02*
X2000112D01*
X2003291D02*
X2004949D01*
X2006964D02*
X2008622D01*
X2011711D02*
X2013369D01*
X2016011D02*
X2019102D01*
X2026312D02*
X2028058D01*
X2030881D02*
X2032537D01*
X2036076D02*
X2037824D01*
X2041003D02*
X2042751D01*
X2044945D02*
X2046782D01*
X2050409D02*
X2052067D01*
X1936913Y1661022D02*
X1942782D01*
X1946409D02*
X1949229D01*
X1953037D02*
X1953889D01*
X1957696D02*
X1960518D01*
X1964145D02*
X1970013D01*
X1979284D02*
X1980942D01*
X1983315D02*
X1985869D01*
X1988510D02*
X1990346D01*
X1993168D02*
X1994737D01*
X1998364D02*
X2000201D01*
X2003201D02*
X2004949D01*
X2006964D02*
X2008711D01*
X2011622D02*
X2013369D01*
X2016011D02*
X2019192D01*
X2021833D02*
X2022148D01*
X2026312D02*
X2028058D01*
X2030881D02*
X2032537D01*
X2036166D02*
X2037914D01*
X2040914D02*
X2042661D01*
X2044945D02*
X2046871D01*
X2050409D02*
X2052067D01*
X1936913Y1661112D02*
X1942782D01*
X1946409D02*
X1949319D01*
X1953127D02*
X1953889D01*
X1957696D02*
X1960518D01*
X1964145D02*
X1970013D01*
X1979284D02*
X1980942D01*
X1983315D02*
X1985958D01*
X1988421D02*
X1990346D01*
X1993168D02*
X1994737D01*
X1998454D02*
X2000201D01*
X2003112D02*
X2004859D01*
X2006964D02*
X2008711D01*
X2011622D02*
X2013280D01*
X2016011D02*
X2019371D01*
X2021833D02*
X2022327D01*
X2026223D02*
X2028058D01*
X2030881D02*
X2032537D01*
X2036166D02*
X2038003D01*
X2040914D02*
X2042661D01*
X2045034D02*
X2046961D01*
X2050409D02*
X2052067D01*
X1936913Y1661201D02*
X1942782D01*
X1946409D02*
X1949319D01*
X1953127D02*
X1953800D01*
X1957606D02*
X1960518D01*
X1964145D02*
X1970013D01*
X1979284D02*
X1980942D01*
X1983315D02*
X1986138D01*
X1988421D02*
X1990256D01*
X1993168D02*
X1994737D01*
X1998454D02*
X2000291D01*
X2003022D02*
X2004859D01*
X2007053D02*
X2008801D01*
X2011532D02*
X2013280D01*
X2016011D02*
X2019550D01*
X2021833D02*
X2022596D01*
X2026133D02*
X2028058D01*
X2030881D02*
X2032537D01*
X2036256D02*
X2038093D01*
X2040824D02*
X2042572D01*
X2045034D02*
X2047140D01*
X2050319D02*
X2052067D01*
X1936913Y1661291D02*
X1942782D01*
X1946409D02*
X1949409D01*
X1953217D02*
X1953800D01*
X1957606D02*
X1960518D01*
X1964145D02*
X1970103D01*
X1979284D02*
X1980942D01*
X1983315D02*
X1986317D01*
X1988331D02*
X1990256D01*
X1993168D02*
X1994737D01*
X1998543D02*
X2000380D01*
X2002932D02*
X2004770D01*
X2007053D02*
X2008890D01*
X2011442D02*
X2013280D01*
X2016011D02*
X2019729D01*
X2021833D02*
X2022775D01*
X2026044D02*
X2027969D01*
X2030881D02*
X2032537D01*
X2036256D02*
X2038182D01*
X2040734D02*
X2042572D01*
X2045124D02*
X2047230D01*
X2050140D02*
X2052067D01*
X1936824Y1661381D02*
X1942782D01*
X1946409D02*
X1949409D01*
X1953217D02*
X1953708D01*
X1957516D02*
X1960518D01*
X1964145D02*
X1970103D01*
X1979284D02*
X1980942D01*
X1983315D02*
X1986496D01*
X1988152D02*
X1990256D01*
X1993168D02*
X1994737D01*
X1998543D02*
X2000560D01*
X2002843D02*
X2004770D01*
X2007143D02*
X2008980D01*
X2011353D02*
X2013190D01*
X2016011D02*
X2020088D01*
X2021833D02*
X2023042D01*
X2025954D02*
X2027969D01*
X2030881D02*
X2032537D01*
X2036345D02*
X2038272D01*
X2040645D02*
X2042482D01*
X2045124D02*
X2047409D01*
X2049871D02*
X2052067D01*
X1936824Y1661470D02*
X1942782D01*
X1946409D02*
X1949498D01*
X1953306D02*
X1953619D01*
X1957427D02*
X1960518D01*
X1964145D02*
X1970103D01*
X1979284D02*
X1980942D01*
X1983315D02*
X1986675D01*
X1988063D02*
X1990256D01*
X1993168D02*
X1994737D01*
X1998633D02*
X2000649D01*
X2002753D02*
X2004680D01*
X2007143D02*
X2009070D01*
X2011263D02*
X2013996D01*
X2016011D02*
X2017490D01*
X2017713D02*
X2020446D01*
X2021744D02*
X2023400D01*
X2025864D02*
X2027969D01*
X2030881D02*
X2032537D01*
X2036345D02*
X2038362D01*
X2040466D02*
X2042482D01*
X2045213D02*
X2047588D01*
X2049603D02*
X2052067D01*
X1936824Y1661560D02*
X1942782D01*
X1946409D02*
X1949588D01*
X1953306D02*
X1953619D01*
X1957427D02*
X1960518D01*
X1964145D02*
X1970191D01*
X1979284D02*
X1980942D01*
X1983315D02*
X1987033D01*
X1987794D02*
X1990167D01*
X1991735D02*
X1996887D01*
X1998633D02*
X2000828D01*
X2002574D02*
X2004680D01*
X2007232D02*
X2009159D01*
X2011174D02*
X2014803D01*
X2016011D02*
X2017490D01*
X2017802D02*
X2020804D01*
X2021744D02*
X2023758D01*
X2025596D02*
X2027879D01*
X2029448D02*
X2034599D01*
X2036435D02*
X2038541D01*
X2040376D02*
X2042393D01*
X2045303D02*
X2047857D01*
X2049155D02*
X2052067D01*
X1936824Y1661649D02*
X1942782D01*
X1946409D02*
X1949588D01*
X1953396D02*
X1953531D01*
X1957337D02*
X1960518D01*
X1964145D02*
X1970191D01*
X1979284D02*
X1980942D01*
X1983315D02*
X1990167D01*
X1991735D02*
X1996887D01*
X1998722D02*
X2001007D01*
X2002395D02*
X2004591D01*
X2007232D02*
X2009249D01*
X2010995D02*
X2014803D01*
X2016011D02*
X2017490D01*
X2017802D02*
X2020804D01*
X2021744D02*
X2024386D01*
X2025237D02*
X2027879D01*
X2029448D02*
X2034599D01*
X2036524D02*
X2038720D01*
X2040197D02*
X2042393D01*
X2045393D02*
X2052067D01*
X1936734Y1661739D02*
X1942782D01*
X1946409D02*
X1949677D01*
X1953485D02*
X1953531D01*
X1957337D02*
X1960518D01*
X1964145D02*
X1970191D01*
X1979284D02*
X1980942D01*
X1983315D02*
X1990167D01*
X1991735D02*
X1996887D01*
X1998812D02*
X2001276D01*
X2002126D02*
X2004501D01*
X2007322D02*
X2009517D01*
X2010815D02*
X2014713D01*
X2016011D02*
X2017490D01*
X2017892D02*
X2020804D01*
X2021744D02*
X2027879D01*
X2029448D02*
X2034599D01*
X2036524D02*
X2039078D01*
X2039839D02*
X2042303D01*
X2045393D02*
X2052067D01*
X1936734Y1661828D02*
X1942782D01*
X1946409D02*
X1949677D01*
X1957248D02*
X1960518D01*
X1964145D02*
X1970191D01*
X1979284D02*
X1980942D01*
X1983315D02*
X1984794D01*
X1984927D02*
X1990077D01*
X1991735D02*
X1996887D01*
X1998901D02*
X2004501D01*
X2007322D02*
X2009786D01*
X2010547D02*
X2014713D01*
X2016011D02*
X2017490D01*
X2017982D02*
X2020804D01*
X2021744D02*
X2027789D01*
X2029448D02*
X2034599D01*
X2036614D02*
X2042213D01*
X2045482D02*
X2052067D01*
X1936734Y1661918D02*
X1942782D01*
X1946409D02*
X1949767D01*
X1957248D02*
X1960518D01*
X1964145D02*
X1970280D01*
X1979284D02*
X1980942D01*
X1983315D02*
X1984794D01*
X1985017D02*
X1990077D01*
X1991735D02*
X1996887D01*
X1998991D02*
X2004411D01*
X2007411D02*
X2014713D01*
X2016011D02*
X2017490D01*
X2018071D02*
X2020804D01*
X2021744D02*
X2027789D01*
X2029448D02*
X2034599D01*
X2036703D02*
X2042213D01*
X2045572D02*
X2052067D01*
X1936734Y1662008D02*
X1942782D01*
X1946409D02*
X1949767D01*
X1957158D02*
X1960518D01*
X1964145D02*
X1970280D01*
X1979284D02*
X1980942D01*
X1983315D02*
X1984794D01*
X1985106D02*
X1989988D01*
X1991735D02*
X1996887D01*
X1998991D02*
X2004322D01*
X2007501D02*
X2014713D01*
X2016011D02*
X2017490D01*
X2018161D02*
X2020715D01*
X2021744D02*
X2027700D01*
X2029448D02*
X2034599D01*
X2036793D02*
X2042124D01*
X2045661D02*
X2052067D01*
X1936645Y1662097D02*
X1942782D01*
X1946409D02*
X1949857D01*
X1957158D02*
X1960518D01*
X1964145D02*
X1970280D01*
X1979284D02*
X1980942D01*
X1983315D02*
X1984794D01*
X1985286D02*
X1989988D01*
X1991735D02*
X1996887D01*
X1999081D02*
X2004232D01*
X2007591D02*
X2014713D01*
X2016011D02*
X2017400D01*
X2018250D02*
X2020715D01*
X2021654D02*
X2027700D01*
X2029448D02*
X2034599D01*
X2036883D02*
X2042034D01*
X2045751D02*
X2052067D01*
X1936645Y1662187D02*
X1942782D01*
X1946409D02*
X1949857D01*
X1957068D02*
X1960518D01*
X1964145D02*
X1970280D01*
X1979284D02*
X1980942D01*
X1983315D02*
X1984794D01*
X1985375D02*
X1989898D01*
X1991735D02*
X1996887D01*
X1999170D02*
X2004143D01*
X2007680D02*
X2014713D01*
X2016011D02*
X2017400D01*
X2018340D02*
X2020715D01*
X2021654D02*
X2027610D01*
X2029448D02*
X2034599D01*
X2036972D02*
X2041945D01*
X2045840D02*
X2052067D01*
X1936645Y1662276D02*
X1942782D01*
X1946409D02*
X1949946D01*
X1956979D02*
X1960518D01*
X1964145D02*
X1970280D01*
X1979284D02*
X1980942D01*
X1983315D02*
X1984704D01*
X1985465D02*
X1989808D01*
X1991735D02*
X1996887D01*
X1999349D02*
X2004053D01*
X2007770D02*
X2014623D01*
X2016011D02*
X2017400D01*
X2018430D02*
X2020715D01*
X2021654D02*
X2027521D01*
X2029448D02*
X2034599D01*
X2037062D02*
X2041855D01*
X2045930D02*
X2052067D01*
X1936645Y1662366D02*
X1942782D01*
X1946409D02*
X1950038D01*
X1956979D02*
X1960518D01*
X1964145D02*
X1970370D01*
X1979284D02*
X1980942D01*
X1983315D02*
X1984704D01*
X1985644D02*
X1989808D01*
X1991735D02*
X1996887D01*
X1999439D02*
X2003964D01*
X2007859D02*
X2014623D01*
X2016011D02*
X2017400D01*
X2018519D02*
X2020715D01*
X2021654D02*
X2027431D01*
X2029448D02*
X2034599D01*
X2037151D02*
X2041766D01*
X2046109D02*
X2052067D01*
X1936555Y1662455D02*
X1942782D01*
X1946409D02*
X1950038D01*
X1956889D02*
X1960518D01*
X1964145D02*
X1970370D01*
X1979284D02*
X1980942D01*
X1983315D02*
X1984704D01*
X1985733D02*
X1989719D01*
X1991735D02*
X1996887D01*
X1999529D02*
X2003874D01*
X2007949D02*
X2012294D01*
X2012517D02*
X2014623D01*
X2016011D02*
X2017400D01*
X2018698D02*
X2020715D01*
X2021744D02*
X2027342D01*
X2029448D02*
X2034599D01*
X2037330D02*
X2041586D01*
X2046199D02*
X2052067D01*
X1936555Y1662545D02*
X1942782D01*
X1946409D02*
X1950127D01*
X1956889D02*
X1960518D01*
X1964145D02*
X1970370D01*
X1979284D02*
X1980942D01*
X1983315D02*
X1984704D01*
X1985913D02*
X1989629D01*
X1991735D02*
X1996887D01*
X1999618D02*
X2003695D01*
X2008128D02*
X2012205D01*
X2012786D02*
X2014623D01*
X2016011D02*
X2017400D01*
X2018788D02*
X2020625D01*
X2022013D02*
X2027252D01*
X2029448D02*
X2034599D01*
X2037420D02*
X2041497D01*
X2046378D02*
X2052067D01*
X1936555Y1662635D02*
X1942782D01*
X1946409D02*
X1950127D01*
X1956800D02*
X1960518D01*
X1964145D02*
X1970370D01*
X1979284D02*
X1980942D01*
X1983315D02*
X1984704D01*
X1986002D02*
X1989450D01*
X1991735D02*
X1996887D01*
X1999797D02*
X2003605D01*
X2008218D02*
X2012026D01*
X2013055D02*
X2014623D01*
X2016011D02*
X2017311D01*
X2018967D02*
X2020625D01*
X2022281D02*
X2027073D01*
X2029448D02*
X2034599D01*
X2037599D02*
X2041318D01*
X2046557D02*
X2052067D01*
X1936555Y1662724D02*
X1942782D01*
X1946409D02*
X1950217D01*
X1956800D02*
X1960518D01*
X1964145D02*
X1970370D01*
X1979284D02*
X1980942D01*
X1983315D02*
X1984704D01*
X1986181D02*
X1989360D01*
X1991735D02*
X1996887D01*
X1999976D02*
X2003426D01*
X2008397D02*
X2011846D01*
X2013324D02*
X2014623D01*
X2016011D02*
X2017311D01*
X2019057D02*
X2020625D01*
X2022550D02*
X2026983D01*
X2029448D02*
X2034599D01*
X2037689D02*
X2041228D01*
X2046736D02*
X2052067D01*
X1936555Y1662814D02*
X1942782D01*
X1946409D02*
X1950217D01*
X1956710D02*
X1960518D01*
X1964145D02*
X1970459D01*
X1979284D02*
X1980942D01*
X1983315D02*
X1984615D01*
X1986450D02*
X1989181D01*
X1991735D02*
X1996887D01*
X2000156D02*
X2003247D01*
X2008576D02*
X2011667D01*
X2013682D02*
X2014534D01*
X2016011D02*
X2017311D01*
X2019236D02*
X2020625D01*
X2022819D02*
X2026804D01*
X2029448D02*
X2034599D01*
X2037868D02*
X2041049D01*
X2046915D02*
X2050096D01*
X2050409D02*
X2052067D01*
X1936555Y1662903D02*
X1942782D01*
X1946409D02*
X1950304D01*
X1956710D02*
X1960518D01*
X1964145D02*
X1970459D01*
X1979284D02*
X1980942D01*
X1983315D02*
X1984615D01*
X1986629D02*
X1989002D01*
X1991735D02*
X1996887D01*
X2000335D02*
X2003068D01*
X2008845D02*
X2011488D01*
X2013951D02*
X2014534D01*
X2016011D02*
X2017311D01*
X2019504D02*
X2020625D01*
X2023088D02*
X2026535D01*
X2029448D02*
X2034599D01*
X2038137D02*
X2040780D01*
X2047184D02*
X2049738D01*
X2050409D02*
X2052067D01*
X1936466Y1662993D02*
X1942782D01*
X1946409D02*
X1950304D01*
X1956621D02*
X1960518D01*
X1964145D02*
X1970459D01*
X1986898D02*
X1988823D01*
X1993168D02*
X1994737D01*
X2000693D02*
X2002709D01*
X2009113D02*
X2011219D01*
X2014219D02*
X2014534D01*
X2019773D02*
X2020625D01*
X2023535D02*
X2026267D01*
X2030881D02*
X2032537D01*
X2038405D02*
X2040511D01*
X2047542D02*
X2049200D01*
X2050409D02*
X2052067D01*
X1936466Y1663083D02*
X1942782D01*
X1946409D02*
X1950394D01*
X1956531D02*
X1960518D01*
X1964145D02*
X1970459D01*
X1987346D02*
X1988375D01*
X1993168D02*
X1994737D01*
X2001051D02*
X2002262D01*
X2009561D02*
X2010771D01*
X2020131D02*
X2020536D01*
X2024163D02*
X2025729D01*
X2030881D02*
X2032537D01*
X2038853D02*
X2040064D01*
X2050409D02*
X2052067D01*
X1936466Y1663172D02*
X1942782D01*
X1946409D02*
X1950484D01*
X1956531D02*
X1960518D01*
X1964145D02*
X1970459D01*
X1993168D02*
X1994737D01*
X2030881D02*
X2032537D01*
X2050409D02*
X2052067D01*
X1936466Y1663262D02*
X1942782D01*
X1946409D02*
X1950484D01*
X1956441D02*
X1960518D01*
X1964145D02*
X1970459D01*
X1993168D02*
X1994737D01*
X2030881D02*
X2032537D01*
X2050409D02*
X2052067D01*
X1936466Y1663351D02*
X1942782D01*
X1946409D02*
X1950573D01*
X1956441D02*
X1960518D01*
X1964145D02*
X1970549D01*
X1993168D02*
X1994737D01*
X2030881D02*
X2032537D01*
X2050409D02*
X2052067D01*
X1936466Y1663441D02*
X1942782D01*
X1946409D02*
X1950573D01*
X1956352D02*
X1960518D01*
X1964145D02*
X1970549D01*
X1993168D02*
X1994737D01*
X2030881D02*
X2032537D01*
X2050409D02*
X2052067D01*
X1936376Y1663530D02*
X1942782D01*
X1946409D02*
X1950663D01*
X1956352D02*
X1960518D01*
X1964145D02*
X1970549D01*
X1993168D02*
X1994737D01*
X2030881D02*
X2032537D01*
X2050409D02*
X2052067D01*
X1936376Y1663620D02*
X1942782D01*
X1946409D02*
X1950663D01*
X1956262D02*
X1960518D01*
X1964145D02*
X1970549D01*
X1993168D02*
X1994737D01*
X2030881D02*
X2032537D01*
X2050409D02*
X2052067D01*
X1936376Y1663710D02*
X1942782D01*
X1946409D02*
X1950752D01*
X1956262D02*
X1960518D01*
X1964145D02*
X1970549D01*
X1993168D02*
X1994737D01*
X2030881D02*
X2032537D01*
X2050409D02*
X2052067D01*
X1936376Y1663799D02*
X1942782D01*
X1946409D02*
X1950752D01*
X1956173D02*
X1960518D01*
X1964145D02*
X1970549D01*
X1993168D02*
X1994737D01*
X2030881D02*
X2032537D01*
X2050409D02*
X2052067D01*
X1936376Y1663889D02*
X1942782D01*
X1946409D02*
X1950842D01*
X1956083D02*
X1960518D01*
X1964145D02*
X1970549D01*
X1993168D02*
X1994737D01*
X2030881D02*
X2032537D01*
X2050409D02*
X2052067D01*
X1936376Y1663978D02*
X1942782D01*
X1946409D02*
X1950931D01*
X1956083D02*
X1960518D01*
X1964145D02*
X1970639D01*
X1993168D02*
X1994737D01*
X2030881D02*
X2032537D01*
X2050409D02*
X2052067D01*
X1936376Y1664068D02*
X1942782D01*
X1946409D02*
X1950931D01*
X1955994D02*
X1960518D01*
X1964145D02*
X1970639D01*
X1993168D02*
X1994737D01*
X2030881D02*
X2032537D01*
X2050409D02*
X2052067D01*
X1936376Y1664157D02*
X1942782D01*
X1946409D02*
X1951021D01*
X1955994D02*
X1960518D01*
X1964145D02*
X1970639D01*
X1993168D02*
X1994737D01*
X2030881D02*
X2032537D01*
X2050409D02*
X2052067D01*
X1936286Y1664247D02*
X1942782D01*
X1946409D02*
X1951021D01*
X1955904D02*
X1960518D01*
X1964145D02*
X1970639D01*
X1993168D02*
X1994737D01*
X2030881D02*
X2032537D01*
X2050409D02*
X2052067D01*
X1936286Y1664337D02*
X1942782D01*
X1946409D02*
X1951111D01*
X1955904D02*
X1960518D01*
X1964145D02*
X1970639D01*
X1993168D02*
X1994737D01*
X2030881D02*
X2032537D01*
X2050409D02*
X2052067D01*
X1936286Y1664426D02*
X1942782D01*
X1946409D02*
X1951111D01*
X1955814D02*
X1960518D01*
X1964145D02*
X1970639D01*
X1993168D02*
X1994737D01*
X2030881D02*
X2032537D01*
X2050409D02*
X2052067D01*
X1936286Y1664516D02*
X1942782D01*
X1946409D02*
X1951200D01*
X1955814D02*
X1960518D01*
X1964145D02*
X1970639D01*
X1993168D02*
X1994737D01*
X2030881D02*
X2032537D01*
X2050409D02*
X2052067D01*
X1936286Y1664605D02*
X1942782D01*
X1946409D02*
X1951200D01*
X1955725D02*
X1960518D01*
X1964145D02*
X1970639D01*
X1979821D02*
X1980405D01*
X1993168D02*
X1994737D01*
X2030881D02*
X2032537D01*
X2050409D02*
X2052067D01*
X1936286Y1664695D02*
X1942782D01*
X1946409D02*
X1951292D01*
X1955635D02*
X1960518D01*
X1964145D02*
X1970639D01*
X1979553D02*
X1980584D01*
X1993168D02*
X1994737D01*
X2030881D02*
X2032537D01*
X2050409D02*
X2052067D01*
X1936286Y1664784D02*
X1942782D01*
X1946409D02*
X1951381D01*
X1955635D02*
X1960518D01*
X1964145D02*
X1970639D01*
X1979463D02*
X1980763D01*
X1993168D02*
X1994737D01*
X2030881D02*
X2032537D01*
X2050409D02*
X2052067D01*
X1936286Y1664874D02*
X1942782D01*
X1946409D02*
X1951381D01*
X1955546D02*
X1960518D01*
X1964145D02*
X1970639D01*
X1979373D02*
X1980852D01*
X1993168D02*
X1994737D01*
X2030881D02*
X2032537D01*
X2050409D02*
X2052067D01*
X1936286Y1664964D02*
X1942782D01*
X1946409D02*
X1951469D01*
X1955546D02*
X1960518D01*
X1964145D02*
X1970639D01*
X1979284D02*
X1980942D01*
X1993168D02*
X1994737D01*
X2030881D02*
X2032537D01*
X2050409D02*
X2052067D01*
X1936286Y1665053D02*
X1942782D01*
X1946409D02*
X1951469D01*
X1955456D02*
X1960518D01*
X1964145D02*
X1970728D01*
X1979194D02*
X1980942D01*
X1993168D02*
X1994737D01*
X2030881D02*
X2032537D01*
X2050409D02*
X2052067D01*
X1936286Y1665143D02*
X1942782D01*
X1946409D02*
X1951559D01*
X1955456D02*
X1960518D01*
X1964145D02*
X1970728D01*
X1979194D02*
X1981032D01*
X1993168D02*
X1994737D01*
X2030881D02*
X2032537D01*
X2050409D02*
X2052067D01*
X1936286Y1665232D02*
X1942782D01*
X1946409D02*
X1951559D01*
X1955367D02*
X1960518D01*
X1964145D02*
X1970728D01*
X1979105D02*
X1981032D01*
X1993168D02*
X1994737D01*
X2030881D02*
X2032537D01*
X2050409D02*
X2052067D01*
X1936286Y1665322D02*
X1942782D01*
X1946409D02*
X1951648D01*
X1955367D02*
X1960518D01*
X1964145D02*
X1970728D01*
X1979105D02*
X1981121D01*
X1993168D02*
X1994737D01*
X2030881D02*
X2032537D01*
X2050409D02*
X2052067D01*
X1936286Y1665412D02*
X1942782D01*
X1946409D02*
X1951648D01*
X1955456D02*
X1960518D01*
X1964145D02*
X1970728D01*
X1979105D02*
X1981121D01*
X1993168D02*
X1994737D01*
X2030881D02*
X2032537D01*
X2050409D02*
X2052067D01*
X1936286Y1665501D02*
X1942782D01*
X1946409D02*
X1951738D01*
X1955546D02*
X1960518D01*
X1964145D02*
X1970728D01*
X1979015D02*
X1981121D01*
X1993168D02*
X1994737D01*
X2030881D02*
X2032537D01*
X2050409D02*
X2052067D01*
X1936286Y1665591D02*
X1942782D01*
X1946409D02*
X1951827D01*
X1955546D02*
X1960518D01*
X1964145D02*
X1970728D01*
X1979015D02*
X1981121D01*
X1993168D02*
X1994737D01*
X2030881D02*
X2032537D01*
X2050409D02*
X2052067D01*
X1936286Y1665680D02*
X1942782D01*
X1946409D02*
X1951827D01*
X1955635D02*
X1960518D01*
X1964145D02*
X1970728D01*
X1979015D02*
X1981121D01*
X2050409D02*
X2052067D01*
X1936286Y1665770D02*
X1942782D01*
X1946409D02*
X1951919D01*
X1955635D02*
X1960518D01*
X1964145D02*
X1970728D01*
X1979105D02*
X1981121D01*
X2050409D02*
X2052067D01*
X1936286Y1665859D02*
X1942782D01*
X1946409D02*
X1951919D01*
X1955725D02*
X1960518D01*
X1964145D02*
X1970728D01*
X1979105D02*
X1981121D01*
X2050409D02*
X2052067D01*
X1936286Y1665949D02*
X1942782D01*
X1946409D02*
X1952006D01*
X1955725D02*
X1960518D01*
X1964145D02*
X1970728D01*
X1979105D02*
X1981121D01*
X2050409D02*
X2052067D01*
X1936286Y1666039D02*
X1942782D01*
X1946409D02*
X1952006D01*
X1955814D02*
X1960518D01*
X1964145D02*
X1970728D01*
X1979105D02*
X1981032D01*
X2050409D02*
X2052067D01*
X1936286Y1666128D02*
X1942782D01*
X1946409D02*
X1952096D01*
X1955814D02*
X1960518D01*
X1964145D02*
X1970728D01*
X1979194D02*
X1981032D01*
X2050409D02*
X2052067D01*
X1936286Y1666218D02*
X1942782D01*
X1946409D02*
X1952096D01*
X1955904D02*
X1960518D01*
X1964145D02*
X1970728D01*
X1979194D02*
X1980942D01*
X2050409D02*
X2052067D01*
X1936286Y1666307D02*
X1942782D01*
X1946409D02*
X1952187D01*
X1955994D02*
X1960518D01*
X1964145D02*
X1970728D01*
X1979284D02*
X1980942D01*
X2050409D02*
X2052067D01*
X1936286Y1666397D02*
X1942782D01*
X1946409D02*
X1952275D01*
X1955994D02*
X1960518D01*
X1964145D02*
X1970728D01*
X1979373D02*
X1980852D01*
X2050409D02*
X2052067D01*
X1936286Y1666486D02*
X1942782D01*
X1946409D02*
X1952275D01*
X1956083D02*
X1960518D01*
X1964145D02*
X1970728D01*
X1979463D02*
X1980763D01*
X2050409D02*
X2052067D01*
X1936286Y1666576D02*
X1942782D01*
X1946409D02*
X1952365D01*
X1956083D02*
X1960518D01*
X1964145D02*
X1970728D01*
X1979642D02*
X1980584D01*
X2050409D02*
X2052067D01*
X1936286Y1666666D02*
X1942782D01*
X1946409D02*
X1952365D01*
X1956173D02*
X1960518D01*
X1964145D02*
X1970728D01*
X1979821D02*
X1980315D01*
X2050409D02*
X2052067D01*
X1936286Y1666755D02*
X1942782D01*
X1946409D02*
X1952454D01*
X1956173D02*
X1960518D01*
X1964145D02*
X1970728D01*
X2050409D02*
X2052067D01*
X1936286Y1666845D02*
X1942782D01*
X1946409D02*
X1952454D01*
X1956262D02*
X1960518D01*
X1964145D02*
X1970728D01*
X2050409D02*
X2052067D01*
X1936286Y1666934D02*
X1942782D01*
X1946409D02*
X1950663D01*
X1950798D02*
X1952546D01*
X1956262D02*
X1960518D01*
X1964145D02*
X1970728D01*
X2050409D02*
X2052067D01*
X1936286Y1667024D02*
X1942782D01*
X1946409D02*
X1950573D01*
X1950798D02*
X1952546D01*
X1956352D02*
X1960518D01*
X1964145D02*
X1970639D01*
X1936286Y1667114D02*
X1942782D01*
X1946409D02*
X1950573D01*
X1950888D02*
X1952635D01*
X1956441D02*
X1960518D01*
X1964145D02*
X1970639D01*
X1936286Y1667203D02*
X1942782D01*
X1946409D02*
X1950484D01*
X1950888D02*
X1952725D01*
X1956441D02*
X1960518D01*
X1964145D02*
X1970639D01*
X1936286Y1667293D02*
X1942782D01*
X1946409D02*
X1950484D01*
X1950977D02*
X1952725D01*
X1956531D02*
X1960518D01*
X1964145D02*
X1970639D01*
X1936286Y1667382D02*
X1942782D01*
X1946409D02*
X1950394D01*
X1950977D02*
X1952813D01*
X1956531D02*
X1960518D01*
X1964145D02*
X1970639D01*
X1936286Y1667472D02*
X1942782D01*
X1946409D02*
X1950394D01*
X1951067D02*
X1952813D01*
X1956621D02*
X1960518D01*
X1964145D02*
X1970639D01*
X1936286Y1667561D02*
X1942782D01*
X1946409D02*
X1950304D01*
X1951067D02*
X1952904D01*
X1956621D02*
X1960518D01*
X1964145D02*
X1970639D01*
X1936286Y1667651D02*
X1942782D01*
X1946409D02*
X1950304D01*
X1951156D02*
X1952904D01*
X1956710D02*
X1960518D01*
X1964145D02*
X1970639D01*
X1936286Y1667741D02*
X1942782D01*
X1946409D02*
X1950217D01*
X1951246D02*
X1952994D01*
X1956710D02*
X1960518D01*
X1964145D02*
X1970639D01*
X1936376Y1667830D02*
X1942782D01*
X1946409D02*
X1950127D01*
X1951246D02*
X1952994D01*
X1956800D02*
X1960518D01*
X1964145D02*
X1970639D01*
X1936376Y1667920D02*
X1942782D01*
X1946409D02*
X1950127D01*
X1951335D02*
X1953081D01*
X1956889D02*
X1960518D01*
X1964145D02*
X1970639D01*
X1936376Y1668009D02*
X1942782D01*
X1946409D02*
X1950038D01*
X1951335D02*
X1953173D01*
X1956889D02*
X1960518D01*
X1964145D02*
X1970639D01*
X1936376Y1668099D02*
X1942782D01*
X1946409D02*
X1950038D01*
X1951425D02*
X1953173D01*
X1956979D02*
X1960518D01*
X1964145D02*
X1970549D01*
X1936376Y1668188D02*
X1942782D01*
X1946409D02*
X1949946D01*
X1951425D02*
X1953262D01*
X1956979D02*
X1960518D01*
X1964145D02*
X1970549D01*
X1936376Y1668278D02*
X1942782D01*
X1946409D02*
X1949946D01*
X1951515D02*
X1953262D01*
X1957068D02*
X1960518D01*
X1964145D02*
X1970549D01*
X1936376Y1668368D02*
X1942782D01*
X1946409D02*
X1949857D01*
X1951515D02*
X1953352D01*
X1957068D02*
X1960518D01*
X1964145D02*
X1970549D01*
X1936376Y1668457D02*
X1942782D01*
X1946409D02*
X1949857D01*
X1951604D02*
X1953352D01*
X1957158D02*
X1960518D01*
X1964145D02*
X1970549D01*
X1936466Y1668547D02*
X1942782D01*
X1946409D02*
X1949767D01*
X1951604D02*
X1953441D01*
X1957158D02*
X1960518D01*
X1964145D02*
X1970549D01*
X1936466Y1668636D02*
X1942782D01*
X1946409D02*
X1949677D01*
X1951694D02*
X1953441D01*
X1957248D02*
X1960518D01*
X1964145D02*
X1970549D01*
X1936466Y1668726D02*
X1942782D01*
X1946409D02*
X1949677D01*
X1951783D02*
X1953531D01*
X1957337D02*
X1960518D01*
X1964145D02*
X1970459D01*
X1995318D02*
X1996349D01*
X1936466Y1668816D02*
X1942782D01*
X1946409D02*
X1949588D01*
X1951783D02*
X1953619D01*
X1957337D02*
X1960518D01*
X1964145D02*
X1970459D01*
X1994870D02*
X1996797D01*
X1936466Y1668905D02*
X1942782D01*
X1946409D02*
X1949588D01*
X1951873D02*
X1953619D01*
X1957427D02*
X1960518D01*
X1964145D02*
X1970459D01*
X1979284D02*
X1980942D01*
X1984569D02*
X1986138D01*
X1989764D02*
X1991421D01*
X1994602D02*
X1997156D01*
X1998991D02*
X2000291D01*
X2001499D02*
X2003247D01*
X2007501D02*
X2009338D01*
X2010636D02*
X2012294D01*
X2014667D02*
X2016325D01*
X2019952D02*
X2021610D01*
X2025237D02*
X2026804D01*
X1936466Y1668995D02*
X1942782D01*
X1946409D02*
X1949498D01*
X1951873D02*
X1953708D01*
X1957427D02*
X1960518D01*
X1964145D02*
X1970459D01*
X1979284D02*
X1980942D01*
X1984569D02*
X1986138D01*
X1989764D02*
X1991421D01*
X1994423D02*
X1997335D01*
X1998901D02*
X2000291D01*
X2001499D02*
X2003336D01*
X2007411D02*
X2009338D01*
X2010636D02*
X2012294D01*
X2014667D02*
X2016325D01*
X2019952D02*
X2021610D01*
X2025237D02*
X2026804D01*
X1936555Y1669084D02*
X1942782D01*
X1946409D02*
X1949498D01*
X1951963D02*
X1953708D01*
X1957516D02*
X1960518D01*
X1964145D02*
X1970459D01*
X1979284D02*
X1980942D01*
X1984569D02*
X1986138D01*
X1989764D02*
X1991421D01*
X1994243D02*
X1997604D01*
X1998901D02*
X2000291D01*
X2001499D02*
X2003426D01*
X2007322D02*
X2009249D01*
X2010636D02*
X2012294D01*
X2014667D02*
X2016325D01*
X2019952D02*
X2021610D01*
X2025237D02*
X2026804D01*
X1936555Y1669174D02*
X1942782D01*
X1946409D02*
X1949409D01*
X1951963D02*
X1953800D01*
X1957516D02*
X1960518D01*
X1964145D02*
X1970459D01*
X1979284D02*
X1980942D01*
X1984569D02*
X1986138D01*
X1989764D02*
X1991421D01*
X1994154D02*
X1997693D01*
X1998901D02*
X2000291D01*
X2001589D02*
X2003426D01*
X2007322D02*
X2009249D01*
X2010636D02*
X2012294D01*
X2014667D02*
X2016325D01*
X2019952D02*
X2021610D01*
X2025237D02*
X2026804D01*
X1936555Y1669263D02*
X1942782D01*
X1946409D02*
X1949409D01*
X1952052D02*
X1953800D01*
X1957606D02*
X1960518D01*
X1964145D02*
X1970370D01*
X1979284D02*
X1980942D01*
X1984569D02*
X1986138D01*
X1989764D02*
X1991421D01*
X1994064D02*
X1997872D01*
X1998901D02*
X2000291D01*
X2001678D02*
X2003516D01*
X2007232D02*
X2009159D01*
X2010636D02*
X2012294D01*
X2014667D02*
X2016325D01*
X2019952D02*
X2021610D01*
X2025237D02*
X2026804D01*
X1936555Y1669353D02*
X1942782D01*
X1946409D02*
X1949319D01*
X1952052D02*
X1953889D01*
X1957606D02*
X1960518D01*
X1964145D02*
X1970370D01*
X1979284D02*
X1980942D01*
X1984569D02*
X1986138D01*
X1989764D02*
X1991421D01*
X1993885D02*
X1998051D01*
X1998901D02*
X2000291D01*
X2001768D02*
X2003605D01*
X2007143D02*
X2009070D01*
X2010636D02*
X2012294D01*
X2014667D02*
X2016325D01*
X2019952D02*
X2021610D01*
X2025237D02*
X2026804D01*
X1936555Y1669443D02*
X1942782D01*
X1946409D02*
X1949229D01*
X1952142D02*
X1953889D01*
X1957696D02*
X1960518D01*
X1964145D02*
X1970370D01*
X1979284D02*
X1980942D01*
X1984569D02*
X1986138D01*
X1989764D02*
X1991421D01*
X1993796D02*
X1998141D01*
X1998901D02*
X2000291D01*
X2001768D02*
X2003605D01*
X2007143D02*
X2009070D01*
X2010636D02*
X2012294D01*
X2014667D02*
X2016325D01*
X2019952D02*
X2021610D01*
X2025237D02*
X2026804D01*
X1936645Y1669532D02*
X1942782D01*
X1946409D02*
X1949229D01*
X1952231D02*
X1953979D01*
X1957785D02*
X1960518D01*
X1964145D02*
X1970370D01*
X1979284D02*
X1980942D01*
X1984569D02*
X1986138D01*
X1989764D02*
X1991421D01*
X1993796D02*
X1998320D01*
X1998812D02*
X2000291D01*
X2001858D02*
X2003695D01*
X2007053D02*
X2008980D01*
X2010636D02*
X2012294D01*
X2014667D02*
X2016325D01*
X2019952D02*
X2021610D01*
X2025237D02*
X2026804D01*
X1936645Y1669622D02*
X1942782D01*
X1946409D02*
X1949140D01*
X1952231D02*
X1954069D01*
X1957785D02*
X1960518D01*
X1964145D02*
X1970370D01*
X1979284D02*
X1980942D01*
X1984569D02*
X1986138D01*
X1989764D02*
X1991421D01*
X1993706D02*
X1998410D01*
X1998812D02*
X2000291D01*
X2001947D02*
X2003784D01*
X2006964D02*
X2008890D01*
X2010636D02*
X2012294D01*
X2014667D02*
X2016325D01*
X2019952D02*
X2021610D01*
X2025237D02*
X2026804D01*
X1936645Y1669711D02*
X1942782D01*
X1946409D02*
X1949140D01*
X1952321D02*
X1954069D01*
X1957875D02*
X1960518D01*
X1964145D02*
X1970280D01*
X1979284D02*
X1980942D01*
X1984569D02*
X1986138D01*
X1989764D02*
X1991421D01*
X1993616D02*
X1998499D01*
X1998812D02*
X2000291D01*
X2001947D02*
X2003784D01*
X2006964D02*
X2008890D01*
X2010636D02*
X2012294D01*
X2014667D02*
X2016325D01*
X2019952D02*
X2021610D01*
X2025237D02*
X2026804D01*
X1936645Y1669801D02*
X1942782D01*
X1946409D02*
X1949050D01*
X1952321D02*
X1954158D01*
X1957875D02*
X1960518D01*
X1964145D02*
X1970280D01*
X1979284D02*
X1980942D01*
X1984569D02*
X1986138D01*
X1989764D02*
X1991421D01*
X1993616D02*
X1998589D01*
X1998812D02*
X2000291D01*
X2002037D02*
X2003874D01*
X2006874D02*
X2008801D01*
X2010636D02*
X2012294D01*
X2014667D02*
X2016325D01*
X2019952D02*
X2021610D01*
X2025237D02*
X2026804D01*
X1936645Y1669890D02*
X1942782D01*
X1946409D02*
X1949050D01*
X1952410D02*
X1954158D01*
X1957964D02*
X1960518D01*
X1964145D02*
X1970280D01*
X1979284D02*
X1980942D01*
X1984569D02*
X1986138D01*
X1989764D02*
X1991421D01*
X1993527D02*
X1998678D01*
X1998812D02*
X2000291D01*
X2002126D02*
X2003964D01*
X2006784D02*
X2008711D01*
X2010636D02*
X2012294D01*
X2014667D02*
X2016325D01*
X2019952D02*
X2021610D01*
X2025237D02*
X2026804D01*
X1936734Y1669980D02*
X1942782D01*
X1946409D02*
X1948961D01*
X1952410D02*
X1954248D01*
X1957964D02*
X1960518D01*
X1964145D02*
X1970280D01*
X1979284D02*
X1980942D01*
X1984569D02*
X1986138D01*
X1989764D02*
X1991421D01*
X1993437D02*
X2000291D01*
X2002126D02*
X2003964D01*
X2006784D02*
X2008622D01*
X2010636D02*
X2012294D01*
X2014667D02*
X2016325D01*
X2019952D02*
X2021610D01*
X2025237D02*
X2026804D01*
X1936734Y1670070D02*
X1942782D01*
X1946409D02*
X1948961D01*
X1952500D02*
X1954248D01*
X1958054D02*
X1960518D01*
X1964145D02*
X1970191D01*
X1979284D02*
X1980942D01*
X1984569D02*
X1986138D01*
X1989764D02*
X1991421D01*
X1993437D02*
X2000291D01*
X2002216D02*
X2004053D01*
X2006695D02*
X2008622D01*
X2010636D02*
X2012294D01*
X2014667D02*
X2016325D01*
X2019952D02*
X2021610D01*
X2025237D02*
X2026804D01*
X1936734Y1670159D02*
X1942782D01*
X1946409D02*
X1948871D01*
X1952500D02*
X1954337D01*
X1958054D02*
X1960518D01*
X1964145D02*
X1970191D01*
X1979284D02*
X1980942D01*
X1984569D02*
X1986138D01*
X1989764D02*
X1991421D01*
X1993437D02*
X1995722D01*
X1996662D02*
X2000291D01*
X2002305D02*
X2004143D01*
X2006605D02*
X2008532D01*
X2010636D02*
X2012294D01*
X2014667D02*
X2016325D01*
X2019952D02*
X2021610D01*
X2025237D02*
X2026804D01*
X1936734Y1670249D02*
X1942782D01*
X1946409D02*
X1948782D01*
X1952590D02*
X1954337D01*
X1958143D02*
X1960518D01*
X1964145D02*
X1970191D01*
X1979284D02*
X1980942D01*
X1984569D02*
X1986138D01*
X1989764D02*
X1991421D01*
X1993348D02*
X1995454D01*
X1997020D02*
X2000291D01*
X2002305D02*
X2004143D01*
X2006605D02*
X2008442D01*
X2010636D02*
X2012294D01*
X2014667D02*
X2016325D01*
X2019952D02*
X2021610D01*
X2025237D02*
X2026804D01*
X1936824Y1670338D02*
X1942782D01*
X1946409D02*
X1948782D01*
X1952590D02*
X1954427D01*
X1958233D02*
X1960518D01*
X1964145D02*
X1970191D01*
X1979284D02*
X1980942D01*
X1984569D02*
X1986138D01*
X1989764D02*
X1991421D01*
X1993348D02*
X1995274D01*
X1997289D02*
X2000291D01*
X2002395D02*
X2004232D01*
X2006516D02*
X2008442D01*
X2010636D02*
X2012294D01*
X2014667D02*
X2016325D01*
X2019952D02*
X2021610D01*
X2025237D02*
X2026804D01*
X1936824Y1670428D02*
X1942782D01*
X1946409D02*
X1948692D01*
X1952500D02*
X1954516D01*
X1958233D02*
X1960518D01*
X1964145D02*
X1970103D01*
X1979284D02*
X1980942D01*
X1984569D02*
X1986138D01*
X1989764D02*
X1991421D01*
X1993348D02*
X1995185D01*
X1997468D02*
X2000291D01*
X2002485D02*
X2004322D01*
X2006426D02*
X2008353D01*
X2010636D02*
X2012294D01*
X2014667D02*
X2016325D01*
X2019952D02*
X2021610D01*
X2025237D02*
X2026804D01*
X1936824Y1670517D02*
X1942782D01*
X1946409D02*
X1948692D01*
X1952500D02*
X1954516D01*
X1958323D02*
X1960518D01*
X1964145D02*
X1970103D01*
X1979284D02*
X1980942D01*
X1984569D02*
X1986138D01*
X1989764D02*
X1991421D01*
X1993348D02*
X1995095D01*
X1997647D02*
X2000291D01*
X2002574D02*
X2004322D01*
X2006426D02*
X2008263D01*
X2010636D02*
X2012294D01*
X2014667D02*
X2016325D01*
X2019952D02*
X2021610D01*
X2025237D02*
X2026804D01*
X1936824Y1670607D02*
X1942782D01*
X1946409D02*
X1948602D01*
X1952410D02*
X1954606D01*
X1958323D02*
X1960518D01*
X1964145D02*
X1970103D01*
X1979284D02*
X1980942D01*
X1984569D02*
X1986138D01*
X1989764D02*
X1991421D01*
X1993258D02*
X1995095D01*
X1997737D02*
X2000291D01*
X2002574D02*
X2004411D01*
X2006336D02*
X2008263D01*
X2010636D02*
X2012294D01*
X2014667D02*
X2016325D01*
X2019952D02*
X2021610D01*
X2025237D02*
X2026804D01*
X1936913Y1670697D02*
X1942782D01*
X1946409D02*
X1948602D01*
X1952321D02*
X1954606D01*
X1958412D02*
X1960518D01*
X1964145D02*
X1970103D01*
X1979284D02*
X1980942D01*
X1984569D02*
X1986138D01*
X1989764D02*
X1991421D01*
X1993258D02*
X1995006D01*
X1997916D02*
X2000291D01*
X2002664D02*
X2004501D01*
X2006247D02*
X2008174D01*
X2010636D02*
X2012294D01*
X2014667D02*
X2016325D01*
X2019952D02*
X2021610D01*
X2025237D02*
X2026804D01*
X1936913Y1670786D02*
X1942782D01*
X1946409D02*
X1948513D01*
X1952321D02*
X1954696D01*
X1958412D02*
X1960518D01*
X1964145D02*
X1970013D01*
X1979284D02*
X1980942D01*
X1984569D02*
X1986138D01*
X1989764D02*
X1991421D01*
X1993258D02*
X1995006D01*
X1998006D02*
X2000291D01*
X2002753D02*
X2004501D01*
X2006247D02*
X2008084D01*
X2010636D02*
X2012294D01*
X2014667D02*
X2016325D01*
X2019952D02*
X2021610D01*
X2025237D02*
X2026804D01*
X1936913Y1670876D02*
X1942782D01*
X1946409D02*
X1948423D01*
X1952231D02*
X1954696D01*
X1958502D02*
X1960518D01*
X1964145D02*
X1970013D01*
X1979284D02*
X1980942D01*
X1984569D02*
X1986138D01*
X1989764D02*
X1991421D01*
X1993258D02*
X1994916D01*
X1998185D02*
X2000291D01*
X2002753D02*
X2004591D01*
X2006157D02*
X2007995D01*
X2010636D02*
X2012294D01*
X2014667D02*
X2016325D01*
X2019952D02*
X2021610D01*
X2025237D02*
X2026804D01*
X1937003Y1670965D02*
X1942782D01*
X1952231D02*
X1954783D01*
X1964145D02*
X1970013D01*
X1979284D02*
X1980942D01*
X1984569D02*
X1986138D01*
X1989764D02*
X1991421D01*
X1993258D02*
X1994916D01*
X1998274D02*
X2000291D01*
X2002843D02*
X2004680D01*
X2006068D02*
X2007995D01*
X2010636D02*
X2012294D01*
X2014667D02*
X2016325D01*
X2019952D02*
X2021610D01*
X2025237D02*
X2026804D01*
X1937003Y1671055D02*
X1942782D01*
X1952142D02*
X1954783D01*
X1964145D02*
X1969924D01*
X1979284D02*
X1980942D01*
X1984569D02*
X1986138D01*
X1989764D02*
X1991421D01*
X1993258D02*
X1994916D01*
X1998364D02*
X2000291D01*
X2002932D02*
X2004680D01*
X2005978D02*
X2007905D01*
X2010636D02*
X2012294D01*
X2014667D02*
X2016325D01*
X2019952D02*
X2021610D01*
X2025237D02*
X2026804D01*
X1937003Y1671145D02*
X1942782D01*
X1952142D02*
X1954873D01*
X1964145D02*
X1969924D01*
X1979284D02*
X1980942D01*
X1984569D02*
X1986138D01*
X1989764D02*
X1991421D01*
X1993258D02*
X1994916D01*
X1998454D02*
X2000291D01*
X2002932D02*
X2004770D01*
X2005978D02*
X2007815D01*
X2010636D02*
X2012294D01*
X2014667D02*
X2016325D01*
X2019952D02*
X2021610D01*
X2025237D02*
X2026804D01*
X1937093Y1671234D02*
X1942782D01*
X1952052D02*
X1954962D01*
X1964145D02*
X1969924D01*
X1979284D02*
X1980942D01*
X1984569D02*
X1986138D01*
X1989764D02*
X1991421D01*
X1993258D02*
X1994916D01*
X1998543D02*
X2000291D01*
X2003022D02*
X2004859D01*
X2005889D02*
X2007815D01*
X2010636D02*
X2012294D01*
X2014667D02*
X2016325D01*
X2019952D02*
X2021610D01*
X2025237D02*
X2026804D01*
X1937093Y1671324D02*
X1942782D01*
X1951963D02*
X1954962D01*
X1964145D02*
X1969924D01*
X1979284D02*
X1980942D01*
X1984569D02*
X1986138D01*
X1989764D02*
X1991421D01*
X1993258D02*
X1994916D01*
X1998633D02*
X2000291D01*
X2003112D02*
X2004859D01*
X2005799D02*
X2007726D01*
X2010636D02*
X2012294D01*
X2014667D02*
X2016325D01*
X2019952D02*
X2021610D01*
X2025237D02*
X2026804D01*
X1937093Y1671413D02*
X1942782D01*
X1951963D02*
X1955054D01*
X1964145D02*
X1969834D01*
X1979284D02*
X1980942D01*
X1984569D02*
X1986138D01*
X1989764D02*
X1991421D01*
X1993258D02*
X1994916D01*
X1998633D02*
X2000291D01*
X2003112D02*
X2004949D01*
X2005799D02*
X2007636D01*
X2010636D02*
X2012294D01*
X2014667D02*
X2016325D01*
X2019952D02*
X2021610D01*
X2025237D02*
X2026804D01*
X1937093Y1671503D02*
X1942782D01*
X1951873D02*
X1955054D01*
X1964145D02*
X1969834D01*
X1979284D02*
X1980942D01*
X1984569D02*
X1986138D01*
X1989764D02*
X1991421D01*
X1993258D02*
X1994916D01*
X1998633D02*
X2000291D01*
X2003201D02*
X2005038D01*
X2005709D02*
X2007547D01*
X2010636D02*
X2012294D01*
X2014667D02*
X2016325D01*
X2019952D02*
X2021610D01*
X2025237D02*
X2026804D01*
X1937182Y1671592D02*
X1942782D01*
X1951873D02*
X1955143D01*
X1964145D02*
X1969834D01*
X1979284D02*
X1980942D01*
X1984569D02*
X1986138D01*
X1989764D02*
X1991421D01*
X1993258D02*
X1994916D01*
X1998633D02*
X2000291D01*
X2003291D02*
X2005038D01*
X2005620D02*
X2007547D01*
X2010636D02*
X2012294D01*
X2014667D02*
X2016325D01*
X2019952D02*
X2021610D01*
X2025237D02*
X2026804D01*
X1937182Y1671682D02*
X1942782D01*
X1951783D02*
X1955143D01*
X1964145D02*
X1969745D01*
X1979284D02*
X1980942D01*
X1984569D02*
X1986138D01*
X1989764D02*
X1991421D01*
X1993258D02*
X1995006D01*
X1998633D02*
X2000291D01*
X2003380D02*
X2005128D01*
X2005620D02*
X2007457D01*
X2010636D02*
X2012294D01*
X2014667D02*
X2016325D01*
X2019952D02*
X2021610D01*
X2025237D02*
X2026804D01*
X1937272Y1671772D02*
X1942782D01*
X1951783D02*
X1955233D01*
X1964145D02*
X1969745D01*
X1979284D02*
X1980942D01*
X1984569D02*
X1986138D01*
X1989764D02*
X1991421D01*
X1993348D02*
X1995006D01*
X1998633D02*
X2000291D01*
X2003380D02*
X2005218D01*
X2005530D02*
X2007368D01*
X2010636D02*
X2012294D01*
X2014667D02*
X2016325D01*
X2019952D02*
X2021610D01*
X2025237D02*
X2026804D01*
X1937272Y1671861D02*
X1942782D01*
X1951694D02*
X1955233D01*
X1964145D02*
X1969655D01*
X1979284D02*
X1980942D01*
X1984569D02*
X1986138D01*
X1989764D02*
X1991421D01*
X1993348D02*
X1995095D01*
X1998633D02*
X2000291D01*
X2003470D02*
X2005218D01*
X2005441D02*
X2007368D01*
X2010636D02*
X2012294D01*
X2014667D02*
X2016325D01*
X2019952D02*
X2021610D01*
X2025237D02*
X2026804D01*
X1937272Y1671951D02*
X1942782D01*
X1951604D02*
X1955323D01*
X1964145D02*
X1969655D01*
X1979284D02*
X1980942D01*
X1984569D02*
X1986138D01*
X1989764D02*
X1991421D01*
X1993348D02*
X1995095D01*
X1998633D02*
X2000291D01*
X2003560D02*
X2005307D01*
X2005441D02*
X2007278D01*
X2010636D02*
X2012294D01*
X2014667D02*
X2016325D01*
X2019952D02*
X2021610D01*
X2025237D02*
X2026804D01*
X1937361Y1672040D02*
X1942782D01*
X1951604D02*
X1955412D01*
X1964145D02*
X1969655D01*
X1979284D02*
X1980942D01*
X1984569D02*
X1986138D01*
X1989764D02*
X1991421D01*
X1993348D02*
X1995185D01*
X1998633D02*
X2000291D01*
X2003560D02*
X2007188D01*
X2010636D02*
X2012294D01*
X2014667D02*
X2016325D01*
X2019952D02*
X2021610D01*
X2025237D02*
X2026804D01*
X1937361Y1672130D02*
X1942782D01*
X1951515D02*
X1955412D01*
X1964145D02*
X1969566D01*
X1979284D02*
X1980942D01*
X1984569D02*
X1986138D01*
X1989764D02*
X1991421D01*
X1993437D02*
X1995274D01*
X1998633D02*
X2000291D01*
X2003649D02*
X2007188D01*
X2010636D02*
X2012294D01*
X2014667D02*
X2016325D01*
X2019952D02*
X2021610D01*
X2025237D02*
X2026804D01*
X1937361Y1672219D02*
X1942782D01*
X1951515D02*
X1955502D01*
X1964145D02*
X1969566D01*
X1979284D02*
X1980942D01*
X1984569D02*
X1986138D01*
X1989764D02*
X1991421D01*
X1993437D02*
X1995364D01*
X1998633D02*
X2000291D01*
X2003739D02*
X2007099D01*
X2010636D02*
X2012294D01*
X2014667D02*
X2016325D01*
X2019952D02*
X2021610D01*
X2025237D02*
X2026804D01*
X1937451Y1672309D02*
X1942782D01*
X1951425D02*
X1955502D01*
X1964145D02*
X1969566D01*
X1979284D02*
X1980942D01*
X1984569D02*
X1986138D01*
X1989764D02*
X1991421D01*
X1993437D02*
X1995454D01*
X1998633D02*
X2000291D01*
X2003739D02*
X2007009D01*
X2010636D02*
X2012294D01*
X2014667D02*
X2016325D01*
X2019952D02*
X2021610D01*
X2025237D02*
X2026804D01*
X1937451Y1672399D02*
X1942782D01*
X1951425D02*
X1955591D01*
X1964145D02*
X1969476D01*
X1979284D02*
X1980942D01*
X1984569D02*
X1986138D01*
X1989764D02*
X1991421D01*
X1993527D02*
X1995633D01*
X1998633D02*
X2000291D01*
X2003828D02*
X2006920D01*
X2010636D02*
X2012294D01*
X2014667D02*
X2016325D01*
X2019952D02*
X2021610D01*
X2025237D02*
X2026804D01*
X1937540Y1672488D02*
X1942782D01*
X1951335D02*
X1955591D01*
X1964145D02*
X1969476D01*
X1979284D02*
X1980942D01*
X1984569D02*
X1986138D01*
X1989764D02*
X1991421D01*
X1993527D02*
X1995722D01*
X1998633D02*
X2000291D01*
X2003918D02*
X2006920D01*
X2010636D02*
X2012294D01*
X2014667D02*
X2016325D01*
X2019952D02*
X2021610D01*
X2025237D02*
X2026804D01*
X1937540Y1672578D02*
X1942782D01*
X1951335D02*
X1955681D01*
X1964145D02*
X1969386D01*
X1979284D02*
X1980942D01*
X1984569D02*
X1986138D01*
X1989764D02*
X1991421D01*
X1993616D02*
X1995902D01*
X1998633D02*
X2000291D01*
X2003918D02*
X2006830D01*
X2010636D02*
X2012294D01*
X2014667D02*
X2016325D01*
X2019952D02*
X2021610D01*
X2025237D02*
X2026804D01*
X1937540Y1672667D02*
X1942782D01*
X1951246D02*
X1955681D01*
X1964145D02*
X1969386D01*
X1979284D02*
X1980942D01*
X1984569D02*
X1986138D01*
X1989764D02*
X1991421D01*
X1993706D02*
X1996081D01*
X1998633D02*
X2000291D01*
X2004007D02*
X2006740D01*
X2010636D02*
X2012294D01*
X2014667D02*
X2016325D01*
X2019952D02*
X2021610D01*
X2025237D02*
X2026804D01*
X1937630Y1672757D02*
X1942871D01*
X1951156D02*
X1955771D01*
X1964145D02*
X1969386D01*
X1979284D02*
X1980942D01*
X1984569D02*
X1986138D01*
X1989764D02*
X1991421D01*
X1993706D02*
X1996349D01*
X1998633D02*
X2000291D01*
X2004097D02*
X2006740D01*
X2010636D02*
X2012294D01*
X2014667D02*
X2016325D01*
X2019952D02*
X2021610D01*
X2025237D02*
X2026804D01*
X1937630Y1672847D02*
X1942871D01*
X1951156D02*
X1955860D01*
X1964145D02*
X1969297D01*
X1979284D02*
X1980942D01*
X1984569D02*
X1986138D01*
X1989764D02*
X1991421D01*
X1993796D02*
X1996618D01*
X1998633D02*
X2000291D01*
X2004187D02*
X2006651D01*
X2010636D02*
X2012294D01*
X2014667D02*
X2016325D01*
X2019952D02*
X2021610D01*
X2025237D02*
X2026804D01*
X1937720Y1672936D02*
X1942871D01*
X1951067D02*
X1955860D01*
X1964056D02*
X1969297D01*
X1979284D02*
X1980942D01*
X1984569D02*
X1986138D01*
X1989764D02*
X1991421D01*
X1993885D02*
X1996976D01*
X1998633D02*
X2000291D01*
X2004187D02*
X2006561D01*
X2010636D02*
X2012294D01*
X2014667D02*
X2016325D01*
X2019952D02*
X2021610D01*
X2025237D02*
X2026804D01*
X1937720Y1673026D02*
X1942871D01*
X1951067D02*
X1955950D01*
X1964056D02*
X1969207D01*
X1979284D02*
X1980942D01*
X1984569D02*
X1986138D01*
X1989764D02*
X1991421D01*
X1993975D02*
X1997335D01*
X1998633D02*
X2000291D01*
X2004276D02*
X2006561D01*
X2010636D02*
X2012294D01*
X2014667D02*
X2016325D01*
X2019952D02*
X2021610D01*
X2025237D02*
X2026804D01*
X1937809Y1673115D02*
X1942961D01*
X1950977D02*
X1955950D01*
X1964056D02*
X1969207D01*
X1979284D02*
X1980942D01*
X1984569D02*
X1986138D01*
X1989764D02*
X1991421D01*
X1994064D02*
X1997872D01*
X1998633D02*
X2000291D01*
X2004366D02*
X2006472D01*
X2010636D02*
X2012294D01*
X2014667D02*
X2016325D01*
X2019952D02*
X2021610D01*
X2025237D02*
X2026804D01*
X1937809Y1673205D02*
X1942961D01*
X1950977D02*
X1956039D01*
X1963966D02*
X1969118D01*
X1979284D02*
X1980942D01*
X1984569D02*
X1986138D01*
X1989764D02*
X1991421D01*
X1994154D02*
X2000291D01*
X2004366D02*
X2006382D01*
X2010636D02*
X2012294D01*
X2014667D02*
X2016325D01*
X2019952D02*
X2021610D01*
X2025237D02*
X2026804D01*
X1937809Y1673294D02*
X1943050D01*
X1950888D02*
X1956039D01*
X1963876D02*
X1969118D01*
X1979284D02*
X1980942D01*
X1984569D02*
X1986138D01*
X1989764D02*
X1991421D01*
X1994333D02*
X2000291D01*
X2004455D02*
X2006293D01*
X2010636D02*
X2012294D01*
X2014667D02*
X2016325D01*
X2019952D02*
X2021610D01*
X2025237D02*
X2026804D01*
X1937899Y1673384D02*
X1943140D01*
X1950798D02*
X1956129D01*
X1963876D02*
X1969028D01*
X1979284D02*
X1980942D01*
X1984569D02*
X1986138D01*
X1989764D02*
X1991421D01*
X1994423D02*
X2000291D01*
X2004366D02*
X2006293D01*
X2010636D02*
X2012294D01*
X2014667D02*
X2016325D01*
X2019952D02*
X2021610D01*
X2025237D02*
X2026804D01*
X1937899Y1673474D02*
X1943140D01*
X1950798D02*
X1956218D01*
X1963787D02*
X1969028D01*
X1979284D02*
X1980942D01*
X1984569D02*
X1986138D01*
X1989764D02*
X1991421D01*
X1994602D02*
X2000291D01*
X2004366D02*
X2006382D01*
X2010636D02*
X2012294D01*
X2014667D02*
X2016325D01*
X2019952D02*
X2021610D01*
X2025237D02*
X2026804D01*
X1937988Y1673563D02*
X1943230D01*
X1950708D02*
X1956218D01*
X1963697D02*
X1968939D01*
X1979284D02*
X1980942D01*
X1984569D02*
X1986138D01*
X1989764D02*
X1991421D01*
X1994691D02*
X2000291D01*
X2004276D02*
X2006472D01*
X2010636D02*
X2012294D01*
X2014667D02*
X2016325D01*
X2019952D02*
X2021610D01*
X2025237D02*
X2026804D01*
X1937988Y1673653D02*
X1943319D01*
X1950619D02*
X1956308D01*
X1963608D02*
X1968939D01*
X1979284D02*
X1980942D01*
X1984569D02*
X1986138D01*
X1989764D02*
X1991421D01*
X1994870D02*
X2000291D01*
X2004187D02*
X2006472D01*
X2010636D02*
X2012294D01*
X2014667D02*
X2016325D01*
X2019952D02*
X2021610D01*
X2025237D02*
X2026804D01*
X1938078Y1673742D02*
X1943409D01*
X1950529D02*
X1956398D01*
X1963518D02*
X1968849D01*
X1979284D02*
X1980942D01*
X1984569D02*
X1986138D01*
X1989764D02*
X1991421D01*
X1995139D02*
X2000291D01*
X2004097D02*
X2006561D01*
X2010636D02*
X2012294D01*
X2014667D02*
X2016325D01*
X2019952D02*
X2021610D01*
X2025237D02*
X2026804D01*
X1938078Y1673832D02*
X1943498D01*
X1950440D02*
X1956577D01*
X1963429D02*
X1968849D01*
X1979284D02*
X1980942D01*
X1984569D02*
X1986138D01*
X1989764D02*
X1991421D01*
X1995318D02*
X2000291D01*
X2004097D02*
X2006651D01*
X2010636D02*
X2012294D01*
X2014667D02*
X2016325D01*
X2019952D02*
X2021610D01*
X2025237D02*
X2026804D01*
X1938167Y1673921D02*
X1943677D01*
X1950261D02*
X1956666D01*
X1963249D02*
X1968759D01*
X1979284D02*
X1980942D01*
X1984569D02*
X1986138D01*
X1989764D02*
X1991421D01*
X1995587D02*
X2000291D01*
X2004007D02*
X2006651D01*
X2010636D02*
X2012294D01*
X2014667D02*
X2016325D01*
X2019952D02*
X2021610D01*
X2025237D02*
X2026804D01*
X1938167Y1674011D02*
X1943855D01*
X1950081D02*
X1956845D01*
X1963070D02*
X1968759D01*
X1979284D02*
X1980942D01*
X1984569D02*
X1986138D01*
X1989764D02*
X1991421D01*
X1995856D02*
X2000291D01*
X2003918D02*
X2006740D01*
X2010636D02*
X2012294D01*
X2014667D02*
X2016325D01*
X2019952D02*
X2021610D01*
X2025237D02*
X2026804D01*
X1938257Y1674101D02*
X1944124D01*
X1949813D02*
X1957112D01*
X1962891D02*
X1968670D01*
X1979284D02*
X1980942D01*
X1984569D02*
X1986138D01*
X1989764D02*
X1991421D01*
X1996125D02*
X2000291D01*
X2003918D02*
X2006830D01*
X2010636D02*
X2012294D01*
X2014667D02*
X2016325D01*
X2019952D02*
X2021610D01*
X2025237D02*
X2026804D01*
X1938347Y1674190D02*
X1968670D01*
X1979284D02*
X1980942D01*
X1984569D02*
X1986138D01*
X1989764D02*
X1991421D01*
X1996572D02*
X2000291D01*
X2003828D02*
X2006920D01*
X2010636D02*
X2012294D01*
X2014667D02*
X2016325D01*
X2019952D02*
X2021610D01*
X2025237D02*
X2026804D01*
X1938347Y1674280D02*
X1968580D01*
X1979284D02*
X1980942D01*
X1984569D02*
X1986138D01*
X1989764D02*
X1991421D01*
X1996931D02*
X2000291D01*
X2003739D02*
X2006920D01*
X2010636D02*
X2012294D01*
X2014667D02*
X2016325D01*
X2019952D02*
X2021610D01*
X2025237D02*
X2026804D01*
X1938436Y1674369D02*
X1968580D01*
X1979284D02*
X1980942D01*
X1984569D02*
X1986138D01*
X1989764D02*
X1991421D01*
X1997468D02*
X2000291D01*
X2003739D02*
X2007009D01*
X2010636D02*
X2012294D01*
X2014667D02*
X2016325D01*
X2019952D02*
X2021610D01*
X2025237D02*
X2026804D01*
X1938436Y1674459D02*
X1968491D01*
X1979284D02*
X1980942D01*
X1984569D02*
X1986138D01*
X1989764D02*
X1991421D01*
X1998095D02*
X2000291D01*
X2003649D02*
X2007099D01*
X2010636D02*
X2012294D01*
X2014667D02*
X2016325D01*
X2019952D02*
X2021610D01*
X2025237D02*
X2026804D01*
X1938526Y1674549D02*
X1968491D01*
X1979284D02*
X1980942D01*
X1984569D02*
X1986138D01*
X1989764D02*
X1991421D01*
X1998633D02*
X2000291D01*
X2003560D02*
X2007099D01*
X2010636D02*
X2012294D01*
X2014667D02*
X2016325D01*
X2019952D02*
X2021610D01*
X2025237D02*
X2026804D01*
X1938526Y1674638D02*
X1968401D01*
X1979284D02*
X1980942D01*
X1984569D02*
X1986138D01*
X1989764D02*
X1991421D01*
X1998633D02*
X2000291D01*
X2003470D02*
X2007188D01*
X2010636D02*
X2012294D01*
X2014667D02*
X2016325D01*
X2019952D02*
X2021610D01*
X2025237D02*
X2026804D01*
X1938615Y1674728D02*
X1968311D01*
X1979284D02*
X1980942D01*
X1984569D02*
X1986138D01*
X1989764D02*
X1991421D01*
X1998633D02*
X2000291D01*
X2003470D02*
X2005307D01*
X2005441D02*
X2007278D01*
X2010636D02*
X2012294D01*
X2014667D02*
X2016325D01*
X2019952D02*
X2021610D01*
X2025237D02*
X2026804D01*
X1938615Y1674817D02*
X1968311D01*
X1979284D02*
X1980942D01*
X1984569D02*
X1986227D01*
X1989764D02*
X1991421D01*
X1998633D02*
X2000291D01*
X2003380D02*
X2005218D01*
X2005530D02*
X2007278D01*
X2010636D02*
X2012294D01*
X2014667D02*
X2016325D01*
X2019952D02*
X2021610D01*
X2025237D02*
X2026804D01*
X1938705Y1674907D02*
X1968222D01*
X1979284D02*
X1981032D01*
X1984569D02*
X1986317D01*
X1989764D02*
X1991421D01*
X1998633D02*
X2000291D01*
X2003291D02*
X2005218D01*
X2005530D02*
X2007368D01*
X2010636D02*
X2012294D01*
X2014667D02*
X2016415D01*
X2019952D02*
X2021700D01*
X2025237D02*
X2026804D01*
X1938795Y1674996D02*
X1968222D01*
X1979284D02*
X1981121D01*
X1984569D02*
X1986406D01*
X1989764D02*
X1991421D01*
X1998633D02*
X2000291D01*
X2003291D02*
X2005128D01*
X2005620D02*
X2007457D01*
X2010636D02*
X2012294D01*
X2014667D02*
X2016504D01*
X2019952D02*
X2021790D01*
X2025237D02*
X2026804D01*
X1938795Y1675086D02*
X1968132D01*
X1979284D02*
X1981211D01*
X1984479D02*
X1986496D01*
X1989764D02*
X1991421D01*
X1998633D02*
X2000291D01*
X2003201D02*
X2005038D01*
X2005709D02*
X2007457D01*
X2010636D02*
X2012294D01*
X2014667D02*
X2016594D01*
X2019952D02*
X2021879D01*
X2025148D02*
X2026804D01*
X1938884Y1675176D02*
X1968043D01*
X1979284D02*
X1981300D01*
X1984479D02*
X1986585D01*
X1989764D02*
X1991421D01*
X1998633D02*
X2000291D01*
X2003112D02*
X2005038D01*
X2005709D02*
X2007547D01*
X2010636D02*
X2012294D01*
X2014667D02*
X2016684D01*
X2019863D02*
X2021969D01*
X2025148D02*
X2026804D01*
X1938974Y1675265D02*
X1968043D01*
X1979284D02*
X1981390D01*
X1984479D02*
X1986675D01*
X1989764D02*
X1991421D01*
X1998633D02*
X2000291D01*
X2003112D02*
X2004949D01*
X2005799D02*
X2007636D01*
X2010636D02*
X2012294D01*
X2014667D02*
X2016773D01*
X2019863D02*
X2022058D01*
X2025148D02*
X2026804D01*
X1938974Y1675355D02*
X1967953D01*
X1979284D02*
X1981479D01*
X1984479D02*
X1986765D01*
X1989764D02*
X1991421D01*
X1998543D02*
X2000291D01*
X2003022D02*
X2004859D01*
X2005889D02*
X2007726D01*
X2010636D02*
X2012294D01*
X2014667D02*
X2016863D01*
X2019863D02*
X2022148D01*
X2025148D02*
X2026804D01*
X1939063Y1675444D02*
X1967864D01*
X1979284D02*
X1981569D01*
X1984390D02*
X1986854D01*
X1989675D02*
X1991421D01*
X1998543D02*
X2000291D01*
X2002932D02*
X2004859D01*
X2005889D02*
X2007726D01*
X2010636D02*
X2012294D01*
X2014667D02*
X2017042D01*
X2019863D02*
X2022237D01*
X2025058D02*
X2026804D01*
X1939153Y1675534D02*
X1967864D01*
X1979284D02*
X1981748D01*
X1984390D02*
X1987033D01*
X1989675D02*
X1991421D01*
X1994064D02*
X1994200D01*
X1998543D02*
X2000291D01*
X2002843D02*
X2004770D01*
X2005978D02*
X2007815D01*
X2010636D02*
X2012294D01*
X2014667D02*
X2017132D01*
X2019773D02*
X2022417D01*
X2025058D02*
X2026804D01*
X1939153Y1675623D02*
X1967774D01*
X1979284D02*
X1981838D01*
X1984390D02*
X1987123D01*
X1989585D02*
X1991421D01*
X1994064D02*
X1994379D01*
X1998454D02*
X2000201D01*
X2002843D02*
X2004680D01*
X2006068D02*
X2007905D01*
X2010636D02*
X2012294D01*
X2014667D02*
X2017221D01*
X2019773D02*
X2022506D01*
X2025058D02*
X2026804D01*
X1939242Y1675713D02*
X1967684D01*
X1979284D02*
X1982017D01*
X1984300D02*
X1987212D01*
X1989585D02*
X1991421D01*
X1994064D02*
X1994647D01*
X1998364D02*
X2000201D01*
X2002753D02*
X2004680D01*
X2006068D02*
X2007905D01*
X2010636D02*
X2012294D01*
X2014667D02*
X2017400D01*
X2019684D02*
X2022685D01*
X2024969D02*
X2026804D01*
X1939332Y1675803D02*
X1967684D01*
X1979284D02*
X1982106D01*
X1984211D02*
X1987392D01*
X1989496D02*
X1991421D01*
X1993975D02*
X1994827D01*
X1998364D02*
X2000201D01*
X2002664D02*
X2004591D01*
X2006157D02*
X2007995D01*
X2010636D02*
X2012294D01*
X2014667D02*
X2017490D01*
X2019594D02*
X2022775D01*
X2024879D02*
X2026804D01*
X1939332Y1675892D02*
X1967595D01*
X1979284D02*
X1982286D01*
X1984121D02*
X1987571D01*
X1989406D02*
X1991421D01*
X1993975D02*
X1995095D01*
X1998274D02*
X2000201D01*
X2002664D02*
X2004501D01*
X2006247D02*
X2008084D01*
X2010636D02*
X2012294D01*
X2014667D02*
X2017669D01*
X2019504D02*
X2022952D01*
X2024790D02*
X2026804D01*
X1939422Y1675982D02*
X1967505D01*
X1979284D02*
X1982465D01*
X1984032D02*
X1987748D01*
X1989317D02*
X1991331D01*
X1993975D02*
X1995364D01*
X1998095D02*
X2000201D01*
X2002574D02*
X2004501D01*
X2006247D02*
X2008084D01*
X2010636D02*
X2012294D01*
X2014667D02*
X2017848D01*
X2019415D02*
X2023131D01*
X2024700D02*
X2026804D01*
X1939511Y1676071D02*
X1967505D01*
X1979284D02*
X1982734D01*
X1983852D02*
X1988017D01*
X1989137D02*
X1991331D01*
X1993975D02*
X1995722D01*
X1997916D02*
X2000112D01*
X2002485D02*
X2004411D01*
X2006336D02*
X2008174D01*
X2010636D02*
X2012294D01*
X2014667D02*
X2018117D01*
X2019236D02*
X2023400D01*
X2024521D02*
X2026715D01*
X1939511Y1676161D02*
X1967416D01*
X1979284D02*
X1983181D01*
X1983404D02*
X1988465D01*
X1988690D02*
X1991331D01*
X1993975D02*
X1996170D01*
X1997737D02*
X2000112D01*
X2002485D02*
X2004322D01*
X2006426D02*
X2008263D01*
X2010636D02*
X2012294D01*
X2014667D02*
X2018565D01*
X2018877D02*
X2023848D01*
X2024073D02*
X2026715D01*
X1939601Y1676250D02*
X1967326D01*
X1979284D02*
X1991331D01*
X1993975D02*
X2000112D01*
X2002395D02*
X2004322D01*
X2006426D02*
X2008263D01*
X2010636D02*
X2012294D01*
X2014667D02*
X2026715D01*
X1939690Y1676340D02*
X1967237D01*
X1979284D02*
X1991242D01*
X1993975D02*
X2000022D01*
X2002305D02*
X2004232D01*
X2006516D02*
X2008353D01*
X2010636D02*
X2012294D01*
X2014667D02*
X2026625D01*
X1939780Y1676430D02*
X1967237D01*
X1979284D02*
X1980763D01*
X1980896D02*
X1985958D01*
X1986181D02*
X1991242D01*
X1993885D02*
X2000022D01*
X2002216D02*
X2004143D01*
X2006605D02*
X2008442D01*
X2010636D02*
X2012294D01*
X2014667D02*
X2016146D01*
X2016280D02*
X2021342D01*
X2021565D02*
X2026625D01*
X1939780Y1676519D02*
X1967147D01*
X1979284D02*
X1980763D01*
X1980986D02*
X1985958D01*
X1986271D02*
X1991152D01*
X1993885D02*
X1999933D01*
X2002216D02*
X2004143D01*
X2006605D02*
X2008442D01*
X2010636D02*
X2012294D01*
X2014667D02*
X2016146D01*
X2016459D02*
X2021342D01*
X2021654D02*
X2026625D01*
X1939869Y1676609D02*
X1967057D01*
X1979284D02*
X1980763D01*
X1981165D02*
X1985869D01*
X1986361D02*
X1991152D01*
X1993885D02*
X1999933D01*
X2002126D02*
X2004053D01*
X2006695D02*
X2008532D01*
X2010636D02*
X2012294D01*
X2014667D02*
X2016146D01*
X2016548D02*
X2021252D01*
X2021744D02*
X2026535D01*
X1939959Y1676698D02*
X1966968D01*
X1979284D02*
X1980763D01*
X1981255D02*
X1985779D01*
X1986450D02*
X1991062D01*
X1993885D02*
X1999843D01*
X2002037D02*
X2003964D01*
X2006784D02*
X2008622D01*
X2010636D02*
X2012294D01*
X2014667D02*
X2016146D01*
X2016638D02*
X2021252D01*
X2021833D02*
X2026446D01*
X1940049Y1676788D02*
X1966968D01*
X1979284D02*
X1980673D01*
X1981344D02*
X1985779D01*
X1986540D02*
X1991062D01*
X1993885D02*
X1999753D01*
X2002037D02*
X2003874D01*
X2006784D02*
X2008711D01*
X2010636D02*
X2012294D01*
X2014667D02*
X2016146D01*
X2016728D02*
X2021163D01*
X2022013D02*
X2026446D01*
X1940138Y1676878D02*
X1966878D01*
X1979284D02*
X1980673D01*
X1981434D02*
X1985690D01*
X1986719D02*
X1990973D01*
X1993885D02*
X1999664D01*
X2001947D02*
X2003874D01*
X2006874D02*
X2008711D01*
X2010636D02*
X2012294D01*
X2014667D02*
X2016057D01*
X2016907D02*
X2021073D01*
X2022102D02*
X2026356D01*
X1940138Y1676967D02*
X1966789D01*
X1979284D02*
X1980673D01*
X1981613D02*
X1985600D01*
X1986808D02*
X1990883D01*
X1993885D02*
X1999574D01*
X2001858D02*
X2003784D01*
X2006964D02*
X2008801D01*
X2010636D02*
X2012294D01*
X2014667D02*
X2016057D01*
X2016996D02*
X2020983D01*
X2022192D02*
X2026267D01*
X1940228Y1677057D02*
X1966699D01*
X1979284D02*
X1980673D01*
X1981702D02*
X1985510D01*
X1986988D02*
X1990794D01*
X1994064D02*
X1999485D01*
X2001858D02*
X2003695D01*
X2006964D02*
X2008890D01*
X2010636D02*
X2012294D01*
X2014667D02*
X2016057D01*
X2017175D02*
X2020983D01*
X2022371D02*
X2026177D01*
X1940317Y1677146D02*
X1966609D01*
X1979284D02*
X1980673D01*
X1981882D02*
X1985421D01*
X1987077D02*
X1990704D01*
X1994333D02*
X1999395D01*
X2001768D02*
X2003695D01*
X2007053D02*
X2008890D01*
X2010636D02*
X2012294D01*
X2014667D02*
X2016057D01*
X2017265D02*
X2020894D01*
X2022550D02*
X2026088D01*
X1940407Y1677236D02*
X1966520D01*
X1979284D02*
X1980673D01*
X1982061D02*
X1985331D01*
X1987256D02*
X1990615D01*
X1994512D02*
X1999216D01*
X2001678D02*
X2003605D01*
X2007143D02*
X2008980D01*
X2010636D02*
X2012294D01*
X2014667D02*
X2016057D01*
X2017444D02*
X2020715D01*
X2022640D02*
X2025998D01*
X1940497Y1677325D02*
X1966520D01*
X1979284D02*
X1980584D01*
X1982240D02*
X1985242D01*
X1987435D02*
X1990435D01*
X1994781D02*
X1999126D01*
X2001589D02*
X2003516D01*
X2007143D02*
X2009070D01*
X2010636D02*
X2012294D01*
X2014667D02*
X2016057D01*
X2017623D02*
X2020625D01*
X2022819D02*
X2025908D01*
X1940586Y1677415D02*
X1966430D01*
X1979284D02*
X1980584D01*
X1982419D02*
X1985063D01*
X1987615D02*
X1990346D01*
X1995139D02*
X1998858D01*
X2001589D02*
X2003516D01*
X2007232D02*
X2009070D01*
X2010636D02*
X2012294D01*
X2014667D02*
X2015967D01*
X2017802D02*
X2020446D01*
X2023088D02*
X2025729D01*
X1940676Y1677505D02*
X1966341D01*
X1979284D02*
X1980584D01*
X1982598D02*
X1984883D01*
X1987883D02*
X1990077D01*
X1995498D02*
X1998678D01*
X2001589D02*
X2003426D01*
X2007322D02*
X2009070D01*
X2010636D02*
X2012294D01*
X2014667D02*
X2015967D01*
X2018071D02*
X2020267D01*
X2023267D02*
X2025550D01*
X1940676Y1677594D02*
X1966251D01*
X1982957D02*
X1984615D01*
X1988242D02*
X1989808D01*
X1995945D02*
X1998320D01*
X2018340D02*
X2019998D01*
X2023625D02*
X2025281D01*
X1940765Y1677684D02*
X1966162D01*
X1983494D02*
X1983988D01*
X1988779D02*
X1989271D01*
X1996841D02*
X1997514D01*
X2018877D02*
X2019371D01*
X2024163D02*
X2024654D01*
X1940855Y1677773D02*
X1966072D01*
X1940944Y1677863D02*
X1965982D01*
X1941034Y1677952D02*
X1965893D01*
X1941124Y1678042D02*
X1965803D01*
X1941213Y1678132D02*
X1965714D01*
X1941303Y1678221D02*
X1965624D01*
X1941392Y1678311D02*
X1965535D01*
X1941482Y1678400D02*
X1965445D01*
X1941571Y1678490D02*
X1965355D01*
X1941661Y1678580D02*
X1965266D01*
X1941751Y1678669D02*
X1965176D01*
X1941840Y1678759D02*
X1965087D01*
X1942019Y1678848D02*
X1964997D01*
X1942109Y1678938D02*
X1964907D01*
X1942199Y1679027D02*
X1964818D01*
X1942288Y1679117D02*
X1964639D01*
X1942378Y1679207D02*
X1964549D01*
X2011084D02*
X2011846D01*
X1942467Y1679296D02*
X1964460D01*
X2010905D02*
X2012026D01*
X1942646Y1679386D02*
X1964370D01*
X2010726D02*
X2012115D01*
X1942736Y1679475D02*
X1964280D01*
X2010636D02*
X2012205D01*
X1942826Y1679565D02*
X1964101D01*
X2010636D02*
X2012294D01*
X1942915Y1679654D02*
X1964012D01*
X2010547D02*
X2012384D01*
X1943094Y1679744D02*
X1963922D01*
X2010457D02*
X2012384D01*
X1943184Y1679834D02*
X1963743D01*
X2010457D02*
X2012473D01*
X1943273Y1679923D02*
X1963653D01*
X2010457D02*
X2012473D01*
X1943453Y1680013D02*
X1963564D01*
X2010457D02*
X2012473D01*
X1943542Y1680102D02*
X1963385D01*
X2010367D02*
X2012473D01*
X1943721Y1680192D02*
X1963295D01*
X2010367D02*
X2012473D01*
X1943811Y1680282D02*
X1963116D01*
X2010367D02*
X2012473D01*
X1943990Y1680371D02*
X1963026D01*
X2010457D02*
X2012473D01*
X1944080Y1680461D02*
X1962847D01*
X2010457D02*
X2012473D01*
X1944259Y1680550D02*
X1962758D01*
X2010457D02*
X2012384D01*
X1944348Y1680640D02*
X1962578D01*
X2010457D02*
X2012384D01*
X1944528Y1680729D02*
X1962487D01*
X2010547D02*
X2012384D01*
X1944617Y1680819D02*
X1962308D01*
X2010636D02*
X2012294D01*
X1944796Y1680909D02*
X1962129D01*
X2010636D02*
X2012205D01*
X1944975Y1680998D02*
X1961950D01*
X2010726D02*
X2012115D01*
X1945155Y1681088D02*
X1961860D01*
X2010905D02*
X2012026D01*
X1945334Y1681177D02*
X1961681D01*
X2011084D02*
X2011846D01*
X1945423Y1681267D02*
X1961502D01*
X1945602Y1681356D02*
X1961323D01*
X1945782Y1681446D02*
X1961145D01*
X1945961Y1681536D02*
X1960966D01*
X1946140Y1681625D02*
X1960787D01*
X1946409Y1681715D02*
X1960608D01*
X1946588Y1681804D02*
X1960339D01*
X1946767Y1681894D02*
X1960160D01*
X1947036Y1681983D02*
X1959981D01*
X1947215Y1682073D02*
X1959712D01*
X1947484Y1682163D02*
X1959533D01*
X1947752Y1682252D02*
X1959264D01*
X1947932Y1682342D02*
X1958995D01*
X1948200Y1682431D02*
X1958727D01*
X1948559Y1682521D02*
X1958458D01*
X1948827Y1682611D02*
X1958100D01*
X1949186Y1682700D02*
X1957741D01*
X1949544Y1682790D02*
X1957381D01*
X1949992Y1682879D02*
X1957023D01*
X1950440Y1682969D02*
X1956487D01*
X1950977Y1683058D02*
X1955950D01*
X1951694Y1683148D02*
X1955233D01*
X2056332Y1654659D02*
X2057138D01*
X2058840D02*
X2059826D01*
X2060990D02*
X2061617D01*
X2062961D02*
X2063767D01*
X2056332Y1654838D02*
X2057138D01*
X2058840D02*
X2059826D01*
X2060990D02*
X2061796D01*
X2062961D02*
X2063767D01*
X2056332Y1655017D02*
X2057138D01*
X2058840D02*
X2059826D01*
X2060811D02*
X2061796D01*
X2062961D02*
X2063767D01*
X2056332Y1655196D02*
X2057138D01*
X2058840D02*
X2059826D01*
X2060811D02*
X2061796D01*
X2062961D02*
X2063767D01*
X2056332Y1655375D02*
X2057138D01*
X2058840D02*
X2059826D01*
X2060811D02*
X2061975D01*
X2062961D02*
X2063767D01*
X2056332Y1655554D02*
X2057138D01*
X2058840D02*
X2059826D01*
X2060632D02*
X2061975D01*
X2062961D02*
X2063767D01*
X2056332Y1655733D02*
X2057138D01*
X2058840D02*
X2059826D01*
X2060632D02*
X2061975D01*
X2062961D02*
X2063767D01*
X2056332Y1655913D02*
X2057138D01*
X2058840D02*
X2059826D01*
X2060632D02*
X2062155D01*
X2062961D02*
X2063767D01*
X2056332Y1656092D02*
X2057138D01*
X2058840D02*
X2059826D01*
X2060453D02*
X2062155D01*
X2062961D02*
X2063767D01*
X2056332Y1656271D02*
X2057138D01*
X2058840D02*
X2059826D01*
X2060453D02*
X2062334D01*
X2062961D02*
X2063767D01*
X2056332Y1656450D02*
X2057138D01*
X2058840D02*
X2059826D01*
X2060273D02*
X2061259D01*
X2061528D02*
X2062334D01*
X2062961D02*
X2063767D01*
X2056332Y1656629D02*
X2057138D01*
X2058840D02*
X2059826D01*
X2060273D02*
X2061080D01*
X2061528D02*
X2062334D01*
X2062961D02*
X2063767D01*
X2056332Y1656808D02*
X2057138D01*
X2058840D02*
X2059826D01*
X2060273D02*
X2061080D01*
X2061707D02*
X2062513D01*
X2062961D02*
X2063767D01*
X2056332Y1656988D02*
X2057138D01*
X2058840D02*
X2059826D01*
X2060094D02*
X2061080D01*
X2061707D02*
X2062513D01*
X2062961D02*
X2063767D01*
X2056332Y1657167D02*
X2057138D01*
X2058840D02*
X2059826D01*
X2060094D02*
X2060900D01*
X2061707D02*
X2062513D01*
X2062961D02*
X2063767D01*
X2056332Y1657346D02*
X2057138D01*
X2058840D02*
X2060900D01*
X2061886D02*
X2062692D01*
X2062961D02*
X2063767D01*
X2056332Y1657525D02*
X2057138D01*
X2058840D02*
X2060721D01*
X2061886D02*
X2062692D01*
X2062961D02*
X2063767D01*
X2056332Y1657704D02*
X2057138D01*
X2058840D02*
X2060721D01*
X2061886D02*
X2063767D01*
X2056332Y1657883D02*
X2057138D01*
X2058840D02*
X2060721D01*
X2062065D02*
X2063767D01*
X2056332Y1658062D02*
X2057138D01*
X2058840D02*
X2060542D01*
X2062065D02*
X2063767D01*
X2056332Y1658242D02*
X2057138D01*
X2058840D02*
X2060542D01*
X2062244D02*
X2063767D01*
X2055078Y1658421D02*
X2058571D01*
X2058840D02*
X2060363D01*
X2062244D02*
X2063767D01*
X2055078Y1658600D02*
X2058571D01*
X2058840D02*
X2060363D01*
X2062244D02*
X2063767D01*
X2055078Y1658779D02*
X2058571D01*
X2058840D02*
X2060363D01*
X2062423D02*
X2063767D01*
X2055078Y1658958D02*
X2058571D01*
X2058840D02*
X2060184D01*
X2062423D02*
X2063767D01*
G54D252*
X1887500Y1729656D02*
Y1723750D01*
X1891591Y1726844D02*
X1891386Y1727406D01*
X1890773Y1727688*
X1890773D02*
X1890159D01*
X1890159D02*
X1889545Y1727406D01*
X1889341Y1726844*
X1889545Y1726281*
X1889955Y1726000*
X1890977Y1725719*
X1891386Y1725438*
X1891386D02*
X1891591Y1724875D01*
Y1724594*
X1891386Y1724031*
X1890773Y1723750*
X1890159*
X1889545Y1724031*
X1889341Y1724594*
X1894455Y1727688D02*
X1894045Y1727406D01*
X1893636Y1726844*
X1893432Y1726000*
Y1725438*
X1893432D02*
X1893636Y1724594D01*
X1894045Y1724031*
X1894455Y1723750*
X1895068*
X1895477Y1724031*
X1895886Y1724594*
X1896091Y1725438*
X1896091D02*
Y1726000D01*
X1895886Y1726844*
X1895477Y1727406*
X1895068Y1727688*
X1895068D02*
X1894455D01*
X1897932Y1729656D02*
Y1723750D01*
X1902227Y1727688D02*
Y1723750D01*
Y1726844D02*
X1901818Y1727406D01*
X1901409Y1727688*
X1901409D02*
X1900795D01*
X1900795D02*
X1900386Y1727406D01*
X1899977Y1726844*
X1899773Y1726000*
Y1725438*
X1899773D02*
X1899977Y1724594D01*
X1900386Y1724031*
X1900795Y1723750*
X1901409*
X1901818Y1724031*
X1902227Y1724594*
X1904682Y1729656D02*
Y1724875D01*
X1904886Y1724031*
X1905295Y1723750*
X1905705*
X1904068Y1727688D02*
X1905500D01*
X1907545Y1726000D02*
X1910000D01*
Y1726563*
X1910000D02*
X1909795Y1727125D01*
X1909591Y1727406*
X1909182Y1727688*
X1909182D02*
X1908568D01*
X1908568D02*
X1908159Y1727406D01*
X1907750Y1726844*
X1907545Y1726000*
Y1725438*
X1907545D02*
X1907750Y1724594D01*
X1908159Y1724031*
X1908568Y1723750*
X1909182*
X1909591Y1724031*
X1910000Y1724594*
X1914295Y1729656D02*
Y1723750D01*
Y1726844D02*
X1913886Y1727406D01*
X1913477Y1727688*
X1913477D02*
X1912864D01*
X1912864D02*
X1912455Y1727406D01*
X1912045Y1726844*
X1911841Y1726000*
Y1725438*
X1911841D02*
X1912045Y1724594D01*
X1912455Y1724031*
X1912864Y1723750*
X1913477*
X1913886Y1724031*
X1914295Y1724594*
X1920841Y1729656D02*
Y1723750D01*
X1922682Y1727688D02*
Y1723750D01*
Y1726563D02*
X1923295Y1727406D01*
X1923705Y1727688*
X1923705D02*
X1924318D01*
X1924318D02*
X1924727Y1727406D01*
X1924932Y1726563*
X1924932D02*
Y1723750D01*
X1929227Y1729656D02*
Y1723750D01*
Y1726844D02*
X1928818Y1727406D01*
X1928409Y1727688*
X1928409D02*
X1927795D01*
X1927795D02*
X1927386Y1727406D01*
X1926977Y1726844*
X1926773Y1726000*
Y1725438*
X1926773D02*
X1926977Y1724594D01*
X1927386Y1724031*
X1927795Y1723750*
X1928409*
X1928818Y1724031*
X1929227Y1724594*
X1931068Y1727688D02*
Y1724875D01*
X1931273Y1724031*
X1931682Y1723750*
X1932295*
X1932705Y1724031*
X1933318Y1724875*
Y1727688D02*
Y1723750D01*
X1937409Y1726844D02*
X1937205Y1727406D01*
X1936591Y1727688*
X1936591D02*
X1935977D01*
X1935977D02*
X1935364Y1727406D01*
X1935159Y1726844*
X1935364Y1726281*
X1935773Y1726000*
X1936795Y1725719*
X1937205Y1725438*
X1937205D02*
X1937409Y1724875D01*
Y1724594*
X1937205Y1724031*
X1936591Y1723750*
X1935977*
X1935364Y1724031*
X1935159Y1724594*
X1939864Y1729656D02*
Y1724875D01*
X1940068Y1724031*
X1940477Y1723750*
X1940886*
X1939250Y1727688D02*
X1940682D01*
X1942727D02*
Y1723750D01*
Y1726000D02*
X1942932Y1726844D01*
X1943341Y1727406*
X1943750Y1727688*
X1943750D02*
X1944364D01*
X1946205Y1729656D02*
X1946409Y1729375D01*
X1946614Y1729656*
X1946409Y1729938*
X1946409D02*
X1946205Y1729656D01*
X1946409Y1727688D02*
Y1723750D01*
X1950909Y1727688D02*
Y1723750D01*
Y1726844D02*
X1950500Y1727406D01*
X1950091Y1727688*
X1950091D02*
X1949477D01*
X1949477D02*
X1949068Y1727406D01*
X1948659Y1726844*
X1948455Y1726000*
Y1725438*
X1948455D02*
X1948659Y1724594D01*
X1949068Y1724031*
X1949477Y1723750*
X1950091*
X1950500Y1724031*
X1950909Y1724594*
X1952750Y1729656D02*
Y1723750D01*
X1960523Y1729656D02*
X1960114Y1729375D01*
X1959705Y1728813*
X1959705D02*
X1959500Y1728250D01*
X1959295Y1727406*
Y1726000*
X1959500Y1725156*
X1959705Y1724594*
X1960114Y1724031*
X1960523Y1723750*
X1961341*
X1961750Y1724031*
X1962159Y1724594*
X1962364Y1725156*
X1962568Y1726000*
Y1727406*
X1962364Y1728250*
X1962159Y1728813*
X1962159D02*
X1961750Y1729375D01*
X1961341Y1729656*
X1960523*
X1966864Y1726844D02*
X1966455Y1727406D01*
X1966045Y1727688*
X1966045D02*
X1965432D01*
X1965432D02*
X1965023Y1727406D01*
X1964614Y1726844*
X1964409Y1726000*
Y1725438*
X1964409D02*
X1964614Y1724594D01*
X1965023Y1724031*
X1965432Y1723750*
X1966045*
X1966455Y1724031*
X1966864Y1724594*
X1969318Y1729656D02*
Y1724875D01*
X1969523Y1724031*
X1969932Y1723750*
X1970341*
X1968705Y1727688D02*
X1970136D01*
X1974636D02*
Y1723750D01*
Y1726844D02*
X1974227Y1727406D01*
X1973818Y1727688*
X1973818D02*
X1973205D01*
X1973205D02*
X1972795Y1727406D01*
X1972386Y1726844*
X1972182Y1726000*
Y1725438*
X1972182D02*
X1972386Y1724594D01*
X1972795Y1724031*
X1973205Y1723750*
X1973818*
X1974227Y1724031*
X1974636Y1724594*
X1976477Y1729656D02*
Y1723750D01*
X1983023Y1729656D02*
Y1723750D01*
Y1729656D02*
X1984455D01*
X1985068Y1729375*
X1985477Y1728813*
X1985477D02*
X1985682Y1728250D01*
X1985886Y1727406*
Y1726000*
X1985682Y1725156*
X1985477Y1724594*
X1985068Y1724031*
X1984455Y1723750*
X1983023*
X1987727Y1729656D02*
X1987932Y1729375D01*
X1988136Y1729656*
X1987932Y1729938*
X1987932D02*
X1987727Y1729656D01*
X1987932Y1727688D02*
Y1723750D01*
X1992432Y1727688D02*
Y1723187D01*
X1992432D02*
X1992227Y1722344D01*
X1992023Y1722062*
X1992023D02*
X1991614Y1721781D01*
X1991000*
X1990591Y1722062*
X1992432Y1726844D02*
X1992023Y1727406D01*
X1991614Y1727688*
X1991614D02*
X1991000D01*
X1991000D02*
X1990591Y1727406D01*
X1990182Y1726844*
X1989977Y1726000*
Y1725438*
X1989977D02*
X1990182Y1724594D01*
X1990591Y1724031*
X1991000Y1723750*
X1991614*
X1992023Y1724031*
X1992432Y1724594*
X1994273Y1729656D02*
X1994477Y1729375D01*
X1994682Y1729656*
X1994477Y1729938*
X1994477D02*
X1994273Y1729656D01*
X1994477Y1727688D02*
Y1723750D01*
X1997136Y1729656D02*
Y1724875D01*
X1997341Y1724031*
X1997750Y1723750*
X1998159*
X1996523Y1727688D02*
X1997955D01*
X2002455D02*
Y1723750D01*
Y1726844D02*
X2002045Y1727406D01*
X2001636Y1727688*
X2001636D02*
X2001023D01*
X2001023D02*
X2000614Y1727406D01*
X2000205Y1726844*
X2000000Y1726000*
Y1725438*
X2000000D02*
X2000205Y1724594D01*
X2000614Y1724031*
X2001023Y1723750*
X2001636*
X2002045Y1724031*
X2002455Y1724594*
X2004295Y1729656D02*
Y1723750D01*
X2010841Y1729656D02*
Y1723750D01*
X2012682Y1727688D02*
Y1723750D01*
Y1726563D02*
X2013295Y1727406D01*
X2013705Y1727688*
X2013705D02*
X2014318D01*
X2014318D02*
X2014727Y1727406D01*
X2014932Y1726563*
X2014932D02*
Y1723750D01*
X2016773Y1727688D02*
Y1721781D01*
Y1726844D02*
X2017182Y1727406D01*
X2017591Y1727688*
X2017591D02*
X2018205D01*
X2018205D02*
X2018614Y1727406D01*
X2019023Y1726844*
X2019227Y1726000*
Y1725438*
X2019227D02*
X2019023Y1724594D01*
X2018614Y1724031*
X2018205Y1723750*
X2017591*
X2017182Y1724031*
X2016773Y1724594*
X2021068Y1727688D02*
Y1724875D01*
X2021273Y1724031*
X2021682Y1723750*
X2022295*
X2022705Y1724031*
X2023318Y1724875*
Y1727688D02*
Y1723750D01*
X2025773Y1729656D02*
Y1724875D01*
X2025977Y1724031*
X2026386Y1723750*
X2026795*
X2025159Y1727688D02*
X2026591D01*
X2034773Y1729656D02*
Y1723750D01*
X2033341Y1729656D02*
X2036205D01*
X2038045Y1727688D02*
Y1723750D01*
Y1726000D02*
X2038250Y1726844D01*
X2038659Y1727406*
X2039068Y1727688*
X2039068D02*
X2039682D01*
X2043977D02*
Y1723750D01*
Y1726844D02*
X2043568Y1727406D01*
X2043159Y1727688*
X2043159D02*
X2042545D01*
X2042545D02*
X2042136Y1727406D01*
X2041727Y1726844*
X2041523Y1726000*
Y1725438*
X2041523D02*
X2041727Y1724594D01*
X2042136Y1724031*
X2042545Y1723750*
X2043159*
X2043568Y1724031*
X2043977Y1724594*
X2045818Y1727688D02*
Y1723750D01*
Y1726563D02*
X2046432Y1727406D01*
X2046841Y1727688*
X2046841D02*
X2047455D01*
X2047455D02*
X2047864Y1727406D01*
X2048068Y1726563*
X2048068D02*
Y1723750D01*
X2052159Y1726844D02*
X2051955Y1727406D01*
X2051341Y1727688*
X2051341D02*
X2050727D01*
X2050727D02*
X2050114Y1727406D01*
X2049909Y1726844*
X2050114Y1726281*
X2050523Y1726000*
X2051545Y1725719*
X2051955Y1725438*
X2051955D02*
X2052159Y1724875D01*
Y1724594*
X2051955Y1724031*
X2051341Y1723750*
X2050727*
X2050114Y1724031*
X2049909Y1724594*
X2054000Y1729656D02*
Y1723750D01*
X2058295Y1727688D02*
Y1723750D01*
Y1726844D02*
X2057886Y1727406D01*
X2057477Y1727688*
X2057477D02*
X2056864D01*
X2056864D02*
X2056455Y1727406D01*
X2056045Y1726844*
X2055841Y1726000*
Y1725438*
X2055841D02*
X2056045Y1724594D01*
X2056455Y1724031*
X2056864Y1723750*
X2057477*
X2057886Y1724031*
X2058295Y1724594*
X2060750Y1729656D02*
Y1724875D01*
X2060955Y1724031*
X2061364Y1723750*
X2061773*
X2060136Y1727688D02*
X2061568D01*
X2064636D02*
X2064227Y1727406D01*
X2063818Y1726844*
X2063614Y1726000*
Y1725438*
X2063614D02*
X2063818Y1724594D01*
X2064227Y1724031*
X2064636Y1723750*
X2065250*
X2065659Y1724031*
X2066068Y1724594*
X2066273Y1725438*
X2066273D02*
Y1726000D01*
X2066068Y1726844*
X2065659Y1727406*
X2065250Y1727688*
X2065250D02*
X2064636D01*
X2068114D02*
Y1723750D01*
Y1726000D02*
X2068318Y1726844D01*
X2068727Y1727406*
X2069136Y1727688*
X2069136D02*
X2069750D01*
X2075273Y1730781D02*
X2071591Y1721781D01*
X2079977Y1728813D02*
X2079568Y1729375D01*
X2078955Y1729656*
X2078136*
X2077523Y1729375*
X2077114Y1728813*
X2077114D02*
Y1728250D01*
X2077318Y1727688*
X2077318D02*
X2077523Y1727406D01*
X2077932Y1727125*
X2079159Y1726563*
X2079159D02*
X2079568Y1726281D01*
X2079773Y1726000*
X2079977Y1725438*
X2079977D02*
Y1724594D01*
X2079568Y1724031*
X2078955Y1723750*
X2078136*
X2077523Y1724031*
X2077114Y1724594*
X2081818Y1726000D02*
X2084273D01*
Y1726563*
X2084273D02*
X2084068Y1727125D01*
X2083864Y1727406*
X2083455Y1727688*
X2083455D02*
X2082841D01*
X2082841D02*
X2082432Y1727406D01*
X2082023Y1726844*
X2081818Y1726000*
Y1725438*
X2081818D02*
X2082023Y1724594D01*
X2082432Y1724031*
X2082841Y1723750*
X2083455*
X2083864Y1724031*
X2084273Y1724594*
X2086114Y1727688D02*
Y1723750D01*
Y1726000D02*
X2086318Y1726844D01*
X2086727Y1727406*
X2087136Y1727688*
X2087136D02*
X2087750D01*
X2089591Y1729656D02*
X2089795Y1729375D01*
X2090000Y1729656*
X2089795Y1729938*
X2089795D02*
X2089591Y1729656D01*
X2089795Y1727688D02*
Y1723750D01*
X2094295Y1727688D02*
Y1723750D01*
Y1726844D02*
X2093886Y1727406D01*
X2093477Y1727688*
X2093477D02*
X2092864D01*
X2092864D02*
X2092455Y1727406D01*
X2092045Y1726844*
X2091841Y1726000*
Y1725438*
X2091841D02*
X2092045Y1724594D01*
X2092455Y1724031*
X2092864Y1723750*
X2093477*
X2093886Y1724031*
X2094295Y1724594*
X2096136Y1729656D02*
Y1723750D01*
X2097977Y1729656D02*
X2098182Y1729375D01*
X2098386Y1729656*
X2098182Y1729938*
X2098182D02*
X2097977Y1729656D01*
X2098182Y1727688D02*
Y1723750D01*
X2102477Y1727688D02*
X2100227Y1723750D01*
Y1727688D02*
X2102477D01*
X2100227Y1723750D02*
X2102477D01*
X2104318Y1726000D02*
X2106773D01*
Y1726563*
X2106773D02*
X2106568Y1727125D01*
X2106364Y1727406*
X2105955Y1727688*
X2105955D02*
X2105341D01*
X2105341D02*
X2104932Y1727406D01*
X2104523Y1726844*
X2104318Y1726000*
Y1725438*
X2104318D02*
X2104523Y1724594D01*
X2104932Y1724031*
X2105341Y1723750*
X2105955*
X2106364Y1724031*
X2106773Y1724594*
X2108614Y1727688D02*
Y1723750D01*
Y1726000D02*
X2108818Y1726844D01*
X2109227Y1727406*
X2109636Y1727688*
X2109636D02*
X2110250D01*
G74*
X0Y0D02*
M02*
