G04 ================== begin FILE IDENTIFICATION RECORD ==================*
G04 Layout Name:  C:\projects\DS3254DK\worklib\DS3254DK01A0\physical\DS3254DK01A0.brd*
G04 Film Name:    BOTTOM*
G04 File Format:  Gerber RS274X*
G04 File Origin:  -unreleased*
G04 Origin Date:  Mon Sep 20 10:15:44 2004*
G04 ================== end FILE IDENTIFICATION RECORD ====================*
%FSLAX35Y35*MOIN*%
%IR0*IPPOS*OFA0.00000B0.00000*MIA0B0*SFA1.00000B1.00000*%
%ADD27C,.12*%
%ADD11C,.105*%
%ADD10C,.006*%
%ADD18R,.05X.025*%
%ADD23R,.06X.052*%
%ADD19R,.052X.06*%
%ADD13C,.04*%
%ADD24R,.052X.06*%
%ADD20R,.06X.052*%
%ADD15C,.06*%
%ADD14C,.024*%
%ADD26C,.08*%
%ADD22R,.071X.063*%
%ADD17R,.063X.071*%
%ADD16C,.091*%
%ADD21C,.056*%
%ADD25R,.087X.024*%
%ADD12C,.068*%
%ADD28C,.002*%
%ADD29C,.005*%
%ADD30C,.007*%
%ADD31C,.01*%
%ADD32C,.02*%
%ADD33C,.001*%
G75*
%LPD*%
G75*
G54D10*
G01X-101000Y73500D02*
X-71800D01*
X22000Y167300D01*
X154730D01*
X190100Y131930D01*
Y126900D01*
G01X17500Y-42500D02*
X37500Y-22500D01*
Y71300D01*
G01X67500Y-42500D02*
X50000Y-25000D01*
Y71300D01*
G01X92500Y-42500D02*
X62500Y-12500D01*
Y71300D01*
G01X75000D02*
Y63800D01*
X117500Y21300D01*
Y-42500D01*
G01X116250Y82500D02*
X111200D01*
G01X116250Y102500D02*
X111200D01*
G01X143850Y68900D02*
X149000D01*
G01X169600Y111100D02*
Y117500D01*
G01X149800Y196600D02*
X150000Y196400D01*
Y190200D01*
G01X166300Y200100D02*
X166600Y199800D01*
G01X168100Y208900D02*
X166600Y207400D01*
G01X195000Y240900D02*
Y234500D01*
G01X210100Y96100D02*
X210000Y96200D01*
Y102500D01*
G01X210300Y197100D02*
X212300Y199100D01*
Y231300D01*
X214300Y233300D01*
Y242750D01*
G01X249700Y97000D02*
Y103400D01*
G01X230600Y242950D02*
Y221700D01*
X238900Y213400D01*
Y199400D01*
X234700Y195200D01*
Y179300D01*
X240200Y173800D01*
G01X247600Y241400D02*
X247500Y241300D01*
Y235100D01*
G01X289400Y192900D02*
X289100Y192600D01*
X284700D01*
G01X311250Y235000D02*
X306060Y229810D01*
Y225000D01*
G01X311250Y250000D02*
X306850D01*
G01X311250Y265000D02*
Y265550D01*
X306060Y270740D01*
Y275000D01*
G01X311250Y390000D02*
X301250Y380000D01*
G01X311250Y405000D02*
X306850D01*
G01X311250Y420000D02*
X306060Y425190D01*
Y430000D01*
X-130000Y-180000D03*
Y505000D03*
X-113100Y161700D03*
Y260100D03*
X-80000Y161700D03*
Y260100D03*
X45000Y110000D03*
X355000Y-180000D03*
Y505000D03*
G54D20*
X60000Y483750D03*
Y491250D03*
X100000Y483750D03*
Y491250D03*
X137500Y303750D03*
Y311250D03*
X140000Y483750D03*
Y491250D03*
X167500Y283750D03*
Y291250D03*
X157500Y303750D03*
Y311250D03*
X167500Y323750D03*
Y331250D03*
X187500Y283750D03*
Y291250D03*
X177500Y303750D03*
Y311250D03*
X197500Y303750D03*
Y311250D03*
X180000Y483750D03*
Y491250D03*
X230600Y242950D03*
Y250450D03*
X214300Y242750D03*
Y250250D03*
X207500Y291250D03*
Y283750D03*
X227500D03*
Y291250D03*
X217500Y303750D03*
Y311250D03*
X207500Y323750D03*
Y331250D03*
X232500Y483750D03*
Y491250D03*
X247500Y283750D03*
Y291250D03*
X260000Y311250D03*
Y303750D03*
X237500D03*
Y311250D03*
X245000Y323750D03*
Y331250D03*
X289000Y162750D03*
Y170250D03*
G54D11*
X-130500Y315000D03*
Y390000D03*
Y465000D03*
X-70500Y315000D03*
Y390000D03*
Y465000D03*
G54D30*
G01X-101000Y-146500D02*
X-106000Y-141500D01*
X-130500D01*
X-137000Y-135000D01*
Y86900D01*
X-121200Y102700D01*
X-90700D01*
X-14200Y179200D01*
X111300D01*
X112600Y180500D01*
X125300D01*
X126600Y179200D01*
X153700D01*
X177000Y202500D01*
Y215700D01*
G01X-101000Y-126500D02*
X-106000Y-121500D01*
X-125500D01*
X-132500Y-114500D01*
Y84300D01*
X-116900Y99900D01*
X-88700D01*
X-11800Y176800D01*
X112700D01*
X114100Y178200D01*
X123790D01*
X125190Y176800D01*
X154700D01*
X180400Y202500D01*
Y215800D01*
X188500Y223900D01*
X201700D01*
X204300Y221300D01*
Y216100D01*
X205200Y215200D01*
Y215100D01*
X209400D01*
G01X-101000Y-106500D02*
X-106000Y-101500D01*
X-117000D01*
X-123500Y-95000D01*
Y84000D01*
X-113100Y94400D01*
X-72600D01*
X6000Y173000D01*
X154900D01*
X172600Y190700D01*
G01X-101000Y63500D02*
X-105900Y58600D01*
X-106400D01*
X-106600Y58400D01*
X-114700D01*
X-116600Y56500D01*
Y20700D01*
X-114700Y18800D01*
X-96400D01*
X-89300Y25900D01*
X-68800D01*
X43200Y137900D01*
X102600D01*
X103750Y136750D01*
Y132500D01*
G01X-101000Y-86500D02*
X-89000Y-98500D01*
X168500D01*
X230200Y-36800D01*
Y99600D01*
X239500Y108900D01*
X254700D01*
X265000Y119200D01*
Y124700D01*
X262600Y127100D01*
X252700D01*
X248900Y123300D01*
G01X227500Y121300D02*
X236800D01*
X237400Y120700D01*
X251500D01*
X256500Y125700D01*
X261300D01*
X262500Y124500D01*
Y120700D01*
X253700Y111900D01*
X238300D01*
X227200Y100800D01*
Y-35500D01*
X167200Y-95500D01*
X-72000D01*
X-101000Y-66500D01*
G01X259900Y123300D02*
X253300Y116700D01*
X237400D01*
X223100Y102400D01*
Y-27400D01*
X159400Y-91100D01*
X-56400D01*
X-101000Y-46500D01*
G01Y-26500D02*
X-82300Y-45200D01*
Y-45500D01*
X-53300Y-74500D01*
X-45200D01*
X-32600Y-87100D01*
X156100D01*
X198100Y-45100D01*
Y95100D01*
X231600Y128600D01*
X267200D01*
X268500Y127300D01*
X306800D01*
X311900Y132400D01*
Y199700D01*
X294500Y217100D01*
X268800D01*
X263600Y211900D01*
G01X258600Y206200D02*
X261400D01*
X269200Y214000D01*
X292700D01*
X308100Y198600D01*
Y133800D01*
X304500Y130200D01*
X230700D01*
X195600Y95100D01*
Y-43800D01*
X155000Y-84400D01*
X5200D01*
X-72700Y-6500D01*
X-101000D01*
G01X154100Y152000D02*
X151500Y154600D01*
X48800D01*
X-72300Y33500D01*
X-101000D01*
G01Y13500D02*
X-84400D01*
X-42750Y-28150D01*
X-11750D01*
X6700Y-46600D01*
Y-70100D01*
X18000Y-81400D01*
X144200D01*
X191500Y-34100D01*
Y95500D01*
X229400Y133400D01*
X252500D01*
X258700Y139600D01*
Y157100D01*
X264000Y162400D01*
Y175900D01*
X256700Y183200D01*
Y200900D01*
X242000Y215600D01*
X240000D01*
G01X124600Y133700D02*
X123300Y135000D01*
X114100D01*
X109200Y139900D01*
X41600D01*
X-69500Y28800D01*
X-103900D01*
X-106200Y31100D01*
Y38300D01*
X-101000Y43500D01*
G01X154100Y163000D02*
X148100Y157000D01*
X47000D01*
X-56500Y53500D01*
X-101000D01*
G01X10100Y-156400D02*
X-12900D01*
Y-161400D01*
X-25200D01*
G01X13800Y-184500D02*
X13900D01*
Y-172300D01*
G01X13800Y-184500D02*
X13900Y-184600D01*
Y-188200D01*
X10000D01*
G01X13900Y-172300D02*
Y-168700D01*
X13800Y-168600D01*
G01D02*
X13900D01*
Y-156300D01*
G01X10000Y-172300D02*
X13900D01*
G01X10000Y-184500D02*
X13800D01*
G01X10000Y-168600D02*
X13800D01*
G01X32350Y-182600D02*
X26900D01*
X25100Y-180800D01*
X21000D01*
G01X32350Y-166800D02*
Y-166700D01*
X27000D01*
X25200Y-164900D01*
X21000D01*
G01X13900Y-156300D02*
Y-152700D01*
X10100D01*
G01X12400Y-156400D02*
Y-156300D01*
X13900D01*
G01X32450Y-150900D02*
X32250Y-150700D01*
X26700D01*
X25000Y-149000D01*
X21100D01*
G01X39950Y-150900D02*
X39900Y-150850D01*
Y-133900D01*
X36700Y-130700D01*
X25400D01*
G01X39850Y-166800D02*
X47100D01*
X50100Y-163800D01*
Y-130700D01*
X45500Y-126100D01*
X21300D01*
G01X240200Y173800D02*
X236950Y170550D01*
Y146450D01*
X186200Y95700D01*
Y-32100D01*
X143500Y-74800D01*
X39800D01*
X17500Y-52500D01*
G01X39800Y-175800D02*
Y-182550D01*
X39850Y-182600D01*
G01X42500Y-52500D02*
X60300Y-70300D01*
X141500D01*
X181900Y-29900D01*
Y97500D01*
X202450Y118050D01*
Y135450D01*
X200800Y137100D01*
X191800D01*
X168950Y159950D01*
Y176750D01*
X190950Y198750D01*
X208650D01*
X210300Y197100D01*
G01X124600Y133700D02*
X103750Y112850D01*
Y112500D01*
G01Y132500D02*
X108100D01*
G01X200400Y133900D02*
Y131100D01*
X193100Y123800D01*
X189700D01*
X179800Y133700D01*
X124600D01*
G54D12*
X-111000Y-156500D03*
Y-146500D03*
Y-136500D03*
Y-126500D03*
Y-116500D03*
Y-106500D03*
Y-96500D03*
Y-86500D03*
Y-76500D03*
Y-66500D03*
Y-56500D03*
Y-46500D03*
Y-36500D03*
Y-26500D03*
Y-16500D03*
Y-6500D03*
Y3500D03*
Y13500D03*
Y23500D03*
Y33500D03*
Y43500D03*
Y53500D03*
Y63500D03*
Y73500D03*
Y83500D03*
X-119400Y108900D03*
Y134500D03*
X-130500Y426000D03*
X-101000Y-156500D03*
Y-146500D03*
Y-136500D03*
Y-126500D03*
Y-116500D03*
Y-106500D03*
Y-96500D03*
Y-86500D03*
Y-76500D03*
Y-66500D03*
Y-56500D03*
Y-46500D03*
Y-36500D03*
Y-26500D03*
Y-16500D03*
Y-6500D03*
Y3500D03*
Y13500D03*
Y23500D03*
Y33500D03*
Y43500D03*
Y53500D03*
Y63500D03*
Y73500D03*
Y83500D03*
X-101700Y108900D03*
Y134500D03*
X-85600Y194700D03*
Y205500D03*
Y216300D03*
Y227100D03*
X-74400Y189300D03*
Y200100D03*
Y210900D03*
Y221700D03*
Y232500D03*
X-70500Y426000D03*
X-25200Y-161400D03*
X77500Y440000D03*
Y450000D03*
Y460000D03*
X117500Y440000D03*
Y450000D03*
Y460000D03*
X177600Y387500D03*
Y413100D03*
X157500Y440000D03*
Y450000D03*
Y460000D03*
X195300Y387500D03*
Y413100D03*
X197500Y440000D03*
Y450000D03*
Y460000D03*
X234700Y-168900D03*
Y-158900D03*
X244700Y-168900D03*
Y-158900D03*
X254700Y-168900D03*
Y-158900D03*
X264700Y-168900D03*
Y-158900D03*
X274700Y-168900D03*
Y-158900D03*
G54D21*
X66200Y327400D03*
Y346600D03*
X97500Y-145000D03*
Y-115000D03*
X95000Y27500D03*
Y57500D03*
X127500Y-145000D03*
Y-115000D03*
X125000Y27500D03*
Y57500D03*
G54D31*
G01X129200Y181700D02*
X129050Y181850D01*
Y188100D01*
G54D22*
X135900Y200300D03*
Y211300D03*
X169600Y100100D03*
Y111100D03*
X149800Y207600D03*
Y196600D03*
X196500Y207100D03*
Y218100D03*
X195000Y251900D03*
Y240900D03*
X210100Y85100D03*
Y96100D03*
X249700Y86000D03*
Y97000D03*
X247600Y252400D03*
Y241400D03*
X271200Y115600D03*
Y104600D03*
X271700Y164500D03*
Y175500D03*
G54D13*
X-60000Y-180000D03*
Y505000D03*
X310000Y-180000D03*
G54D32*
G01X-33800Y310500D02*
Y307600D01*
G01X-23800Y331300D02*
X-33800Y321300D01*
Y310500D01*
G01X-23800Y351300D02*
X-16400Y358700D01*
Y368400D01*
G01X7100Y253900D02*
X2500D01*
G01X7100D02*
Y248900D01*
G01X18100Y253900D02*
X22500D01*
G01X18100D02*
Y258900D01*
G01X50200Y212200D02*
X45700D01*
G01X50200D02*
Y207200D01*
G01X61200Y212200D02*
Y217100D01*
G01Y212200D02*
X65700D01*
G01X71850Y122600D02*
X67800D01*
G01X76000Y187000D02*
Y182000D01*
G01Y187000D02*
X71400D01*
G01X87000D02*
X88000Y186000D01*
X91500D01*
X91600Y186100D01*
G01X87000Y187000D02*
Y192000D01*
G01X78300Y300100D02*
X82800D01*
G01X92000Y92200D02*
X95950D01*
G01X91900Y112400D02*
X96150D01*
G01X92000Y132400D02*
X96150D01*
G01X116250Y142500D02*
X111080D01*
G01X101250Y192500D02*
Y187700D01*
G01X97100Y212400D02*
X101150D01*
G01X110200Y269800D02*
X110100Y269900D01*
Y274800D01*
G01X98400Y297700D02*
X96200D01*
X93800Y300100D01*
G01X144900Y114300D02*
X140400D01*
G01X144900D02*
Y109400D01*
X145000Y109300D01*
G01X134600Y122200D02*
X134550Y122250D01*
Y126900D01*
G01X138300Y141200D02*
X142800D01*
G01Y136400D02*
Y141200D01*
G01X121550Y188100D02*
Y183950D01*
X121600Y183900D01*
G01X141000Y199900D02*
X136300D01*
X135900Y200300D01*
G01X134400Y215800D02*
Y212800D01*
X135900Y211300D01*
G01X149800Y207600D02*
Y208000D01*
X149700Y207900D01*
X144700D01*
G01X138100Y241700D02*
Y236800D01*
G01X127100D02*
X124800Y239100D01*
X122500D01*
G01X125700Y274800D02*
X121100D01*
G01X174800Y100100D02*
X169600D01*
G01D02*
X164500D01*
G01X155900Y114300D02*
Y119200D01*
G01Y114300D02*
X157300Y115700D01*
X160500D01*
G01X153800Y141200D02*
Y136500D01*
X153900Y136400D01*
G01X158400Y141200D02*
X153800D01*
G01X165500Y195700D02*
Y198700D01*
X166600Y199800D01*
G01X162100Y200100D02*
X166300D01*
G01X154800Y207600D02*
X149800D01*
G01X168100Y211400D02*
Y208900D01*
G01X162000Y206600D02*
X162100Y206700D01*
X165900D01*
X166600Y207400D01*
G01X194400Y118300D02*
X190300D01*
G01D02*
Y113800D01*
G01X182700Y118300D02*
X180900Y116500D01*
X178600D01*
G01X182700Y118300D02*
X180600Y120400D01*
X178700D01*
G01X194100Y202500D02*
Y204800D01*
X196500Y207200D01*
Y207100D01*
G01D02*
X197200D01*
X199100Y205200D01*
Y202700D01*
G01X201600Y215900D02*
X198800D01*
X196600Y218100D01*
X196500D01*
G01X191600Y217800D02*
X191700Y217900D01*
X196300D01*
X196500Y218100D01*
G01X195000Y251900D02*
X189900D01*
G01X210100Y85100D02*
X204900D01*
G01X233400Y205600D02*
X230300D01*
X228900Y207000D01*
G01X221300D02*
X219200Y204900D01*
X216700D01*
G01X233400Y209000D02*
X230900D01*
X228900Y207000D01*
G01X221300D02*
X219500Y208800D01*
X216700D01*
G01X244600Y85900D02*
X249600D01*
X249700Y86000D01*
G01X251200Y167500D02*
Y170300D01*
X249600Y171900D01*
G01Y176400D02*
Y171900D01*
G01X257200D02*
X261100D01*
G01X257200Y167400D02*
Y171900D01*
G01X247600Y252400D02*
X242500D01*
G01X271200Y104600D02*
Y100000D01*
G01Y104600D02*
X266200D01*
G01X266300Y115600D02*
X271200D01*
G01D02*
Y120100D01*
G01X268400Y150400D02*
X266700Y148700D01*
Y145400D01*
G01X284100Y150400D02*
X279400D01*
G01D02*
Y155200D01*
X279500Y155300D01*
G01X271700Y164500D02*
X271600Y164400D01*
Y159800D01*
G01X276700Y162600D02*
X273700D01*
X271800Y164500D01*
X271700D01*
G01X268400Y150400D02*
Y155400D01*
G01X271700Y175500D02*
X269500Y173300D01*
X267000D01*
X266800Y173100D01*
G01X271700Y175500D02*
X269600Y177600D01*
X266800D01*
G01X282900Y206500D02*
Y201700D01*
G01X267400Y204600D02*
X269900D01*
X270300Y205000D01*
Y205100D01*
X271900Y206700D01*
G01X282900Y206500D02*
X287400D01*
G01X282900Y206700D02*
Y206500D01*
G01X271900Y206700D02*
X270300Y208300D01*
X267400D01*
X267300Y208200D01*
G01X298000Y141600D02*
Y137700D01*
X299100Y136600D01*
G01X298200Y198000D02*
Y195100D01*
X300400Y192900D01*
G01X329400Y12700D02*
X325450D01*
G54D14*
X-53000Y-144900D03*
X-70500Y-145200D03*
X-68500Y-66000D03*
X-58100Y-30200D03*
X-51900Y35400D03*
X-59800Y166900D03*
X-55000Y162300D03*
X-61700Y218600D03*
X-45900Y-80900D03*
X-48100Y198500D03*
X-33500Y248400D03*
X-29000Y243000D03*
X-24100Y277900D03*
X-28500Y283000D03*
X-33800Y310500D03*
Y307600D03*
X-24300Y301600D03*
X-29000Y296500D03*
X-36100Y343100D03*
X-45900Y332100D03*
X-41000Y327500D03*
X-35900Y374000D03*
X-41000Y348000D03*
X-31900Y378500D03*
X-34400Y392600D03*
X-39000Y387500D03*
X-24300Y378400D03*
X-23400Y392700D03*
X-42600Y474400D03*
X-49500Y467400D03*
X-42600Y506400D03*
X-49400Y500000D03*
X5700Y-180800D03*
Y-164900D03*
X5900Y-142000D03*
X1500Y-137000D03*
X-13400Y-129300D03*
X5200Y34600D03*
X-14100Y242500D03*
X2500Y253900D03*
X-4200Y268300D03*
X1000Y263500D03*
X500Y284000D03*
X5900Y279300D03*
X-13000Y287900D03*
X-8500Y283000D03*
X-200Y316300D03*
X-13200Y301600D03*
X-8500Y296500D03*
X-1400Y337600D03*
X-900Y347300D03*
X-1100Y326800D03*
X-8200Y368400D03*
X-16400D03*
X5500Y375000D03*
X-20200Y373900D03*
X5000Y354500D03*
X-750Y403400D03*
X-18700Y387500D03*
X25300Y-188200D03*
Y-172300D03*
X16900Y-141900D03*
X17000Y-132000D03*
X25400Y-156400D03*
X14400Y-149000D03*
X25400Y-130700D03*
X21300Y-126100D03*
X25000Y-101200D03*
X16800Y30000D03*
X9200Y30100D03*
X17000Y39000D03*
X25000Y74000D03*
X25500Y224500D03*
X9800Y225700D03*
X14700Y230900D03*
X7100Y248900D03*
X22500Y253900D03*
X18100Y258900D03*
X10100Y370300D03*
X10200Y359200D03*
X15000Y425500D03*
X13200Y443000D03*
X8900Y438500D03*
X20800Y442900D03*
X25000Y438500D03*
X9900Y485400D03*
X7600Y467500D03*
X7100Y496100D03*
X15500Y512500D03*
X20300Y507500D03*
X11200Y496100D03*
X39800Y-175800D03*
X45300Y-121000D03*
X55300D03*
X55000Y51800D03*
X45000D03*
X37500Y71300D03*
X50000D03*
X50200Y207200D03*
X45700Y212200D03*
X61200Y217100D03*
X50800Y315700D03*
X46000Y311000D03*
X50900Y358900D03*
X46000Y363500D03*
X43850Y402900D03*
X35500Y455000D03*
X40200Y460000D03*
X35500Y469900D03*
X40200Y475000D03*
X60000Y495600D03*
X35500Y495100D03*
X40200Y490000D03*
X75300Y-164600D03*
X65300Y-121000D03*
X75000Y8200D03*
X65000Y51800D03*
X90400Y57500D03*
X75000Y71300D03*
X62500D03*
X67800Y122600D03*
X84600Y122700D03*
X71400Y187000D03*
X76000Y182000D03*
X87000Y192000D03*
X65700Y212200D03*
X78300Y300100D03*
X84000Y499100D03*
X116100Y-166000D03*
X92900Y-115000D03*
X113100Y7500D03*
X92000Y92200D03*
X111200Y82500D03*
Y102500D03*
X91900Y112400D03*
X108100Y132500D03*
X92000Y132400D03*
X111080Y142500D03*
X94000Y164500D03*
X98600Y159600D03*
X109600Y169400D03*
X114200Y164500D03*
X113900Y196000D03*
X113100Y192500D03*
X101300Y187700D03*
X91600Y186100D03*
X97100Y212400D03*
X109300Y242700D03*
X116700Y267000D03*
X110200Y269800D03*
X108200Y319000D03*
X108600Y298900D03*
X104500Y311800D03*
X98400Y297700D03*
X105200Y337400D03*
X98200Y332400D03*
Y329200D03*
X109500Y358500D03*
X114600Y360500D03*
X102600Y347800D03*
X107400Y417600D03*
X107500Y426500D03*
X99800Y417600D03*
X95800Y422000D03*
X111000Y507700D03*
X100000Y495600D03*
X131800Y-166000D03*
X128800Y7500D03*
X132000Y68900D03*
X123000Y92500D03*
X140400Y114300D03*
X145000Y109300D03*
X131100Y100500D03*
X134600Y122200D03*
X133100Y137500D03*
X142800Y136400D03*
X138300Y141200D03*
X120400Y175600D03*
X129200Y181700D03*
X121600Y183900D03*
X141000Y199900D03*
X131300Y217700D03*
X144400Y212000D03*
X129100Y209400D03*
X134400Y215800D03*
X140100Y229700D03*
X144700Y207900D03*
X133900Y260200D03*
X142700Y256400D03*
X134200Y253800D03*
X137700Y249600D03*
X138100Y241700D03*
X125600Y245200D03*
X122300Y249500D03*
X122500Y239100D03*
X126000Y289900D03*
X128100Y285200D03*
X134400Y265100D03*
X125700Y274800D03*
X122100Y299900D03*
X128900Y294700D03*
X134600Y315600D03*
X137500Y299400D03*
X145100Y338900D03*
Y341800D03*
X145600Y319800D03*
X146900Y322900D03*
X134600Y332600D03*
Y335500D03*
Y329200D03*
X122100Y365500D03*
X143700Y385100D03*
X140800Y387100D03*
X125800Y385100D03*
X118800Y387100D03*
X135800D03*
X130800D03*
X145700Y382200D03*
X145800Y419700D03*
X133800Y420700D03*
X124000Y427400D03*
X128200Y423800D03*
X140000Y495600D03*
X157500Y-41700D03*
X155200Y59100D03*
X149000Y68900D03*
X169600Y117500D03*
X174800Y100100D03*
X164500D03*
X160500Y115700D03*
X155900Y119200D03*
X147200Y126900D03*
X171000Y148200D03*
X153900Y136400D03*
X158400Y141200D03*
X154100Y152000D03*
Y163000D03*
X171700Y160900D03*
Y165300D03*
X172600Y190700D03*
X150000Y190200D03*
X170700Y183000D03*
X167000Y179000D03*
X165500Y195700D03*
X162100Y200100D03*
X155100Y215100D03*
X169200Y227400D03*
X154800Y207600D03*
X162000Y206600D03*
X168100Y211400D03*
X147200Y250300D03*
X150200D03*
X173200Y280400D03*
X164600Y315300D03*
X157500Y316000D03*
X173900Y295900D03*
X170000Y342500D03*
X165300Y335600D03*
X151200Y371800D03*
X157900Y371900D03*
X165500Y347600D03*
X173900Y418700D03*
X151000Y507700D03*
X179700Y79100D03*
X194400Y118300D03*
X190300Y113800D03*
X178700Y120400D03*
X178600Y116500D03*
X199200Y140100D03*
X190100Y126900D03*
X202500Y140100D03*
X200400Y133900D03*
X185000Y124300D03*
X195600Y148500D03*
X189400Y142400D03*
X192400Y139500D03*
X190100Y160100D03*
X185000Y158900D03*
X203100Y159900D03*
X203200Y164000D03*
X199300Y163900D03*
X199200Y167900D03*
X182300Y167800D03*
X199200Y171800D03*
X183300Y172600D03*
X199250Y175780D03*
X187200Y162000D03*
X188200Y175900D03*
X203300Y155900D03*
X203180Y171840D03*
X203200Y167910D03*
X199200Y195200D03*
X186800Y180500D03*
X199300Y179700D03*
X192400Y195900D03*
X189000Y193900D03*
X186100Y187000D03*
X203200Y179800D03*
X199100Y202700D03*
X194100Y202500D03*
X177000Y215700D03*
X201600Y215900D03*
X191600Y217800D03*
X195000Y234500D03*
X187500Y214600D03*
X180800Y224800D03*
X200800Y256600D03*
X189900Y251900D03*
X202000Y284000D03*
X185100Y268800D03*
X190300Y278200D03*
X192900Y291300D03*
X177500Y291600D03*
X197500Y299400D03*
X180000Y495600D03*
X210700Y-31600D03*
X210800Y59100D03*
X220000Y70400D03*
X204900Y85100D03*
X227500Y121300D03*
X210000Y102500D03*
X230800Y118300D03*
X223700Y139000D03*
X230800Y148200D03*
X219300Y135100D03*
X222800Y143300D03*
X218600Y138800D03*
X215000Y141900D03*
X211060Y148220D03*
X207100Y148300D03*
X205500Y136800D03*
X222870Y156110D03*
X230760Y167920D03*
X223220Y151820D03*
X230750Y175790D03*
Y171830D03*
X226820Y156110D03*
X230740Y163960D03*
X226810Y160020D03*
X218900Y175800D03*
X226800Y163970D03*
X218940Y152160D03*
Y156110D03*
X211040Y152180D03*
X211000Y159900D03*
X223000Y171900D03*
X230780Y160040D03*
X230800Y156100D03*
X207140Y160040D03*
X207130Y163970D03*
X214800Y163800D03*
X210900Y167700D03*
Y163800D03*
X207000Y167700D03*
X214800Y160000D03*
X219000Y168100D03*
X215100Y171900D03*
X219000D03*
X215200Y175800D03*
X223000Y168100D03*
X215200D03*
X218800Y164200D03*
X222890Y163960D03*
X218930Y160050D03*
X222850Y160040D03*
X226800Y167900D03*
X214980Y156110D03*
X211200Y171800D03*
X211050Y175760D03*
X207120Y171860D03*
X207130Y175780D03*
X207100Y193000D03*
X206400Y196700D03*
X207100Y183700D03*
X230740Y179720D03*
X222890Y183680D03*
X222860Y179680D03*
X211100Y192800D03*
X215900Y198300D03*
X211100Y183600D03*
X211070Y179710D03*
X215300Y183900D03*
X218900Y179700D03*
X219000Y192800D03*
X228700Y201900D03*
X224100Y194200D03*
X226800Y187500D03*
X203700Y203500D03*
X224200Y198800D03*
X210300Y197100D03*
X207140Y179720D03*
X214970Y179770D03*
X216700Y204900D03*
X209400Y215100D03*
X228800Y217700D03*
X216800Y230300D03*
X206700Y218300D03*
X216700Y208800D03*
X214300Y254600D03*
X230600Y254800D03*
X230200Y262900D03*
X212100Y235400D03*
X224400Y269400D03*
X204000Y315600D03*
X217500D03*
X207500Y307100D03*
X203700Y306700D03*
X224800Y301500D03*
X207500Y296300D03*
X218400Y338600D03*
X214400Y331300D03*
X204000Y499100D03*
X244200Y-148200D03*
Y-139600D03*
X232600Y-143800D03*
X236500Y-148000D03*
X253800Y-25100D03*
X252400Y-31700D03*
X257200Y-15100D03*
X251500Y-17600D03*
X249500Y52300D03*
X244600Y85900D03*
X249700Y103400D03*
X232600Y98300D03*
X248900Y123300D03*
X242800Y135900D03*
X242500Y140400D03*
X242700Y144400D03*
X244400Y173700D03*
X242200Y167800D03*
X234680Y171840D03*
X234600Y163800D03*
X242500Y158100D03*
X239800Y156200D03*
X243300Y163400D03*
X240200Y173800D03*
X251200Y167500D03*
X249600Y176400D03*
X257200Y167400D03*
X240800Y179800D03*
X246700Y180300D03*
X242900Y183800D03*
X258600Y206200D03*
X245300Y197600D03*
X241900Y194900D03*
X237000Y194200D03*
X233400Y205600D03*
X240000Y215600D03*
X238400Y234700D03*
X235900Y231500D03*
X233400Y209000D03*
X247500Y235100D03*
X242500Y252400D03*
X237500Y274700D03*
X247500Y296300D03*
X237600Y315600D03*
X243200Y335600D03*
X241000Y352600D03*
X232500Y435800D03*
Y495600D03*
X250000Y508700D03*
X277000Y-105000D03*
X276500Y-80000D03*
Y-55000D03*
X287300Y21800D03*
X273300Y56200D03*
X277000Y61500D03*
X260300Y70500D03*
X277000Y85000D03*
X266200Y104600D03*
X271200Y100000D03*
X266300Y95000D03*
X277700Y109800D03*
X266300Y115600D03*
X271200Y120100D03*
X259900Y123300D03*
X281200Y140000D03*
X266700Y145400D03*
X279500Y155300D03*
X284100Y150400D03*
X284500Y163000D03*
X271600Y159800D03*
X276700Y162600D03*
X284500Y170200D03*
X268400Y155400D03*
X261100Y171900D03*
X266800Y173100D03*
Y177600D03*
X282900Y201700D03*
X287400Y206500D03*
X284700Y192600D03*
X267400Y204600D03*
X263600Y211900D03*
X277500Y225000D03*
X267300Y208200D03*
X263000Y237100D03*
X268500Y243500D03*
X277400Y250000D03*
X277500Y275000D03*
X274800Y309300D03*
X265400Y315900D03*
X273700Y322000D03*
X269500Y320000D03*
X277500Y380000D03*
Y430000D03*
Y405000D03*
X304100Y-95000D03*
X306900Y-80000D03*
X306000Y-55000D03*
X313800Y2700D03*
X307000Y-15000D03*
Y5000D03*
X309300Y0D03*
X288900Y26100D03*
X307300Y10900D03*
X306900Y85000D03*
X301200Y100000D03*
X298000Y141600D03*
X298200Y198000D03*
X306060Y225000D03*
X306850Y250000D03*
X306060Y275000D03*
X306300Y315000D03*
X314900Y303500D03*
X313200Y322700D03*
X308800Y335000D03*
X307000Y345000D03*
X306300Y320000D03*
Y330100D03*
X302300Y347900D03*
X300300Y350800D03*
X301250Y380000D03*
X306850Y405000D03*
X306060Y430000D03*
X323100Y-65000D03*
X329900Y-10400D03*
X337900Y8200D03*
X329500Y2700D03*
X329400Y12700D03*
X323100Y70000D03*
X324000Y235000D03*
X317200Y318200D03*
X324800D03*
X328900Y322700D03*
X323100Y390000D03*
G54D23*
X166600Y207400D03*
Y199800D03*
G54D33*
G01X-192500Y-250000D02*
G03I-7500J0D01*
G01X-187500D02*
G03I-12500J0D01*
G01X-200000Y-230000D02*
Y-270000D01*
G01X-220000Y-250000D02*
X-180000D01*
G01X-192500Y575000D02*
G03I-7500J0D01*
G01X-187500D02*
G03I-12500J0D01*
G01X-200000Y595000D02*
Y555000D01*
G01X-220000Y575000D02*
X-180000D01*
G01X-30750Y-391670D02*
X-29880Y-390790D01*
X-29230Y-389330D01*
X-28790Y-387290D01*
X-29230Y-385540D01*
X-30100Y-384380D01*
X-31630Y-383500D01*
X-37520D01*
Y-401000D01*
X-30320D01*
X-28790Y-399830D01*
X-27910Y-398080D01*
X-27480Y-396040D01*
X-27910Y-394000D01*
X-29230Y-392250D01*
X-30750Y-391670D01*
X-37520D01*
G01X-15000Y-401000D02*
X-16750Y-400710D01*
X-18270Y-399540D01*
X-19590Y-397790D01*
X-20460Y-395750D01*
X-20900Y-393420D01*
Y-391080D01*
X-20460Y-388750D01*
X-19590Y-386710D01*
X-18270Y-384960D01*
X-16750Y-383790D01*
X-15000Y-383500D01*
X-13250Y-383790D01*
X-11730Y-384960D01*
X-10410Y-386710D01*
X-9540Y-388750D01*
X-9100Y-391080D01*
Y-393420D01*
X-9540Y-395750D01*
X-10410Y-397790D01*
X-11730Y-399540D01*
X-13250Y-400710D01*
X-15000Y-401000D01*
G01X2500Y-383500D02*
Y-401000D01*
G01X-2520Y-383500D02*
X7520D01*
G01X20000D02*
Y-401000D01*
G01X14980Y-383500D02*
X25020D01*
G01X37500Y-401000D02*
X35750Y-400710D01*
X34230Y-399540D01*
X32910Y-397790D01*
X32040Y-395750D01*
X31600Y-393420D01*
Y-391080D01*
X32040Y-388750D01*
X32910Y-386710D01*
X34230Y-384960D01*
X35750Y-383790D01*
X37500Y-383500D01*
X39250Y-383790D01*
X40770Y-384960D01*
X42090Y-386710D01*
X42960Y-388750D01*
X43400Y-391080D01*
Y-393420D01*
X42960Y-395750D01*
X42090Y-397790D01*
X40770Y-399540D01*
X39250Y-400710D01*
X37500Y-401000D01*
G01X49320D02*
Y-383500D01*
X55000Y-398080D01*
X60680Y-383500D01*
Y-401000D01*
G01X85630Y-383500D02*
Y-401000D01*
X94370D01*
G01X102040D02*
X107500Y-383500D01*
X112960Y-401000D01*
G01X110990Y-394880D02*
X104010D01*
G01X125000Y-401000D02*
Y-393130D01*
X120630Y-383500D01*
G01X129370D02*
X125000Y-393130D01*
G01X146870Y-401000D02*
X138130D01*
Y-383500D01*
X146870D01*
G01X143370Y-391960D02*
X138130D01*
G01X155630Y-401000D02*
Y-383500D01*
X161090D01*
X162840Y-384380D01*
X163930Y-385540D01*
X164370Y-387880D01*
X163930Y-390210D01*
X162620Y-391670D01*
X161090Y-392540D01*
X155630D01*
G01X161090D02*
X164370Y-401000D01*
G01X190410Y-398670D02*
X192160Y-400130D01*
X194130Y-401000D01*
X195870D01*
X197620Y-400130D01*
X198930Y-398670D01*
X199590Y-396620D01*
X199150Y-394580D01*
X198060Y-392830D01*
X196090Y-391670D01*
X193470Y-391080D01*
X191940Y-389920D01*
X191290Y-387880D01*
X191730Y-385830D01*
X192820Y-384380D01*
X194340Y-383500D01*
X195870D01*
X197400Y-384080D01*
X198710Y-385540D01*
G01X209880Y-383500D02*
X215120D01*
G01X212500D02*
Y-401000D01*
G01X209880D02*
X215120D01*
G01X231310Y-392250D02*
X235680D01*
Y-397500D01*
X234370Y-399250D01*
X232840Y-400420D01*
X230660Y-401000D01*
X228470Y-400420D01*
X226940Y-399250D01*
X225630Y-397500D01*
X224760Y-395460D01*
X224320Y-393130D01*
Y-391080D01*
X224760Y-389330D01*
X225630Y-387290D01*
X226940Y-385540D01*
X228250Y-384380D01*
X230000Y-383500D01*
X231530D01*
X233270Y-384080D01*
X234590Y-385250D01*
G01X242480Y-401000D02*
Y-383500D01*
X252520Y-401000D01*
Y-383500D01*
G01X259540Y-401000D02*
X265000Y-383500D01*
X270460Y-401000D01*
G01X268490Y-394880D02*
X261510D01*
G01X278130Y-383500D02*
Y-401000D01*
X286870D01*
G01X-36250Y-367000D02*
Y-349500D01*
X-31890D01*
X-30140Y-350380D01*
X-28830Y-351540D01*
X-27740Y-353290D01*
X-26860Y-355330D01*
X-26650Y-358250D01*
X-26860Y-361170D01*
X-27740Y-363210D01*
X-28830Y-364960D01*
X-30140Y-366130D01*
X-31890Y-367000D01*
X-36250D01*
G01X-18540Y-364670D02*
X-16790Y-366130D01*
X-14820Y-367000D01*
X-13080D01*
X-11330Y-366130D01*
X-10020Y-364670D01*
X-9360Y-362620D01*
X-9800Y-360580D01*
X-10890Y-358830D01*
X-12860Y-357670D01*
X-15480Y-357080D01*
X-17010Y-355920D01*
X-17660Y-353880D01*
X-17220Y-351830D01*
X-16130Y-350380D01*
X-14610Y-349500D01*
X-13080D01*
X-11550Y-350080D01*
X-10240Y-351540D01*
G01X-1250Y-363500D02*
X60Y-365540D01*
X1800Y-366710D01*
X3770Y-367000D01*
X5520Y-366710D01*
X7260Y-365250D01*
X8350Y-363500D01*
X8570Y-361750D01*
X8140Y-359710D01*
X6610Y-358250D01*
X5080Y-357670D01*
X3110D01*
G01X5080D02*
X6390Y-356790D01*
X7480Y-355330D01*
X7920Y-353580D01*
X7480Y-351830D01*
X6390Y-350380D01*
X4420Y-349500D01*
X2460Y-349790D01*
X490Y-350960D01*
G01X16900Y-352420D02*
X18210Y-350670D01*
X19740Y-349790D01*
X21490Y-349500D01*
X23670Y-350080D01*
X25200Y-351540D01*
X25640Y-353290D01*
X25420Y-355040D01*
X24540Y-356500D01*
X20180Y-359420D01*
X18210Y-361460D01*
X16900Y-364380D01*
X16460Y-367000D01*
X25640D01*
G01X33750Y-364380D02*
X35060Y-365830D01*
X36580Y-366710D01*
X38550Y-367000D01*
X40520Y-366420D01*
X42040Y-365250D01*
X43140Y-363210D01*
X43350Y-360880D01*
X42920Y-358540D01*
X41820Y-357080D01*
X40300Y-355920D01*
X38770Y-355630D01*
X37240Y-355920D01*
X35280Y-357080D01*
X35930Y-349500D01*
X41820D01*
G01X58670Y-367000D02*
Y-349500D01*
X50590Y-362040D01*
X61510D01*
G01X68750Y-367000D02*
Y-349500D01*
X73110D01*
X74860Y-350380D01*
X76170Y-351540D01*
X77260Y-353290D01*
X78140Y-355330D01*
X78350Y-358250D01*
X78140Y-361170D01*
X77260Y-363210D01*
X76170Y-364960D01*
X74860Y-366130D01*
X73110Y-367000D01*
X68750D01*
G01X86250D02*
Y-349500D01*
G01X94540D02*
X86250Y-360290D01*
G01X95850Y-367000D02*
X89960Y-355330D01*
G01X108550Y-349500D02*
X106800Y-350080D01*
X105490Y-351540D01*
X104620Y-353290D01*
X103960Y-355630D01*
X103750Y-358250D01*
X103960Y-360880D01*
X104620Y-363210D01*
X105490Y-364960D01*
X106800Y-366420D01*
X108550Y-367000D01*
X110300Y-366420D01*
X111610Y-364960D01*
X112480Y-363210D01*
X113140Y-360880D01*
X113350Y-358250D01*
X113140Y-355630D01*
X112480Y-353290D01*
X111610Y-351540D01*
X110300Y-350080D01*
X108550Y-349500D01*
G01X126050Y-367000D02*
Y-349500D01*
X123430Y-353000D01*
G01Y-367000D02*
X128670D01*
G01X138090D02*
X143550Y-349500D01*
X149010Y-367000D01*
G01X147040Y-360880D02*
X140060D01*
G01X161050Y-349500D02*
X159300Y-350080D01*
X157990Y-351540D01*
X157120Y-353290D01*
X156460Y-355630D01*
X156250Y-358250D01*
X156460Y-360880D01*
X157120Y-363210D01*
X157990Y-364960D01*
X159300Y-366420D01*
X161050Y-367000D01*
X162800Y-366420D01*
X164110Y-364960D01*
X164980Y-363210D01*
X165640Y-360880D01*
X165850Y-358250D01*
X165640Y-355630D01*
X164980Y-353290D01*
X164110Y-351540D01*
X162800Y-350080D01*
X161050Y-349500D01*
G01X-36150Y-332400D02*
Y-314900D01*
X-31790D01*
X-30040Y-315780D01*
X-28730Y-316940D01*
X-27640Y-318690D01*
X-26760Y-320730D01*
X-26550Y-323650D01*
X-26760Y-326570D01*
X-27640Y-328610D01*
X-28730Y-330360D01*
X-30040Y-331530D01*
X-31790Y-332400D01*
X-36150D01*
G01X-19310D02*
X-13850Y-314900D01*
X-8390Y-332400D01*
G01X-10360Y-326280D02*
X-17340D01*
G01X-720Y-314900D02*
Y-332400D01*
X8020D01*
G01X16780Y-314900D02*
Y-332400D01*
X25520D01*
G01X33190D02*
X38650Y-314900D01*
X44110Y-332400D01*
G01X42140Y-326280D02*
X35160D01*
G01X51560Y-330070D02*
X53310Y-331530D01*
X55280Y-332400D01*
X57020D01*
X58770Y-331530D01*
X60080Y-330070D01*
X60740Y-328020D01*
X60300Y-325980D01*
X59210Y-324230D01*
X57240Y-323070D01*
X54620Y-322480D01*
X53090Y-321320D01*
X52440Y-319280D01*
X52880Y-317230D01*
X53970Y-315780D01*
X55490Y-314900D01*
X57020D01*
X58550Y-315480D01*
X59860Y-316940D01*
G01X86560Y-330070D02*
X88310Y-331530D01*
X90280Y-332400D01*
X92020D01*
X93770Y-331530D01*
X95080Y-330070D01*
X95740Y-328020D01*
X95300Y-325980D01*
X94210Y-324230D01*
X92240Y-323070D01*
X89620Y-322480D01*
X88090Y-321320D01*
X87440Y-319280D01*
X87880Y-317230D01*
X88970Y-315780D01*
X90490Y-314900D01*
X92020D01*
X93550Y-315480D01*
X94860Y-316940D01*
G01X113020Y-332400D02*
X104280D01*
Y-314900D01*
X113020D01*
G01X109520Y-323360D02*
X104280D01*
G01X120470Y-332400D02*
Y-314900D01*
X126150Y-329480D01*
X131830Y-314900D01*
Y-332400D01*
G01X141030Y-314900D02*
X146270D01*
G01X143650D02*
Y-332400D01*
G01X141030D02*
X146270D01*
G01X165950Y-316360D02*
X164640Y-315480D01*
X163120Y-314900D01*
X161370D01*
X159400Y-315780D01*
X157880Y-317230D01*
X156780Y-318980D01*
X155910Y-321900D01*
X155690Y-324530D01*
X156130Y-327150D01*
X156780Y-328900D01*
X158090Y-330650D01*
X159620Y-331820D01*
X161150Y-332400D01*
X162680D01*
X164210Y-331820D01*
X165520Y-330940D01*
X166610Y-329780D01*
G01X178650Y-332400D02*
X176900Y-332110D01*
X175380Y-330940D01*
X174060Y-329190D01*
X173190Y-327150D01*
X172750Y-324820D01*
Y-322480D01*
X173190Y-320150D01*
X174060Y-318110D01*
X175380Y-316360D01*
X176900Y-315190D01*
X178650Y-314900D01*
X180400Y-315190D01*
X181920Y-316360D01*
X183240Y-318110D01*
X184110Y-320150D01*
X184550Y-322480D01*
Y-324820D01*
X184110Y-327150D01*
X183240Y-329190D01*
X181920Y-330940D01*
X180400Y-332110D01*
X178650Y-332400D01*
G01X191130D02*
Y-314900D01*
X201170Y-332400D01*
Y-314900D01*
G01X208850Y-332400D02*
Y-314900D01*
X213210D01*
X214960Y-315780D01*
X216270Y-316940D01*
X217360Y-318690D01*
X218240Y-320730D01*
X218450Y-323650D01*
X218240Y-326570D01*
X217360Y-328610D01*
X216270Y-330360D01*
X214960Y-331530D01*
X213210Y-332400D01*
X208850D01*
G01X226350Y-314900D02*
Y-327440D01*
X227220Y-330070D01*
X228970Y-331820D01*
X231150Y-332400D01*
X233330Y-331820D01*
X235080Y-330070D01*
X235950Y-327440D01*
Y-314900D01*
G01X253450Y-316360D02*
X252140Y-315480D01*
X250620Y-314900D01*
X248870D01*
X246900Y-315780D01*
X245380Y-317230D01*
X244280Y-318980D01*
X243410Y-321900D01*
X243190Y-324530D01*
X243630Y-327150D01*
X244280Y-328900D01*
X245590Y-330650D01*
X247120Y-331820D01*
X248650Y-332400D01*
X250180D01*
X251710Y-331820D01*
X253020Y-330940D01*
X254110Y-329780D01*
G01X266150Y-314900D02*
Y-332400D01*
G01X261130Y-314900D02*
X271170D01*
G01X283650Y-332400D02*
X281900Y-332110D01*
X280380Y-330940D01*
X279060Y-329190D01*
X278190Y-327150D01*
X277750Y-324820D01*
Y-322480D01*
X278190Y-320150D01*
X279060Y-318110D01*
X280380Y-316360D01*
X281900Y-315190D01*
X283650Y-314900D01*
X285400Y-315190D01*
X286920Y-316360D01*
X288240Y-318110D01*
X289110Y-320150D01*
X289550Y-322480D01*
Y-324820D01*
X289110Y-327150D01*
X288240Y-329190D01*
X286920Y-330940D01*
X285400Y-332110D01*
X283650Y-332400D01*
G01X296780D02*
Y-314900D01*
X302240D01*
X303990Y-315780D01*
X305080Y-316940D01*
X305520Y-319280D01*
X305080Y-321610D01*
X303770Y-323070D01*
X302240Y-323940D01*
X296780D01*
G01X302240D02*
X305520Y-332400D01*
G01X332000Y-317820D02*
X333310Y-316070D01*
X334840Y-315190D01*
X336590Y-314900D01*
X338770Y-315480D01*
X340300Y-316940D01*
X340740Y-318690D01*
X340520Y-320440D01*
X339640Y-321900D01*
X335280Y-324820D01*
X333310Y-326860D01*
X332000Y-329780D01*
X331560Y-332400D01*
X340740D01*
G01X353650Y-314900D02*
X351900Y-315480D01*
X350590Y-316940D01*
X349720Y-318690D01*
X349060Y-321030D01*
X348850Y-323650D01*
X349060Y-326280D01*
X349720Y-328610D01*
X350590Y-330360D01*
X351900Y-331820D01*
X353650Y-332400D01*
X355400Y-331820D01*
X356710Y-330360D01*
X357580Y-328610D01*
X358240Y-326280D01*
X358450Y-323650D01*
X358240Y-321030D01*
X357580Y-318690D01*
X356710Y-316940D01*
X355400Y-315480D01*
X353650Y-314900D01*
G01X371150D02*
X369400Y-315480D01*
X368090Y-316940D01*
X367220Y-318690D01*
X366560Y-321030D01*
X366350Y-323650D01*
X366560Y-326280D01*
X367220Y-328610D01*
X368090Y-330360D01*
X369400Y-331820D01*
X371150Y-332400D01*
X372900Y-331820D01*
X374210Y-330360D01*
X375080Y-328610D01*
X375740Y-326280D01*
X375950Y-323650D01*
X375740Y-321030D01*
X375080Y-318690D01*
X374210Y-316940D01*
X372900Y-315480D01*
X371150Y-314900D01*
G01X391270Y-332400D02*
Y-314900D01*
X383190Y-327440D01*
X394110D01*
G01X432500Y-250000D02*
G03I-7500J0D01*
G01X437500D02*
G03I-12500J0D01*
G01X425000Y-230000D02*
Y-270000D01*
G01X405000Y-250000D02*
X445000D01*
G01X-437900Y-548700D02*
Y899500D01*
X1269900D01*
Y-548700D01*
X-437900D01*
G54D15*
X-50000Y-105000D03*
X-60000D03*
X-52500Y-47500D03*
X-62500D03*
X-52500Y15000D03*
X-62500D03*
X-52500Y75000D03*
X-62500D03*
X-40000Y-105000D03*
X-42500Y-47500D03*
Y15000D03*
Y75000D03*
X-23800Y321300D03*
Y341300D03*
Y331300D03*
Y351300D03*
X-7000Y-62500D03*
Y-52500D03*
Y-42500D03*
X-13800Y321300D03*
Y341300D03*
Y331300D03*
Y351300D03*
X17500Y-52500D03*
Y-62500D03*
Y-42500D03*
X42500Y-62500D03*
Y-52500D03*
Y-42500D03*
X37500Y438500D03*
X47500D03*
X92500Y-62500D03*
Y-52500D03*
X67500Y-62500D03*
Y-52500D03*
X92500Y-42500D03*
X67500D03*
X92100Y367100D03*
X82100D03*
X117500Y-62500D03*
Y-52500D03*
Y-42500D03*
X142500Y-62500D03*
Y-52500D03*
Y-42500D03*
G54D24*
X190300Y118300D03*
X182700D03*
X228900Y207000D03*
X221300D03*
X249600Y171900D03*
X257200D03*
G54D25*
X279800Y-15000D03*
Y-10000D03*
Y-5000D03*
Y0D03*
Y5000D03*
Y10000D03*
Y15000D03*
Y315000D03*
Y320000D03*
Y325000D03*
Y330000D03*
Y335000D03*
Y340000D03*
Y345000D03*
X300200Y5000D03*
Y0D03*
Y-5000D03*
Y-10000D03*
Y-15000D03*
Y15000D03*
Y10000D03*
Y315000D03*
Y345000D03*
Y340000D03*
Y335000D03*
Y330000D03*
Y325000D03*
Y320000D03*
G54D16*
X-37400Y-173600D03*
Y-149200D03*
X-13000Y-173600D03*
Y-149200D03*
G54D17*
X7100Y253900D03*
X18100D03*
X61200Y212200D03*
X50200D03*
X87000Y187000D03*
X76000D03*
X82800Y300100D03*
X110100Y274800D03*
X93800Y300100D03*
X144900Y114300D03*
X142800Y141200D03*
X127100Y236800D03*
X138100D03*
X121100Y274800D03*
X155900Y114300D03*
X153800Y141200D03*
X268400Y150400D03*
X279400D03*
X288100Y136600D03*
X271900Y206700D03*
X282900D03*
X289400Y192900D03*
X299100Y136600D03*
X300400Y192900D03*
G54D26*
X330000Y-117500D03*
Y-107500D03*
Y-37500D03*
Y-27500D03*
Y42500D03*
Y52500D03*
Y122500D03*
Y132500D03*
Y202500D03*
Y212500D03*
Y282500D03*
Y292500D03*
Y362500D03*
Y372500D03*
Y442500D03*
Y452500D03*
G54D18*
X10000Y-188200D03*
X21000D03*
X10000Y-184500D03*
Y-180800D03*
X21000D03*
X10000Y-172300D03*
Y-168600D03*
Y-164900D03*
X21000D03*
Y-172300D03*
X10100Y-156400D03*
Y-152700D03*
Y-149000D03*
X21100D03*
Y-156400D03*
G54D27*
X350000Y-137500D03*
Y-97500D03*
Y-57500D03*
Y-17500D03*
Y22500D03*
Y62500D03*
Y102500D03*
Y142500D03*
Y182500D03*
Y222500D03*
Y262500D03*
Y302500D03*
Y342500D03*
Y382500D03*
Y422500D03*
Y462500D03*
G54D28*
G01X223160Y-187900D02*
Y-175400D01*
X220060D01*
X218820Y-176030D01*
X217890Y-176860D01*
X217110Y-178110D01*
X216490Y-179570D01*
X216340Y-181650D01*
X216490Y-183730D01*
X217110Y-185190D01*
X217890Y-186440D01*
X218820Y-187280D01*
X220060Y-187900D01*
X223160D01*
G01X210610Y-186230D02*
X209360Y-187280D01*
X207970Y-187900D01*
X206730D01*
X205490Y-187280D01*
X204560Y-186230D01*
X204090Y-184770D01*
X204400Y-183320D01*
X205180Y-182070D01*
X206580Y-181230D01*
X208430Y-180820D01*
X209520Y-179980D01*
X209990Y-178530D01*
X209670Y-177070D01*
X208900Y-176030D01*
X207820Y-175400D01*
X206730D01*
X205640Y-175820D01*
X204710Y-176860D01*
G01X198360Y-185400D02*
X197430Y-186860D01*
X196190Y-187690D01*
X194790Y-187900D01*
X193550Y-187690D01*
X192310Y-186650D01*
X191540Y-185400D01*
X191390Y-184150D01*
X191690Y-182690D01*
X192780Y-181650D01*
X193870Y-181230D01*
X195260D01*
G01X193870D02*
X192940Y-180610D01*
X192160Y-179570D01*
X191850Y-178320D01*
X192160Y-177070D01*
X192940Y-176030D01*
X194330Y-175400D01*
X195720Y-175610D01*
X197120Y-176440D01*
G01X185500Y-177480D02*
X184560Y-176230D01*
X183480Y-175610D01*
X182240Y-175400D01*
X180690Y-175820D01*
X179600Y-176860D01*
X179290Y-178110D01*
X179450Y-179360D01*
X180070Y-180400D01*
X183170Y-182480D01*
X184560Y-183940D01*
X185500Y-186030D01*
X185810Y-187900D01*
X179290D01*
G01X173560Y-186030D02*
X172630Y-187070D01*
X171550Y-187690D01*
X170150Y-187900D01*
X168750Y-187480D01*
X167670Y-186650D01*
X166890Y-185190D01*
X166740Y-183530D01*
X167050Y-181860D01*
X167830Y-180820D01*
X168910Y-179980D01*
X169990Y-179780D01*
X171080Y-179980D01*
X172470Y-180820D01*
X172010Y-175400D01*
X167830D01*
G01X155890Y-187900D02*
Y-175400D01*
X161630Y-184360D01*
X153870D01*
G01X148760Y-187900D02*
Y-175400D01*
X145660D01*
X144420Y-176030D01*
X143490Y-176860D01*
X142710Y-178110D01*
X142090Y-179570D01*
X141940Y-181650D01*
X142090Y-183730D01*
X142710Y-185190D01*
X143490Y-186440D01*
X144420Y-187280D01*
X145660Y-187900D01*
X148760D01*
G01X136360D02*
Y-175400D01*
G01X130470D02*
X136360Y-183110D01*
G01X129540Y-187900D02*
X133720Y-179570D01*
G01X120550Y-175400D02*
X121790Y-175820D01*
X122720Y-176860D01*
X123340Y-178110D01*
X123810Y-179780D01*
X123960Y-181650D01*
X123810Y-183530D01*
X123340Y-185190D01*
X122720Y-186440D01*
X121790Y-187480D01*
X120550Y-187900D01*
X119310Y-187480D01*
X118380Y-186440D01*
X117760Y-185190D01*
X117290Y-183530D01*
X117140Y-181650D01*
X117290Y-179780D01*
X117760Y-178110D01*
X118380Y-176860D01*
X119310Y-175820D01*
X120550Y-175400D01*
G01X108150Y-187900D02*
Y-175400D01*
X110010Y-177900D01*
G01Y-187900D02*
X106290D01*
G01X99630D02*
X95750Y-175400D01*
X91870Y-187900D01*
G01X93270Y-183530D02*
X98230D01*
G01X83350Y-175400D02*
X84590Y-175820D01*
X85520Y-176860D01*
X86140Y-178110D01*
X86610Y-179780D01*
X86760Y-181650D01*
X86610Y-183530D01*
X86140Y-185190D01*
X85520Y-186440D01*
X84590Y-187480D01*
X83350Y-187900D01*
X82110Y-187480D01*
X81180Y-186440D01*
X80560Y-185190D01*
X80090Y-183530D01*
X79940Y-181650D01*
X80090Y-179780D01*
X80560Y-178110D01*
X81180Y-176860D01*
X82110Y-175820D01*
X83350Y-175400D01*
G54D19*
X32350Y-182600D03*
Y-166800D03*
X32450Y-150900D03*
X39850Y-182600D03*
Y-166800D03*
X39950Y-150900D03*
X71850Y122600D03*
X79350D03*
X81250Y222500D03*
X88750D03*
Y242500D03*
X81250D03*
X116250Y82500D03*
X103750Y92500D03*
X96250D03*
X116250Y102500D03*
X103750Y112500D03*
X96250D03*
X103750Y132500D03*
X96250D03*
X116250Y142500D03*
X108750Y192500D03*
X101250D03*
Y232500D03*
X108750D03*
Y212500D03*
X101250D03*
X118650Y260800D03*
X143850Y68900D03*
X136350D03*
X123750Y82500D03*
Y102500D03*
X142050Y126900D03*
X134550D03*
X123750Y142500D03*
X129050Y188100D03*
X121550D03*
X126150Y260800D03*
X257850Y-25100D03*
X265350D03*
X276750Y29600D03*
X284250D03*
X311250Y-80000D03*
Y-95000D03*
Y-65000D03*
Y85000D03*
Y70000D03*
Y100000D03*
Y235000D03*
Y250000D03*
Y265000D03*
Y405000D03*
Y390000D03*
Y420000D03*
X318750Y-80000D03*
Y-95000D03*
Y-65000D03*
X318250Y-10400D03*
X325750D03*
X317850Y12600D03*
X325350D03*
X318750Y85000D03*
Y70000D03*
Y100000D03*
Y235000D03*
Y250000D03*
Y265000D03*
Y405000D03*
Y390000D03*
Y420000D03*
G54D29*
G01X81250Y242500D02*
X-14100D01*
G01X10000Y-168600D02*
X9900Y-168500D01*
G01X25300Y-188200D02*
X21000D01*
G01X25300Y-172300D02*
X21000D01*
G01X5700Y-180800D02*
X10000D01*
G01X5700Y-164900D02*
X10000D01*
G01X12400Y-156400D02*
X12200Y-156200D01*
X12000Y-156400D01*
G01X10100D02*
X10200Y-156500D01*
X11900D01*
X12000Y-156400D01*
G01D02*
X12400D01*
G01X25400D02*
X21100D01*
G01X14400Y-149000D02*
X10100D01*
G01X25500Y224500D02*
X66200D01*
X70500Y228800D01*
X87000D01*
X88750Y227050D01*
Y222500D01*
G01X60000Y483750D02*
Y439100D01*
X114700Y384400D01*
X121900D01*
X122600Y385100D01*
X125800D01*
G01X60000Y491250D02*
Y495600D01*
G01X84600Y122700D02*
Y90700D01*
X98300Y77000D01*
X147200D01*
X151800Y72400D01*
Y-36000D01*
X157500Y-41700D01*
G01X79350Y122600D02*
X79450Y122700D01*
X84600D01*
G01X81250Y222500D02*
Y218450D01*
X82400Y217300D01*
X120000D01*
X124500Y221800D01*
X182700D01*
X186600Y225700D01*
X203900D01*
X206700Y222900D01*
Y218300D01*
G01X88750Y242500D02*
X88950Y242700D01*
X109300D01*
G01X145600Y319800D02*
X125000D01*
X118800Y326000D01*
X87300D01*
X82100Y331200D01*
Y367100D01*
G01X95950Y92200D02*
X96250Y92500D01*
G01X103750D02*
X123000D01*
G01X96150Y112400D02*
X96250Y112500D01*
G01X96150Y132400D02*
X96250Y132500D01*
G01X113900Y196000D02*
Y206900D01*
X108750Y212050D01*
Y212500D01*
G01Y192500D02*
X113100D01*
G01X101250Y187700D02*
X101300D01*
G01X108750Y232500D02*
X109050Y232200D01*
X114400D01*
X120300Y226300D01*
X161900D01*
X163000Y227400D01*
X169200D01*
G01X180800Y224800D02*
X104200D01*
X101250Y227750D01*
Y232500D01*
G01X101150Y212400D02*
X101250Y212500D01*
G01X116700Y267000D02*
X118650Y265050D01*
Y260800D01*
G01X109500Y358500D02*
X133200D01*
G01X100000Y483750D02*
X115850D01*
X136400Y463200D01*
Y416300D01*
X135800Y415700D01*
Y387100D01*
G01X100000Y491250D02*
Y495600D01*
G01X136350Y68900D02*
X132000D01*
G01X123750Y82500D02*
X127400D01*
X131100Y86200D01*
Y100500D01*
G01X123750Y102500D02*
X124450Y103200D01*
X138700D01*
X155200Y86700D01*
Y59100D01*
G01X147200Y126900D02*
X142050D01*
G01X123750Y142500D02*
X128100D01*
X133100Y137500D01*
G01X126150Y260800D02*
Y261050D01*
X130200Y265100D01*
X134400D01*
G01X137500Y311250D02*
Y314700D01*
X136600Y315600D01*
X134600D01*
G01X137500Y303750D02*
Y299400D01*
G01X145600Y319800D02*
X147200Y318200D01*
Y250300D01*
G01X133200Y358500D02*
Y416600D01*
X133800Y417200D01*
Y420700D01*
G01X133200Y358500D02*
X141700Y350000D01*
X152200D01*
X162100Y340100D01*
Y284400D01*
X163200Y283300D01*
X167500D01*
G01X140000Y483750D02*
Y408500D01*
X143700Y404800D01*
Y385100D01*
G01X140000Y491250D02*
Y495600D01*
G01X171700Y160900D02*
X173700Y162900D01*
Y171200D01*
X185500Y183000D01*
X188200D01*
X194200Y189000D01*
X221700D01*
X228700Y196000D01*
Y201900D01*
G01X224100Y194200D02*
X220600Y190700D01*
X193300D01*
X187350Y184750D01*
X184850D01*
X171700Y171600D01*
Y165300D01*
G01X146900Y322900D02*
X150200Y319600D01*
Y250300D01*
G01X167500Y283300D02*
Y283750D01*
G01X173200Y280400D02*
X171700Y281900D01*
X168900D01*
X167500Y283300D01*
G01X200800Y256600D02*
X197900Y259500D01*
X176300D01*
X157500Y278300D01*
Y303750D01*
G01X164600Y315300D02*
X168400Y311500D01*
X175600D01*
X177500Y309600D01*
Y311250D01*
G01X157500Y316000D02*
Y311250D01*
G01X173900Y295900D02*
X168500D01*
X167500Y294900D01*
Y291250D01*
G01X203700Y306700D02*
X206600Y309600D01*
Y316600D01*
X204500Y318700D01*
X173100D01*
X168050Y323750D01*
X167500D01*
G01X165300Y335600D02*
Y332750D01*
X166800Y331250D01*
X167500D01*
G01X180000Y483750D02*
Y424800D01*
X173900Y418700D01*
G01X182300Y167800D02*
X179050Y164550D01*
Y158250D01*
X195200Y142100D01*
X208900D01*
X212200Y138800D01*
X218600D01*
G01X183300Y172600D02*
X185000Y170900D01*
Y165100D01*
X182170Y162270D01*
Y158970D01*
X196240Y144900D01*
X212000D01*
X215000Y141900D01*
G01X199200Y167900D02*
X196700Y165400D01*
Y158320D01*
X204420Y150600D01*
X208700D01*
X209100Y150200D01*
X216980D01*
X218940Y152160D01*
G01X199250Y175780D02*
X201200Y173830D01*
Y167150D01*
X202400Y165950D01*
X204450D01*
X205150Y165250D01*
Y160850D01*
X205100Y160800D01*
Y158100D01*
X211020Y152180D01*
X211040D01*
G01X230800Y156100D02*
X220950Y146250D01*
X206390D01*
X195250Y157390D01*
Y178850D01*
X198300Y181900D01*
X204960D01*
X207140Y179720D01*
G01X207500Y283750D02*
Y283800D01*
X207300Y284000D01*
X202000D01*
G01X187500Y283750D02*
Y278900D01*
X188200Y278200D01*
X190300D01*
G01X192900Y291300D02*
X192850Y291250D01*
X187500D01*
G01X204000Y315600D02*
X201850D01*
X197500Y311250D01*
G01X177500Y303750D02*
Y291600D01*
G01X197500Y303750D02*
Y299400D01*
G01X180000Y491250D02*
Y495600D01*
G01X210700Y-31600D02*
X210800Y-31500D01*
Y59100D01*
G01X230800Y118300D02*
X217200Y104700D01*
Y64840D01*
X211460Y59100D01*
X210800D01*
G01X228800Y217700D02*
X231100D01*
X236500Y212300D01*
Y199700D01*
X232500Y195700D01*
Y188400D01*
X226700Y182600D01*
Y175600D01*
X223000Y171900D01*
G01X224400Y269400D02*
Y219300D01*
X228950Y214750D01*
X231450D01*
X235400Y210800D01*
Y200500D01*
X222300Y187400D01*
X212000D01*
X211100Y186500D01*
Y183600D01*
G01X216800Y230300D02*
X219300Y232800D01*
Y279400D01*
X217400Y281300D01*
Y301700D01*
X217500Y301800D01*
Y303750D01*
G01X214300Y250250D02*
Y254600D01*
G01X241000Y352600D02*
X221900Y333500D01*
Y284300D01*
X222800Y283400D01*
X227500D01*
G01D02*
Y283750D01*
G01X230200Y262900D02*
Y275100D01*
X227500Y277800D01*
Y283400D01*
G01X217500Y311250D02*
Y315600D01*
G01X207500Y323750D02*
X208800Y322450D01*
Y308400D01*
X207500Y307100D01*
G01X227500Y291250D02*
X226800D01*
X224800Y293250D01*
Y301500D01*
G01X207500Y291250D02*
Y296300D01*
G01X218400Y338600D02*
X238800Y359000D01*
X301500D01*
X310700Y349800D01*
Y342600D01*
X308100Y340000D01*
X300200D01*
G01X214400Y331300D02*
X214350Y331250D01*
X207500D01*
G01X254700Y-168900D02*
X249900Y-164100D01*
Y-149900D01*
X239800Y-139800D01*
Y91100D01*
X232600Y98300D01*
G01X264700Y-168900D02*
X259500Y-163700D01*
Y-153600D01*
X249500Y-143600D01*
Y-28200D01*
X248900Y-27600D01*
Y-6800D01*
X249500Y-6200D01*
Y52300D01*
G01X257850Y-25100D02*
X253800D01*
G01X252400Y-31700D02*
X252500Y-31800D01*
X301300D01*
X318250Y-14850D01*
Y-10400D01*
G01X279800Y-10000D02*
X262300D01*
X257200Y-15100D01*
G01X251500Y-17600D02*
X262900D01*
X265350Y-20050D01*
Y-25100D01*
G01X235900Y231500D02*
X238500D01*
X240400Y233400D01*
Y255800D01*
X244100Y259500D01*
Y280700D01*
X247150Y283750D01*
X247500D01*
G01X230600Y250450D02*
Y254800D01*
G01X238400Y234700D02*
Y256800D01*
X242000Y260400D01*
Y299600D01*
X237850Y303750D01*
X237500D01*
G01X247500Y291250D02*
Y296300D01*
G01X237600Y315600D02*
Y311350D01*
X237500Y311250D01*
G01X243200Y335600D02*
Y332350D01*
X244300Y331250D01*
X245000D01*
G01Y323750D02*
X261950D01*
X268500Y317200D01*
Y243500D01*
G01X232500Y483750D02*
Y435800D01*
G01Y491250D02*
Y495600D01*
G01X265350Y-25100D02*
X265450Y-25000D01*
X275100D01*
X279800Y-20300D01*
Y-15000D01*
G01X311250Y70000D02*
X278500D01*
X268200Y59700D01*
Y4100D01*
X272300Y0D01*
X279800D01*
G01X276750Y29600D02*
X270200Y23050D01*
Y7300D01*
X272500Y5000D01*
X279800D01*
G01X266300Y95000D02*
Y900D01*
X272200Y-5000D01*
X279800D01*
G01X284250Y29600D02*
X287700D01*
X288900Y28400D01*
Y26100D01*
G01X279800Y10000D02*
X286300D01*
X291700Y15400D01*
Y34200D01*
X327100Y69600D01*
Y76300D01*
X318750Y84650D01*
Y85000D01*
G01X276750Y29600D02*
Y35550D01*
X273200Y39100D01*
Y56100D01*
X273300Y56200D01*
G01X287300Y21800D02*
X283200D01*
X279800Y18400D01*
Y15000D01*
G01X288100Y136600D02*
X282700D01*
X281200Y138100D01*
Y140000D01*
G01X289000Y162750D02*
X288750Y163000D01*
X284500D01*
G01Y170200D02*
Y170250D01*
X289000D01*
G01X260000Y303750D02*
Y240100D01*
X263000Y237100D01*
G01X318750Y250000D02*
Y255250D01*
X316200Y257800D01*
X308800D01*
X271600Y295000D01*
Y327400D01*
X274200Y330000D01*
X279800D01*
G01Y315000D02*
X276500D01*
X274800Y313300D01*
Y309300D01*
G01X265400Y315900D02*
X265100D01*
X260450Y311250D01*
X260000D01*
G01X302300Y347900D02*
X293100D01*
X285200Y340000D01*
X279800D01*
G01X318750Y420000D02*
X323500D01*
X328200Y415300D01*
Y384500D01*
X325100Y381400D01*
Y322300D01*
X309700Y306900D01*
X300100D01*
X287000Y320000D01*
X279800D01*
G01Y325000D02*
X274300D01*
X273700Y324400D01*
Y322000D01*
G01X279800Y335000D02*
X273000D01*
X269500Y331500D01*
Y320000D01*
G01X300300Y350800D02*
X292400D01*
X286600Y345000D01*
X279800D01*
G01X311250Y-95000D02*
X304100D01*
G01X311250Y-80000D02*
X306900D01*
G01X311250Y-65000D02*
Y-64550D01*
X306000Y-59300D01*
Y-55000D01*
G01X300200Y-15000D02*
X307000D01*
G01X318750Y-80000D02*
Y-79550D01*
X326800Y-71500D01*
Y-56200D01*
X321500Y-50900D01*
Y-23000D01*
X325500Y-19000D01*
X329100D01*
X332700Y-15400D01*
Y-7300D01*
X330400Y-5000D01*
X300200D01*
G01Y5000D02*
X307000D01*
G01X318250Y-10400D02*
X317850Y-10000D01*
X300200D01*
G01X309300Y0D02*
Y8800D01*
X313100Y12600D01*
X317850D01*
G01X300200Y0D02*
X309300D01*
G01X300200Y15000D02*
X311500D01*
X313800Y17300D01*
X329900D01*
X334150Y13050D01*
Y-850D01*
X337300Y-4000D01*
Y-87300D01*
X329600Y-95000D01*
X318750D01*
G01X300200Y10000D02*
X302500D01*
X303400Y10900D01*
X307300D01*
G01X311250Y85000D02*
X306900D01*
G01X311250Y100000D02*
X301200D01*
G01X300200Y315000D02*
X306300D01*
G01X318750Y265000D02*
X318500Y265250D01*
Y299900D01*
X314900Y303500D01*
G01X300200Y335000D02*
X308800D01*
G01X300200Y345000D02*
X307000D01*
G01X318750Y405000D02*
X318800D01*
X326300Y397500D01*
Y388200D01*
X322600Y384500D01*
Y340200D01*
X307400Y325000D01*
X300200D01*
G01Y320000D02*
X306300D01*
G01X300200Y330000D02*
X300300Y330100D01*
X306300D01*
G01X318750Y-65000D02*
X323100D01*
G01X329900Y-10400D02*
X325750D01*
G01X325450Y12700D02*
X325350Y12600D01*
G01X337900Y8200D02*
Y23300D01*
X323300Y37900D01*
Y57500D01*
X329400Y63600D01*
Y94100D01*
X323500Y100000D01*
X318750D01*
G01Y70000D02*
X323100D01*
G01X318750Y235000D02*
X324000D01*
G01X318750Y390000D02*
X323100D01*
M02*
