G04 ================== begin FILE IDENTIFICATION RECORD ==================*
G04 Layout Name:  C:\projects\DS3254DK\worklib\DS3254DK01A0\physical\DS3254DK01A0.brd*
G04 Film Name:    BSM*
G04 File Format:  Gerber RS274X*
G04 File Origin:  -unreleased*
G04 Origin Date:  Mon Sep 20 10:15:44 2004*
G04 ================== end FILE IDENTIFICATION RECORD ====================*
%FSLAX35Y35*MOIN*%
%IR0*IPPOS*OFA0.00000B0.00000*MIA0B0*SFA1.00000B1.00000*%
%ADD11C,.111*%
%ADD10C,.16*%
%ADD27C,.126*%
%ADD14C,.03*%
%ADD18R,.056X.031*%
%ADD25R,.093X.03*%
%ADD21C,.062*%
%ADD13C,.08*%
%ADD12C,.074*%
%ADD15C,.066*%
%ADD26C,.086*%
%ADD23R,.066X.058*%
%ADD19R,.058X.066*%
%ADD16C,.097*%
%ADD24R,.058X.066*%
%ADD20R,.066X.058*%
%ADD22R,.077X.069*%
%ADD17R,.069X.077*%
%ADD28C,.001*%
G75*
%LPD*%
G75*
G36*
G01X74000Y-172300D02*
X229000D01*
Y-191300D01*
X74000D01*
Y-172300D01*
G37*
G54D10*
X-130000Y-180000D03*
Y505000D03*
X-113100Y161700D03*
Y260100D03*
X-80000Y161700D03*
Y260100D03*
X45000Y110000D03*
X355000Y-180000D03*
Y505000D03*
G54D20*
X60000Y483750D03*
Y491250D03*
X100000Y483750D03*
Y491250D03*
X137500Y303750D03*
Y311250D03*
X140000Y483750D03*
Y491250D03*
X167500Y283750D03*
Y291250D03*
X157500Y303750D03*
Y311250D03*
X167500Y323750D03*
Y331250D03*
X187500Y283750D03*
Y291250D03*
X177500Y303750D03*
Y311250D03*
X197500Y303750D03*
Y311250D03*
X180000Y483750D03*
Y491250D03*
X230600Y242950D03*
Y250450D03*
X214300Y242750D03*
Y250250D03*
X207500Y291250D03*
Y283750D03*
X227500D03*
Y291250D03*
X217500Y303750D03*
Y311250D03*
X207500Y323750D03*
Y331250D03*
X232500Y483750D03*
Y491250D03*
X247500Y283750D03*
Y291250D03*
X260000Y311250D03*
Y303750D03*
X237500D03*
Y311250D03*
X245000Y323750D03*
Y331250D03*
X289000Y162750D03*
Y170250D03*
G54D11*
X-130500Y315000D03*
Y390000D03*
Y465000D03*
X-70500Y315000D03*
Y390000D03*
Y465000D03*
G54D12*
X-111000Y-156500D03*
Y-146500D03*
Y-136500D03*
Y-126500D03*
Y-116500D03*
Y-106500D03*
Y-96500D03*
Y-86500D03*
Y-76500D03*
Y-66500D03*
Y-56500D03*
Y-46500D03*
Y-36500D03*
Y-26500D03*
Y-16500D03*
Y-6500D03*
Y3500D03*
Y13500D03*
Y23500D03*
Y33500D03*
Y43500D03*
Y53500D03*
Y63500D03*
Y73500D03*
Y83500D03*
X-119400Y108900D03*
Y134500D03*
X-130500Y426000D03*
X-101000Y-156500D03*
Y-146500D03*
Y-136500D03*
Y-126500D03*
Y-116500D03*
Y-106500D03*
Y-96500D03*
Y-86500D03*
Y-76500D03*
Y-66500D03*
Y-56500D03*
Y-46500D03*
Y-36500D03*
Y-26500D03*
Y-16500D03*
Y-6500D03*
Y3500D03*
Y13500D03*
Y23500D03*
Y33500D03*
Y43500D03*
Y53500D03*
Y63500D03*
Y73500D03*
Y83500D03*
X-101700Y108900D03*
Y134500D03*
X-85600Y194700D03*
Y205500D03*
Y216300D03*
Y227100D03*
X-74400Y189300D03*
Y200100D03*
Y210900D03*
Y221700D03*
Y232500D03*
X-70500Y426000D03*
X-25200Y-161400D03*
X77500Y440000D03*
Y450000D03*
Y460000D03*
X117500Y440000D03*
Y450000D03*
Y460000D03*
X177600Y387500D03*
Y413100D03*
X157500Y440000D03*
Y450000D03*
Y460000D03*
X195300Y387500D03*
Y413100D03*
X197500Y440000D03*
Y450000D03*
Y460000D03*
X234700Y-168900D03*
Y-158900D03*
X244700Y-168900D03*
Y-158900D03*
X254700Y-168900D03*
Y-158900D03*
X264700Y-168900D03*
Y-158900D03*
X274700Y-168900D03*
Y-158900D03*
G54D21*
X66200Y327400D03*
Y346600D03*
X97500Y-145000D03*
Y-115000D03*
X95000Y27500D03*
Y57500D03*
X127500Y-145000D03*
Y-115000D03*
X125000Y27500D03*
Y57500D03*
G54D22*
X135900Y200300D03*
Y211300D03*
X169600Y100100D03*
Y111100D03*
X149800Y207600D03*
Y196600D03*
X196500Y207100D03*
Y218100D03*
X195000Y251900D03*
Y240900D03*
X210100Y85100D03*
Y96100D03*
X249700Y86000D03*
Y97000D03*
X247600Y252400D03*
Y241400D03*
X271200Y115600D03*
Y104600D03*
X271700Y164500D03*
Y175500D03*
G54D13*
X-60000Y-180000D03*
Y505000D03*
X310000Y-180000D03*
G54D23*
X166600Y207400D03*
Y199800D03*
G54D14*
X-53000Y-144900D03*
X-70500Y-145200D03*
X-68500Y-66000D03*
X-58100Y-30200D03*
X-51900Y35400D03*
X-59800Y166900D03*
X-55000Y162300D03*
X-61700Y218600D03*
X-45900Y-80900D03*
X-48100Y198500D03*
X-33500Y248400D03*
X-29000Y243000D03*
X-24100Y277900D03*
X-28500Y283000D03*
X-33800Y310500D03*
Y307600D03*
X-24300Y301600D03*
X-29000Y296500D03*
X-36100Y343100D03*
X-45900Y332100D03*
X-41000Y327500D03*
X-35900Y374000D03*
X-41000Y348000D03*
X-31900Y378500D03*
X-34400Y392600D03*
X-39000Y387500D03*
X-24300Y378400D03*
X-23400Y392700D03*
X-42600Y474400D03*
X-49500Y467400D03*
X-42600Y506400D03*
X-49400Y500000D03*
X5700Y-180800D03*
Y-164900D03*
X5900Y-142000D03*
X1500Y-137000D03*
X-13400Y-129300D03*
X5200Y34600D03*
X-14100Y242500D03*
X2500Y253900D03*
X-4200Y268300D03*
X1000Y263500D03*
X500Y284000D03*
X5900Y279300D03*
X-13000Y287900D03*
X-8500Y283000D03*
X-200Y316300D03*
X-13200Y301600D03*
X-8500Y296500D03*
X-1400Y337600D03*
X-900Y347300D03*
X-1100Y326800D03*
X-8200Y368400D03*
X-16400D03*
X5500Y375000D03*
X-20200Y373900D03*
X5000Y354500D03*
X-750Y403400D03*
X-18700Y387500D03*
X25300Y-188200D03*
Y-172300D03*
X16900Y-141900D03*
X17000Y-132000D03*
X25400Y-156400D03*
X14400Y-149000D03*
X25400Y-130700D03*
X21300Y-126100D03*
X25000Y-101200D03*
X16800Y30000D03*
X9200Y30100D03*
X17000Y39000D03*
X25000Y74000D03*
X25500Y224500D03*
X9800Y225700D03*
X14700Y230900D03*
X7100Y248900D03*
X22500Y253900D03*
X18100Y258900D03*
X10100Y370300D03*
X10200Y359200D03*
X15000Y425500D03*
X13200Y443000D03*
X8900Y438500D03*
X20800Y442900D03*
X25000Y438500D03*
X9900Y485400D03*
X7600Y467500D03*
X7100Y496100D03*
X15500Y512500D03*
X20300Y507500D03*
X11200Y496100D03*
X39800Y-175800D03*
X45300Y-121000D03*
X55300D03*
X55000Y51800D03*
X45000D03*
X37500Y71300D03*
X50000D03*
X50200Y207200D03*
X45700Y212200D03*
X61200Y217100D03*
X50800Y315700D03*
X46000Y311000D03*
X50900Y358900D03*
X46000Y363500D03*
X43850Y402900D03*
X35500Y455000D03*
X40200Y460000D03*
X35500Y469900D03*
X40200Y475000D03*
X60000Y495600D03*
X35500Y495100D03*
X40200Y490000D03*
X75300Y-164600D03*
X65300Y-121000D03*
X75000Y8200D03*
X65000Y51800D03*
X90400Y57500D03*
X75000Y71300D03*
X62500D03*
X67800Y122600D03*
X84600Y122700D03*
X71400Y187000D03*
X76000Y182000D03*
X87000Y192000D03*
X65700Y212200D03*
X78300Y300100D03*
X84000Y499100D03*
X116100Y-166000D03*
X92900Y-115000D03*
X113100Y7500D03*
X92000Y92200D03*
X111200Y82500D03*
Y102500D03*
X91900Y112400D03*
X108100Y132500D03*
X92000Y132400D03*
X111080Y142500D03*
X94000Y164500D03*
X98600Y159600D03*
X109600Y169400D03*
X114200Y164500D03*
X113900Y196000D03*
X113100Y192500D03*
X101300Y187700D03*
X91600Y186100D03*
X97100Y212400D03*
X109300Y242700D03*
X116700Y267000D03*
X110200Y269800D03*
X108200Y319000D03*
X108600Y298900D03*
X104500Y311800D03*
X98400Y297700D03*
X105200Y337400D03*
X98200Y332400D03*
Y329200D03*
X109500Y358500D03*
X114600Y360500D03*
X102600Y347800D03*
X107400Y417600D03*
X107500Y426500D03*
X99800Y417600D03*
X95800Y422000D03*
X111000Y507700D03*
X100000Y495600D03*
X131800Y-166000D03*
X128800Y7500D03*
X132000Y68900D03*
X123000Y92500D03*
X140400Y114300D03*
X145000Y109300D03*
X131100Y100500D03*
X134600Y122200D03*
X133100Y137500D03*
X142800Y136400D03*
X138300Y141200D03*
X120400Y175600D03*
X129200Y181700D03*
X121600Y183900D03*
X141000Y199900D03*
X131300Y217700D03*
X144400Y212000D03*
X129100Y209400D03*
X134400Y215800D03*
X140100Y229700D03*
X144700Y207900D03*
X133900Y260200D03*
X142700Y256400D03*
X134200Y253800D03*
X137700Y249600D03*
X138100Y241700D03*
X125600Y245200D03*
X122300Y249500D03*
X122500Y239100D03*
X126000Y289900D03*
X128100Y285200D03*
X134400Y265100D03*
X125700Y274800D03*
X122100Y299900D03*
X128900Y294700D03*
X134600Y315600D03*
X137500Y299400D03*
X145100Y338900D03*
Y341800D03*
X145600Y319800D03*
X146900Y322900D03*
X134600Y332600D03*
Y335500D03*
Y329200D03*
X122100Y365500D03*
X143700Y385100D03*
X140800Y387100D03*
X125800Y385100D03*
X118800Y387100D03*
X135800D03*
X130800D03*
X145700Y382200D03*
X145800Y419700D03*
X133800Y420700D03*
X124000Y427400D03*
X128200Y423800D03*
X140000Y495600D03*
X157500Y-41700D03*
X155200Y59100D03*
X149000Y68900D03*
X169600Y117500D03*
X174800Y100100D03*
X164500D03*
X160500Y115700D03*
X155900Y119200D03*
X147200Y126900D03*
X171000Y148200D03*
X153900Y136400D03*
X158400Y141200D03*
X154100Y152000D03*
Y163000D03*
X171700Y160900D03*
Y165300D03*
X172600Y190700D03*
X150000Y190200D03*
X170700Y183000D03*
X167000Y179000D03*
X165500Y195700D03*
X162100Y200100D03*
X155100Y215100D03*
X169200Y227400D03*
X154800Y207600D03*
X162000Y206600D03*
X168100Y211400D03*
X147200Y250300D03*
X150200D03*
X173200Y280400D03*
X164600Y315300D03*
X157500Y316000D03*
X173900Y295900D03*
X170000Y342500D03*
X165300Y335600D03*
X151200Y371800D03*
X157900Y371900D03*
X165500Y347600D03*
X173900Y418700D03*
X151000Y507700D03*
X179700Y79100D03*
X194400Y118300D03*
X190300Y113800D03*
X178700Y120400D03*
X178600Y116500D03*
X199200Y140100D03*
X190100Y126900D03*
X202500Y140100D03*
X200400Y133900D03*
X185000Y124300D03*
X195600Y148500D03*
X189400Y142400D03*
X192400Y139500D03*
X190100Y160100D03*
X185000Y158900D03*
X203100Y159900D03*
X203200Y164000D03*
X199300Y163900D03*
X199200Y167900D03*
X182300Y167800D03*
X199200Y171800D03*
X183300Y172600D03*
X199250Y175780D03*
X187200Y162000D03*
X188200Y175900D03*
X203300Y155900D03*
X203180Y171840D03*
X203200Y167910D03*
X199200Y195200D03*
X186800Y180500D03*
X199300Y179700D03*
X192400Y195900D03*
X189000Y193900D03*
X186100Y187000D03*
X203200Y179800D03*
X199100Y202700D03*
X194100Y202500D03*
X177000Y215700D03*
X201600Y215900D03*
X191600Y217800D03*
X195000Y234500D03*
X187500Y214600D03*
X180800Y224800D03*
X200800Y256600D03*
X189900Y251900D03*
X202000Y284000D03*
X185100Y268800D03*
X190300Y278200D03*
X192900Y291300D03*
X177500Y291600D03*
X197500Y299400D03*
X180000Y495600D03*
X210700Y-31600D03*
X210800Y59100D03*
X220000Y70400D03*
X204900Y85100D03*
X227500Y121300D03*
X210000Y102500D03*
X230800Y118300D03*
X223700Y139000D03*
X230800Y148200D03*
X219300Y135100D03*
X222800Y143300D03*
X218600Y138800D03*
X215000Y141900D03*
X211060Y148220D03*
X207100Y148300D03*
X205500Y136800D03*
X222870Y156110D03*
X230760Y167920D03*
X223220Y151820D03*
X230750Y175790D03*
Y171830D03*
X226820Y156110D03*
X230740Y163960D03*
X226810Y160020D03*
X218900Y175800D03*
X226800Y163970D03*
X218940Y152160D03*
Y156110D03*
X211040Y152180D03*
X211000Y159900D03*
X223000Y171900D03*
X230780Y160040D03*
X230800Y156100D03*
X207140Y160040D03*
X207130Y163970D03*
X214800Y163800D03*
X210900Y167700D03*
Y163800D03*
X207000Y167700D03*
X214800Y160000D03*
X219000Y168100D03*
X215100Y171900D03*
X219000D03*
X215200Y175800D03*
X223000Y168100D03*
X215200D03*
X218800Y164200D03*
X222890Y163960D03*
X218930Y160050D03*
X222850Y160040D03*
X226800Y167900D03*
X214980Y156110D03*
X211200Y171800D03*
X211050Y175760D03*
X207120Y171860D03*
X207130Y175780D03*
X207100Y193000D03*
X206400Y196700D03*
X207100Y183700D03*
X230740Y179720D03*
X222890Y183680D03*
X222860Y179680D03*
X211100Y192800D03*
X215900Y198300D03*
X211100Y183600D03*
X211070Y179710D03*
X215300Y183900D03*
X218900Y179700D03*
X219000Y192800D03*
X228700Y201900D03*
X224100Y194200D03*
X226800Y187500D03*
X203700Y203500D03*
X224200Y198800D03*
X210300Y197100D03*
X207140Y179720D03*
X214970Y179770D03*
X216700Y204900D03*
X209400Y215100D03*
X228800Y217700D03*
X216800Y230300D03*
X206700Y218300D03*
X216700Y208800D03*
X214300Y254600D03*
X230600Y254800D03*
X230200Y262900D03*
X212100Y235400D03*
X224400Y269400D03*
X204000Y315600D03*
X217500D03*
X207500Y307100D03*
X203700Y306700D03*
X224800Y301500D03*
X207500Y296300D03*
X218400Y338600D03*
X214400Y331300D03*
X204000Y499100D03*
X244200Y-148200D03*
Y-139600D03*
X232600Y-143800D03*
X236500Y-148000D03*
X253800Y-25100D03*
X252400Y-31700D03*
X257200Y-15100D03*
X251500Y-17600D03*
X249500Y52300D03*
X244600Y85900D03*
X249700Y103400D03*
X232600Y98300D03*
X248900Y123300D03*
X242800Y135900D03*
X242500Y140400D03*
X242700Y144400D03*
X244400Y173700D03*
X242200Y167800D03*
X234680Y171840D03*
X234600Y163800D03*
X242500Y158100D03*
X239800Y156200D03*
X243300Y163400D03*
X240200Y173800D03*
X251200Y167500D03*
X249600Y176400D03*
X257200Y167400D03*
X240800Y179800D03*
X246700Y180300D03*
X242900Y183800D03*
X258600Y206200D03*
X245300Y197600D03*
X241900Y194900D03*
X237000Y194200D03*
X233400Y205600D03*
X240000Y215600D03*
X238400Y234700D03*
X235900Y231500D03*
X233400Y209000D03*
X247500Y235100D03*
X242500Y252400D03*
X237500Y274700D03*
X247500Y296300D03*
X237600Y315600D03*
X243200Y335600D03*
X241000Y352600D03*
X232500Y435800D03*
Y495600D03*
X250000Y508700D03*
X277000Y-105000D03*
X276500Y-80000D03*
Y-55000D03*
X287300Y21800D03*
X273300Y56200D03*
X277000Y61500D03*
X260300Y70500D03*
X277000Y85000D03*
X266200Y104600D03*
X271200Y100000D03*
X266300Y95000D03*
X277700Y109800D03*
X266300Y115600D03*
X271200Y120100D03*
X259900Y123300D03*
X281200Y140000D03*
X266700Y145400D03*
X279500Y155300D03*
X284100Y150400D03*
X284500Y163000D03*
X271600Y159800D03*
X276700Y162600D03*
X284500Y170200D03*
X268400Y155400D03*
X261100Y171900D03*
X266800Y173100D03*
Y177600D03*
X282900Y201700D03*
X287400Y206500D03*
X284700Y192600D03*
X267400Y204600D03*
X263600Y211900D03*
X277500Y225000D03*
X267300Y208200D03*
X263000Y237100D03*
X268500Y243500D03*
X277400Y250000D03*
X277500Y275000D03*
X274800Y309300D03*
X265400Y315900D03*
X273700Y322000D03*
X269500Y320000D03*
X277500Y380000D03*
Y430000D03*
Y405000D03*
X304100Y-95000D03*
X306900Y-80000D03*
X306000Y-55000D03*
X313800Y2700D03*
X307000Y-15000D03*
Y5000D03*
X309300Y0D03*
X288900Y26100D03*
X307300Y10900D03*
X306900Y85000D03*
X301200Y100000D03*
X298000Y141600D03*
X298200Y198000D03*
X306060Y225000D03*
X306850Y250000D03*
X306060Y275000D03*
X306300Y315000D03*
X314900Y303500D03*
X313200Y322700D03*
X308800Y335000D03*
X307000Y345000D03*
X306300Y320000D03*
Y330100D03*
X302300Y347900D03*
X300300Y350800D03*
X301250Y380000D03*
X306850Y405000D03*
X306060Y430000D03*
X323100Y-65000D03*
X329900Y-10400D03*
X337900Y8200D03*
X329500Y2700D03*
X329400Y12700D03*
X323100Y70000D03*
X324000Y235000D03*
X317200Y318200D03*
X324800D03*
X328900Y322700D03*
X323100Y390000D03*
G54D24*
X190300Y118300D03*
X182700D03*
X228900Y207000D03*
X221300D03*
X249600Y171900D03*
X257200D03*
G54D15*
X-50000Y-105000D03*
X-60000D03*
X-52500Y-47500D03*
X-62500D03*
X-52500Y15000D03*
X-62500D03*
X-52500Y75000D03*
X-62500D03*
X-40000Y-105000D03*
X-42500Y-47500D03*
Y15000D03*
Y75000D03*
X-23800Y321300D03*
Y341300D03*
Y331300D03*
Y351300D03*
X-7000Y-62500D03*
Y-52500D03*
Y-42500D03*
X-13800Y321300D03*
Y341300D03*
Y331300D03*
Y351300D03*
X17500Y-52500D03*
Y-62500D03*
Y-42500D03*
X42500Y-62500D03*
Y-52500D03*
Y-42500D03*
X37500Y438500D03*
X47500D03*
X92500Y-62500D03*
Y-52500D03*
X67500Y-62500D03*
Y-52500D03*
X92500Y-42500D03*
X67500D03*
X92100Y367100D03*
X82100D03*
X117500Y-62500D03*
Y-52500D03*
Y-42500D03*
X142500Y-62500D03*
Y-52500D03*
Y-42500D03*
G54D16*
X-37400Y-173600D03*
Y-149200D03*
X-13000Y-173600D03*
Y-149200D03*
G54D25*
X279800Y-15000D03*
Y-10000D03*
Y-5000D03*
Y0D03*
Y5000D03*
Y10000D03*
Y15000D03*
Y315000D03*
Y320000D03*
Y325000D03*
Y330000D03*
Y335000D03*
Y340000D03*
Y345000D03*
X300200Y5000D03*
Y0D03*
Y-5000D03*
Y-10000D03*
Y-15000D03*
Y15000D03*
Y10000D03*
Y315000D03*
Y345000D03*
Y340000D03*
Y335000D03*
Y330000D03*
Y325000D03*
Y320000D03*
G54D17*
X7100Y253900D03*
X18100D03*
X61200Y212200D03*
X50200D03*
X87000Y187000D03*
X76000D03*
X82800Y300100D03*
X110100Y274800D03*
X93800Y300100D03*
X144900Y114300D03*
X142800Y141200D03*
X127100Y236800D03*
X138100D03*
X121100Y274800D03*
X155900Y114300D03*
X153800Y141200D03*
X268400Y150400D03*
X279400D03*
X288100Y136600D03*
X271900Y206700D03*
X282900D03*
X289400Y192900D03*
X299100Y136600D03*
X300400Y192900D03*
G54D26*
X330000Y-117500D03*
Y-107500D03*
Y-37500D03*
Y-27500D03*
Y42500D03*
Y52500D03*
Y122500D03*
Y132500D03*
Y202500D03*
Y212500D03*
Y282500D03*
Y292500D03*
Y362500D03*
Y372500D03*
Y442500D03*
Y452500D03*
G54D18*
X10000Y-188200D03*
X21000D03*
X10000Y-184500D03*
Y-180800D03*
X21000D03*
X10000Y-172300D03*
Y-168600D03*
Y-164900D03*
X21000D03*
Y-172300D03*
X10100Y-156400D03*
Y-152700D03*
Y-149000D03*
X21100D03*
Y-156400D03*
G54D27*
X350000Y-137500D03*
Y-97500D03*
Y-57500D03*
Y-17500D03*
Y22500D03*
Y62500D03*
Y102500D03*
Y142500D03*
Y182500D03*
Y222500D03*
Y262500D03*
Y302500D03*
Y342500D03*
Y382500D03*
Y422500D03*
Y462500D03*
G54D28*
G01X-192500Y-250000D02*
G03I-7500J0D01*
G01X-187500D02*
G03I-12500J0D01*
G01X-200000Y-230000D02*
Y-270000D01*
G01X-220000Y-250000D02*
X-180000D01*
G01X-192500Y575000D02*
G03I-7500J0D01*
G01X-187500D02*
G03I-12500J0D01*
G01X-200000Y595000D02*
Y555000D01*
G01X-220000Y575000D02*
X-180000D01*
G01X-29250Y-391670D02*
X-28380Y-390790D01*
X-27730Y-389330D01*
X-27290Y-387290D01*
X-27730Y-385540D01*
X-28600Y-384380D01*
X-30130Y-383500D01*
X-36020D01*
Y-401000D01*
X-28820D01*
X-27290Y-399830D01*
X-26410Y-398080D01*
X-25980Y-396040D01*
X-26410Y-394000D01*
X-27730Y-392250D01*
X-29250Y-391670D01*
X-36020D01*
G01X-13500Y-401000D02*
X-15250Y-400710D01*
X-16770Y-399540D01*
X-18090Y-397790D01*
X-18960Y-395750D01*
X-19400Y-393420D01*
Y-391080D01*
X-18960Y-388750D01*
X-18090Y-386710D01*
X-16770Y-384960D01*
X-15250Y-383790D01*
X-13500Y-383500D01*
X-11750Y-383790D01*
X-10230Y-384960D01*
X-8910Y-386710D01*
X-8040Y-388750D01*
X-7600Y-391080D01*
Y-393420D01*
X-8040Y-395750D01*
X-8910Y-397790D01*
X-10230Y-399540D01*
X-11750Y-400710D01*
X-13500Y-401000D01*
G01X4000Y-383500D02*
Y-401000D01*
G01X-1020Y-383500D02*
X9020D01*
G01X21500D02*
Y-401000D01*
G01X16480Y-383500D02*
X26520D01*
G01X39000Y-401000D02*
X37250Y-400710D01*
X35730Y-399540D01*
X34410Y-397790D01*
X33540Y-395750D01*
X33100Y-393420D01*
Y-391080D01*
X33540Y-388750D01*
X34410Y-386710D01*
X35730Y-384960D01*
X37250Y-383790D01*
X39000Y-383500D01*
X40750Y-383790D01*
X42270Y-384960D01*
X43590Y-386710D01*
X44460Y-388750D01*
X44900Y-391080D01*
Y-393420D01*
X44460Y-395750D01*
X43590Y-397790D01*
X42270Y-399540D01*
X40750Y-400710D01*
X39000Y-401000D01*
G01X50820D02*
Y-383500D01*
X56500Y-398080D01*
X62180Y-383500D01*
Y-401000D01*
G01X86910Y-398670D02*
X88660Y-400130D01*
X90630Y-401000D01*
X92370D01*
X94120Y-400130D01*
X95430Y-398670D01*
X96090Y-396620D01*
X95650Y-394580D01*
X94560Y-392830D01*
X92590Y-391670D01*
X89970Y-391080D01*
X88440Y-389920D01*
X87790Y-387880D01*
X88230Y-385830D01*
X89320Y-384380D01*
X90840Y-383500D01*
X92370D01*
X93900Y-384080D01*
X95210Y-385540D01*
G01X109000Y-401000D02*
X107250Y-400710D01*
X105730Y-399540D01*
X104410Y-397790D01*
X103540Y-395750D01*
X103100Y-393420D01*
Y-391080D01*
X103540Y-388750D01*
X104410Y-386710D01*
X105730Y-384960D01*
X107250Y-383790D01*
X109000Y-383500D01*
X110750Y-383790D01*
X112270Y-384960D01*
X113590Y-386710D01*
X114460Y-388750D01*
X114900Y-391080D01*
Y-393420D01*
X114460Y-395750D01*
X113590Y-397790D01*
X112270Y-399540D01*
X110750Y-400710D01*
X109000Y-401000D01*
G01X122130Y-383500D02*
Y-401000D01*
X130870D01*
G01X139200D02*
Y-383500D01*
X143560D01*
X145310Y-384380D01*
X146620Y-385540D01*
X147710Y-387290D01*
X148590Y-389330D01*
X148800Y-392250D01*
X148590Y-395170D01*
X147710Y-397210D01*
X146620Y-398960D01*
X145310Y-400130D01*
X143560Y-401000D01*
X139200D01*
G01X165870D02*
X157130D01*
Y-383500D01*
X165870D01*
G01X162370Y-391960D02*
X157130D01*
G01X174630Y-401000D02*
Y-383500D01*
X180090D01*
X181840Y-384380D01*
X182930Y-385540D01*
X183370Y-387880D01*
X182930Y-390210D01*
X181620Y-391670D01*
X180090Y-392540D01*
X174630D01*
G01X180090D02*
X183370Y-401000D01*
G01X190820D02*
Y-383500D01*
X196500Y-398080D01*
X202180Y-383500D01*
Y-401000D01*
G01X208540D02*
X214000Y-383500D01*
X219460Y-401000D01*
G01X217490Y-394880D02*
X210510D01*
G01X226910Y-398670D02*
X228660Y-400130D01*
X230630Y-401000D01*
X232370D01*
X234120Y-400130D01*
X235430Y-398670D01*
X236090Y-396620D01*
X235650Y-394580D01*
X234560Y-392830D01*
X232590Y-391670D01*
X229970Y-391080D01*
X228440Y-389920D01*
X227790Y-387880D01*
X228230Y-385830D01*
X229320Y-384380D01*
X230840Y-383500D01*
X232370D01*
X233900Y-384080D01*
X235210Y-385540D01*
G01X244200Y-401000D02*
Y-383500D01*
G01X252490D02*
X244200Y-394290D01*
G01X253800Y-401000D02*
X247910Y-389330D01*
G01X-36250Y-367000D02*
Y-349500D01*
X-31890D01*
X-30140Y-350380D01*
X-28830Y-351540D01*
X-27740Y-353290D01*
X-26860Y-355330D01*
X-26650Y-358250D01*
X-26860Y-361170D01*
X-27740Y-363210D01*
X-28830Y-364960D01*
X-30140Y-366130D01*
X-31890Y-367000D01*
X-36250D01*
G01X-18540Y-364670D02*
X-16790Y-366130D01*
X-14820Y-367000D01*
X-13080D01*
X-11330Y-366130D01*
X-10020Y-364670D01*
X-9360Y-362620D01*
X-9800Y-360580D01*
X-10890Y-358830D01*
X-12860Y-357670D01*
X-15480Y-357080D01*
X-17010Y-355920D01*
X-17660Y-353880D01*
X-17220Y-351830D01*
X-16130Y-350380D01*
X-14610Y-349500D01*
X-13080D01*
X-11550Y-350080D01*
X-10240Y-351540D01*
G01X-1250Y-363500D02*
X60Y-365540D01*
X1800Y-366710D01*
X3770Y-367000D01*
X5520Y-366710D01*
X7260Y-365250D01*
X8350Y-363500D01*
X8570Y-361750D01*
X8140Y-359710D01*
X6610Y-358250D01*
X5080Y-357670D01*
X3110D01*
G01X5080D02*
X6390Y-356790D01*
X7480Y-355330D01*
X7920Y-353580D01*
X7480Y-351830D01*
X6390Y-350380D01*
X4420Y-349500D01*
X2460Y-349790D01*
X490Y-350960D01*
G01X16900Y-352420D02*
X18210Y-350670D01*
X19740Y-349790D01*
X21490Y-349500D01*
X23670Y-350080D01*
X25200Y-351540D01*
X25640Y-353290D01*
X25420Y-355040D01*
X24540Y-356500D01*
X20180Y-359420D01*
X18210Y-361460D01*
X16900Y-364380D01*
X16460Y-367000D01*
X25640D01*
G01X33750Y-364380D02*
X35060Y-365830D01*
X36580Y-366710D01*
X38550Y-367000D01*
X40520Y-366420D01*
X42040Y-365250D01*
X43140Y-363210D01*
X43350Y-360880D01*
X42920Y-358540D01*
X41820Y-357080D01*
X40300Y-355920D01*
X38770Y-355630D01*
X37240Y-355920D01*
X35280Y-357080D01*
X35930Y-349500D01*
X41820D01*
G01X58670Y-367000D02*
Y-349500D01*
X50590Y-362040D01*
X61510D01*
G01X68750Y-367000D02*
Y-349500D01*
X73110D01*
X74860Y-350380D01*
X76170Y-351540D01*
X77260Y-353290D01*
X78140Y-355330D01*
X78350Y-358250D01*
X78140Y-361170D01*
X77260Y-363210D01*
X76170Y-364960D01*
X74860Y-366130D01*
X73110Y-367000D01*
X68750D01*
G01X86250D02*
Y-349500D01*
G01X94540D02*
X86250Y-360290D01*
G01X95850Y-367000D02*
X89960Y-355330D01*
G01X108550Y-349500D02*
X106800Y-350080D01*
X105490Y-351540D01*
X104620Y-353290D01*
X103960Y-355630D01*
X103750Y-358250D01*
X103960Y-360880D01*
X104620Y-363210D01*
X105490Y-364960D01*
X106800Y-366420D01*
X108550Y-367000D01*
X110300Y-366420D01*
X111610Y-364960D01*
X112480Y-363210D01*
X113140Y-360880D01*
X113350Y-358250D01*
X113140Y-355630D01*
X112480Y-353290D01*
X111610Y-351540D01*
X110300Y-350080D01*
X108550Y-349500D01*
G01X126050Y-367000D02*
Y-349500D01*
X123430Y-353000D01*
G01Y-367000D02*
X128670D01*
G01X138090D02*
X143550Y-349500D01*
X149010Y-367000D01*
G01X147040Y-360880D02*
X140060D01*
G01X161050Y-349500D02*
X159300Y-350080D01*
X157990Y-351540D01*
X157120Y-353290D01*
X156460Y-355630D01*
X156250Y-358250D01*
X156460Y-360880D01*
X157120Y-363210D01*
X157990Y-364960D01*
X159300Y-366420D01*
X161050Y-367000D01*
X162800Y-366420D01*
X164110Y-364960D01*
X164980Y-363210D01*
X165640Y-360880D01*
X165850Y-358250D01*
X165640Y-355630D01*
X164980Y-353290D01*
X164110Y-351540D01*
X162800Y-350080D01*
X161050Y-349500D01*
G01X-36150Y-332400D02*
Y-314900D01*
X-31790D01*
X-30040Y-315780D01*
X-28730Y-316940D01*
X-27640Y-318690D01*
X-26760Y-320730D01*
X-26550Y-323650D01*
X-26760Y-326570D01*
X-27640Y-328610D01*
X-28730Y-330360D01*
X-30040Y-331530D01*
X-31790Y-332400D01*
X-36150D01*
G01X-19310D02*
X-13850Y-314900D01*
X-8390Y-332400D01*
G01X-10360Y-326280D02*
X-17340D01*
G01X-720Y-314900D02*
Y-332400D01*
X8020D01*
G01X16780Y-314900D02*
Y-332400D01*
X25520D01*
G01X33190D02*
X38650Y-314900D01*
X44110Y-332400D01*
G01X42140Y-326280D02*
X35160D01*
G01X51560Y-330070D02*
X53310Y-331530D01*
X55280Y-332400D01*
X57020D01*
X58770Y-331530D01*
X60080Y-330070D01*
X60740Y-328020D01*
X60300Y-325980D01*
X59210Y-324230D01*
X57240Y-323070D01*
X54620Y-322480D01*
X53090Y-321320D01*
X52440Y-319280D01*
X52880Y-317230D01*
X53970Y-315780D01*
X55490Y-314900D01*
X57020D01*
X58550Y-315480D01*
X59860Y-316940D01*
G01X86560Y-330070D02*
X88310Y-331530D01*
X90280Y-332400D01*
X92020D01*
X93770Y-331530D01*
X95080Y-330070D01*
X95740Y-328020D01*
X95300Y-325980D01*
X94210Y-324230D01*
X92240Y-323070D01*
X89620Y-322480D01*
X88090Y-321320D01*
X87440Y-319280D01*
X87880Y-317230D01*
X88970Y-315780D01*
X90490Y-314900D01*
X92020D01*
X93550Y-315480D01*
X94860Y-316940D01*
G01X113020Y-332400D02*
X104280D01*
Y-314900D01*
X113020D01*
G01X109520Y-323360D02*
X104280D01*
G01X120470Y-332400D02*
Y-314900D01*
X126150Y-329480D01*
X131830Y-314900D01*
Y-332400D01*
G01X141030Y-314900D02*
X146270D01*
G01X143650D02*
Y-332400D01*
G01X141030D02*
X146270D01*
G01X165950Y-316360D02*
X164640Y-315480D01*
X163120Y-314900D01*
X161370D01*
X159400Y-315780D01*
X157880Y-317230D01*
X156780Y-318980D01*
X155910Y-321900D01*
X155690Y-324530D01*
X156130Y-327150D01*
X156780Y-328900D01*
X158090Y-330650D01*
X159620Y-331820D01*
X161150Y-332400D01*
X162680D01*
X164210Y-331820D01*
X165520Y-330940D01*
X166610Y-329780D01*
G01X178650Y-332400D02*
X176900Y-332110D01*
X175380Y-330940D01*
X174060Y-329190D01*
X173190Y-327150D01*
X172750Y-324820D01*
Y-322480D01*
X173190Y-320150D01*
X174060Y-318110D01*
X175380Y-316360D01*
X176900Y-315190D01*
X178650Y-314900D01*
X180400Y-315190D01*
X181920Y-316360D01*
X183240Y-318110D01*
X184110Y-320150D01*
X184550Y-322480D01*
Y-324820D01*
X184110Y-327150D01*
X183240Y-329190D01*
X181920Y-330940D01*
X180400Y-332110D01*
X178650Y-332400D01*
G01X191130D02*
Y-314900D01*
X201170Y-332400D01*
Y-314900D01*
G01X208850Y-332400D02*
Y-314900D01*
X213210D01*
X214960Y-315780D01*
X216270Y-316940D01*
X217360Y-318690D01*
X218240Y-320730D01*
X218450Y-323650D01*
X218240Y-326570D01*
X217360Y-328610D01*
X216270Y-330360D01*
X214960Y-331530D01*
X213210Y-332400D01*
X208850D01*
G01X226350Y-314900D02*
Y-327440D01*
X227220Y-330070D01*
X228970Y-331820D01*
X231150Y-332400D01*
X233330Y-331820D01*
X235080Y-330070D01*
X235950Y-327440D01*
Y-314900D01*
G01X253450Y-316360D02*
X252140Y-315480D01*
X250620Y-314900D01*
X248870D01*
X246900Y-315780D01*
X245380Y-317230D01*
X244280Y-318980D01*
X243410Y-321900D01*
X243190Y-324530D01*
X243630Y-327150D01*
X244280Y-328900D01*
X245590Y-330650D01*
X247120Y-331820D01*
X248650Y-332400D01*
X250180D01*
X251710Y-331820D01*
X253020Y-330940D01*
X254110Y-329780D01*
G01X266150Y-314900D02*
Y-332400D01*
G01X261130Y-314900D02*
X271170D01*
G01X283650Y-332400D02*
X281900Y-332110D01*
X280380Y-330940D01*
X279060Y-329190D01*
X278190Y-327150D01*
X277750Y-324820D01*
Y-322480D01*
X278190Y-320150D01*
X279060Y-318110D01*
X280380Y-316360D01*
X281900Y-315190D01*
X283650Y-314900D01*
X285400Y-315190D01*
X286920Y-316360D01*
X288240Y-318110D01*
X289110Y-320150D01*
X289550Y-322480D01*
Y-324820D01*
X289110Y-327150D01*
X288240Y-329190D01*
X286920Y-330940D01*
X285400Y-332110D01*
X283650Y-332400D01*
G01X296780D02*
Y-314900D01*
X302240D01*
X303990Y-315780D01*
X305080Y-316940D01*
X305520Y-319280D01*
X305080Y-321610D01*
X303770Y-323070D01*
X302240Y-323940D01*
X296780D01*
G01X302240D02*
X305520Y-332400D01*
G01X332000Y-317820D02*
X333310Y-316070D01*
X334840Y-315190D01*
X336590Y-314900D01*
X338770Y-315480D01*
X340300Y-316940D01*
X340740Y-318690D01*
X340520Y-320440D01*
X339640Y-321900D01*
X335280Y-324820D01*
X333310Y-326860D01*
X332000Y-329780D01*
X331560Y-332400D01*
X340740D01*
G01X353650Y-314900D02*
X351900Y-315480D01*
X350590Y-316940D01*
X349720Y-318690D01*
X349060Y-321030D01*
X348850Y-323650D01*
X349060Y-326280D01*
X349720Y-328610D01*
X350590Y-330360D01*
X351900Y-331820D01*
X353650Y-332400D01*
X355400Y-331820D01*
X356710Y-330360D01*
X357580Y-328610D01*
X358240Y-326280D01*
X358450Y-323650D01*
X358240Y-321030D01*
X357580Y-318690D01*
X356710Y-316940D01*
X355400Y-315480D01*
X353650Y-314900D01*
G01X371150D02*
X369400Y-315480D01*
X368090Y-316940D01*
X367220Y-318690D01*
X366560Y-321030D01*
X366350Y-323650D01*
X366560Y-326280D01*
X367220Y-328610D01*
X368090Y-330360D01*
X369400Y-331820D01*
X371150Y-332400D01*
X372900Y-331820D01*
X374210Y-330360D01*
X375080Y-328610D01*
X375740Y-326280D01*
X375950Y-323650D01*
X375740Y-321030D01*
X375080Y-318690D01*
X374210Y-316940D01*
X372900Y-315480D01*
X371150Y-314900D01*
G01X391270Y-332400D02*
Y-314900D01*
X383190Y-327440D01*
X394110D01*
G01X432500Y-250000D02*
G03I-7500J0D01*
G01X437500D02*
G03I-12500J0D01*
G01X425000Y-230000D02*
Y-270000D01*
G01X405000Y-250000D02*
X445000D01*
G01X-437900Y-548700D02*
Y899500D01*
X1269900D01*
Y-548700D01*
X-437900D01*
G54D19*
X32350Y-182600D03*
Y-166800D03*
X32450Y-150900D03*
X39850Y-182600D03*
Y-166800D03*
X39950Y-150900D03*
X71850Y122600D03*
X79350D03*
X81250Y222500D03*
X88750D03*
Y242500D03*
X81250D03*
X116250Y82500D03*
X103750Y92500D03*
X96250D03*
X116250Y102500D03*
X103750Y112500D03*
X96250D03*
X103750Y132500D03*
X96250D03*
X116250Y142500D03*
X108750Y192500D03*
X101250D03*
Y232500D03*
X108750D03*
Y212500D03*
X101250D03*
X118650Y260800D03*
X143850Y68900D03*
X136350D03*
X123750Y82500D03*
Y102500D03*
X142050Y126900D03*
X134550D03*
X123750Y142500D03*
X129050Y188100D03*
X121550D03*
X126150Y260800D03*
X257850Y-25100D03*
X265350D03*
X276750Y29600D03*
X284250D03*
X311250Y-80000D03*
Y-95000D03*
Y-65000D03*
Y85000D03*
Y70000D03*
Y100000D03*
Y235000D03*
Y250000D03*
Y265000D03*
Y405000D03*
Y390000D03*
Y420000D03*
X318750Y-80000D03*
Y-95000D03*
Y-65000D03*
X318250Y-10400D03*
X325750D03*
X317850Y12600D03*
X325350D03*
X318750Y85000D03*
Y70000D03*
Y100000D03*
Y235000D03*
Y250000D03*
Y265000D03*
Y405000D03*
Y390000D03*
Y420000D03*
M02*
