G04 ================== begin FILE IDENTIFICATION RECORD ==================*
G04 Layout Name:  C:\projects\DS3254DK\worklib\DS3254DK01A0\physical\DS3254DK01A0.brd*
G04 Film Name:    L5*
G04 File Format:  Gerber RS274X*
G04 File Origin:  -unreleased*
G04 Origin Date:  Mon Sep 20 10:15:42 2004*
G04 ================== end FILE IDENTIFICATION RECORD ====================*
%FSLAX35Y35*MOIN*%
%IR0*IPPOS*OFA0.00000B0.00000*MIA0B0*SFA1.00000B1.00000*%
%ADD18C,.12*%
%ADD11C,.105*%
%ADD10C,.006*%
%ADD14C,.06*%
%ADD13C,.024*%
%ADD17C,.08*%
%ADD15C,.091*%
%ADD16C,.056*%
%ADD12C,.068*%
%ADD19C,.01*%
%ADD20C,.001*%
%ADD22C,.2002*%
%ADD29C,.1014*%
%ADD25C,.1304*%
%ADD23C,.1154*%
%ADD27C,.0704*%
%ADD21C,.0344*%
%ADD26C,.0904*%
%ADD28C,.0664*%
%ADD24C,.0784*%
G75*
%LPD*%
G75*
G36*
G01X-142490Y-192490D02*
Y517490D01*
X367490D01*
Y-192490D01*
X-142490D01*
G37*
%LPC*%
G75*
G36*
G01X145370Y383890D02*
G02X144240Y383110I331J-1689D01*
G01X144030Y383410D01*
G02X142010Y385430I-331J1689D01*
G01X141710Y385640D01*
G02X142490Y386770I-909J1461D01*
G01X142790Y386560D01*
G02X145160Y384190I910J-1460D01*
G01X145370Y383890D01*
G37*
G36*
G01X302280Y349620D02*
G02X300700Y348530I20J-1720D01*
G03X300320Y349080I-370J150D01*
G02X301900Y350170I-20J1720D01*
G03X302280Y349620I370J-150D01*
G37*
G36*
G01X146350Y340080D02*
G02X143850I-1250J-1180D01*
G03Y340620I-298J270D01*
G02X146350I1250J1180D01*
G03Y340080I298J-270D01*
G37*
G36*
G01X135630Y330580D02*
G02X133570I-1030J-1379D01*
G03Y331220I-240J320D01*
G02X133350Y333780I1030J1378D01*
G03Y334320I-298J270D01*
G02X135850I1250J1180D01*
G03Y333780I298J-270D01*
G02X135630Y331220I-1250J-1182D01*
G03Y330580I240J-320D01*
G37*
G36*
G01X99330Y330500D02*
G02X97070I-1130J-1299D01*
G03Y331100I-262J300D01*
G02X99330I1130J1299D01*
G03Y330500I262J-300D01*
G37*
G36*
G01X147090Y320650D02*
G02X145160Y321460I-1492J-851D01*
G03X145410Y322050I-98J390D01*
G02X147340Y321240I1492J851D01*
G03X147090Y320650I98J-390D01*
G37*
G36*
G01X205320Y306120D02*
G02X205160Y307600I-1620J574D01*
G03X205880Y307680I341J210D01*
G02X206040Y306200I1620J-574D01*
G03X205320Y306120I-341J-210D01*
G37*
G36*
G01X148420Y249080D02*
G02Y251520I-1217J1220D01*
G03X148980I280J282D01*
G02Y249080I1217J-1220D01*
G03X148420I-280J-282D01*
G37*
G36*
G01X277620Y111520D02*
G02X276140Y110530I79J-1720D01*
G01X276190Y110630D01*
X275890Y111100D01*
X154260D01*
X7600Y257760D01*
Y272200D01*
X-20300D01*
Y319040D01*
X-20930Y319260D01*
X-21020Y319150D01*
G02Y323450I-2782J2150D01*
G01X-20930Y323340D01*
X-20300Y323560D01*
Y329040D01*
X-20930Y329260D01*
X-21020Y329150D01*
G02Y333450I-2782J2150D01*
G01X-20930Y333340D01*
X-20300Y333560D01*
Y339040D01*
X-20930Y339260D01*
X-21020Y339150D01*
G02Y343450I-2782J2150D01*
G01X-20930Y343340D01*
X-20300Y343560D01*
Y349040D01*
X-20930Y349260D01*
X-21020Y349150D01*
G02Y353450I-2782J2150D01*
G01X-20930Y353340D01*
X-20300Y353560D01*
Y366000D01*
X24540D01*
X62430Y328110D01*
X62990Y328250D01*
X63020Y328360D01*
G02X67160Y324220I3179J-961D01*
G01X67050Y324190D01*
X66910Y323630D01*
X131300Y259240D01*
Y219430D01*
X131480Y219410D01*
G02Y215990I-182J-1710D01*
G01X131300Y215970D01*
Y213200D01*
X143170D01*
X143220Y213250D01*
G02X145580I1180J-1250D01*
G01X145630Y213200D01*
X153740D01*
X153980Y213790D01*
X153880Y213880D01*
G02X156320I1220J1217D01*
G01X156220Y213790D01*
X156460Y213200D01*
X185740D01*
X186040Y213690D01*
X185980Y213790D01*
G02X188960Y213690I1519J809D01*
G01X189260Y213200D01*
X208040D01*
X208280Y213790D01*
X208180Y213880D01*
G02X210620I1220J1217D01*
G01X210520Y213790D01*
X210760Y213200D01*
X262470D01*
X262530Y213240D01*
G02X264670I1070J-1342D01*
G01X264730Y213200D01*
X277200D01*
Y164250D01*
X277330Y164200D01*
G02Y161000I-630J-1600D01*
G01X277200Y160950D01*
Y111830D01*
X277530Y111510D01*
X277620Y111520D01*
G37*
G36*
G01X92040Y59010D02*
G02Y55990I2959J-1510D01*
G03X91440Y56130I-358J-180D01*
G02Y58870I-1040J1370D01*
G03X92040Y59010I242J320D01*
G37*
G36*
G01X94540Y-113490D02*
G02Y-116510I2959J-1510D01*
G03X93940Y-116370I-358J-180D01*
G02Y-113630I-1040J1370D01*
G03X94540Y-113490I242J320D01*
G37*
G54D22*
X355000Y505000D03*
X-130000D03*
X-113100Y260200D03*
X-80000Y260100D03*
X-113200Y161800D03*
X-80000Y161700D03*
X45000Y110000D03*
X355000Y-180000D03*
X-130000D03*
G54D29*
X-13000Y-149200D03*
X-37400D03*
X-13000Y-173600D03*
X-37400D03*
G54D25*
X350000Y462500D03*
Y422500D03*
Y382500D03*
Y342500D03*
Y302500D03*
Y262500D03*
Y222500D03*
Y182500D03*
Y142500D03*
Y102500D03*
Y62500D03*
Y22500D03*
Y-17500D03*
Y-57500D03*
Y-97500D03*
Y-137500D03*
G54D23*
X-70500Y465000D03*
X-130500D03*
X-70500Y390000D03*
X-130500D03*
X-70500Y315000D03*
X-130500D03*
G54D27*
X47500Y438500D03*
X37500D03*
X92100Y367100D03*
X82100D03*
X-42500Y75000D03*
X-52500D03*
X-62500D03*
X-42500Y15000D03*
X-52500D03*
X-62500D03*
X142500Y-42500D03*
X117500D03*
X92500D03*
X67500D03*
X42500D03*
X17500D03*
X-7000D03*
X-42500Y-47500D03*
X-52500D03*
X-62500D03*
X142500Y-52500D03*
X117500D03*
X92500D03*
X67500D03*
X42500D03*
X17500D03*
X-7000D03*
X142500Y-62500D03*
X117500D03*
X92500D03*
X67500D03*
X42500D03*
X17500D03*
X-7000D03*
X-40000Y-105000D03*
X-50000D03*
X-60000D03*
G54D21*
X15500Y512500D03*
X250000Y508700D03*
X20300Y507500D03*
X-42600Y506400D03*
X-49400Y500000D03*
X11200Y496100D03*
X7100D03*
X232500Y495600D03*
X180000D03*
X140000D03*
X100000D03*
X60000D03*
X35500Y495100D03*
X40200Y490000D03*
X9900Y485400D03*
X40200Y475000D03*
X-42600Y474400D03*
X35500Y469900D03*
X7600Y467500D03*
X-49500Y467400D03*
X40200Y460000D03*
X35500Y455000D03*
X20800Y442900D03*
X25000Y438500D03*
X232500Y435800D03*
X306060Y430000D03*
X277500D03*
X128200Y423800D03*
X95800Y422000D03*
X133800Y420700D03*
X145800Y419700D03*
X173900Y418700D03*
X99800Y417600D03*
X306850Y405000D03*
X277500D03*
X43850Y402900D03*
X-23400Y392700D03*
X323100Y390000D03*
X-18700Y387500D03*
X135800Y387100D03*
X130800D03*
X118800D03*
X125800Y385100D03*
X301250Y380000D03*
X277500D03*
X-24300Y378400D03*
X-20200Y373900D03*
X157900Y371900D03*
X151200Y371800D03*
X122100Y365500D03*
X46000Y363500D03*
X114600Y360500D03*
X50900Y358900D03*
X109500Y358500D03*
X241000Y352600D03*
X-41000Y348000D03*
X102600Y347800D03*
X165500Y347600D03*
X307000Y345000D03*
X-36100Y343100D03*
X170000Y342500D03*
X218400Y338600D03*
X105200Y337400D03*
X165300Y335600D03*
X308800Y335000D03*
X-45900Y332100D03*
X214400Y331300D03*
X306300Y330100D03*
X-41000Y327500D03*
X328900Y322700D03*
X273700Y322000D03*
X306300Y320000D03*
X269500D03*
X108200Y319000D03*
X324800Y318200D03*
X265400Y315900D03*
X237600Y315600D03*
X104500Y311800D03*
X274800Y309300D03*
X314900Y303500D03*
X224800Y301500D03*
X122100Y299900D03*
X197500Y299400D03*
X137500D03*
X108600Y298900D03*
X247500Y296300D03*
X207500D03*
X128900Y294700D03*
X177500Y291600D03*
X126000Y289900D03*
X128100Y285200D03*
X202000Y284000D03*
X173200Y280400D03*
X190300Y278200D03*
X306060Y275000D03*
X277500D03*
X237500Y274700D03*
X224400Y269400D03*
X185100Y268800D03*
X230200Y262900D03*
X133900Y260200D03*
X200800Y256600D03*
X142700Y256400D03*
X242500Y252400D03*
X189900Y251900D03*
X306850Y250000D03*
X277400D03*
X-33500Y248400D03*
X268500Y243500D03*
X-29000Y243000D03*
X263000Y237100D03*
X212100Y235400D03*
X247500Y235100D03*
X324000Y235000D03*
X238400Y234700D03*
X195000Y234500D03*
X235900Y231500D03*
X14700Y230900D03*
X216800Y230300D03*
X140100Y229700D03*
X9800Y225700D03*
X306060Y225000D03*
X277500D03*
X180800Y224800D03*
X-61700Y218600D03*
X206700Y218300D03*
X228800Y217700D03*
X177000Y215700D03*
X240000Y215600D03*
X-48100Y198500D03*
X298200Y198000D03*
X284700Y192600D03*
X284500Y170200D03*
X-59800Y166900D03*
X94000Y164500D03*
X284500Y163000D03*
X-55000Y162300D03*
X98600Y159600D03*
X111080Y142500D03*
X298000Y141600D03*
X281200Y140000D03*
X108100Y132500D03*
X92000Y132400D03*
X84600Y122700D03*
X91900Y112400D03*
X249700Y103400D03*
X210000Y102500D03*
X131100Y100500D03*
X174800Y100100D03*
X164500D03*
X301200Y100000D03*
X232600Y98300D03*
X266300Y95000D03*
X123000Y92500D03*
X244600Y85900D03*
X204900Y85100D03*
X306900Y85000D03*
X277000D03*
X179700Y79100D03*
X25000Y74000D03*
X75000Y71300D03*
X62500D03*
X50000D03*
X37500D03*
X260300Y70500D03*
X220000Y70400D03*
X323100Y70000D03*
X149000Y68900D03*
X277000Y61500D03*
X210800Y59100D03*
X155200D03*
X273300Y56200D03*
X249500Y52300D03*
X65000Y51800D03*
X55000D03*
X45000D03*
X5200Y34600D03*
X9200Y30100D03*
X287300Y21800D03*
X307300Y10900D03*
X337900Y8200D03*
X75000D03*
X113100Y7500D03*
X307000Y5000D03*
X329500Y2700D03*
X309300Y0D03*
X257200Y-15100D03*
X251500Y-17600D03*
X210700Y-31600D03*
X252400Y-31700D03*
X157500Y-41700D03*
X306000Y-55000D03*
X276500D03*
X323100Y-65000D03*
X-68500Y-66000D03*
X306900Y-80000D03*
X276500D03*
X304100Y-95000D03*
X25000Y-101200D03*
X277000Y-105000D03*
X65300Y-121000D03*
X55300D03*
X45300D03*
X21300Y-126100D03*
X-13400Y-129300D03*
X25400Y-130700D03*
X1500Y-137000D03*
X5900Y-142000D03*
X232600Y-143800D03*
X-70500Y-145200D03*
X236500Y-148000D03*
X14400Y-149000D03*
X75300Y-164600D03*
X5700Y-164900D03*
X116100Y-166000D03*
X39800Y-175800D03*
X5700Y-180800D03*
G54D26*
X330000Y452500D03*
Y442500D03*
Y372500D03*
Y362500D03*
Y292500D03*
Y282500D03*
Y212500D03*
Y202500D03*
Y132500D03*
Y122500D03*
Y52500D03*
Y42500D03*
Y-27500D03*
Y-37500D03*
Y-107500D03*
Y-117500D03*
G54D28*
X66200Y346600D03*
X125000Y57500D03*
Y27500D03*
X95000D03*
X127500Y-115000D03*
Y-145000D03*
X97500D03*
G54D24*
X197500Y460000D03*
X157500D03*
X117500D03*
X77500D03*
X197500Y450000D03*
X157500D03*
X117500D03*
X77500D03*
X197500Y440000D03*
X157500D03*
X117500D03*
X77500D03*
X-70500Y426000D03*
X-130500D03*
X195300Y413100D03*
X177600D03*
X195300Y387500D03*
X177600D03*
X-74400Y232500D03*
X-85600Y227100D03*
X-74400Y221700D03*
X-85600Y216300D03*
X-74400Y210900D03*
X-85600Y205500D03*
X-74400Y200100D03*
X-85600Y194700D03*
X-74400Y189300D03*
X-101700Y134500D03*
X-119400D03*
X-101700Y108900D03*
X-119400D03*
X-101000Y83500D03*
X-111000D03*
X-101000Y73500D03*
X-111000D03*
X-101000Y63500D03*
X-111000D03*
X-101000Y53500D03*
X-111000D03*
X-101000Y43500D03*
X-111000D03*
X-101000Y33500D03*
X-111000D03*
X-101000Y23500D03*
X-111000D03*
X-101000Y13500D03*
X-111000D03*
X-101000Y3500D03*
X-111000D03*
X-101000Y-6500D03*
X-111000D03*
X-101000Y-16500D03*
X-111000D03*
X-101000Y-26500D03*
X-111000D03*
X-101000Y-36500D03*
X-111000D03*
X-101000Y-46500D03*
X-111000D03*
X-101000Y-56500D03*
X-111000D03*
X-101000Y-66500D03*
X-111000D03*
X-101000Y-76500D03*
X-111000D03*
X-101000Y-86500D03*
X-111000D03*
X-101000Y-96500D03*
X-111000D03*
X-101000Y-106500D03*
X-111000D03*
X-101000Y-116500D03*
X-111000D03*
X-101000Y-126500D03*
X-111000D03*
X-101000Y-136500D03*
X-111000D03*
X-101000Y-146500D03*
X-111000D03*
X-101000Y-156500D03*
X-111000D03*
X274700Y-158900D03*
X264700D03*
X254700D03*
X244700D03*
X234700D03*
X-25200Y-161400D03*
X274700Y-168900D03*
X264700D03*
X254700D03*
X244700D03*
X234700D03*
%LPD*%
G75*
G36*
G01X155500Y114100D02*
X133770Y135830D01*
X133940Y136000D01*
X133960Y136010D01*
G03X134000Y136040I-1010J1388D01*
G03X134710Y136890I-894J1468D01*
G03X132490Y139110I-1609J611D01*
G03X131640Y138400I618J-1604D01*
G03X131610Y138360I1358J-1050D01*
G01X131600Y138340D01*
X131430Y138170D01*
X10600Y259000D01*
Y275200D01*
X-17300D01*
Y319570D01*
X-16980D01*
X-16920Y319470D01*
G03Y323130I3121J1830D01*
G01X-16980Y323030D01*
X-17300D01*
Y329570D01*
X-16980D01*
X-16920Y329470D01*
G03Y333130I3121J1830D01*
G01X-16980Y333030D01*
X-17300D01*
Y339570D01*
X-16980D01*
X-16920Y339470D01*
G03Y343130I3121J1830D01*
G01X-16980Y343030D01*
X-17300D01*
Y349570D01*
X-16980D01*
X-16920Y349470D01*
G03Y353130I3121J1830D01*
G01X-16980Y353030D01*
X-17300D01*
Y363000D01*
X23300D01*
X117290Y269010D01*
X117100Y268680D01*
X116960Y268700D01*
G03X115500Y268230I-258J-1700D01*
G03X115460Y265800I1199J-1235D01*
G03X118230Y266210I1238J1198D01*
G03X118390Y266680I-1530J783D01*
G03X118370Y267400I-1690J313D01*
G01X118350Y267510D01*
X118570Y267730D01*
X128300Y258000D01*
Y210930D01*
X128200Y210870D01*
G03X128520Y207780I898J-1469D01*
G03X129160Y207680I581J1620D01*
G03X130730Y209940I-62J1718D01*
G01X130720Y209970D01*
Y210200D01*
X166870D01*
X166920Y210150D01*
G03X169280I1180J1250D01*
G01X169330Y210200D01*
X231960D01*
Y209940D01*
X231930Y209900D01*
G03X232370Y207620I1469J-899D01*
G02Y206980I-240J-320D01*
G03X234430I1030J-1379D01*
G02Y207620I240J320D01*
G03X234870Y209900I-1029J1381D01*
G01X234840Y209940D01*
Y210200D01*
X263340D01*
X263350D01*
G03X263850I250J1701D01*
G01X263860D01*
X274200D01*
Y114100D01*
X192000D01*
X191960Y114250D01*
G03X188640I-1660J-450D01*
G01X188600Y114100D01*
X155500D01*
G37*
%LPC*%
G75*
G36*
G01X207120Y194720D02*
G02X206460Y194590I-4J-1718D01*
G01X206380Y194980D01*
G02X207040Y195110I4J1718D01*
G01X207120Y194720D01*
G37*
G36*
G01X114050Y193930D02*
G02X112860Y194200I-950J-1431D01*
G01X112950Y194570D01*
G02X114140Y194300I950J1431D01*
G01X114050Y193930D01*
G37*
G36*
G01X216700Y174960D02*
G02Y176640I-1500J840D01*
G03X217400I350J198D01*
G02Y174960I1500J-840D01*
G03X216700I-350J-198D01*
G37*
G36*
G01X223760Y169640D02*
G02X222240I-760J-1541D01*
G03Y170360I-178J360D01*
G02X223760I760J1541D01*
G03Y169640I178J-360D01*
G37*
G36*
G01X216740Y167340D02*
G02X214910Y169800I-1542J764D01*
G01X214900Y170190D01*
G02X215390Y170200I210J1709D01*
G01X215400Y169810D01*
G02X216740Y168860I-204J-1708D01*
G03X217460I360J178D01*
G02X218240Y169640I1541J-761D01*
G03Y170360I-178J360D01*
G02X219760I760J1541D01*
G03Y169640I178J-360D01*
G02X217460Y167340I-758J-1542D01*
G03X216740I-360J-178D01*
G37*
G36*
G01X209410Y164650D02*
G02X209340Y163090I1492J-849D01*
G03X208620Y163120I-368J-166D01*
G02X206670Y165630I-1493J853D01*
G01X206650Y166020D01*
G02X207460Y166040I364J1681D01*
G01X207480Y165650D01*
G02X208690Y164680I-353J-1680D01*
G03X209410Y164650I368J166D01*
G37*
G36*
G01X186510Y159720D02*
G02X185270Y160600I-1513J-818D01*
G03X185690Y161180I65J395D01*
G02X188920Y162060I1511J821D01*
G03X189470Y161700I400J10D01*
G02X188380Y160040I629J-1601D01*
G03X187830Y160400I-400J-10D01*
G02X186930Y160300I-633J1599D01*
G03X186510Y159720I-65J-395D01*
G37*
G36*
G01X241520Y156090D02*
G02X240270Y157850I-1717J105D01*
G03X240780Y158210I109J387D01*
G02X242030Y156450I1717J-105D01*
G03X241520Y156090I-109J-387D01*
G37*
G36*
G01X211250Y157800D02*
G02X210820Y157790I-175J-1710D01*
G01X210810Y158190D01*
G02X212520Y160700I189J1709D01*
G03X213240Y160720I355J188D01*
G02X214040Y161540I1560J-721D01*
G03Y162260I-178J360D01*
G02X215560I760J1541D01*
G03Y161540I178J-360D01*
G02X213280Y159200I-758J-1542D01*
G03X212560Y159180I-355J-188D01*
G02X211240Y158200I-1559J722D01*
G01X211250Y157800D01*
G37*
G36*
G01X200540Y139020D02*
G02Y141180I-1340J1080D01*
G03X201160I310J251D01*
G02Y139020I1340J-1080D01*
G03X200540I-310J-251D01*
G37*
G36*
G01X219320Y136820D02*
G02X218660Y136690I-4J-1718D01*
G01X218580Y137080D01*
G02X219240Y137210I4J1718D01*
G01X219320Y136820D01*
G37*
G54D21*
X50800Y315700D03*
X46000Y311000D03*
X122300Y249500D03*
X125600Y245200D03*
X109300Y242700D03*
X97100Y212400D03*
X144700Y207900D03*
X154800Y207600D03*
X162000Y206600D03*
X258600Y206200D03*
X203700Y203500D03*
X228700Y201900D03*
X224200Y198800D03*
X215900Y198300D03*
X245300Y197600D03*
X210300Y197100D03*
X192400Y195900D03*
X199200Y195200D03*
X241900Y194900D03*
X237000Y194200D03*
X224100D03*
X189000Y193900D03*
X219000Y192800D03*
X211100D03*
X172600Y190700D03*
X150000Y190200D03*
X101300Y187700D03*
X226800Y187500D03*
X186100Y187000D03*
X215300Y183900D03*
X121600D03*
X242900Y183800D03*
X207100Y183700D03*
X222890Y183680D03*
X211100Y183600D03*
X170700Y183000D03*
X129200Y181700D03*
X186800Y180500D03*
X246700Y180300D03*
X240800Y179800D03*
X203200D03*
X230740Y179720D03*
X207140D03*
X211070Y179710D03*
X218900Y179700D03*
X199300D03*
X222860Y179680D03*
X167000Y179000D03*
X249600Y176400D03*
X188200Y175900D03*
X230750Y175790D03*
X199250Y175780D03*
X120400Y175600D03*
X240200Y173800D03*
X244400Y173700D03*
X183300Y172600D03*
X234680Y171840D03*
X203180D03*
X230750Y171830D03*
X199200Y171800D03*
X230760Y167920D03*
X199200Y167900D03*
X242200Y167800D03*
X182300D03*
X210900Y167700D03*
X251200Y167500D03*
X171700Y165300D03*
X203200Y164000D03*
X226800Y163970D03*
X230740Y163960D03*
X199300Y163900D03*
X234600Y163800D03*
X243300Y163400D03*
X154100Y163000D03*
X171700Y160900D03*
X230780Y160040D03*
X207140D03*
X226810Y160020D03*
X203100Y159900D03*
X271600Y159800D03*
X226820Y156110D03*
X222870D03*
X218940D03*
X230800Y156100D03*
X203300Y155900D03*
X211040Y152180D03*
X218940Y152160D03*
X154100Y152000D03*
X223220Y151820D03*
X195600Y148500D03*
X207100Y148300D03*
X211060Y148220D03*
X230800Y148200D03*
X171000D03*
X242700Y144400D03*
X222800Y143300D03*
X189400Y142400D03*
X215000Y141900D03*
X158400Y141200D03*
X242500Y140400D03*
X192400Y139500D03*
X223700Y139000D03*
X205500Y136800D03*
X153900Y136400D03*
X242800Y135900D03*
X200400Y133900D03*
X190100Y126900D03*
X147200D03*
X185000Y124300D03*
X259900Y123300D03*
X248900D03*
X227500Y121300D03*
X230800Y118300D03*
X194400D03*
X169600Y117500D03*
%LPD*%
G75*
G54D10*
X-130000Y-180000D03*
Y505000D03*
X-113100Y161700D03*
Y260100D03*
X-80000Y161700D03*
Y260100D03*
X45000Y110000D03*
X355000Y-180000D03*
Y505000D03*
G54D20*
G01X-192500Y-250000D02*
G03I-7500J0D01*
G01X-187500D02*
G03I-12500J0D01*
G01X-200000Y-230000D02*
Y-270000D01*
G01X-220000Y-250000D02*
X-180000D01*
G01X-192500Y575000D02*
G03I-7500J0D01*
G01X-187500D02*
G03I-12500J0D01*
G01X-200000Y595000D02*
Y555000D01*
G01X-220000Y575000D02*
X-180000D01*
G01X-33620Y-383500D02*
Y-401000D01*
X-24880D01*
G01X-17210D02*
X-11750Y-383500D01*
X-6290Y-401000D01*
G01X-8260Y-394880D02*
X-15240D01*
G01X5750Y-401000D02*
Y-393130D01*
X1380Y-383500D01*
G01X10120D02*
X5750Y-393130D01*
G01X27620Y-401000D02*
X18880D01*
Y-383500D01*
X27620D01*
G01X24120Y-391960D02*
X18880D01*
G01X36380Y-401000D02*
Y-383500D01*
X41840D01*
X43590Y-384380D01*
X44680Y-385540D01*
X45120Y-387880D01*
X44680Y-390210D01*
X43370Y-391670D01*
X41840Y-392540D01*
X36380D01*
G01X41840D02*
X45120Y-401000D01*
G01X70950Y-398380D02*
X72260Y-399830D01*
X73780Y-400710D01*
X75750Y-401000D01*
X77720Y-400420D01*
X79240Y-399250D01*
X80340Y-397210D01*
X80550Y-394880D01*
X80120Y-392540D01*
X79020Y-391080D01*
X77500Y-389920D01*
X75970Y-389630D01*
X74440Y-389920D01*
X72480Y-391080D01*
X73130Y-383500D01*
X79020D01*
G01X105290D02*
X110750Y-401000D01*
X116210Y-383500D01*
G01X123450Y-397500D02*
X124760Y-399540D01*
X126500Y-400710D01*
X128470Y-401000D01*
X130220Y-400710D01*
X131960Y-399250D01*
X133050Y-397500D01*
X133270Y-395750D01*
X132840Y-393710D01*
X131310Y-392250D01*
X129780Y-391670D01*
X127810D01*
G01X129780D02*
X131090Y-390790D01*
X132180Y-389330D01*
X132620Y-387580D01*
X132180Y-385830D01*
X131090Y-384380D01*
X129120Y-383500D01*
X127160Y-383790D01*
X125190Y-384960D01*
G01X145750Y-401580D02*
X145310Y-401290D01*
Y-400710D01*
X145750Y-400420D01*
X146190Y-400710D01*
Y-401290D01*
X145750Y-401580D01*
G01X158450Y-397500D02*
X159760Y-399540D01*
X161500Y-400710D01*
X163470Y-401000D01*
X165220Y-400710D01*
X166960Y-399250D01*
X168050Y-397500D01*
X168270Y-395750D01*
X167840Y-393710D01*
X166310Y-392250D01*
X164780Y-391670D01*
X162810D01*
G01X164780D02*
X166090Y-390790D01*
X167180Y-389330D01*
X167620Y-387580D01*
X167180Y-385830D01*
X166090Y-384380D01*
X164120Y-383500D01*
X162160Y-383790D01*
X160190Y-384960D01*
G01X176820Y-401580D02*
X184680Y-383500D01*
G01X192790D02*
X198250Y-401000D01*
X203710Y-383500D01*
G01X210950Y-401000D02*
Y-383500D01*
X215310D01*
X217060Y-384380D01*
X218370Y-385540D01*
X219460Y-387290D01*
X220340Y-389330D01*
X220550Y-392250D01*
X220340Y-395170D01*
X219460Y-397210D01*
X218370Y-398960D01*
X217060Y-400130D01*
X215310Y-401000D01*
X210950D01*
G01X228450D02*
Y-383500D01*
X232810D01*
X234560Y-384380D01*
X235870Y-385540D01*
X236960Y-387290D01*
X237840Y-389330D01*
X238050Y-392250D01*
X237840Y-395170D01*
X236960Y-397210D01*
X235870Y-398960D01*
X234560Y-400130D01*
X232810Y-401000D01*
X228450D01*
G01X-36250Y-367000D02*
Y-349500D01*
X-31890D01*
X-30140Y-350380D01*
X-28830Y-351540D01*
X-27740Y-353290D01*
X-26860Y-355330D01*
X-26650Y-358250D01*
X-26860Y-361170D01*
X-27740Y-363210D01*
X-28830Y-364960D01*
X-30140Y-366130D01*
X-31890Y-367000D01*
X-36250D01*
G01X-18540Y-364670D02*
X-16790Y-366130D01*
X-14820Y-367000D01*
X-13080D01*
X-11330Y-366130D01*
X-10020Y-364670D01*
X-9360Y-362620D01*
X-9800Y-360580D01*
X-10890Y-358830D01*
X-12860Y-357670D01*
X-15480Y-357080D01*
X-17010Y-355920D01*
X-17660Y-353880D01*
X-17220Y-351830D01*
X-16130Y-350380D01*
X-14610Y-349500D01*
X-13080D01*
X-11550Y-350080D01*
X-10240Y-351540D01*
G01X-1250Y-363500D02*
X60Y-365540D01*
X1800Y-366710D01*
X3770Y-367000D01*
X5520Y-366710D01*
X7260Y-365250D01*
X8350Y-363500D01*
X8570Y-361750D01*
X8140Y-359710D01*
X6610Y-358250D01*
X5080Y-357670D01*
X3110D01*
G01X5080D02*
X6390Y-356790D01*
X7480Y-355330D01*
X7920Y-353580D01*
X7480Y-351830D01*
X6390Y-350380D01*
X4420Y-349500D01*
X2460Y-349790D01*
X490Y-350960D01*
G01X16900Y-352420D02*
X18210Y-350670D01*
X19740Y-349790D01*
X21490Y-349500D01*
X23670Y-350080D01*
X25200Y-351540D01*
X25640Y-353290D01*
X25420Y-355040D01*
X24540Y-356500D01*
X20180Y-359420D01*
X18210Y-361460D01*
X16900Y-364380D01*
X16460Y-367000D01*
X25640D01*
G01X33750Y-364380D02*
X35060Y-365830D01*
X36580Y-366710D01*
X38550Y-367000D01*
X40520Y-366420D01*
X42040Y-365250D01*
X43140Y-363210D01*
X43350Y-360880D01*
X42920Y-358540D01*
X41820Y-357080D01*
X40300Y-355920D01*
X38770Y-355630D01*
X37240Y-355920D01*
X35280Y-357080D01*
X35930Y-349500D01*
X41820D01*
G01X58670Y-367000D02*
Y-349500D01*
X50590Y-362040D01*
X61510D01*
G01X68750Y-367000D02*
Y-349500D01*
X73110D01*
X74860Y-350380D01*
X76170Y-351540D01*
X77260Y-353290D01*
X78140Y-355330D01*
X78350Y-358250D01*
X78140Y-361170D01*
X77260Y-363210D01*
X76170Y-364960D01*
X74860Y-366130D01*
X73110Y-367000D01*
X68750D01*
G01X86250D02*
Y-349500D01*
G01X94540D02*
X86250Y-360290D01*
G01X95850Y-367000D02*
X89960Y-355330D01*
G01X108550Y-349500D02*
X106800Y-350080D01*
X105490Y-351540D01*
X104620Y-353290D01*
X103960Y-355630D01*
X103750Y-358250D01*
X103960Y-360880D01*
X104620Y-363210D01*
X105490Y-364960D01*
X106800Y-366420D01*
X108550Y-367000D01*
X110300Y-366420D01*
X111610Y-364960D01*
X112480Y-363210D01*
X113140Y-360880D01*
X113350Y-358250D01*
X113140Y-355630D01*
X112480Y-353290D01*
X111610Y-351540D01*
X110300Y-350080D01*
X108550Y-349500D01*
G01X126050Y-367000D02*
Y-349500D01*
X123430Y-353000D01*
G01Y-367000D02*
X128670D01*
G01X138090D02*
X143550Y-349500D01*
X149010Y-367000D01*
G01X147040Y-360880D02*
X140060D01*
G01X161050Y-349500D02*
X159300Y-350080D01*
X157990Y-351540D01*
X157120Y-353290D01*
X156460Y-355630D01*
X156250Y-358250D01*
X156460Y-360880D01*
X157120Y-363210D01*
X157990Y-364960D01*
X159300Y-366420D01*
X161050Y-367000D01*
X162800Y-366420D01*
X164110Y-364960D01*
X164980Y-363210D01*
X165640Y-360880D01*
X165850Y-358250D01*
X165640Y-355630D01*
X164980Y-353290D01*
X164110Y-351540D01*
X162800Y-350080D01*
X161050Y-349500D01*
G01X-36150Y-332400D02*
Y-314900D01*
X-31790D01*
X-30040Y-315780D01*
X-28730Y-316940D01*
X-27640Y-318690D01*
X-26760Y-320730D01*
X-26550Y-323650D01*
X-26760Y-326570D01*
X-27640Y-328610D01*
X-28730Y-330360D01*
X-30040Y-331530D01*
X-31790Y-332400D01*
X-36150D01*
G01X-19310D02*
X-13850Y-314900D01*
X-8390Y-332400D01*
G01X-10360Y-326280D02*
X-17340D01*
G01X-720Y-314900D02*
Y-332400D01*
X8020D01*
G01X16780Y-314900D02*
Y-332400D01*
X25520D01*
G01X33190D02*
X38650Y-314900D01*
X44110Y-332400D01*
G01X42140Y-326280D02*
X35160D01*
G01X51560Y-330070D02*
X53310Y-331530D01*
X55280Y-332400D01*
X57020D01*
X58770Y-331530D01*
X60080Y-330070D01*
X60740Y-328020D01*
X60300Y-325980D01*
X59210Y-324230D01*
X57240Y-323070D01*
X54620Y-322480D01*
X53090Y-321320D01*
X52440Y-319280D01*
X52880Y-317230D01*
X53970Y-315780D01*
X55490Y-314900D01*
X57020D01*
X58550Y-315480D01*
X59860Y-316940D01*
G01X86560Y-330070D02*
X88310Y-331530D01*
X90280Y-332400D01*
X92020D01*
X93770Y-331530D01*
X95080Y-330070D01*
X95740Y-328020D01*
X95300Y-325980D01*
X94210Y-324230D01*
X92240Y-323070D01*
X89620Y-322480D01*
X88090Y-321320D01*
X87440Y-319280D01*
X87880Y-317230D01*
X88970Y-315780D01*
X90490Y-314900D01*
X92020D01*
X93550Y-315480D01*
X94860Y-316940D01*
G01X113020Y-332400D02*
X104280D01*
Y-314900D01*
X113020D01*
G01X109520Y-323360D02*
X104280D01*
G01X120470Y-332400D02*
Y-314900D01*
X126150Y-329480D01*
X131830Y-314900D01*
Y-332400D01*
G01X141030Y-314900D02*
X146270D01*
G01X143650D02*
Y-332400D01*
G01X141030D02*
X146270D01*
G01X165950Y-316360D02*
X164640Y-315480D01*
X163120Y-314900D01*
X161370D01*
X159400Y-315780D01*
X157880Y-317230D01*
X156780Y-318980D01*
X155910Y-321900D01*
X155690Y-324530D01*
X156130Y-327150D01*
X156780Y-328900D01*
X158090Y-330650D01*
X159620Y-331820D01*
X161150Y-332400D01*
X162680D01*
X164210Y-331820D01*
X165520Y-330940D01*
X166610Y-329780D01*
G01X178650Y-332400D02*
X176900Y-332110D01*
X175380Y-330940D01*
X174060Y-329190D01*
X173190Y-327150D01*
X172750Y-324820D01*
Y-322480D01*
X173190Y-320150D01*
X174060Y-318110D01*
X175380Y-316360D01*
X176900Y-315190D01*
X178650Y-314900D01*
X180400Y-315190D01*
X181920Y-316360D01*
X183240Y-318110D01*
X184110Y-320150D01*
X184550Y-322480D01*
Y-324820D01*
X184110Y-327150D01*
X183240Y-329190D01*
X181920Y-330940D01*
X180400Y-332110D01*
X178650Y-332400D01*
G01X191130D02*
Y-314900D01*
X201170Y-332400D01*
Y-314900D01*
G01X208850Y-332400D02*
Y-314900D01*
X213210D01*
X214960Y-315780D01*
X216270Y-316940D01*
X217360Y-318690D01*
X218240Y-320730D01*
X218450Y-323650D01*
X218240Y-326570D01*
X217360Y-328610D01*
X216270Y-330360D01*
X214960Y-331530D01*
X213210Y-332400D01*
X208850D01*
G01X226350Y-314900D02*
Y-327440D01*
X227220Y-330070D01*
X228970Y-331820D01*
X231150Y-332400D01*
X233330Y-331820D01*
X235080Y-330070D01*
X235950Y-327440D01*
Y-314900D01*
G01X253450Y-316360D02*
X252140Y-315480D01*
X250620Y-314900D01*
X248870D01*
X246900Y-315780D01*
X245380Y-317230D01*
X244280Y-318980D01*
X243410Y-321900D01*
X243190Y-324530D01*
X243630Y-327150D01*
X244280Y-328900D01*
X245590Y-330650D01*
X247120Y-331820D01*
X248650Y-332400D01*
X250180D01*
X251710Y-331820D01*
X253020Y-330940D01*
X254110Y-329780D01*
G01X266150Y-314900D02*
Y-332400D01*
G01X261130Y-314900D02*
X271170D01*
G01X283650Y-332400D02*
X281900Y-332110D01*
X280380Y-330940D01*
X279060Y-329190D01*
X278190Y-327150D01*
X277750Y-324820D01*
Y-322480D01*
X278190Y-320150D01*
X279060Y-318110D01*
X280380Y-316360D01*
X281900Y-315190D01*
X283650Y-314900D01*
X285400Y-315190D01*
X286920Y-316360D01*
X288240Y-318110D01*
X289110Y-320150D01*
X289550Y-322480D01*
Y-324820D01*
X289110Y-327150D01*
X288240Y-329190D01*
X286920Y-330940D01*
X285400Y-332110D01*
X283650Y-332400D01*
G01X296780D02*
Y-314900D01*
X302240D01*
X303990Y-315780D01*
X305080Y-316940D01*
X305520Y-319280D01*
X305080Y-321610D01*
X303770Y-323070D01*
X302240Y-323940D01*
X296780D01*
G01X302240D02*
X305520Y-332400D01*
G01X332000Y-317820D02*
X333310Y-316070D01*
X334840Y-315190D01*
X336590Y-314900D01*
X338770Y-315480D01*
X340300Y-316940D01*
X340740Y-318690D01*
X340520Y-320440D01*
X339640Y-321900D01*
X335280Y-324820D01*
X333310Y-326860D01*
X332000Y-329780D01*
X331560Y-332400D01*
X340740D01*
G01X353650Y-314900D02*
X351900Y-315480D01*
X350590Y-316940D01*
X349720Y-318690D01*
X349060Y-321030D01*
X348850Y-323650D01*
X349060Y-326280D01*
X349720Y-328610D01*
X350590Y-330360D01*
X351900Y-331820D01*
X353650Y-332400D01*
X355400Y-331820D01*
X356710Y-330360D01*
X357580Y-328610D01*
X358240Y-326280D01*
X358450Y-323650D01*
X358240Y-321030D01*
X357580Y-318690D01*
X356710Y-316940D01*
X355400Y-315480D01*
X353650Y-314900D01*
G01X371150D02*
X369400Y-315480D01*
X368090Y-316940D01*
X367220Y-318690D01*
X366560Y-321030D01*
X366350Y-323650D01*
X366560Y-326280D01*
X367220Y-328610D01*
X368090Y-330360D01*
X369400Y-331820D01*
X371150Y-332400D01*
X372900Y-331820D01*
X374210Y-330360D01*
X375080Y-328610D01*
X375740Y-326280D01*
X375950Y-323650D01*
X375740Y-321030D01*
X375080Y-318690D01*
X374210Y-316940D01*
X372900Y-315480D01*
X371150Y-314900D01*
G01X391270Y-332400D02*
Y-314900D01*
X383190Y-327440D01*
X394110D01*
G01X432500Y-250000D02*
G03I-7500J0D01*
G01X437500D02*
G03I-12500J0D01*
G01X425000Y-230000D02*
Y-270000D01*
G01X405000Y-250000D02*
X445000D01*
G01X-437900Y-548700D02*
Y899500D01*
X1269900D01*
Y-548700D01*
X-437900D01*
G54D11*
X-130500Y315000D03*
Y390000D03*
Y465000D03*
X-70500Y315000D03*
Y390000D03*
Y465000D03*
G54D12*
X-111000Y-156500D03*
Y-146500D03*
Y-136500D03*
Y-126500D03*
Y-116500D03*
Y-106500D03*
Y-96500D03*
Y-86500D03*
Y-76500D03*
Y-66500D03*
Y-56500D03*
Y-46500D03*
Y-36500D03*
Y-26500D03*
Y-16500D03*
Y-6500D03*
Y3500D03*
Y13500D03*
Y23500D03*
Y33500D03*
Y43500D03*
Y53500D03*
Y63500D03*
Y73500D03*
Y83500D03*
X-119400Y108900D03*
Y134500D03*
X-130500Y426000D03*
X-101000Y-156500D03*
Y-146500D03*
Y-136500D03*
Y-126500D03*
Y-116500D03*
Y-106500D03*
Y-96500D03*
Y-86500D03*
Y-76500D03*
Y-66500D03*
Y-56500D03*
Y-46500D03*
Y-36500D03*
Y-26500D03*
Y-16500D03*
Y-6500D03*
Y3500D03*
Y13500D03*
Y23500D03*
Y33500D03*
Y43500D03*
Y53500D03*
Y63500D03*
Y73500D03*
Y83500D03*
X-101700Y108900D03*
Y134500D03*
X-85600Y194700D03*
Y205500D03*
Y216300D03*
Y227100D03*
X-74400Y189300D03*
Y200100D03*
Y210900D03*
Y221700D03*
Y232500D03*
X-70500Y426000D03*
X-25200Y-161400D03*
X77500Y440000D03*
Y450000D03*
Y460000D03*
X117500Y440000D03*
Y450000D03*
Y460000D03*
X177600Y387500D03*
Y413100D03*
X157500Y440000D03*
Y450000D03*
Y460000D03*
X195300Y387500D03*
Y413100D03*
X197500Y440000D03*
Y450000D03*
Y460000D03*
X234700Y-168900D03*
Y-158900D03*
X244700Y-168900D03*
Y-158900D03*
X254700Y-168900D03*
Y-158900D03*
X264700Y-168900D03*
Y-158900D03*
X274700Y-168900D03*
Y-158900D03*
G54D13*
X-53000Y-144900D03*
X-70500Y-145200D03*
X-68500Y-66000D03*
X-58100Y-30200D03*
X-51900Y35400D03*
X-59800Y166900D03*
X-55000Y162300D03*
X-61700Y218600D03*
X-45900Y-80900D03*
X-48100Y198500D03*
X-33500Y248400D03*
X-29000Y243000D03*
X-24100Y277900D03*
X-28500Y283000D03*
X-33800Y310500D03*
Y307600D03*
X-24300Y301600D03*
X-29000Y296500D03*
X-36100Y343100D03*
X-45900Y332100D03*
X-41000Y327500D03*
X-35900Y374000D03*
X-41000Y348000D03*
X-31900Y378500D03*
X-34400Y392600D03*
X-39000Y387500D03*
X-24300Y378400D03*
X-23400Y392700D03*
X-42600Y474400D03*
X-49500Y467400D03*
X-42600Y506400D03*
X-49400Y500000D03*
X5700Y-180800D03*
Y-164900D03*
X5900Y-142000D03*
X1500Y-137000D03*
X-13400Y-129300D03*
X5200Y34600D03*
X-14100Y242500D03*
X2500Y253900D03*
X-4200Y268300D03*
X1000Y263500D03*
X500Y284000D03*
X5900Y279300D03*
X-13000Y287900D03*
X-8500Y283000D03*
X-200Y316300D03*
X-13200Y301600D03*
X-8500Y296500D03*
X-1400Y337600D03*
X-900Y347300D03*
X-1100Y326800D03*
X-8200Y368400D03*
X-16400D03*
X5500Y375000D03*
X-20200Y373900D03*
X5000Y354500D03*
X-750Y403400D03*
X-18700Y387500D03*
X25300Y-188200D03*
Y-172300D03*
X16900Y-141900D03*
X17000Y-132000D03*
X25400Y-156400D03*
X14400Y-149000D03*
X25400Y-130700D03*
X21300Y-126100D03*
X25000Y-101200D03*
X16800Y30000D03*
X9200Y30100D03*
X17000Y39000D03*
X25000Y74000D03*
X25500Y224500D03*
X9800Y225700D03*
X14700Y230900D03*
X7100Y248900D03*
X22500Y253900D03*
X18100Y258900D03*
X10100Y370300D03*
X10200Y359200D03*
X15000Y425500D03*
X13200Y443000D03*
X8900Y438500D03*
X20800Y442900D03*
X25000Y438500D03*
X9900Y485400D03*
X7600Y467500D03*
X7100Y496100D03*
X15500Y512500D03*
X20300Y507500D03*
X11200Y496100D03*
X39800Y-175800D03*
X45300Y-121000D03*
X55300D03*
X55000Y51800D03*
X45000D03*
X37500Y71300D03*
X50000D03*
X50200Y207200D03*
X45700Y212200D03*
X61200Y217100D03*
X50800Y315700D03*
X46000Y311000D03*
X50900Y358900D03*
X46000Y363500D03*
X43850Y402900D03*
X35500Y455000D03*
X40200Y460000D03*
X35500Y469900D03*
X40200Y475000D03*
X60000Y495600D03*
X35500Y495100D03*
X40200Y490000D03*
X75300Y-164600D03*
X65300Y-121000D03*
X75000Y8200D03*
X65000Y51800D03*
X90400Y57500D03*
X75000Y71300D03*
X62500D03*
X67800Y122600D03*
X84600Y122700D03*
X71400Y187000D03*
X76000Y182000D03*
X87000Y192000D03*
X65700Y212200D03*
X78300Y300100D03*
X84000Y499100D03*
X116100Y-166000D03*
X92900Y-115000D03*
X113100Y7500D03*
X92000Y92200D03*
X111200Y82500D03*
Y102500D03*
X91900Y112400D03*
X108100Y132500D03*
X92000Y132400D03*
X111080Y142500D03*
X94000Y164500D03*
X98600Y159600D03*
X109600Y169400D03*
X114200Y164500D03*
X113900Y196000D03*
X113100Y192500D03*
X101300Y187700D03*
X91600Y186100D03*
X97100Y212400D03*
X109300Y242700D03*
X116700Y267000D03*
X110200Y269800D03*
X108200Y319000D03*
X108600Y298900D03*
X104500Y311800D03*
X98400Y297700D03*
X105200Y337400D03*
X98200Y332400D03*
Y329200D03*
X109500Y358500D03*
X114600Y360500D03*
X102600Y347800D03*
X107400Y417600D03*
X107500Y426500D03*
X99800Y417600D03*
X95800Y422000D03*
X111000Y507700D03*
X100000Y495600D03*
X131800Y-166000D03*
X128800Y7500D03*
X132000Y68900D03*
X123000Y92500D03*
X140400Y114300D03*
X145000Y109300D03*
X131100Y100500D03*
X134600Y122200D03*
X133100Y137500D03*
X142800Y136400D03*
X138300Y141200D03*
X120400Y175600D03*
X129200Y181700D03*
X121600Y183900D03*
X141000Y199900D03*
X131300Y217700D03*
X144400Y212000D03*
X129100Y209400D03*
X134400Y215800D03*
X140100Y229700D03*
X144700Y207900D03*
X133900Y260200D03*
X142700Y256400D03*
X134200Y253800D03*
X137700Y249600D03*
X138100Y241700D03*
X125600Y245200D03*
X122300Y249500D03*
X122500Y239100D03*
X126000Y289900D03*
X128100Y285200D03*
X134400Y265100D03*
X125700Y274800D03*
X122100Y299900D03*
X128900Y294700D03*
X134600Y315600D03*
X137500Y299400D03*
X145100Y338900D03*
Y341800D03*
X145600Y319800D03*
X146900Y322900D03*
X134600Y332600D03*
Y335500D03*
Y329200D03*
X122100Y365500D03*
X143700Y385100D03*
X140800Y387100D03*
X125800Y385100D03*
X118800Y387100D03*
X135800D03*
X130800D03*
X145700Y382200D03*
X145800Y419700D03*
X133800Y420700D03*
X124000Y427400D03*
X128200Y423800D03*
X140000Y495600D03*
X157500Y-41700D03*
X155200Y59100D03*
X149000Y68900D03*
X169600Y117500D03*
X174800Y100100D03*
X164500D03*
X160500Y115700D03*
X155900Y119200D03*
X147200Y126900D03*
X171000Y148200D03*
X153900Y136400D03*
X158400Y141200D03*
X154100Y152000D03*
Y163000D03*
X171700Y160900D03*
Y165300D03*
X172600Y190700D03*
X150000Y190200D03*
X170700Y183000D03*
X167000Y179000D03*
X165500Y195700D03*
X162100Y200100D03*
X155100Y215100D03*
X169200Y227400D03*
X154800Y207600D03*
X162000Y206600D03*
X168100Y211400D03*
X147200Y250300D03*
X150200D03*
X173200Y280400D03*
X164600Y315300D03*
X157500Y316000D03*
X173900Y295900D03*
X170000Y342500D03*
X165300Y335600D03*
X151200Y371800D03*
X157900Y371900D03*
X165500Y347600D03*
X173900Y418700D03*
X151000Y507700D03*
X179700Y79100D03*
X194400Y118300D03*
X190300Y113800D03*
X178700Y120400D03*
X178600Y116500D03*
X199200Y140100D03*
X190100Y126900D03*
X202500Y140100D03*
X200400Y133900D03*
X185000Y124300D03*
X195600Y148500D03*
X189400Y142400D03*
X192400Y139500D03*
X190100Y160100D03*
X185000Y158900D03*
X203100Y159900D03*
X203200Y164000D03*
X199300Y163900D03*
X199200Y167900D03*
X182300Y167800D03*
X199200Y171800D03*
X183300Y172600D03*
X199250Y175780D03*
X187200Y162000D03*
X188200Y175900D03*
X203300Y155900D03*
X203180Y171840D03*
X203200Y167910D03*
X199200Y195200D03*
X186800Y180500D03*
X199300Y179700D03*
X192400Y195900D03*
X189000Y193900D03*
X186100Y187000D03*
X203200Y179800D03*
X199100Y202700D03*
X194100Y202500D03*
X177000Y215700D03*
X201600Y215900D03*
X191600Y217800D03*
X195000Y234500D03*
X187500Y214600D03*
X180800Y224800D03*
X200800Y256600D03*
X189900Y251900D03*
X202000Y284000D03*
X185100Y268800D03*
X190300Y278200D03*
X192900Y291300D03*
X177500Y291600D03*
X197500Y299400D03*
X180000Y495600D03*
X210700Y-31600D03*
X210800Y59100D03*
X220000Y70400D03*
X204900Y85100D03*
X227500Y121300D03*
X210000Y102500D03*
X230800Y118300D03*
X223700Y139000D03*
X230800Y148200D03*
X219300Y135100D03*
X222800Y143300D03*
X218600Y138800D03*
X215000Y141900D03*
X211060Y148220D03*
X207100Y148300D03*
X205500Y136800D03*
X222870Y156110D03*
X230760Y167920D03*
X223220Y151820D03*
X230750Y175790D03*
Y171830D03*
X226820Y156110D03*
X230740Y163960D03*
X226810Y160020D03*
X218900Y175800D03*
X226800Y163970D03*
X218940Y152160D03*
Y156110D03*
X211040Y152180D03*
X211000Y159900D03*
X223000Y171900D03*
X230780Y160040D03*
X230800Y156100D03*
X207140Y160040D03*
X207130Y163970D03*
X214800Y163800D03*
X210900Y167700D03*
Y163800D03*
X207000Y167700D03*
X214800Y160000D03*
X219000Y168100D03*
X215100Y171900D03*
X219000D03*
X215200Y175800D03*
X223000Y168100D03*
X215200D03*
X218800Y164200D03*
X222890Y163960D03*
X218930Y160050D03*
X222850Y160040D03*
X226800Y167900D03*
X214980Y156110D03*
X211200Y171800D03*
X211050Y175760D03*
X207120Y171860D03*
X207130Y175780D03*
X207100Y193000D03*
X206400Y196700D03*
X207100Y183700D03*
X230740Y179720D03*
X222890Y183680D03*
X222860Y179680D03*
X211100Y192800D03*
X215900Y198300D03*
X211100Y183600D03*
X211070Y179710D03*
X215300Y183900D03*
X218900Y179700D03*
X219000Y192800D03*
X228700Y201900D03*
X224100Y194200D03*
X226800Y187500D03*
X203700Y203500D03*
X224200Y198800D03*
X210300Y197100D03*
X207140Y179720D03*
X214970Y179770D03*
X216700Y204900D03*
X209400Y215100D03*
X228800Y217700D03*
X216800Y230300D03*
X206700Y218300D03*
X216700Y208800D03*
X214300Y254600D03*
X230600Y254800D03*
X230200Y262900D03*
X212100Y235400D03*
X224400Y269400D03*
X204000Y315600D03*
X217500D03*
X207500Y307100D03*
X203700Y306700D03*
X224800Y301500D03*
X207500Y296300D03*
X218400Y338600D03*
X214400Y331300D03*
X204000Y499100D03*
X244200Y-148200D03*
Y-139600D03*
X232600Y-143800D03*
X236500Y-148000D03*
X253800Y-25100D03*
X252400Y-31700D03*
X257200Y-15100D03*
X251500Y-17600D03*
X249500Y52300D03*
X244600Y85900D03*
X249700Y103400D03*
X232600Y98300D03*
X248900Y123300D03*
X242800Y135900D03*
X242500Y140400D03*
X242700Y144400D03*
X244400Y173700D03*
X242200Y167800D03*
X234680Y171840D03*
X234600Y163800D03*
X242500Y158100D03*
X239800Y156200D03*
X243300Y163400D03*
X240200Y173800D03*
X251200Y167500D03*
X249600Y176400D03*
X257200Y167400D03*
X240800Y179800D03*
X246700Y180300D03*
X242900Y183800D03*
X258600Y206200D03*
X245300Y197600D03*
X241900Y194900D03*
X237000Y194200D03*
X233400Y205600D03*
X240000Y215600D03*
X238400Y234700D03*
X235900Y231500D03*
X233400Y209000D03*
X247500Y235100D03*
X242500Y252400D03*
X237500Y274700D03*
X247500Y296300D03*
X237600Y315600D03*
X243200Y335600D03*
X241000Y352600D03*
X232500Y435800D03*
Y495600D03*
X250000Y508700D03*
X277000Y-105000D03*
X276500Y-80000D03*
Y-55000D03*
X287300Y21800D03*
X273300Y56200D03*
X277000Y61500D03*
X260300Y70500D03*
X277000Y85000D03*
X266200Y104600D03*
X271200Y100000D03*
X266300Y95000D03*
X277700Y109800D03*
X266300Y115600D03*
X271200Y120100D03*
X259900Y123300D03*
X281200Y140000D03*
X266700Y145400D03*
X279500Y155300D03*
X284100Y150400D03*
X284500Y163000D03*
X271600Y159800D03*
X276700Y162600D03*
X284500Y170200D03*
X268400Y155400D03*
X261100Y171900D03*
X266800Y173100D03*
Y177600D03*
X282900Y201700D03*
X287400Y206500D03*
X284700Y192600D03*
X267400Y204600D03*
X263600Y211900D03*
X277500Y225000D03*
X267300Y208200D03*
X263000Y237100D03*
X268500Y243500D03*
X277400Y250000D03*
X277500Y275000D03*
X274800Y309300D03*
X265400Y315900D03*
X273700Y322000D03*
X269500Y320000D03*
X277500Y380000D03*
Y430000D03*
Y405000D03*
X304100Y-95000D03*
X306900Y-80000D03*
X306000Y-55000D03*
X313800Y2700D03*
X307000Y-15000D03*
Y5000D03*
X309300Y0D03*
X288900Y26100D03*
X307300Y10900D03*
X306900Y85000D03*
X301200Y100000D03*
X298000Y141600D03*
X298200Y198000D03*
X306060Y225000D03*
X306850Y250000D03*
X306060Y275000D03*
X306300Y315000D03*
X314900Y303500D03*
X313200Y322700D03*
X308800Y335000D03*
X307000Y345000D03*
X306300Y320000D03*
Y330100D03*
X302300Y347900D03*
X300300Y350800D03*
X301250Y380000D03*
X306850Y405000D03*
X306060Y430000D03*
X323100Y-65000D03*
X329900Y-10400D03*
X337900Y8200D03*
X329500Y2700D03*
X329400Y12700D03*
X323100Y70000D03*
X324000Y235000D03*
X317200Y318200D03*
X324800D03*
X328900Y322700D03*
X323100Y390000D03*
G54D14*
X-50000Y-105000D03*
X-60000D03*
X-52500Y-47500D03*
X-62500D03*
X-52500Y15000D03*
X-62500D03*
X-52500Y75000D03*
X-62500D03*
X-40000Y-105000D03*
X-42500Y-47500D03*
Y15000D03*
Y75000D03*
X-23800Y321300D03*
Y341300D03*
Y331300D03*
Y351300D03*
X-7000Y-62500D03*
Y-52500D03*
Y-42500D03*
X-13800Y321300D03*
Y341300D03*
Y331300D03*
Y351300D03*
X17500Y-52500D03*
Y-62500D03*
Y-42500D03*
X42500Y-62500D03*
Y-52500D03*
Y-42500D03*
X37500Y438500D03*
X47500D03*
X92500Y-62500D03*
Y-52500D03*
X67500Y-62500D03*
Y-52500D03*
X92500Y-42500D03*
X67500D03*
X92100Y367100D03*
X82100D03*
X117500Y-62500D03*
Y-52500D03*
Y-42500D03*
X142500Y-62500D03*
Y-52500D03*
Y-42500D03*
G54D15*
X-37400Y-173600D03*
Y-149200D03*
X-13000Y-173600D03*
Y-149200D03*
G54D16*
X66200Y327400D03*
Y346600D03*
X97500Y-145000D03*
Y-115000D03*
X95000Y27500D03*
Y57500D03*
X127500Y-145000D03*
Y-115000D03*
X125000Y27500D03*
Y57500D03*
G54D17*
X330000Y-117500D03*
Y-107500D03*
Y-37500D03*
Y-27500D03*
Y42500D03*
Y52500D03*
Y122500D03*
Y132500D03*
Y202500D03*
Y212500D03*
Y282500D03*
Y292500D03*
Y362500D03*
Y372500D03*
Y442500D03*
Y452500D03*
G54D18*
X350000Y-137500D03*
Y-97500D03*
Y-57500D03*
Y-17500D03*
Y22500D03*
Y62500D03*
Y102500D03*
Y142500D03*
Y182500D03*
Y222500D03*
Y262500D03*
Y302500D03*
Y342500D03*
Y382500D03*
Y422500D03*
Y462500D03*
G54D19*
G01X-135420Y394920D02*
X-130500Y390000D01*
G01D02*
X-125580Y394920D01*
G01X-130500Y390000D02*
X-125580Y385080D01*
G01X-135420D02*
X-130500Y390000D01*
G01X-75420Y394920D02*
X-70500Y390000D01*
G01D02*
X-65580Y385080D01*
G01X-75420D02*
X-70500Y390000D01*
G01D02*
X-65580Y394920D01*
G01X-70500Y426000D02*
X-66890Y429610D01*
G01X-74110D02*
X-70500Y426000D01*
G01X-74110Y422390D02*
X-70500Y426000D01*
G01D02*
X-66890Y422390D01*
G01X-27130Y317970D02*
X-23800Y321300D01*
G01X-27130Y324630D02*
X-23800Y321300D01*
G01D02*
X-20470Y317970D01*
G01X-23800Y321300D02*
X-20470Y324630D01*
G01X-27130Y334630D02*
X-23800Y331300D01*
G01D02*
X-20470Y327970D01*
G01X-27130D02*
X-23800Y331300D01*
G01D02*
X-20470Y334630D01*
G01X-27130Y337970D02*
X-23800Y341300D01*
G01D02*
X-20470Y337970D01*
G01X-27130Y344630D02*
X-23800Y341300D01*
G01D02*
X-20470Y344630D01*
G01X-27130Y347970D02*
X-23800Y351300D01*
G01D02*
X-20470Y354630D01*
G01X-27130D02*
X-23800Y351300D01*
G01D02*
X-20470Y347970D01*
G01X-13800Y321300D02*
X-10470Y317970D01*
G01X-17130D02*
X-13800Y321300D01*
G01X-17130Y324630D02*
X-13800Y321300D01*
G01D02*
X-10470Y324630D01*
G01X-17130Y334630D02*
X-13800Y331300D01*
G01D02*
X-10470Y327970D01*
G01X-17130D02*
X-13800Y331300D01*
G01D02*
X-10470Y334630D01*
G01X-17130Y344630D02*
X-13800Y341300D01*
G01D02*
X-10470Y337970D01*
G01X-17130D02*
X-13800Y341300D01*
G01D02*
X-10470Y344630D01*
G01X-17130Y354630D02*
X-13800Y351300D01*
G01D02*
X-10470Y347970D01*
G01X-17130D02*
X-13800Y351300D01*
G01D02*
X-10470Y354630D01*
G01X124310Y-141810D02*
X127500Y-145000D01*
G01D02*
X130690Y-148190D01*
G01X124310D02*
X127500Y-145000D01*
G01D02*
X130690Y-141810D01*
G01X121810Y30690D02*
X125000Y27500D01*
G01D02*
X128190Y24310D01*
G01X125000Y27500D02*
X128190Y30690D01*
G01X121810Y24310D02*
X125000Y27500D01*
G01X241090Y-162510D02*
X244700Y-158900D01*
G01D02*
X248310Y-162510D01*
G01X241090Y-155290D02*
X244700Y-158900D01*
G01D02*
X248310Y-155290D01*
M02*
