G04 ================== begin FILE IDENTIFICATION RECORD ==================*
G04 Layout Name:  C:\projects\DS3254DK\worklib\DS3254DK01A0\physical\DS3254DK01A0.brd*
G04 Film Name:    TOP*
G04 File Format:  Gerber RS274X*
G04 File Origin:  -unreleased*
G04 Origin Date:  Mon Sep 20 10:15:42 2004*
G04 ================== end FILE IDENTIFICATION RECORD ====================*
%FSLAX35Y35*MOIN*%
%IR0*IPPOS*OFA0.00000B0.00000*MIA0B0*SFA1.00000B1.00000*%
%ADD38C,.12*%
%ADD11C,.105*%
%ADD22R,.162X.082*%
%ADD23R,.102X.098*%
%ADD10C,.006*%
%ADD33R,.02X.071*%
%ADD35C,.02*%
%ADD29R,.071X.02*%
%ADD15R,.052X.06*%
%ADD13C,.04*%
%ADD27R,.06X.052*%
%ADD21R,.052X.06*%
%ADD16C,.06*%
%ADD14C,.024*%
%ADD34R,.04X.075*%
%ADD37C,.08*%
%ADD36R,.075X.04*%
%ADD17R,.071X.063*%
%ADD31R,.055X.071*%
%ADD20R,.063X.071*%
%ADD24R,.071X.055*%
%ADD19C,.091*%
%ADD30C,.056*%
%ADD26R,.024X.087*%
%ADD25R,.018X.066*%
%ADD18R,.087X.024*%
%ADD12C,.068*%
%ADD32R,.079X.071*%
%ADD28R,.071X.079*%
%ADD39C,.005*%
%ADD40C,.007*%
%ADD41C,.008*%
%ADD42C,.01*%
%ADD43C,.012*%
%ADD44C,.001*%
%ADD45C,.015*%
%ADD46C,.018*%
G75*
%LPD*%
G75*
G36*
G01X-13800Y330300D02*
X-23800D01*
Y332300D01*
X-13800D01*
Y330300D01*
G37*
G36*
G01Y320300D02*
X-23800D01*
Y322300D01*
X-13800D01*
Y320300D01*
G37*
G36*
G01Y340300D02*
X-23800D01*
Y342300D01*
X-13800D01*
Y340300D01*
G37*
G36*
G01Y350300D02*
X-23800D01*
Y352300D01*
X-13800D01*
Y350300D01*
G37*
G36*
G01X37500Y439500D02*
X47500D01*
Y437500D01*
X37500D01*
Y439500D01*
G37*
G54D10*
G01X-53000Y-144900D02*
X-58050D01*
G01X-65550D02*
X-65850Y-145200D01*
X-70500D01*
G01X-58100Y-30200D02*
X-58150Y-30150D01*
Y-24700D01*
G01X-51900Y35400D02*
X-56950D01*
G01X-29500Y177500D02*
Y195900D01*
X-26800Y198600D01*
X-19400D01*
G01X-100Y191900D02*
X-5900D01*
X-10500Y196500D01*
Y201000D01*
X-13400Y203900D01*
X-19100D01*
X-19400Y203600D01*
G01X-100Y180900D02*
X-5600D01*
X-10800Y186100D01*
Y191200D01*
X-13500Y193900D01*
X-19100D01*
X-19400Y193600D01*
G01X-400Y205200D02*
X-6700D01*
X-9800Y208300D01*
X-19100D01*
X-19400Y208600D01*
G01X-1200Y230900D02*
X-5800D01*
X-9800Y226900D01*
Y220500D01*
X-12100Y218200D01*
X-19000D01*
X-19400Y218600D01*
G01X-400Y216200D02*
X-8600D01*
X-11100Y213700D01*
X-19300D01*
X-19400Y213600D01*
G01X4600Y403400D02*
X-750D01*
G01X30100Y-128900D02*
X30300Y-128700D01*
G01X35300D02*
X35200Y-128800D01*
Y-138000D01*
X30300Y-142900D01*
Y-156900D01*
G01X25000Y-113750D02*
Y-113800D01*
X27200Y-116000D01*
X29700D01*
X35300Y-121600D01*
Y-128700D01*
G01X25000Y-101200D02*
Y-106250D01*
G01X29800Y43900D02*
X30000Y44100D01*
G01X35000D02*
X34900Y44000D01*
Y33500D01*
X30000Y28600D01*
Y15900D01*
G01X25000Y58750D02*
Y58700D01*
X27200Y56500D01*
X30000D01*
X35000Y51500D01*
Y44100D01*
G01X25000Y74000D02*
Y66250D01*
G01X31950Y402900D02*
X17700D01*
X17200Y403400D01*
X16400D01*
G01X35300Y-156900D02*
X35400Y-156800D01*
Y-150800D01*
X37000Y-149200D01*
X45300D01*
G01X55300Y-156900D02*
Y-149200D01*
G01D02*
X45300D01*
G01Y-156900D02*
Y-149200D01*
G01X65600D02*
X55300D01*
G01X62500Y-113750D02*
X60300Y-115950D01*
Y-128700D01*
G01X50000Y-113750D02*
X50300Y-114050D01*
Y-128700D01*
G01X37500Y-113750D02*
X37850D01*
X40300Y-116200D01*
Y-128700D01*
G01X45300Y-121000D02*
Y-128700D01*
G01X55300Y-121000D02*
Y-128700D01*
G01X35000Y15900D02*
X35200Y16100D01*
Y22600D01*
X36300Y23700D01*
X45000D01*
G01X55000Y15900D02*
Y23700D01*
G01D02*
X45000D01*
G01Y15900D02*
Y23700D01*
G01X64800D02*
X55000D01*
G01X62500Y58750D02*
X60000Y56250D01*
Y44100D01*
G01X50000Y58750D02*
Y44100D01*
G01X37500Y58750D02*
X40000Y56250D01*
Y44100D01*
G01X55000Y51800D02*
Y44100D01*
G01X45000Y51800D02*
Y44100D01*
G01X37500Y66250D02*
Y71300D01*
G01X50000Y66250D02*
Y71300D01*
G01X45800Y347900D02*
X47200Y346500D01*
X66100D01*
X66200Y346600D01*
G01X45800Y326700D02*
X46600Y327500D01*
X66100D01*
X66200Y327400D01*
G01X39450Y402900D02*
X43850D01*
G01X70000Y-171250D02*
Y-157200D01*
X70300Y-156900D01*
G01X75300D02*
Y-164600D01*
G01X65300Y-156900D02*
X65600Y-156600D01*
Y-149200D01*
G01X75300Y-128700D02*
Y-145000D01*
G01D02*
X69800D01*
X65600Y-149200D01*
G01X97500Y-145000D02*
X75300D01*
G01X75000Y-113750D02*
X70300Y-118450D01*
Y-128700D01*
G01X65300Y-121000D02*
Y-128700D01*
G01X70000Y15900D02*
Y1250D01*
G01Y-6250D02*
X70250Y-6000D01*
X120500D01*
X142500Y-28000D01*
Y-42500D01*
G01X65000Y15900D02*
X64800Y16100D01*
Y23700D01*
G01X75000Y44100D02*
Y27500D01*
G01D02*
X68600D01*
X64800Y23700D01*
G01X95000Y27500D02*
X75000D01*
G01Y15900D02*
Y8200D01*
G01Y58750D02*
X70000Y53750D01*
Y44100D01*
G01X65000Y51800D02*
Y44100D01*
G01X75000Y66250D02*
Y71300D01*
G01X62500Y66250D02*
Y71300D01*
G01X91750Y338650D02*
X91600Y338500D01*
X80900D01*
X72800Y346600D01*
X66200D01*
G01X91750Y335500D02*
X80700D01*
X72600Y327400D01*
X66200D01*
G01X127500Y-145000D02*
Y-165700D01*
X127700Y-165900D01*
G01X127500Y-145000D02*
X136250D01*
X147500Y-133750D01*
G01Y-126250D02*
X136250Y-115000D01*
X127500D01*
G01X125000Y27500D02*
X124700Y27200D01*
Y7800D01*
G01X125000Y27500D02*
X131250D01*
X145000Y41250D01*
G01Y48750D02*
X136250Y57500D01*
X125000D01*
G01X169900Y126650D02*
X169600Y126350D01*
Y117500D01*
G01X193350Y173810D02*
X185890D01*
X184200Y175500D01*
X170500D01*
X167000Y179000D01*
G01X201220Y150180D02*
X199180Y151290D01*
X198370Y152100D01*
X196750D01*
X195270Y153580D01*
Y154750D01*
X194100Y155920D01*
X170220D01*
X166650Y152350D01*
Y152000D01*
G01Y163000D02*
Y162550D01*
X170400Y158800D01*
X179700D01*
X184900Y164000D01*
X193890D01*
X195310Y162580D01*
Y161410D01*
X196720Y160000D01*
X197890D01*
X199320Y158570D01*
Y156020D01*
X201220Y154120D01*
G01X150000Y180850D02*
Y190200D01*
G01X193350Y177740D02*
X193090Y178000D01*
X175700D01*
X170700Y183000D01*
G01X197280Y154120D02*
X198970Y153630D01*
X200400Y152200D01*
X202000D01*
X203200Y151000D01*
Y144100D01*
X199200Y140100D01*
G01X197280Y150180D02*
X195600Y148500D01*
G01X193350Y146250D02*
X193250D01*
X189400Y142400D01*
G01X195600Y134350D02*
Y140630D01*
X201220Y146250D01*
G01X197280D02*
Y144380D01*
X192400Y139500D01*
G01X197280Y158060D02*
X195300Y158900D01*
X194100Y160100D01*
X190100D01*
G01X185000Y158900D02*
X186660Y158060D01*
X193350D01*
G01X201220D02*
X203060Y159900D01*
X203100D01*
G01X201220Y161990D02*
Y162020D01*
X203200Y164000D01*
G01X197280Y161990D02*
X197390D01*
X199300Y163900D01*
G01X197280Y165930D02*
X195410Y167800D01*
X182300D01*
G01X201220Y169870D02*
X201130D01*
X199200Y171800D01*
G01X197280Y169870D02*
X195250Y171900D01*
X184000D01*
X183300Y172600D01*
G01X193350Y161990D02*
X193240Y162100D01*
X187300D01*
X187200Y162000D01*
G01X197280Y173810D02*
X195190Y175900D01*
X188200D01*
G01X201220Y185620D02*
X199200Y187640D01*
Y195200D01*
G01X197280Y177740D02*
X195220Y179800D01*
X187500D01*
X186800Y180500D01*
G01X201220Y177740D02*
X199300Y179660D01*
Y179700D01*
G01X197280Y185620D02*
X196890Y187210D01*
X195300Y188800D01*
Y193000D01*
X192400Y195900D01*
G01X177000Y203150D02*
Y199200D01*
X177850Y198350D01*
X181650D01*
X186700Y193300D01*
Y191700D01*
X190800Y187600D01*
X194200D01*
X195300Y186500D01*
Y183660D01*
X197280Y181680D01*
G01X209400Y202550D02*
X209050D01*
X203200Y196700D01*
Y183660D01*
X201220Y181680D01*
G01X178100Y183150D02*
X191880D01*
X193350Y181680D01*
G01Y185620D02*
X189880D01*
X188500Y187000D01*
X186100D01*
G01X195000Y225850D02*
Y234500D01*
G01X210000Y111650D02*
Y102500D01*
G01X224840Y146250D02*
Y140140D01*
X223700Y139000D01*
G01X220910Y146250D02*
X220700Y146040D01*
Y136500D01*
X219300Y135100D01*
G01X220910Y150180D02*
X222800Y148290D01*
Y143300D01*
G01X216970Y150180D02*
X218770Y148380D01*
Y138970D01*
X218600Y138800D01*
G01X213030Y150180D02*
X215000Y148210D01*
Y141900D01*
G01X209090Y150180D02*
X209100D01*
X211060Y148220D01*
G01X205160Y146250D02*
Y142760D01*
X202500Y140100D01*
G01X205160Y150180D02*
X207040Y148300D01*
X207100D01*
G01X209090Y146250D02*
Y140390D01*
X205500Y136800D01*
G01X225000Y133850D02*
Y137320D01*
X226800Y139120D01*
Y152140D01*
X228780Y154120D01*
G01X220910Y158060D02*
X220920D01*
X222870Y156110D01*
G01X224840Y150180D02*
X223220Y151800D01*
Y151820D01*
G01X220910Y154120D02*
X220900D01*
X218940Y152160D01*
G01X216970Y154120D02*
X218940Y156090D01*
Y156110D01*
G01X213030Y154120D02*
X211090Y152180D01*
X211040D01*
G01X209090Y158060D02*
X210930Y159900D01*
X211000D01*
G01X205160Y154120D02*
X205080D01*
X203300Y155900D01*
G01X205160Y158060D02*
X207140Y160040D01*
G01X205160Y161990D02*
X207130Y163960D01*
Y163970D01*
G01X205160Y173810D02*
X203190Y171840D01*
X203180D01*
G01X214800Y163800D02*
X213030Y162030D01*
Y161990D01*
G01X210900Y167700D02*
X209130Y165930D01*
X209090D01*
G01X210900Y163800D02*
X209090Y161990D01*
G01X207000Y167700D02*
X205230Y165930D01*
X205160D01*
G01X214800Y160000D02*
Y159830D01*
X213030Y158060D01*
G01X219000Y168100D02*
X220770Y169870D01*
X220910D01*
G01X215100Y171900D02*
X216970Y173770D01*
Y173810D01*
G01X220910D02*
X219000Y171900D01*
G01X215200Y175800D02*
X216970Y177570D01*
Y177740D01*
G01X223000Y168100D02*
X224770Y169870D01*
X224840D01*
G01X215200Y168100D02*
X216970Y169870D01*
G01X213030Y165930D02*
X215200Y168100D01*
G01X205160Y169870D02*
X203200Y167910D01*
G01X216970Y165930D02*
X217070D01*
X218800Y164200D01*
G01X220910Y165930D02*
X222880Y163960D01*
X222890D01*
G01X216970Y161990D02*
X216990D01*
X218930Y160050D01*
G01X220910Y161990D02*
Y161980D01*
X222850Y160040D01*
G01X224840Y165930D02*
Y165940D01*
X226800Y167900D01*
G01X216970Y158060D02*
X216930D01*
X214980Y156110D01*
G01X213030Y169870D02*
Y169970D01*
X211200Y171800D01*
G01X213030Y173810D02*
X213000D01*
X211050Y175760D01*
G01X209090Y173810D02*
Y173820D01*
X207130Y175780D01*
G01X209090Y189550D02*
X209100Y189560D01*
Y195900D01*
X210300Y197100D01*
G01X251050Y211900D02*
Y211450D01*
X246100Y206500D01*
Y201700D01*
X243200Y198800D01*
X238770D01*
X230800Y190830D01*
Y187640D01*
X228780Y185620D01*
G01X251050Y200700D02*
Y200350D01*
X238300Y187600D01*
X235900D01*
X234700Y186400D01*
Y185050D01*
X233350Y183700D01*
X230800D01*
X228780Y181680D01*
G01X240000Y203050D02*
X233350D01*
X228780Y198480D01*
Y189550D01*
G01X205160Y177740D02*
Y177840D01*
X203200Y179800D01*
G01X213030Y177740D02*
X214970Y179680D01*
Y179770D01*
G01X250000Y111650D02*
X249700Y111350D01*
Y103400D01*
G01X248900Y135850D02*
X248550D01*
X246400Y138000D01*
Y144500D01*
X238800Y152100D01*
X234740D01*
X232720Y154120D01*
G01X259900Y135850D02*
X259450D01*
X241180Y154120D01*
X236650D01*
G01Y173810D02*
X240190D01*
X240200Y173800D01*
G01X247500Y225850D02*
Y235100D01*
G01X273350Y140000D02*
X281200D01*
G01X273350Y192500D02*
X273450Y192600D01*
X284700D01*
G01X284100Y225000D02*
X277500D01*
G01X284100Y250000D02*
X277400D01*
G01X284100Y275000D02*
X277500D01*
G01X284100Y380000D02*
X277500D01*
G01X284100Y430000D02*
X277500D01*
G01X284100Y405000D02*
X277500D01*
G01X295900Y225000D02*
X306060D01*
G01X295900Y250000D02*
X306850D01*
G01X295900Y275000D02*
X306060D01*
G01X295900Y380000D02*
X301250D01*
G01X295900Y405000D02*
X306850D01*
G01X295900Y430000D02*
X306060D01*
X-130000Y-180000D03*
Y505000D03*
X-113100Y161700D03*
Y260100D03*
X-80000Y161700D03*
Y260100D03*
X45000Y110000D03*
X355000Y-180000D03*
Y505000D03*
G54D20*
X-40500Y177500D03*
X-29500D03*
X-33500Y243200D03*
X-44500D03*
X-24100Y282900D03*
X-24300Y296600D03*
X-23400Y387700D03*
X-34400D03*
X5900Y-136900D03*
X-1200Y230900D03*
X-13100Y282900D03*
X-13300Y296600D03*
X4500Y507500D03*
X16900Y-136900D03*
X9800Y230900D03*
X35500Y460000D03*
X24500D03*
X35500Y475000D03*
X24500D03*
X35500Y490000D03*
X24500D03*
X15500Y507500D03*
X98600Y164500D03*
X109600D03*
X165500Y342500D03*
X154500D03*
G54D11*
X-130500Y315000D03*
Y390000D03*
Y465000D03*
X-70500Y315000D03*
Y390000D03*
Y465000D03*
G54D12*
X-111000Y-156500D03*
Y-146500D03*
Y-136500D03*
Y-126500D03*
Y-116500D03*
Y-106500D03*
Y-96500D03*
Y-86500D03*
Y-76500D03*
Y-66500D03*
Y-56500D03*
Y-46500D03*
Y-36500D03*
Y-26500D03*
Y-16500D03*
Y-6500D03*
Y3500D03*
Y13500D03*
Y23500D03*
Y33500D03*
Y43500D03*
Y53500D03*
Y63500D03*
Y73500D03*
Y83500D03*
X-119400Y108900D03*
Y134500D03*
X-130500Y426000D03*
X-101000Y-156500D03*
Y-146500D03*
Y-136500D03*
Y-126500D03*
Y-116500D03*
Y-106500D03*
Y-96500D03*
Y-86500D03*
Y-76500D03*
Y-66500D03*
Y-56500D03*
Y-46500D03*
Y-36500D03*
Y-26500D03*
Y-16500D03*
Y-6500D03*
Y3500D03*
Y13500D03*
Y23500D03*
Y33500D03*
Y43500D03*
Y53500D03*
Y63500D03*
Y73500D03*
Y83500D03*
X-101700Y108900D03*
Y134500D03*
X-85600Y194700D03*
Y205500D03*
Y216300D03*
Y227100D03*
X-74400Y189300D03*
Y200100D03*
Y210900D03*
Y221700D03*
Y232500D03*
X-70500Y426000D03*
X-25200Y-161400D03*
X77500Y440000D03*
Y450000D03*
Y460000D03*
X117500Y440000D03*
Y450000D03*
Y460000D03*
X177600Y387500D03*
Y413100D03*
X157500Y440000D03*
Y450000D03*
Y460000D03*
X195300Y387500D03*
Y413100D03*
X197500Y440000D03*
Y450000D03*
Y460000D03*
X234700Y-168900D03*
Y-158900D03*
X244700Y-168900D03*
Y-158900D03*
X254700Y-168900D03*
Y-158900D03*
X264700Y-168900D03*
Y-158900D03*
X274700Y-168900D03*
Y-158900D03*
G54D30*
X66200Y327400D03*
Y346600D03*
X97500Y-145000D03*
Y-115000D03*
X95000Y27500D03*
Y57500D03*
X127500Y-145000D03*
Y-115000D03*
X125000Y27500D03*
Y57500D03*
G54D21*
X-24300Y374000D03*
X-31900D03*
X9200Y34600D03*
X16800D03*
X20800Y438500D03*
X13200D03*
X120100Y-165900D03*
X117100Y7800D03*
X99800Y422100D03*
X107400D03*
X127700Y-165900D03*
X124700Y7800D03*
X126200Y249500D03*
X133800D03*
X236600Y-143800D03*
X244200D03*
X317200Y322700D03*
X325400Y2700D03*
X317800D03*
X324800Y322700D03*
G54D40*
G01X-60000Y-105000D02*
X-79500D01*
X-88000Y-96500D01*
X-101000D01*
G01X-65250Y-85500D02*
X-92000D01*
X-101000Y-76500D01*
G01Y-36500D02*
X-73500D01*
X-64800Y-45200D01*
X-62500Y-47500D01*
G01X-101000Y-16500D02*
X-92800Y-24700D01*
X-65650D01*
G01X-62500Y15000D02*
X-77000D01*
X-85500Y23500D01*
X-101000D01*
G01Y43500D02*
X-92900Y35400D01*
X-64450D01*
G01X-62500Y75000D02*
X-73000D01*
X-81500Y83500D01*
X-101000D01*
G01X-45900Y-80900D02*
X-50500Y-85500D01*
X-57750D01*
G01X-65250D02*
X-65200D01*
Y-69300D01*
X-68500Y-66000D01*
G01X133100Y137500D02*
X131200Y135600D01*
Y107100D01*
X104600Y80500D01*
X-47000D01*
X-52500Y75000D01*
G01X-25200Y-161400D02*
Y-129350D01*
X-25250Y-129300D01*
G01X-40000Y-105000D02*
Y-67300D01*
X-6400Y-33700D01*
X48700D01*
X67500Y-52500D01*
G01X-42500Y-47500D02*
X-30800D01*
X-11100Y-27800D01*
X67800D01*
X92500Y-52500D01*
G01X-42500Y15000D02*
X-5000D01*
X31700Y-21700D01*
X86800D01*
X117500Y-52400D01*
Y-52500D01*
G01X-42500Y75000D02*
Y62100D01*
X35100Y-15500D01*
X105500D01*
X142500Y-52500D01*
G01X39800Y-175800D02*
X1900D01*
X-1900Y-172000D01*
Y-47500D01*
X-6900Y-42500D01*
X-7000D01*
G01X25400Y-130700D02*
Y-125500D01*
X17200Y-117300D01*
Y-75600D01*
X32100Y-60700D01*
Y-44400D01*
X34000Y-42500D01*
X42500D01*
G01X21300Y-126100D02*
X10600D01*
X6900Y-122400D01*
Y-73100D01*
X17500Y-62500D01*
G01X37500Y-106250D02*
Y-67500D01*
X42500Y-62500D01*
G01X50000Y-106250D02*
Y-80000D01*
X67500Y-62500D01*
G01X70000Y-178750D02*
X75350D01*
X78100Y-176000D01*
X135700D01*
X154900Y-156800D01*
Y-74900D01*
X142500Y-62500D01*
G01X75000Y-106250D02*
X82250D01*
X117500Y-71000D01*
Y-62500D01*
G01X62500Y-106250D02*
Y-92500D01*
X92500Y-62500D01*
G01X274700Y-168900D02*
X269800Y-164000D01*
X207000D01*
X158600Y-115600D01*
Y-65000D01*
X152600Y-59000D01*
Y129000D01*
X156900Y133300D01*
X159600D01*
X168150Y141850D01*
Y145350D01*
X171000Y148200D01*
G01X159150Y152000D02*
X154100D01*
G01X159150Y163000D02*
X154100D01*
G01X178100Y190650D02*
X172650D01*
X172600Y190700D01*
G01X195600Y126850D02*
X190150D01*
X190100Y126900D01*
G01X177000Y210650D02*
Y215700D01*
G01X225000Y126350D02*
X227500Y123850D01*
Y121300D01*
G01X209400Y210050D02*
Y215100D01*
G01X248900Y128350D02*
Y123300D01*
G01X258550Y200700D02*
Y206150D01*
X258600Y206200D01*
G01X258550Y211900D02*
X263600D01*
G01X240000Y210550D02*
Y215600D01*
G01X259900Y128350D02*
Y123300D01*
G54D31*
X77500Y503400D03*
X117500D03*
X157500D03*
X197500D03*
X250000Y491600D03*
G54D13*
X-60000Y-180000D03*
Y505000D03*
X310000Y-180000D03*
G54D22*
X-27500Y418400D03*
Y446600D03*
G54D41*
G01X193350Y150180D02*
Y150100D01*
X188350Y145100D01*
X179300D01*
X177950Y143750D01*
X177500D01*
G01X193350Y169870D02*
Y169900D01*
X193150Y170100D01*
X178650D01*
X177500Y171250D01*
G01X193350Y165930D02*
X183610D01*
X181430Y163750D01*
X177500D01*
G01X193350Y154120D02*
X190730Y151500D01*
X177750D01*
X177500Y151250D01*
G01X201220Y189550D02*
X201500Y191760D01*
Y203800D01*
X198050Y207250D01*
Y207700D01*
G01X197280Y189550D02*
Y194140D01*
X190550Y200870D01*
Y207700D01*
G01X213030Y146250D02*
X212700Y145920D01*
Y137200D01*
X206250Y130750D01*
Y130000D01*
G01X216970Y146250D02*
X217000D01*
X217100Y146150D01*
Y140700D01*
X215000Y138600D01*
Y131200D01*
X213800Y130000D01*
X213750D01*
G01X228780Y146250D02*
Y139420D01*
X230500Y137700D01*
Y132100D01*
X236150Y126450D01*
X236500D01*
G01X216970Y189550D02*
X216700Y191400D01*
Y195060D01*
X228750Y207110D01*
G01X213030Y189550D02*
X213400Y191500D01*
Y199200D01*
X215900Y201700D01*
X219300D01*
X221100Y203500D01*
Y207350D01*
X221250Y207500D01*
G01X232720Y146250D02*
Y141780D01*
X236500Y138000D01*
Y133950D01*
G01X236650Y165930D02*
Y165900D01*
X236850Y165700D01*
X244800D01*
X246900Y163600D01*
Y155500D01*
X252150Y150250D01*
X252500D01*
G01X236650Y169870D02*
X241270D01*
X241300Y169900D01*
X243100D01*
X243130Y169870D01*
X244130D01*
X248700Y165300D01*
Y161100D01*
X252050Y157750D01*
X252500D01*
G01X236650Y181680D02*
Y181700D01*
X236850Y181900D01*
X241800D01*
X242000Y181700D01*
X244400D01*
X247300Y184600D01*
X252450D01*
X254800Y182250D01*
G01X236650Y185620D02*
Y185600D01*
X240500D01*
X244600Y189700D01*
X254750D01*
X254800Y189750D01*
G54D32*
X77500Y491600D03*
X117500D03*
X157500D03*
X197500D03*
X250000Y503400D03*
G54D14*
X-53000Y-144900D03*
X-70500Y-145200D03*
X-68500Y-66000D03*
X-58100Y-30200D03*
X-51900Y35400D03*
X-59800Y166900D03*
X-55000Y162300D03*
X-61700Y218600D03*
X-45900Y-80900D03*
X-48100Y198500D03*
X-33500Y248400D03*
X-29000Y243000D03*
X-24100Y277900D03*
X-28500Y283000D03*
X-33800Y310500D03*
Y307600D03*
X-24300Y301600D03*
X-29000Y296500D03*
X-36100Y343100D03*
X-45900Y332100D03*
X-41000Y327500D03*
X-35900Y374000D03*
X-41000Y348000D03*
X-31900Y378500D03*
X-34400Y392600D03*
X-39000Y387500D03*
X-24300Y378400D03*
X-23400Y392700D03*
X-42600Y474400D03*
X-49500Y467400D03*
X-42600Y506400D03*
X-49400Y500000D03*
X5700Y-180800D03*
Y-164900D03*
X5900Y-142000D03*
X1500Y-137000D03*
X-13400Y-129300D03*
X5200Y34600D03*
X-14100Y242500D03*
X2500Y253900D03*
X-4200Y268300D03*
X1000Y263500D03*
X500Y284000D03*
X5900Y279300D03*
X-13000Y287900D03*
X-8500Y283000D03*
X-200Y316300D03*
X-13200Y301600D03*
X-8500Y296500D03*
X-1400Y337600D03*
X-900Y347300D03*
X-1100Y326800D03*
X-8200Y368400D03*
X-16400D03*
X5500Y375000D03*
X-20200Y373900D03*
X5000Y354500D03*
X-750Y403400D03*
X-18700Y387500D03*
X25300Y-188200D03*
Y-172300D03*
X16900Y-141900D03*
X17000Y-132000D03*
X25400Y-156400D03*
X14400Y-149000D03*
X25400Y-130700D03*
X21300Y-126100D03*
X25000Y-101200D03*
X16800Y30000D03*
X9200Y30100D03*
X17000Y39000D03*
X25000Y74000D03*
X25500Y224500D03*
X9800Y225700D03*
X14700Y230900D03*
X7100Y248900D03*
X22500Y253900D03*
X18100Y258900D03*
X10100Y370300D03*
X10200Y359200D03*
X15000Y425500D03*
X13200Y443000D03*
X8900Y438500D03*
X20800Y442900D03*
X25000Y438500D03*
X9900Y485400D03*
X7600Y467500D03*
X7100Y496100D03*
X15500Y512500D03*
X20300Y507500D03*
X11200Y496100D03*
X39800Y-175800D03*
X45300Y-121000D03*
X55300D03*
X55000Y51800D03*
X45000D03*
X37500Y71300D03*
X50000D03*
X50200Y207200D03*
X45700Y212200D03*
X61200Y217100D03*
X50800Y315700D03*
X46000Y311000D03*
X50900Y358900D03*
X46000Y363500D03*
X43850Y402900D03*
X35500Y455000D03*
X40200Y460000D03*
X35500Y469900D03*
X40200Y475000D03*
X60000Y495600D03*
X35500Y495100D03*
X40200Y490000D03*
X75300Y-164600D03*
X65300Y-121000D03*
X75000Y8200D03*
X65000Y51800D03*
X90400Y57500D03*
X75000Y71300D03*
X62500D03*
X67800Y122600D03*
X84600Y122700D03*
X71400Y187000D03*
X76000Y182000D03*
X87000Y192000D03*
X65700Y212200D03*
X78300Y300100D03*
X84000Y499100D03*
X116100Y-166000D03*
X92900Y-115000D03*
X113100Y7500D03*
X92000Y92200D03*
X111200Y82500D03*
Y102500D03*
X91900Y112400D03*
X108100Y132500D03*
X92000Y132400D03*
X111080Y142500D03*
X94000Y164500D03*
X98600Y159600D03*
X109600Y169400D03*
X114200Y164500D03*
X113900Y196000D03*
X113100Y192500D03*
X101300Y187700D03*
X91600Y186100D03*
X97100Y212400D03*
X109300Y242700D03*
X116700Y267000D03*
X110200Y269800D03*
X108200Y319000D03*
X108600Y298900D03*
X104500Y311800D03*
X98400Y297700D03*
X105200Y337400D03*
X98200Y332400D03*
Y329200D03*
X109500Y358500D03*
X114600Y360500D03*
X102600Y347800D03*
X107400Y417600D03*
X107500Y426500D03*
X99800Y417600D03*
X95800Y422000D03*
X111000Y507700D03*
X100000Y495600D03*
X131800Y-166000D03*
X128800Y7500D03*
X132000Y68900D03*
X123000Y92500D03*
X140400Y114300D03*
X145000Y109300D03*
X131100Y100500D03*
X134600Y122200D03*
X133100Y137500D03*
X142800Y136400D03*
X138300Y141200D03*
X120400Y175600D03*
X129200Y181700D03*
X121600Y183900D03*
X141000Y199900D03*
X131300Y217700D03*
X144400Y212000D03*
X129100Y209400D03*
X134400Y215800D03*
X140100Y229700D03*
X144700Y207900D03*
X133900Y260200D03*
X142700Y256400D03*
X134200Y253800D03*
X137700Y249600D03*
X138100Y241700D03*
X125600Y245200D03*
X122300Y249500D03*
X122500Y239100D03*
X126000Y289900D03*
X128100Y285200D03*
X134400Y265100D03*
X125700Y274800D03*
X122100Y299900D03*
X128900Y294700D03*
X134600Y315600D03*
X137500Y299400D03*
X145100Y338900D03*
Y341800D03*
X145600Y319800D03*
X146900Y322900D03*
X134600Y332600D03*
Y335500D03*
Y329200D03*
X122100Y365500D03*
X143700Y385100D03*
X140800Y387100D03*
X125800Y385100D03*
X118800Y387100D03*
X135800D03*
X130800D03*
X145700Y382200D03*
X145800Y419700D03*
X133800Y420700D03*
X124000Y427400D03*
X128200Y423800D03*
X140000Y495600D03*
X157500Y-41700D03*
X155200Y59100D03*
X149000Y68900D03*
X169600Y117500D03*
X174800Y100100D03*
X164500D03*
X160500Y115700D03*
X155900Y119200D03*
X147200Y126900D03*
X171000Y148200D03*
X153900Y136400D03*
X158400Y141200D03*
X154100Y152000D03*
Y163000D03*
X171700Y160900D03*
Y165300D03*
X172600Y190700D03*
X150000Y190200D03*
X170700Y183000D03*
X167000Y179000D03*
X165500Y195700D03*
X162100Y200100D03*
X155100Y215100D03*
X169200Y227400D03*
X154800Y207600D03*
X162000Y206600D03*
X168100Y211400D03*
X147200Y250300D03*
X150200D03*
X173200Y280400D03*
X164600Y315300D03*
X157500Y316000D03*
X173900Y295900D03*
X170000Y342500D03*
X165300Y335600D03*
X151200Y371800D03*
X157900Y371900D03*
X165500Y347600D03*
X173900Y418700D03*
X151000Y507700D03*
X179700Y79100D03*
X194400Y118300D03*
X190300Y113800D03*
X178700Y120400D03*
X178600Y116500D03*
X199200Y140100D03*
X190100Y126900D03*
X202500Y140100D03*
X200400Y133900D03*
X185000Y124300D03*
X195600Y148500D03*
X189400Y142400D03*
X192400Y139500D03*
X190100Y160100D03*
X185000Y158900D03*
X203100Y159900D03*
X203200Y164000D03*
X199300Y163900D03*
X199200Y167900D03*
X182300Y167800D03*
X199200Y171800D03*
X183300Y172600D03*
X199250Y175780D03*
X187200Y162000D03*
X188200Y175900D03*
X203300Y155900D03*
X203180Y171840D03*
X203200Y167910D03*
X199200Y195200D03*
X186800Y180500D03*
X199300Y179700D03*
X192400Y195900D03*
X189000Y193900D03*
X186100Y187000D03*
X203200Y179800D03*
X199100Y202700D03*
X194100Y202500D03*
X177000Y215700D03*
X201600Y215900D03*
X191600Y217800D03*
X195000Y234500D03*
X187500Y214600D03*
X180800Y224800D03*
X200800Y256600D03*
X189900Y251900D03*
X202000Y284000D03*
X185100Y268800D03*
X190300Y278200D03*
X192900Y291300D03*
X177500Y291600D03*
X197500Y299400D03*
X180000Y495600D03*
X210700Y-31600D03*
X210800Y59100D03*
X220000Y70400D03*
X204900Y85100D03*
X227500Y121300D03*
X210000Y102500D03*
X230800Y118300D03*
X223700Y139000D03*
X230800Y148200D03*
X219300Y135100D03*
X222800Y143300D03*
X218600Y138800D03*
X215000Y141900D03*
X211060Y148220D03*
X207100Y148300D03*
X205500Y136800D03*
X222870Y156110D03*
X230760Y167920D03*
X223220Y151820D03*
X230750Y175790D03*
Y171830D03*
X226820Y156110D03*
X230740Y163960D03*
X226810Y160020D03*
X218900Y175800D03*
X226800Y163970D03*
X218940Y152160D03*
Y156110D03*
X211040Y152180D03*
X211000Y159900D03*
X223000Y171900D03*
X230780Y160040D03*
X230800Y156100D03*
X207140Y160040D03*
X207130Y163970D03*
X214800Y163800D03*
X210900Y167700D03*
Y163800D03*
X207000Y167700D03*
X214800Y160000D03*
X219000Y168100D03*
X215100Y171900D03*
X219000D03*
X215200Y175800D03*
X223000Y168100D03*
X215200D03*
X218800Y164200D03*
X222890Y163960D03*
X218930Y160050D03*
X222850Y160040D03*
X226800Y167900D03*
X214980Y156110D03*
X211200Y171800D03*
X211050Y175760D03*
X207120Y171860D03*
X207130Y175780D03*
X207100Y193000D03*
X206400Y196700D03*
X207100Y183700D03*
X230740Y179720D03*
X222890Y183680D03*
X222860Y179680D03*
X211100Y192800D03*
X215900Y198300D03*
X211100Y183600D03*
X211070Y179710D03*
X215300Y183900D03*
X218900Y179700D03*
X219000Y192800D03*
X228700Y201900D03*
X224100Y194200D03*
X226800Y187500D03*
X203700Y203500D03*
X224200Y198800D03*
X210300Y197100D03*
X207140Y179720D03*
X214970Y179770D03*
X216700Y204900D03*
X209400Y215100D03*
X228800Y217700D03*
X216800Y230300D03*
X206700Y218300D03*
X216700Y208800D03*
X214300Y254600D03*
X230600Y254800D03*
X230200Y262900D03*
X212100Y235400D03*
X224400Y269400D03*
X204000Y315600D03*
X217500D03*
X207500Y307100D03*
X203700Y306700D03*
X224800Y301500D03*
X207500Y296300D03*
X218400Y338600D03*
X214400Y331300D03*
X204000Y499100D03*
X244200Y-148200D03*
Y-139600D03*
X232600Y-143800D03*
X236500Y-148000D03*
X253800Y-25100D03*
X252400Y-31700D03*
X257200Y-15100D03*
X251500Y-17600D03*
X249500Y52300D03*
X244600Y85900D03*
X249700Y103400D03*
X232600Y98300D03*
X248900Y123300D03*
X242800Y135900D03*
X242500Y140400D03*
X242700Y144400D03*
X244400Y173700D03*
X242200Y167800D03*
X234680Y171840D03*
X234600Y163800D03*
X242500Y158100D03*
X239800Y156200D03*
X243300Y163400D03*
X240200Y173800D03*
X251200Y167500D03*
X249600Y176400D03*
X257200Y167400D03*
X240800Y179800D03*
X246700Y180300D03*
X242900Y183800D03*
X258600Y206200D03*
X245300Y197600D03*
X241900Y194900D03*
X237000Y194200D03*
X233400Y205600D03*
X240000Y215600D03*
X238400Y234700D03*
X235900Y231500D03*
X233400Y209000D03*
X247500Y235100D03*
X242500Y252400D03*
X237500Y274700D03*
X247500Y296300D03*
X237600Y315600D03*
X243200Y335600D03*
X241000Y352600D03*
X232500Y435800D03*
Y495600D03*
X250000Y508700D03*
X277000Y-105000D03*
X276500Y-80000D03*
Y-55000D03*
X287300Y21800D03*
X273300Y56200D03*
X277000Y61500D03*
X260300Y70500D03*
X277000Y85000D03*
X266200Y104600D03*
X271200Y100000D03*
X266300Y95000D03*
X277700Y109800D03*
X266300Y115600D03*
X271200Y120100D03*
X259900Y123300D03*
X281200Y140000D03*
X266700Y145400D03*
X279500Y155300D03*
X284100Y150400D03*
X284500Y163000D03*
X271600Y159800D03*
X276700Y162600D03*
X284500Y170200D03*
X268400Y155400D03*
X261100Y171900D03*
X266800Y173100D03*
Y177600D03*
X282900Y201700D03*
X287400Y206500D03*
X284700Y192600D03*
X267400Y204600D03*
X263600Y211900D03*
X277500Y225000D03*
X267300Y208200D03*
X263000Y237100D03*
X268500Y243500D03*
X277400Y250000D03*
X277500Y275000D03*
X274800Y309300D03*
X265400Y315900D03*
X273700Y322000D03*
X269500Y320000D03*
X277500Y380000D03*
Y430000D03*
Y405000D03*
X304100Y-95000D03*
X306900Y-80000D03*
X306000Y-55000D03*
X313800Y2700D03*
X307000Y-15000D03*
Y5000D03*
X309300Y0D03*
X288900Y26100D03*
X307300Y10900D03*
X306900Y85000D03*
X301200Y100000D03*
X298000Y141600D03*
X298200Y198000D03*
X306060Y225000D03*
X306850Y250000D03*
X306060Y275000D03*
X306300Y315000D03*
X314900Y303500D03*
X313200Y322700D03*
X308800Y335000D03*
X307000Y345000D03*
X306300Y320000D03*
Y330100D03*
X302300Y347900D03*
X300300Y350800D03*
X301250Y380000D03*
X306850Y405000D03*
X306060Y430000D03*
X323100Y-65000D03*
X329900Y-10400D03*
X337900Y8200D03*
X329500Y2700D03*
X329400Y12700D03*
X323100Y70000D03*
X324000Y235000D03*
X317200Y318200D03*
X324800D03*
X328900Y322700D03*
X323100Y390000D03*
G54D23*
X-42600Y467500D03*
Y500000D03*
X-17400Y467500D03*
Y500000D03*
G54D42*
G01X-55600Y198600D02*
X-48200D01*
X-48100Y198500D01*
G01X177500Y163750D02*
X177150D01*
X171200Y169700D01*
X149500D01*
X140000Y179200D01*
Y180850D01*
G01X139850Y326050D02*
X134500D01*
Y324300D01*
X132200Y322000D01*
Y313000D01*
X134600Y310600D01*
Y295200D01*
X123250Y283850D01*
X119000D01*
G01X177500Y151250D02*
X176950D01*
X173250Y147550D01*
Y146750D01*
X171300Y144800D01*
Y139900D01*
X159900Y128500D01*
Y126650D01*
G01X177500Y171250D02*
X176250Y172500D01*
X166600D01*
X160000Y179100D01*
Y180850D01*
G01X206250Y130000D02*
X200000Y123750D01*
Y111650D01*
G01X177500Y143750D02*
X179900Y141350D01*
Y126650D01*
G01X198050Y207700D02*
Y217250D01*
X205000Y224200D01*
Y225850D01*
G01X185000D02*
Y209200D01*
X186500Y207700D01*
X190550D01*
G01X213750Y130000D02*
X220000Y123750D01*
Y111650D01*
G01X257500Y225850D02*
Y220700D01*
X256400Y219600D01*
X235700D01*
X229200Y213100D01*
Y207950D01*
X228750Y207500D01*
G01X221250D02*
X221700Y207950D01*
Y216500D01*
X231050Y225850D01*
X237500D01*
G01X236500Y126450D02*
X236600Y126350D01*
Y121500D01*
X240000Y118100D01*
Y111650D01*
G01X236500Y133950D02*
X242800Y127650D01*
Y123300D01*
X248900Y117200D01*
X256000D01*
X260000Y113200D01*
Y111650D01*
G01X252500Y150250D02*
X253050D01*
X258700Y144600D01*
X262500D01*
X266100Y141000D01*
Y135600D01*
X271700Y130000D01*
X273350D01*
G01X252500Y157750D02*
X253050D01*
X260800Y150000D01*
X273350D01*
G01X254800Y182250D02*
X255050Y182500D01*
X273350D01*
G01Y202500D02*
X272050Y201200D01*
X267100D01*
X264700Y198800D01*
Y194400D01*
X260050Y189750D01*
X254800D01*
G54D24*
X4600Y403400D03*
X295900Y-105000D03*
Y-80000D03*
Y-55000D03*
Y60000D03*
Y85000D03*
Y110000D03*
Y225000D03*
Y250000D03*
Y275000D03*
Y380000D03*
Y405000D03*
Y430000D03*
G54D15*
X-65550Y-144900D03*
X-58050D03*
X-65250Y-85500D03*
X-57750D03*
X-65650Y-24700D03*
X-58150D03*
X-64450Y35400D03*
X-56950D03*
X-25250Y-129300D03*
X-17750D03*
X3250Y425500D03*
X3750Y460000D03*
X31950Y402900D03*
X10750Y425500D03*
X11250Y460000D03*
X39450Y402900D03*
X113650Y367400D03*
X106150D03*
X138250D03*
X145750D03*
X166650Y152000D03*
X159150D03*
X166650Y163000D03*
X159150D03*
X163150Y367500D03*
X170650D03*
X198050Y207700D03*
X190550D03*
X206250Y130000D03*
X213750D03*
X228750Y207500D03*
X221250D03*
X251050Y200700D03*
X258550D03*
X251050Y211900D03*
X258550D03*
G54D33*
X100050Y305150D03*
X103200D03*
X106350D03*
X109500D03*
X112650D03*
X115800D03*
Y353250D03*
X112650D03*
X109500D03*
X106350D03*
X103200D03*
X100050D03*
X118950Y305150D03*
X122100D03*
X125250D03*
X128400D03*
X131550D03*
Y353250D03*
X128400D03*
X125250D03*
X122100D03*
X118950D03*
G54D43*
G01X140100Y229700D02*
Y214250D01*
G01X330000Y-117500D02*
X309100D01*
X303000Y-123600D01*
X272400D01*
X179500Y-30700D01*
Y72300D01*
X175700Y76100D01*
Y82100D01*
X171600Y86200D01*
X165600D01*
X159900Y91900D01*
Y93350D01*
G01X160000Y214150D02*
Y297700D01*
X241100Y378800D01*
Y412500D01*
X280800Y452200D01*
X320300D01*
X330000Y442500D01*
G01X179700Y79100D02*
Y93150D01*
G01X200000Y78350D02*
Y76700D01*
X205400Y71300D01*
X213100D01*
X220000Y64400D01*
Y43000D01*
X290400Y-27400D01*
X320200D01*
X330000Y-37200D01*
G01X185100Y268800D02*
Y259250D01*
G01X220000Y78350D02*
Y70400D01*
G01X330000Y362500D02*
X298900D01*
X205200Y268800D01*
Y259350D01*
G01X240000Y78350D02*
Y76600D01*
X245300Y71300D01*
X252300D01*
X260300Y63300D01*
Y46400D01*
X270300Y36400D01*
X307300D01*
X313400Y42500D01*
X330000D01*
G01X257800Y259450D02*
Y277900D01*
X272900Y293000D01*
X319500D01*
X330000Y282500D01*
G01X237500Y259150D02*
Y274700D01*
G01X260300Y70500D02*
Y78050D01*
G54D25*
X3700Y490600D03*
Y474300D03*
X11200Y490600D03*
X8700D03*
X6200D03*
Y474400D03*
X11200D03*
X8700D03*
G54D34*
X140000Y180850D03*
Y214150D03*
X169900Y93350D03*
X159900D03*
Y126650D03*
X169900D03*
X160000Y180850D03*
X150000D03*
Y214150D03*
X160000D03*
X179900Y93350D03*
X200000Y78350D03*
Y111650D03*
X179900Y126650D03*
X195000Y225850D03*
X185000D03*
Y259150D03*
X195000D03*
X220000Y78350D03*
X210000D03*
Y111650D03*
X220000D03*
X205000Y225850D03*
Y259150D03*
X260000Y78350D03*
X250000D03*
X240000D03*
Y111650D03*
X250000D03*
X260000D03*
X257500Y225850D03*
X247500D03*
X237500D03*
Y259150D03*
X247500D03*
X257500D03*
G54D16*
X-50000Y-105000D03*
X-60000D03*
X-52500Y-47500D03*
X-62500D03*
X-52500Y15000D03*
X-62500D03*
X-52500Y75000D03*
X-62500D03*
X-40000Y-105000D03*
X-42500Y-47500D03*
Y15000D03*
Y75000D03*
X-23800Y321300D03*
Y341300D03*
Y331300D03*
Y351300D03*
X-7000Y-62500D03*
Y-52500D03*
Y-42500D03*
X-13800Y321300D03*
Y341300D03*
Y331300D03*
Y351300D03*
X17500Y-52500D03*
Y-62500D03*
Y-42500D03*
X42500Y-62500D03*
Y-52500D03*
Y-42500D03*
X37500Y438500D03*
X47500D03*
X92500Y-62500D03*
Y-52500D03*
X67500Y-62500D03*
Y-52500D03*
X92500Y-42500D03*
X67500D03*
X92100Y367100D03*
X82100D03*
X117500Y-62500D03*
Y-52500D03*
Y-42500D03*
X142500Y-62500D03*
Y-52500D03*
Y-42500D03*
G54D44*
G01X-192500Y-250000D02*
G03I-7500J0D01*
G01X-187500D02*
G03I-12500J0D01*
G01X-200000Y-230000D02*
Y-270000D01*
G01X-220000Y-250000D02*
X-180000D01*
G01X-192500Y575000D02*
G03I-7500J0D01*
G01X-187500D02*
G03I-12500J0D01*
G01X-200000Y595000D02*
Y555000D01*
G01X-220000Y575000D02*
X-180000D01*
G01X-33450Y-383500D02*
Y-401000D01*
G01X-38470Y-383500D02*
X-28430D01*
G01X-15950Y-401000D02*
X-17700Y-400710D01*
X-19220Y-399540D01*
X-20540Y-397790D01*
X-21410Y-395750D01*
X-21850Y-393420D01*
Y-391080D01*
X-21410Y-388750D01*
X-20540Y-386710D01*
X-19220Y-384960D01*
X-17700Y-383790D01*
X-15950Y-383500D01*
X-14200Y-383790D01*
X-12680Y-384960D01*
X-11360Y-386710D01*
X-10490Y-388750D01*
X-10050Y-391080D01*
Y-393420D01*
X-10490Y-395750D01*
X-11360Y-397790D01*
X-12680Y-399540D01*
X-14200Y-400710D01*
X-15950Y-401000D01*
G01X-2820D02*
Y-383500D01*
X2420D01*
X4170Y-384380D01*
X5480Y-386420D01*
X5920Y-388750D01*
X5480Y-391080D01*
X4390Y-392830D01*
X2420Y-393710D01*
X-2820D01*
G01X32180Y-383500D02*
Y-401000D01*
X40920D01*
G01X48590D02*
X54050Y-383500D01*
X59510Y-401000D01*
G01X57540Y-394880D02*
X50560D01*
G01X71550Y-401000D02*
Y-393130D01*
X67180Y-383500D01*
G01X75920D02*
X71550Y-393130D01*
G01X93420Y-401000D02*
X84680D01*
Y-383500D01*
X93420D01*
G01X89920Y-391960D02*
X84680D01*
G01X102180Y-401000D02*
Y-383500D01*
X107640D01*
X109390Y-384380D01*
X110480Y-385540D01*
X110920Y-387880D01*
X110480Y-390210D01*
X109170Y-391670D01*
X107640Y-392540D01*
X102180D01*
G01X107640D02*
X110920Y-401000D01*
G01X138710Y-395170D02*
X144390D01*
G01X171960Y-398670D02*
X173710Y-400130D01*
X175680Y-401000D01*
X177420D01*
X179170Y-400130D01*
X180480Y-398670D01*
X181140Y-396620D01*
X180700Y-394580D01*
X179610Y-392830D01*
X177640Y-391670D01*
X175020Y-391080D01*
X173490Y-389920D01*
X172840Y-387880D01*
X173280Y-385830D01*
X174370Y-384380D01*
X175890Y-383500D01*
X177420D01*
X178950Y-384080D01*
X180260Y-385540D01*
G01X191430Y-383500D02*
X196670D01*
G01X194050D02*
Y-401000D01*
G01X191430D02*
X196670D01*
G01X212860Y-392250D02*
X217230D01*
Y-397500D01*
X215920Y-399250D01*
X214390Y-400420D01*
X212210Y-401000D01*
X210020Y-400420D01*
X208490Y-399250D01*
X207180Y-397500D01*
X206310Y-395460D01*
X205870Y-393130D01*
Y-391080D01*
X206310Y-389330D01*
X207180Y-387290D01*
X208490Y-385540D01*
X209800Y-384380D01*
X211550Y-383500D01*
X213080D01*
X214820Y-384080D01*
X216140Y-385250D01*
G01X224030Y-401000D02*
Y-383500D01*
X234070Y-401000D01*
Y-383500D01*
G01X241090Y-401000D02*
X246550Y-383500D01*
X252010Y-401000D01*
G01X250040Y-394880D02*
X243060D01*
G01X259680Y-383500D02*
Y-401000D01*
X268420D01*
G01X-36250Y-367000D02*
Y-349500D01*
X-31890D01*
X-30140Y-350380D01*
X-28830Y-351540D01*
X-27740Y-353290D01*
X-26860Y-355330D01*
X-26650Y-358250D01*
X-26860Y-361170D01*
X-27740Y-363210D01*
X-28830Y-364960D01*
X-30140Y-366130D01*
X-31890Y-367000D01*
X-36250D01*
G01X-18540Y-364670D02*
X-16790Y-366130D01*
X-14820Y-367000D01*
X-13080D01*
X-11330Y-366130D01*
X-10020Y-364670D01*
X-9360Y-362620D01*
X-9800Y-360580D01*
X-10890Y-358830D01*
X-12860Y-357670D01*
X-15480Y-357080D01*
X-17010Y-355920D01*
X-17660Y-353880D01*
X-17220Y-351830D01*
X-16130Y-350380D01*
X-14610Y-349500D01*
X-13080D01*
X-11550Y-350080D01*
X-10240Y-351540D01*
G01X-1250Y-363500D02*
X60Y-365540D01*
X1800Y-366710D01*
X3770Y-367000D01*
X5520Y-366710D01*
X7260Y-365250D01*
X8350Y-363500D01*
X8570Y-361750D01*
X8140Y-359710D01*
X6610Y-358250D01*
X5080Y-357670D01*
X3110D01*
G01X5080D02*
X6390Y-356790D01*
X7480Y-355330D01*
X7920Y-353580D01*
X7480Y-351830D01*
X6390Y-350380D01*
X4420Y-349500D01*
X2460Y-349790D01*
X490Y-350960D01*
G01X16900Y-352420D02*
X18210Y-350670D01*
X19740Y-349790D01*
X21490Y-349500D01*
X23670Y-350080D01*
X25200Y-351540D01*
X25640Y-353290D01*
X25420Y-355040D01*
X24540Y-356500D01*
X20180Y-359420D01*
X18210Y-361460D01*
X16900Y-364380D01*
X16460Y-367000D01*
X25640D01*
G01X33750Y-364380D02*
X35060Y-365830D01*
X36580Y-366710D01*
X38550Y-367000D01*
X40520Y-366420D01*
X42040Y-365250D01*
X43140Y-363210D01*
X43350Y-360880D01*
X42920Y-358540D01*
X41820Y-357080D01*
X40300Y-355920D01*
X38770Y-355630D01*
X37240Y-355920D01*
X35280Y-357080D01*
X35930Y-349500D01*
X41820D01*
G01X58670Y-367000D02*
Y-349500D01*
X50590Y-362040D01*
X61510D01*
G01X68750Y-367000D02*
Y-349500D01*
X73110D01*
X74860Y-350380D01*
X76170Y-351540D01*
X77260Y-353290D01*
X78140Y-355330D01*
X78350Y-358250D01*
X78140Y-361170D01*
X77260Y-363210D01*
X76170Y-364960D01*
X74860Y-366130D01*
X73110Y-367000D01*
X68750D01*
G01X86250D02*
Y-349500D01*
G01X94540D02*
X86250Y-360290D01*
G01X95850Y-367000D02*
X89960Y-355330D01*
G01X108550Y-349500D02*
X106800Y-350080D01*
X105490Y-351540D01*
X104620Y-353290D01*
X103960Y-355630D01*
X103750Y-358250D01*
X103960Y-360880D01*
X104620Y-363210D01*
X105490Y-364960D01*
X106800Y-366420D01*
X108550Y-367000D01*
X110300Y-366420D01*
X111610Y-364960D01*
X112480Y-363210D01*
X113140Y-360880D01*
X113350Y-358250D01*
X113140Y-355630D01*
X112480Y-353290D01*
X111610Y-351540D01*
X110300Y-350080D01*
X108550Y-349500D01*
G01X126050Y-367000D02*
Y-349500D01*
X123430Y-353000D01*
G01Y-367000D02*
X128670D01*
G01X138090D02*
X143550Y-349500D01*
X149010Y-367000D01*
G01X147040Y-360880D02*
X140060D01*
G01X161050Y-349500D02*
X159300Y-350080D01*
X157990Y-351540D01*
X157120Y-353290D01*
X156460Y-355630D01*
X156250Y-358250D01*
X156460Y-360880D01*
X157120Y-363210D01*
X157990Y-364960D01*
X159300Y-366420D01*
X161050Y-367000D01*
X162800Y-366420D01*
X164110Y-364960D01*
X164980Y-363210D01*
X165640Y-360880D01*
X165850Y-358250D01*
X165640Y-355630D01*
X164980Y-353290D01*
X164110Y-351540D01*
X162800Y-350080D01*
X161050Y-349500D01*
G01X-36150Y-332400D02*
Y-314900D01*
X-31790D01*
X-30040Y-315780D01*
X-28730Y-316940D01*
X-27640Y-318690D01*
X-26760Y-320730D01*
X-26550Y-323650D01*
X-26760Y-326570D01*
X-27640Y-328610D01*
X-28730Y-330360D01*
X-30040Y-331530D01*
X-31790Y-332400D01*
X-36150D01*
G01X-19310D02*
X-13850Y-314900D01*
X-8390Y-332400D01*
G01X-10360Y-326280D02*
X-17340D01*
G01X-720Y-314900D02*
Y-332400D01*
X8020D01*
G01X16780Y-314900D02*
Y-332400D01*
X25520D01*
G01X33190D02*
X38650Y-314900D01*
X44110Y-332400D01*
G01X42140Y-326280D02*
X35160D01*
G01X51560Y-330070D02*
X53310Y-331530D01*
X55280Y-332400D01*
X57020D01*
X58770Y-331530D01*
X60080Y-330070D01*
X60740Y-328020D01*
X60300Y-325980D01*
X59210Y-324230D01*
X57240Y-323070D01*
X54620Y-322480D01*
X53090Y-321320D01*
X52440Y-319280D01*
X52880Y-317230D01*
X53970Y-315780D01*
X55490Y-314900D01*
X57020D01*
X58550Y-315480D01*
X59860Y-316940D01*
G01X86560Y-330070D02*
X88310Y-331530D01*
X90280Y-332400D01*
X92020D01*
X93770Y-331530D01*
X95080Y-330070D01*
X95740Y-328020D01*
X95300Y-325980D01*
X94210Y-324230D01*
X92240Y-323070D01*
X89620Y-322480D01*
X88090Y-321320D01*
X87440Y-319280D01*
X87880Y-317230D01*
X88970Y-315780D01*
X90490Y-314900D01*
X92020D01*
X93550Y-315480D01*
X94860Y-316940D01*
G01X113020Y-332400D02*
X104280D01*
Y-314900D01*
X113020D01*
G01X109520Y-323360D02*
X104280D01*
G01X120470Y-332400D02*
Y-314900D01*
X126150Y-329480D01*
X131830Y-314900D01*
Y-332400D01*
G01X141030Y-314900D02*
X146270D01*
G01X143650D02*
Y-332400D01*
G01X141030D02*
X146270D01*
G01X165950Y-316360D02*
X164640Y-315480D01*
X163120Y-314900D01*
X161370D01*
X159400Y-315780D01*
X157880Y-317230D01*
X156780Y-318980D01*
X155910Y-321900D01*
X155690Y-324530D01*
X156130Y-327150D01*
X156780Y-328900D01*
X158090Y-330650D01*
X159620Y-331820D01*
X161150Y-332400D01*
X162680D01*
X164210Y-331820D01*
X165520Y-330940D01*
X166610Y-329780D01*
G01X178650Y-332400D02*
X176900Y-332110D01*
X175380Y-330940D01*
X174060Y-329190D01*
X173190Y-327150D01*
X172750Y-324820D01*
Y-322480D01*
X173190Y-320150D01*
X174060Y-318110D01*
X175380Y-316360D01*
X176900Y-315190D01*
X178650Y-314900D01*
X180400Y-315190D01*
X181920Y-316360D01*
X183240Y-318110D01*
X184110Y-320150D01*
X184550Y-322480D01*
Y-324820D01*
X184110Y-327150D01*
X183240Y-329190D01*
X181920Y-330940D01*
X180400Y-332110D01*
X178650Y-332400D01*
G01X191130D02*
Y-314900D01*
X201170Y-332400D01*
Y-314900D01*
G01X208850Y-332400D02*
Y-314900D01*
X213210D01*
X214960Y-315780D01*
X216270Y-316940D01*
X217360Y-318690D01*
X218240Y-320730D01*
X218450Y-323650D01*
X218240Y-326570D01*
X217360Y-328610D01*
X216270Y-330360D01*
X214960Y-331530D01*
X213210Y-332400D01*
X208850D01*
G01X226350Y-314900D02*
Y-327440D01*
X227220Y-330070D01*
X228970Y-331820D01*
X231150Y-332400D01*
X233330Y-331820D01*
X235080Y-330070D01*
X235950Y-327440D01*
Y-314900D01*
G01X253450Y-316360D02*
X252140Y-315480D01*
X250620Y-314900D01*
X248870D01*
X246900Y-315780D01*
X245380Y-317230D01*
X244280Y-318980D01*
X243410Y-321900D01*
X243190Y-324530D01*
X243630Y-327150D01*
X244280Y-328900D01*
X245590Y-330650D01*
X247120Y-331820D01*
X248650Y-332400D01*
X250180D01*
X251710Y-331820D01*
X253020Y-330940D01*
X254110Y-329780D01*
G01X266150Y-314900D02*
Y-332400D01*
G01X261130Y-314900D02*
X271170D01*
G01X283650Y-332400D02*
X281900Y-332110D01*
X280380Y-330940D01*
X279060Y-329190D01*
X278190Y-327150D01*
X277750Y-324820D01*
Y-322480D01*
X278190Y-320150D01*
X279060Y-318110D01*
X280380Y-316360D01*
X281900Y-315190D01*
X283650Y-314900D01*
X285400Y-315190D01*
X286920Y-316360D01*
X288240Y-318110D01*
X289110Y-320150D01*
X289550Y-322480D01*
Y-324820D01*
X289110Y-327150D01*
X288240Y-329190D01*
X286920Y-330940D01*
X285400Y-332110D01*
X283650Y-332400D01*
G01X296780D02*
Y-314900D01*
X302240D01*
X303990Y-315780D01*
X305080Y-316940D01*
X305520Y-319280D01*
X305080Y-321610D01*
X303770Y-323070D01*
X302240Y-323940D01*
X296780D01*
G01X302240D02*
X305520Y-332400D01*
G01X332000Y-317820D02*
X333310Y-316070D01*
X334840Y-315190D01*
X336590Y-314900D01*
X338770Y-315480D01*
X340300Y-316940D01*
X340740Y-318690D01*
X340520Y-320440D01*
X339640Y-321900D01*
X335280Y-324820D01*
X333310Y-326860D01*
X332000Y-329780D01*
X331560Y-332400D01*
X340740D01*
G01X353650Y-314900D02*
X351900Y-315480D01*
X350590Y-316940D01*
X349720Y-318690D01*
X349060Y-321030D01*
X348850Y-323650D01*
X349060Y-326280D01*
X349720Y-328610D01*
X350590Y-330360D01*
X351900Y-331820D01*
X353650Y-332400D01*
X355400Y-331820D01*
X356710Y-330360D01*
X357580Y-328610D01*
X358240Y-326280D01*
X358450Y-323650D01*
X358240Y-321030D01*
X357580Y-318690D01*
X356710Y-316940D01*
X355400Y-315480D01*
X353650Y-314900D01*
G01X371150D02*
X369400Y-315480D01*
X368090Y-316940D01*
X367220Y-318690D01*
X366560Y-321030D01*
X366350Y-323650D01*
X366560Y-326280D01*
X367220Y-328610D01*
X368090Y-330360D01*
X369400Y-331820D01*
X371150Y-332400D01*
X372900Y-331820D01*
X374210Y-330360D01*
X375080Y-328610D01*
X375740Y-326280D01*
X375950Y-323650D01*
X375740Y-321030D01*
X375080Y-318690D01*
X374210Y-316940D01*
X372900Y-315480D01*
X371150Y-314900D01*
G01X391270Y-332400D02*
Y-314900D01*
X383190Y-327440D01*
X394110D01*
G01X432500Y-250000D02*
G03I-7500J0D01*
G01X437500D02*
G03I-12500J0D01*
G01X425000Y-230000D02*
Y-270000D01*
G01X405000Y-250000D02*
X445000D01*
G01X-437900Y-548700D02*
Y899500D01*
X1269900D01*
Y-548700D01*
X-437900D01*
G54D26*
X30300Y-156900D03*
Y-128700D03*
X30000Y15900D03*
Y44100D03*
X35300Y-156900D03*
X40300D03*
X45300D03*
X50300D03*
X55300D03*
X60300D03*
Y-128700D03*
X55300D03*
X50300D03*
X45300D03*
X40300D03*
X35300D03*
X35000Y15900D03*
X40000D03*
X45000D03*
X50000D03*
X55000D03*
X60000D03*
Y44100D03*
X55000D03*
X50000D03*
X45000D03*
X40000D03*
X35000D03*
X65300Y-156900D03*
X70300D03*
X75300D03*
Y-128700D03*
X70300D03*
X65300D03*
X65000Y15900D03*
X70000D03*
X75000D03*
Y44100D03*
X70000D03*
X65000D03*
X120800Y393200D03*
X125800D03*
X130800D03*
X135800D03*
X140800D03*
X145800D03*
Y413600D03*
X140800D03*
X135800D03*
X130800D03*
X125800D03*
X120800D03*
X150800Y393200D03*
Y413600D03*
G54D17*
X-55000Y167000D03*
Y178000D03*
X-41000Y343100D03*
Y332100D03*
X-100Y191900D03*
Y180900D03*
X-400Y205200D03*
Y216200D03*
X800Y279300D03*
Y268300D03*
X5200Y359200D03*
Y370200D03*
X45800Y315700D03*
Y326700D03*
Y347900D03*
Y358900D03*
G54D35*
G01X-103050Y243200D02*
X-122700D01*
X-129800Y250300D01*
Y275800D01*
X-99500Y306100D01*
Y340500D01*
X-37500Y402500D01*
X-9500D01*
X2000Y414000D01*
X33500D01*
X47500Y428000D01*
G01X-55000Y178000D02*
X-88800D01*
X-103100Y192300D01*
Y243150D01*
X-103050Y243200D01*
G01D02*
X-44500D01*
G01X-40500Y177500D02*
X-54500D01*
X-55000Y178000D01*
G01Y166900D02*
Y167000D01*
G01Y166900D02*
Y162300D01*
G01X-59800Y166900D02*
X-55000D01*
G01X-33500Y248400D02*
Y243200D01*
G01X-29000Y243000D02*
X-33500D01*
Y243200D01*
G01X-24100Y282900D02*
Y277900D01*
G01X-28500Y283000D02*
X-24100D01*
Y282900D01*
G01X-29000Y296500D02*
X-24300D01*
Y296600D01*
G01Y301600D02*
Y296600D01*
G01X-36100Y343100D02*
X-41000D01*
G01Y348000D02*
Y343100D01*
G01X-45900Y332100D02*
X-41000D01*
G01Y327500D02*
Y332100D01*
G01X-31900Y374000D02*
X-35900D01*
G01X-31900Y378500D02*
Y374000D01*
G01X-24300Y378400D02*
Y374000D01*
G01X-20200Y373900D02*
X-24200D01*
X-24300Y374000D01*
G01X-34400Y392600D02*
Y387700D01*
G01X-39000Y387500D02*
X-34600D01*
X-34400Y387700D01*
G01X-23400Y392700D02*
Y387700D01*
G01X-18700Y387500D02*
X-23200D01*
X-23400Y387700D01*
G01X3250Y425500D02*
Y425350D01*
X-3700Y418400D01*
X-27500D01*
G01D02*
X-27600Y418500D01*
X-41500D01*
X-45500Y422500D01*
Y450000D01*
X-38500Y457000D01*
X-20000D01*
X-17400Y459600D01*
Y467500D01*
G01X8660Y480440D02*
X6600Y482500D01*
X-3000D01*
X-6000Y479500D01*
Y453000D01*
X-12400Y446600D01*
X-27500D01*
G01X-42600Y474400D02*
Y467500D01*
G01X-49500Y467400D02*
X-49400Y467500D01*
X-42600D01*
G01Y506400D02*
Y500000D01*
G01X-49400D02*
X-42600D01*
G01X1500Y-137000D02*
X5900D01*
G01X9200Y34600D02*
X5200D01*
G01X1000Y263500D02*
Y268300D01*
X800D01*
G01D02*
X-4200D01*
G01X800Y279300D02*
X5900D01*
G01X800D02*
X500D01*
Y284000D01*
G01X-13000Y287900D02*
X-13100Y287800D01*
Y283000D01*
G01D02*
X-8500D01*
G01X-13100Y282900D02*
Y283000D01*
G01X-13200Y301600D02*
X-13300Y301500D01*
Y296600D01*
G01D02*
Y296500D01*
X-8500D01*
G01X5500Y370200D02*
X5200D01*
G01Y359200D02*
X5000D01*
Y354500D01*
G01X5200Y359200D02*
X10200D01*
G01X3600Y468700D02*
X3750Y468550D01*
Y460000D01*
G01X-17400Y500000D02*
Y467500D01*
G01X4500Y499200D02*
Y507500D01*
G01X17000Y-136900D02*
X28100D01*
X30100Y-134900D01*
Y-128900D01*
G01X16900Y-136900D02*
X17000D01*
G01X16900D02*
Y-141900D01*
G01X17000Y-132000D02*
Y-136900D01*
G01X5900Y-137000D02*
Y-142000D01*
G01Y-136900D02*
Y-137000D01*
G01X16800Y34600D02*
Y30000D01*
G01X17000Y34600D02*
X26900D01*
X29800Y37500D01*
Y43900D01*
G01X17000Y34600D02*
X16800D01*
G01X17000Y39000D02*
Y34600D01*
G01X9200D02*
Y30100D01*
G01X9800Y230900D02*
Y225700D01*
G01Y230900D02*
X14700D01*
G01X5500Y370200D02*
X10000D01*
X10100Y370300D01*
G01X5500Y375000D02*
Y370200D01*
G01X15000Y425500D02*
X10750D01*
G01X37500Y438500D02*
X28500Y447500D01*
X14000D01*
X11250Y450250D01*
Y460000D01*
G01X47500Y438500D02*
Y446000D01*
X43500Y450000D01*
X33500D01*
X31500Y452000D01*
X27000D01*
X24500Y454500D01*
Y460000D01*
G01X13200Y443000D02*
Y438500D01*
G01X8900D02*
X13200D01*
G01X20800Y442900D02*
Y438500D01*
G01X25000D02*
X20800D01*
G01X24500Y475000D02*
Y490000D01*
G01Y460000D02*
Y475000D01*
G01X15500Y512500D02*
Y507500D01*
G01X20300D02*
X15500D01*
G01X46000Y315700D02*
Y311000D01*
G01Y315700D02*
X45800D01*
G01X50800D02*
X46000D01*
G01Y358900D02*
Y363500D01*
G01X50900Y358900D02*
X46000D01*
G01X45800D02*
X46000D01*
G01X47500Y428000D02*
Y438500D01*
G01X154500Y375000D02*
X100500D01*
X47500Y428000D01*
G01X35500Y455000D02*
Y460000D01*
G01X40200D02*
X35500D01*
G01Y469900D02*
Y475000D01*
G01X40200D02*
X35500D01*
G01Y495100D02*
Y490000D01*
G01X40200D02*
X35500D01*
G01X116100Y-166000D02*
X120000D01*
X120100Y-165900D01*
G01X113100Y7500D02*
X116800D01*
X117100Y7800D01*
G01X98600Y164500D02*
Y159600D01*
G01Y164500D02*
X94000D01*
G01X109600D02*
Y169400D01*
G01Y164500D02*
X114200D01*
G01X107500Y426500D02*
Y425100D01*
X107400Y425000D01*
Y422100D01*
G01D02*
Y417600D01*
G01X99800Y422000D02*
Y417600D01*
G01Y422000D02*
X95800D01*
G01X99800Y422100D02*
Y422000D01*
G01X131800Y-166000D02*
X127800D01*
X127700Y-165900D01*
G01X128800Y7500D02*
X125000D01*
X124700Y7800D01*
G01X134200Y253800D02*
Y249900D01*
X133800Y249500D01*
G01D02*
X137600D01*
X137700Y249600D01*
G01X126200Y249500D02*
X122300D01*
G01X126200D02*
X125500Y248800D01*
Y245300D01*
X125600Y245200D01*
G01X154500Y342500D02*
Y335500D01*
X145050Y326050D01*
X139850D01*
G01X154500Y342500D02*
Y375000D01*
G01X170000Y342500D02*
X165500D01*
G01Y347600D02*
Y342500D01*
G01X177600Y387500D02*
X165100Y375000D01*
X154500D01*
G01X228750Y207110D02*
Y207500D01*
G01X244200Y-139600D02*
Y-143800D01*
G01D02*
Y-148200D01*
G01X236600Y-143800D02*
X232600D01*
G01X236500Y-148000D02*
X236600D01*
Y-143800D01*
G01X317800Y2700D02*
X313800D01*
G01X317200Y322700D02*
X313200D01*
G01X329500Y2700D02*
X325400D01*
G01X317200Y322700D02*
Y318200D01*
G01X324800Y322700D02*
Y318200D01*
G01X328900Y322700D02*
X324800D01*
X193350Y146250D03*
X197280D03*
X201220D03*
X193350Y177740D03*
X197280D03*
X201220D03*
X193350Y173810D03*
X197280D03*
X201220D03*
X193350Y169870D03*
X197280D03*
X201220D03*
X193350Y165930D03*
X197280D03*
X201220D03*
X193350Y161990D03*
X197280D03*
X201220D03*
X193350Y158060D03*
X197280D03*
X201220D03*
X193350Y154120D03*
X197280D03*
X201220D03*
X193350Y150180D03*
X197280D03*
X201220D03*
X193350Y189550D03*
X197280D03*
X201220D03*
X193350Y185620D03*
X197280D03*
X201220D03*
X193350Y181680D03*
X197280D03*
X201220D03*
X205160Y146250D03*
X209090D03*
X213030D03*
X216970D03*
X220910D03*
X224840D03*
X228780D03*
X205160Y177740D03*
X209090D03*
X213030D03*
X216970D03*
X220910D03*
X224840D03*
X228780D03*
X205160Y173810D03*
X209090D03*
X213030D03*
X216970D03*
X220910D03*
X224840D03*
X228780D03*
X205160Y169870D03*
X209090D03*
X213030D03*
X216970D03*
X220910D03*
X224840D03*
X228780D03*
X205160Y165930D03*
X209090D03*
X213030D03*
X216970D03*
X220910D03*
X224840D03*
X228780D03*
X205160Y161990D03*
X209090D03*
X213030D03*
X216970D03*
X220910D03*
X224840D03*
X228780D03*
X205160Y158060D03*
X209090D03*
X213030D03*
X216970D03*
X220910D03*
X224840D03*
X228780D03*
X205160Y154120D03*
X209090D03*
X213030D03*
X216970D03*
X220910D03*
X224840D03*
X228780D03*
X205160Y150180D03*
X209090D03*
X213030D03*
X216970D03*
X220910D03*
X224840D03*
X228780D03*
X205160Y189550D03*
X209090D03*
X213030D03*
X216970D03*
X220910D03*
X224840D03*
X228780D03*
X205160Y185620D03*
X209090D03*
X213030D03*
X216970D03*
X220910D03*
X224840D03*
X228780D03*
X205160Y181680D03*
X209090D03*
X213030D03*
X216970D03*
X220910D03*
X224840D03*
X228780D03*
X232720Y146250D03*
X236650D03*
X232720Y177740D03*
X236650D03*
X232720Y173810D03*
X236650D03*
X232720Y169870D03*
X236650D03*
X232720Y165930D03*
X236650D03*
X232720Y161990D03*
X236650D03*
X232720Y158060D03*
X236650D03*
X232720Y154120D03*
X236650D03*
X232720Y150180D03*
X236650D03*
X232720Y189550D03*
X236650D03*
X232720Y185620D03*
X236650D03*
X232720Y181680D03*
X236650D03*
G54D45*
G01X-55000Y178000D02*
X-54500D01*
X-48500Y184000D01*
Y192500D01*
X-49600Y193600D01*
X-55600D01*
G01X140100Y214250D02*
X140000Y214150D01*
G01X179700Y93150D02*
X179900Y93350D01*
G01X330000Y-37200D02*
Y-37500D01*
G01X185100Y259250D02*
X185000Y259150D01*
G01X205200Y259350D02*
X205000Y259150D01*
G01X257500D02*
X257800Y259450D01*
G01X260300Y78050D02*
X260000Y78350D01*
G01X306650Y130000D02*
X322500D01*
X330000Y122500D01*
G01X306650Y150000D02*
X312500D01*
X330000Y132500D01*
G01X306650Y182500D02*
X308400D01*
X328400Y202500D01*
X330000D01*
G01X306650D02*
X320000D01*
X330000Y212500D01*
G54D18*
X-55600Y203600D03*
Y198600D03*
Y193600D03*
Y228600D03*
Y223600D03*
Y218600D03*
Y213600D03*
Y208600D03*
X-19400Y193600D03*
Y198600D03*
Y203600D03*
Y208600D03*
Y213600D03*
Y218600D03*
Y223600D03*
Y228600D03*
G54D36*
X273350Y130000D03*
Y140000D03*
Y150000D03*
Y182500D03*
Y192500D03*
Y202500D03*
X306650Y150000D03*
Y140000D03*
Y130000D03*
Y202500D03*
Y192500D03*
Y182500D03*
G54D27*
X25000Y-106250D03*
Y-113750D03*
Y66250D03*
Y58750D03*
X37500Y-113750D03*
Y-106250D03*
X50000Y-113750D03*
Y-106250D03*
X62500Y-113750D03*
Y-106250D03*
X37500Y58750D03*
Y66250D03*
X62500Y58750D03*
Y66250D03*
X50000Y58750D03*
Y66250D03*
X70000Y-171250D03*
Y-178750D03*
X75000Y-113750D03*
Y-106250D03*
X70000Y1250D03*
Y-6250D03*
X75000Y58750D03*
Y66250D03*
X119000Y291350D03*
Y283850D03*
X147500Y-133750D03*
Y-126250D03*
X145000Y48750D03*
Y41250D03*
X177500Y151250D03*
Y143750D03*
X195600Y134350D03*
Y126850D03*
X177500Y171250D03*
Y163750D03*
X178100Y183150D03*
Y190650D03*
X177000Y203150D03*
Y210650D03*
X225000Y133850D03*
Y126350D03*
X209400Y202550D03*
Y210050D03*
X236500Y126450D03*
Y133950D03*
X252500Y150250D03*
X259900Y135850D03*
Y128350D03*
X248900Y135850D03*
Y128350D03*
X252500Y157750D03*
X254800Y182250D03*
Y189750D03*
X240000Y203050D03*
Y210550D03*
G54D46*
G01X8700Y474400D02*
X8660Y474440D01*
Y480440D01*
G01X3700Y474300D02*
X3600Y474200D01*
Y468700D01*
G01X3700Y490600D02*
X3600Y490700D01*
Y498300D01*
X4500Y499200D01*
G01X11250Y460000D02*
Y474350D01*
X11200Y474400D01*
G54D28*
X16400Y403400D03*
X284100Y-105000D03*
Y-80000D03*
Y-55000D03*
Y60000D03*
Y85000D03*
Y110000D03*
Y225000D03*
Y250000D03*
Y275000D03*
Y380000D03*
Y405000D03*
Y430000D03*
G54D19*
X-37400Y-173600D03*
Y-149200D03*
X-13000Y-173600D03*
Y-149200D03*
G54D37*
X330000Y-117500D03*
Y-107500D03*
Y-37500D03*
Y-27500D03*
Y42500D03*
Y52500D03*
Y122500D03*
Y132500D03*
Y202500D03*
Y212500D03*
Y282500D03*
Y292500D03*
Y362500D03*
Y372500D03*
Y442500D03*
Y452500D03*
G54D29*
X91750Y316600D03*
Y313450D03*
Y344950D03*
Y341800D03*
Y338650D03*
Y335500D03*
Y332350D03*
Y329200D03*
Y326050D03*
Y322900D03*
Y319750D03*
X139850Y313450D03*
Y316600D03*
Y319750D03*
Y322900D03*
Y326050D03*
Y329200D03*
Y332350D03*
Y335500D03*
Y338650D03*
Y341800D03*
Y344950D03*
G54D38*
X350000Y-137500D03*
Y-97500D03*
Y-57500D03*
Y-17500D03*
Y22500D03*
Y62500D03*
Y102500D03*
Y142500D03*
Y182500D03*
Y222500D03*
Y262500D03*
Y302500D03*
Y342500D03*
Y382500D03*
Y422500D03*
Y462500D03*
G54D39*
G01X-101700Y108900D02*
X-56600Y154000D01*
X144500D01*
X147800Y157300D01*
X180000D01*
X183800Y161100D01*
X186300D01*
X187200Y162000D01*
G01X-55600Y203600D02*
X-63500D01*
X-67000Y200100D01*
X-74400D01*
G01X-55600Y218600D02*
X-61700D01*
G01X-55600Y213600D02*
X-61600D01*
X-63900Y215900D01*
Y230100D01*
X-56900Y237100D01*
X22300D01*
X101700Y316500D01*
X110000D01*
X118950Y325450D01*
Y353250D01*
G01X-55600Y208600D02*
X-66100D01*
X-68400Y210900D01*
X-74400D01*
G01X-13400Y-129300D02*
X-17750D01*
G01X9900Y485400D02*
X8700Y486600D01*
Y490600D01*
G01X7600Y467500D02*
X6200Y468900D01*
Y474400D01*
G01X7100Y496100D02*
X6800Y495800D01*
Y491200D01*
X6200Y490600D01*
G01X11200Y496100D02*
Y490600D01*
G01X77500Y491600D02*
X64000D01*
X60000Y495600D01*
G01X84000Y499100D02*
X81100D01*
X77500Y502700D01*
Y503400D01*
G01X92900Y-115000D02*
X97500D01*
G01X90400Y57500D02*
X95000D01*
G01X133900Y260200D02*
X112650Y281450D01*
Y305150D01*
G01X108600Y298900D02*
X106400Y300300D01*
Y303400D01*
X106350Y304650D01*
Y305150D01*
G01X108600Y298900D02*
X108500Y298800D01*
Y294100D01*
X106700Y292300D01*
X95300D01*
X93700Y293900D01*
Y305200D01*
X103500Y315000D01*
X123400D01*
X131200Y322800D01*
Y344900D01*
X145750Y359450D01*
Y367400D01*
G01X104500Y311800D02*
X129900D01*
X131550Y310150D01*
Y305150D01*
G01X91750Y344950D02*
X104050D01*
X108200Y340800D01*
Y319000D01*
G01X91750Y341800D02*
X100800D01*
X105200Y337400D01*
G01X98200Y332400D02*
X94050D01*
X94000Y332350D01*
X91750D01*
G01Y329200D02*
X98200D01*
G01X92100Y367100D02*
Y367200D01*
X97700Y372800D01*
X112700D01*
X113650Y371850D01*
Y367400D01*
G01X125250Y353250D02*
X125200D01*
Y367600D01*
X124000Y368800D01*
X119100D01*
X117700Y367400D01*
X113650D01*
G01X109500Y353250D02*
Y358500D01*
G01X114600Y360500D02*
X112800Y362300D01*
X107200D01*
X106150Y363350D01*
Y367400D01*
G01X112650Y353250D02*
Y348550D01*
X111900Y347800D01*
X102600D01*
G01X111000Y507700D02*
X113900D01*
X117500Y504100D01*
Y503400D01*
G01Y491600D02*
X104000D01*
X100000Y495600D01*
G01X142700Y256400D02*
X145100Y258800D01*
Y316600D01*
G01X125250Y305150D02*
Y302900D01*
X126000Y302150D01*
Y289900D01*
G01X139850Y313450D02*
X139900D01*
Y294300D01*
X130800Y285200D01*
X128100D01*
G01X119000Y291350D02*
Y300800D01*
X118950Y300850D01*
Y305150D01*
G01X122100D02*
Y299900D01*
G01X128400Y305150D02*
Y300500D01*
X128900Y300000D01*
Y294700D01*
G01X170650Y367500D02*
Y364750D01*
X159500Y353600D01*
Y322900D01*
X154700Y318100D01*
X146600D01*
X145100Y316600D01*
G01D02*
X139850D01*
G01Y338650D02*
X142100D01*
X142350Y338900D01*
X145100D01*
G01X139850Y341800D02*
X145100D01*
G01X145600Y319800D02*
X145550Y319750D01*
X139850D01*
G01Y322900D02*
X146900D01*
G01X139850Y332350D02*
X137600D01*
X137350Y332600D01*
X134600D01*
G01X139850Y335500D02*
X134600D01*
G01X139850Y329200D02*
X134600D01*
G01X131550Y353250D02*
X131500Y353300D01*
Y365700D01*
X133200Y367400D01*
X138250D01*
G01X151200Y371800D02*
X151100Y371900D01*
X132600D01*
X128400Y367700D01*
Y353250D01*
G01X122100D02*
Y365500D01*
G01X145800Y393200D02*
Y387200D01*
X143700Y385100D01*
G01X140800Y393200D02*
Y387100D01*
G01X125800Y393200D02*
Y385100D01*
G01X120800Y393200D02*
Y387600D01*
X120300Y387100D01*
X118800D01*
G01X135800Y393200D02*
Y387100D01*
G01X130800Y393200D02*
Y387100D01*
G01X145700Y382200D02*
X150800Y387300D01*
Y393200D01*
G01X135800Y413600D02*
Y418700D01*
X133800Y420700D01*
G01X124000Y427400D02*
X120800Y424200D01*
Y413600D01*
G01X140800D02*
Y424700D01*
X145700Y429600D01*
X226300D01*
X232500Y435800D01*
G01X128200Y423800D02*
X125800Y421400D01*
Y413600D01*
G01X157500Y491600D02*
X144000D01*
X140000Y495600D01*
G01X186100Y187000D02*
X183300Y189800D01*
Y193300D01*
X181100Y195500D01*
X174900D01*
X171200Y199200D01*
Y224400D01*
X174900Y228100D01*
Y256700D01*
X172800Y258800D01*
Y274900D01*
X177200Y279300D01*
Y284830D01*
X218400Y326030D01*
Y338600D01*
G01X163150Y367500D02*
X159100D01*
X157900Y368700D01*
Y371900D01*
G01X150800Y413600D02*
X155400D01*
X160500Y418700D01*
X173900D01*
G01X145800Y413600D02*
Y419700D01*
G01X151000Y507700D02*
X153900D01*
X157500Y504100D01*
Y503400D01*
G01X252400Y-31700D02*
X197000Y23700D01*
Y58700D01*
X190700Y65000D01*
Y97700D01*
X185000Y103400D01*
Y124300D01*
G01X251500Y-17600D02*
X201940Y31960D01*
Y61050D01*
X200500Y62490D01*
X200480D01*
X193940Y69030D01*
Y100560D01*
X187100Y107400D01*
Y128200D01*
X189400Y130500D01*
Y142400D01*
G01X201220Y165930D02*
X199250Y167900D01*
X199200D01*
G01X199250Y175780D02*
X201220Y173810D01*
G01X189000Y193900D02*
Y199400D01*
X181600Y206800D01*
Y217900D01*
X180800Y218700D01*
Y224800D01*
G01X193350Y189550D02*
X189000Y193900D01*
G01X197500Y491600D02*
X184000D01*
X180000Y495600D01*
G01X204000Y499100D02*
X201100D01*
X197500Y502700D01*
Y503400D01*
G01X228780Y150180D02*
X230760Y148200D01*
X230800D01*
G01X228780Y165930D02*
Y165940D01*
X230760Y167920D01*
G01X228780Y173810D02*
X230750Y175780D01*
Y175790D01*
G01X228780Y169870D02*
X228790D01*
X230750Y171830D01*
G01X224840Y154120D02*
Y154130D01*
X226820Y156110D01*
G01X228780Y161990D02*
Y162000D01*
X230740Y163960D01*
G01X224840Y158060D02*
X224850D01*
X226810Y160020D01*
G01X220910Y177740D02*
X220840D01*
X218900Y175800D01*
G01X224840Y161990D02*
X226800Y163950D01*
Y163970D01*
G01X224840Y173810D02*
Y173740D01*
X223000Y171900D01*
G01X228780Y158060D02*
X228800D01*
X230780Y160040D01*
G01X209090Y169870D02*
X207120Y171840D01*
Y171860D01*
G01X205160Y185620D02*
X207100Y187560D01*
Y193000D01*
G01X205160Y189550D02*
X204900Y191500D01*
Y195200D01*
X206400Y196700D01*
G01X205160Y181680D02*
Y181760D01*
X207100Y183700D01*
G01X228780Y177740D02*
X230740Y179700D01*
Y179720D01*
G01X220910Y181680D02*
X222890Y183660D01*
Y183680D01*
G01X224840Y177740D02*
X222900Y179680D01*
X222860D01*
G01X209090Y185620D02*
X211100Y187630D01*
Y192800D01*
G01X215900Y198300D02*
X215000Y196300D01*
Y187590D01*
X213030Y185620D01*
G01Y181680D02*
X213020D01*
X211100Y183600D01*
G01X209090Y181680D02*
X211060Y179710D01*
X211070D01*
G01X216970Y185620D02*
Y185570D01*
X215300Y183900D01*
G01X216970Y181680D02*
Y181630D01*
X218900Y179700D01*
G01X220910Y185620D02*
X219000Y187530D01*
Y192800D01*
G01X224840Y189550D02*
X227000Y191710D01*
Y200200D01*
X228700Y201900D01*
G01X224100Y194200D02*
X223090Y192300D01*
Y187370D01*
X224840Y185620D01*
G01Y181680D02*
X226800Y183640D01*
Y187500D01*
G01X206700Y218300D02*
Y215700D01*
X203700Y212700D01*
Y203500D01*
G01X220910Y189550D02*
X220950Y189590D01*
Y195550D01*
X224200Y198800D01*
G01X209090Y177740D02*
X207140Y179690D01*
Y179720D01*
G01X206700Y218300D02*
X209100D01*
X222400Y231600D01*
Y260900D01*
X229200Y267700D01*
Y271000D01*
X264200Y306000D01*
X277100D01*
X291100Y320000D01*
X306300D01*
G01X212100Y235400D02*
X219500Y242800D01*
Y261100D01*
X226700Y268300D01*
Y272500D01*
X263500Y309300D01*
X274800D01*
G01X232720Y150180D02*
X234600Y148300D01*
Y144100D01*
X242800Y135900D01*
G01X236650Y146250D02*
X242500Y140400D01*
G01X236650Y150180D02*
X236920D01*
X242700Y144400D01*
G01X232720Y173810D02*
X234660Y175750D01*
X242350D01*
X244400Y173700D01*
G01X232720Y165930D02*
X234590Y167800D01*
X242200D01*
G01X232720Y169870D02*
Y169880D01*
X234680Y171840D01*
G01X232720Y161990D02*
X232790D01*
X234600Y163800D01*
G01X236650Y158060D02*
X236740Y158150D01*
X242450D01*
X242500Y158100D01*
G01X232720Y158060D02*
X234580Y156200D01*
X239800D01*
G01X236650Y161990D02*
X241890D01*
X243300Y163400D01*
G01X232720Y177740D02*
X234780Y179800D01*
X240800D01*
G01X236650Y177740D02*
X244140D01*
X246700Y180300D01*
G01X232720Y181680D02*
X234300Y182400D01*
X235800Y183800D01*
X242900D01*
G01X232720Y185620D02*
X233960Y187960D01*
X234500Y188500D01*
Y189880D01*
X236220Y191600D01*
X237160D01*
X239400Y193840D01*
Y195160D01*
X241840Y197600D01*
X245300D01*
G01X236650Y189550D02*
X241900Y194800D01*
Y194900D01*
G01X232720Y189550D02*
Y189920D01*
X237000Y194200D01*
G01X250000Y491600D02*
X236500D01*
X232500Y495600D01*
G01X250000Y503400D02*
Y508700D01*
G01X284100Y-105000D02*
X277000D01*
G01X284100Y-80000D02*
X276500D01*
G01X284100Y-55000D02*
X276500D01*
G01X277000Y61500D02*
X282600D01*
X284100Y60000D01*
G01Y85000D02*
X277000D01*
G01X277700Y109800D02*
X283900D01*
X284100Y110000D01*
G01X295900Y-105000D02*
X302000D01*
X304100Y-102900D01*
Y-95000D01*
G01X295900Y-80000D02*
X306900D01*
G01X295900Y-55000D02*
X306000D01*
G01X295900Y60000D02*
X296700D01*
X306600Y69900D01*
X323000D01*
X323100Y70000D01*
G01X295900Y85000D02*
X306900D01*
G01X301200Y100000D02*
Y105500D01*
X296700Y110000D01*
X295900D01*
M02*
